<svg xmlns="http://www.w3.org/2000/svg" viewBox="0 0 721 743"><path fill="currentColor" fill-rule="evenodd" d="M350.367.282c-15.559 2.201-24.683 4.959-36.5 11.034-22.305 11.466-36.682 27.843-44.225 50.378-3.005 8.98-3.169 10.239-2.997 23 .1 7.425.304 14.987.452 16.805l.27 3.304-10.142 3.839c-61.367 23.227-110.774 62.246-152.016 120.052-29.783 41.746-52.18 94.251-63.339 148.486-4.706 22.871-10.039 77.514-7.566 77.514.24 0 4.403-2.493 9.25-5.541 64.568-40.596 163.358-61.235 302.313-63.156 88.909-1.23 161.383 5.481 228.09 21.121 8.87 2.08 34.388 9.888 44.898 13.739 23.262 8.523 46.946 20.27 65.928 32.702l2.416 1.582-.652-16.973c-3.126-81.468-31.877-160.247-82.288-225.474-11.746-15.198-37.881-41.809-53.102-54.068-26.863-21.635-53.272-36.978-84.29-48.97l-12.5-4.833.285-3.314c.156-1.823.381-9.39.5-16.815.238-14.943-1.332-22.16-7.497-34.465C435.66 26.29 411.044 7.894 383.367 2.188c-7.876-1.624-27.133-2.736-33-1.906Zm-21 409.029c-118.706 4.212-206.364 21.668-270.67 53.901-15.293 7.665-23.689 12.813-34.46 21.128-14.06 10.853-21.12 21.022-23.453 33.777-.724 3.964-.946 23.319-.669 58.5.46 58.322.362 57.383 7.371 71.326 13.233 26.326 59.214 51.164 126.142 68.141 138.748 35.195 316.085 35.24 453.58.115 69.867-17.848 113.311-41.785 126.737-69.83 6.35-13.266 6.422-14.102 6.422-74.675 0-50.099-.147-54.937-1.824-59.914-5.731-17.011-23.433-32.102-57.676-49.166-58.791-29.299-137.69-46.542-237.5-51.903-20.728-1.114-78.026-1.967-94-1.4Zm68.5 163.383c45.152 1.434 81.347 4.542 116.772 10.024 68.718 10.636 126.793 30.595 150.167 51.612 11.749 10.562 11.105 18.904-2.228 28.866-23.561 17.606-81.27 33.464-156.211 42.927-45.343 5.726-75.818 7.647-131.468 8.286-59.987.689-106.665-1.634-156.322-7.778-99.105-12.263-170.71-36.882-170.71-58.692 0-9.192 16.905-22.73 42.381-33.938 49.878-21.944 126.949-36.694 210.619-40.308 47.881-2.069 59.565-2.189 97-.999Z" clip-rule="evenodd"/></svg>
