<svg xmlns="http://www.w3.org/2000/svg" viewBox="0 0 751 727"><path fill="currentColor" fill-rule="evenodd" d="M156.5 6.457c-18.15 3.488-42.45 8.163-54 10.39-11.55 2.225-37.75 7.187-58.223 11.026-20.472 3.84-38.135 7.55-39.25 8.246C2.797 37.512 0 42.71 0 45.457c0 1.798 3.171 13.696 12.512 46.947 2.935 10.45 8.788 31.375 13.006 46.5s11.624 41.45 16.457 58.5c4.834 17.05 10.826 38.425 13.316 47.5 2.49 9.075 12.011 42.6 21.158 74.5 9.147 31.9 17.803 62.5 19.234 68l2.603 10 .179 68.5c.197 75.187.353 77.501 6.312 93.646 7.066 19.141 21.373 33.169 41.214 40.41 11.211 4.092 19.325 5.686 35.172 6.911 21.168 1.636 25.343 2.614 62.337 14.6 77.061 24.966 95.621 31.63 124.5 44.699 27.486 12.438 32.068 14.334 43.503 17.997 17.982 5.76 27.735 7.066 48.276 6.465 15.9-.466 29.221-2.159 29.221-3.716 0-1.735-66.635-25.069-138.5-48.498-40.401-13.172-49.462-16.517-64.435-23.784-14.351-6.966-26.738-15.487-36.502-25.11-19.204-18.927-26.617-38.555-25.271-66.911.984-20.727 5.443-39.975 14.563-62.859 15.067-37.804 17.961-54.531 16.761-96.85-.699-24.654.456-16.089-16.184-120-9.439-58.946-9.289-57.997-16.399-103.5-2.75-17.6-6.139-38.975-7.53-47.5-2.566-15.728-10.814-69.352-12.074-78.5-.379-2.75-1.335-6.273-2.125-7.829-1.444-2.842-6.701-5.762-10.022-5.566-.98.058-16.632 2.96-34.782 6.448Zm194.504 127.657c-89.835.961-85.314.621-88.431 6.649-1.614 3.122-1.812-1.163 5.909 128.141 5.364 89.834 5.81 100.08 5.147 118.5-.974 27.109-3.982 42.469-13.121 67-15.108 40.555-17.89 52.039-17.927 74-.022 12.724.226 14.713 2.717 21.828 7.021 20.056 23.51 35.881 51.313 49.246 10.77 5.178 34.061 13.31 91.389 31.911 32.444 10.527 58.613 19.532 83 28.561 30.096 11.142 26.135 9.408 110 48.174 32.221 14.894 44.89 18.204 69.5 18.157 32.233-.062 57.851-10.1 76.411-29.941 15.858-16.952 23.378-36.199 23.417-59.936.031-18.512-3.207-31.869-12.389-51.113-5.76-12.073-13.907-23.155-24.59-33.451-13.655-13.158-26.914-21.202-56.707-34.402-8.172-3.62-16.722-7.427-19-8.459a7078.709 7078.709 0 0 0-14.142-6.369c-5.5-2.471-22.375-10.206-37.5-17.189-25.453-11.752-38.761-17.932-84.631-39.3-9.423-4.39-19.998-9.922-23.5-12.294-19.085-12.925-28.416-28.163-31.482-51.409-1.225-9.291-1.289-18.053-.413-56.014 1.3-56.246 3.817-151.479 4.489-169.819.599-16.368-.336-19.895-5.895-22.217-1.927-.805-5.206-1.39-7.286-1.3-2.08.091-40.905.561-86.278 1.046Z" clip-rule="evenodd"/></svg>