<svg xmlns="http://www.w3.org/2000/svg" viewBox="0 0 663 587"><path fill="currentColor" fill-rule="evenodd" d="M285.527.972c-80.688 4.916-146.944 21.896-186 47.67-8.801 5.807-21.986 18.998-26.262 26.273-8.065 13.722-9.627 24.225-8.985 60.397.394 22.188.765 27.135 2.523 33.61 7.952 29.286 25.922 47.252 68.724 68.71 36.094 18.095 75.033 31.888 122.228 43.297 14.38 3.477 46.449 9.9 49.423 9.9.533 0 3.326-2.23 6.208-4.955 10.161-9.61 25.596-15.315 54.141-20.011 22.952-3.777 37.599-5.011 59.619-5.024 19.267-.011 29.879 1.362 41.869 5.419l7.321 2.477 11.096-4.567c26.17-10.771 56.802-27.252 74.278-39.964 30.706-22.333 37.173-40.476 36.056-101.14-.416-22.554-.796-27.764-2.434-33.314C580.789 40.469 501.999 8.88 373.544.83 354.91-.336 305.719-.257 285.527.973Zm114 46.317c44.949 4.137 78.499 10.208 105.197 19.035 11.605 3.837 30.984 13.68 37.803 19.203 17.834 14.44 18.962 30.583 3.283 46.974-13.363 13.97-34.607 25.461-67.783 36.662-91.012 30.727-184.489 32.244-279.5 4.536-26.602-7.758-58.007-22.146-72.5-33.214-8.978-6.857-16.47-15.524-18.62-21.541-7.077-19.803 10.832-38.536 49.62-51.901 30.929-10.657 79.542-18.537 131-21.236 23.746-1.245 91.675-.342 111.5 1.482ZM41.226 190.212c-10.85 11.472-27.396 40.975-33.71 60.107-9.81 29.727-9.992 48.215-.693 70.346 6.585 15.673 24.005 36.823 42.704 51.851 55.028 44.222 157.951 87.081 245.5 102.23 17.956 3.107 34.381 4.422 46.879 3.752 16.223-.869 15.658-.258 16.479-17.84.812-17.385-.753-49.878-3.397-70.565-5.17-40.444-15.427-70.627-25.909-76.236-.921-.493-7.272-1.809-14.113-2.925-63.594-10.375-127.519-29.054-174.853-51.092-46.482-21.641-75.461-44.013-86.621-66.872-2.501-5.124-4.557-8.125-5.57-8.131-.883-.004-3.896 2.414-6.696 5.375Zm569.378.367c-2.485 7.992-8.199 18.628-13.831 25.743-14.036 17.734-44.634 38.504-82.623 56.086-9.984 4.621-17.117 8.493-17.119 9.295-.002.755 3.934 5.504 8.746 10.553 21.359 22.407 38.678 54.528 58.642 108.761 2.693 7.314 3.395 7.19 21.855-3.872 32.666-19.574 57.53-45.63 68.626-71.913 3.444-8.157 6.732-21.307 7.61-30.431.696-7.226-.704-20.982-3.152-30.972-5.517-22.518-24.546-59.121-38.6-74.25-6.008-6.467-7.89-6.281-10.154 1Zm-208.577 87.865c-25.599 2.925-43.346 5.98-55.5 9.552-7.825 2.3-14.5 5.414-14.5 6.764 0 .49 2.138 1.922 4.75 3.182 16.671 8.044 29.054 36.742 35.764 82.887 4.305 29.603 4.823 43.537 3.922 105.5-1.121 76.998-1.102 80.308.471 85 4.321 12.891 14.227 16.58 39.018 14.529 37.478-3.1 104.036-18.728 137.575-32.303 11.074-4.482 13.668-5.886 17.842-9.658 9.688-8.755 9.846-22.411.661-57.068-17.814-67.209-41.921-129.435-62.224-160.609-12.451-19.118-28.32-34.629-42.352-41.396-11.398-5.496-15.966-6.243-39.927-6.523-12.1-.141-23.575-.077-25.5.143Z" clip-rule="evenodd"/></svg>
