<svg xmlns="http://www.w3.org/2000/svg" width="512" height="512" fill="none" viewBox="0 0 512 512">
  <path fill="#fff" d="m379.545 188.484-.31-1.036.471-.323 9.592-5.502h-5.596l-8.825 4.533H237.449v10.291h188.197v-7.963h-46.101Zm-103.461 5.246h-23.178v-4.036h23.178v4.036Zm33.63 0h-23.178v-4.036h23.178v4.036Zm32.73 0h-23.178v-4.036h23.178v4.036Zm33.186 0h-23.178v-4.036h23.178v4.036Zm32.729 0h-23.178v-4.036h23.178v4.036Zm-193.241 24.335h-42.024v23.569h41.971l-.108-4.682h-24.712a4.925 4.925 0 0 1-4.385-4.735 6.882 6.882 0 0 1 3.807-6.174 3.567 3.567 0 0 1 1.735-.444h23.609l.107-7.534Zm-33.549 12.39h-4.319c-.914 0-.995.081-.968-.673 0-.336.753-.08.968-1.237v-.848a2.154 2.154 0 0 1 0-.952 2.15 2.15 0 0 1 1.157-1.452 2.148 2.148 0 0 1 1.857 0 2.15 2.15 0 0 1 1.157 1.452c.071.313.071.639 0 .952.013.284.044.568.094.848.255 1.183.995.82 1.009 1.237.013.417.121.727-.955.673Z"/>
  <path fill="#A1A1A1" d="M157.167 256.068c-5.381-.673-8.704-6.377-11.852-12.672-2.919-5.838-5.946-14.313-12.941-17.824-2.421-1.211-11.77-1.05-16.6-.337a8.642 8.642 0 0 0-4.318 1.843c-5.071 4.265-1.628 11.26-2.031 14.421a20.676 20.676 0 0 1-3.108 8.677C94.52 268.363 87 297.945 87 327.647c0 7.237 7.331 7.789 10.573 7.681 1.469-.029 2.938.03 4.399.175 18.941 1.682 31.505-1.116 31.505-5.166 0-8.286-5.892-18.335-3.538-22.761 1.628-3.04 6.215-6.457 6.928-8.004.514-1.186.823-2.45.915-3.739a33.901 33.901 0 0 0-.202-6.969 4.424 4.424 0 0 1 2.691-4.762c5.017-2.058 5.206-6.067 5.206-6.067a6.444 6.444 0 0 1 3.255-4.103 5.29 5.29 0 0 1 2.516-.672l13.721-.175a2.515 2.515 0 0 0 1.735-.767.454.454 0 0 0 .121-.323c0-1.049 0-2.058.108-3.013.323-8.583-4.829-12.295-9.766-12.914Zm-26.851-57.952a22.412 22.412 0 0 1 8.071 5.744c.301.32.528.704.662 1.123.135.418.176.862.118 1.298-.618 4.789.915 6.619 2.193 7.318 1.345-.982 9.255-10.049 10.883-15.645-3.619 0-4.91 2.368-6.403 3.229a8.84 8.84 0 0 0-5.206-4.036c-4.48-1.493-9.08-.915-10.506 0a.534.534 0 0 0 .188.969Z"/>
  <path fill="#fff" d="M187.219 204.788a3.654 3.654 0 0 0 3.134 3.134l24.766-.081v-6.43h-24.766c-1.197 0-3.188.283-3.134 3.377Zm0 27.698a3.642 3.642 0 0 0 3.134 3.134l24.658-.081v-6.403h-24.658c-1.197-.04-3.188.256-3.134 3.35Z"/>
  <path fill="#A1A1A1" d="M412.893 176h-17.515v4.264h17.515V176Z"/>
  <path fill="#fff" d="m425.322 187.138-1.842-5.515h-10.587v-.014h-17.515v.014h-3.377l-9.605 5.515h42.926Z"/>
  <path fill="#A1A1A1" d="M263.278 209.146h-45.294v4.398h45.294v-4.398Zm10.708 2.192a2.209 2.209 0 0 0-2.206-2.192h-7.211v4.371h7.117a2.202 2.202 0 0 0 2.3-2.179Z"/>
  <path fill="#fff" d="M215.118 193.246h-42.024v23.474h41.971v-7.533h-24.631a5.48 5.48 0 0 1-4.52-4.533 6.722 6.722 0 0 1 2.852-6.31 3.333 3.333 0 0 1 1.816-.538h24.536v-4.56ZM181.73 205.81h-4.318c-.915 0-.996 0-.969-.672 0-.336.754-.081.969-1.238v-.847a2.125 2.125 0 0 1 0-.952 2.13 2.13 0 0 1 1.157-1.452 2.144 2.144 0 0 1 1.856 0 2.13 2.13 0 0 1 1.157 1.452c.072.313.072.638 0 .952.014.284.045.567.094.847.256 1.184.996.807 1.009 1.238.014.43.121.713-.955.672Zm-13.493 30.765h2.166v-38.271h-2.166a1.68 1.68 0 0 0-1.668 1.681v34.976a1.686 1.686 0 0 0 1.668 1.614Zm-11.554-54.145a1.345 1.345 0 1 0-2.69 0 1.345 1.345 0 0 0 2.69 0Zm80.901 38.703h-19.6v6.457h19.587v-3.807H414.4l.498-2.65H237.584Z"/>
  <path fill="#A1A1A1" d="M154.812 187.958h4.736v-3.403h17.609a8.647 8.647 0 0 0-5.731-3.767h-10.762v-3.268h-10.641v10.438h4.789Zm-2.219-5.582a2.695 2.695 0 0 1 1.661-2.486 2.692 2.692 0 0 1 3.515 3.515 2.695 2.695 0 0 1-4.369.892 2.69 2.69 0 0 1-.807-1.867v-.054Zm33.685 85.893c5.609 1.143 8.152-.35 9.201-1.211 1.049-.861-6.592-.175-9.888-6.08-3.295-5.906 2.422-9.888 2.422-9.888v-3.282c-1.224-.134-10.95-.995-15.147 2.691a5.544 5.544 0 0 0-1.884 4.345h4.197s4.48 12.08 11.099 13.425Z"/>
  <path fill="#fff" d="M236.104 197.792v-11.663l-7.802-.229h-67.409v3.404h-5.811a14.493 14.493 0 0 1-1.346 8.69c-1.466 5.542-8.797 14.367-11.205 16.425-7.412 7.574-18.766 6.793-23.219 6.793a5.173 5.173 0 0 0-4.318 2.691c6.161-.31 13.224-1.144 17.999.336 7.318 2.274 10.883 12.995 13.614 18.443 2.973 5.959 6.04 11.354 10.762 11.946 5.515.686 11.286 4.802 10.95 14.286v1.345c1.103.215 2.825 2.193 2.825 2.193a9.41 9.41 0 0 0 6.537 2.69h17.017a12.097 12.097 0 0 0 9.538-4.452l4.964-6.848a6.576 6.576 0 0 0 1.345-3.901v-10.102a3.271 3.271 0 0 1 2.145-3.13 3.27 3.27 0 0 1 1.326-.193h17.649l.175-.135 5.798-17.407h-19.654v14.004h-47.58v-5.058h-2.516a2.688 2.688 0 0 1-2.69-2.69v-35.608a2.69 2.69 0 0 1 2.69-2.691h2.516V191.9h47.58v15.927h54.482a2.31 2.31 0 0 1 1.748.794c2.422 2.946.364 6.282-2.475 6.282H217.93l-.08 4.91h197.451l10.345-21.954-189.542-.067Zm-66.48 57.118c0-.659.565-3.888 2.098-5.152 4.722-3.888 14.555-3.484 16.304-3.309h15.564a2.298 2.298 0 0 1 2.301 2.3v10.345a6.831 6.831 0 0 1-.888 3.403c-1.453 2.597-4.574 7.372-8.314 8.368-5.206 1.345-15.618 0-18.039 0-2.421 0-9.591-5.543-9.026-15.955Z"/>
</svg>
