<svg xmlns="http://www.w3.org/2000/svg" width="512" height="512" fill="none" viewBox="0 0 512 512">
  <path fill="#A1A1A1" d="m178.139 181.191-8.81-5.022a1.51 1.51 0 0 0-2.202 1.388v3.634h11.012Zm-42.221 44.798a16.794 16.794 0 0 0 5.561-3.733 17.126 17.126 0 0 0 3.953-6.607l-10.318-5.848a1.996 1.996 0 0 0-2.599.551l-5.506 7.477a2.021 2.021 0 0 0-.065 2.286c.146.228.337.424.56.577l7.819 5.297h.595Zm152.144-43.675h-62.164v3.921h62.164v-3.921Zm12.521 0h-5.649v3.921h5.649v-3.921Z"/>
  <path fill="#fff" d="M236.734 210.737a9.822 9.822 0 0 1-3.38-.606 13.766 13.766 0 0 1-7.709-6.695 8.904 8.904 0 0 1-.848-3.899v-17.223h-59.014a3.49 3.49 0 0 0-2.687 1.278l-13.369 16.144a6.172 6.172 0 0 0-1.354 3.105c-.496 3.777-1.652 12.422-1.916 13.292a18.565 18.565 0 0 1-4.185 6.882 18.247 18.247 0 0 1-6.211 4.064c-4.325.491-8.675.73-13.027.716a2.339 2.339 0 0 0-1.817.793l-3.062 3.501a.669.669 0 0 0-.094.711.674.674 0 0 0 .601.391h24.48s14.789-1.289 16.287 15.505l6.728-20.626a3.093 3.093 0 0 1 2.93-2.081l98.239-1.024 93.119-.199v-14.029H236.734Zm-72.757 8.688a1.104 1.104 0 0 1-1.024.716 1.02 1.02 0 0 1-.397-.077 1.097 1.097 0 0 1-.71-.997c-.004-.144.02-.288.072-.423l10.098-21.694a1.102 1.102 0 0 1 2.048.793l-10.087 21.682Zm5.583.716a1.012 1.012 0 0 1-.396-.077 1.101 1.101 0 0 1-.639-1.42l10.098-21.694a1.102 1.102 0 0 1 2.048.793l-10.087 21.682a1.104 1.104 0 0 1-1.024.716Zm6.607 0a1.016 1.016 0 0 1-.396-.077 1.097 1.097 0 0 1-.71-.997 1.11 1.11 0 0 1 .071-.423l10.098-21.694a1.105 1.105 0 0 1 1.008-.78 1.09 1.09 0 0 1 .821.317 1.1 1.1 0 0 1 .22 1.256l-10.087 21.682a1.103 1.103 0 0 1-1.025.716Zm6.608 0a1.02 1.02 0 0 1-.397-.077 1.097 1.097 0 0 1-.71-.997c-.004-.144.02-.288.072-.423l10.098-21.694a1.09 1.09 0 0 1 .571-.67 1.101 1.101 0 0 1 1.477 1.463l-10.087 21.682a1.104 1.104 0 0 1-1.024.716Zm6.607 0a1.012 1.012 0 0 1-.396-.077 1.101 1.101 0 0 1-.639-1.42l10.098-21.694a1.105 1.105 0 0 1 1.007-.78c.152-.007.303.018.444.073.141.055.27.138.378.244a1.115 1.115 0 0 1 .325.818 1.106 1.106 0 0 1-.106.438l-10.087 21.682a1.104 1.104 0 0 1-1.024.716Zm6.607 0a1.012 1.012 0 0 1-.396-.077 1.097 1.097 0 0 1-.71-.997 1.11 1.11 0 0 1 .071-.423l10.098-21.694a1.105 1.105 0 0 1 1.008-.78 1.112 1.112 0 0 1 .821.317 1.115 1.115 0 0 1 .326.818 1.106 1.106 0 0 1-.106.438l-10.088 21.682a1.101 1.101 0 0 1-1.024.716Zm6.608 0a1.02 1.02 0 0 1-.397-.077 1.097 1.097 0 0 1-.71-.997 1.11 1.11 0 0 1 .071-.423l10.099-21.694a1.103 1.103 0 0 1 .571-.67 1.101 1.101 0 0 1 1.477 1.463l-10.087 21.682a1.104 1.104 0 0 1-1.024.716Zm17.718-22.398-10.087 21.682a1.104 1.104 0 0 1-1.024.716 1.02 1.02 0 0 1-.397-.077 1.097 1.097 0 0 1-.71-.997c-.004-.144.02-.288.072-.423l10.098-21.694a1.09 1.09 0 0 1 .571-.67 1.106 1.106 0 0 1 1.257.207 1.103 1.103 0 0 1 .22 1.256Z"/>
  <path fill="#A1A1A1" d="M392.831 186.234v-3.237h-8.545v-4.901a1.43 1.43 0 0 0-.578-1.141 1.427 1.427 0 0 0-1.261-.213l-7.885 2.466a3.305 3.305 0 0 0-2.279 3.106h-14.757v3.92h35.305Zm-42.176-3.92h-5.649v3.921h5.649v-3.921Zm-37.552 0h-5.649v3.921h5.649v-3.921Zm80.004 27.322-.265-22.3H225.898v12.201a7.88 7.88 0 0 0 .738 3.425 12.607 12.607 0 0 0 7.103 6.134 8.622 8.622 0 0 0 2.995.54h156.373Zm-67.482-27.322h-5.649v3.921h5.649v-3.921Zm12.509 0h-5.638v3.921h5.638v-3.921Z"/>
  <path fill="#fff" d="M251.601 243.52c0 1.817-.187 19.172-.198 19.172a2.428 2.428 0 0 1-1.646 2.687 2.428 2.428 0 0 1-1.129.088l-33.455.517a10.3 10.3 0 0 0 .352-4.867h29.513c1.365 0 1.949-.54 1.949-1.927v-15.67c.779.38 1.633.583 2.5.594a7.234 7.234 0 0 0 2.114-.594Z"/>
  <path fill="#A1A1A1" d="M192.311 334.062h-48.828V336h48.828v-1.938Zm26.011-95.245v9.328c.057 1.279.348 2.537.859 3.711 1.443 2.478 4.978 7.026 11.376 7.202a.063.063 0 0 0 .016-.023.06.06 0 0 0 .006-.027.066.066 0 0 0-.022-.049c-.738-.793-5.418-5-5.969-9.405a89.865 89.865 0 0 1 0-10.737h-6.266Z"/>
  <path fill="#fff" d="M249.178 238.972a1.42 1.42 0 1 0 0-2.841 1.42 1.42 0 0 0 0 2.841Zm18.699-11.993v5.87l11.86-.11v2.511h6.651v-2.577l5.76-.055v2.632h6.651v-2.698l5.759-.055v2.753h6.641v-2.819l5.759-.056v2.875h6.652v-2.941l5.759-.055v2.996h6.64v-3.051l5.76-.055v3.106h6.651v-3.172l5.759-.055v3.227h6.652v-3.293l5.759-.055v3.348h6.64l.088-8.193-105.441-.078Zm93.669-16.243v14.041h23.819a1.764 1.764 0 0 0 1.63-1.102c1.509-3.435 6.123-12.873 6.134-12.355v-.617l-31.583.033Zm-140.052 19.547a2.093 2.093 0 1 0 0 4.186 2.093 2.093 0 0 0 0-4.186Zm27.717 1.553a1.883 1.883 0 0 0 1.883-1.883V227.2h-3.766v2.698a1.882 1.882 0 0 0 .529 1.371 1.867 1.867 0 0 0 1.354.567Z"/>
  <path fill="#fff" d="m266.577 226.98-14.382.198v2.775a2.98 2.98 0 0 1-2.984 2.984 2.984 2.984 0 0 1-2.984-2.984v-2.687l-65.655.925-.429 4.548a4.903 4.903 0 0 0 .848 3.304 4.639 4.639 0 0 0 3.821 1.916l57.01-.242c.377 0 .75.071 1.101.209a6.146 6.146 0 0 1 3.392 3.127 3.522 3.522 0 0 0 5.759.969c2.203-2.279 5.738-5.307 9.438-5.109a4.764 4.764 0 0 0 4.713-2.61c.206-.472.379-.958.517-1.454v-5.924a.628.628 0 0 1-.165.055Zm-45.084 8.589a3.193 3.193 0 1 1 0-6.386 3.193 3.193 0 0 1 0 6.386Zm27.674 4.515a2.528 2.528 0 0 1-2.484-3.027 2.534 2.534 0 1 1 4.279 2.282 2.536 2.536 0 0 1-1.784.745h-.011Z"/>
  <path fill="#A1A1A1" d="m203.147 238.762-3.094 15.417-.484 2.423-1.95 9.691-.495 2.423-10.264 51.085a2.124 2.124 0 0 1-2.07 1.773h-54.576l28.632-69.52 8.38-22.465a1.995 1.995 0 0 1 1.883-1.332h10.373l-.407 4.405a6.385 6.385 0 0 0 .286 2.654 5.747 5.747 0 0 0 5.506 3.832l18.28-.386Z"/>
  <path fill="#fff" d="M209.446 262.67a2.682 2.682 0 0 1-3.218 2.623 2.693 2.693 0 0 1-2.105-2.114 2.683 2.683 0 0 1 1.145-2.755 2.681 2.681 0 0 1 2.522-.247 2.689 2.689 0 0 1 1.656 2.493Z"/>
  <path fill="#fff" d="M209.688 254.301a3.636 3.636 0 0 1-.826-2.742l1.443-12.807h-6.035l-2.962 14.734-.419 2.082-2.444 12.19-.419 2.059-10.087 50.216a3.214 3.214 0 0 1-3.149 2.643h-54.918c-.683 2.632-1.872 9.69 5.065 9.966l8.546.341h48.828s5.506 0 5.121-5.506c-.298-4.801 4.757-44.049 6.034-53.728a2.94 2.94 0 0 1 1.982-2.346c3.007-1.156 7.599-2.61 8.59-7.455.991-4.846-3.172-8.248-4.35-9.647Zm-2.929 12.114a3.806 3.806 0 0 1-3.519-2.341 3.798 3.798 0 1 1 7.307-1.448 3.798 3.798 0 0 1-1.074 2.743 3.77 3.77 0 0 1-1.241.847c-.466.197-.967.199-1.473.199Z"/>
  <path fill="#fff" d="M209.446 262.67a2.682 2.682 0 0 1-3.218 2.623 2.693 2.693 0 0 1-2.105-2.114 2.683 2.683 0 0 1 1.145-2.755 2.681 2.681 0 0 1 2.522-.247 2.689 2.689 0 0 1 1.656 2.493Z"/>
</svg>
