<svg xmlns="http://www.w3.org/2000/svg" width="512" height="512" fill="none" viewBox="0 0 512 512">
  <path fill="#A1A1A1" d="M291.028 190.382c-.643 1.113-1.238 2.402-1.77 3.579l-31.502-18.188s-1.566-2.685 2.121-3.673l31.151 18.282Zm19.427 15.967-14.693-8.484c.531-1.177 1.127-2.466 1.769-3.579l14.518 8.531c2.188 2.895-1.594 3.532-1.594 3.532Z"/>
  <path fill="#fff" d="m257.772 168.806 26.478-45.862c-.445-.257-.955-.403-1.64-.502-2.055-.296-3.383.719-5.576 2.718-2.433 2.157-5.474 4.854-10.656 4.831-2.71.068-4.937-1.218-6.795-2.884l7.639 17.619-12.79 22.152 3.34 1.928Zm34.221 19.907-33.108-19.264 26.478-45.862c.827.625 1.237 1.456 1.807 2.527.774 1.486 1.707 3.212 3.822 4.433.891.514 2.513 1.303 4.47 2.284 7.493 3.732 23.034 11.518 26.595 17.433 3.197 5.259 7.296 5.102 9.959 4.859 2.424-.085 2.471.091 2.706.969.483 2.505.607 3.319-10.555 10.826-.415.205-.783.586-1.075 1.605-12.316 1.795-23.97 8.87-31.099 20.19Zm37.94 22.202-31.438-18.299c5.78-8.982 14.877-14.713 24.816-16.248.414 3.653 1.158 8.535 2.577 15.588 1.214 6.638 2.809 13.644 4.045 18.959Z"/>
  <path fill="#A1A1A1" d="M351.773 261.52c.167-1.832.186-5.978.004-11.575-3.645 2.2-7.718 3.856-11.868 4.874-.075 20.439-4.911 39.613-9.104 53.816-7.249 23.866-47.514 75.869-47.514 75.869l-9.884 28.431c86.581-91.607 78.366-151.415 78.366-151.415Zm-2.531-79.679c-.668-.386-1.272-.883-1.939-1.268-6.791-3.921-14.246-5.405-21.487-4.688 1.243 10.959 5.694 31.785 8.14 40.915 3.496 9.884 5.299 20.128 5.797 30.063 4.279-1.241 8.322-3.359 11.825-6.086-.482-16.902-1.541-40.518-2.336-58.936Zm-.438-9.01c-.429-11.083-.778-18.705-.778-18.705l-68.459-39.525c-11.8-6.812-17.024-8.047-23.065 2.416l.488 1.469c1.638 4.36 4.407 9.076 9.366 8.97 4.321-.028 6.69-2.075 8.947-4.185 2.129-1.888 4.322-3.887 7.748-3.393.972.116 1.593.326 2.817 1.033 1.447.835 2.89 2.707 3.506 3.953.727 1.311 1.344 2.557 2.902 3.457.779.45 2.402 1.238 4.359 2.219 8.336 4.071 23.702 11.904 27.691 18.363 2.469 3.949 5.069 3.817 7.668 3.685 1.961-.055 4.672-.123 5.343 3.085.731 4.132-.52 5.785-10.371 12.565 7.336-.366 14.902 1.182 21.838 4.593Z"/>
  <path fill="#fff" d="M288.551 195.186c-2.224 5.395-3.365 10.97-3.358 16.614l-36.066-20.823 7.922-13.979 31.502 18.188Zm19.815 11.44-8.034 13.914-7.235-4.177c-.692-5.743-.044-11.751 2.133-17.321l13.136 7.584Z"/>
  <path fill="#A1A1A1" d="m154.08 228.865 162.633 93.897a2.578 2.578 0 0 1 .941 3.511l-6.234 10.798a2.578 2.578 0 0 1-3.512.941l-162.633-93.896a2.579 2.579 0 0 1-.941-3.512l6.234-10.798a2.579 2.579 0 0 1 3.512-.941Z"/>
  <path fill="#fff" d="M315.285 245.797a28.405 28.405 0 0 1-4.311-2.044c-9.796-5.655-16.019-15.185-17.695-25.651l6.345 3.663-.064.111c6.425 7.124 11.698 15.214 15.725 23.921Z"/>
  <path fill="#fff" d="m316.997 319.956-160.963-92.932c22.079-28.217 58.169-41.368 92.322-34.712l.064-.111 36.846 21.273c.38 14.765 8.336 29.006 22.028 36.911 3.785 2.185 7.668 3.685 11.698 4.676 6.875 20.74 6.533 43.697-1.995 64.895Zm-172.784-73.485c-19.596 43.453-3.422 95.389 38.767 119.746 42.077 24.294 95.317 12.287 123.087-26.3l-161.854-93.446Z"/>
  <path fill="#fff" d="m349.922 176.296-.891-.514c-7.475-4.019-15.615-5.602-23.43-4.919-.814.124-1.739.183-2.552.307-11.567 1.782-22.151 8.288-28.83 18.828a1861.4 1861.4 0 0 1-.835 1.447l-.129.223c-.707 1.225-1.238 2.402-1.77 3.579-.257.446-.338.844-.595 1.289-2.224 5.395-3.207 11.21-3.025 16.807.03.462-.004 1.036.026 1.498.929 13.301 8.175 25.945 20.642 33.143 3.006 1.735 6.093 3.072 9.437 3.964 7.245 2.105 14.961 2.107 22.049.114 4.214-1.129 8.175-2.849 11.773-5.225 5.277-3.484 9.937-8.214 13.279-14.003 11.376-19.703 4.665-45.098-15.149-56.538Zm1.755 67.655a36.851 36.851 0 0 1-11.855 5.623c-7.503 2.198-15.617 2.114-23.29-.534a37.049 37.049 0 0 1-6.953-3.124c-11.132-6.427-17.89-17.602-19.257-29.374-.141-.526-.106-1.1-.136-1.563-.405-5.725.402-11.493 2.579-17.063.146-.51.339-.844.596-1.289.531-1.178 1.127-2.466 1.769-3.58l.129-.222.835-1.447c6.23-9.762 16.094-15.792 26.735-17.514.814-.124 1.628-.248 2.553-.308 7.704-.747 15.668.883 22.903 5.06l.557.322c18.174 10.938 24.367 34.402 13.763 52.769a36.064 36.064 0 0 1-10.928 12.244Z"/>
</svg>
