<svg xmlns="http://www.w3.org/2000/svg" width="512" height="512" fill="none" viewBox="0 0 512 512">
  <path fill="#fff" d="m198.783 284.951 38.566 22.266a3.156 3.156 0 0 0 4.299-1.151c5.722-9.597 10.936-18.943 15.542-27.549.865-1.499.268-3.298-1.231-4.163l-38.021-21.952c-1.499-.865-3.355-.483-4.22 1.016-5.151 8.292-10.637 17.48-16.087 27.234a3.156 3.156 0 0 0 1.152 4.299Zm10.06 63.773-31.888-18.411c-1.636-.944-3.728-.153-4.536 1.561-2.958 7.013-5.645 14.184-7.901 21.239a3.215 3.215 0 0 0 1.466 3.754l25.484 14.713c1.226.708 3.004.462 3.984-.607 4.982-5.482 9.713-11.472 14.443-17.463 1.081-1.556.583-3.842-1.052-4.786ZM345.808 193.95l-50.422-29.111c8.814-7.085 20.264-9.923 31.283-7.922-1.159 1.693-1.809 3.135-1.873 4.188-.489 4.624 7.331 10.592 20.235 18.769 1.09.63 2.102 1.395 2.647 1.71-.084 1.405-.731 6.301-1.87 12.366Zm-154.196 97.76c-4.92 9.151-9.725 18.733-14.122 28.55-.65 1.442-.053 3.24 1.31 4.027l34.478 19.905c1.362.787 3.218.405 4.141-.879 6.304-8.716 12.2-17.668 17.665-26.505.865-1.499.426-3.57-1.073-4.435l-38.021-21.952c-1.714-.808-3.649-.289-4.378 1.289Z"/>
  <path fill="#A1A1A1" d="m257.834 146.795 26.846 15.5c-1.804 1.866-3.335 3.889-4.73 5.991l-25.893-14.949c2.109-4.597 3.777-6.542 3.777-6.542Zm85.623 58.155-26.983-15.579-28.618-16.522c1.474-2.238 3.142-4.183 5.003-5.833l52.33 30.212c-.52 2.789-1.675 7.937-1.732 7.722Z"/>
  <path fill="#fff" d="m245.526 311.937 30.662 17.703c2.862 1.652 6.652.752 8.441-2.031 2.182-3.465 4.227-7.008 6.352-10.687a2271.49 2271.49 0 0 0 6.279-11.82c1.516-2.94.4-6.673-2.462-8.325L264 278.995c-5.256 10.048-11.435 21.38-18.474 32.942Zm-50.663 68.868c-5.648 6.006-11.626 11.64-17.562 16.571l10.357 5.979s8.986-1.716 22.482-8.097c2.249-1.063 2.517-4.361.337-5.62l-15.536-8.969-.078.136Zm43.635-164.322c-3.693 5.136-10.096 14.34-17.859 26.211-1.002 1.421-.562 3.491 1.073 4.436l36.795 21.243c1.499.865 3.648.289 4.378-1.288 6.399-12.659 11.168-22.806 13.77-28.572.65-1.441.053-3.24-1.309-4.027l-32.707-18.883c-1.441-.65-3.218-.404-4.141.88Zm47.572-40.855 28.56 16.308c-1.633 7.234-5.99 25.796-8.432 39.467-2.065-.829-4.13-1.658-6.038-2.759-18.319-10.758-24.791-34.482-14.09-53.016Z"/>
  <path fill="#fff" d="m304.579 244.277-84.764-48.938c9.832-7.588 34.314-26.704 41.803-34.01l16.762 9.678-.079.136c-13.139 22.758-5.385 52.128 17.51 65.346 2.998 1.731 6.017 3.111 9.136 4.003-.3 1.463-.305 2.731-.368 3.785Z"/>
  <path fill="#A1A1A1" d="M357.642 165.896c-3.725-4.876-8.411-9.035-14.134-12.339-2.453-1.417-5.064-2.56-7.616-3.489 3.922-4.277 12.549-12.924 15.627-16.052.53-.603.378-1.599-.303-1.993-37.367-19.938-46.037-5.865-68.365-19.119-3.952-2.282-8.173-14.168-8.173-14.168-1.01-5.489.642-8.35 5.591-10.944 2.973-1.373 6.428-1.377 9.426.354l72.672 42.502-4.725 35.248Zm-5.887 51.112c-3.006 4.261-9.823 9.774-9.823 9.774 1.05-3.391 3.538-14.31 5.676-25.25 4.132-20.691 3.257-21.378 2.596-22.122-.33-.373-1.147-.845-3.522-2.397-12.631-8.02-19.009-13.338-18.726-15.717.121-.839.829-2.066 1.988-3.759 3.119.893 6.217 2.136 9.215 3.867 7.904 4.563 13.553 11.459 16.68 19.26l-.22 1.327c-.079.136-1.043 15.024-3.864 35.017Zm-58.618 146.22c-3.671 4.785-37.86 34.105-61.008 42.727l-4.77-2.754s52.712-33.707 59.337-44.237c5.759-9.031 33.124-57.372 35.484-61.46 1.416-2.453 10.511-32.998 16.422-58.657 3.833-1.603 7.414-3.715 10.529-6.277-4.086 23.442-10.412 50.134-20.116 68.516-21.003 39.841-32.07 57.436-35.878 62.142Z"/>
  <path fill="#fff" d="M217.565 353.76c-5.754 7.762-11.916 15.288-18.251 22.169l19.488 11.251c2.044 1.18 4.445 1.113 6.422-.108a184.205 184.205 0 0 0 18.698-13.189c1.704-1.378 1.443-4.073-.465-5.174l-25.892-14.949Zm-44.418 38.855c4.525-3.747 8.857-7.788 13.21-12.179 1.431-1.536 1.149-3.879-.623-4.902l-20.441-11.802c-1.772-1.023-4.079-.174-4.556 1.912-1.627 5.965-2.961 11.737-3.943 17.529-.221 1.326.34 2.559 1.566 3.267l11.311 6.53c1.091.63 2.438.499 3.476-.355Zm134.415-139.346-24.257-14.004c-2.524 5.629-8.142 18.193-16.294 34.201l32.842 18.961c1.636.945 3.649.29 4.457-1.424 6.762-15.175 8.579-24.301 7.962-30.471-.376-3.125-2.121-5.768-4.71-7.263Zm-86.246 95.566 26.983 15.579c2.453 1.416 5.577 1.039 7.596-.884 5.921-5.849 11.883-12.4 17.694-19.947 2.298-3.034 1.361-7.391-1.91-9.279l-29.436-16.995a522.88 522.88 0 0 1-20.927 31.526Zm-30.434-68.447-30.662-17.703c-2.862-1.652-3.977-5.385-2.461-8.326 1.909-3.622 3.955-7.165 6.079-10.844a2136.94 2136.94 0 0 1 7.097-11.348c1.788-2.783 5.579-3.683 8.44-2.031l30.799 17.782c-6.074 9.575-12.662 20.671-19.292 32.47Zm-34.309 78.308c-2.377 7.894-4.267 15.888-5.57 23.495l-10.357-5.98s-3.006-8.64-4.228-23.518c-.204-2.48 2.518-4.361 4.698-3.102l15.536 8.969-.079.136Zm12.071-33.183c-3.845 8.864-7.282 17.964-10.074 26.89l-19.487-11.251c-2.044-1.18-3.187-3.293-3.118-5.615a184.44 184.44 0 0 1 2.073-22.788c.342-2.165 2.806-3.286 4.714-2.185l25.892 14.949Zm42.161-128.105 24.257 14.005c-3.613 5-11.685 16.148-21.472 31.211l-32.843-18.961c-1.635-.944-2.075-3.015-.994-4.572 9.76-13.443 16.755-19.58 22.408-22.131 2.757-1.315 5.918-1.125 8.644.448Zm-39.636 122.474-26.983-15.579c-2.453-1.416-3.689-4.31-3.033-7.02 2.105-8.052 4.797-16.491 8.427-25.297 1.48-3.507 5.721-4.873 8.992-2.985l29.299 16.916c-5.864 10.787-11.556 22.218-16.702 33.965Zm185.909-149.225c-3.605-5.715-8.736-10.676-15.005-14.296-2.725-1.573-5.472-2.796-8.239-3.667-1.112-.278-2.144-.692-3.256-.971-14.31-3.537-29.551.201-40.505 10.048-.745.66-1.568 1.456-2.391 2.253-1.726 1.729-3.472 3.81-4.867 5.912-.687.875-1.159 1.693-1.71 2.647l-.079.136c-12.274 21.259-5.037 48.695 16.358 61.047 2.589 1.495 5.199 2.639 7.888 3.646 11.401 3.857 23.721 2.975 34.186-2.248a42.975 42.975 0 0 0 10.514-7.195c3.136-2.914 6.099-6.472 8.38-10.424 8.597-15.205 7.565-33.245-1.274-46.888Zm-25.363-15.552c2.983.814 6.002 2.193 8.864 3.846a41.463 41.463 0 0 1 15.931 16.466c6.387 12.227 6.67 27.472-.726 40.282-1.416 2.453-3.105 4.748-4.851 6.829-3.1 3.48-6.587 6.373-10.598 8.599-10.292 5.868-22.927 7.296-34.522 3.145-2.416-.85-4.675-1.973-6.856-3.231-19.896-11.488-26.614-36.988-15.205-56.748l.078-.137c.551-.954 1.023-1.771 1.71-2.647 1.395-2.101 3.142-4.182 4.867-5.911.823-.797 1.647-1.594 2.391-2.254 9.874-8.29 23.044-11.589 35.719-8.995.352.021 2.71.656 3.198.756Zm8.62 76.022c-10.292 5.868-22.927 7.296-34.522 3.145 11.459 4.072 24.23 2.723 34.522-3.145Z"/>
  <path fill="#fff" d="M346.618 134.637c-3.45 3.459-8.999 8.978-13.766 14.402-16.082-4.561-33.608-.325-45.779 10.999l-23.304-13.454 17.195-30.41c22.527 12.279 36.936 2.428 65.33 16.822.545.315.775 1.175.324 1.641Z"/>
</svg>
