<svg xmlns="http://www.w3.org/2000/svg" width="512" height="512" fill="none" viewBox="0 0 512 512">
  <path fill="#fff" d="M244.028 328.169c7.513 3.799 15.453 7.483 23.895 10.92l4.902-3.821 15.957-27.638 2.253-7.328c-9.344-4.676-16.292-9.766-23.189-13.388l-23.818 41.255Z"/>
  <path fill="#A1A1A1" d="m351.384 155.922-14.712 25.481c-12.134-7.006-16.428-22.608-9.345-34.876 1.791-3.101 4.177-5.678 6.812-7.751 2.966 1.712 5.855 3.559 8.743 5.407l7.943 7.102c1.172 1.396 1.337 3.289.559 4.637Z"/>
  <path fill="#A1A1A1" d="m332.002 189.492-4.204 7.281c-19.875-11.655-40.445-23.352-55.815-32.225l23.585-40.851c.779-1.348 2.501-2.151 4.082-1.777l10.201 3.193c4.931 2.667 10.267 5.568 15.794 8.759-2.443 2.364-4.695 5.019-6.407 7.985-9.574 16.583-3.954 37.983 12.764 47.635Z"/>
  <path fill="#fff" d="M221.486 321.444c-7.011-4.048-13.462-8.132-19.373-11.904l-23.195 40.176c10.261 6.823 22.182 13.886 35.343 20.046l22.962-39.771a357.559 357.559 0 0 1-15.737-8.547Zm4.667-63.815 23.273-40.311-24.132-13.933-5.567 5.594-16.891 29.256-1.163 5.44c3.697 2.314 24.48 13.954 24.48 13.954Zm-2.18 3.774c-6.778-4.452-20.032-11.385-24.268-14.011l-5.219 5.615-15.957 27.638-.738 5.326a423.747 423.747 0 0 0 22.519 16.417l23.663-40.985Zm4.312 2.493-23.896 41.39c10.261 6.823 22.048 13.808 35.032 20.585l24.052-41.659c-5.201-2.823-27.928-15.765-35.188-20.316Zm61.741 76.448 14.556-25.211c.389-.674.508-1.504.28-2.354l-2.596-6.712c-2.235-1.111-4.47-2.222-6.57-3.254l-2.175 7.192-16.502 28.582-3.584 2.784c1.426.644 2.795 1.074 4.298 1.583l10.394-1.189c.716-.306 1.51-.747 1.899-1.421Z"/>
  <path fill="#A1A1A1" d="M145.637 330.142c-1.167 2.023-2.688 5.279-2.844 5.549 11.194 9.878 54.25 45.522 102.977 56.398l2.958-5.123c-20.293-4.706-39.427-13.596-55.875-23.092-22.785-13.155-40.061-27.443-47.216-33.732Z"/>
  <path fill="#fff" d="M218.808 371.85c8.151 3.627 16.749 6.794 25.679 9.074l3.974-3.458 15.801-27.369 2.134-6.498c-8.712-3.591-16.998-7.297-24.782-11.251l-22.806 39.502Zm70.12-131.726-35.188-20.315-23.273 40.311 35.188 20.315 23.273-40.311ZM174.701 346.743l23.117-40.041a442.576 442.576 0 0 1-22.923-16.65l-5.007 5.558-15.801 27.368-1.998 6.576c5.117 4.213 12.832 10.465 22.612 17.189Zm-1.088-67.857 16.735-28.986 5.064-5.345a959.586 959.586 0 0 0-4.89-3.363l-7.458 1.087c-.851.228-1.51.747-1.899 1.421l-14.556 25.211c-.389.674-.508 1.504-.281 2.354l3.613 8.377c1 .758 2.058 1.728 3.194 2.563l.478-3.319Z"/>
  <path fill="#A1A1A1" d="M187.403 373.313c-21.302-12.299-37.868-25.638-45.754-32.528-1.48 7.234-2.469 16.73-3.114 22.829-.385 4.092.833 8.21 3.269 11.774l.327.369c2.052 2.982 4.899 5.525 8.135 7.393l49.613 28.644a25.948 25.948 0 0 0 9.293 3.208l1.042.063c5.114.795 10.218-.573 13.901-3.839 5.001-4.303 12.134-10.431 17.872-15.387-19.945-4.685-38.676-13.341-54.584-22.526Z"/>
  <path fill="#fff" d="M340.937 125.443c-4.6 1.119-9.051 3.223-12.713 6.142-5.932-3.425-11.538-6.481-16.739-9.304l3.659-6.337c.7-1.213 2.189-1.612 3.713-1.451 1.255.006 3.511.769 4.937 1.412 2.235 1.111 9.635 4.484 17.143 9.538Zm7.371 9.652-3.736 6.471c-2.484-1.614-5.045-3.093-7.394-4.629a24.157 24.157 0 0 1 11.483-3.077c-.099.483-.119.83-.353 1.235ZM192.723 237.07c1.675 1.146 3.215 2.215 4.832 3.149l.655-3.936 17.514-30.334 6.738-4.199-2.022-1.167-13.288.597c-.985.15-1.857.725-2.324 1.534l-14.867 25.751c-.467.809-.451 1.716-.224 2.567l2.986 6.038Z"/>
  <path fill="#A1A1A1" d="m324.269 247.407-94.374-54.486c-.809-.467-1.794-.317-2.261.492l-2.569 4.449 97.205 56.121 2.568-4.449c.39-.674.239-1.66-.569-2.127Z"/>
  <path fill="#fff" d="m149.249 321.086 16.502-28.581 5.084-5.693c-2.058-1.728-3.982-3.378-5.714-4.737l-6.395.802c-.85.227-1.509.746-1.898 1.42l-14.712 25.481c-.467.809-.529 1.851-.167 2.78l6.453 12.174.847-3.646Zm130.449 27.495c-2.872-.94-5.802-2.092-8.597-3.166l-2.233 6.98-16.268 28.177-2.132 1.825c1.582.374 3.163.748 4.688.909l9.501-.267c.986-.15 1.857-.725 2.324-1.534l14.712-25.481c.389-.674.508-1.504.281-2.354l-2.276-5.089Zm33.759-48.817 14.944-25.885c.467-.809.53-1.851.167-2.78l-6.339-11.749-1.618-.934-1.75 7.079-17.513 30.334-3.372 2.727 5.896 2.865 7.281-.47c1.043.063 1.836-.378 2.304-1.187Z"/>
  <path fill="#A1A1A1" d="m326.862 215.828.158-4.943c-.037-.56-.207-1.198-.747-1.509-23.38-13.679-47.783-27.767-64.443-37.207-.54-.311-1.235-.353-1.681.109l-4.202 2.607c17.47 9.906 45.378 26.019 70.915 40.943Zm.371-9.671.157-4.943c-.036-.56-.207-1.198-.746-1.509-20.415-11.967-41.255-23.819-56.759-32.77-.54-.311-1.235-.353-1.681.108l-4.201 2.608c16.717 9.652 40.658 23.294 63.23 36.506Z"/>
  <path fill="#fff" d="m293.377 242.692-23.274 40.311 17.797 10.275c1.83.877 3.427 2.159 5.257 3.036l4.265-3.65 16.813-29.121 2.196-7.54-23.054-13.311Z"/>
  <path fill="#A1A1A1" d="m326.569 225.365.157-4.943c-.036-.56-.207-1.198-.747-1.509-26.481-15.469-54.793-31.815-72.263-41.721-.539-.311-1.234-.353-1.68.108l-4.202 2.608c17.874 10.139 50.096 28.743 78.735 45.457Zm-.799 19.133.157-4.943c-.036-.56-.285-1.063-.746-1.509-32.875-19.34-70.837-41.078-87.768-50.673-.539-.311-1.234-.353-1.68.109l-4.202 2.607c15.852 8.972 59.207 33.823 94.239 54.409Zm.429-9.461.157-4.942c-.036-.561-.207-1.199-.747-1.51-29.582-17.259-62.343-36.174-79.947-46.158-.54-.311-1.235-.353-1.681.109l-4.201 2.607c17.334 9.828 54.757 31.255 86.419 49.894Z"/>
  <path fill="#fff" d="M333.635 186.663c-15.099-8.718-20.285-28.07-11.567-43.17 8.718-15.099 28.07-20.285 43.169-11.567 15.1 8.718 20.286 28.07 11.568 43.169-8.718 15.1-28.07 20.286-43.17 11.568Zm30.046-52.041c-13.617-7.861-31.055-3.189-38.917 10.428-7.861 13.617-3.189 31.055 10.428 38.916 13.617 7.862 31.055 3.189 38.916-10.427 7.862-13.617 3.189-31.055-10.427-38.917Z"/>
</svg>
