<svg xmlns="http://www.w3.org/2000/svg" width="512" height="512" fill="none" viewBox="0 0 512 512">
  <path fill="#fff" d="M184.018 376.781a240.867 240.867 0 0 0 22.7 28.315l-49.362 28.499c-4.193 2.421-9.604.971-12.025-3.222l-9.133-15.819c-2.42-4.193-.971-9.604 3.222-12.025l44.598-25.748Zm9.509-125.688 57.439 99.486 119.497-68.992-57.438-99.486-119.498 68.992Zm64.382-14.809c5.527-3.191 12.441-1.338 15.632 4.189 3.191 5.527 1.338 12.441-4.189 15.632-5.527 3.191-12.441 1.339-15.632-4.188-3.191-5.527-1.338-12.442 4.189-15.633Zm-28.588 16.506c5.527-3.191 12.441-1.339 15.632 4.188 3.191 5.527 1.338 12.442-4.189 15.633-5.527 3.191-12.441 1.338-15.632-4.189-3.191-5.527-1.338-12.441 4.189-15.632Zm114.344 24.194-83.096 47.975-18.376-31.828 83.096-47.975 18.376 31.828Z"/>
  <path fill="#fff" d="M268.365 254.391c4.383-2.531 5.914-8.243 3.383-12.626-2.531-4.384-8.243-5.914-12.626-3.384-4.384 2.531-5.914 8.243-3.383 12.627 2.53 4.383 8.242 5.914 12.626 3.383Zm-28.699 16.314c4.383-2.531 5.914-8.242 3.383-12.626-2.531-4.383-8.243-5.914-12.626-3.383-4.384 2.531-5.914 8.243-3.384 12.626 2.641 4.574 8.243 5.914 12.627 3.383Zm163.142-20.244c4.959 10.35 9.486 21.713 12.98 33.926L239.305 386.28c-8.83-9.132-16.407-18.734-22.891-28.205l25.157-14.524 7.263 12.578 16.381 6.806 130.933-75.594-14.305-24.776 20.965-12.104Zm89.977-41.782 9.133 15.818c2.421 4.193.971 9.604-3.222 12.025l-50.315 29.049a240.891 240.891 0 0 0-13.171-33.816l45.55-26.298c4.193-2.421 9.604-.971 12.025 3.222ZM163.488 340.35c4.63 9.779 10.411 20.672 17.364 31.395l-48.98 28.28c-4.193 2.42-9.604.97-12.025-3.223l-9.133-15.818c-2.421-4.193-.971-9.604 3.222-12.025l49.552-28.609Zm32.401-18.707 24.967-14.414 17.936 31.065-25.539 14.745c-7.063-10.914-12.925-21.507-17.364-31.396Zm204.139-76.438-21.155 12.214-17.935-31.065 20.583-11.884c6.345 8.788 12.587 19.16 18.507 30.735Zm76.424-75.379 9.133 15.819c2.421 4.193.971 9.604-3.222 12.025l-49.934 28.829c-5.92-11.575-12.353-21.837-18.507-30.735l50.315-29.05c4.383-2.53 9.794-1.081 12.215 3.112ZM99.323 329.117l48.98-28.279c2.217 7.36 6.011 19.654 12.6 34.147l-43.645 25.198c-4.192 2.421-9.604.971-12.024-3.222l-9.133-15.819c-2.421-4.193-.971-9.604 3.222-12.025Zm81.567-47.094 19.059-11.004 17.936 31.066-24.586 14.194c-6.618-14.983-10.522-27.468-12.409-34.256Zm197.279-72.479-20.202 11.664-17.936-31.065 14.485-8.363c5.126 4.918 13.986 14.541 23.653 27.764Zm71.086-72.297 9.133 15.819c2.421 4.193.971 9.604-3.222 12.025l-44.597 25.748c-9.257-12.952-18.006-22.385-23.272-27.985l49.934-28.829c4.192-2.421 9.604-.971 12.024 3.222Z"/>
  <path fill="#A1A1A1" d="M226.62 381.915c5.596 6.171 9.292 8.611 9.292 8.611l-19.249 11.114c-1.715.99-3.9.727-5.272-.768a244.09 244.09 0 0 1-19.077-23.8l-.11-.19c-.77-1.334-4.562-7.023-5.633-8.437-6.873-11.025-12.544-21.727-17.174-31.506l-2.399-5.476c-6.478-14.302-10.214-25.613-11.821-31.038-.609-1.936.255-3.959 1.78-4.84l17.915-10.343c7.581 22.814 15.688 41.257 23.56 55.771 3 5.637 11.084 18.758 12.265 20.364 6.073 9.199 11.508 15.972 15.923 20.538ZM443.066 267.37c.609 1.935-.255 3.959-1.971 4.949l-19.249 11.114s-.169-1.173-.697-3.409c-1.117-5.455-4.17-16.906-12.05-33.194-.799-1.825-1.68-3.35-2.78-5.256-4.68-8.987-10.923-19.359-18.889-30.515a8521.21 8521.21 0 0 0-3.542-4.816l-.22-.381c-6.345-8.789-14.002-18.09-22.781-28.014l17.915-10.344c.953-.55 2.126-.719 3.328-.397a4.256 4.256 0 0 1 1.944 1.165c9.27 9.895 43.484 49.35 58.992 99.098Z"/>
  <path fill="#fff" d="M100.492 365.035c-3.43 1.981-18.988 2.323-24.78 1.093-.902-.241-4.099-.937-4.136-3.202-.287-3.138 4.346-4.797 9.28-6.374 2.697-1.05 6.758-2.378 7.08-3.581l-.44-.762c-2.192-2.037-6.65-4.037-10.398-5.686-5.17-2.352-7.904-3.568-8.103-5.232-.14-.682.022-1.283.594-1.613 1.114-1.152 4.031-1.82 8.503-2.877 3.981-1.028 10.308-2.393 11.092-4.116 0 0 .08-.301-.03-.492-.91-2.016-5.456-5.489-9.072-8.23-5.478-4.207-7.34-5.672-6.938-7.176.081-.3.433-1.011 1.305-1.261 1.364-.279 3.439-.206 6.195-.273 3.85.064 9.964.092 11.078-1.06-.089-1.473-3.132-4.544-5.655-7.153-4.716-4.647-7.569-7.828-7.115-10.123.161-.601.513-1.313 1.466-1.863 2.587-1.24 6.716.189 10.844 1.617 2.515.835 5.932 1.912 6.885 1.361 0 0 .19-.11.08-.3.183-1.884-3.22-6.018-5.993-9.5-4.063-5.277-6.425-8.488-5.971-10.783.16-.601.512-1.312 1.084-1.643 2.478-1.43 6.856.871 13.206 4.828 2.354 1.436 5.83 3.495 7.223 3.707-.309-1.855-2.81-5.747-4.681-8.987-3.601-5.798-5.882-9.309-4.717-11.252.27-.411.622-1.122 1.795-1.291 2.838-.368 7.164 2.725 11.3 5.927 2.274 1.737 5.889 4.478 6.952 4.119.373-1.995-1.696-6.899-3.515-10.931-2.51-5.666-3.669-8.555-2.584-10.197.271-.411.843-.741 1.524-.88 1.965-.118 4.869 2.271 9.255 6.346 2.303 2.228 6.358 5.731 7.451 5.863.212-1.393-1.747-6.107-3.207-9.076-2.509-5.666-4.109-9.317-2.834-11.07a2.063 2.063 0 0 1 2.016-.909c2.867.123 5.859 3.986 8.661 7.959 2.032 2.639 4.203 5.959 5.596 6.171 0 0 .301.081.382-.22 1.385-1.562-.032-7.097-1.06-11.077-1.277-4.854-1.835-7.581-.53-8.842.271-.411.842-.741 2.045-.419 2.596.535 4.606 4.456 7.636 10.585 1.57 3.159 3.939 8.144 5.222 8.165 1.415-1.071 1.45-5.411 1.434-8.959.116-4.641.151-8.982 2.218-10.683.653-.631 1.635-.69 2.728-.558 3.387.585 6.049 3.876 8.602 6.977 2.332 2.719 4.364 5.358 6.439 5.43 2.265-.037 5.755-1.035 8.944-2.114 6.297-1.857 11.722-3.464 13.182-.495.33.571-.022 1.283-.403 1.503-.572.33-1.283-.022-1.503-.403-.58-1.444-6.877.413-10.557 1.521-3.49.998-6.979 1.996-9.435 2.144-3.248.096-5.691-2.814-8.353-6.105-2.332-2.719-4.584-5.739-7.37-6.163-.601-.161-.792-.051-.873.249-1.224.961-1.339 5.602-1.324 9.15-.115 4.641-.151 8.982-2.218 10.683-.461.521-1.334.771-2.045.419-2.104-.564-3.975-3.804-6.675-9.36-1.9-3.732-4.49-9.097-6.183-9.39-.462.52.646 4.201 1.094 6.737 1.307 5.345 2.914 10.769.496 13.182-.733.932-1.716.991-2.207 1.02-2.375-.153-4.737-3.364-7.319-6.955-2.252-3.02-5.054-6.993-6.938-7.176-.733.932 1.637 5.916 2.906 8.995 2.399 5.476 3.999 9.127 3.024 10.96-.161.601-.733.931-1.414 1.071-2.046.418-4.759-2.081-9.556-6.427-2.493-2.118-5.947-5.46-7.45-5.863-.022 1.283 1.798 5.315 2.847 8.013 2.069 4.904 4.028 9.618 3.684 12.103-.131 1.093-.894 1.533-1.275 1.753-1.825.799-4.509-1.209-8.946-4.492-3.505-2.55-7.641-5.753-9.797-5.525-.622 1.122 2.539 6.158 4.6 9.288 2.722 4.274 5.223 8.166 5.26 10.431.059.983-.593 1.613-.974 1.834-1.525.88-4.48-.718-9.489-3.671-3.475-2.059-9.415-5.745-10.94-4.864-.403 1.503 2.92 5.937 5.472 9.038 3.624 4.515 6.616 8.378 6.382 11.054-.131 1.092-.593 1.613-1.165 1.943-1.605 1.181-4.831-.006-8.85-1.243-3.225-1.187-7.544-2.505-9.069-1.625l-.19.11c-.213 1.393 3.872 5.387 6.505 8.187 3.785 3.914 6.197 6.333 6.315 8.298.14.681-.212 1.393-.673 1.913-1.767 1.783-6.298 1.857-12.713 1.749-1.774.008-3.659-.174-4.832-.005 1.152 1.114 3.535 3.041 5.699 4.587 4.136 3.203 8.572 6.486 9.702 8.883.44.762.39 1.554.038 2.266-1.136 2.434-5.799 3.601-12.697 5.297-2.918.668-6.217 1.556-7.36 2.217.52.461 3.967 2.029 6.702 3.245 4.047 1.729 8.616 3.92 10.919 6.148 1.151 1.114 1.21 2.097 1.049 2.698-.454 2.295-4.215 3.704-8.466 5.142-2.999.969-7.823 2.737-7.734 4.211.11.19.22.381.931.733 5.47 2.432 22.743 1.099 24.65-.001.27-.411.952-.55 1.363-.279.41.271.66 1.144.198 1.664l-.381.22Zm341.384-235.726c-.762.44-1.503-.403-1.943-1.165-1.511-2.177-2.136-7.661-2.841-12.844-.339-2.346-.735-5.675-1.125-7.229-.732.932-1.626 2.464-2.41 4.187-3.114 5.61-5.635 9.606-7.871 10.135-.682.14-1.283-.022-1.995-.373-1.642-1.085-2.53-4.384-4.028-9.618-1.108-3.68-2.525-9.215-3.837-9.728l-.191.11c-1.605 1.181-2.542 5.28-3.128 8.667-.746 3.989-1.442 7.186-3.348 8.286-.381.22-1.253.47-2.265.037-2.434-1.135-4.283-5.658-6.382-11.054-1.409-3.76-3.588-8.855-5.091-9.258-1.525.88-1.413 7.677-1.257 11.907.163 6.005-.041 9.172-1.566 10.052-.381.22-1.063.36-2.075-.072-1.943-1.166-3.953-5.087-6.404-9.771-1.57-3.16-4.46-8.606-5.743-8.628-1.085 1.643-.57 6.936-.114 11.247.625 5.484 1.022 8.812-.583 9.993-.381.22-1.144.66-2.155.228-2.515-.835-5.618-4.888-8.64-9.242-1.812-2.258-4.394-5.85-5.515-6.472-.403 1.503.764 6.165 1.352 9.384 1.365 6.326 1.982 10.036.788 11.488-.462.521-1.144.66-1.635.69-2.185-.264-4.437-3.283-7.979-8.099-2.032-2.639-5.164-7.184-6.337-7.015-.784 1.724 1.145 5.946 2.745 9.597 1.819 4.031 3.419 7.682 2.364 9.816-.271.411-.814 1.232-1.987 1.401-3.298.888-7.193-3.216-11.168-7.02-1.782-1.767-4.606-4.456-5.287-4.317-.594 1.613 2.758 6.539 5.04 10.05 3.462 5.117 5.633 8.437 4.769 10.461-.161.601-.814 1.232-1.386 1.562-2.507.939-6.283-1.2-10.36-3.421-3.065-1.788-7.032-3.817-8.587-3.428-.19.11-.381.22-.652.631-.835 2.515.464 6.085 1.653 9.464 1.519 3.952 2.817 7.522 1.11 10.286-1.356 2.053-4.155 4.686-6.574 7.099-2.8 2.633-7.557 7.158-6.596 8.382.33.572.169 1.173-.403 1.504-.571.33-1.173.169-1.503-.403-1.841-2.749 2.264-6.643 7.02-11.169 2.419-2.412 5.138-4.745 6.303-6.688 1.085-1.643-.104-5.022-1.483-8.292-1.409-3.76-2.928-7.711-1.741-10.938a4.229 4.229 0 0 1 1.847-2.083c2.507-.939 6.283 1.201 10.36 3.421 3.065 1.788 6.842 3.928 8.477 3.238.322-1.203-2.51-5.667-4.461-8.606-3.792-5.688-6.183-9.39-5.348-11.905.432-1.012 1.004-1.342 1.385-1.562 1.745-.499 3.637 1.458 7.392 4.881 2.933 2.88 7.018 6.874 9.064 6.456l.381-.22c.623-1.122-1.087-4.963-2.547-7.932-2.149-4.604-3.888-8.936-2.562-11.481.623-1.122 1.304-1.261 1.796-1.291 2.155-.228 4.517 2.983 8.17 7.989 2.031 2.639 4.943 6.802 6.256 7.315.513-1.312-.574-6.276-1.352-9.384-1.336-5.835-1.954-9.545-.869-11.188.462-.52.843-.74 1.525-.88 1.774-.008 3.806 2.631 7.539 7.337 2.582 3.591 5.794 7.835 7.708 8.509.653-.631.087-5.132-.09-8.079-.706-5.183-1.221-10.477.516-12.75.733-.931 1.715-.99 2.016-.91 2.185.263 4.276 3.885 7.386 9.712 1.68 3.35 3.91 7.653 5.443 8.547.513-1.312.467-5.352.4-8.109.049-7.397-.055-12.42 2.423-13.85.572-.33 1.253-.47 1.965-.118 2.214.754 3.813 4.405 6.352 10.563 1.629 4.142 3.698 9.046 5.231 9.94l.3.08c.763-.44 1.729-4.047 2.264-6.643.827-4.289 1.654-8.578 4.022-10.199.952-.55 1.744-.499 2.346-.338 2.214.754 3.542 4.815 5.209 11.223.998 3.489 2.136 7.661 3.368 8.474 1.554-.389 4.778-5.808 6.456-9.064 1.245-2.244 2.411-4.187 3.334-5.228.733-.932 1.444-.58 1.745-.5 1.503.403 1.841 2.749 2.745 9.597.566 4.501 1.301 10.175 2.592 11.971.22.381 1.511 2.177.257 2.647Z"/>
  <path fill="#A1A1A1" d="m390.136 285.73-124.835 72.073-12.465-3.984 123.119-71.083L316.837 179.9l14.349 4.167 58.95 101.663Zm-89.081-101.036-.381.22c-16.532 2.176-28.256-.966-34.872-9.344-8.427-10.635-14.405-16.587-25.84-9.984-5.146 2.971-5.444 9.496-5.633 16.212-.21 7.998-.661 16.899-9.847 19.915-15.673 4.984-14.777 34.706-14.857 35.006.029.491-.432 1.012-1.114 1.152-.491.029-1.012-.433-1.152-1.114.022-1.283-.824-31.797 15.913-37.14 7.932-2.547 8.171-10.054 8.381-18.053.159-7.207.509-14.524 6.798-18.155 12.96-7.483 19.678-.689 28.736 10.599 6.176 7.616 17.299 10.596 32.959 8.67.491-.029 1.202.323 1.231.814.331.571.059.982-.322 1.202Z"/>
  <path fill="#fff" d="m308.072 178.357-.381.22c-19.531 3.144-33.11.311-40.356-8.719-9.359-11.368-15.776-18.082-29.88-9.939-6.289 3.631-6.478 10.347-6.556 17.253-.21 7.999-.251 17.171-11.453 21.097-18.261 6.223-18.242 41.026-18.323 41.327-.051.791-.512 1.312-1.304 1.261-.792-.051-1.313-.513-1.262-1.305-.088-1.473.054-36.878 20.06-43.6 9.567-3.236 9.506-10.824 9.716-18.823.049-7.398.288-14.905 7.721-19.197 15.438-8.913 23.168-1.686 32.967 10.445 6.806 8.267 19.483 10.859 38.141 7.964.682-.139 1.203.322 1.342 1.004.301.081-.051.792-.432 1.012Z"/>
  <path fill="#A1A1A1" d="m290.956 190.525-.191.11c-18.1 5.622-25.977-4.061-34.485-14.395-6.476-7.696-13.613-16.536-25.968-20.33-3.389 17.458-12.323 27.952-18.677 35.432-5.43 6.439-9.395 11.015-8.059 16.851 2.173 9.926 13.534 23.442 13.534 23.442.33.572.36 1.063-.102 1.584-.462.521-1.063.359-1.584-.102-.52-.462-11.881-13.978-14.084-24.395-1.395-6.818 2.921-12.106 8.733-18.765 6.625-7.891 15.017-17.564 18.325-34.721-2.705-.725-5.491-1.149-8.659-1.353-15.345-1.051-23.88-5.271-25.686-12.361-2.144-9.435 8.454-20.128 14.172-23.429 4.574-2.64 10.116-2.283 14.634.7 3.806 2.63 11.925 11.411 7.907 34.822 13.257 4.036 20.694 12.956 27.39 21.033 8.618 10.526 15.425 18.793 32.08 13.751.682-.139 1.093.132 1.423.704-.051.791-.322 1.202-.703 1.422Zm-81.822-70.416c-5.527 3.191-14.981 13.224-13.226 21.105 1.446 6.026 9.46 9.785 23.713 10.704 3.168.204 6.255.709 8.96 1.434 3.695-22.209-3.683-30.146-7.078-32.506-3.916-2.822-8.366-3.047-12.369-.737Z"/>
  <path fill="#fff" d="m282.442 283.618-2.669 1.54 5.612 9.72 2.668-1.54-5.611-9.72Zm-11.625 6.713-2.669 1.54 5.612 9.72 2.668-1.54-5.611-9.72Z"/>
  <path fill="#fff" d="m247.824 294.963 14.085 24.395 75.472-43.574-14.084-24.395-75.473 43.574Zm30.728 4.367c.441.762.279 1.364-.483 1.804l-4.193 2.421c-.762.44-1.363.279-1.804-.484l-6.162-10.673c-.44-.762-.279-1.363.484-1.803l4.193-2.421c.762-.44 1.363-.279 1.803.483l6.162 10.673Zm11.626-6.712c.44.762.279 1.363-.483 1.804l-4.193 2.42c-.762.441-1.364.279-1.804-.483l-6.162-10.673c-.44-.762-.279-1.363.484-1.804l4.192-2.42c.763-.44 1.364-.279 1.804.483l6.162 10.673Zm7.632-2.627-1.906 1.1-1.211-2.096 1.906-1.101 1.211 2.097Zm-3.081-5.337-1.906 1.101-1.211-2.097 1.906-1.1 1.211 2.096Zm10.323 1.155-1.906 1.101-5.392-9.339-.762.44-.11-.19-1.138-4.172 1.715-.99 7.593 13.15Zm10.855-8.046c.441.762.279 1.364-.483 1.804l-4.193 2.421c-.762.44-1.363.279-1.804-.484l-6.162-10.673c-.44-.762-.279-1.363.484-1.803l4.193-2.421c.762-.44 1.363-.279 1.803.483l6.162 10.673Z"/>
  <path fill="#fff" d="m308.172 268.763-2.668 1.541 5.612 9.72 2.668-1.541-5.612-9.72Z"/>
</svg>
