<svg xmlns="http://www.w3.org/2000/svg" width="512" height="512" fill="none" viewBox="0 0 512 512">
  <path fill="#fff" d="M181.919 251.961a5.109 5.109 0 0 0 3.409-2.375 5.113 5.113 0 0 0 .51-4.123 5.086 5.086 0 0 0-2.725-3.135 5.108 5.108 0 0 0-4.154-.067 5.11 5.11 0 0 0-3.604 4.386 5.092 5.092 0 0 0 1.133 3.742 5.104 5.104 0 0 0 5.431 1.652v-.08ZM84.2 266.96a6.742 6.742 0 0 0 4.5-8.4 6.757 6.757 0 0 0-8.42-4.5 6.742 6.742 0 1 0 3.92 12.9Zm153.28-8.999s66.32 2.86 80.86 2.76c0 0 10.96.44 13.8 4a16.816 16.816 0 0 1 3.34 7.16s65.62-.54 89.5-14.18l-105.2-22.36s-25.58 10-76.22-8.2c0 0-2.56 6.48-3.28 8.7a108.13 108.13 0 0 0-2.26 12.24 82.143 82.143 0 0 0-.6 9.84l.06.04Z"/>
  <path fill="#A1A1A1" d="M233.84 261.44V258c-.004-3.477.21-6.95.64-10.4a101.11 101.11 0 0 1 2.38-12.86c.74-2.28 3.26-8.64 3.34-8.9l.34-.84a6.715 6.715 0 0 0-.98-.4c-1.04-.3-.96-.3-2.4-.68-1.44-.38-4.32-1.24-6.16-1.68a7.856 7.856 0 0 0-5.5.64c-.26.14-.72.38-1 .56a16.25 16.25 0 0 0-7.86 11.16.724.724 0 0 0 0 .34c-.12 5.3-.76 8.14.42 14 1.18 5.86 3.74 16.36.66 22.3l-3.14 6c-1.52 2.46-4 4.86-5.3 6.74l-.1.12c-.1.12-.18.3-.42.66-.68 1.08-1.12 4.78.64 5.28l16.72 1.48c2.46-.42 3.38-4 4.64-7.2a104.917 104.917 0 0 0 2.78-12m-11.46 12.6a2.647 2.647 0 0 1-4.047-.601 2.64 2.64 0 0 1 4.247-3.099 2.63 2.63 0 0 1 .68 1.975 2.626 2.626 0 0 1-.98 1.845l.1-.12Z"/>
  <path fill="#fff" d="m333.62 274.64-.82-2a24.703 24.703 0 0 0-3.5-6 10.828 10.828 0 0 0-4.22-2.44 19.656 19.656 0 0 0-6.921-.62c-10.72 0-49.38-.96-69.14-1.52l-8.14-.38-3.4-.26v11.16l7.32.76c1.28.12 44.32 2 44.32 2 7.06.62 34.301.3 40.181 11.14l4.32-11.84Zm111.46-24.38-17.82 7.7-7.78 4.3c-24.46 14-80.24 13.34-82.58 13.3h-2.38l-3.48 13.2c29.18 1.06 59.36.36 86.78-9.46l27.26-29.04Z"/>
  <path fill="#fff" d="M333.119 228.361c-3.5-.1-10.28 5.9-10.76 5.9l103.52 22 19.24-6.32-36.54-6.44a1.543 1.543 0 0 0-1.319.39 1.54 1.54 0 0 0-.481 1.29l.22 2c.1.96-.48 1.58-1.32 1.42a2.422 2.422 0 0 1-1.7-2l-.4-4-2-.36.34 4a1.234 1.234 0 0 1-.85 1.451c-.198.06-.407.07-.61.029a2.486 2.486 0 0 1-1.78-2.14l-.28-3.8-2.18-.38.24 3.72a1.314 1.314 0 0 1-.409 1.162 1.318 1.318 0 0 1-1.191.318 2.506 2.506 0 0 1-1.88-2.22l-.18-3.6-2.34-.52.12 3.52a1.43 1.43 0 0 1-.505 1.227 1.436 1.436 0 0 1-1.295.293 2.523 2.523 0 0 1-2-2.3v-3.42l-2.52-.44v3.3a1.602 1.602 0 0 1-2 1.58 2.538 2.538 0 0 1-2-2.4v-3.18l-2.78-.48v3.08a1.742 1.742 0 0 1-2.24 1.58 2.622 2.622 0 0 1-2.16-2.48l.12-2.94-2.96-.5-.18 2.84a2 2 0 0 1-2.5 1.62 2.704 2.704 0 0 1-2.28-2.62l.2-2.68-3.24-.56-.26 2.58a2.184 2.184 0 0 1-1.892 1.748 2.182 2.182 0 0 1-.908-.088 2.8 2.8 0 0 1-2.42-2.72l.3-2.42-3.58-.62-.32 2.3a2.443 2.443 0 0 1-.447.892 2.47 2.47 0 0 1-2.713.808 2.823 2.823 0 0 1-2.52-2.88l.36-2.12-4-.68-.36 2a2.838 2.838 0 0 1-3.56 1.72c-1.78-.34-2.7-2.3-3.2-3.58l-1.3-2.4-.9-1.1a3.314 3.314 0 0 0-1.4-.3v-.08Z"/>
  <path fill="#A1A1A1" d="M213.76 253.4c-.28-1.28-.5-2.32-.6-2.98a56.256 56.256 0 0 1-.18-15.4c.12-.82.26-1.62.42-2.34a25.104 25.104 0 0 1 4-8.22c-2 .36-4.34.88-5.82 1.24a54.878 54.878 0 0 0-5.7 1.38c-15.06 5.6-38.64.32-38.64.32-19.76-7.14-45.26 1.52-50.94 3.62-.687.278-1.355.598-2 .96a67.594 67.594 0 0 1-32 7.74 2.338 2.338 0 0 0-1.84.82l-13.72 16.3a2.36 2.36 0 0 0-.28 2.62c2.82 5.38 13.08 24.86 16.5 31.34a1.526 1.526 0 0 0 1.24.809 1.522 1.522 0 0 0 1.34-.629c14.14-18.2 25.18-18 29.58-17.02a3.439 3.439 0 0 0 3.46-1.02c10.34-12 24-6.24 28.34-3.84a2.702 2.702 0 0 0 2.88-.24c8.88-6.26 15.68-6 20.3-4a16.441 16.441 0 0 1 8.54 9.24c4.32 10.76 7.32 6.74 7.32 6.74 7.02-26.44 26.92-14 26.92-14a3.301 3.301 0 0 1 1.46 4c.12-.22.6-1.14.74-1.36 1.22-1.86.82-7.3-1.14-16.2l-.18.12Zm-124.6 14.86a10.417 10.417 0 0 1-9.82 2.24 10.426 10.426 0 0 1-6.885-6.517 10.364 10.364 0 0 1-.575-4.003 10.285 10.285 0 0 1 3.44-7.16 10.335 10.335 0 0 1 9.82-2.24 10.381 10.381 0 0 1 4.84 3.02 10.38 10.38 0 0 1-.8 14.64l-.02.02Zm26.82 2.24a2.163 2.163 0 0 1-3.04-.24 2.16 2.16 0 0 1 .14-3.04 2.22 2.22 0 0 1 3.06.14 2.168 2.168 0 0 1 .587 1.594 2.173 2.173 0 0 1-.217.84 2.177 2.177 0 0 1-.53.686v.02Zm33.28-4.72a2.165 2.165 0 0 1-2.379.29 2.163 2.163 0 0 1-1.183-2.084 2.156 2.156 0 0 1 2.72-1.93c.412.112.781.343 1.062.664a2.164 2.164 0 0 1-.22 3.04v.02Zm37-12.2a8.656 8.656 0 0 1-8.26 1.86 8.819 8.819 0 0 1-4-2.56 8.736 8.736 0 0 1 3.393-13.974 8.74 8.74 0 0 1 5.527-.246 8.987 8.987 0 0 1 4 2.56 8.78 8.78 0 0 1-.68 12.34l.02.02Z"/>
</svg>
