<svg xmlns="http://www.w3.org/2000/svg" width="512" height="512" fill="none" viewBox="0 0 512 512">
  <path fill="#A1A1A1" d="M251.744 241.799c-.307-3.822-.596-11.397-.693-14.15h-7.478v12.371c0 1.338.335 2.655.973 3.831 1.631 3.007 5.664 8.1 14.457 8.889a.636.636 0 0 0 .654-.399.64.64 0 0 0-.198-.74c-2.762-2.052-7.443-6.356-7.715-9.802Zm27.721-60.755h-37.356V191.1h37.356v-10.056Zm.605 33.244c2.122 2.069 5.462 2.858 11.546 2.727h73.976c.123-.654.184-1.317.184-1.982v-11.984h-88.844c.079 5.725 1.06 9.214 3.138 11.239Z"/>
  <path fill="#fff" d="M265.587 212.237a2.48 2.48 0 0 0 2.434-2.966 2.483 2.483 0 0 0-3.383-1.808 2.48 2.48 0 0 0 .949 4.774Z"/>
  <path fill="#A1A1A1" d="m194.348 192.222-8.399-5.374a3.298 3.298 0 0 0-2.568-.792 3.3 3.3 0 0 0-2.849 2.64 3.314 3.314 0 0 0 .596 2.621c.277.371.63.679 1.034.905l8.398 5.4a3.274 3.274 0 0 0 2.464.553 3.294 3.294 0 0 0 2.657-2.533 3.291 3.291 0 0 0-1.333-3.42Zm161.39-13.799a2.147 2.147 0 0 0-1.753-1.464l-8.048-.938a2.52 2.52 0 0 0-2.63 1.481l-1.184 2.63h14.027l-.412-1.709Z"/>
  <path fill="#fff" d="M363.155 181.044h-82.804v10.932h-39.118v-10.932h-71.574l-13.422 12.73a3.137 3.137 0 0 0-.877 2.121c0 1.306-.087 3.437-.061 5.401h52.181l2.253-15.781h1.867l-2.235 15.781h4.252l2.253-15.781h1.867l-2.235 15.781h4.252l2.253-15.781h1.867l-2.236 15.781h4.252l2.254-15.781h1.867l-2.236 15.781h4.217l2.253-15.781h1.903l-2.236 15.781h72.284l1.753-15.781h1.754l-1.754 15.781h4.384l1.753-15.781h1.753l-1.753 15.781h4.383l1.754-15.781h1.753l-1.753 15.781h4.383l1.754-15.781h1.753l-1.753 15.781h4.383l1.754-15.781h1.753l-1.753 15.781h33.244v-15.781l-2.586-4.471Zm-167.274 16.271a4.14 4.14 0 0 1-2.7 1.754 4.23 4.23 0 0 1-.737.07 4.148 4.148 0 0 1-2.384-.78l-8.408-5.366a4.181 4.181 0 0 1 4.796-6.847l8.407 5.374a4.184 4.184 0 0 1 1.026 5.795Z"/>
  <path fill="#A1A1A1" d="M192.436 178.528a4.264 4.264 0 0 0-3.735-2.192h-9.389a1.694 1.694 0 0 0-1.421.771l-1.63 3.016h17.06l-.885-1.595Zm-12.65 148.398c-2.201-.052-5.541-.14-6.435 2.139a38.91 38.91 0 0 0-1.535 6.935h42.248a3.329 3.329 0 0 0 3.323-3.331v-5.488c-10.31-.062-35.068-.22-36.734-.22l-.867-.035Z"/>
  <path fill="#fff" d="M291.625 217.891h-1.28c-5.54 0-8.767-.876-10.888-2.989-2.122-2.113-3.314-5.892-3.402-11.871H155.282c0 .465.043.877.079 1.289.263 3.139-2.631 9.161-5.497 12.037a5.7 5.7 0 0 0-1.57 6.023c8.636.263 25.126 15.439 17.534 29.308-7.592 13.869-16.227 67.014-16.753 75.65-.526 8.635 5.54 8.662 5.54 8.662h16.316a39.62 39.62 0 0 1 1.604-7.242c1.113-2.84 4.971-2.744 7.277-2.691h37.575c-1.412-9.977-.877-26.477-.368-30.167.068-.476.195-.941.377-1.386a69.262 69.262 0 0 0 4.628-23.486 7.893 7.893 0 0 1 9.592-7.426 59.289 59.289 0 0 0 9.319 1.21h31.859a5.316 5.316 0 0 0 5.313-5.313v-25.652a7.792 7.792 0 0 1 7.785-7.785h68.864c1.784 0 3.541-.433 5.12-1.262a11.149 11.149 0 0 0 3.954-3.507 10.83 10.83 0 0 0 1.561-3.402h-73.766Zm-106.957 22.794 17.07-8.767c.917.425 1.763.99 2.507 1.675l-21.961 11.274a52.813 52.813 0 0 1 2.402-4.199l-.018.017Zm-5.321 10.626 27.59-14.203c.422.789.783 1.61 1.078 2.455l-30.071 15.43a90.798 90.798 0 0 1 1.403-3.682Zm-3.393 9.644 33.315-17.079c.353.814.646 1.652.876 2.508l-35.366 18.095c.43-1.306.824-2.49 1.175-3.542v.018Zm-3.752 12.536.473-1.753 38.364-21.041c.132.877.255 1.815.351 2.806l-39.635 21.733c.149-.605.298-1.175.447-1.745Zm33.796 34.902a92.103 92.103 0 0 1-.604 1.832l-16.658 9.179-2.472-.132-2.411-.184 22.707-12.501c-.22.622-.377 1.218-.562 1.806Zm2.56-10.179c-.114.57-.236 1.14-.359 1.701l-32.885 18.112a11.177 11.177 0 0 1-1.648-.587 7.95 7.95 0 0 1-1.359-.763l36.576-20.129a56.909 56.909 0 0 1-.325 1.666Zm1.649-9.644a49.035 49.035 0 0 1-.237 1.622l-40.451 22.268a4.882 4.882 0 0 1-.088-1.052 24.51 24.51 0 0 1-.42-1.674l41.432-22.794c-.082.526-.16 1.061-.236 1.604v.026Zm1.025-9.336c0 .526-.087 1.052-.14 1.578l-42.853 23.574a45.1 45.1 0 0 1-.131-2.928l43.247-23.811c-.035.491-.079 1.034-.123 1.56v.027Zm.456-7.522-43.396 23.881c0-.517.079-1.044.123-1.57.043-.526.105-1.06.166-1.595l43.212-23.794a141.24 141.24 0 0 1-.105 3.051v.027Zm-42.239 14.474c.184-1.122.395-2.236.605-3.34l41.739-22.987.053 2.98-42.397 23.347Zm93.684-78.903c3.577-2.744 7.653 1.333 4.9 4.901-3.568 2.77-7.644-1.306-4.9-4.874v-.027Zm8.96 49.656a3.194 3.194 0 0 1-3.192 3.191h-28.317s-9.644-.061-15.894-4.436a9.583 9.583 0 0 1-4.068-7.89v-9.328a12.373 12.373 0 0 1 1.753-6.523c1.543-2.507 4.191-5.26 8.364-5.4 5.26-.132 23.127-.079 33.551 0a7.784 7.784 0 0 1 7.803 7.75v22.636Z"/>
</svg>
