<svg xmlns="http://www.w3.org/2000/svg" width="512" height="512" fill="none" viewBox="0 0 512 512">
  <path fill="#A1A1A1" d="m169.323 331.839-.478 4.161c13.15 0 30.182-.488 36.762-.695a2.868 2.868 0 0 0 2.771-2.861v-.605h-39.055Z"/>
  <path fill="#fff" d="M280.457 216.823v-10.614H151.389v8.25s-.298 4.35-7.519 5.316c-3.348.451-1.805 6.58 1.517 6.58 3.321 0 13.926 2.536 18.223 6.588 4.296 4.053 5.316 8.602 1.272 22.023-4.043 13.422-11.697 32.953-14.694 53.92-2.978 20.597-2.789 24.55 2.022 26.328 1.544.569 7.871.768 15.759.786l.587-5.064h39.822v-1.038a7.113 7.113 0 0 0 3.032-3.8c.758-2.536-2.527-12.401-2.022-17.212 1.084-10.325 4.513-12.148 6.075-17.465 1.561-5.316 2.022-19.748 2.022-22.79 0-3.041 2.03-9.107 9.368-7.843 4.513.785 10.434 2.274 14.27 3.294a32.3 32.3 0 0 0 8.259 1.083h28.341c2.617-.072 4.314-1.805 4.314-3.863l.108-20.317a9.157 9.157 0 0 1 1.86-5.478 9.154 9.154 0 0 1 7.265-3.611h5.479l-16.292-15.073Zm-121.243 85.881h43.035a24.675 24.675 0 0 0-.55 2.707h-42.738c.082-.92.172-1.823.253-2.707Zm-.605 7.22h43.117c.117.903.27 1.805.424 2.708h-43.622c.027-.876.063-1.787.118-2.708h-.037Zm44.227 9.495a1.14 1.14 0 0 1-.659.434h-43.739v-2.708h44.407a10.67 10.67 0 0 1-.009 2.274Zm.785-21.228h-43.649c.175-.909.355-1.811.542-2.708h44.01l-.903 2.708Zm3.43-9.929c-.352.903-.704 1.806-1.047 2.708h-44.227s.316-2.103.47-2.708h44.804Zm1.679-4.513h-45.274c.28-.965.551-1.868.822-2.707h45.129c-.091.623-.551 2.364-.677 2.707Zm1.065-7.22h-43.983c.307-.858.632-1.805.975-2.708h43.098l-.09 2.708Zm-41.293-7.221c.343-.902.704-1.805 1.074-2.708h40.354v2.708h-41.428Zm43.892-7.22h-40.95c.397-.933.794-1.836 1.191-2.708h39.66c.208.887.242 1.807.099 2.708Zm1.399-11.093a5.111 5.111 0 0 1-4.72-3.154 5.112 5.112 0 0 1 3.723-6.965 5.108 5.108 0 1 1 .997 10.119Zm39.073-41.898h13.8a4.967 4.967 0 0 1 5.009 4.342 4.8 4.8 0 0 1-4.765 5.235h-13.828a4.949 4.949 0 0 1-5.009-4.342 4.79 4.79 0 0 1 1.237-3.678 4.794 4.794 0 0 1 3.556-1.557Zm24.18 49.137a2.714 2.714 0 0 1-1.728 2.525 2.71 2.71 0 0 1-1.061.182c-8.123-.216-25.697 1.354-35.76-1.913-6.562-2.13-12.14-5.145-11.68-14.315.208-4.071.307-6.869 1.128-8.764a6.854 6.854 0 0 1 6.319-4.044h7.987v.055h25.616a9.162 9.162 0 0 1 6.94 3.186l.136.171a9.125 9.125 0 0 1 2.211 5.993l-.108 16.924Z"/>
  <path fill="#A1A1A1" d="m282.064 217.067 6.905 6.373h76.891v-6.373h-83.796Z"/>
  <path fill="#fff" d="M357.466 186.759h-185.67l-20.38 15.01v2.708h48.739l2.509-15.29h2.762l-2.491 15.326h2.708l2.509-15.29h2.762l-2.563 15.29h2.707l2.51-15.29h2.761l-2.563 15.29h2.708l2.509-15.29h2.762l-2.563 15.29h2.707l2.509-15.29h2.762l-2.563 15.29h2.708l2.509-15.29h2.762l-2.563 15.29h2.707l2.509-15.29h2.762l-2.518 15.29h61.321l2.518-15.29h2.762l-2.518 15.29h2.654l2.518-15.29h2.762l-2.518 15.29h2.653l2.518-15.29h2.762l-2.518 15.29h2.654l2.518-15.29h2.762l-2.518 15.29h2.653l2.518-15.29h2.762l-2.518 15.29h2.654l2.518-15.29h2.762l-2.519 15.29h2.654l2.518-15.29h2.762l-2.518 15.29h33.856v-23.648l-8.439 5.894Zm-165.614 14.315a4.742 4.742 0 0 1-2.853 2.283 4.66 4.66 0 0 1-1.317.19 4.807 4.807 0 0 1-2.293-.605l-11.038-6.101a4.77 4.77 0 0 1-2.279-2.869 4.791 4.791 0 0 1 .419-3.639 4.786 4.786 0 0 1 6.499-1.859l11.002 6.101a4.782 4.782 0 0 1 1.86 6.499Z"/>
  <path fill="#A1A1A1" d="M365.86 206.209h-84.5v9.955h84.5v-9.955Z"/>
  <path fill="#fff" d="M171.498 185.748h185.679l8.123-5.713h-5.596l-2.825-3.132a1.359 1.359 0 0 0-.993-.434h-7.672a.85.85 0 0 0-.848.849v2.707h-70.311v3.864h-32.457v-3.854h-52.169l-3.069-2.708a5.231 5.231 0 0 0-3.466-1.327h-7.635a1.028 1.028 0 0 0-.993 1.002v2.78h-6.102l-19.748 16.454v4.305l20.082-14.793Z"/>
  <path fill="#A1A1A1" d="M276.107 180.034H245.51v2.961h30.597v-2.961Zm-12.257 37.737h2.889a4.003 4.003 0 0 0 4.034-3.502A3.889 3.889 0 0 0 266.91 210h-3.258a3.885 3.885 0 0 0-3.685 2.649 3.88 3.88 0 0 0-.187 1.593 4.024 4.024 0 0 0 4.07 3.529Zm-81.169-17.492 2.419 1.58a4.007 4.007 0 0 0 5.289-.722 3.885 3.885 0 0 0 .811-3.044 3.879 3.879 0 0 0-1.713-2.643l-2.708-1.805a3.873 3.873 0 0 0-3.092-.507 3.886 3.886 0 0 0-2.459 1.942 4.027 4.027 0 0 0 1.453 5.199Z"/>
  <path fill="#fff" d="M213.793 241.681a4.2 4.2 0 0 0-3.886 2.596 4.203 4.203 0 0 0 .912 4.584 4.202 4.202 0 0 0 4.584.912 4.21 4.21 0 0 0 2.596-3.886 4.203 4.203 0 0 0-4.206-4.206Z"/>
  <path fill="#A1A1A1" d="m289.943 224.342 8.124 7.509 58.866-.171a2.487 2.487 0 0 0 1.751-.713l6.724-6.625h-75.465Zm-33.133 28.242a14.976 14.976 0 0 1-5.416-4.91 15.143 15.143 0 0 1-1.579-3.945 6.447 6.447 0 0 1-.226-1.715v-9.152h-7.338c0 2.085.063 6.986.063 8.71a13.443 13.443 0 0 0 4.17 8.936c3.61 3.177 8.439 2.789 10.289 2.491a.235.235 0 0 0 .037-.415Zm112.56-68.786h-2.825v17.781h2.825v-17.781Z"/>
</svg>
