<svg xmlns="http://www.w3.org/2000/svg" width="512" height="512" fill="none" viewBox="0 0 512 512">
  <path fill="#A1A1A1" d="M218.091 239.097s-.077 7.474 0 8.729c.185 3.055.6 5.15 2.487 7.158 2.183 2.367 8.064 2.782 10.595 2.706a.167.167 0 0 0 .122-.159.16.16 0 0 0-.034-.099.161.161 0 0 0-.088-.059c-2.04-.884-5.008-3.83-6.361-5.816a5.67 5.67 0 0 1-1.015-3.273v-9.133l-5.706-.054Z"/>
  <path fill="#fff" d="M278.244 212.494h113.729l.229-.535v-21.648l-113.958-.218v22.401Z"/>
  <path fill="#A1A1A1" d="M382.186 179.018a2.189 2.189 0 0 0-.891-1.702 2.177 2.177 0 0 0-1.891-.338l-8.031 2.531a2.523 2.523 0 0 0-1.746 2.39v1.004h12.559v-3.885Zm-211.974 97.33a7.898 7.898 0 0 0-7.761 9.434 7.901 7.901 0 0 0 15.649-1.534 7.903 7.903 0 0 0-2.313-5.579 7.904 7.904 0 0 0-5.575-2.321Zm187.729-55.866h30.574l2.51-5.805h-33.084v5.805Z"/>
  <path fill="#A1A1A1" d="m186.829 318.891 16.247-79.424c-4.485.153-19.411.589-21.037-.654-3.645-2.794-3.012-8.119-2.652-10.017h-8.511c-.742 2.182-4.626 13.41-6.546 19.848-1.212 4.157-4.692 6.034-7.584 6.896-4.713 9.896-19.498 40.841-24.561 50.497a30.377 30.377 0 0 0-3.394 14.523h55.987a2.103 2.103 0 0 0 2.051-1.669Zm-11.108-6.012h-26.187a4.506 4.506 0 0 1-4.136-6.296l18.332-42.554a7.786 7.786 0 0 1 2.542-3.274c3.426-2.509 5.543-7.441 6.492-10.158a4.366 4.366 0 0 1 4.081-2.837h10.649a4.365 4.365 0 0 1 4.256 5.226l-11.61 56.292a4.514 4.514 0 0 1-4.419 3.601Z"/>
  <path fill="#fff" d="M226.328 203.579v-19.564l-46.068-1.091-16.192.076-14.283 18.08c-.328 3.274-2.259 19.957-8.729 25.38h13.792l8.969-28.468h2.335l-8.991 28.468h4.233l8.97-28.468h2.335l-8.991 28.468h4.233l8.969-28.468h2.881l-9.504 28.468h4.201l8.969-28.468h2.335l-8.991 28.468h4.234l8.969-28.468h2.335l-8.991 28.468h4.234l8.969-28.468h2.335l-8.991 28.468h4.234l8.969-28.468h2.335l-8.991 28.468h4.233l8.97-28.468h2.335l-8.991 28.468h4.233l8.969-28.468h2.335l-8.991 28.468h147.304v-11.784H237.436a11.12 11.12 0 0 1-11.108-11.097Zm-38.834 45.272h-10.649a3.275 3.275 0 0 0-3.066 2.182c-.993 2.837-3.208 7.998-6.874 10.671a6.725 6.725 0 0 0-2.183 2.793l-18.331 42.555a3.373 3.373 0 0 0 .284 3.273 3.412 3.412 0 0 0 2.848 1.539h26.187a3.44 3.44 0 0 0 3.35-2.728l11.62-56.357a3.269 3.269 0 0 0-1.789-3.606 3.279 3.279 0 0 0-1.397-.322Zm-17.283 44.376a8.988 8.988 0 0 1-6.369-15.348 8.995 8.995 0 0 1 4.606-2.462 8.998 8.998 0 0 1 9.232 3.831 8.993 8.993 0 0 1-1.123 11.346 8.992 8.992 0 0 1-6.346 2.633Z"/>
  <path fill="#A1A1A1" d="M382.186 184.026H356.25v2.565h-6.547v-2.565h-54.557v2.565h-6.547v-2.565h-60.121v19.554a8.918 8.918 0 0 0 5.535 8.245 8.93 8.93 0 0 0 3.423.669h39.717v-23.492l115.05.229v-5.205h-10.017Z"/>
  <path fill="#fff" d="M182.693 237.94c.972.72 56.892.186 56.892.186 2.444 0 4.365 1.887 6.002 3.742a8.372 8.372 0 0 1 1.996 5.652l-.327 11.49a2.84 2.84 0 0 1-2.826 2.75l-32.21-.197c.254.7.386 1.438.392 2.182a6.355 6.355 0 0 1-.589 2.696l35.506-.066c2.76 0 4.67-2.553 4.67-5.303v-13.825a9.208 9.208 0 0 1 2.018-5.761 8.85 8.85 0 0 1 5.456-3.36c2.532-.459 5.39-1.888 5.39-4.572v-4.91h-84.53c-.262 1.222-1.222 6.699 2.16 9.296Zm63.766.273a3.376 3.376 0 0 1 4.126-2.618 3.369 3.369 0 0 1 2.453 2.453 3.371 3.371 0 1 1-6.579.165Z"/>
  <path fill="#A1A1A1" d="M357.941 227.552h27.508l2.586-5.98h-30.094v5.98Z"/>
  <path fill="#fff" d="M249.766 241.148a2.285 2.285 0 0 0 2.107-1.408 2.286 2.286 0 0 0-.495-2.485 2.28 2.28 0 1 0-1.612 3.893Z"/>
  <path fill="#A1A1A1" d="M180.184 180.797a2.313 2.313 0 0 0-1.571-2.183l-7.398-2.509a2.029 2.029 0 0 0-2.673 1.92v3.885h11.642v-1.113Zm-38.637 154.701a.513.513 0 0 0 .502.502h49.101a1.007 1.007 0 0 0 .786-.371l2.389-2.902h-52.778v2.771Z"/>
  <path fill="#fff" d="M147.133 235.932c11.632-.24 11.174 16.52 11.174 16.52l-.819 1.724a9.01 9.01 0 0 0 5.882-5.827c1.822-6.295 5.543-17.109 6.437-19.705h-36.302l-.338.076h-10.104a3.03 3.03 0 0 0-2.182.938l-2.488 2.641a1.429 1.429 0 0 0-.356.665c-.058.249-.048.509.029.753l.6 1.943a.381.381 0 0 0 .36.272c2.204.033 17.338.208 28.107 0Z"/>
  <path fill="#A1A1A1" d="M138.056 212.843c5.401 1.091 6.797 3.273 7.136 4.637a77.253 77.253 0 0 0 3.415-15.734 6.338 6.338 0 0 0-3.273 2.826 7.399 7.399 0 0 1-1.408 1.757 4.977 4.977 0 0 1-3.601 1.244c-6.317-.338-8.216-2.062-8.729-3.088a.153.153 0 0 0-.227-.07.15.15 0 0 0-.057.07c-.207 2.182-.381 6.983 6.744 8.358Z"/>
  <path fill="#fff" d="M205.553 261.399a2.303 2.303 0 1 0 2.292 2.303 2.313 2.313 0 0 0-2.292-2.303Z"/>
  <path fill="#fff" d="m207.517 258.06.12-.589 2.848-18.026H204.2l-16.487 80.537a2.083 2.083 0 0 1-2.051 1.67h-56.739v.622c0 3.589 3.077 6.928 4.975 8.62a3.015 3.015 0 0 0 1.986.741h60.689a3.36 3.36 0 0 0 2.183-2.869 2.798 2.798 0 0 0-.284-1.451c-1.953-4.169-.895-9.93-.895-9.93l8.369-47.071.131-.59a5.902 5.902 0 0 0 5.194-3.186 5.858 5.858 0 0 0 .229-4.932 5.874 5.874 0 0 0-3.983-3.546Zm-1.964 9.035a3.394 3.394 0 1 1 3.383-3.394 3.407 3.407 0 0 1-3.383 3.394Z"/>
</svg>
