<svg xmlns="http://www.w3.org/2000/svg" width="512" height="512" fill="none" viewBox="0 0 512 512">
  <path fill="#A1A1A1" d="M260.677 238.324c.383.916 5.604 11.166 14.047 8.402a.374.374 0 0 0 .214-.333.364.364 0 0 0-.214-.334c-2.065-1.007-5.395-1.498-7.91-7.011-1.349-2.956 0-9.626 0-9.626l-12.2 2.881a9.045 9.045 0 0 0 1.025 5.121c.741 1.116 4.28-.874 5.038.9Zm81.302-58.405a1.757 1.757 0 0 0-1.357-.649h-5.987a1.225 1.225 0 0 0-.883.36 1.233 1.233 0 0 0-.366.88v2.057l10.892.242-2.299-2.89ZM158.173 200.62c.583 1.532.541 2.89 1.94 4.064 0 0 3.989-6.104 5.621-11.9a5.827 5.827 0 0 0-3.506 1.574 1.536 1.536 0 0 1-1.324.308c-1.998-.441-7.253-1.191-8.868 2.557a.405.405 0 0 0 .4.574c3.888-.283 5.029.966 5.737 2.823Z"/>
  <path fill="#fff" d="M162.02 335.997c2.682 0 4.763-1.765 5.688-2.706h-9.16a3.397 3.397 0 0 0 3.472 2.706Z"/>
  <path fill="#A1A1A1" d="M188.724 177.021c-.716-.491-2.756-1.774-4.163-.416l-1.915 2.231a2.823 2.823 0 0 0-.633 1.716v1.074l13.248.125c-1.016-.658-3.322-2.498-6.537-4.73Zm47.597 50.07a1.666 1.666 0 0 0 1.665-1.665v-6.396h-19.985v6.396a1.662 1.662 0 0 0 1.665 1.665h16.655Z"/>
  <path fill="#fff" d="M354.952 191.593a91.45 91.45 0 0 1-.099 16.238h4.921c.591-6.462.599-11.259-.416-16.197l-4.406-.041Zm-175.238 4.505h-14.03c-1.416 3.48-6.412 11.815-6.595 12.232h33.099c1.299 0 6.245.474 8.535-2.906 1.299-1.915 1.316-6.72.733-9.326h-3.955a6.249 6.249 0 0 1 1.548 4.113v1.349a4.568 4.568 0 0 1-2.813 4.256 4.572 4.572 0 0 1-1.758.349h-11.741a4.555 4.555 0 0 1-4.563-4.563v-1.391a6.25 6.25 0 0 1 1.54-4.113Zm173.69-11.924-182.408-1.249a1.472 1.472 0 0 0-1.399.974l-1.49 4.164a50.553 50.553 0 0 1-1.074 4.929c-.042.167-.1.333-.15.5H353.97c.225-3.148-.3-5.962-.566-9.318ZM239.26 225.45a2.957 2.957 0 0 1-2.948 2.948h-16.728a2.955 2.955 0 0 1-2.948-2.948v-6.387h-61.527a22.476 22.476 0 0 0-.108 7.786c.042.248.172.473.366.633l2.923 2.34c.272.22.608.348.957.366 2.981.15 17.562 1.582 15.588 15.73-2.19 15.746-19.768 42.841-20.867 64.116-1.099 21.275.083 21.65 4.388 21.975h12.641a21.77 21.77 0 0 1 1.748-3.264 6.965 6.965 0 0 1 5.787-3.031h35.498s3.897-.15 4.388-5.405c.733-7.685 6.661-46.513 7.327-49.061 1.424-5.438 6.595-12.082 14.647-12.491 6.762-.308 36.705-3.447 46.181-4.446a3.235 3.235 0 0 0 2.889-3.223v-16.986s-.558-7.494 5.305-7.819c5.862-.325 21.383-.833 24.314-2.315 2.498-1.241 2.864-4.055 2.914-4.88h-82.768l.033 6.362Zm-16.554 24.206c-.699 4.005-6.528 63.85-7.91 66.415-2.548 4.746-8.852 4.796-9.16 4.796-1.016 0-40.019.1-41.076 0a6.975 6.975 0 0 1-4.871-2.714c-1.749-2.298-2.257-5.771-1.507-10.325 1.199-7.37 19.309-52.693 20.459-56.623a38.55 38.55 0 0 0 1.448-7.411c.458-4.646.833-8.66 7.794-8.968 2.69-.133 22.691.325 28.428.675a6.192 6.192 0 0 1 4.721 2.739c2.265 3.139 2.265 8.052 1.674 11.416Zm6.12 8.652a4.313 4.313 0 1 1 .018-8.626 4.313 4.313 0 0 1-.018 8.626Zm44.824-30.976c9.542-1.665 12.19-1.074 12.731 10.65.213 2.967.028 5.95-.549 8.868a3.233 3.233 0 0 1-2.865 2.498l-37.312 3.331a7.493 7.493 0 0 1-3.256-.4c-2.381-.832-5.829-3.247-5.121-9.634 1.033-9.601 27.878-13.797 36.372-15.313Z"/>
  <path fill="#A1A1A1" d="M173.827 329.444a18.405 18.405 0 0 0-1.407 2.498l39.378-.042a2.081 2.081 0 0 0 2.081-2.09v-2.822h-35.356a5.615 5.615 0 0 0-4.696 2.456Z"/>
  <path fill="#fff" d="M228.834 250.988a3.02 3.02 0 0 0-2.966 3.598 3.019 3.019 0 0 0 2.367 2.373 3.015 3.015 0 0 0 3.605-2.956 3.02 3.02 0 0 0-3.006-3.015Z"/>
  <path fill="#A1A1A1" d="M216.228 236.807c-4.921-.299-21.5-.707-26.871-.707h-1.424c-5.828.266-6.078 3.097-6.553 7.794a30.154 30.154 0 0 1-1.474 7.669c-.508 1.398-1.707 4.488-3.397 8.776-5.521 14.156-15.821 40.418-16.995 47.654-.683 4.164-.267 7.336 1.266 9.335a5.717 5.717 0 0 0 3.971 2.206c2.998.342 40.536 0 40.919 0 .066 0 5.828-.066 7.977-4.096 1.365-2.548 3.522-25.206 5.104-41.743 1.149-11.965 2.423-22.249 2.69-24.406.474-3.838.324-7.835-1.466-10.3a4.846 4.846 0 0 0-3.747-2.182Zm-26.271 59.587a9.715 9.715 0 0 1-8.967-6.012 9.718 9.718 0 1 1 18.701-3.697 9.724 9.724 0 0 1-9.734 9.709Z"/>
  <path fill="#fff" d="M189.965 278.267a8.421 8.421 0 0 0-7.761 5.216 8.418 8.418 0 1 0 7.761-5.216Z"/>
  <path fill="#A1A1A1" d="M187.491 204.832h7.003a3.262 3.262 0 0 0 3.081-2.381c.055-.183.094-.369.117-.558a3.471 3.471 0 0 0 0-.408v-1.358a3.254 3.254 0 0 0-3.256-3.247l-5.829.067h-1.116a3.27 3.27 0 0 0-3.239 3.272v1.349a3.265 3.265 0 0 0 3.239 3.264Z"/>
  <path fill="#fff" d="M353.97 196.098H202.772c.699 2.315.624 7.702-.966 10.058-2.498 3.748-7.944 3.481-9.618 3.481H158.44a38.367 38.367 0 0 0-2.707 6.811h49.054v-.091l4.629-15.363a1.305 1.305 0 0 1 1.558-.752 1.311 1.311 0 0 1 .941 1.451l-4.464 14.755h3.864v-.091l4.63-15.363a1.304 1.304 0 0 1 1.645-1.067 1.306 1.306 0 0 1 .955 1.226c.004.185-.03.369-.102.54l-4.463 14.755h3.838v-.091l4.63-15.363a1.3 1.3 0 0 1 1.096-1.1 1.31 1.31 0 0 1 1.036.29 1.301 1.301 0 0 1 .468.969c.005.185-.03.369-.102.54l-4.463 14.755h3.839v-.091l4.629-15.363a1.305 1.305 0 0 1 1.558-.752 1.31 1.31 0 0 1 .94 1.451l-4.463 14.755h3.897v-.091l4.63-15.363a1.304 1.304 0 0 1 1.645-1.067 1.306 1.306 0 0 1 .955 1.226c.004.185-.03.369-.102.54l-4.463 14.755h3.838v-.091l4.63-15.363a1.3 1.3 0 0 1 1.096-1.1 1.31 1.31 0 0 1 1.036.29 1.305 1.305 0 0 1 .366 1.509l-4.463 14.755h113.386c.05-2.264.916-17.977.533-20.35Z"/>
</svg>
