<svg xmlns="http://www.w3.org/2000/svg" viewBox="0 0 604 581"><path fill="currentColor" fill-rule="evenodd" d="M66.308.779c-5.081 2.039-4.616-1.112-16.907 114.487-2.456 23.1-6.48 62.025-8.941 86.5-6.017 59.831-9.158 86.098-30.428 254.5C2.454 516.269 0 536.676 0 539.7c0 4.192 3.861 7.656 10.003 8.973 19.116 4.1 66.094 12.462 103.997 18.511 51.693 8.25 115.449 14.241 129.353 12.156 5.97-.895 11.865-5.879 14.059-11.888 1.56-4.271 4.568-21.181 16.043-90.186 9.858-59.28 13.754-76.772 18.626-83.614 1.876-2.634 1.919-7.03 1.919-196.135 0-182.983-.095-193.523-1.75-194.963C290.714 1.218 276.908.962 179.5.466 116.496.145 67.552.28 66.308.779Zm288.76-.263c-42.377.24-47.626.445-49.25 1.915C304.073 4.01 304 11.809 304 197.527v193.45l2.469 2.935c5.795 6.886 10.17 27.537 26.029 122.854 8.391 50.429 9.258 53.822 15.045 58.904 5.503 4.831 12.074 5.636 29.919 3.664 18.508-2.045 61.668-8.155 96.17-13.614 45.952-7.27 120.778-19.948 124.027-21.013 2.063-.677 3.712-2.203 4.755-4.401 1.936-4.079 3.526 10.146-20.913-187.04-4.636-37.4-9.331-75.425-10.434-84.5-1.103-9.075-4.503-41.475-7.556-72-5.309-53.088-8.545-84.027-14.066-134.5-4.916-44.945-6.396-56.541-7.475-58.556-.6-1.122-2.219-2.468-3.596-2.992-2.342-.89-52.62-.946-183.306-.202Z" clip-rule="evenodd"/></svg>