<svg xmlns="http://www.w3.org/2000/svg" viewBox="0 0 944 409"><path fill="currentColor" fill-rule="evenodd" d="M244.329.507c-4.125.163-18.75 1.222-32.5 2.354C136.689 9.045 84.53 20.538 54.395 37.55c-15.659 8.843-27.753 23.327-31.533 37.767C15.414 103.77.053 228.403 0 260.814c-.037 22.855 3.492 32.81 17.11 48.257 18.843 21.376 57.193 51.454 93.276 73.157 23.646 14.222 31.036 16.87 47.462 17.004 9.33.076 10.466-.138 16.5-3.109 8.253-4.065 11.05-7.077 20.245-21.809 4.119-6.6 10.623-16.95 14.454-23 3.83-6.05 15.638-24.725 26.24-41.5 10.602-16.775 20.236-31.556 21.409-32.847 5.799-6.382 16.32-8.634 24.298-5.202 6.527 2.808 9.647 6.189 17.574 19.049l14.485 23.5c4.407 7.15 15.556 24.925 24.776 39.5s18.741 29.726 21.158 33.669c6.641 10.836 14.451 16.823 25.802 19.779 11.216 2.921 111.919 1.645 156.54-1.983 33.788-2.748 46.392-6.821 87.5-28.281 20.465-10.683 34.793-18.882 51.5-29.469 30.998-19.644 40.109-27.831 48.01-43.14l4.49-8.699 3.5.59c40.81 6.872 80.844 9.53 143.568 9.532 46.079.002 46.65-.085 55.014-8.449 8.805-8.806 8.536-6.205 8.204-79.178l-.286-62.871-2.701-5.12c-3.097-5.871-7.407-9.856-13.671-12.639-3.784-1.681-8.759-2.125-37-3.302-69.491-2.896-106.295-6.926-137.092-15.013-13.551-3.559-16.036-4.63-16.036-6.914 0-.684-1.567-4.375-3.481-8.202-6.537-13.065-20.015-24.114-44.019-36.082C602.986 25.24 452.7-.708 294.829.015c-23.65.108-46.375.33-50.5.492Z" clip-rule="evenodd"/></svg>
