<svg xmlns="http://www.w3.org/2000/svg" viewBox="0 0 895 920"><path fill="currentColor" fill-rule="evenodd" d="M582.772 11.252c-31.675 53.991-65.093 97.348-105.105 136.365C467.272 157.753 448.842 174 447.738 174c-1.756 0-27.029-23.36-43.17-39.902C365.891 94.46 336 54.458 309.408 6.75c-2.069-3.713-4.364-6.75-5.1-6.75-2.113 0-18.49 10.121-18.49 11.427 0 1.741 9.219 19.398 17.162 32.871 19.839 33.651 39.332 60.094 65.791 89.246 19.844 21.864 53.077 52.087 72.331 65.781l6.784 4.825 7.876-5.671C490.812 173.243 532.101 131.21 560.357 92c18.934-26.274 48.461-75.374 48.461-80.584 0-.665-3.263-3.223-7.25-5.684-12.688-7.832-10.604-8.444-18.796 5.52Zm-314.763 6.263c-3.006 1.307-9.445 3.697-38.191 14.182-5.225 1.905-21.65 7.639-36.5 12.741-34.254 11.77-48.306 17.291-61.48 24.159-36.774 19.169-60.334 54.788-76.446 115.57C43.16 230.313 29.736 324.732 16.322 459c-1.403 14.025-3.89 38.1-5.529 53.5-9.068 85.19-9.496 89.897-10.546 116C-1.22 664.947 4.08 757.279 9.862 796c2.658 17.804 7.638 31.213 13.012 35.04 10.25 7.299 62.676 6.233 83.172-1.69 9.144-3.535 13.497-8.934 17.162-21.287 4.316-14.546 6.91-38.13 17.605-160.063 4.672-53.27 12.769-131.11 18.983-182.5a15161.2 15161.2 0 0 0 5.048-42.5c8.953-76.309 13.897-114.474 15.564-120.158.692-2.358 3.1-3.009 4.81-1.299 5.031 5.031 13.109 53.992 16.821 101.957 1.496 19.328 1.381 110.381-.202 159-2.055 63.153-8.206 137.374-16.078 194-5.249 37.757-4.909 51.054 1.589 62.141 4.208 7.181 13.126 10.997 39.09 16.726 73.145 16.14 208.124 22.894 311.88 15.605 59.135-4.154 107.439-10.386 138.98-17.931 22.471-5.376 28.337-8.951 32.724-19.943 3.244-8.126 3.034-29.15-.53-53.098-5.684-38.185-11.416-98.438-14.651-154-3.214-55.2-4.485-168.987-2.233-200 2.913-40.128 8.199-77.166 13.817-96.812 2.669-9.334 6.252-11.438 8.259-4.85 1.422 4.666 6.888 47.773 20.118 158.662 7.436 62.319 16.521 151.407 21.569 211.5 4.148 49.375 9.648 105.288 11.41 116 3.272 19.887 7.223 30.263 13.272 34.853 8.748 6.636 27.596 9.982 56.765 10.077 33.984.111 37.666-1.891 43.52-23.654 5.788-21.522 10.111-70.044 12.524-140.562 1.424-41.628.049-68.368-6.515-126.714-1.412-12.546-2.127-19.293-6.521-61.5-16.197-155.607-24.202-217.51-34.991-270.571-12.529-61.624-32.177-103.966-59.209-127.597-16.648-14.553-32.716-22.461-75.808-37.306-44.464-15.318-51.319-17.744-69-24.422-10.175-3.843-18.781-6.676-19.124-6.295-.343.38-3.223 5.641-6.4 11.691-19.074 36.319-43.216 72.441-68.559 102.583-25.555 30.394-62.252 64.215-91.195 84.05l-8.778 6.015-9.81-7.003c-23.916-17.075-54.936-44.374-74.284-65.372-37.499-40.698-60.758-73.29-84.226-118.023-4.255-8.113-7.824-14.732-7.931-14.711-.106.022-1.682.686-3.502 1.476Zm-76.624 822.664c-1.032 4.734-3.571 33.565-3.569 40.536.002 6.586.263 7.513 2.995 10.624 8.115 9.242 42.295 16.844 99.507 22.131 97.031 8.965 236.842 8.315 329-1.531 47.931-5.12 76.662-12.017 84.334-20.243 3.56-3.819 4.034-8.13 2.561-23.332-.739-7.625-1.646-17.576-2.017-22.114-.37-4.538-.791-8.25-.935-8.25-.145 0-4.324 1.327-9.288 2.949-28.642 9.36-85.516 17.308-162.655 22.73-35.902 2.524-133.938 2.535-171.5.019-76.108-5.097-127.445-12.268-156.5-21.86-4.95-1.634-9.546-3.198-10.213-3.475-.687-.286-1.433.503-1.72 1.816Zm588.639 26.705.294 28.988 2.961 3.089c5.958 6.215 25.788 9.69 50.004 8.762 15.914-.609 22.11-2.241 25.981-6.842 2.974-3.534 2.958-3.454 6.386-32.433l2.726-23.051-6.529 1.265c-8.824 1.709-38.049 1.636-51.029-.128-12.302-1.672-25.387-4.902-28.729-7.092l-2.358-1.545.293 28.987ZM106.64 841.623c-3.673 1.288-10.648 3.08-15.5 3.983-11.384 2.117-44.19 3.011-55.356 1.509-4.563-.614-8.538-.876-8.833-.582-.582.582 3.236 33.381 5.282 45.379 1.057 6.197 1.773 7.867 4.371 10.188 1.71 1.527 4.82 3.298 6.911 3.935 5.832 1.776 30.624 2.371 42.291 1.015 19.253-2.238 27.103-6.205 29.066-14.688.943-4.074.048-53.463-.964-53.221-.325.077-3.595 1.194-7.268 2.482Z" clip-rule="evenodd"/></svg>
