<svg xmlns="http://www.w3.org/2000/svg" viewBox="-167.5 -157 1047 1047" fill="#fff" fill-rule="evenodd"><path d="M175.994 1.168c-9.886 2.666-19.054 10.345-23.292 19.51-2.102 4.546-2.137 5.543-2.137 60.123v55.5l2.663 5.046c13.586 25.738 51.846 25.498 64.567-.404l2.77-5.642.292-51.81c.324-57.264.125-59.59-5.822-68.234-8.253-11.995-24.739-17.945-39.041-14.09ZM518.811.824c-10.667 2.692-20.146 10.334-24.598 19.829l-2.648 5.648v54.5c0 54.178.013 54.528 2.218 59.306 1.221 2.643 4.687 7.215 7.704 10.16 18.577 18.138 51.031 11.106 59.184-12.824 1.225-3.593 1.415-13.077 1.177-58.714l-.283-54.428-2.958-5.34c-3.791-6.845-11.836-14.158-18.12-16.473C534.606.322 524.02-.492 518.811.824ZM72.799 82.376c-16.499 3-31.422 10.585-43.963 22.346-9.714 9.109-15.455 17.019-21.211 29.227C.19 149.716-.073 152.28.01 208.26c.04 26.927.429 49.315.865 49.751.436.436 160.52.68 355.741.541l354.949-.251.259-49.868c.245-46.933.142-50.365-1.743-58.302-6.268-26.392-24.572-48.874-49.516-60.819-15.221-7.287-19.875-8.011-51.5-8.011h-27.5l-.549 29.5c-.605 32.565-.849 34.011-7.609 45.22-6.116 10.139-18.418 19.002-30.884 22.249-7.54 1.964-23.33 1.976-30.827.023-16.697-4.349-28.959-15.14-35.784-31.492-2.171-5.204-2.324-7.117-2.821-35.5l-.526-30h-233l-.523 29.5c-.481 27.149-.697 29.966-2.709 35.348-5.93 15.865-18.133 26.973-35.2 32.04-7.118 2.113-23.281 2.127-31.424.028-13.353-3.443-26.612-13.499-32.113-24.356-5.886-11.615-5.868-11.492-6.469-43.06l-.562-29.5-25-.17c-17.856-.12-27.219.236-32.766 1.245ZM.518 288.062c-.266.695-.363 83.158-.214 183.252l.27 181.987 2.267 7.315c5.128 16.548 14.266 31.19 27.135 43.481 13.346 12.745 27.534 20.777 45.039 25.494l9.55 2.574 271 .068 271 .068 9-2.344c35.859-9.337 63.649-36.015 73.713-70.761l2.287-7.895v-364l-355.281-.251C70.71 286.848.908 287.046.518 288.062Zm205.512 84.274c1.905 1.12 4.38 3.595 5.5 5.5 1.952 3.324 2.035 5.042 2.035 42.14 0 37.502-.063 38.759-2.062 41.438-1.134 1.52-3.304 3.691-4.822 4.825-2.659 1.987-4.156 2.072-40.938 2.329-42.653.298-42.767.282-47.408-6.665-2.264-3.388-2.27-3.507-2.263-42.5.006-36.357.136-39.299 1.856-41.907 2.165-3.284 5.209-5.574 8.956-6.737 1.474-.458 19.106-.748 39.181-.645 34.727.178 36.668.286 39.965 2.222Zm190.93-.035c1.868 1.1 4.343 3.27 5.5 4.823 2.056 2.758 2.105 3.733 2.105 42.177 0 38.187-.061 39.435-2.062 42.115-1.134 1.519-3.304 3.689-4.822 4.823-2.657 1.985-4.17 2.072-40.438 2.339-37.488.276-37.701.266-42.178-2-8.034-4.065-7.997-3.848-7.998-46.559-.002-40.073.14-41.323 5.238-46.02 1.374-1.265 3.795-2.7 5.379-3.187 1.585-.487 19.306-.801 39.381-.698 34.516.177 36.685.296 39.895 2.187Zm191 0c1.868 1.1 4.343 3.27 5.5 4.823 2.056 2.758 2.105 3.732 2.105 42.176 0 38.187-.061 39.435-2.062 42.115-1.134 1.52-3.304 3.69-4.822 4.824-2.657 1.985-4.17 2.072-40.438 2.339-37.507.276-37.698.267-42.104-2-8.118-4.176-8.074-3.925-8.074-46.544 0-40.088.142-41.338 5.24-46.035 1.374-1.265 3.795-2.7 5.379-3.187 1.585-.487 19.306-.801 39.381-.698 34.516.177 36.685.296 39.895 2.187ZM206.681 542.363c1.518 1.134 3.688 3.305 4.822 4.825 2.001 2.681 2.062 3.93 2.062 42.116 0 38.363-.053 39.423-2.092 42.175-1.151 1.552-3.58 3.835-5.398 5.072-3.285 2.236-3.548 2.25-41.208 2.25-41.512 0-41.049.061-46.183-6.041l-2.619-3.112v-39.776c0-39.605.01-39.789 2.25-43.072 1.238-1.812 3.825-4.139 5.75-5.17 3.274-1.753 5.968-1.856 41.678-1.601 36.777.262 38.279.348 40.938 2.334Zm191 0c1.518 1.134 3.688 3.304 4.822 4.823 2.001 2.679 2.062 3.93 2.062 41.938 0 38.801-.021 39.211-2.233 42.767-4.299 6.913-5.061 7.019-47.945 6.697-36.803-.277-38.28-.362-41-2.358-6.252-4.588-6.319-5.087-6.32-46.945-.002-43.425-.062-43.077 8.072-47.261 4.406-2.267 4.597-2.276 42.104-2 36.268.267 37.781.354 40.438 2.339Zm191 0c1.518 1.134 3.688 3.304 4.822 4.822 1.986 2.658 2.072 4.164 2.339 40.938.276 38.025.268 38.196-2 42.604-4.179 8.123-3.898 8.074-46.761 8.072-41.305-.001-41.863-.077-46.445-6.32-1.997-2.721-2.081-4.191-2.355-41.279-.27-36.565-.186-38.678 1.707-42.957 1.556-3.518 2.929-4.931 6.284-6.468 4.06-1.86 6.335-1.953 41.971-1.72 36.294.237 37.78.322 40.438 2.308Z"/></svg>
