<svg xmlns="http://www.w3.org/2000/svg" viewBox="-109 -93 808 808" fill="#fff" fill-rule="evenodd"><path d="M272.871 2.218c-14.161 3.696-26.188 10.277-40.404 22.111-13.427 11.177-119.208 98.422-127.096 104.826-38.268 31.065-74.393 61.721-78.575 66.68-13.26 15.721-21.58 32.79-25.312 51.925-1.507 7.724-1.633 22.186-1.382 158.5C.36 546.819.49 556.634 2.16 562.199c4.875 16.236 10.298 25.299 22.175 37.061 9.514 9.421 19.12 15.157 32.056 19.142l8.979 2.766 48.807.364c32.417.242 51.223-.007 56-.74 15.181-2.331 27.719-11.467 34.004-24.777l3.189-6.755.553-62 .552-62 2.71-8.807c4.894-15.907 11.544-26.555 23.936-38.327 11.393-10.822 26.197-18.606 40.843-21.477 9.664-1.894 32.006-1.633 39.906.466 30.436 8.087 52.246 28.51 62.097 58.145 2.307 6.939 2.332 7.537 2.911 69 .565 59.931.655 62.189 2.701 67.652 2.922 7.805 3.915 9.484 8.631 14.601 5.525 5.994 11.032 9.646 18.743 12.43 6.399 2.311 6.559 2.317 58.417 2.317 59.161 0 59.924-.08 75.913-7.911 20.32-9.954 35.252-28.023 42.216-51.089 1.707-5.653 1.832-14.583 2.151-154.5.248-109.042.031-150.493-.82-156-2.538-16.435-9.684-33.845-19.595-47.739-7.406-10.382-14.785-17.627-34.173-33.551a9960.63 9960.63 0 0 1-30.95-25.527c-6.837-5.675-26.226-21.617-43.087-35.428a55119.34 55119.34 0 0 1-36.217-29.682 7008.992 7008.992 0 0 0-15-12.276 60427.821 60427.821 0 0 1-36.938-30.202C333.799 5.389 324.654.911 296.871.14c-12.995-.36-15.486-.145-24 2.078Z"/></svg>
