<svg xmlns="http://www.w3.org/2000/svg" viewBox="-100.5 -67 581 581" fill="#fff" fill-rule="evenodd"><path d="M179.948.501c-40.244 2.195-80.315 17.558-110.5 42.363-37.6 30.9-62.838 77.014-68.52 125.203-1.9 16.109-.779 43.002 2.433 58.333 6.405 30.57 20.761 60.08 40.913 84.095 4.23 5.041 9.985 11.228 12.79 13.75l5.1 4.586h255.623l5.478-5.007c14.191-12.97 31.939-37.876 40.256-56.493 4.71-10.541 10.394-28.42 13.001-40.894 3.462-16.56 4.395-44.885 2.029-61.606-6.203-43.846-25.439-81.334-57.766-112.579C289.52 22.034 249.972 4.566 204.455.87 197.416.3 190.26-.086 188.553.016c-1.708.102-5.58.32-8.605.485Zm50.78 66.58c.563.688 2.629 5.24 4.59 10.114 10.964 27.259 31.448 47.315 59.462 58.219 10.935 4.257 11.797 8.419 2.465 11.897-9.872 3.678-24.061 11.665-31.964 17.991-12.696 10.162-22.999 24.32-29.858 41.029-4.433 10.798-5.086 11.688-8.291 11.301-2.117-.256-3.026-1.641-6.105-9.301-11.876-29.538-32.305-49.633-61.605-60.596-8.737-3.268-9.555-8.441-1.732-10.949 6.574-2.107 20.871-9.578 27.82-14.537 15.411-10.996 27.192-26.422 35.421-46.376 1.668-4.046 3.535-7.96 4.148-8.699 1.4-1.687 4.303-1.735 5.649-.093Zm71.925 131c.523.688 1.75 3.412 2.727 6.055 2.721 7.363 11.346 16.032 20.177 20.28 4.04 1.943 7.625 3.985 7.966 4.537.929 1.502-2.39 4.678-5.63 5.39-4.606 1.012-14.302 7.848-17.718 12.493-1.739 2.366-4.152 6.688-5.361 9.605-3.586 8.652-6.139 8.333-10.331-1.291-3.834-8.8-11.054-16.02-19.854-19.854-9.282-4.043-9.933-6.951-2.218-9.898 10.166-3.882 19.698-13.33 22.626-22.425 1.486-4.618 2.705-6.142 4.911-6.142.965 0 2.183.563 2.705 1.25ZM73.448 365.856c-11.049.731-14.6 1.775-22 6.465-6.546 4.15-11.124 9.481-14.698 17.119-9.3 19.876-.192 44.148 20.195 53.809l6.503 3.082h253l6.775-3.209c7.443-3.526 15.511-10.99 18.758-17.357 11.812-23.153 1.264-49.355-23.533-58.455-4.733-1.737-11.134-1.842-120-1.975-63.25-.077-119.5.157-125 .521Z"/></svg>
