<?xml version="1.0" encoding="UTF-8"?>
<svg xmlns="http://www.w3.org/2000/svg" viewBox="0 0 4096 4096">
<path fill="currentColor" d="M 2953 2582.5 L 2940.5 2567 L 2919.5 2445 L 2878.5 2300 L 2851.5 2249 L 2822.5 2208 L 2774 2159.5 L 2697 2106.5 L 2591 2065.5 L 2533 2053.5 L 2500.5 2041 L 2507 2033.5 L 2627 2002.5 L 2706 1969.5 L 2776 1923.5 L 2822.5 1877 L 2856.5 1831 L 2883.5 1778 L 2919.5 1646 L 2938.5 1530 L 2945.5 1511 L 2951 1507.5 L 2958.5 1514 L 2963.5 1531 L 2962.5 1544 L 2984.5 1660 L 3015.5 1759 L 3056.5 1829 L 3113 1882.5 L 3159 1911.5 L 3216 1930.5 L 3361 1964.5 L 3375 1971.5 L 3402 1973.5 L 3419 1981.5 L 3448 1983.5 L 3568 2012.5 L 3643 2024.5 L 3674.5 2037 L 3666 2044.5 L 3640 2051.5 L 3296 2125.5 L 3168 2164.5 L 3120 2190.5 L 3054.5 2256 L 3020.5 2319 L 2986.5 2423 L 2962.5 2563 Z"/>
</svg>
