<svg xmlns="http://www.w3.org/2000/svg" viewBox="-170.5 -115 767 767" fill="#fff" fill-rule="evenodd"><path d="M200.378 1.371c-12.821 3.524-24.081 12.385-29.578 23.276-1.712 3.391-3.113 6.784-3.113 7.54 0 2.315-3.183 4.321-10.5 6.616-19.333 6.064-43.562 20.715-60.03 36.302-16.869 15.963-26.633 29.384-36.475 50.135-6.499 13.702-8.834 20.366-12.657 36.13l-2.667 11-.68 65.5c-.726 69.95-.675 69.232-6.08 86-4.679 14.511-15.993 34.149-26.74 46.412-12.52 14.286-15.16 30.009-7.755 46.186 3.823 8.35 14.234 18.258 23.084 21.968l7 2.934 174.921.269c115.678.178 176.81-.076 180.5-.75 25.395-4.64 41.878-30.869 34.033-54.156-2.421-7.185-3.935-9.723-9.701-16.258-10.298-11.671-20.71-29.548-26.087-44.791-5.952-16.871-6.166-19.633-6.167-79.674 0-30.052-.467-59.557-1.037-65.567-1.921-20.258-6.48-36.568-15.469-55.346-12.992-27.139-31.013-48.296-56.108-65.873-9.675-6.777-31.581-17.73-41.522-20.763-5.545-1.69-7.655-2.844-8.545-4.668-.651-1.333-2.371-5.01-3.824-8.173C249.757 13.81 236.93 3.71 223.888.98c-6.907-1.447-17.465-1.27-23.51.391ZM141.36 469.53c-1.609 1.61-.472 11.342 2.235 19.117 3.929 11.289 8.305 18.285 16.668 26.647 15.353 15.354 33.674 22.263 56.434 21.283 18.783-.81 33.849-7.096 47.411-19.782 11.659-10.907 20.152-27.692 20.781-41.071l.298-6.354-71.577-.257c-39.367-.141-71.879.047-72.25.417Z"/></svg>
