<svg xmlns="http://www.w3.org/2000/svg" viewBox="-49 -30 262 262" fill="#fff" fill-rule="evenodd"><path d="M15.973 1.612C10.464 3.306 4.617 8.634 1.835 14.495.062 18.231-.027 22.447.005 100.462c.028 72.472.215 82.461 1.61 85.667 3.62 8.33 10.215 13.214 19.506 14.446l5.145.683V0l-2.75.07c-1.513.038-4.907.732-7.543 1.542ZM45.266 100.5V201l49.25-.01 49.25-.01 5-2.367c2.75-1.303 6.44-3.886 8.199-5.741 6.614-6.971 6.303-2.393 6.279-92.59-.021-77.162-.126-82.01-1.856-85.821-2.695-5.933-10.157-12.088-16.233-13.391C142.01.395 122.635 0 92.717 0h-47.45v100.5Zm89.706-30.25c4.09 4.092 3.881 9.943-.495 13.852L131.234 87H77.113l-2.924-2.923c-4.768-4.768-3.86-12.391 1.852-15.543 2.266-1.251 7.223-1.464 29.454-1.269l26.729.235 2.748 2.75Z"/></svg>
