<svg xmlns="http://www.w3.org/2000/svg" viewBox="-79 -79 685 685" fill="#fff" fill-rule="evenodd"><path d="M246.771.407c-15.985.795-22.965 2.954-29.739 9.198-6.632 6.113-8.808 10.758-12.22 26.09-4.527 20.337-9.271 27.567-21.921 33.407-4.747 2.192-7.018 2.592-14.62 2.575-10.019-.021-10.31-.127-26.5-9.67-5.225-3.078-11.659-6.136-14.298-6.794-6.261-1.562-16.992-.694-22.779 1.84-5.582 2.446-24.225 18.403-32.423 27.752-17.134 19.54-20.5 25.615-20.5 37 0 8.363 2.175 13.933 9.943 25.469 7.643 11.349 9.057 15.191 9.057 24.619 0 8.643-2.21 15.336-7.1 21.512-3.845 4.854-13.561 11.454-18.2 12.362-17.351 3.399-26.17 5.983-30.5 8.937-5.614 3.832-10.618 10.874-12.696 17.871C.2 239.564-.666 265.411.572 283.433c.908 13.221 1.312 15.295 4.126 21.192 3.244 6.796 8.484 12.197 14.697 15.145 1.878.891 9.149 2.881 16.159 4.423 7.01 1.542 14.695 3.798 17.077 5.013 5.75 2.934 12.848 10.158 15.196 15.467 5.957 13.466 4.506 23.377-5.69 38.87-8.432 12.814-10.366 17.778-10.366 26.611 0 5.848.513 7.867 3.488 13.74 6.695 13.214 35.77 42.427 48.797 49.028 3.236 1.64 7.488 2.809 11.344 3.118 10.961.88 14.077-.136 28.446-9.272 14.381-9.145 20.295-11.199 29.212-10.142 10.042 1.189 21.261 8.509 26.161 17.068 1.286 2.246 3.729 10.054 5.428 17.351 4.214 18.093 7.924 24.687 16.821 29.901 7.882 4.619 13.574 5.372 41.038 5.428 26.202.054 33.592-.716 40.487-4.218 10.142-5.15 14.494-12.245 19.147-31.207 1.841-7.503 4.452-15.396 5.923-17.907 7.091-12.099 21.751-18.521 36.186-15.853 4.751.879 8.365 2.716 18.633 9.474 10.838 7.133 13.697 8.55 19.162 9.502 14.566 2.537 23.278-1.826 44.633-22.348 14.914-14.332 24.421-26.346 26.954-34.063 1.177-3.585 2.14-8.002 2.14-9.815 0-6.184-3.153-13.928-9.996-24.55-8.102-12.577-10.518-19.704-9.689-28.585.741-7.926 3.573-14.364 8.829-20.066 6.408-6.952 11.377-9.351 26.146-12.624 7.265-1.61 15.113-3.842 17.438-4.96 5.698-2.74 12.665-10.718 15.434-17.674 2.181-5.479 2.271-6.875 2.287-35.702.016-28.867-.069-30.213-2.25-35.647-4.12-10.269-13.876-18.661-23.699-20.388-14.569-2.562-23.983-5.465-29.057-8.96-10.396-7.16-14.872-15.738-14.872-28.505 0-9.972 1.238-13.26 10.004-26.571 6.287-9.546 7.968-13.506 8.983-21.153.749-5.649-1.203-13.816-4.782-20.007-7.519-13.006-37.757-42.59-48.713-47.658-3.686-1.705-6.495-2.111-14.611-2.111h-10.048l-11.952 7.116c-14.643 8.718-17.775 9.81-28.049 9.787-6.857-.015-8.991-.456-13.945-2.88-6.254-3.06-13.328-9.436-15.825-14.266-.842-1.628-3.145-9.44-5.119-17.358-1.974-7.92-4.485-16.256-5.581-18.526-4.486-9.293-13.881-15.64-25.609-17.297C281.612.013 262.784-.39 246.771.407Zm38.47 174.875c15.583 4.182 27.148 10.705 38.892 21.935 11.731 11.218 21.254 26.861 25.717 42.246 2.669 9.197 3.732 31.334 1.988 41.353-5.405 31.037-27.113 57.352-57.242 69.389-20.929 8.362-44.583 7.768-66.468-1.667-51.79-22.33-70.516-86.931-39.133-135.005 13.148-20.142 32.402-33.583 56.299-39.302 10.534-2.521 28.39-2.052 39.947 1.051Z"/></svg>
