<svg xmlns="http://www.w3.org/2000/svg" viewBox="-99 -121 861 861" fill="#fff" fill-rule="evenodd"><path d="M169.523 1.012c-19.909 3.318-37.139 18.27-43.608 37.841-2.625 7.944-2.637 8.123-2.637 39.518v31.536l234.25-.252 234.25-.252.277-31c.274-30.706.253-31.077-2.247-39.135C583.72 19.64 565.68 4.024 545.586.99c-8.836-1.334-368.047-1.312-376.063.023ZM72.969 54.996c-8.41 1.23-21.48 5.99-30.29 11.028C23.551 76.966 8.944 96.476 2.717 119.403l-2.717 10 .002 212.5c.001 198.048.118 212.942 1.726 219 6.761 25.467 24.235 45.265 47.094 53.356 3.826 1.355 8.429 2.766 10.23 3.138 1.8.371 124.65.681 273 .689l269.726.014 8.5-2.686c24.853-7.853 42.475-26.135 50.132-52.011l2.368-8v-342l-2.256-8.464c-7.125-26.732-24.36-44.788-50.9-53.325l-6.844-2.201-251.5-.505c-231.213-.464-251.742-.638-254.5-2.154-4.753-2.614-8.438-6.498-10.525-11.097-1.8-3.966-1.933-6.878-1.953-43.004l-.022-38.75-2.75.123c-1.513.066-5.364.503-8.559.97Zm463.269 274.97c14.17 2.299 29.083 13.605 35.438 26.864 14.065 29.349-1.501 63.043-32.826 71.055-9.455 2.418-12.234 2.482-21.646.502-25.907-5.449-43.443-30.888-39.118-56.748 2.722-16.282 13.534-30.79 27.888-37.422 11.263-5.204 18.299-6.192 30.264-4.251Z"/></svg>
