<svg xmlns="http://www.w3.org/2000/svg" viewBox="-45 -53 389 389" fill="#fff" fill-rule="evenodd"><path d="M99.589.604c-5.38 1.371-9.084 3.882-14.747 10-7.041 7.604-7.753 10.648-7.753 33.148v16.951h-8v222h159V60.76l-3.25-.839-3.25-.839-.242-7.439c-.398-12.22-2.191-30.633-3.256-33.435-1.283-3.373-10.286-12.895-14.915-15.774-3.571-2.22-3.808-2.232-52.087-2.413-26.675-.1-49.85.163-51.5.583Zm90.708 28.315c3.125 2.048 3.476 3.638 4.318 19.534l.649 12.25h-93.335l.616-10.25c.925-15.374 1.449-18.359 3.736-21.267l2.09-2.657 39.654.337c35.427.301 39.934.52 42.272 2.053ZM19.974 62.083c-6.623 2.366-12.419 7.53-17.309 15.421L0 81.804l.294 90.2c.231 70.671.573 90.827 1.577 93.099 2.117 4.786 9.211 12.55 13.601 14.883 3.627 1.928 5.992 2.231 19.867 2.541l15.75.352V60.703l-13.75.044c-8.596.027-15.105.528-17.365 1.336Zm226.115 109.62v111l14.75-.022c12.112-.018 15.465-.348 18.75-1.845 5.825-2.656 10.337-6.814 14.674-13.523l3.826-5.92V83.013l-3.823-5.905c-4.443-6.862-9.867-11.905-15.612-14.515-3.334-1.514-6.627-1.85-18.315-1.868l-14.25-.022v111Z"/></svg>
