<svg xmlns="http://www.w3.org/2000/svg" width="560" height="480" viewBox="0 0 560 480">
<path d="M 473 161 L 473 162 L 473 163 L 473 164 L 473 165 L 473 166 L 473 167 L 473 168 L 473 169 L 473 170 L 473 171 L 473 172 L 473 173 L 473 174 L 473 175 L 473 176 L 473 177 L 473 178 L 473 179 L 473 180 L 473 181 L 472 182 L 472 183 L 472 184 L 472 185 L 472 186 L 472 187 L 472 188 L 472 189 L 472 190 L 472 191 L 472 192 L 472 193 L 472 194 L 472 195 L 472 196 L 472 197 L 472 198 L 472 199 L 471 200 L 471 201 L 471 202 L 471 203 L 471 204 L 471 205 L 471 206 L 471 207 L 471 208 L 471 209 L 471 210 L 470 211 L 470 212 L 470 213 L 470 214 L 470 215 L 469 216 L 469 217 L 469 218 L 469 219 L 468 220 L 468 221 L 468 222 L 467 223 L 467 224 L 466 225 L 466 226 L 465 227 L 464 228 L 464 229 L 463 230 L 462 231 L 461 232 L 460 233 L 459 233 L 458 234 L 457 235 L 456 235 L 455 236 L 454 236 L 453 237 L 452 237 L 451 238 L 450 238 L 449 238 L 448 238 L 447 239 L 446 239 L 445 239 L 444 239 L 443 240 L 442 240 L 441 240 L 440 240 L 439 240 L 438 240 L 437 240 L 436 241 L 435 241 L 434 241 L 433 241 L 432 241 L 431 241 L 430 241 L 429 241 L 428 241 L 427 241 L 426 241 L 425 242 L 424 242 L 423 242 L 422 242 L 421 242 L 420 242 L 419 242 L 418 242 L 417 242 L 416 242 L 415 242 L 414 242 L 413 242 L 412 242 L 411 242 L 410 242 L 409 242 L 408 242 L 407 242 L 406 242 L 405 242 L 404 243 L 403 243 L 402 243 L 401 243 L 400 243 L 399 243 L 398 243 L 397 243 L 396 243 L 395 243 L 394 243 L 393 243 L 392 243 L 391 243 L 390 243 L 389 243 L 388 243 L 389 243 L 390 243 L 391 243 L 392 243 L 393 243 L 394 243 L 395 243 L 396 243 L 397 243 L 398 243 L 399 243 L 400 243 L 401 243 L 402 243 L 403 243 L 404 243 L 405 243 L 406 243 L 407 243 L 408 243 L 409 243 L 410 244 L 411 244 L 412 244 L 413 244 L 414 244 L 415 244 L 416 244 L 417 244 L 418 244 L 419 244 L 420 244 L 421 244 L 422 244 L 423 244 L 424 244 L 425 244 L 426 244 L 427 244 L 428 244 L 429 245 L 430 245 L 431 245 L 432 245 L 433 245 L 434 245 L 435 245 L 436 245 L 437 245 L 438 245 L 439 245 L 440 246 L 441 246 L 442 246 L 443 246 L 444 246 L 445 247 L 446 247 L 447 247 L 448 247 L 449 248 L 450 248 L 451 248 L 452 248 L 453 249 L 454 249 L 455 250 L 456 250 L 457 251 L 458 252 L 459 253 L 460 253 L 461 254 L 462 255 L 463 256 L 464 257 L 464 258 L 465 259 L 466 260 L 466 261 L 467 262 L 467 263 L 468 264 L 468 265 L 469 266 L 469 267 L 469 268 L 469 269 L 470 270 L 470 271 L 470 272 L 470 273 L 470 274 L 470 275 L 471 276 L 471 277 L 471 278 L 471 279 L 471 280 L 471 281 L 471 282 L 471 283 L 471 284 L 471 285 L 472 286 L 472 287 L 472 288 L 472 289 L 472 290 L 472 291 L 472 292 L 472 293 L 472 294 L 472 295 L 472 296 L 472 297 L 472 298 L 472 299 L 472 300 L 471 301 L 472 302 L 473 303 L 473 304 L 473 305 L 473 306 L 473 307 L 473 308 L 473 309 L 473 310 L 473 311 L 473 312 L 473 313 L 473 314 L 473 315 L 473 316 L 473 317 L 473 318 L 473 319 L 473 320 L 473 321 L 473 322 L 473 321 L 473 320 L 473 319 L 473 318 L 473 317 L 473 316 L 473 315 L 473 314 L 474 313 L 474 312 L 474 311 L 474 310 L 474 309 L 474 308 L 474 307 L 474 306 L 474 305 L 474 304 L 474 303 L 474 302 L 474 301 L 474 300 L 474 299 L 474 298 L 474 297 L 474 296 L 474 295 L 474 294 L 475 293 L 475 292 L 475 291 L 475 290 L 475 289 L 475 288 L 475 287 L 475 286 L 475 285 L 475 284 L 475 283 L 475 282 L 476 281 L 476 280 L 476 279 L 476 278 L 476 277 L 476 276 L 476 275 L 476 274 L 477 273 L 477 272 L 477 271 L 477 270 L 477 269 L 478 268 L 478 267 L 478 266 L 479 265 L 479 264 L 479 263 L 480 262 L 480 261 L 481 260 L 482 259 L 482 258 L 483 257 L 484 256 L 485 255 L 486 254 L 487 253 L 488 252 L 489 252 L 490 251 L 491 250 L 492 250 L 493 249 L 494 249 L 495 248 L 496 248 L 497 248 L 498 247 L 499 247 L 500 247 L 501 247 L 502 246 L 503 246 L 504 246 L 505 246 L 506 246 L 507 246 L 508 245 L 509 245 L 510 245 L 511 245 L 512 245 L 513 245 L 514 245 L 515 245 L 516 245 L 517 244 L 518 244 L 519 244 L 520 244 L 521 244 L 522 244 L 523 244 L 524 244 L 525 244 L 526 244 L 527 244 L 528 244 L 529 244 L 530 244 L 531 244 L 532 244 L 533 244 L 534 244 L 535 243 L 536 243 L 537 243 L 538 243 L 539 243 L 540 243 L 541 243 L 542 243 L 543 243 L 544 243 L 545 243 L 546 243 L 547 243 L 548 243 L 549 243 L 550 243 L 551 243 L 552 243 L 553 243 L 554 243 L 555 243 L 554 243 L 553 243 L 552 243 L 551 243 L 550 243 L 549 243 L 548 243 L 547 243 L 546 243 L 545 243 L 544 243 L 543 243 L 542 242 L 541 242 L 540 242 L 539 242 L 538 242 L 537 242 L 536 242 L 535 242 L 534 242 L 533 242 L 532 242 L 531 242 L 530 242 L 529 242 L 528 242 L 527 242 L 526 242 L 525 242 L 524 242 L 523 242 L 522 242 L 521 241 L 520 241 L 519 241 L 518 241 L 517 241 L 516 241 L 515 241 L 514 241 L 513 241 L 512 241 L 511 241 L 510 240 L 509 240 L 508 240 L 507 240 L 506 240 L 505 240 L 504 240 L 503 240 L 502 239 L 501 239 L 500 239 L 499 239 L 498 238 L 497 238 L 496 238 L 495 237 L 494 237 L 493 237 L 492 236 L 491 236 L 490 235 L 489 235 L 488 234 L 487 233 L 486 232 L 485 231 L 484 230 L 483 229 L 482 228 L 481 227 L 481 226 L 480 225 L 480 224 L 479 223 L 479 222 L 479 221 L 478 220 L 478 219 L 478 218 L 477 217 L 477 216 L 477 215 L 477 214 L 477 213 L 476 212 L 476 211 L 476 210 L 476 209 L 476 208 L 476 207 L 476 206 L 476 205 L 475 204 L 475 203 L 475 202 L 475 201 L 475 200 L 475 199 L 475 198 L 475 197 L 475 196 L 475 195 L 475 194 L 475 193 L 475 192 L 475 191 L 474 190 L 474 189 L 474 188 L 474 187 L 474 186 L 474 185 L 474 184 L 474 183 L 474 182 L 474 181 L 474 180 L 474 179 L 474 178 L 474 177 L 474 176 L 474 175 L 474 174 L 474 173 L 474 172 L 474 171 L 473 170 L 473 169 L 473 168 L 473 167 L 473 166 L 473 165 L 473 164 L 473 163 L 473 162 Z" fill="currentColor"/>
</svg>
