<svg xmlns="http://www.w3.org/2000/svg" viewBox="-125 -89.5 597 597" fill="#fff" fill-rule="evenodd"><path d="M159.896.65C125.881 5.909 96.93 28.726 84.229 60.287c-2.06 5.122-4.507 12.805-5.434 17.074-2.216 10.195-2.24 30.192-.048 40.003 8.041 35.988 35.475 64.683 71.149 74.42 11.379 3.106 36.372 3.124 47.724.034 59.178-16.106 90.218-80.645 64.837-134.81-7.173-15.304-17.595-28.327-30.453-38.05-8.012-6.058-24.087-13.755-34.108-16.331-9.257-2.38-28.814-3.397-38-1.977Zm-9.593 217.486c-38.288 5.227-73.798 22.231-101.248 48.485-16.528 15.808-26.534 29.275-36.957 49.737-3.015 5.92-6.962 15.038-8.77 20.263C.398 345.077.032 347.33 0 357.121c-.03 8.942.41 12.374 2.348 18.346 4.842 14.908 17.113 28.918 31.62 36.099 12.963 6.416 5.771 6.12 141.526 5.824l123.401-.269 6.276-2.35c15.208-5.697 28.475-17.621 35.212-31.65 5.173-10.773 6.395-17.051 5.769-29.645-.412-8.284-1.162-12.155-3.752-19.355-15.415-42.866-48.477-79.026-91.231-99.78-30.435-14.774-67.602-20.745-100.867-16.205Z"/></svg>
