<svg xmlns="http://www.w3.org/2000/svg" viewBox="-113 -133.5 977 977" fill="#fff" fill-rule="evenodd"><path d="M159.888.864c-8.33 2.543-15.897 8.954-20.144 17.065-2.258 4.313-2.369 5.517-2.667 29-.182 14.336-.721 24.915-1.298 25.5-.599.607-14.831 1.223-36.189 1.567-33.097.533-35.621.703-42.202 2.85-29.716 9.691-49.991 32.129-56.049 62.028-1.357 6.699-1.529 14.965-1.188 57.193.367 45.306.568 50.102 2.449 58.362 4.62 20.288 14.155 42.023 25.438 57.982 8.22 11.628 25.847 29.21 37.867 37.772 17.701 12.608 42.277 23.386 63.224 27.728 9.941 2.06 31.945 3.998 45.759 4.029 4.675.011 8.95.35 9.5.754.55.404 4.375 5.233 8.5 10.73 9.039 12.045 27.526 31.352 38.5 40.206 18.538 14.958 41.74 27.79 62.64 34.645 13.067 4.285 15.813 5.676 20.269 10.263 6.56 6.754 6.707 8.054 6.382 56.187l-.291 43.035-3.006 4.334c-1.968 2.838-4.879 5.285-8.43 7.085l-5.423 2.75-23.07.017c-26.647.02-32.907.97-45.071 6.838-15.709 7.578-26.739 18.482-34.031 33.643-5.494 11.422-6.832 18.717-6.88 37.502-.038 15.085.154 16.929 2.234 21.5 2.864 6.293 8.234 11.904 14.677 15.336l5 2.664h157c131.328 0 157.785-.228 161.803-1.395 5.738-1.666 13.823-8.56 16.997-14.492 1.999-3.737 2.229-5.819 2.527-22.788.37-21.152-.464-26.209-6.395-38.765-6.916-14.642-19.142-26.747-33.932-33.593-11.718-5.425-18.658-6.467-43.081-6.467-25.025 0-28.041-.585-34.069-6.604-6.318-6.308-6.546-8.374-6.172-55.896.356-45.383.142-43.851 7.184-51.335 4.052-4.307 6.614-5.596 19.498-9.81 20.588-6.735 44.287-19.845 62.64-34.654 10.974-8.854 29.461-28.161 38.5-40.206 4.125-5.497 7.864-10.263 8.308-10.59.444-.327 9.087-.894 19.206-1.259 30.555-1.104 51.065-5.841 73.986-17.087 43.478-21.333 73.642-57.571 85.503-102.721 4.591-17.477 5.203-27.372 4.749-76.838-.441-48.157-.444-48.185-6.443-62.448-7.606-18.086-24.589-34.902-42.98-42.559-13.056-5.435-17.632-5.957-52.457-5.976-24.364-.013-31.87-.309-32.683-1.29-.658-.792-1.176-10.504-1.373-25.75-.315-24.369-.328-24.499-3.011-29.585-3.661-6.94-11.677-13.979-18.084-15.882-4.468-1.327-30.88-1.5-218.153-1.424-117.187.047-214.193.43-215.568.85ZM136.953 196.43c.557 56.217.602 57.206 3.249 72 1.477 8.25 4.498 21.659 6.715 29.797 2.217 8.139 3.739 15.269 3.383 15.846-1.644 2.659-23.03-3.591-35.412-10.349-21.429-11.696-38.781-31.905-45.478-52.966-3.816-11.997-4.522-21.581-4.522-61.34 0-36.451.037-37.138 2.25-41.518 1.238-2.45 3.789-5.476 5.669-6.726 3.391-2.254 3.673-2.271 33.5-2.008l30.081.264.565 57Zm541.562-54.77c6.559 4.679 6.524 4.365 6.129 54.539l-.357 45.231-2.562 7.656c-9.009 26.921-29.636 48.751-56.24 59.519-10.183 4.122-22.363 6.959-23.781 5.541-.695-.695-.196-3.848 1.561-9.869 3.694-12.658 7.262-28.209 9.257-40.347 1.452-8.838 1.781-19.366 2.074-66.5.191-30.8.553-56.581.805-57.292.362-1.026 6.588-1.232 30.222-1 28.953.284 29.85.353 32.892 2.522Z"/></svg>
