<svg xmlns="http://www.w3.org/2000/svg" viewBox="-257.5 -135 1168 1168" fill="#fff" fill-rule="evenodd"><path d="M211.356.252c-54.241 5.07-103.072 27.953-141.527 66.325-41.88 41.788-66.108 96.151-69.528 156-1.194 20.892 2.022 46.252 8.569 67.568 6.994 22.772 35.117 81.609 53.11 111.111l3.768 6.18-10.196 15.32c-29.75 44.702-46.6 90.139-53.26 143.625-7.59 60.938 3.818 126.229 32.08 183.615 24.739 50.228 59.934 91.94 100.484 119.09 22.778 15.251 50.46 24.9 78.567 27.386 15.166 1.342 211.68 1.45 226.744.125 25.052-2.203 49.938-9.927 71.216-22.101 18.268-10.452 44.686-33.616 63.92-56.047 42.465-49.523 70.49-116.883 76.68-184.309 1.68-18.294.567-58.742-2.094-76.063-5.853-38.114-13.149-62.189-28.544-94.196-8.255-17.164-14.86-28.69-25.855-45.122l-7.574-11.317 2.325-3.683c4.012-6.356 21.042-38.025 28.965-53.865 19.73-39.441 28.477-63.85 32.185-89.817 1.917-13.418 1.875-43.263-.08-58.199-9.057-69.181-46.415-129.33-103.407-166.492-20.309-13.243-40.857-22.255-64.635-28.349C455.117-.178 463.173.197 332.856.03c-64.625-.083-119.3.018-121.5.223Zm230.058 117.802c24.825 4.027 46.118 15.155 64.264 33.586 23.308 23.675 34.188 52.24 32.88 86.327-.919 23.985-5.261 38.56-20.436 68.61-5.693 11.275-10.963 21.115-11.711 21.866-1.147 1.154-2.811.513-10.707-4.126-41.259-24.24-85.525-38.757-134.848-44.224-15.583-1.728-49.394-1.985-65.5-.5-47.755 4.406-95.198 19.689-137.318 44.235-5.743 3.346-10.676 5.622-11.126 5.131-1.798-1.964-15.403-28.293-19.509-37.755-4.811-11.085-8.726-23.835-11.049-35.974-1.974-10.319-1.948-32.062.053-42.606 9.42-49.659 50.229-88.562 99.625-94.973 3.478-.451 53.574-.876 111.324-.943 88.005-.103 106.466.115 114.058 1.346Z"/></svg>
