<svg xmlns="http://www.w3.org/2000/svg" width="512" height="512" fill="none" viewBox="0 0 512 512">
  <path fill="#fff" d="M299.358 206.506s-29.047-.627-34.229-.04c-5.243.587-21.254 6.477-21.254 6.477h-5.83v11.619h6.012s27.529 4.757 52.447 4.028c2.752-.081 5.02-2.368 5.02-5.121v-14.595a2.363 2.363 0 0 0-2.166-2.368Zm-124.244 6.538h-13.239s-7.469-3.016-10.303-3.401c-2.368-.324-19.068-.101-24.432-.02-.931 0-1.66.769-1.66 1.7l.122 14.169c0 1.579 1.275 2.834 2.854 2.855 6.316.081 21.072-.223 22.934-.587 2.368-.466 10.485-3.442 10.485-3.442l11.457-.668 1.782-.101v-10.505Zm40.098-1.619-.871-3.745a2.142 2.142 0 0 0-2.085-1.66l-9.169-.02a2.146 2.146 0 0 0-2.105 1.7l-.81 3.765h15.06l-.02-.04Zm22.833 16.963v2.085h3.299s-1.012-1.68-3.299-2.085Zm-62.933 0v2.085h-3.3s1.013-1.68 3.3-2.085Zm42.792-15.121h-2.166l-18.197-.203-10.061.142v12.307l38.399-.202v-12.145l-7.995.101h.02Zm-10.222 11.7a5.737 5.737 0 0 1-5.729-5.729 5.737 5.737 0 0 1 5.729-5.728 5.736 5.736 0 0 1 5.728 5.728 5.736 5.736 0 0 1-5.728 5.729Z"/>
  <path fill="#fff" d="M207.682 215.595a3.62 3.62 0 0 0-3.623 3.623 3.62 3.62 0 0 0 3.623 3.623 3.62 3.62 0 0 0 3.623-3.623 3.62 3.62 0 0 0-3.623-3.623Z"/>
  <path fill="#A1A1A1" d="M171.024 241.626h-.061v16.254h.87c3.239-.182 6.68-.243 10.344-.182l22.509-.344 27.812-.587h9.21v-1.559l.061-15.546-70.745 1.964Zm213.29 3.117-.061-.182c-.122-.465-.344-.972-.607-1.498l-.324-.445-4.737-3.441-134.71.486-.061 15.464 138.84-5.364c.263-.222.445-.445.647-.647.648-.79 1.478-2.268 1.013-4.352v-.021Zm-130.682 2.814-6.154.101s-1.437-.87-.04-2.065l6.032-.101s1.457 1.012.162 2.065Zm17.084-.283-6.154.101s-1.437-.871-.04-2.065l6.032-.101s1.457 1.012.162 2.065Zm17.084-.284-6.153.101s-1.438-.87-.041-2.064l6.032-.102s1.458 1.013.162 2.065Zm17.084-.283-6.153.101s-1.437-.87-.041-2.065l6.032-.101s1.458 1.012.162 2.065Zm17.084-.284-6.153.102s-1.437-.871-.041-2.065l6.033-.101s1.457 1.012.161 2.064Zm17.085-.303-6.154.101s-1.437-.87-.04-2.065l6.032-.101s1.457 1.012.162 2.065Zm17.084-.284-6.154.102s-1.437-.871-.04-2.065l6.032-.101s1.457 1.012.162 2.064Z"/>
  <path fill="#fff" d="M142.098 264.378s7.509-1.782 8.076 4.756c0 0 1.215 8.117 14.676 6.316 13.46-1.822 14.027-10.162 13.946-11.943-.081-1.781-.141-4.534 3.421-4.494 3.542.041-25.687-1.538-40.099 5.385l-.02-.02Zm32.427 5.404c-5.627 4.818-19.007 5.648-21.396.85 0 0-4.574-5.728 1.519-8.461 0 0 3.481.02 2.773.527-1.134.789-2.065 7.955 3.967 8.542 0 0-5.02-4.474-1.801-8.623 0 0 .688-.932 2.712-.911l1.761-1.357 11.032-.485s5.06 5.08-.567 9.918Zm-66.251 16.174 7.834 2.773a1.83 1.83 0 0 0 2.348-1.154c1.68-5.081 7.327-19.635 18.744-26.962 1.538-.972 2.854-2.247 4.008-3.664 1.437-1.741 3.056-3.947 3.461-5.405 0 0 .587-2.408-10.263 1.579 0 0-12.428 5.263-18.946 15.748-4.372 7.004-6.963 11.984-8.218 14.514a1.88 1.88 0 0 0 1.052 2.591l-.02-.02Zm-94.004-39.29c.02-.486.061-.951.102-1.417-2.51-.061-4.717-.121-6.498-.162-2.935-.061-3.117 2.429-3.32 5.364-.85 12.166-1.943 42.205 7.004 53.844 0 0-.567 2.631 8.36 1.356l.182-.061c-7.672-14.837-6.66-46.111-5.85-58.944l.02.02Zm87.142 47.65c2.307 1.295 9.635 4.878 18.886 4.352.506-.02.91-.486.89-.992 0-.506-.02-1.255 0-2.125-10.161 1.133-17.975-3.219-20.1-4.555-.061.648-.121 1.296-.263 2.004-.101.526.121 1.053.587 1.316Zm125.966-19.108c-.971-5.324-1.113-10.809-.648-16.214l-8.177.162c.465 5.526.85 10.991 1.579 16.457l7.246-.425v.02Zm4.857-16.316-4.292.081c.446 5.384.749 10.748 1.114 16.132l1.275-.081c1.356-.081 2.409-1.234 2.328-2.591-.182-3.339-.466-9.392-.405-13.541h-.02Zm-33.845 18.035 20.06-1.194c-1.336-5.364-1.579-11.012-1.093-16.538l-12.631.263-7.652.122c.365 5.749.668 11.599 1.296 17.327l.02.02Zm-5.767-17.266c.304 5.83.668 11.741 1.538 17.51l3.077-.183c-1.235-5.667-1.457-11.578-1.093-17.387l-3.522.06Zm-1.275.021-6.012.101c.101 3.643-.526 10.93.324 15.465.263 1.396 1.558 2.348 2.955 2.267l3.785-.223c-1.396-5.688-1.619-11.74-1.052-17.59v-.02Z"/>
  <path fill="#A1A1A1" d="M227.66 213.368v17.105h8.502v-17.105a.96.96 0 0 0-.972-.972h-6.558a.96.96 0 0 0-.972.972Zm4.251 6.66c-.992 0-1.802-.81-1.802-1.802s.81-1.801 1.802-1.801 1.802.809 1.802 1.801c0 .992-.81 1.802-1.802 1.802Zm-54.674-6.62v17.044h8.502v-17.044c0-.566-.466-1.032-1.033-1.032h-6.457c-.567 0-1.032.466-1.032 1.032h.02Zm4.251 6.619a1.805 1.805 0 0 1-1.802-1.801c0-.992.81-1.802 1.802-1.802s1.801.81 1.801 1.802-.809 1.801-1.801 1.801Zm-14.594 25.992-.628.465c-1.74 1.235-4.898 2.854-5.323 5.243.121.405.202.81.202 1.235a4.432 4.432 0 0 1-4.433 4.433 4.432 4.432 0 0 1-4.433-4.433 4.431 4.431 0 0 1 4.433-4.433c.405 0 .79.081 1.174.182.081-.061.425-.243.931-1.032 1.093-1.64 3.28-4.838 3.401-4.98.162-.162.769-.992.628-1.275l-4.413.243-3.704.081a45.375 45.375 0 0 1-1.741-.223c-5.081.547-17.773 3.198-33.885 15.688 0 0-10.486 4.25-16.922.465 0 0-9.17-8.137-11.053-9.453-.951-.668-23.035-1.457-44.896-2.105-10.87-.324-21.68-.587-29.796-.789-.04.485-.081.971-.102 1.477-.81 12.935-1.821 43.966 5.77 58.175 4.028-1.315 13.42-4.392 24.148-8.096 13.32-4.615 28.703-10.182 38.48-14.554 0 0 15.526-5 16.477 6.052l.668.648c.891.587 7.287 4.696 16.031 4.696 1.175 0 2.328-.101 3.502-.243.668-7.287 4.089-20.768 19.514-29.411 6.74-3.786 15.667-5.284 28.014-6.053v-13.805c-.607.688-1.336 1.356-1.963 1.802h-.081Zm-19.675 5.222c-.466 1.073-1.296 2.389-2.288 3.745-1.7 2.348-3.623 4.595-6.072 6.153-11.983 7.632-17.833 22.854-19.412 27.55-.405 1.194-1.174 1.882-2.429 1.882-.344 0-.668-.061-.992-.162l-8.319-2.996a2.889 2.889 0 0 1-1.761-1.68c-.324-.789-.345-1.153.04-1.902 1.255-2.49 4.048-7.794 8.744-15.283 7.004-11.113 19.999-16.639 20.546-16.862 4.089-1.477 7.004-2.307 8.826-2.469 1.072-.101 2.773-.304 3.198.344.303.445 0 1.316-.061 1.7l-.02-.02Z"/>
  <path fill="#fff" d="m154.648 239.602 4.109-.101h4.251v-1.559c0-.324.041-1.943.041-1.943.02-1.154.04-2.146-.203-3.097l-.061-.223a2.335 2.335 0 0 1-.141-.648h-1.073l-7.186 4.008s-1.255.101-2.085.587c-.83.486-.142 2.126-.142 2.126.587.89 2.47.85 2.47.85h.02Z"/>
  <path fill="#fff" d="M169.121 234.46c.162-2.247-1.66-3.017-1.66-3.017-3.401-.607-2.712.608-2.712.608l.101.364c.405 1.559.263 3.016.243 4.615 0 .81-.061 1.741-.041 2.409.081 1.721-1.619 3.482-1.619 3.482s-2.976 3.481-4.069 5.101c-1.093 1.619-2.085 1.194-2.085 1.194s-.566-.122-.769-.101h-.04a3.43 3.43 0 0 0-3.421 3.421c0 1.882 1.741 3.825 3.643 3.825a3.416 3.416 0 0 0 3.421-3.421c0-.425-.081-.83-.222-1.214.121-.931.708-1.68 1.315-2.51 1.478-2.024 3.826-3.765 5.081-4.717.972-.708 2.146-1.862 2.551-2.712.344-.729-.243-1.295-.243-1.295s.344-3.786.506-6.032h.02Zm-17.792 4.838c-.567-1.276-.709-2.834.485-3.543.81-.465 1.822-.648 2.288-.708l3.097-1.721-5.263 1.134s-2.753-.547-3.138 2.206c0 0-.303 2.045 1.518 2.49.466.101.81.182 1.073.243-.02-.02-.06-.041-.081-.081l.021-.02Zm355.772-5.081-265.513-2.065h-2.955v5.506l3.158-.081 137.503-.486 4.757 3.441 123.05.365c.85 0 1.559-.688 1.559-1.539v-3.582c0-.851-.688-1.539-1.538-1.539l-.021-.02Zm-278.894-2.084v5.789l8.684-.243v-5.546h-8.684Zm-1.274 0-53.985-.081h-3.401c.384.607.648 1.417.567 2.49-.102 1.497-.183 3.684-.304 4.979h1.134l55.968-1.559v-5.85l.021.021Zm-38.743 3.846v-2.328h37.71v2.328h-37.71Z"/>
</svg>
