<svg xmlns="http://www.w3.org/2000/svg" width="512" height="512" fill="none" viewBox="0 0 512 512">
  <path fill="#fff" d="M343.107 243.629h161.676s1.214-.837 1.214-4.78c0-3.942-1.214-4.78-1.214-4.78H343.107v9.56Zm141.975-11.205h7.95v-3.155c0-.707.572-1.279 1.279-1.279s1.279-.572 1.279-1.279v-3.401a1.94 1.94 0 0 0-1.941-1.941h-6.636a1.94 1.94 0 0 0-1.941 1.941v9.114h.01Zm-144.091 2.146h-156.6v4.74h156.6v-4.74Z"/>
  <path fill="#A1A1A1" d="M125.166 216.484v6.149h3.521s-.191 4.484 1.219 6.15c1.409 1.665 3.711 1.574 3.711 1.574v2.368h24.076v-1.645a3.093 3.093 0 0 0-3.095-3.095h-.09a3.093 3.093 0 0 1-3.095-3.095 3.093 3.093 0 0 0-3.095-3.094h-1.75a3.094 3.094 0 0 1-3.095-3.095v-4.604a2.087 2.087 0 0 0-2.086-2.097h-5.477a2.096 2.096 0 0 0-2.097 2.097 2.096 2.096 0 0 1-2.001 2.091l-6.641.296h-.005Z"/>
  <path fill="#fff" d="m138.859 263.747 3.677-.035s-1.224 2.127-.833 3.922c.276 1.259 1.615 2.423 2.252 2.919a.464.464 0 0 1 .111.617.466.466 0 0 1-.552.196c-.943-.331-3.481-1.379-4.203-3.255-.973-2.538-.462-4.369-.462-4.369l.01.005Zm14.084-.386 3.677-.035s-1.224 2.127-.833 3.922c.276 1.259 1.615 2.423 2.252 2.92a.463.463 0 0 1 .111.617.467.467 0 0 1-.552.195c-.943-.331-3.481-1.379-4.203-3.255-.973-2.538-.462-4.369-.462-4.369l.01.005Z"/>
  <path fill="#fff" d="M161.008 276.708h-22.816c-3.391 0-6.15-2.623-6.15-5.848v-1.961c0-1.39-.19-2.774-.556-4.118l-.191-.688 3.606-.441a15.466 15.466 0 0 0-.903 5.206v2.002c0 2.202 1.881 3.992 4.199 3.992h22.816c2.312 0 4.198-1.79 4.198-3.992l.035-1.345a11.4 11.4 0 0 0-1.63-6.184l-.401-.667 5.632-.256-.531 1.094a11.372 11.372 0 0 0-1.149 4.985v2.373c0 3.225-2.758 5.848-6.149 5.848h-.01Zm-29.719-40.056v2.653h20.279c1.028 0 2.006.833 2.006 1.861v.792c0 .888.722 1.61 1.61 1.61h26.102c.887 0 1.61-.722 1.61-1.61v-7.388h-49.52a2.083 2.083 0 0 0-2.082 2.082h-.005Zm25.672 8.421-8.692 7.062-.241-.14a2.664 2.664 0 0 0-1.354-.366c-.602 0-1.199.201-1.68.592a2.667 2.667 0 0 0 3.365 4.138 2.685 2.685 0 0 0 .843-2.929l-.09-.266 9.961-8.096h-2.107l-.005.005Z"/>
  <path fill="#A1A1A1" d="M184.396 240.881v1.58a2.612 2.612 0 0 1-2.613 2.613h-21.437l-10.307 8.376a3.486 3.486 0 0 1-1.179 3.536 3.464 3.464 0 0 1-2.187.778 3.487 3.487 0 0 1-3.065-1.821 3.467 3.467 0 0 1-.025-3.255 3.477 3.477 0 0 1 4.595-1.52l7.498-6.094h-.642a2.618 2.618 0 0 1-2.613-2.613s-.02-.326-.06-.657a.788.788 0 0 0-.788-.692c-11.415 0-18.819.04-19.922.13-6.149.512-19.722 9.219-26.638 9.73-4.229.311-7.594-1.574-9.575-3.089a7.882 7.882 0 0 0-5.116-1.645l-80.969 3.305a3.495 3.495 0 0 0-3.335 3.842l4.338 43.366a3.49 3.49 0 0 0 4.444 3.009c14.907-4.288 66.288-19.024 70.225-19.681 3.024-.502 3.742 2.006 3.882 3.796a3.921 3.921 0 0 0 1.81 3.005 24.68 24.68 0 0 0 5.343 2.518c2.994.998 6.901 1.023 9.279.918a2.937 2.937 0 0 0 2.683-2.092c1.485-4.92 5.718-17.745 10.448-21.241 5.888-4.354 16.266-4.866 23.177-5.121 6.36-.236 154.238-4.7 177.897-5.412a6.067 6.067 0 0 0 4.91-2.769 5.752 5.752 0 0 1 4.65-2.829l7.614-.406a4.524 4.524 0 0 0 4.278-4.514v-5.051s-94.541.18-156.595 0h-.005Z"/>
</svg>
