<svg xmlns="http://www.w3.org/2000/svg" width="512" height="512" fill="none" viewBox="0 0 512 512">
  <path fill="#fff" d="M447.879 237.245h56.985s1.136-.762 1.136-4.347c0-3.585-1.136-4.346-1.136-4.346h-56.985v8.693Zm40.06-10.084h6.368l-2.436-9.004h-3.932v9.004Zm-41.679 1.463H282.297v8.616H446.26v-8.616Zm-308.004 35.668s-.561 7.954 1.67 10.713c2.95 3.649 23.069-1.236 35.014-3.648 15.795-3.193 33.15-8.616 35.517-12.539-46.23 1.902-72.201 5.474-72.201 5.474Zm20.94 8.333-14.413 1.92a3.272 3.272 0 0 1-3.59-2.887l-.46-4.27a1.78 1.78 0 0 1 1.573-1.956l17.633-1.911a1.503 1.503 0 0 1 1.651 1.327l.493 4.187a3.27 3.27 0 0 1-2.887 3.59Z"/>
  <path fill="#A1A1A1" d="M174.324 215.836v4.046h-8.857v-4.046h-9.656l-12.711-2.28h-11.763a.457.457 0 0 0-.456.456v12.848c0 .251.205.456.456.456H143.1l12.711-2.28h20.406v-3.69h6.755v3.69h5.824v-3.69h6.755v3.69h2.814l8.087 1.998h14.566c.25 0 .456-.206.456-.457v-12.77a.458.458 0 0 0-.456-.456h-14.566l-8.087 2.485h-24.041Z"/>
  <path fill="#fff" d="M173.599 212h-7.343v7.129h7.343V212Zm8.552 10.193h-5.067v6.659h5.067v-6.659Zm12.516 0H189.6v6.659h5.067v-6.659Zm-50.134 44.056 3.169-.365s-.706 1.569-.164 3.151c.383 1.104 1.715 2.021 2.345 2.4.187.114.26.351.164.547a.43.43 0 0 1-.479.237c-.889-.201-3.289-.88-4.137-2.495-1.149-2.189-.903-3.471-.903-3.471l.005-.004Zm114.895-22.331h-47.931a2.514 2.514 0 0 0-2.509 2.509 2.514 2.514 0 0 0 2.509 2.508h47.931a2.514 2.514 0 0 0 2.509-2.508 2.514 2.514 0 0 0-2.509-2.509Zm21.528-15.294s-130.094 1.875-134.723 2.098c-4.63.219-7.571 3.726-7.571 3.726l-.297-1.509a1.095 1.095 0 0 0-2.166.196l-.092 5.993a.414.414 0 0 0 .634.356c1.36-.885 4.657-2.805 8.028-3.052.625-.045 3.822-.063 8.839-.054v3.179c0 .989.803 1.792 1.793 1.792h23.635c.989 0 1.792-.803 1.792-1.792v-3.056c40.36.242 100.123.748 100.123.748v-8.616l.005-.009ZM159.428 242.75l-10.258 8.338-.274-.16a3.023 3.023 0 0 0-1.532-.415c-.68 0-1.355.228-1.902.67a3.024 3.024 0 0 0-.438 4.247 3.024 3.024 0 0 0 4.246.437 3.035 3.035 0 0 0 .954-3.311l-.101-.301 11.695-9.505h-2.39Z"/>
  <path fill="#A1A1A1" d="M182.205 238.7v2.13a1.915 1.915 0 0 1-1.915 1.915h-17.031l-12.082 9.82a3.949 3.949 0 0 1-1.332 4.005 3.901 3.901 0 0 1-2.477.88 3.928 3.928 0 0 1-2.485-6.978 3.945 3.945 0 0 1 4.191-.484l8.908-7.238h-3.818a1.915 1.915 0 0 1-1.915-1.916v-2.212c-3.895-.009-5.4-.014-6.062-.014-7.95.023-22.358 12.589-33.897 13.638-5.724.52-7.102-1.163-12.808-2.796-6.526-1.866-89.956 1.423-92.898 4.917-2.24 2.654 2.66 11.826 2.997 23.379.273 9.314-2.942 19.097.35 21.077 3.96 2.381 74.08-19.749 79.905-21.382 5.824-1.633 16.141 6.394 20.515 5.582 4.055-.752 5.501-14.253 17.779-18.476 14.44-4.967 88.333-7.827 88.333-7.827s221.646-10.673 224.812-11.516c3.165-.844 4.533-5.656 4.533-5.656s-183.835-.611-263.598-.853l-.005.005Zm77.223 11.138h-47.932a3.425 3.425 0 0 1-3.421-3.421 3.423 3.423 0 0 1 3.421-3.421h47.932a3.425 3.425 0 0 1 3.42 3.421 3.422 3.422 0 0 1-3.42 3.421Zm85.856-5.893c0 .584-.474 1.058-1.058 1.058H333.95a1.058 1.058 0 0 1-1.058-1.058v-.142c0-.583.474-1.058 1.058-1.058h10.276c.584 0 1.058.475 1.058 1.058v.142Zm17.665 0c0 .584-.475 1.058-1.058 1.058h-10.276a1.058 1.058 0 0 1-1.058-1.058v-.142c0-.583.474-1.058 1.058-1.058h10.276a1.06 1.06 0 0 1 1.058 1.058v.142Zm16.652 0c0 .584-.474 1.058-1.058 1.058h-10.276a1.058 1.058 0 0 1-1.058-1.058v-.142c0-.583.474-1.058 1.058-1.058h10.276c.584 0 1.058.475 1.058 1.058v.142Z"/>
</svg>
