<svg xmlns="http://www.w3.org/2000/svg" width="512" height="512" fill="none" viewBox="0 0 512 512">
  <path fill="#fff" d="M115.234 261.192a3.321 3.321 0 0 0 3.349-3.349 3.322 3.322 0 0 0-3.349-3.349 3.321 3.321 0 0 0-3.349 3.349 3.32 3.32 0 0 0 3.349 3.349Z"/>
  <path fill="#fff" d="M119.469 257.843c0 .985-.295 1.872-.886 2.561l14.579-3.053c.788-.197.985-.985.886-1.576-.098-.591-.394-1.182-1.182-1.281h-15.071c1.083.788 1.674 2.069 1.674 3.349Zm221.438-7.979h-2.561v6.009h2.561v-6.009Zm-156.72 4.335a3.44 3.44 0 0 1-.985-2.364 7.19 7.19 0 0 1 .788-3.251h-10.048v-6.797c0-.788-.689-1.477-1.477-1.477-.788 0-1.478.689-1.478 1.477v6.797h-13.692v-6.797c0-.788-.689-1.477-1.478-1.477-.788 0-1.477.689-1.477 1.477v6.797h-17.829v-6.797c0-.788-.69-1.477-1.478-1.477s-1.477.689-1.477 1.477v6.797h-17.239v.788a1.87 1.87 0 0 1-1.871 1.872h-.296a1.87 1.87 0 0 1-1.871-1.872v-.69h-8.866c-.788 1.675-.788 3.153-.591 4.138l.099.295c0 .197.098.394.098.493h29.946l51.222.591Zm-6.797 10.835c-.69 0-1.281.591-1.281 1.281 0 .689.591 1.28 1.281 1.28.689 0 1.28-.591 1.28-1.28 0-.69-.591-1.281-1.28-1.281Zm188.735-17.435h1.675v3.349h-1.084v4.925h9.161v-5.22h-1.576l-4.925-7.191h-3.251v4.137ZM204.578 235.68h-11.82v5.614h11.82v-5.614Zm21.965-18.815h-22.064v14.973h22.064v-14.973Zm276.797 34.772h-1.182v4.925h1.182v-4.925Z"/>
  <path fill="#fff" d="M229.991 254.1c0-.099 0-.099-.099-.197l-13.495-7.88c-.689-.394-1.576-.69-2.462-.69h-23.444a6.39 6.39 0 0 0-6.403 6.403c0 1.28 1.083 2.364 2.364 2.364h43.539Zm-26.595-21.277h-9.457v1.872h9.457v-1.872Z"/>
  <path fill="#fff" d="M174.928 242.279v5.418h9.653c1.379-1.872 3.546-3.152 6.009-3.152h23.444c.985 0 2.068.295 2.955.788l13.889 8.274v-11.328h-55.95Zm12.806-4.235h-8.865v3.152h8.865v-3.152Zm-17.83 4.235h-11.722v5.418h11.722v-5.418Zm16.647-9.358h-6.403v4.137h6.403v-4.137Zm185.582 23.936h-3.842v4.335h3.842v-4.335Zm4.926-6.205v5.221h80.674v-5.221h-80.674Zm94.169 0h-12.412v5.221h13.594v-5.221h-1.182Zm-104.021 6.205h-28.861v3.448h28.861v-3.448Zm-2.364-14.183h-18.322v5.812h18.322v-5.812Zm-19.602.984h-6.895v4.137h6.895v-4.137Zm112.492 13.199h-84.516v3.645h84.516v-3.645Zm1.971 0h-.985v4.335h.985v-4.335Zm-94.072-5.91h-23.739v4.925h23.739v-4.925Zm133.177-1.575h-2.758v9.358h2.758v-9.358Zm2.365 1.575h-1.379v6.305h1.379v-6.305Zm-28.765 5.91h-11.721v3.645h11.721v-3.645Zm4.729-7.485h-3.743v11.131h3.743v-11.131Zm17.829 1.675h-16.844v6.009h16.844v-6.009Zm-157.902-7.881h-2.758v17.928h2.758v-17.928ZM98.686 230.262v.493c0 .492.394.985.985.985a.987.987 0 0 0 .985-.985v-13.988c0-.492-.493-.985-.985-.985a.987.987 0 0 0-.986.985v13.495Zm-2.956.493c0 .492.493.985.986.985a.987.987 0 0 0 .985-.985v-13.988c0-.492-.493-.985-.985-.985a.987.987 0 0 0-.985.985v13.988Zm-2.758 4.727c.985.197 1.872-.492 1.872-1.477v-20.588c0-.985-.985-1.773-1.97-1.379-1.478.493-3.152 1.379-3.152 2.266 0 1.28-.099 17.435 0 19.208 0 1.084 1.773 1.675 3.25 1.97Zm93.579 19.701h-7.88l-44.031-.69c.295.394.394.788.394 1.182.098.985-.394 2.167-1.675 2.561l-16.548 3.448c-.591.295-1.182.394-1.773.394-2.365 0-4.335-1.97-4.335-4.334 0-1.379.591-2.561 1.576-3.349h-8.865c.69 1.674 2.463 4.826 6.6 7.683 2.856 1.97 8.373 3.053 15.268 2.856 1.379 0 2.66.591 3.546 1.577a4.348 4.348 0 0 1 .887 3.743c-.591 2.561-1.478 7.289-1.478 7.289-.098 7.782 6.6 8.176 7.388 8.274.788.099 9.062 0 9.85 0 2.364 0 3.94-.886 5.122-2.167 1.774-1.97 3.448-14.086 3.448-14.086h20.784c-.394-.197-3.546-2.462-3.546-2.462a4.305 4.305 0 0 0-2.462-.788h-26.695c-3.251 0-4.236-.099-5.024 1.379-.295.492-.591 1.182-.886 2.068h15.958s-1.38 11.525-3.054 13.101c-1.281 1.182-2.857 1.576-4.433 1.576-.689 0-7.88.099-8.57 0-.689-.098-7.289-.886-6.304-6.698.69-3.94 1.97-7.88 1.97-7.88h3.152c.296-.985.887-1.576 1.478-2.857.886-1.675 1.674-1.773 5.713-1.773 9.161 0 26.695.098 26.695.098 1.083 0 2.167.394 3.053.986l2.463 1.871c1.675 1.281 3.842 1.379 5.615.296.295-.197.492-.394.689-.591l1.773-2.365c.887-1.182 2.266-1.97 3.743-1.97l44.721-.098v-8.471l-44.327.197Zm-9.16 13.101a1.977 1.977 0 0 1-1.971-1.97c0-1.084.887-1.971 1.971-1.971 1.083 0 1.97.887 1.97 1.971 0 1.083-.887 1.97-1.97 1.97Zm-77.228-15.76v-4.137a2.753 2.753 0 0 0-2.758-2.758h-46.1a2.753 2.753 0 0 0-2.758 2.758v3.349l51.616.788Z"/>
  <path fill="#fff" d="M187.143 265.625c-1.182 0-2.167.591-2.857 1.576l-1.674 2.364c-.394.591-1.084 1.084-1.773 1.379 0 0-.099 0-.099.099v30.142c0 2.364 2.167 4.137 4.433 3.645l26.99-5.418c.788-.197 1.379-.887 1.379-1.675v-20.292c0-2.462.591-4.925 1.576-7.289.788-1.674.985-3.447.985-4.531h-28.96Zm23.936 31.423-27.187 5.22h-.098c-.197 0-.394-.197-.493-.394-.098-.295.099-.492.394-.591l27.187-5.22c.296 0 .493.098.591.394 0 .295-.197.492-.394.591Zm0-2.069-27.187 5.221h-.098c-.197 0-.394-.197-.493-.394-.098-.296.099-.493.394-.591l27.187-5.221c.296 0 .493.099.591.394 0 .296-.197.591-.394.591Zm0-1.97-27.187 5.221h-.098c-.197 0-.394-.197-.493-.394-.098-.296.099-.493.394-.591l27.187-5.221c.296 0 .493.099.591.394 0 .296-.197.591-.394.591Zm-69.052-22.065h-3.842c-.886 1.872-1.477 5.418-.492 8.078 1.083 2.955 3.053 3.546 3.841 3.743.197 0 .296-.197.197-.296-1.379-1.97-2.068-3.447-2.167-6.796 0-2.168 1.379-3.842 2.463-4.729Zm96.14-28.763s-.788-2.758-3.054-2.758c-2.364 0-3.152 2.758-3.152 2.758v21.375c1.675.985 4.63.985 6.304 0l-.098-21.375Z"/>
  <path fill="#A1A1A1" d="M333.027 242.279h-93.875v21.474c2.266.099 7.585.394 8.078.296 3.349-.887 8.471-1.675 13.002-2.167 4.531-.493 63.929-.099 72.795 0v-19.603Zm-53.685 13.594h-7.388c-.886 0-1.576-.69-1.576-1.576 0-.887.69-1.576 1.576-1.576h7.289c.887 0 1.577.689 1.577 1.576 0 .886-.69 1.576-1.478 1.576Zm2.463-5.91c-.887 0-1.576-.69-1.576-1.576 0-.887.689-1.577 1.576-1.577h7.289c.886 0 1.576.69 1.576 1.577 0 .886-.69 1.576-1.576 1.576h-7.289Zm16.253 5.91h-7.388c-.887 0-1.576-.69-1.576-1.576 0-.887.689-1.576 1.576-1.576h7.289c.887 0 1.576.689 1.576 1.576 0 .886-.689 1.576-1.477 1.576Zm2.462-5.91c-.886 0-1.576-.69-1.576-1.576 0-.887.69-1.577 1.576-1.577h7.29c.886 0 1.576.69 1.576 1.577 0 .886-.69 1.576-1.576 1.576h-7.29Zm16.253 5.91h-7.387c-.887 0-1.576-.69-1.576-1.576 0-.887.689-1.576 1.576-1.576h7.289c.887 0 1.576.689 1.576 1.576 0 .886-.689 1.576-1.478 1.576Zm9.851-5.91h-7.388c-.886 0-1.576-.69-1.576-1.576 0-.887.69-1.577 1.576-1.577h7.289c.887 0 1.576.69 1.576 1.577 0 .886-.689 1.576-1.477 1.576Z"/>
  <path fill="#fff" d="M170.003 232.921h-8.274v8.373h8.274v-8.373Zm334.323 18.026v6.305h1.675v-6.305h-1.675Zm-272.364-34.082h-4.433v14.973h4.433v-14.973ZM114.15 246.318a.883.883 0 0 0-.886.887v2.167c0 .493.394.887.886.887h.296a.883.883 0 0 0 .886-.887v-2.167a.883.883 0 0 0-.886-.887h-.296Zm39.108-4.039h-15.86v5.418h15.86v-5.418Z"/>
  <path fill="#fff" d="M104.4 247.007c-.197.197-.296.394-.394.591h8.274v-.492a1.87 1.87 0 0 1 1.872-1.872h.295a1.87 1.87 0 0 1 1.872 1.872v.492h16.253v-5.417h-21.868a5 5 0 0 0-3.546 1.477c-.887.887-1.773 1.97-2.758 3.349Zm70.528-32.998h10.54V208h-13.101v6.009h2.561Zm-73.287 3.448v14.283h19.208v-15.958h-19.208v1.675Zm29.058 13.889h1.084c.788 0 1.576-.197 2.265-.69 1.97-1.576 6.009-1.871 9.063-2.462 2.856-.591 11.426-.197 14.283-.099v-8.964c-2.955.099-11.821.099-15.268 0-2.955-.098-6.403-1.97-7.979-2.856-.591-.394-1.281-.493-1.97-.493h-1.478v15.564Zm55.951-16.353h-28.369v16.943h45.312v-13.692h-1.576a5.438 5.438 0 0 1-3.842-1.576l-1.674-1.675h-9.851Zm-64.716 16.845c1.576.492 5.22 1.871 6.304 1.871 1.28 0 1.379-2.364 1.379-2.364h.098v-15.662h-.098c.098-2.955-3.251-1.182-3.251-1.182l-4.432 1.182v16.155Zm341.513.099s.788 11.327-2.069 13.593c-2.758 2.069-2.463 4.137-2.463 4.137h11.427v-17.73h-6.895Zm4.826 15.465a.987.987 0 0 1-.985.985h-2.265a.987.987 0 0 1-.985-.985v-1.576c0-.591.492-.985.985-.985h2.265c.591 0 .985.492.985.985v1.576Z"/>
  <path fill="#A1A1A1" d="M127.449 267.989c-.492-.591-1.182-.985-1.97-.887-5.221.099-12.313-.295-16.45-3.25-5.221-3.645-7.092-7.684-7.585-9.358h-1.182l-51.616-.788v.098s-38.515-.985-40.78-1.083c-1.97.098-2.562 3.053-.887 9.456 1.576 6.501 1.182 12.313 1.576 20.686.394 8.471-.69 9.85-.591 13.791.098 2.561 3.152 2.856 4.236 2.758 2.66-.197 80.28-8.176 80.28-8.176s-1.576 3.546 0 5.516c1.675 1.97 17.238 4.236 20.194 4.039 2.955-.197 1.379-5.517 1.576-7.782.197-2.266 2.659-12.904 7.584-15.367 1.084-.492 2.956-.492 4.433-.295.394-1.872 1.084-4.728 1.675-7.388.197-.591 0-1.379-.493-1.97Zm-92.988 7.388a4.834 4.834 0 0 1-4.826 4.826h-7.191a4.834 4.834 0 0 1-4.827-4.826v-9.654a4.834 4.834 0 0 1 4.827-4.826h7.19a4.834 4.834 0 0 1 4.827 4.826v9.654Zm53.784 9.062H60.959c-2.955 0-5.32-2.463-5.32-5.418v-11.919c0-2.955 2.463-5.319 5.32-5.319h33.885c4.433 0 8.078 3.645 8.078 8.077 0 4.039-1.675 7.684-4.334 10.343-2.66 2.561-6.305 4.236-10.343 4.236Zm29.255-9.653-6.6 19.109c-.394 1.281-1.576 2.069-2.856 2.069-.197 0-.394 0-.69-.099l-7.486-1.576a2.95 2.95 0 0 1-2.069-1.674c-.394-.887-.394-1.872 0-2.66l9.654-18.913c.689-1.28 2.167-1.97 3.644-1.477l4.433 1.379c.788.197 1.478.788 1.872 1.576.295.69.394 1.478.098 2.266Z"/>
  <path fill="#fff" d="m115.235 271.83-4.433-1.379c-.197-.098-.394-.098-.591-.098-.788 0-1.477.394-1.871 1.083l-9.654 18.814a2.087 2.087 0 0 0 0 1.872 2.33 2.33 0 0 0 1.38 1.182l7.486 1.576c.985.197 2.068-.394 2.364-1.379l6.6-19.11c.197-.492.098-1.083-.099-1.576-.197-.492-.689-.788-1.182-.985Z"/>
</svg>
