<svg xmlns="http://www.w3.org/2000/svg" width="512" height="512" fill="none" viewBox="0 0 512 512">
  <path fill="#878787" d="M124.401 398.518c-2.28-3.32-3.04-7.8-2.34-13.3-1.44.94-2.94 1.92-4.46 2.98-.82 5.34-.18 9.6 1.9 12.66 1.72 2.54 4.12 3.7 5.76 4.22 1.2-.82 2.44-1.64 3.74-2.48-1.56-.82-3.26-2.08-4.62-4.08h.02Zm-24.501 20.5c-2.74-2.36-4.54-5.9-5.4-10.56a87.46 87.46 0 0 0-4.62 5.86c1.32 4.14 3.32 7.12 5.98 8.88 2.5 1.66 5.101 1.84 6.841 1.7.8-.96 1.7-2 2.72-3.12a12.57 12.57 0 0 1-5.52-2.76Zm35.581-41.62c-1.28.66-2.82 1.5-4.6 2.5-1 5.7-.42 10.22 1.76 13.42 1.52 2.24 3.58 3.4 5.18 4.02 1.1-.62 2.22-1.24 3.38-1.86l-5.72-18.08Z"/>
  <path fill="#878787" d="M101.221 417.498c2 1.72 4.2 2.34 5.88 2.52 1.22-1.26 2.58-2.58 4.1-3.96-1.7-.62-3.6-1.7-5.24-3.62-2.46-2.86-3.68-6.88-3.74-11.94a99.63 99.63 0 0 0-5.96 6.02c.66 4.98 2.32 8.68 4.98 10.98h-.02ZM131 394.458c-2.28-3.32-3.04-7.8-2.34-13.32-1.36.8-2.84 1.68-4.36 2.64-1.02 5.78-.46 10.34 1.74 13.56 1.48 2.18 3.44 3.34 5.02 3.96 1.46-.92 3-1.82 4.6-2.76-1.56-.82-3.28-2.08-4.66-4.1v.02Zm-13.119 7.54c-2.14-3.12-2.92-7.24-2.44-12.28-1.5 1.08-3.02 2.22-4.56 3.4-.86 5.44-.24 9.74 1.88 12.84 1.66 2.42 3.92 3.58 5.56 4.14 1.56-1.2 3.2-2.42 4.98-3.68-1.76-.78-3.8-2.12-5.4-4.46l-.02.04Zm8.859-54.278c2.68 1.12 5.08 1.4 7.12.76.38-.12.72-.26 1.04-.42V348s1.86-.28 2.58-4.98c.38-2.52-1.54-6.86-.2-10.72 1.02-2.94 4.74-5.4 8.24-7.7 0 0-10.88-3.48-21.74 14.46 0 0-3.78 4.38 2.98 8.66h-.02Zm17.72 16.46c-.92-.82-3.68-3.38-5.64-6.48-1.5-2.4-2.7-5.66-3.36-7.74-.32.14-.64.28-.98.4-.94.3-1.92.44-2.96.44-1.2 0-2.48-.2-3.8-.6 1.94 5.48 6.96 18.48 9.34 24.62h.06l.28.84c.6 1.54.96 2.48.96 2.48s-.06.02-.16.08l7.42 23.42c1.18 3.38 2.88 8.06 5 13.26.42-.44.9-.88 1.5-1.28 1.46-.96 3.2-1.52 5.2-1.66-1.14-3.46-4.48-14.72-1.86-20.04 2.74-9.38 8.8-17.56 15.86-24.32-9.04 3.76-20.54 4.78-26.84-3.4l-.02-.02Z"/>
  <path fill="#878787" d="M111.121 407.138c-2.12-3.12-2.92-7.22-2.44-12.24-1.5 1.22-2.98 2.48-4.46 3.8-.24 5.44.84 9.6 3.24 12.44 1.72 2.02 3.84 2.98 5.48 3.42 1.12-.96 2.3-1.96 3.54-2.98-1.74-.78-3.76-2.12-5.36-4.44ZM94.8 424.878c-2.74-1.8-4.84-4.68-6.32-8.58-2.06 3.08-3.86 6.3-5.34 9.66 6.22 2.88 11.86 4.34 15.16 5.02.6-.98 1.5-2.38 2.781-4.08-1.84-.1-4.08-.6-6.28-2.04v.02Zm69.62 2.682c3.26-5.76-2.76-11.44-5.5-13.62-2.26-.06-4.18.34-5.68 1.32-.8.52-1.38 1.16-1.82 1.76-.58 1.14-8.62 17.88 20.8 25.08 0 0-11.96-7.24-7.82-14.56l.02.02Zm-82.659-.022c-1.08.34-3.06 1.14-4.58 2.7-4.06 4.14-6.86 11.24-13.56 1.34 0 0-2.14 9.24.4 14.74 3.3 7.12 9.66 10.78 16.38 10.12 7.9-.8 19.72-5.16 16.94-23.56-3.56-.76-9.28-2.3-15.6-5.32l.02-.02Zm5.8 18.92c-2.3 1.94-5.7 1.66-7.62-.6-1.9-2.26-1.6-5.66.7-7.6 2.3-1.94 5.7-1.66 7.6.6 1.9 2.26 1.6 5.66-.7 7.6h.02Z"/>
  <path fill="#fff" d="M367.98 186.026s14.62 5.26.38 22.22c-11.7 13.9-77.4 75.18-133.62 109.82-53.22 32.8-82.7 43.36-85.22 44.24 7.86 7.52 20.32 4.38 29.14-.36.4-.22.84-.38 1.34-.18 1.02.4 1.1 1.78.3 2.36-.12.12-.5.44-.62.54-7.7 6.7-14.64 14.64-18.96 23.98.26-.3.52-.58.84-.8 7.74-5.32 57-29.22 76.44-40.78 13.08-7.76 74.5-46.96 127.38-101.16 25.78-26.42 46.38-57.62 65.06-88.74 20.64-34.4 29.94-102.4 29.94-102.4s-53.28 105.18-92.42 131.26h.02Zm-170.94 171.7c-1.76 1.48-4.34 1.26-5.8-.46s-1.22-4.32.54-5.8c1.76-1.48 4.34-1.26 5.8.46s1.22 4.32-.54 5.8Zm18.52-9.06c-1.52 1.28-3.78 1.1-5.06-.4-1.26-1.5-1.06-3.76.46-5.04 1.52-1.28 3.78-1.1 5.06.4 1.28 1.5 1.06 3.76-.46 5.04Zm180.26-165.98s-2.9 2.9-3.94 3.92c.48 2.26.02 4.52-.58 6.5-5.4 14.9-16.58 26.68-27.12 38.14-12.08 13.06-24.86 25.48-38.08 37.38-26.96 23.3-56.74 42.82-86.54 62.22 14.56-10.16 29.04-20.42 43.32-30.96 29.08-20.5 55-44.62 79.2-70.6 9.14-9.48 18.04-19.42 24.52-30.96 1.74-3.38 3.98-7.5 3.38-11.3-3.66-.8-7.44-1.48-11.2-1.06 3.7-1.28 7.76-1.2 11.64-.72l4.08-3.9c21.5-21.24 37.26-48.12 47.42-76.48-9.6 28.72-24.92 56.02-46.08 77.82h-.02Z"/>
</svg>
