<svg xmlns="http://www.w3.org/2000/svg" width="512" height="512" fill="none" viewBox="0 0 512 512">
  <path fill="#fff" d="m140.352 322.38 25.6 29.54C445.372 162.72 481.692 34 481.692 34c-137.38 80.72-315.46 261.76-341.34 288.38Zm187.6-110.7c-46.14 40.78-95.56 81.08-147 113.44 101.02-70.82 194.94-154 267.68-254.18l.38.24c-32.06 53.24-75.02 99.12-121.08 140.5h.02Z"/>
  <path fill="#878787" d="M93.072 414.04c16.34-23.36 52.1-47.1 60.22-52.32l-25.74-29.7-69.38 68.76-.18.42c4.94 3.62 20.22 13.74 35.08 12.84Zm-42.84 8.42c5.1 3.68 19 12.64 32.86 12.64.64-2.42 1.6-5.18 2.94-8.3-14.18-.4-27.78-9.14-33.04-12.96-.94 3.06-1.86 5.94-2.78 8.62h.02Zm38.36 30.38c-1-.32-.64-.24-.64-.24s-3.42-.72-5.08-4.92c-.88.1-1.78.2-2.66.2-14.72.3-29.14-8.96-34.64-12.96-3.06 7.44-5.86 12.76-8.24 16.54.04 0 .06.04.06.04-1.62 3.14.6 5.56 3.44 6.8 7.88 4.26 16.84 6.1 25.72 6.7 9.36.98 19.36-1.12 25.72-8.16.86-1.8-1.98-2.62-3.48-3.32l.02-.22c.22 0-.42-.46-.22-.46Z"/>
  <path fill="#878787" d="M87.072 424.54c.5-1.08 1.04-2.18 1.62-3.32.82-1.6 1.76-3.2 2.8-4.8-14.7.14-29.06-9.14-34.42-13.04l-2.94 6.76c-.14.48-.28.92-.42 1.38 4.56 3.36 18.96 13 33.36 13.02Zm-4.8 20.88c-.38-2.06-.36-4.68.3-8.04-14-.18-27.52-8.64-33.12-12.66-1.02 2.88-2 5.54-2.98 8 5.14 3.74 20.82 14.02 35.8 12.7Zm22.14 4.2c-5.52 3.58-9.68 4.28-12.44 4.1 2.4.94 3.4 3.26.62 6.06-7 6.52-17.18 7.74-26.12 6.66-9-.82-18.06-3.02-25.88-7.66-2.64-1.3-4.78-3.66-3.7-6.58-2.68 4.14-4.82 6.3-6.16 7.38-.84.68-.98 1.94-.3 2.76 9.92 11.9 25.12 14.6 37 14.58 9.98-.02 19.38-1.62 27.1-7.94 0 0 4.52-3.66 6.52-6.04 2.12-2.52 5.64-6.66 6.32-7.82 2.36-4.02 5.64-11.06-2.92-5.52l-.04.02Zm57.38-94.88c.12-.08-24.62-29.08-24.62-29.08h-.02l-2.54-2.78c-1.3-1.44-3.54-1.52-4.96-.2l-3.72 3.5 3.36 4.12-.1.1 30.3 34.96 3.8-3.36a3.83 3.83 0 0 0 .22-5.36l-1.72-1.88v-.02Z"/>
</svg>
