<svg xmlns="http://www.w3.org/2000/svg" width="512" height="512" fill="none" viewBox="0 0 512 512">
  <path fill="#fff" d="M64.478 473.25c-3.87-2.978-8.353-6.702-12.933-11.131-.412-.411-.831-.814-1.233-1.215-4.051-4.052-7.412-8.137-10.118-11.786-1.398-.371-3.336-1.416-11.447 1.019-6.134 1.835-7.481 7.008-2.745 12.822 3.64 4.465 20.207 21.032 24.682 24.682 5.815 4.736 10.987 3.389 12.822-2.744 2.552-8.517 1.27-10.237.972-11.647Zm372.464-365.182c1.548 2.154 3.032 4.413 4.064 6.775 1.559-1.456 3.099-2.914 4.659-4.371l-8.197-3.26-.526.856Zm-76.575 11.333.146-1.134.917.462-.148 1.115 8.185 6.5 2.223-1.483c-1.698-3.567-3.604-7.091-5.266-10.674-.719-1.544-1.459-3.127-2.09-4.718-2.502 2.687-4.994 5.385-7.494 8.09a62.284 62.284 0 0 1 2.963 2.221l.552-.408.012.029Zm6.23-9.355c2.305 5.49 5.141 10.819 7.752 16.209 1.131 2.345 2.246 4.706 3.359 7.049 1.722 1.671 3.377 3.41 5.138 5.104 3.973 3.822 8.953 7.049 13.899 9.014 2.477.978 5.16 1.504 7.316.459 2.128-1.039 3.273-3.314 3.638-5.695.576-3.805-.853-7.929-2.599-11.881a656.756 656.756 0 0 0-9.335-7.634l-.404.404-.291 2.102-.916-.462.285-2.157-8.39-6.79-2.389 1.587-.734-.767 2.92-1.933c-3.611-2.97-7.242-5.962-10.716-9.132-.997.031-1.984.071-2.981.102-1.199.047-2.409.085-3.61.113-.212.007-.46.029-.744.065-.678.72-1.346 1.45-2.017 2.161.254.692.527 1.386.819 2.082Zm62.126 14.365.406 1.569c.593-.552 1.195-1.113 1.778-1.676-.647-.175-1.296-.369-1.945-.563l-.25.66.011.01Zm24.769-21.726c-.422-2.293-1.874-4.502-3.336-6.454l-.031-.03c-.41-.208-.83-.426-1.239-.633-5.893-3.096-11.523-6.906-17.009-10.944a210.04 210.04 0 0 0-6.93.061c-2.754.06-5.504.157-8.241.302 4.22 4.624 8.614 9.136 12.767 13.827 1.553.998 3.115 1.986 4.67 3.002 1.208.787 2.481 1.673 3.789 2.526l.189-.333-.276-1.185.958.132.276 1.185 9.417 3.622 1.466-2.392.707.404c.958-.896 1.915-1.791 2.854-2.689-.013-.131-.016-.252-.039-.393l.008-.008Zm-105.24 26.096c1.346 4.126 3.883 7.944 6.686 11.454 2.921 3.662 6.189 7.099 9.31 10.641l1.386-.316.546-.936.757.723-.537.929 5.969 8.53 2.893-.527.472.926-3.266.593-.474.165c.255.424.52.858.767 1.29a33.547 33.547 0 0 1 2.853 6.526c1.051.512 2.107.978 3.183 1.363.71.256 1.441.43 2.157.557l7.292-6.675c-.271-2.258-1.001-4.572-1.766-6.769-1.246-3.588-2.811-7.124-4.437-10.619-1.989-4.264-4.195-8.475-6.238-12.725a37.655 37.655 0 0 0-2.503-2.166c-1.526-1.189-3.132-2.155-4.739-3.139l-.703.662-.281 2.111-.916-.461.285-2.157-8.39-6.79-2.389 1.587-.733-.768 2.814-1.868c-.14-.107-.272-.222-.412-.328a65.93 65.93 0 0 0-2.237-1.63 3109.365 3109.365 0 0 0-7.766 8.424c.122.475.243.95.402 1.429l.015-.036Zm13.497 30.497c3.581 2.856 7.412 5.895 11.449 8.214a32.954 32.954 0 0 0-2.95-5.915l-.528.179-1.022 1.741-.757-.723 1.045-1.786-6.077-8.856-2.965.539-.472-.927 2.711-.49c-.345-.395-.69-.791-1.043-1.178-5.708-6.365-12.239-13.08-14.795-21.096-2.983 3.251-5.966 6.501-8.939 9.762-.276.297-.542.604-.826.909 2.905 1.557 5.696 3.641 8.309 5.697 5.717 4.505 11.166 9.381 16.85 13.919l.01.011Zm76.365-46.13a58.501 58.501 0 0 0-2.221-3.518l-.844-.472.24-.384c-2.059-2.918-4.346-5.711-6.755-8.424-.267-.165-.525-.339-.783-.513a670.359 670.359 0 0 0-22.655-13.894c-3.701.41-7.372.934-10.994 1.574a112.63 112.63 0 0 0-6.018 1.226l1.74 3.813.729-.687.612.848-.77.729 3.722 8.474.39.844 3.057.193.263.971-2.87-.175c.238.524.485 1.058.723 1.582.199.418.379.834.578 1.252 3.586 1.412 7.1 3.225 10.552 4.976 3.921 1.983 7.828 4.02 11.793 5.896l-.296-1.205.956.113.302 1.179 9.469 3.386 1.396-2.445.92.499-1.579 2.751-.103.268c.977.319 1.948.582 2.925.819l6.997-6.565a19.807 19.807 0 0 0-1.427-3.078l-.049-.033Zm-10.362 11.102-9.749-3.6-1.428 2.498-.92-.499 1.885-3.304.02.02.124-.247c-3.367-1.631-6.672-3.386-9.872-5.02-3.444-1.759-6.933-3.597-10.49-5.099l6.993 15.282c.769 1.678 1.589 3.408 2.374 5.153 3.281 2.725 6.584 5.49 9.677 8.464a6860.75 6860.75 0 0 0 12.15-11.368l-.187-.019-.588-2.271.011.01Zm-42.465-37.193-.304.304c.136-.033.253-.068.379-.111-.035-.069-.061-.145-.086-.204l.011.01Zm83.586-3.024-.051 1.162-.938-.399.053-1.143-8.562-5.917-2.169 1.757-.776-.726 2.434-1.98.373-.436c-4.454-3.629-8.902-7.284-13.348-10.922-5.555-4.544-11.128-9.09-16.683-13.634-1.482-1.212-3.935-3.345-6.389-4.738-2.043 2.186-4.095 4.362-6.137 6.549.329.616.705 1.228 1.084 1.775.258.359.532.7.809 1.062l.466-.158.447-1.002.816.665-.449.983 6.623 8.105 2.791-.797.543.897-3.088.888c3.927 4.567 7.846 9.143 11.773 13.71a464.67 464.67 0 0 0 2.803 3.224c7.177.371 14.824.993 21.951 3.655 1.635.608 3.523 1.434 4.921 2.731a972.668 972.668 0 0 0 4.718-4.43c-1.202-.258-2.387-.719-3.556-1.298l-.442.4-.017.017Zm-62.65-11.991c2.61 3.89 5.638 7.525 8.785 11.043 4.713-.29 9.459-.43 14.229-.428-3.404-2.561-6.758-5.192-10.081-7.772-4.054-3.145-8.086-6.352-12.287-9.289-.289-.205-.586-.401-.875-.606-.82.882-1.65 1.753-2.47 2.635a58.642 58.642 0 0 0 2.699 4.417Zm-19.26 14.264c.071.156.152.321.223.476 4.875-1.173 9.919-1.958 14.999-2.555a710.414 710.414 0 0 0-9.302-5.26c-2.068 2.212-4.154 4.422-6.222 6.633.108.243.205.474.31.698l-.008.008Zm62.974-19.844c3.467 2.827 6.887 5.825 10.401 8.666l.391-.452.1-2.157.938.398-.095 2.214 8.776 6.198 2.21-1.8.776.726-2.58 2.086c1.265.524 2.558.857 3.865.866a69.23 69.23 0 0 1 1.22-1.138c1.372-1.29 2.703-2.62 4.013-3.972-.32-4.06-4.147-8.275-6.828-11.394-3.979-4.62-8.027-9.19-12.262-13.593-3.263-3.38-6.649-6.7-10.191-9.82l-.042 1.07-.938-.4.053-1.143-8.563-5.917-2.168 1.757-.776-.725 2.433-1.981.283-.324a83.306 83.306 0 0 0-4.407-2.874 112.446 112.446 0 0 0-4.934 4.955l-7.495 7.988c3.283 1.9 6.332 4.816 9.154 7.115 5.555 4.544 11.128 9.09 16.683 13.634l-.017.017Zm-23.609 11.701a399.863 399.863 0 0 0 6.033 4.518c2.152.028 4.297.084 6.464.18-.616-.7-1.232-1.401-1.84-2.11l-11.951-13.923-.973.46-.834 1.861-.816-.665.857-1.905-6.737-8.422-2.846.81-.543-.897 3.52-1.011a23.518 23.518 0 0 1-1.32-2.012c-2.689 2.854-5.376 5.726-8.066 8.58 1.879 1.289 3.706 2.711 5.488 4.056 4.548 3.453 9.022 7 13.572 10.472l-.008.008Z"/>
  <path fill="#fff" d="m442.505 33.827.1-2.157.938.399-.094 2.213 8.775 6.198 2.211-1.799.776.726-2.931 2.375-.021-.02-.341.3c7.815 6.87 14.872 14.601 21.663 22.454 3.109 3.597 6.649 7.44 7.936 11.912a102.342 102.342 0 0 0 4.184-4.78c5.162-6.293 5.451-13.905-.432-21.658-3.016-3.977-17.63-18.59-21.617-21.617-7.753-5.883-15.356-5.602-21.658-.431a110.851 110.851 0 0 0-4.092 3.557 96.624 96.624 0 0 1 4.213 2.78l.39-.452Zm24.193 56.639c-.925-.74-2.006-1.264-3.058-1.693-3.235-1.331-6.606-1.99-9.901-2.522a119.491 119.491 0 0 0-10.669-1.219c2.788 3.177 5.57 6.38 8.149 9.683 1.43.689 2.873 1.323 4.342 1.849 1.211.435 2.507.805 3.788 1.025 2.481-2.337 4.973-4.664 7.462-7.01l-.123-.123.01.01Zm-11.556 11.104c.873-.811 1.728-1.625 2.601-2.436-1.471-.36-2.968-.879-4.436-1.488.774 1.262 1.435 2.597 1.845 3.934l-.01-.01Zm-82.063-.456a48.454 48.454 0 0 0 2.489 2.406c4.519-.097 9.067.003 13.691.954l-.021-.021 1.49-1.408-4.107-9.632-3.14-.192-.263-.971 4.165.257.011.01.409.022c-.509-1.115-1.028-2.241-1.538-3.357-1.363.355-2.724.73-4.052 1.153-3.198 3.423-6.414 6.845-9.601 10.279.165.164.331.348.467.5Zm-1.729.866-1.614 1.738c1.099-.03 2.188-.07 3.277-.11a25.127 25.127 0 0 1-1.663-1.628Zm33.812-18.078c.853-.09 1.696-.174 2.559-.255a227.05 227.05 0 0 1 5.045-.396c-3.937-4.476-7.646-9.179-10.531-14.254-2.689 2.854-5.359 5.71-8.048 8.563 1.501.844 2.997 1.733 4.479 2.575 2.169 1.225 4.333 2.496 6.486 3.757l.01.01Zm-15.1 62.16c-3.786-2.219-7.002-4.947-10.096-8.024a207.926 207.926 0 0 0 1.788 3.725c3.198 6.551 6.58 13.37 8.089 20.253.034.151.057.293.091.444 4.369-4.02 8.737-8.059 13.086-12.099-4.242.643-8.985-1.977-12.958-4.299Zm57.275-53.409c-2.161-2.632-4.444-5.202-6.718-7.762-1.834-.099-3.667-.18-5.485-.212 2.113 1.507 4.233 2.986 6.391 4.386a119.544 119.544 0 0 0 5.822 3.599l-.01-.01Zm-39.221 40.229c.964 2.615 1.662 5.25 1.679 7.845.001 1.315-.175 2.622-.545 3.835 1.951-1.806 3.891-3.623 5.831-5.44-.185-.185-.379-.361-.572-.538a205.119 205.119 0 0 0-6.393-5.702Zm28.927-26.972.02.021.026-.025a17.3 17.3 0 0 1-.674-.438c-.96-.623-1.931-1.257-2.891-1.88a92.677 92.677 0 0 1 2.763 3.571l.766-1.238-.01-.011Zm-100.42 79.421c-.223-.105-.455-.202-.679-.308 4.201 5.919 7.468 13.347 7.116 19.869 3.481-3.09 6.993-6.232 10.539-9.408-1.519-1.031-2.994-2.168-4.459-3.212-3.909-2.797-8.289-4.936-12.525-6.932l.008-.009Zm40.334-11.149s.02.104.034.151l2.249-2.063a23.602 23.602 0 0 1-2.927-1.125c.256.998.459 2.009.644 3.037Zm-27.025-2.058c-.296-.178-.583-.364-.878-.541a259.251 259.251 0 0 1 3.155 4.351c2.487 3.498 4.966 7.005 7.03 10.72.441.794.924 1.648 1.363 2.525a2217.07 2217.07 0 0 0 8.607-7.785c-1.554-.728-3.059-1.239-4.731-1.85-5.037-1.853-9.871-4.547-14.565-7.422l.019.002Zm22.218-46.282-2.19 1.449c.965.578 1.921 1.164 2.848 1.821.429.311.84.62 1.252.949-.263-.601-.564-1.205-.819-1.814-.34-.812-.726-1.619-1.102-2.415l.011.01Zm-38.536 34.278a119.981 119.981 0 0 1 6.1 3.505l-3.783-4.321-2.326.824.009-.008Zm-32.052 19.012c.325.847.458 1.619.552 2.472.543 4.536 3.956 8.404 7.644 11.401 2.278 1.856 4.742 3.444 7.251 4.926l.561-.685.024-2.184.944.372-.028 2.229 8.918 5.953 2.138-1.871.802.7-1.985 1.738a372.395 372.395 0 0 0 9.844 5.026c.799-.717 1.6-1.415 2.4-2.132.758-3.083.47-6.538-.576-9.976-1.53-5.051-4.31-9.449-7.577-13.608a130.015 130.015 0 0 0-11.612-4.368c-4.592-1.476-9.425-3.04-14.036-3.221-.716-.025-1.741-.09-2.747-.051-.892.995-1.765 1.992-2.649 2.978.047.098.085.203.132.301Zm31.192-19.469-.174-.258 3.651-1.285a321.047 321.047 0 0 0-5.879-6.873c-.657-.742-1.386-1.555-2.092-2.413a1451.568 1451.568 0 0 0-5.921 6.58c2.371.652 4.711 1.561 7.009 2.595a78.51 78.51 0 0 1 3.398 1.663l.008-.009Zm61.054-53.978a130.91 130.91 0 0 1-.864-1.892l-1.646.124-.837.796c.645.157 1.29.314 1.939.508.477.14.946.289 1.416.456l-.008.008Zm-76.309 56.194c.396 1.002.934 1.945 1.543 2.858l.481-.193.389-1.027.84.621-.381 1.018 6.984 7.825 2.71-.962.587.874-3.051 1.076-.536.289c2.251 2.521 4.483 5.04 6.579 7.675 1.298.573 2.588 1.155 3.881 1.775 4.104 1.964 8.373 4.009 12.16 6.701 1.704 1.216 3.467 2.642 5.299 3.833l4.217-3.785c-1.384-3.018-3.193-5.939-5.092-8.73-2.941-4.34-6.041-8.603-9.238-12.81-.356-.221-.692-.44-1.037-.65l-.66 1.75-.839-.621.631-1.66c-2.559-1.616-5.117-3.213-7.747-4.697-2.503-1.425-5.041-2.733-7.66-3.836-2.04-.861-4.39-1.863-6.587-2.258l-3.727 4.158c.083.268.173.527.272.778l-.018-.002Zm17.135-8.437a257.157 257.157 0 0 1 3.352 3.992l.32-.135.388-1.027.84.621-.38 1.018 6.983 7.826 2.71-.962.587.873-3.051 1.076-.693.385.351.452c3.943 2.494 7.903 4.972 12.015 7.113 4.149 2.144 8.512 3.273 12.624 5.413 1.401-1.277 2.811-2.563 4.239-3.847.126-.127.254-.234.391-.351-.117-.706-.242-1.404-.356-2.091a35.474 35.474 0 0 0-.905-3.785 66.212 66.212 0 0 1-3.525-2.11c-6.211-3.971-11.938-8.856-17.609-13.634-5.448-4.589-11.064-9.833-17.318-13.122-.078-.045-.165-.082-.244-.127-1.978 2.184-3.94 4.332-5.868 6.465 1.612 2.049 3.47 3.975 5.168 5.959l-.019-.002Zm60.24-45.409a42.85 42.85 0 0 0-1.755-.61c-4.688-1.503-9.4-1.953-14.005-1.976-.464-.009-.924.019-1.397.019 3.147 2.776 6.36 5.467 9.579 8.13l.519-.375.146-1.133.917.461-.149 1.115 8.185 6.501 2.337-1.555.734.767-2.624 1.74-.371.37c2.146 1.742 4.311 3.485 6.45 5.254a59.49 59.49 0 0 1-.708-1.534 10362.23 10362.23 0 0 0-7.87-17.203l.012.029ZM418.34 89.38a489.656 489.656 0 0 1-3.906-4.259 197.5 197.5 0 0 0-6.303.503 640.853 640.853 0 0 1 15.697 9.582c-1.844-1.962-3.694-3.896-5.488-5.825Zm-96.581 88.045c2.757.904 5.505 1.9 8.226 3.004a331.463 331.463 0 0 0-4.624-5.248l-.3.156-.726 1.919-.839-.621.749-1.963-7.125-8.136-2.765.975-.587-.873 3.525-1.242a18.887 18.887 0 0 1-1.484-2.732 3680.278 3680.278 0 0 0-9.957 11.17c.791.032 1.529.096 2.09.152 4.53.386 9.318 1.973 13.807 3.429l.01.01Zm114.805-53.985c-1.306-.092-2.664-.339-4.021-.668-.551.51-1.092 1.03-1.644 1.541 1.865.5 3.736.871 5.6 1.084 4.13.457 6.377-2.181 5.788-6.24-.211-1.475-.669-2.91-1.281-4.314-.482.462-.974.913-1.456 1.374 1.29 3.564 1.474 7.556-2.976 7.234l-.01-.011Zm13.626-15.334c-.261.076-.535.123-.789.172l1.466-2.392-.206-.122-5.015 4.706 1.485.592.523 2.275.957.132-.508-2.227.373-.908c2.953-.011 5.657-1.132 6.692-3.853.595-1.562.465-3.242-.044-4.913-.543.501-1.067 1.005-1.61 1.507.285 2.491-1.092 4.383-3.343 5.029l.019.002Zm29.75-28.742c-.299 2.582-2.554 3.849-5.101 3.846-.037-.004-.083 0-.12-.003l-1.848 1.724c1.268.274 2.556.365 3.84.15 4.068-.632 6.03-4.179 4.884-8.442-.016-.066-.051-.134-.077-.211-.518.56-1.047 1.109-1.576 1.658.033.42.038.847-.013 1.268l.011.01Z"/>
  <path fill="#fff" d="M375.525 179.995c-.086.806-.252 1.753-1.186 1.762-.862-.003-1.993-.763-2.768-1.202-.294-.159-.596-.309-.89-.468-.483.443-.959.877-1.453 1.31.505.235 1.012.489 1.533.791 1.414.807 3.205 1.875 4.708 1.524 3.288-.738 2.026-6.633 1.521-9.378-.559.518-1.119 1.037-1.689 1.545.223 1.402.371 2.797.224 4.116Zm92.418-87.913c.179.582.091 1.287-.231 1.959a7.07 7.07 0 0 1-2.176 2.608c-1.675 1.222-3.906 1.334-6.157.953-.551.51-1.092 1.03-1.643 1.54 4.509 1.106 8.788.735 11.354-3.168.981-1.495 1.394-3.492.122-5.387a6.568 6.568 0 0 0-1.056-1.207c-.431.41-.882.82-1.313 1.23.476.41.94.974 1.102 1.49l-.002-.018Zm-79.565 73.826c-.061 4.236-3.648 5.416-7.407 4.774-.576.535-1.163 1.061-1.731 1.587 2.131.666 4.249.914 6.211.433 4.744-1.186 5.424-5.527 4.482-10.242l-1.67 1.547c.082.638.126 1.273.123 1.893l-.008.008Zm-17.113-67.113c-.144-.515.037-1.497.369-2.159.458-.89 1.176-1.587 1.972-2.24 2.307-1.854 5.28-2.975 8.148-3.93.153-.05.297-.092.449-.141l2.788-2.974a77.2 77.2 0 0 0-4.489 1.323c-2.959.984-5.886 2.183-8.285 4.047-1.59 1.24-3.084 2.981-2.982 5.307.066 1.414.985 2.737 2.103 3.923.428-.449.837-.899 1.255-1.357-.601-.634-1.208-1.343-1.34-1.828l.012.029Zm32.029 51.537c3.12-.569 5.074-2.894 5.955-5.77l-6.23 5.799c.091-.01.185-.001.275-.029Zm-18.002-71.694c.768-2.989 4.22-1.525 6.513-.26.362.194.715.396 1.068.598.445-.465.879-.94 1.324-1.406-1.187-.664-2.39-1.312-3.612-1.86-1.987-.892-4.165-1.284-5.76-.183-3.265 2.277-1.16 7.886.47 11.521.453-.474.904-.966 1.357-1.44-.973-2.236-1.901-4.865-1.36-6.97Zm-84.173 98.078c.578-.618 1.762-.816 2.97-.871.591-.673 1.191-1.336 1.774-2-2.773-.128-6.384.069-6.943 2.356-.337 1.365.738 2.861 1.09 4.257l1.432-1.617c-.333-.737-.824-1.582-.312-2.115l-.011-.01Zm27.819-29.897c-1.594-2.15-2.647-4.922-.456-6.353 1.932-1.252 4.571-.601 6.853.552l1.252-1.376c-.351-.183-.707-.403-1.067-.578-3.588-1.718-8.396-2.011-9.961 1.528-1.2 2.743.62 5.674 2.698 8.224l1.21-1.334c-.18-.231-.359-.443-.539-.674l.01.011Zm-9.344 9.962a9.6 9.6 0 0 1 1.351.171c.457-.519.925-1.028 1.383-1.548-.209-.058-.411-.124-.61-.172-2.11-.543-4.384-.778-5.826.644-1.634 1.634-1.2 4.326-.091 6.816.466-.528.943-1.045 1.409-1.573-.677-2.244-.387-4.447 2.376-4.33l.008-.008Zm19.976 53.08c-.457-.221-.906-.451-1.344-.671-.494.433-.978.875-1.464 1.299 1.072.533 2.135 1.074 3.205 1.588.447.211.874-.052 1.065-.366 1.286-2.067 1.898-4.387 2.027-6.819-.808.726-1.626 1.441-2.425 2.158a12.006 12.006 0 0 1-1.055 2.803l-.009.008Zm25.779-103.134c-.084-.286-.12-.642-.212-.92.671.234 1.778.094 2.657-.004.654-.694 1.288-1.391 1.942-2.085-1.441.042-2.882.084-4.326.088-1.009.002-2.035-.165-2.277.941-.141.634.097 1.445.283 2.103.245.885.574 1.77.93 2.648.477-.517.955-1.016 1.431-1.534a20.79 20.79 0 0 1-.428-1.237Zm37.01-41.33a28.529 28.529 0 0 1-.641-1.415c-.168-.388-.365-1.343-.674-1.651a.99.99 0 0 1 .17.035c.488.15.97.347 1.429.587 1.151.578 2.27 1.31 3.354 2.056.427-.448.845-.907 1.273-1.355-1.342-.92-2.724-1.78-4.137-2.486-.946-.474-2.09-.995-3.054-.813-2.438.443-.35 3.744.422 5.358a44.67 44.67 0 0 0 1.744 3.294c.436-.456.862-.923 1.299-1.38a49.113 49.113 0 0 1-1.167-2.228l-.018-.002Zm26.937 61.238-.167-.655c-.194.193-.398.377-.602.56l.769.095Zm3.364-98.14c-1.21-.62-2.031 1.002-.81 1.633a78.415 78.415 0 0 1 4.678 2.623c.448-.427.917-.834 1.376-1.252a70.783 70.783 0 0 0-5.253-2.995l.009-.009Zm-16.512 18.547c1.486-2.102 4.09-1.436 6.672.034.428-.448.853-.915 1.281-1.363-1.17-.682-2.372-1.227-3.611-1.573-4.38-1.213-7.437 1.576-6.98 5.89.181 1.732.875 3.403 1.814 5.015.453-.473.895-.957 1.34-1.422-1.185-2.23-1.825-4.757-.543-6.574l.027-.007Zm1.613 92.217c-.452-.452-.921-.888-1.393-1.343-.431.411-.864.804-1.296 1.214 1.073 1.005 2.149 2.048 3.068 3.186.231.282.595.865.724 1.044l.041.041c-.5.747.51 2.144 1.38 1.582 2.038-1.297-1.298-4.482-2.524-5.724Zm-58.446 51.516c.845 1.89 2.78 6.722-.868 5.331-1.194-.452-2.351-1.104-3.489-1.838-.451.409-.911.808-1.361 1.217 1.41.955 2.867 1.822 4.391 2.437 2.392.96 4.557.379 4.623-2.217.052-2.088-.891-4.395-1.991-6.523-.484.442-.97.866-1.445 1.301.046.097.093.194.15.302l-.01-.01Zm-12.1-68.404c.005-1.898.119-5.508 2.132-6.122 1.142-.341 2.708.5 3.808 1.128.843.473 1.655.998 2.451 1.559.409-.45.837-.898 1.246-1.348-1.174-.821-2.362-1.587-3.611-2.23-2.489-1.276-5.065-1.764-6.541.349-2.244 3.232-1.756 8.605-.506 12.786.043.162.106.326.169.489.501-.543.984-1.087 1.486-1.63a20.879 20.879 0 0 1-.634-4.981ZM160.849 334.016c6.019 5.766 13.946 12.278 22.019 15.702 27.087-25.729 53.658-50.12 75.691-69.952 28.153-25.336 52.541-46.536 78.184-69.278a386.728 386.728 0 0 1-9.826-5.025l-.973.932-.013 1.165-.945-.372.016-1.146-8.697-5.681-2.086 1.839-.801-.7 2.359-2.071.068-.068c-1.833-1.108-3.624-2.259-5.353-3.533-3.486-2.56-6.929-5.699-8.879-9.57-.956-1.882-1.217-3.575-1.548-5.507-.019-.104-.047-.199-.075-.294-21.556 24.352-41.962 47.782-66.123 74.617-20.625 22.908-46.169 50.735-73.029 78.931l.011.011Z"/>
  <path fill="#878787" d="M105.372 426.372c1.19-1.252 2.408-2.511 3.617-3.761-5.996-6.839-10.469-15.406-13.453-22.315-3.808 3.706-7.586 7.34-11.335 10.903 5.832 5.563 13.412 11.743 21.171 15.173Zm41.754-42.145c2.962-2.9 5.933-5.809 8.914-8.708-3.082-2.122-5.993-4.661-8.666-7.335-3.538-3.538-6.644-7.301-9.152-10.635-2.655 2.737-5.321 5.445-7.977 8.163 4.177 6.25 10.087 13.709 16.891 18.526l-.01-.011Z"/>
  <path fill="#878787" d="M123.692 407.578c-5.902-6.727-10.371-15.072-13.384-21.808a2064.24 2064.24 0 0 1-13.783 13.577c2.943 6.868 7.4 15.554 13.332 22.395 4.517-4.681 9.132-9.399 13.835-14.164Zm33.242-32.933c2.804-2.722 5.617-5.452 8.439-8.172-6.552-6.755-11.754-15.107-15.144-21.344-3.701 3.846-7.422 7.69-11.144 11.515 4.416 5.848 10.735 13.144 17.857 17.992l-.008.009Zm-27.6-8.023a2237.598 2237.598 0 0 1-9.752 9.875c5.378 5.277 12.502 11.357 19.944 15.227 2.207-2.207 4.452-4.41 6.688-6.605-2.243-1.603-4.392-3.465-6.397-5.47-4.124-4.124-7.675-8.821-10.491-13.018l.008-.009Zm-18.065 18.188c2.971 6.695 7.425 15.159 13.272 21.899 4.621-4.662 9.313-9.354 14.059-14.059-7.507-3.97-14.563-10.015-19.892-15.259l-7.437 7.438-.002-.019ZM73.73 460.686a732.801 732.801 0 0 1 10.062-11.233c-7.173-7.965-12.556-17.576-15.457-23.375a932.39 932.39 0 0 1-14.747 13.286c4.263 6.083 11.61 15.417 20.143 21.322Zm21.24-23.337c3.09-3.296 6.267-6.638 9.489-10.003-7.839-3.577-15.352-9.742-21.144-15.282-2.183 2.08-4.359 4.133-6.51 6.16 4.494 6.633 10.863 14.518 18.165 19.125Z"/>
  <path fill="#878787" d="M72.909 461.633c-3.006-2.095-5.865-4.584-8.477-7.196-4.895-4.895-8.963-10.227-11.77-14.247-1.176 1.031-2.352 2.063-3.502 3.069-3.93 3.415-5.636 4.69-6.746 5.08 2.85 3.794 6.4 8.018 10.703 12.169 4.323 4.171 8.545 7.703 12.249 10.581.454-1.113 1.773-2.843 5.03-6.594a308.95 308.95 0 0 1 2.521-2.87l-.008.008Zm78.226-117.47c3.346 6.177 8.59 14.672 15.126 21.444a2605.153 2605.153 0 0 1 15.645-14.966c-8.137-3.588-15.963-10.015-21.912-15.728a3790.578 3790.578 0 0 1-8.849 9.261l-.01-.011ZM84.617 448.526c3.082-3.37 6.25-6.806 9.498-10.28-2.838-1.811-5.525-4.06-8.014-6.548-3.99-3.991-7.462-8.54-10.24-12.632a853.701 853.701 0 0 1-6.596 6.123c2.798 5.594 8.202 15.328 15.341 23.326l.01.011Z"/>
</svg>
