<svg xmlns="http://www.w3.org/2000/svg" width="512" height="512" fill="none" viewBox="0 0 512 512">
  <g clip-path="url(#a)">
    <g clip-path="url(#b)">
      <path fill="#fff" d="M162.018 322.29s2.778 6.382 11.92 15.523c9.142 9.142 17.05 13.249 17.05 13.249l34.038-38.859a13.287 13.287 0 0 1 6.126-4.012l20.468-6.338c4.469-1.391 7.941-5.086 9.028-9.622l8.211-34.356c1.084-4.459 4.46-8.131 8.835-9.577l27.352-8.958c4.22-1.364 7.531-4.823 8.724-9.094l8.138-29.203c1.302-4.677 5.156-8.346 9.884-9.439 6.173-1.389 15.007-3.325 22.313-4.771 4.664-.919 8.549-4.359 10.058-8.909 2.592-7.821 5.497-16.993 7.464-23.262 1.432-4.547 5.281-8.063 9.929-9.039l22.098-4.668c4.782-.999 8.733-4.691 10.056-9.426l6.479-22.981c.478-1.739 1.356-3.396 2.513-4.813 0 0 38.054-36.941 44.441-53.045C438 71.082 412.287 81.996 412.287 81.996c-2.845 1.51-5.091 4.016-6.243 7.022l-9.874 25.525c-1.631 4.19-5.316 7.355-9.673 8.264l-22.562 4.76c-4.84 1.021-8.812 4.77-10.079 9.561l-6.429 23.784c-1.329 4.927-5.456 8.719-10.445 9.63l-21.865 3.952c-5.066.913-9.255 4.842-10.51 9.843l-7.177 28.538c-1.21 4.77-5.049 8.573-9.836 9.725l-29.259 6.933c-4.419 1.045-8.071 4.362-9.534 8.681l-10.698 31.392c-1.461 4.242-5.015 7.537-9.341 8.636l-22.536 5.736a13.305 13.305 0 0 0-5.654 3.058l-38.534 35.234-.02.02Z"/>
      <path fill="#878787" d="M106.746 435.059c2.543-1.353 5.321-2.989 8.228-4.854l-19.755-47.432a109.055 109.055 0 0 0-6.851 8.141l18.378 44.145Zm-20.431-41.347c-10.686 14.804-14.327 27.029-14.327 27.029l20.692 20.693s4.62-1.544 11.437-4.986l-17.802-42.736Zm53.692-40.989s-21.143 6.256-41.463 26.576l-1.093 1.093 20.028 48.103c5.381-3.645 11.112-8.135 16.619-13.642 19.286-19.287 26.576-41.463 26.576-41.463s-5.842-4.33-11.102-9.59c-5.26-5.26-9.59-11.102-9.59-11.102l.025.025ZM84.552 468.219l-31.24.97c-4.727.163-9.293-4.402-9.154-9.155l.965-31.085c.112-3.586 2.985-5.963 6.704-5.464l16.77 1.143 20.544 20.543.87 16.497c.399 3.621-1.943 6.409-5.484 6.526l.025.025Zm86.499-126.047c-48.506-48.505-46.91-108.306-49.689-111.085-15.407-15.408-32.188 65.633 31.476 129.298 63.664 63.664 145.574 47.751 129.298 31.476-4.689-4.69-62.58-1.184-111.085-49.689Z"/>
    </g>
  </g>
  <defs>
    <clipPath id="a">
      <path fill="#fff" d="M0 0h512v512H0z"/>
    </clipPath>
    <clipPath id="b">
      <path fill="#fff" d="M-37.364 382.172 381.404-36.596l168.614 168.614L131.25 550.785z"/>
    </clipPath>
  </defs>
</svg>
