<svg xmlns="http://www.w3.org/2000/svg" width="512" height="512" fill="none" viewBox="0 0 512 512">
  <path fill="#878787" d="M173.48 340.16s11 9.8 6.96 15.4l-5.26 5.38s-2.76 1.6-4.44.56c0 0 6.3-4.38-4.42-14.04-9.88-10.54-12.58-2.92-12.58-2.92-1.06-1.66-.54-5.18-.54-5.18l5.26-5.38c5.52-4.14 15.04 6.16 15.04 6.16l-.02.02Zm-49.74 37.48c5.06 1.4 9.96 2.6 15.1 1.44 1.38-.26 2.74-.24 4.08-.06l-2.08-2.04c-4.5.18-9.84-1.28-12.86-3.66l-4.22 4.3-.02.02Zm9.92 7.42c-4.46 1.02-10.74-.22-14.58-2.66l-4.08 4.16c4.34 1.12 8.58 1.88 13.02.88 4.84-.88 9.64 1.22 13.12 4.54l4.02-4.1c-3.46-2.16-7.48-3.6-11.5-2.82Z"/>
  <path fill="#878787" d="M139.24 381.04c-4.82 1.12-11.9-.46-15.56-3.34l-4.22 4.3c4.62 1.24 9.1 2.14 13.8 1.1 4.6-.84 9.18 1.02 12.62 4.06l2.6-2.66-3.16-3.1c-1.98-.56-4.02-.74-6.08-.34v-.02Zm-.28-5.88-6.52-6.4-4.42 4.5c3.68 1.02 7.28 1.92 10.94 1.9Zm-24.5 11.96-4.3 4.38c3.46.74 6.9 1.08 10.46.28 5.6-1.04 11.16 1.96 14.68 6.18l5.24-5.34c-3.6-2.38-7.82-4.04-12.1-3.22-4.22.96-10.1-.1-13.98-2.28Z"/>
  <path fill="#878787" d="M121.02 393.74c-3.5.8-8.1.2-11.8-1.26l-3.38 3.44c2.9.5 5.8.64 8.8-.04 6-1.1 11.98 2.38 15.42 7.08l-.14.14c-4.08-3.38-9.46-6.32-14.88-5.28-3.04.7-6.96.34-10.36-.74l-.04.04s-1.06 1.02-3.04 3.12c2.32.26 4.66.26 7.06-.28 6-1.1 11.98 2.38 15.42 7.08l-.14.14c-4.08-3.38-9.46-6.32-14.88-5.28-2.56.6-5.74.42-8.72-.3-.88.96-1.9 2.1-3.02 3.4 1.34 0 2.7-.14 4.06-.46 6-1.1 11.98 2.38 15.42 7.08l-.14.14c-4.08-3.38-9.46-6.32-14.88-5.28-1.78.4-3.84.44-5.92.2-.8.94-1.66 1.96-2.56 3.06.22-.04.42-.06.64-.1 6-1.1 11.98 2.38 15.42 7.08l-.14.14c-4.08-3.38-9.46-6.32-14.88-5.28-.88.2-1.84.28-2.82.32-.48.6-.98 1.22-1.5 1.86 4.74.46 9.16 3.4 11.92 7.18l-.14.14c-3.68-3.04-8.42-5.7-13.3-5.44-.64.82-1.32 1.68-2 2.56 3.18 1.26 6.02 3.52 8 6.24l-.14.14c-2.56-2.12-5.66-4.08-8.94-4.96-.5.64-.98 1.28-1.48 1.96-.28.38-.56.7-.84 1.06 2.04 1.28 3.86 2.96 5.24 4.84l-.14.14c-1.78-1.48-3.82-2.84-6-3.86-.9 1.12-1.76 2.18-2.6 3.16 1.38 1.08 2.64 2.34 3.64 3.72l-.14.14c-1.3-1.08-2.76-2.1-4.3-2.98-1.02 1.14-2 2.18-2.92 3.1l11.54 11.32c2.28-2.4 5.24-5.14 9.18-8.22 16.78-13.2 24.08-21.22 24.08-21.22l14.28-14.58c-3.94-3.04-8.92-5.52-13.96-4.56l.02.1Zm-34.94 50.04-11.64-11.4c-6.8 6.24-10.46 6.22-10.46 6.22l-4.18.08-2.2 2.26-6.08 18.04 8.46 8.28 17.92-6.46 2.2-2.26v-4.18s-.1-3.66 6-10.58h-.02ZM62.06 461.7l-4.66-4.58 4.98-12.42 12.12 11.88-12.44 5.12Zm15.16-7.9c-3.16-2.98-9.42-9.1-12.46-12.2l.14-.14c4.28 1.58 7.58 4.64 10.26 8.2.86 1.2 1.64 2.48 2.18 4l-.14.14h.02Zm32.14-121.34.08 4.82 4.94-.04-.08-5.28-4.94.5Zm69.34 67.94.08 4.82 4.94-.02-.08-5.3-4.94.5Z"/>
  <path fill="#878787" d="m190.36 396.86 1.88-1.9-3.42-3.34-1.96 2-9.58-.88-8.76-5.52c.78.08 19.36 2.1 18.76-18.02 0 0-.82-5.66-5.22-12.42l-.08.1-.1.1-5.26 5.38-.24.26c1.66 2.9 4.86 10.06-1.3 14.38-7.86 5.54-15.62-2.02-17.52-3.78-1.9-1.76-5.22-8.36-1.86-14.38-5.94 3.48-12.3.5-14.4-1.56-2.1-2.06-9.5-9.46-4.12-17.44 4.2-6.26 11.44-3.2 14.36-1.6l.24-.26 5.26-5.38.1-.1.1-.08c-6.84-4.26-12.52-4.96-12.52-4.96-20.1-.2-17.74 18.32-17.64 19.12l-5.68-8.64-1.08-9.56 1.96-2-3.42-3.34-1.88 1.9-10.72 1.1-2.58-2.54-3.26 3.32 2.58 2.54.1 10.38-2.2 2.26 3.42 3.34 1.72-1.76 6.68 1.18 57.9 56.74 1.3 6.66-1.72 1.76 3.42 3.34 2.2-2.26 10.38-.1 2.58 2.54 3.26-3.32-2.58-2.54.88-10.74.02.02Zm-82.88-57.58-.12-8.64 8.92-.92.14 9.5-8.94.04v.02Zm69.34 67.96-.12-8.64 8.92-.92.14 9.5-8.94.04v.02Z"/>
  <path fill="#fff" d="m170.56 360.18-.12-1.08s-.1-.92-.18-2.02c-.08-.9-.12-3.48-5.26-8.1l-.06-.06-.06-.06c-4.04-4.3-6.34-4.96-7.36-4.96-1.28 0-3.14.38-3.22.58l-2.04 1.46-8.3 8.24c.44.48.96.98 1.52 1.34 1.24.84 7.5 1.52 14.88-1.18-4.22 6.9-2.24 13.12-.28 15.58.46.56 1.04 1.08 1.58 1.52l9.06-9.82c.1-.34-.14-1.46-.14-1.46l-.02.02Zm249.68-280.3-254.12 252.3c4.3 1.94 8.02 5.78 8.76 6.58 1.08.98 6.48 6.04 8.04 11.3L437.26 94.1s18.96-21.9 24.88-42.56c-20.54 6.3-41.88 28.36-41.88 28.36l-.02-.02Zm-235.92 251.8C256.7 258.6 356.54 154.4 430.04 84.56l.22.22c-69.1 73.16-173.64 175.7-245.94 246.9Z"/>
</svg>
