<svg xmlns="http://www.w3.org/2000/svg" width="512" height="512" fill="none" viewBox="0 0 512 512">
  <g clip-path="url(#a)">
    <path fill="#878787" d="M95.544 413.524c-5.218 16.351-11.638 31.121-21.323 44.33-3.019 4.118-5.948 4.713-10.078.314-3.95-4.197-7.89-8.541-12.233-12.3-5.05-4.377-2.48-7.418.898-10.146 5.903-4.78 12.457-8.686 19.225-12.176 7.25-3.749 14.488-7.575 23.511-10.022Zm-5.702-95.73c-1.032 9.405.954 18.282 5.612 26.531 5.432 9.629 61.018 65.215 70.647 70.647 8.248 4.657 17.137 6.632 26.53 5.611 11.526-1.268 20.223-10.1 21.503-21.548.449-3.927.191-7.799-4.13-9.696-4.86-2.121-9.259-1.089-12.873 2.705-3.288 3.445-1.896 6.812.214 10.381 1.627 2.749 5.993 5.409 4.421 8.147-1.975 3.457-6.991 3.378-11.009 3.715-12.233 1.01-21.682-4.242-29.594-13.119-4.052-4.994-8.182-9.932-12.177-14.96 3.692-4.096 6.891-9.225 6.318-11.436-1.919-7.486-10.818-15.353-8.551-13.108 2.267 2.244-3.895-5.084-11.111-7.362-2.648-.831-4.893.247-6.801 1.953a206.467 206.467 0 0 0-5.129 4.769c-4.859-3.872-9.629-7.856-14.454-11.761-8.889-7.923-14.13-17.362-13.12-29.594.326-4.007.258-9.035 3.715-11.01 2.75-1.56 5.421 2.795 8.148 4.422 3.557 2.121 6.935 3.501 10.381.213 3.782-3.625 4.825-8.013 2.704-12.872-1.885-4.332-5.757-4.568-9.696-4.13-11.447 1.279-20.28 9.977-21.548 21.502Zm-69.692 154.2c-2.255 6.296-3.49 12.962-5.274 19.438-.539 1.953-.516 3.21.325 3.715.505.841 1.762.864 3.715.325 6.476-1.784 13.13-3.008 19.438-5.275 11.784-4.219 14.05-2.311 4.725-13.927-1.583-1.986-7.015-7.418-8.99-8.989-11.615-9.326-9.696-7.071-13.927 4.724l-.011-.011Zm83.553-86.516c-.404 7.811-2.132 15.42-4.029 23.692-.045.202-.112.359.247.246 8.282-1.907 15.88-3.625 23.691-4.029 3.715-.19 5.443-3.243 6.756-5.858 1.212-2.424-.213-3.019-2.783-5.678-1.695-1.762-3.939-3.962-6.161-6.162-2.2-2.222-4.388-4.455-6.162-6.161-2.659-2.57-3.277-3.995-5.678-2.783-2.626 1.324-5.668 3.041-5.858 6.756l-.023-.023Zm-20.111 64.486c4.927-11.279 10.359-22.299 13.871-34.117.46-1.56 1.246-2.839 2.997-3.311 7.093-1.93 14.185-3.815 22.973-4.051-12.446 15.745-25.498 29.112-39.863 41.479h.022Zm-24.307-24.308c11.278-4.927 22.299-10.359 34.117-13.872 1.56-.46 2.839-1.245 3.31-2.996 1.93-7.093 3.816-14.186 4.052-22.973-15.746 12.446-29.112 25.498-41.48 39.863v-.022Zm-19.271 29.863c-2.716-2.042-3.995-3.905-1.234-6.284 2.67-2.29 4.332-8.732 9.213-4.77 6.532 5.297 12.48 11.447 17.934 17.867 3.423 4.029-1.167 6.352-3.804 8.405-2.38 1.841-5.073 4.018-7.474-.538-1.224-2.301-3.457-4.063-5.241-6.072-.101.101-6.038-6.083-9.394-8.608Z"/>
    <path fill="#878787" d="M27.904 460.828c4.097 2.502 8.036 5.297 11.526 8.63l.763.763.763.763c3.345 3.502 6.128 7.43 8.63 11.526 2.144 3.513 3.727 2.177 5.6.123 2.84-3.086 1.931-6.172-.1-9.213-3.412-5.073-13.041-14.702-18.114-18.114-3.019-2.031-6.116-2.929-9.214-.101-2.042 1.886-3.389 3.457.124 5.6l.022.023Zm99.175-77.965c2.526 2.526 4.961 5.163 7.621 7.531 1.537 1.38 2.457 2.458.976 4.433-1.739 2.323-3.019.842-4.287-.427a2295.534 2295.534 0 0 1-16.587-16.587c-1.201-1.201-2.997-2.57-.662-4.32 1.683-1.257 3.03-.988 4.534.74 2.637 3.019 5.622 5.735 8.462 8.574l-.057.056Z"/>
    <path fill="#fff" d="M451.023 41.166c-26.833 26.003-313.439 308.367-315.762 310.6 6.981-.763 23.972 13.759 21.783 23.22 2.526-2.593 281.342-285.584 311.778-316.02 30.436-30.436 27.698-42.243 25.79-44.128-1.515-1.493-16.531.079-43.6 26.317l.011.011ZM308.428 202.773 162.723 348.567l-1.683-1.683c84.776-83.946 207.474-209.157 292.34-290.657-40.75 43.219-102.486 103.788-144.952 146.546Z"/>
  </g>
  <defs>
    <clipPath id="a">
      <path fill="#fff" d="M0 0h512v512H0z"/>
    </clipPath>
  </defs>
</svg>
