<svg xmlns="http://www.w3.org/2000/svg" width="512" height="512" fill="none" viewBox="0 0 512 512">
  <path fill="#fff" d="M469.32 92.72c3.72-15.14-14.38-34-14.38-34s-19.5-17.54-34.48-11.84c28.98 16.02 42.56 33.78 48.86 45.84Z"/>
  <path fill="#878787" d="m464.3 100.92 2-2.04c.72-.92 1.32-1.88 1.82-2.88-5.76-11.84-19.32-30.98-50.32-47.82-.74.44-1.46.94-2.16 1.52l-2.52 2.64c31.56 17.12 45.32 36.36 51.2 48.56l-.02.02Z"/>
  <path fill="#fff" d="m99.56 460.14-3.54-3.44-27.06-26.28-.02.02L65.4 427c-3.34-3.24-8.66-3.16-11.88.16l-1.9 1.96c-3.94 4.06-3.86 10.58.22 14.52l16.56 16.08 14.96 14.5a10.244 10.244 0 0 0 14.5-.22l1.9-1.96a8.409 8.409 0 0 0-.18-11.9h-.02Zm362.84-357.3c-5.6-11.84-19.18-31.48-51.04-48.68l-119.34 124.5s-10.1 9.96-17.42 29.88c-7.32 19.9-20.38 34.26-20.38 34.26l-18.56 21.18-28.56 30.9s-.52.64-1.6 1.92l20.04 19.46c1.24-1.12 1.86-1.66 1.86-1.66l32.6-32.06 18.08-16.58s13.94-13.5 33.66-21.4c19.68-7.92 29.32-18.28 29.32-18.28l121.36-123.42-.02-.02Z"/>
  <path fill="#878787" d="m161.9 343.46 18.28 17.74c1.48-1.56 2.08-2.2 3.48-3.66l-18.22-17.7c-1.42 1.46-2.04 2.08-3.54 3.6v.02Zm-59.48 57.72c-5.72 5.36-11.7 10.9-17.96 16.68l23.66 22.98c5.58-6.44 10.96-12.58 16.14-18.44l-21.84-21.2v-.02ZM130.8 415l-21.2-20.58c-1.78 1.68-3.58 3.38-5.42 5.1l21.68 21.04c1.66-1.88 3.32-3.74 4.94-5.58v.02Zm18.68-20.78-19.66-19.08c-2.08 2.02-4.22 4.06-6.4 6.16l20.1 19.52c2.02-2.24 4.02-4.44 5.96-6.58v-.02Zm26.66-65.38c-2.54 2.66-6.12 6.34-9.02 9.3l18.22 17.68c2.88-2.98 6.46-6.66 9.04-9.28l-18.24-17.7Zm19.74-21.02c-2.66 2.92-9.16 9.78-12.74 13.6l18.44 17.9c3.7-3.7 10.36-10.38 13.2-13.14l-18.9-18.36ZM132.4 413.2c3.24-3.64 6.42-7.2 9.48-10.6l-20.22-19.64c-3.32 3.16-6.78 6.46-10.32 9.8l21.04 20.44h.02Zm49.1-90.02c-1.68 1.78-1.8 1.96-3.7 3.92l18.26 17.72c1.92-1.94 2.08-2.06 3.82-3.8l-18.38-17.84Zm42.24-5.3-19.82-19.24c-1.84 2.12-2.82 3.44-6.4 7.4l19.02 18.46c3.86-3.7 5.14-4.72 7.2-6.62Zm-63.54 27.3c-4.7 4.74 1.54-1.86-3.96 3.56l18.82 18.28c5.26-5.66-1.16.78 3.44-4.06l-18.32-17.78h.02ZM82.68 419.5s-1.88-1.5-4.62 1.32c-1.84 1.9-5.36 5.6-7.44 7.82l27.12 26.32c2.14-2.14 5.76-5.78 7.62-7.68 2.74-2.82 1.2-4.62 1.2-4.62L82.7 419.5h-.02Zm48.86-46.04 19.56 18.98c3.82-4.18 18.8-19.86 22.34-23.66l-18.9-18.36c-3.7 3.64-18.9 19.1-22.98 23.04h-.02Z"/>
</svg>
