<svg xmlns="http://www.w3.org/2000/svg" width="512" height="512" fill="none" viewBox="0 0 512 512">
  <path fill="#878787" d="M81.37 302.161c3.16 3.56 7.16 7.2 12.2 10.68l25.559-26.44c-3.38-4.18-7.62-7.86-11.94-10.96l-25.82 26.72Zm54.679 41.921 17.58-18.18c-4.12-2.22-8.74-5.04-13.06-8.4l-14.76 15.28c4.46 3.94 7.8 7.84 10.24 11.3Zm2.94-27.84c-3.9-3.2-7.48-6.84-10.12-10.88l-16.98 17.58c4.84 2.74 8.94 5.62 12.4 8.52l14.72-15.22h-.02Zm-33.441-41.96c-6.8-4.64-13.54-7.86-17.16-9.46l-17.88 18.5c1.08 3.62 3.66 10.18 9.56 17.3l25.48-26.36v.02Zm4.52 47.66 17.72-18.34c-1.08-1.9-1.96-3.88-2.54-5.94-1-3.46-2.72-6.68-4.88-9.66l-25.1 25.96c2.98 1.92 6.26 3.78 9.96 5.52 1.7.8 3.3 1.62 4.84 2.46Zm144.48-35.24h.02l-15.88-15.68c-8.18-7-26.08 13.12-26.08 13.12l-46.14 47.72s-4.72-1.74-11-5l-18.28 18.9c4.24 6.48 5.34 11.14 5.34 11.14l-6.42 6.64c-3.14 3.26-3.06 8.44.2 11.58l.52.5-.08.08 16.72 15.56.04-.04.7.68a7.395 7.395 0 0 0 10.46-.18l76.64-79.28c20.08-20.78 13.2-25.72 13.2-25.72l.04-.02Zm-191.62.78 6.86-7.1s.04.24.12.66l16.5-17.06c-.48-.2-.74-.3-.74-.3l6.6-6.82-.74-.72c-8.04-7.78-20.86-7.56-28.64.48l-1.12 1.16c-7.88 8.14-7.66 21.14.5 29l.7.68-.04.02Z"/>
  <path fill="#fff" d="m461.588 57.602-.74-.72c-4.08-3.94-10.56-3.82-14.5.24l-204.42 211.46 15.44 15.22 204.5-211.7c3.94-4.08 3.82-10.56-.24-14.5h-.04Zm-327.62 320.98-59.84 61.9c-3.92 4.06-3.82 10.54.24 14.46l1.88 1.82c3.98 3.84 10.3 3.74 14.14-.24l60.3-62.38-16.72-15.56Z"/>
</svg>
