<svg xmlns="http://www.w3.org/2000/svg" width="512" height="512" fill="none" viewBox="0 0 512 512">
  <path fill="#878787" d="m211.991 366.457-38.555 28.641-50.351 47.794a33.516 33.516 0 0 0-7.274 10.05c-4.407 9.394-14.136 27.623-22.994 26.053-27.859-4.922-32.185-35.409-32.185-35.409l113.209-117.832.844.455 37.308 40.228-.002.02ZM86.773 443.08c-2.677 2.638-2.69 6.953-.05 9.631 2.638 2.678 6.953 2.69 9.63.051 2.678-2.639 2.69-6.954.052-9.631-2.639-2.678-6.954-2.69-9.632-.051Zm40.066-47.481a6.816 6.816 0 0 0-.058 11.338c2.236 1.538 5.305 1.563 7.564.052a6.815 6.815 0 0 0 .058-11.337c-2.236-1.539-5.305-1.563-7.564-.053Zm39.223-31.252a6.815 6.815 0 0 0 11.337.058c1.539-2.235 1.564-5.305.053-7.564a6.815 6.815 0 0 0-11.337-.058c-1.539 2.236-1.564 5.305-.053 7.564Z"/>
  <path fill="#fff" d="M458.564 109.1c-6.22-53.02-70.48-67.1-70.48-67.1 17.4 22.74 14.64 45.52 9.32 60.52-3.32 9.36-9.08 17.68-16.44 24.36l-57.54 52.42-129.34 121.08c-1.94 1.8-7.36 8.12-8.92 10.26l-4.16 6.36a9.988 9.988 0 0 0-1.92 5.88v.52l-.02.02 36.4 40.12c24.52-20.46 206.98-172.78 216.72-183.8 10.46-11.8 31.14-29.94 26.36-70.68l.02.04Zm-35.44 59.12c-6.6 8.44-14.26 15.88-23.06 22.16.58-.96-161.9 136.34-161.5 134.5.08-.04 159.16-137.76 159.28-137.78 8.2-6 15.66-13.42 22.08-21.42 12.92-15.96 20.96-36.34 18.42-57.08-1.04-10.36-5.22-20.44-9.48-29.78 5.94 8.42 9.94 19.02 11.78 29.46 3.72 21.34-4.24 43.3-17.5 59.92l-.02.02Z"/>
</svg>
