<svg xmlns="http://www.w3.org/2000/svg" width="512" height="512" fill="none" viewBox="0 0 512 512">
  <path fill="#878787" fill-rule="evenodd" d="m149.149 337.74 3.92 4.06v.02l35.08 36.2c-1.32 7.44-21.34 11.12-21.34 11.12-33.455 8.587-57.912 56.001-62.375 64.654l-.365.706c-5.44 10.42-28.76 27.94-45.58 10.58-19.1-19.72 0-36.98 0-36.98l90.66-90.36Zm30.22 43.86.16-.16a.138.138 0 0 1-.025-.017c-.014-.011-.025-.026-.038-.041a.464.464 0 0 0-.037-.042c-8.54-9-25.72-26.72-34.36-35.48 2.981 5.978 8.06 11.474 12.826 16.632.894.967 1.778 1.923 2.634 2.868 4.14 4.32 9.08 8.74 13.74 12.56a94.75 94.75 0 0 1 1.754 1.292c.954.713 1.915 1.431 2.906 2.088.08.05.15.1.22.15.07.05.14.1.22.15Zm-102.32 73.38a9 9 0 0 0 9-9 9 9 0 0 0-9-9 9 9 0 0 0-9 9 9 9 0 0 0 9 9Z" clip-rule="evenodd"/>
  <path fill="#fff" d="M454.469 40.02s-43.26 13.56-69.46 41.38c-23.38 24.84-9.78 9.94-43.42 58.24-15.16 21.78-42.9 54.7-81.82 95.42-40.68 42.54-90.06 90.62-103.28 103.42l29.18 30.12 2.28-2.26c1.7-1.7 4.46-1.68 6.14.06l.66.68 146.4-140.58s75.72-68.56 82.26-75.42c6.52-6.86 61.26-46.02 31.08-111.08l-.02.02Zm-40.22 103.58c-9.06 8.82-23.42 21.66-32.78 30.4-50.74 46.94-113.92 104.46-163.82 151.9 38.14-36.88 90.8-88.16 128.96-123.78 21.76-20.34 42.24-42.68 64.44-62.48 16-17.66 37.5-36.66 39.58-63.2-.1-3.68-.6-7.44-2.08-10.82l.26-.14c1.56 3.44 2.1 7.22 2.26 10.94-.12 26.82-19.18 48.82-36.84 67.16l.02.02Z"/>
</svg>
