<svg xmlns="http://www.w3.org/2000/svg" width="512" height="512" fill="none" viewBox="0 0 512 512">
  <path fill="#fff" d="m188.64 293.02 31.18 32.04c26.54-23.38 222.24-197.42 239.14-263.8-66.82 15.08-246.22 205.88-270.32 231.76Zm126.58-87.32c-21.22 19.86-64.04 62.06-85.32 80.86 54.38-53.4 111.82-113.32 168.5-163.9l.24.24c-26.8 28.62-54.92 55.9-83.42 82.8Z"/>
  <path fill="#878787" d="M97.08 390.94c-1.4 1.68-2.76 3.3-4.06 4.88-1.12 1.36-.2 3.42 1.56 3.5l36.5 1.7c2.72.12 5.38-.74 7.48-2.44 2.1-1.7 4.4-3.58 6.62-5.4 1.52-1.24.7-3.72-1.26-3.8l-39.14-1.82a9.435 9.435 0 0 0-7.7 3.4v-.02ZM84.8 411.22l32.46 1.52c2.18.1 4.34-.58 6.06-1.94 1.72-1.36 3.42-2.72 5.18-4.12 1.54-1.24.74-3.74-1.24-3.84l-34.08-1.58a8.957 8.957 0 0 0-7.36 3.28c-.92 1.12-1.8 2.2-2.62 3.2-1.12 1.36-.18 3.4 1.58 3.5l.02-.02Zm23.76-33.92c-1.38 1.62-2.72 3.22-4.06 4.78-1.14 1.36-.24 3.44 1.54 3.52l40.4 1.88c3.42.16 6.78-.96 9.4-3.16 1.78-1.5 3.56-3 5.32-4.48 1.48-1.26.64-3.68-1.3-3.78l-43.76-2.04a9.334 9.334 0 0 0-7.54 3.28ZM78.3 413.8l-.28.34c-.68.84-.62 2.06.14 2.84l6.52 6.7c.38.4.9.62 1.44.64l18 .84c.5.02 1-.12 1.4-.44 2.46-1.92 5.22-4.04 8.18-6.36 1.56-1.22.76-3.74-1.22-3.84l-32.42-1.5a2.14 2.14 0 0 0-1.78.8l.02-.02Zm102.98-97.64-6.86-7.04c-1.12.74-2.3 1.6-3.56 2.56-1.66 1.28-.84 3.96 1.26 4.06l9.16.42ZM96.6 426.8l-3.86-.18c-1.94-.1-3 2.24-1.64 3.64l1.74 1.8c.76.78 1.98.88 2.84.22.62-.48 1.32-1.02 2.12-1.62 1.6-1.22.8-3.76-1.2-3.86Zm23.02-62.36c-1.2 1.38-2.38 2.74-3.56 4.1-1.18 1.36-.26 3.46 1.54 3.54l44.9 2.08c3.22.14 6.36-.96 8.78-3.08 1.56-1.38 3.1-2.74 4.6-4.08 1.5-1.34.58-3.66-1.34-3.74l-47.02-2.18c-3-.14-5.92 1.1-7.9 3.38v-.02Zm12.2-13.82c-1.46 1.64-2.94 3.28-4.4 4.94-1.2 1.34-.3 3.48 1.5 3.56l48.14 2.24c3.06.14 6.04-.98 8.26-3.08 2.02-1.92 3.94-3.78 5.72-5.58 1.32-1.32.42-3.56-1.44-3.66l-48.64-2.26a11.62 11.62 0 0 0-9.16 3.82l.02.02Z"/>
  <path fill="#878787" d="m234.72 348.2-17.82-20.4-31.06-31.94-19.9-18.38c2.32-5.68 1.46-12.18-2.82-16.58-5.9-6.08-15.96-5.86-22.48.5-6.52 6.34-7.02 16.4-1.12 22.46 4.26 4.38 10.64 5.42 16.32 3.32l12.6 12.94.04-.04L212 344.82l-.04.04L224.74 358c-2.24 5.64-1.36 12.06 2.9 16.42 5.9 6.08 15.96 5.86 22.48-.5 6.52-6.34 7.02-16.4 1.12-22.46-4.3-4.42-10.76-5.46-16.5-3.28l-.02.02ZM92.56 434.64l-16.98-17.46-.02.04c-4.46-2.88-18.16 6.16-19.44 13.22-1.36 7.66-7.14 29.6-7.14 29.6s22.1-5.16 29.8-6.32c7.1-1.08 16.52-14.52 13.74-19.06 0 0 .02 0 .04-.02Zm-33.54 16.08-1.5.24c1.5-5.98 3.12-11.92 5.42-17.7-.56 5.18-1.6 10.26-2.78 15.28 2.38-.36 4.76-.68 7.16-.92 2.9-.3 5.78-.52 8.7-.58-5.56 1.68-11.28 2.76-17 3.68Z"/>
  <path fill="#878787" d="m202.14 337.6-2.96-3.04c-.36-.36-.84-.58-1.34-.6L154 331.92c-2.96-.14-5.8 1.02-7.84 3.16s-3.98 4.22-6 6.4c-1.16 1.24-.32 3.28 1.38 3.36l50.18 2.34c2.92.14 5.74-1.1 7.64-3.32a73.8 73.8 0 0 0 2.94-3.64c.6-.8.54-1.9-.16-2.62Zm-38.76-19.56c-2.56 2.32-5.28 4.94-8.14 7.76-1.54 1.52-.52 4.16 1.64 4.26l33.44 1.56c2.26.1 3.48-2.6 1.9-4.22l-8.2-8.42c-.44-.46-1.04-.72-1.66-.76l-17.18-.8c-.66-.04-1.3.18-1.78.64l-.02-.02Z"/>
</svg>
