<svg xmlns="http://www.w3.org/2000/svg" width="512" height="512" fill="none" viewBox="0 0 512 512">
  <g clip-path="url(#a)">
    <path fill="#fff" d="M359.787 134.607c-47.565 99.433-125.352 169.48-206.501 236.079 4.851 6.768 10.088 13.537 15.267 20.424 76.759-52.736 113.201-76.913 199.831-171.214C458.986 121.269 488.621 41.151 495.928 16c-36.467 43.65-84.804 85.611-136.141 118.607Zm1.997 3.485c8.073-4.017 16.163-8.011 24.145-12.198 23.988-12.355 46.141-28.299 64.381-48.25l3.665-3.93c-10.166 30.933-28.077 58.613-47.802 84.246-18.539 24.357-39.403 46.794-60.149 69.142-20.687 22.452-41.844 44.669-65.527 64.038-23.57 19.448-48.293 37.362-72.884 55.451 24.095-18.724 48.433-37.174 71.739-56.827 34.779-29.656 64.794-64.55 95.45-98.348 9.874-11.35 19.971-23.306 29.144-35.174 17.519-22.617 33.585-46.654 44.214-73.24-11.542 11.522-24.264 21.914-38.134 30.51-15.405 9.531-31.82 17.108-48.221 24.583l-.021-.003Z"/>
    <path fill="#878787" d="M139.799 330.441c2.756 3.299 2.302 8.207-.998 10.963a7.799 7.799 0 0 1-7.12 1.504c.89 6.353 4.869 12.107 8.815 17.281 2.922 3.909 6.004 7.789 9.154 11.636 2.674 3.362 15.155 19.958 17.633 23.449 2.822 4.094 5.694 8.132 8.639 12.023 3.887 5.218 8.308 10.658 14.156 13.265a7.798 7.798 0 0 1 3.421-6.423c3.564-2.405 8.404-1.479 10.809 2.085 2.405 3.564 1.479 8.404-2.085 10.809-1.956 1.324-4.289 1.612-6.414 1.028-2.269.056-4.675-.096-7.062-.685-8.212-2.021-14.398-8.15-19.978-14.058-2.979-3.206-5.955-6.652-8.888-10.112-4.714 3.289-12.805.186-18.231-7.029-5.425-7.215-6.14-15.845-1.692-19.465-2.511-3.778-4.996-7.594-7.249-11.345-4.127-7-8.31-14.636-7.96-23.095.096-2.456.626-4.799 1.301-6.974.038-2.193.941-4.357 2.768-5.878 3.299-2.756 8.206-2.302 10.963.997l.018.024Zm-26.41 117.519-.129.097c-1.628 1.224-3.85 1.171-5.343-.108-5.021-4.311-10.063-9.43-14.546-15.392-4.483-5.962-8.032-12.315-10.768-18.343-.815-1.79-.249-3.939 1.38-5.163l.128-.097c2.179-1.638 5.225-.904 6.362 1.487 2.64 5.533 5.932 11.253 10.046 16.723 4.113 5.469 8.647 10.182 13.219 14.262 1.969 1.765 1.821 4.884-.358 6.522l.009.012Zm-10.531-22.538c-3.435-4.567-6.513-9.66-9.223-15.141 16.612-10.218 41.389-20.453 41.389-20.453s1.013 3.786 4.29 8.143c3.276 4.357 6.632 6.381 6.632 6.381s-16.733 20.981-31.16 34.104c-4.492-4.121-8.519-8.501-11.919-13.022l-.009-.012ZM65 474.026l-.094.07c-1.242.934-2.865 1.018-3.89.193-3.438-2.769-6.862-6.079-9.83-10.026-2.969-3.947-5.234-8.203-6.928-12.284-.508-1.213.023-2.749 1.265-3.683l.093-.07c1.663-1.251 3.853-.899 4.568.709 1.637 3.738 3.752 7.575 6.474 11.194 2.722 3.619 5.783 6.69 8.907 9.309 1.347 1.132 1.078 3.334-.586 4.585l.02.003Zm-5.979-15.656c-2.008-2.67-3.794-5.655-5.358-8.88 5.089-6.668 16.861-21.444 27.958-30.632 2.756 5.592 5.893 10.787 9.408 15.46 3.514 4.674 7.6 9.083 12.186 13.28-11.916 8.099-29.378 15.308-37.185 18.337-2.644-2.394-5.007-4.927-6.997-7.574l-.012.009Zm-30.763-4.553c4.235-1.902 9.437-2.422 13.273-1.125.059.249.117.498.22.732 1.926 4.658 4.309 8.899 7.1 12.612 2.793 3.713 6.159 7.141 10.088 10.292.217.167.437.313.671.43.182 4.191-1.92 9.274-5.124 12.839-1.156 1.291-3.078 1.636-4.633.862-7.643-3.824-12.974-1.429-16.276-.284l-1.222.423c-1.107-2.082-6.695-1.052-9.61-4.929-2.916-3.877-.376-8.96-2.069-10.602l.746-1.056c1.951-2.769 6.188-8.669 4.602-15.508-.442-1.904.473-3.857 2.263-4.672l-.03-.014Z"/>
  </g>
  <defs>
    <clipPath id="a">
      <path fill="#fff" d="M0 0h512v512H0z"/>
    </clipPath>
  </defs>
</svg>
