<svg xmlns="http://www.w3.org/2000/svg" width="512" height="512" fill="none" viewBox="0 0 512 512">
  <path fill="#878787" d="M123.886 389.34c-3.18-3.7-8.78-4.14-12.48-.96-2.8 2.4-3.4 7.14-2.34 10.46.42-.12.84-.48 1.22-.72.44-.24 2.1-1.68 2.54-2.42-.28-1.5.22-2.88 1.46-3.96a4.44 4.44 0 0 1 3.34-1.04c1.1.12 2.14.62 2.9 1.52a4.437 4.437 0 0 1-.48 6.26c-.78.66-1.62 1.06-2.58 1.1 0 .1-.76 1.3-1.28 1.74-.88.76-1.64 1.2-1.98 1.32-.18.06-.8.4-.98.46.88.42 2.06.72 3 .82 2.34.24 4.76-.44 6.68-2.08 3.7-3.18 4.14-8.78.96-12.48l.02-.02Zm33.659 31.94c-3.6-3.3-9.2-3.06-12.5.54-1.6 1.74-2.42 4-2.32 6.36.1 2.32 1.1 4.46 2.8 6.06.26-.34.52-.7.78-1.04.36-.5 1.72-2.68 1.92-2.96-.42-.64-1.06-1.46-1.1-2.24-.06-1.18.36-2.32 1.16-3.18a4.41 4.41 0 0 1 3.2-1.44c1.1 0 2.2.36 3.06 1.16.88.8 1.38 1.9 1.44 3.08.06 1.18-.36 2.32-1.16 3.18-.64.7-1.46 1.14-2.36 1.34 0 .08-1.16 2.48-1.38 2.8-.34.52-.64 1.06-.9 1.6.5.08 1 .12 1.5.12h.24a8.8 8.8 0 0 0 6.14-2.86c1.6-1.74 2.42-4 2.32-6.36a8.8 8.8 0 0 0-2.86-6.14l.02-.02Z"/>
  <path fill="#878787" d="M152.805 430.72c-.14-1.48-1.36-1.38-1.54-1.44-.02 0-1.24-.26-1.9.5-3.28 4.58-14.94 21.58-27.96 28.08-30.06 14.98-46.02-8.24-46.02-8.24s-13.72-19.02 1.52-36.22c2.86-3.22 13.08-4.54 17.94-4.8 2.22-.12 4.38-.52 6.5-1.22 5.94-1.92 17-5.98 15.9-9.12-1.5-4.28-4.24-1.9-4.24-1.9s-2.3 3.16-7.66 5c-5.36 1.82-25.3 5.2-25.3 5.2s-14.14 1.62-15.94 24.1c-1.78 22.48 19.58 32.72 19.58 32.72s22.98 13.7 47.92-5.72c10.62-8.28 21.32-26.12 21.24-26.92l-.04-.02Zm59.121-63.76 9.72-10.8c-16.1-4.3-30.72-17.36-41.42-29.5l-10.08 10.1c10.64 12.34 25.5 26 41.78 30.2Zm3.8-75.86-2.98 2.98c6.2 14.78 15.7 31.08 29.28 39.44l12.76-14.18c-15.1-4.78-28.82-16.9-39.06-28.24Z"/>
  <path fill="#878787" d="m201.565 378.48 8.9-9.88c-16.32-4.62-31.1-18.16-41.72-30.42l-9.68 9.7c10.76 12.54 25.9 26.52 42.5 30.62v-.02Z"/>
  <path fill="#878787" d="m192.846 388.179 7.24-8.04c-16.64-4.54-31.68-18.4-42.42-30.86l-2.44 2.46c8.82 14.36 21.68 30.4 37.62 36.46v-.02Zm30.3-33.679 5.02-5.58c-14.62-7.04-25.7-22.44-33.34-36.88l-13.18 13.22c10.72 12.22 25.46 25.38 41.52 29.24h-.02Zm9.659-80.521-8.72 8.74c11.28 11.58 25.88 22.76 41.38 24.74l2.18-2.42c-14.72-4.4-26.32-17.4-34.84-31.06Z"/>
  <path fill="#878787" d="m204.426 302.419-8.18 8.18c7.58 14.5 18.64 30.08 33.26 36.82l7.26-8.08c-14.18-7.44-24.92-22.72-32.36-36.92h.02Zm-50.621 50.721-29.54 29.6 4.56 4.32c-22.04 21.24-3.26 34.04-3.26 34.04s13.78 18.04 33.82-5.08l4.54 4.3 27.52-30.58c-15.94-6.4-28.78-22.3-37.64-36.6Z"/>
  <path fill="#878787" d="m211.245 295.58-5.38 5.38c7.36 14.24 18.1 29.68 32.28 36.86l2.56-2.84c-13.58-8.54-23.14-24.66-29.46-39.4Zm44.96 22.16 7.66-8.52c-15.52-2.52-29.96-13.66-41.18-25.12l-5.6 5.62c10.24 11.42 24.06 23.62 39.1 28.04l.02-.02Zm56.86-76.3-18.2-17.24-.12.12-6.38-6.04-54.16 54.28c8.48 13.76 20.12 26.88 34.88 30.86l50.2-55.8-6.38-6.04.12-.12.04-.02Z"/>
  <path fill="#fff" stroke="#fff" stroke-miterlimit="10" stroke-width="1.5" d="M193.06 107.74 176.12 96.1l4.44 22.08 12.5-10.44Zm33.88 4.14.3-23.54-15.32 18.62 15.02 4.92Zm22.18 27.9 13.92-14.68-24.64-2.88 10.72 17.56Zm-81.98-8.3-19.22 9.12 22.94 7.24-3.72-16.36Zm10.12 26.56-7.52 17.76 20.78-9.34-13.26-8.42Zm23.14 20.38 8.66 22.86 8.64-23.06-17.3.2Zm32.22-4.18 19 4.54-8.92-19.84-10.08 15.3Z"/>
  <path fill="#fff" d="M415.4 69.7c-1.5 0-2.78-1.14-2.92-2.66a2.942 2.942 0 0 1 2.64-3.22l16.86-1.62a2.942 2.942 0 0 1 3.22 2.64 2.942 2.942 0 0 1-2.64 3.22l-16.86 1.62h-.28l-.02.02Zm-30.48 7.94c-1.22 0-2.36-.76-2.78-1.98-.54-1.54.28-3.22 1.82-3.74l16-5.54c1.54-.52 3.22.28 3.74 1.82.54 1.54-.28 3.22-1.82 3.74l-16 5.54c-.32.1-.64.16-.96.16Zm-31.9 6.52c-1.38 0-2.6-.96-2.88-2.36-.32-1.6.72-3.14 2.3-3.46l16.6-3.34c1.6-.32 3.14.72 3.46 2.3.32 1.6-.72 3.14-2.3 3.46l-16.6 3.34c-.2.04-.4.06-.58.06Zm-27.64 12.22c-1 0-1.96-.5-2.52-1.42-.84-1.4-.4-3.2 1-4.04l14.48-8.78c1.4-.84 3.2-.4 4.04 1 .84 1.4.4 3.2-1 4.04l-14.48 8.78c-.48.28-1 .42-1.52.42Zm-14.06 26.52c-.46 0-.92-.1-1.34-.32-1.44-.74-2.02-2.52-1.26-3.96l7.76-15.06c.74-1.44 2.52-2.02 3.96-1.26 1.44.74 2.02 2.52 1.26 3.96l-7.76 15.06a2.942 2.942 0 0 1-2.62 1.6v-.02Zm-24.96 20.24c-.94 0-1.88-.46-2.44-1.3-.92-1.34-.56-3.18.78-4.1l14.04-9.48c1.36-.92 3.18-.56 4.1.78.92 1.34.56 3.18-.78 4.1l-14.04 9.48c-.5.34-1.08.5-1.64.5l-.02.02Zm-28.9 10.04a2.97 2.97 0 0 1-2.84-2.12c-.46-1.56.46-3.2 2.02-3.64l16.28-4.7c1.56-.44 3.2.44 3.64 2.02.46 1.56-.46 3.2-2.02 3.64l-16.28 4.7c-.28.08-.54.12-.82.12l.02-.02Z"/>
  <path fill="#fff" d="M416.12 70.48h-.36c-.32 0-.64-.06-.94-.14-.74.94-1.78 1.58-2.98 1.78l-7.28 1.26c-2.66.46-5.2-1.32-5.66-3.98-.46-2.66 1.32-5.2 3.98-5.66l7.28-1.26c.28-.04.56-.08.84-.08 1 0 1.98.3 2.8.9.06.04.1.1.16.14.44-.24.92-.38 1.44-.44l5.2-.5c-.78-1.58-1.9-2.96-3.38-4a10.76 10.76 0 0 0-8.04-1.82l-7.28 1.26c-5.86 1.02-9.8 6.6-8.78 12.46.9 5.24 5.48 8.94 10.62 8.94.6 0 1.22-.06 1.84-.16l7.28-1.26c2.84-.48 5.32-2.06 6.98-4.4.78-1.1 1.3-2.3 1.62-3.56l-5.32.52h-.02Zm27.36-13.68c-4.24-4.02-10.98-3.84-15 .4-1.3 1.38-2.12 3.04-2.54 4.76l4.86-.46c.24-.44.54-.88.9-1.26a6.216 6.216 0 0 1 4.5-1.94c1.54 0 3.06.56 4.26 1.7a6.213 6.213 0 0 1 .24 8.76c-2.34 2.48-6.28 2.58-8.76.24-.02-.02-.04-.06-.06-.08l-5.04.48c.52 1.02 1.18 1.96 2.06 2.8 2.04 1.94 4.68 2.9 7.3 2.9 2.82 0 5.62-1.12 7.7-3.3 4.02-4.24 3.84-10.98-.4-15h-.02Z"/>
  <path fill="#fff" stroke="#fff" stroke-miterlimit="10" stroke-width="1.5" d="M193.06 107.74 176.12 96.1l4.44 22.08 12.5-10.44Zm33.88 4.14.3-23.54-15.32 18.62 15.02 4.92Zm22.18 27.9 13.92-14.68-24.64-2.88 10.72 17.56Zm-81.98-8.3-19.22 9.12 22.94 7.24-3.72-16.36Zm10.12 26.56-7.52 17.76 20.78-9.34-13.26-8.42Zm23.14 20.38 8.66 22.86 8.64-23.06-17.3.2Zm32.22-4.18 19 4.54-8.92-19.84-10.08 15.3Z"/>
  <path fill="#fff" d="M235.88 112.84c-16.74-15.86-43.16-15.14-59 1.58-15.86 16.74-15.14 43.16 1.58 59 16.74 15.86 43.16 15.14 59-1.58 15.86-16.74 15.14-43.16-1.58-59Zm-52.96 20.76c.78 1.6 1.5 3.24 2.04 5-2.84-2.94-4.98-6.36-7-9.86 4.2-.88 8.42-1.66 12.74-1.72-3.14 1.36-6.38 2.28-9.68 3.06.66 1.16 1.3 2.32 1.9 3.52Zm31.32 36.48c-2.86-2.86-5.64-5.8-7.74-9.28 1.56.96 2.96 2.08 4.3 3.24 1.02.88 1.96 1.82 2.9 2.76 1.6-3 3.34-5.9 5.46-8.6-1.16 4.16-3 8.04-4.92 11.88Zm12.38-36.3c-.58-3.36-.7-6.74-.68-10.12-3 .88-6.04 1.58-9.2 1.8 3.12-1.82 6.48-3.02 9.92-4.06l1.34-.4c-.14 4.3-.4 8.58-1.36 12.78h-.02Zm221.92-73.96-37.44 38.4 22 20.86.54.52L470 80.16l-21.46-20.34ZM415.4 69.7c-1.5 0-2.78-1.14-2.92-2.66a2.942 2.942 0 0 1 2.64-3.22l16.86-1.62a2.942 2.942 0 0 1 3.22 2.64 2.942 2.942 0 0 1-2.64 3.22l-16.86 1.62h-.28l-.02.02Z"/>
  <path fill="#fff" d="M443.48 56.8c-4.24-4.02-10.98-3.84-15 .4-1.3 1.38-2.12 3.04-2.54 4.76l4.86-.46c.24-.44.54-.88.9-1.26a6.216 6.216 0 0 1 4.5-1.94c1.54 0 3.06.56 4.26 1.7a6.213 6.213 0 0 1 .24 8.76c-2.34 2.48-6.28 2.58-8.76.24-.02-.02-.04-.06-.06-.08l-5.04.48c.52 1.02 1.18 1.96 2.06 2.8 2.04 1.94 4.68 2.9 7.3 2.9 2.82 0 5.62-1.12 7.7-3.3 4.02-4.24 3.84-10.98-.4-15h-.02Zm-43.78 8.82s.12-.02.18-.04c.72-.92 1.76-1.6 3-1.82l7.28-1.26c.28-.04.56-.08.84-.08 1 0 1.98.3 2.8.9.06.04.1.1.16.14.44-.24.92-.38 1.44-.44l5.2-.5c-.78-1.58-1.9-2.96-3.38-4a10.76 10.76 0 0 0-8.04-1.82l-7.28 1.26c-5.02.86-8.62 5.1-8.92 9.98l6.74-2.32h-.02Zm16.42 4.86h-.36c-.32 0-.64-.06-.94-.14-.74.94-1.78 1.58-2.98 1.78l-7.28 1.26c-1.08.18-2.12 0-3.04-.48l-6.34 2.18c2 2.6 5.12 4.24 8.52 4.24.6 0 1.22-.06 1.84-.16l7.28-1.26c2.84-.48 5.32-2.06 6.98-4.4.78-1.1 1.3-2.3 1.62-3.56l-5.32.52.02.02Zm-47.24 3.74c.34-.06.68-.08 1.02-.04.7-.78 1.64-1.34 2.76-1.54l7.28-1.26c.28-.04.56-.08.84-.08.68 0 1.32.16 1.92.4.3-.22.62-.42 1-.56l5.36-1.86c-2.4-2.86-6.2-4.42-10.1-3.74l-7.3 1.26c-4.54.78-7.9 4.32-8.74 8.58l5.96-1.2v.04Zm17.26 4.02c-.34.12-.68.16-1.04.18-.68 1.32-1.92 2.32-3.5 2.6l-7.28 1.26c-1.34.24-2.64-.08-3.64-.8-.1.04-.2.08-.32.1l-6.22 1.24c1.9 3.3 5.44 5.42 9.34 5.42.6 0 1.22-.06 1.84-.16l7.28-1.26c2.84-.5 5.32-2.06 6.98-4.42 1.26-1.8 1.92-3.88 1.96-6.02l-5.4 1.86Zm-31.74 6.52a4.857 4.857 0 0 1-3.34 2.32l-7.28 1.26c-.84.16-1.68.06-2.42-.22l-5.58 3.38c1.94 1.74 4.48 2.78 7.18 2.78.6 0 1.22-.06 1.84-.16l7.28-1.26c4.84-.84 8.36-4.78 8.88-9.44l-6.54 1.32-.02.02Zm-16.48-3.32c.26-.16.54-.26.8-.36.7-1.22 1.9-2.12 3.38-2.38l7.28-1.26c.28-.04.56-.08.84-.08.58 0 1.14.1 1.66.3.14-.04.26-.1.4-.12l6.82-1.36c-2.32-3.36-6.44-5.28-10.72-4.54l-7.28 1.26c-5.7.98-9.56 6.3-8.84 11.98l5.66-3.42v-.02Zm-4.1 12.08c-.06-.24-.16-.46-.22-.7l-5.46 3.3c-.06.82-.3 1.6-.74 2.3l-4.02 6.22c-.18.28-.38.54-.62.76-.06.42-.18.82-.38 1.22l-3.16 6.14h.02c3.54 0 7.02-1.74 9.08-4.92l4.02-6.22a10.75 10.75 0 0 0 1.48-8.12v.02Zm-21.62 16.54 2.88-5.6c-.9-1.54-.96-3.52.08-5.12l4.02-6.22c.7-1.1 1.8-1.84 3.08-2.12.1-.02.2 0 .3-.04.24-.28.52-.54.86-.74l5.74-3.48-.02-.02a10.75 10.75 0 0 0-8.12-1.48c-2.82.6-5.22 2.26-6.78 4.68l-4.02 6.22c-2.94 4.54-1.98 10.46 1.98 13.92Zm-14.16 17.72c.06-1.16.5-2.24 1.3-3.08l5.08-5.36a4.86 4.86 0 0 1 3.56-1.52h.22l2.8-5.44c-3.76-1.1-7.96-.14-10.84 2.88l-5.08 5.36c-1.98 2.1-3.02 4.82-2.94 7.7.02 1.06.26 2.06.58 3.04l5.34-3.62-.02.04Zm19.04-10.82-2.42 4.72c-.4.78-1.06 1.34-1.82 1.68-.14 1-.56 1.94-1.28 2.7l-5.08 5.38c-.82.88-1.92 1.36-3.04 1.48-.24.34-.56.66-.92.92l-5.14 3.48c1.7 1.02 3.62 1.56 5.54 1.56 2.86 0 5.7-1.12 7.82-3.36l5.08-5.38c1.98-2.08 3.02-4.82 2.96-7.7a10.81 10.81 0 0 0-1.68-5.44l-.02-.04Zm-57.76 36.64s-.14.18-.22.28c-1.68 1.76-4.5 1.86-6.26.16-1.78-1.68-1.84-4.5-.16-6.28.86-.92 2.04-1.38 3.22-1.38.32 0 .64.04.96.12l5.56-1.6c-.16-.16-.28-.36-.44-.5-3.54-3.36-9.16-3.2-12.52.34-3.36 3.54-3.2 9.16.34 12.52 1.7 1.62 3.9 2.42 6.08 2.42 2.34 0 4.7-.92 6.42-2.76a8.648 8.648 0 0 0 2.32-4.84l-5.32 1.54.02-.02Zm13.06-11.3c.5-.92 1.28-1.66 2.26-2.1l6.74-3.02c.64-.3 1.32-.42 2-.42.46 0 .92.06 1.34.2l5.44-3.68c-3.06-2.46-7.36-3.18-11.18-1.46l-6.74 3.02c-2.62 1.18-4.64 3.3-5.66 6-.42 1.08-.6 2.22-.66 3.34l6.46-1.86v-.02Zm21.62-2.58-5.84 3.94c-.14.1-.3.14-.44.22-.5.94-1.26 1.74-2.32 2.22l-6.74 3.02c-1.16.52-2.42.56-3.62.14-.18.08-.38.18-.58.24l-6.26 1.8c1.2 1.52 2.76 2.72 4.62 3.44a10.576 10.576 0 0 0 8.24-.24l6.74-3.02c4.6-2.06 7.04-6.98 6.18-11.74l.02-.02Z"/>
  <path fill="#878787" d="m411.945 106-115.66 116.78 18.12 17.18 110.4-121.76-12.86-12.2Z"/>
</svg>
