<svg xmlns="http://www.w3.org/2000/svg" width="512" height="512" fill="none" viewBox="0 0 512 512">
  <g clip-path="url(#a)">
    <path fill="#878787" d="m42.63 472.21 9.48 9.481s-4.6 6.415-11.257 6.734c-11.513.345-17.724-7.015-16.1-18.401.83-5.149 5.992-9.698 5.992-9.698L42.63 472.21Zm49.567-68.888 17.021 17.02c-3.706 2.173-6.977 3.834-10.862-.051-2.364-2.364-5.686-3.795-9.11-4.434-2.084-.396-2.8-1.086-1.38-3.041 1.993-2.735 3.002-5.993 4.318-9.482l.013-.012Zm-13.124 20.049c1.776-2.16 3.182-3.745 4.434-5.431.665-.895 1.342-1.368 2.466-1.24 4.997.524 9.112 2.901 12.881 6.032.435.357.767.792.524 1.444-.537 1.38-6.287 4.012-7.603 3.284-3.757-2.07-7.82-3.221-12.702-4.089Zm12.229 6.606c-1.355 2.07-3.501 3.271-5.252 4.894-.78.729-1.546.984-2.645.422-3.386-1.725-7.003-2.862-10.874-3.489 4.472-7.59 10.708-8.101 18.796-1.827h-.025Zm-25.582 8.868c3.642-5.558 11.258-6.376 16.344-2.006.715.614.881 1.035.255 1.61-2.172 1.968-3.654 5.112-7.73 3.029-2.684-1.38-5.866-1.776-8.882-2.62l.013-.013Zm-6.326 6.479c3.86-5.52 8.025-5.75 16.484-1.073-.472 1.571-2.044 2.223-2.964 3.399-1.674 2.159-3.348 2.325-5.776.817-2.313-1.444-5.111-2.121-7.744-3.143Zm-7.846 8.306c5.585-6.888 6.722-7.284 13.073-4.383 1.226.562 4.05.882 3.041 2.607-1.176 1.993-2.875 5.073-6.12 3.999-3.08-1.035-6.109-2.019-9.994-2.223Zm9.086 4.357c-3.859 9.379-9.916 3.91-15.449 2.287 3.527-5.571 9.226-6.363 15.45-2.287Zm-7.13 8.153c-5.763 7.986-6.044 7.092-13.11.153-.474-.6-.96-1.112-.358-1.789.97-1.073 2.057-1.878 3.641-1.904 2.288-.038 6.326 1.342 9.814 3.553l.013-.013Z"/>
    <path fill="#878787" d="M26.963 485.167c.754.754 1.546 1.495 2.275 2.274.575.626 2.134.754.805 2.415-.869 1.099-2.02 1.764-3.092 1.406-2.85-.958-4.805-2.888-5.661-5.814-.332-1.125.421-2.211 1.495-3.054 1.418-1.112 1.674.064 2.21.652.652.702 1.278 1.456 1.904 2.185l.064-.064Zm1.01-95.34c-22.567 24.407-2.441 72.594-2.441 72.594l5.162-5.265 6.249 6.249s-10.35-37.926 7.5-55.573c15.105-14.925 31.934-19.231 31.934-19.231l-14.146-14.146s-15.78-4.613-34.258 15.372Zm19.563-6.351c-15.065 10.21-25.416 27.844-23.946 46.335-4.396-21.417 10.72-43.255 30.668-50.449a51.411 51.411 0 0 0-6.722 4.114Zm16.881-11.206 75.852 75.852s33.965-40.481-.715-75.136c-37.939-37.939-75.137-.716-75.137-.716Zm66.92 4.894c-13.928-12.88-36.086-16.484-52.442-6.133 18.311-14.606 46.194-7.22 58.231 11.896a51.531 51.531 0 0 0-5.789-5.788v.025Z"/>
    <path fill="#fff" d="M148.064 378.02s-2.863-4.089-6.185-7.386c-3.322-3.296-7.386-6.184-7.386-6.184S493.348 11.627 497.117 15.396c3.77 3.77-349.053 362.624-349.053 362.624Z"/>
  </g>
  <defs>
    <clipPath id="a">
      <path fill="#fff" d="M0 0h512v512H0z"/>
    </clipPath>
  </defs>
</svg>
