<svg xmlns="http://www.w3.org/2000/svg" width="512" height="512" fill="none" viewBox="0 0 512 512">
  <path fill="#fff" d="M448.964 36s-49.38 96.36-217 224.1l-81.02 55.34c7.76 4.26 18 12.5 19.92 26.78l1.8 1.26 37.06-25.18 66.88-45.46s183.62-127.76 192.92-174.26c9.32-46.48-20.56-62.58-20.56-62.58Zm6.46 52.22c-14.6 62.18-137.14 138.24-188.98 178.2-19.2 14.12-38.62 28.04-56.8 43.48-4.48 3.9-8.9 7.92-12.66 12.54-1.1 1.48-2.54 3.18-2.72 4.98l-.36.14c-.08-1.24.52-2.04.98-2.94 1.56-2.58 3.56-4.84 5.62-7.02 8.26-8.66 17.66-16.12 26.94-23.62 37.34-29.74 76.42-57.28 114.04-86.6 34.8-28.34 96.54-76.94 112.16-119.58 2.04-7.54 2.14-15.7-.54-23.18l.36-.14c3.3 7.34 3.6 15.84 1.96 23.74Z"/>
  <path fill="#878787" fill-rule="evenodd" d="M127.633 329.751c-6.869 4.446-14.946 9.971-23.356 16.347 8.184 3.742 13.02 10.687 15.843 16.959 1.597 3.549 2.556 6.897 3.116 9.357.091.396.171.77.241 1.117 9.353-6.6 16.791-11.764 22.704-15.8a49.198 49.198 0 0 0-3.553-11.683c-2.725-6.056-7.32-12.653-14.995-16.297Zm-47.466 36.623c7.541-7.118 15.498-13.704 23.203-19.586 8.184 3.55 13.014 10.405 15.838 16.68a49.222 49.222 0 0 1 3.375 10.695l-1.779 1.257c-7.124 6.139-12.97 11.759-17.759 16.88a35.638 35.638 0 0 0-.513-1.839 41.81 41.81 0 0 0-3.424-8.032c-3.34-5.99-9.129-12.762-18.941-16.055Zm-.825.782c-7.116 6.781-13.836 14.034-19.595 21.613 7.462 1.653 14.162 6.253 19.435 11.041 3.793 3.444 6.876 7.011 9.01 9.715.236.298.46.586.671.862 3.027-4.928 7.32-10.65 13.364-17.206a33.534 33.534 0 0 0-.651-2.427 40.8 40.8 0 0 0-3.341-7.838c-3.315-5.944-9.074-12.633-18.893-15.76ZM44.284 416.8c3.076-9.323 8.293-18.446 14.798-27.149 7.384 1.507 14.086 6.048 19.428 10.899 3.74 3.397 6.786 6.919 8.897 9.595.323.408.623.797.9 1.162-3.95 6.648-5.555 11.799-6.074 15.561a24.04 24.04 0 0 0-1.707-1.325c-1.971-1.398-4.951-3.11-9.007-4.385-6.634-2.086-16.112-2.993-28.712.505a103.69 103.69 0 0 1 1.477-4.863Zm-1.78 5.987c-4.06 15.411-2.754 26.505.858 34.463 3.252-6.945 7.303-11.683 11.684-14.824 5.396-3.87 11.254-5.289 16.644-5.468 5.386-.179 10.315.881 13.881 1.978l.362.113.254.081a54.733 54.733 0 0 0-3.203-4.31s-1.273-2.16-.887-6.735l-.04-.037a21.757 21.757 0 0 0-2.11-1.69c-1.897-1.345-4.784-3.006-8.728-4.246-6.533-2.054-16-2.963-28.716.675Zm14.76 49.653c-4.706-2.756-9.893-7.142-13.34-14.014 3.247-7.229 7.33-12.05 11.705-15.187 5.203-3.731 10.857-5.108 16.094-5.282 5.241-.174 10.056.858 13.554 1.935.637.196 1.23.393 1.772.585 7.249 11.782 4.492 20.218-.87 25.976 1.027-2.112 1.247-4.315.318-6.205-1.08-2.197-3.443-3.422-6.258-3.715-2.824-.293-6.18.336-9.419 1.928-3.238 1.592-5.786 3.866-7.278 6.281-1.488 2.408-1.96 5.027-.88 7.224.805 1.639 2.326 2.738 4.215 3.311a20.802 20.802 0 0 1-9.613-2.837Zm24.892-2.433c-1.3.961-2.64 1.81-3.952 2.553-.871.493-1.77.92-2.687 1.28-2.301.778-4.553 1.047-6.494.846-2.617-.272-4.59-1.383-5.464-3.161-.874-1.778-.549-4.02.834-6.258 1.378-2.231 3.772-4.387 6.868-5.909 3.096-1.522 6.266-2.101 8.874-1.83 2.617.272 4.59 1.383 5.464 3.161.874 1.778.55 4.019-.834 6.257-.652 1.057-1.533 2.097-2.609 3.061Zm46.459-140.89c7.631 3.829 12.21 10.486 14.925 16.52 1.597 3.549 2.556 6.897 3.116 9.356.185.81.326 1.524.433 2.119 12.073-8.223 17.53-11.558 19.975-12.852-1.26-14.98-12.48-22.82-19.82-26.36h-.02c-2.157 1.194-9.159 5.14-18.609 11.217Zm-5.151 16.163a3.92 3.92 0 1 0 0-7.84 3.92 3.92 0 0 0 0 7.84Zm-42.4 35.04a3.92 3.92 0 1 1-7.84 0 3.92 3.92 0 0 1 7.84 0Zm-27.4 55.06a3.92 3.92 0 1 0 0-7.84 3.92 3.92 0 0 0 0 7.84Z" clip-rule="evenodd"/>
</svg>
