<svg xmlns="http://www.w3.org/2000/svg" width="512" height="512" fill="none" viewBox="0 0 512 512">
  <g clip-path="url(#a)">
    <path fill="#878787" d="M334.264 186.029 30.674 492.438c-3.358 3.386-8.836 3.4-12.207.028-3.372-3.371-3.358-8.849.028-12.206l306.409-303.591 9.36 9.36Zm98.683-100.122s71.854-71.106 68.454-74.506c-2.926-2.926-75.981 66.98-75.981 66.98l5.874 1.56 1.646 5.96.007.006Z"/>
    <path fill="#fff" d="M326.205 174.275a4.156 4.156 0 0 1-.004-5.877 4.155 4.155 0 0 1 5.877.003l10.453 10.453a4.155 4.155 0 0 1 .004 5.877 4.155 4.155 0 0 1-5.877-.004l-10.453-10.452Zm19.195 3.062 85.534-89.417-1.646-5.96-5.881-1.566-90.121 84.83 12.114 12.113Zm61.401-36.959c-3.588-1.516-6.47 1.424-5.91 5.824.216 1.696-2.717-5.881-7.433-4.688-4.687 1.194-3.58 6.859-3.58 6.859l-14.134.201 52.207-53.889s-.482 26.434 1.854 39.712c5.701 32.502-13.263 53.292-13.306 52.358-1.1-24.048-8.462-40.467-8.462-40.467s2.897-4.177-1.236-5.924v.014Zm-2.373-5.995a2.494 2.494 0 0 0 0-3.523 2.495 2.495 0 0 0-3.522 0 2.494 2.494 0 0 0 0 3.523c.97.97 2.552.97 3.522 0ZM390.733 17.497c13.825 22.854 11.079 36.01 11.079 36.01s-4.407.18-4.954 4.953c-.596 5.155 4.22 6.794 4.22 6.794s-10.273 5.14-5.046 13.486c5.233 8.354 13.127 1.927 13.127 1.927l7.368 2.969-50.646 47.541s-.417-4.961-4.062-5.974c-4.414-1.222-6.8 2.631-6.8 2.631l-31.819 1.351S375.471 85.9 390.733 17.497Zm1.316 48.547a1.498 1.498 0 0 0 0-2.113 1.497 1.497 0 0 0-2.114 0 1.498 1.498 0 0 0 0 2.114 1.497 1.497 0 0 0 2.114 0Zm9.554 24.407a2.494 2.494 0 0 0 0-3.522 2.494 2.494 0 0 0-3.522 0 2.494 2.494 0 0 0 0 3.522c.97.97 2.552.97 3.522 0Zm-12.156-5.96c.97-.97.97-2.552 0-3.522a2.495 2.495 0 0 0-3.523 0 2.494 2.494 0 0 0 0 3.522c.97.97 2.552.97 3.523 0Zm-34.091 38.533c.611-.611.619-1.61.008-2.221a1.578 1.578 0 0 0-2.229 0 1.562 1.562 0 0 0 .007 2.221 1.559 1.559 0 0 0 2.214 0Z"/>
  </g>
  <defs>
    <clipPath id="a">
      <path fill="#fff" d="M0 0h512v512H0z"/>
    </clipPath>
  </defs>
</svg>
