<svg xmlns="http://www.w3.org/2000/svg" width="512" height="512" fill="none" viewBox="0 0 512 512">
  <path fill="#878787" d="m81.78 445.18-18.9 16.52c1 2.32 3.8 7.4 10.14 11.5l19.06-16.82c-5.9-3.8-8.92-8.38-10.3-11.2ZM68.24 467.7l-1.56-6.88 5.94 2.52 1.82 6.52-6.22-2.16h.02Zm5.64-5.54-1.56-6.88 5.94 2.52 1.82 6.52-6.22-2.16h.02Zm6.14-5.76-1.56-6.88 5.94 2.52 1.82 6.52L80 456.4h.02Zm-18.72 6.7-3.82 3.34c1.4 2.76 4.5 7.42 10.7 11.06l3.3-2.9c-6.04-4.02-8.94-8.8-10.18-11.48v-.02Zm24.86-21.72-2.78 2.44c1.2 2.56 4.12 7.36 10.28 11.2l2.86-2.52c-5.88-3.74-8.92-8.26-10.36-11.12Zm70.82-42.22 5.52-4.86-10.52-10.46-5 4.38c1.22 2.56 4.08 7.2 10.02 10.96l-.02-.02ZM111 419.66l-18.86 16.48c.98 2.28 3.74 7.32 10 11.4l19.24-16.96c-5.78-3.64-8.84-8.04-10.36-10.94l-.02.02Zm2.8 6.68 1.82 6.52-6.22-2.16-1.56-6.88 5.94 2.52h.02Zm-15.88 15.22-1.56-6.88 5.94 2.52 1.82 6.52-6.22-2.16h.02Zm5.6-5.14-1.56-6.88 5.94 2.52 1.82 6.52-6.22-2.16h.02Zm-12.98 1.1-2.82 2.46c1.26 2.62 4.22 7.36 10.34 11.12l2.5-2.2c-5.94-4-8.8-8.72-10.02-11.4v.02Zm49.78-43.5-3.84 3.36c1.36 2.7 4.34 7.22 10.26 10.82l3.44-3.04c-5.74-3.88-8.58-8.44-9.86-11.14Zm5.08-4.42-3.5 3.06c1.06 2.38 3.84 7.2 9.84 11.14l3.68-3.24c-5.68-3.72-8.62-8.16-10.02-10.96Zm-10.48 9.16-18.28 15.98c1.56 2.86 4.74 7.2 10.68 10.6l17.86-15.76c-5.7-3.6-8.74-7.94-10.26-10.82Zm3.2 6.04 1.82 6.52-6.22-2.16-1.56-6.88 5.94 2.52h.02Zm-15.8 15.44-1.56-6.88 5.94 2.52 1.82 6.52-6.22-2.16h.02Zm5.82-5.54-1.56-6.88 5.94 2.52 1.82 6.52-6.22-2.16h.02Zm-72.22 53.1-7.3 6.38a3.267 3.267 0 0 0-.12 4.84l4.2 4.08a6.511 6.511 0 0 0 8.86.22l5.04-4.44c-5.96-3.66-9.12-8.12-10.68-11.08Zm113.88-77.34c-2.34-2.16-5.46-5.08-6.9-6.58-2-2.08-6.46-7.26-8.08-9.16l-1.46-1.6a2.918 2.918 0 0 0-4.3 0l-.18.2a3.015 3.015 0 0 0-.02 4.08l4.12 4.6 11.04 10.96h.02l5.1 5.08c1.1 1.1 2.88 1.08 3.96-.04l.1-.12c1.16-1.18 1.12-3.1-.06-4.24l-3.32-3.2-.02.02Zm-54.72 25.62-2.52 2.2c1.34 2.7 4.36 7.28 10.36 10.92l2.82-2.48c-5.76-3.44-8.96-7.66-10.64-10.64h-.02Z"/>
  <path fill="#fff" d="M189.8 373.32a.98.98 0 0 0-.24-.64l-13.36-13.94a.887.887 0 0 0-1.26-.02c-.36.34-.36.9-.02 1.26l13.36 13.94c.34.36.9.36 1.26.02.18-.16.26-.4.28-.62h-.02Zm-26.72.54c.88-.04 2.94-.14 2.94-.14 2.16-.02 4.4-.1 6.66-.14.18-.38.54-.66.96-.74.04-1.56.08-3.06.16-4.36.2-1.56.22-3.34.48-4.92-5.06 4.66-8.9 8.2-11.2 10.32v-.02Zm10.4 7.78c.06-1.8.08-3.96.1-6.14-.52-.14-.9-.56-1-1.1-.88-.02-6.58-.16-6.58-.16-.72 0-2.1-.04-3.28-.04-.8.74-1.38 1.26-1.72 1.58 1.76 2.02 3.7 4.2 4.78 5.36 1.14 1.18 3.46 3.38 5.54 5.32.44-.38 1.16-1 2.14-1.86v-2.94l.02-.02Zm1.8-7.16c-.1.48-.44.86-.88 1-.16 2.1-.32 4.16-.42 6.18-.02.36-.1 1.6-.16 2.64 2.52-2.18 6.5-5.66 11.58-10.08-3.22.46-6.7.38-10.1.28l-.02-.02Zm.1-11.94c-.22.2-.44.4-.64.6.18 3.18.04 6.48-.16 9.8.26.14.48.36.62.62 3.52-.02 7.04.06 10.38.5l.48-.42-10.64-11.1h-.04ZM472.66 55.3s-27.1 35.32-63.86 76.78c-30.9 34.84-69.32 73.88-97.18 101.44-43.56 43.06-103.3 98.64-132.88 125.96l10.72 11.18c30.44-26.68 89.18-78.76 105.96-98.08 22.96-26.46 181.36-164.64 177.24-217.26v-.02Zm-67.24-11.34c-7.62 9.32-20.12 24.4-33.76 40.04-20.62 23.64-44.02 48.52-52.94 58.1-18.52 19.9-75 79.86-117.26 120.02-20.42 19.4-102.7 94.76-102.7 94.76 5.78 10.14 11.78 13.6 11.78 13.6s33.34-28.16 71.1-63.6c42.82-40.2 91.72-89.34 111.5-109.62C323.96 165.68 394.56 83.86 418 56.58c-1.22-2.08-5.94-9.5-12.58-12.6v-.02ZM388.1 77.22l-1.56-6.88 5.94 2.52 1.82 6.52-6.22-2.16h.02Zm8.86-9.88-1.56-6.88 5.94 2.52 1.82 6.52-6.22-2.16h.02Zm7.74-9.7-1.56-6.88 5.94 2.52 1.82 6.52-6.22-2.16h.02Zm19.94-13.72c-2.02-4.72-5.8-7.18-8.48-8.38-1.7-.76-3.68-.26-4.86 1.18-1.08 1.34-2.66 3.28-4.58 5.66 6.46 3.2 11 9.84 12.66 12.58 1.84-2.14 3.3-3.86 4.38-5.1 1.42-1.64 1.74-3.96.88-5.94ZM104.46 376.64s-10.12-8.16-11.94-14.68l4.24-3.26s4.76 8.96 12.18 13.92c0 0-2.72 3.76-4.46 4.02h-.02Z"/>
</svg>
