<svg xmlns="http://www.w3.org/2000/svg" width="512" height="512" fill="none" viewBox="0 0 512 512">
  <path fill="#fff" d="M192.86 352.64s.68-4.14-7.86-13.16c-6.34-6.68-9.02-3.04-9.02-3.04s-5.6-6.16-9.16-2.78c-3 2.86 1.48 9.62 1.48 9.62s.36.6 1.48 1.96c.12-.16.24-.26.34-.34 1.26-1.02 2.56-1.4 3.84-1.32-.76-1.62-1.06-3.02-.78-4.14.04-.14.08-.22.14-.34-.16-.16-.28-.38-.44-.54-1.4-1.42-3.02-3.52-5.12-3.64-.82.04-1.2 1.08-1.34 1.94 0-.92.16-2.12 1.22-2.44 2.52-.36 4.54 1.52 6.46 2.82.16.14.34.26.52.38.1-.04.2-.08.3-.1 2.1-.36 4.14.56 5.92 1.54 5.18 3.64 8.96 9.6 10.52 15.74 4.06 3.3 9.12 7.16 9.32 12.82-.02.8-.34 1.64-1 2.08 2.96-4.16-5.3-10.9-9-13.56-.9-.48-1.88-.98-2.86-1.38.82 1.12 1.54 2.16 2.04 3 1.28 2.14 1.72 4.06 1.28 5.74-.22.84-.62 1.46-1 1.88 3.02 2.9 9.56 8.12 12.28 1.86 2.76-6.34-9.54-14.64-9.54-14.64l-.02.04Z"/>
  <path fill="#fff" d="M186.24 352.8c1.16.26 2.2.68 3.22 1.18-1.6-4.28-4.6-7.86-7.46-11.38-1.68-1.68-4.16-3.28-6.6-3.2 0 0-.22.18-.3.62-.1.58 0 1.86 1.5 4.26 1.7.78 3.42 2.1 5.06 3.48 1.16.96 2.92 2.96 4.56 5.04h.02ZM474.88 60.32 183.8 335.92c.62.46 1.24.96 1.88 1.54 3.28 2.98 5.24 6.14 6.66 8.46.28.44.52.86.78 1.24 1.26 1.94 1.58 3.72 1.66 4.56l2.5 2.16 262-248.68s21.78-23.44 15.6-44.88ZM450 99.68c-7.96 11.5-33.6 34.66-43.76 44.84-40.8 38.56-140.42 132.5-182.74 171.16 57.74-55.12 153.68-148.8 211.24-201.72 9.92-9.5 19.48-19.98 25.62-32.4l.28.12c-2.66 6.46-6.48 12.4-10.64 18Z"/>
  <path fill="#878787" d="M181.88 369.1s4.02-.94 6.3-3.76c1.2-3.48-6.24-11.66-6.24-11.66s-6.24-7.02-10.94-7c0 0-3.52 2.92-4.84 5.88 2.32.36 16.18 14.02 15.7 16.54h.02Zm-72.84 38.1c.56 1.6 1.02 3.22 1.42 4.82 2.78-.28 5.38.34 7.02.94-.5-3.68-1.32-7.54-2.58-11.34l-5.86 5.6v-.02Zm9.04 22.14c.08-1.52.16-3.32.14-5.34-1.2-.54-3.54-1.34-5.94-1.12.4 4.48.4 8.52.26 11.68l5.54-5.22Zm13.8-13c.16-1.82.36-4.6.34-7.94-1.12-.5-3.24-1.24-5.46-1.16.68 4.9.84 9.48.76 13.2l4.34-4.1h.02Zm-21.48 20.24c.4-5.96.48-17.12-2.96-27.84l-5.26 5.02c3.4 10.7 3.38 21.6 2.98 27.76l5.24-4.94Zm15.04-14.18c.26-6.66-.08-17.34-3.68-27.34l-5.26 5.02c3.56 10.04 3.96 20.52 3.7 27.26l5.24-4.94Zm-2.1-28.86c.36.96.7 1.9 1.02 2.86 2.82-.32 5.48.32 7.14.92-.42-3.12-1.08-6.38-2.04-9.62l-6.12 5.84Zm8.86 12.68c-.06-2.06-.18-4.3-.44-6.62-1.12-.48-3.88-1.46-6.84-1.22.66 2.32 1.16 4.62 1.54 6.88 2.22-.12 4.3.42 5.72.96h.02Zm-14 15.62c-.06-2.06-.18-4.3-.44-6.62-1.12-.48-3.88-1.46-6.84-1.22.52 2.36.88 4.68 1.14 6.92 2.36-.22 4.62.36 6.12.94l.02-.02Zm-15.22 21.74c.16-1.82.32-4.46.32-7.64-1.12-.5-3.24-1.24-5.46-1.16.68 4.8.82 9.26.76 12.92l4.36-4.12h.02Zm-38.84 6.52c2 1.44 3.92 3.08 5.26 4.4.6.6 1.44 1.5 2.36 2.54 0-2.64-.26-7.4-1.48-12.78l-6.12 5.84h-.02Zm25 6.5c.08-1.46.14-3.16.14-5.06-1.3-.58-3.88-1.5-6.46-1.08l-.32-1.98c2.58-.4 5.1.28 6.74.9-.06-2.06-.18-4.3-.44-6.62-1.22-.52-4.32-1.64-7.52-1.16 1.8 7.88 1.98 15.48 1.76 20.74l6.08-5.74h.02Zm-11.22-19.68-5.98 5.7c2.2 8.64 1.78 15.96 1.74 16.68 1.62 1.94 3.22 3.98 4.16 5.4.38.58.7 1.14.96 1.64l2.14-2c.36-6.06.36-16.98-3-27.42h-.02Zm10.62 3.58c-.5-3.66-1.3-7.5-2.56-11.28l-6.46 6.16c.48 1.42.92 2.84 1.28 4.26 3.04-.5 5.94.22 7.72.86h.02Zm5.88-19.34c.36.92.68 1.86.98 2.8 2.82-.32 5.48.32 7.14.92-.42-3.1-1.06-6.34-2.02-9.56l-6.12 5.84h.02Zm2.1 28.5c.24-6.66-.14-17.16-3.68-26.98l-5.26 5.02c3.48 9.88 3.92 20.16 3.68 26.92l5.24-4.94.02-.02Zm6.74-15.9c-.06-2.06-.18-4.3-.44-6.62-1.12-.48-3.88-1.46-6.84-1.22.66 2.32 1.16 4.62 1.54 6.88 2.22-.12 4.3.42 5.72.96h.02Zm51.54-39.02c.12-7.1-.54-17.52-4.38-27.04l-5.24 5c3.78 9.62 4.5 19.84 4.38 26.98l5.24-4.94ZM76.18 465.8c-1.76-2.72-6.3-8-8.2-9.88a44.87 44.87 0 0 0-5.3-4.44l-2.6 2.48a6.412 6.412 0 0 0-.22 9.06l6.56 6.92a5.9 5.9 0 0 0 8.32.24l2.52-2.38c-.2-.52-.54-1.16-1.08-2Zm92.74-84.36c.54-6.4.62-17.98-4.02-27.4a.418.418 0 0 1-.12-.08l-4.98 4.76c3.66 10.3 3.98 21.08 3.68 27.82l5.42-5.1h.02Zm11.72-11.06c-.06-.28-.3-1.06-1.34-2.52-.46-.64-1.08-1.42-1.8-2.28-1.26-.32-4.06-.82-7.06-.1.82 5.16.86 10.1.64 13.92l9.56-9v-.02Zm-9.8-11.88c-.94-.86-1.9-1.62-2.84-2.34.92 2.42 1.62 4.88 2.1 7.34 1.96-.44 3.8-.46 5.3-.3-1.74-1.92-3.56-3.8-4.56-4.7Zm-9.3 24.2c-1.12-.5-3.22-1.24-5.46-1.16.58 4.08.78 7.94.78 11.26l4.5-4.24c.1-1.62.18-3.6.18-5.86Zm-23.58-3.12c.78 2.24 1.4 4.5 1.88 6.74 2.76-.26 5.32.36 6.94.94-.58-4.24-1.58-8.72-3.18-13.06l-5.64 5.38Zm9.5 22.06c.04-1.02.06-2.14.06-3.32-1.24-.54-3.68-1.4-6.16-1.1.26 3.86.24 7.34.1 10.08l6-5.66Zm.04-5.48c-.06-2.06-.18-4.3-.44-6.62-1.12-.48-3.86-1.46-6.82-1.22.44 2.38.76 4.7.96 6.94 2.42-.26 4.74.34 6.28.92l.02-.02Zm14-15.62c-.06-2.06-.18-4.3-.44-6.62-1.12-.48-3.88-1.46-6.84-1.22.66 2.32 1.16 4.62 1.54 6.88 2.22-.12 4.3.44 5.72.98l.02-.02Zm-22.18 28.78c.42-5.9.56-17.3-2.98-28.2l-5.26 5.02c3.48 10.88 3.4 22 2.98 28.12l5.24-4.94h.02Zm12.66-43.12c.64 1.5 1.2 3 1.68 4.52 2.82-.32 5.48.32 7.14.92-.5-3.7-1.32-7.58-2.6-11.4l-6.22 5.94v.02Z"/>
  <path fill="#fff" d="M340.02 52.14c0-.74-.66-1.36-1.46-1.36-.6 0-1.12.34-1.34.82-.5.14-.92.46-1.16.88-27.08 2.82-53.32-11.34-53.6-11.5l-.96 1.76c.24.14 22.42 12.12 47.26 12.12 1.1 0 2.2-.06 3.3-.1-24.44 6.86-50.1.08-50.38 0l-.52 1.92c.18.06 11.8 3.12 26.92 3.12 9.18 0 19.62-1.16 29.6-4.8.04 0 .08.02.12.02 1.1 0 1.98-.8 1.98-1.78 0-.12-.06-.24-.08-.34.18-.22.3-.48.3-.78l.02.02ZM358.6 75.6c-2.18-3.08-4.66-6.26-7.44-9.36.04 6.6-.5 12.54-1.2 17.32l8.64-7.96Z"/>
  <path fill="#fff" d="M339.58 53.1c3.4 2.44 6.54 5.16 9.42 8-.28-4.74-.9-9.74-2.04-14.8l-7.38 6.8Zm.82 3.08c4.3 9.44 6.46 19.4 7.48 27.98.82-5.34 1.48-12.32 1.26-20.1-2.66-2.76-5.58-5.44-8.74-7.88ZM93.92 319.96 346.18 87.08c-.9-9.56-3.2-21.32-8.58-32.14L73.42 298.82c4.86 2.62 14.52 9.08 20.5 21.14ZM381.16 34.5c-9.06-10.46-13.58-7.26-13.58-7.26l-5.68 5.24c3.54 2.04 7.9 6.1 10.14 8.52 2.12 2.3 7.16 8.64 9.16 11.86.28.44.48.84.7 1.24l5.66-5.24s2.68-3.92-6.38-14.38l-.02.02Zm-1.66 19.44c-1.94-3.12-6.86-9.32-8.92-11.56-3.82-4.14-7.82-7.16-10.2-8.46l-11.72 10.82c1.52 6.38 2.24 12.66 2.46 18.52 3.4 3.62 6.4 7.36 8.98 11l20.3-18.74c-.22-.46-.5-.96-.88-1.58h-.02Z"/>
  <path fill="#fff" d="M71.04 300.82c-.64-.1-1.02-.1-1.02-.1l-3.48 3.22c-.5.46-.66 1.18-.4 1.82 5.44 13 16.34 19.86 20.1 21.92.76.42 1.72.3 2.36-.28l4.16-3.84s.02-.1 0-.22c-6.2-13.76-17.72-20.52-21.7-22.52h-.02Zm15.22 24.96c-.84.78-5.54-2.96-10.52-8.34-4.96-5.38-8.32-10.36-7.48-11.14.84-.78 5.54 2.96 10.52 8.34 4.98 5.38 8.32 10.36 7.48 11.14Z"/>
</svg>
