<svg xmlns="http://www.w3.org/2000/svg" width="512" height="512" fill="none" viewBox="0 0 512 512">
  <path fill="#878787" d="M138.72 351.7c5.94 2.48 12.38 4.9 19.04 6.96-.02-11.34 1.82-23.3 4.34-34.28-4.2 5-12.76 15.12-23.36 27.32h-.02Zm19.9 19.16c-.48-3.2-.74-6.5-.82-9.88-7.22-2.22-14.2-4.86-20.56-7.56-2.2 2.54-4.5 5.14-6.84 7.82 8.62 3.62 18.36 7.16 28.22 9.62Zm89.74-59.1c-19.46 0-44.54-8.34-61.48-15.82-1.42-.62-3.1-.26-4.1.92-11.22 13.14-16.06 22.22-17.56 23.84-2.98 12.16-5.34 25.86-5.26 38.64 12.02 3.56 24.58 5.82 35.76 5 19.5-16.5 44.78-33.36 65.52-50 1.12-.9.44-2.72-1-2.66-4.12.18-9.18.1-11.86.1l-.02-.02ZM160 361.64c.1 3.34.38 6.62.88 9.76 7.84 1.84 15.7 2.94 23.1 2.86 2.98-2.52 5.98-5.06 9.02-7.64-.76.02-1.52.04-2.3.04-9.88 0-20.48-2.04-30.7-5.02Zm-31.1 1.3c-10.12 11.48-23.8 23.3-34.7 34.42-.96.98-.54 2.6.76 3.02 15.18 5.06 35.54 9.06 49.78 7.6 1.9-.2 3.64-1.04 5.04-2.34 5.26-4.92 9.22-10.1 15.52-15.48-3.12-4.96-5.14-10.72-6.28-16.96-10.58-2.58-21-6.4-30.12-10.28v.02Zm32.4 10.82c1.08 5.54 2.88 10.64 5.58 15.06 4.74-4.04 9.62-8.18 14.6-12.42-6.54-.14-13.36-1.12-20.18-2.64Z"/>
  <path fill="#fff" d="M135.28 412.4c-14.1 0-29.56-4.08-43.36-9.14-3.82 3.94-7.54 7.7-11.06 11.12-33.6 32.74-4.9 44.32-4.9 44.32s9.14.86 16.32-5.64c.42-.38 19.26-16.82 47.2-40.8-1.38.08-2.78.14-4.2.14Zm325.56-289.54c5.32-.82 9.76-1.58 9.76-1.58l-10.64-6.1c-1.44-9.78-4.78-23.8-12.36-33.88 4.32-9.18 11.24-24 11.24-24L439.6 73.52c-2.3-1.56-4.82-2.82-7.64-3.66-9.66-2.88-18.24-3.46-25.36-3.04-2.84-5.64-5.84-13.58-5.84-13.58l-6.18 15.42c-6.2 1.6-9.72 3.56-9.72 3.56s-13.76 9.26-33.7 27.28l-10.94-6.46 4.48 12.44a482.158 482.158 0 0 0-36.6 38.4l-13.16-6.76 7.26 13.8a485.282 485.282 0 0 0-21.56 28.28c-2.6 3.7-5.28 7.42-7.96 11.12l-16.64-8.56 9.58 18.18c-26.38 35.44-55.06 69.44-75.06 92.34 22.7 10.16 56.2 21.44 77.5 11.64 33.44-27.46 64.8-52.42 86.8-68.22l18.1 11.02-7.66-18.3c1.74-1.18 3.42-2.28 4.98-3.26 16.86-10.72 31.34-23.04 43.46-35.24 6.66 3.34 14.22 7 14.22 7l-7.34-14.2c27.1-29.32 40.44-56.06 40.44-56.06s-.04-1.42-.22-3.78v-.02ZM311.24 235.8c4-1.28 8.1-2.08 12.22-2.76-.58-1.26-1.14-2.52-1.64-3.82-4.36-11.4 2.92 1.52 4.56 5.4-5.02.7-10.04 1.3-15.14 1.2v-.02Zm29.3-82.8c-2.58-1.82-5.04-3.78-7.44-5.82-.58 5-1.34 10-2.5 14.9-.18-6.28.32-12.58.94-18.82 4.32 3.66 8.56 7.46 12.18 11.82-1.1-.64-2.12-1.38-3.18-2.08Zm32.36-62.96c4.18 3.82 8.26 7.78 11.74 12.26-1.08-.68-2.06-1.46-3.1-2.2-2.5-1.92-4.9-3.98-7.22-6.1-.78 4.98-1.7 9.94-3.06 14.8.06-6.28.78-12.56 1.64-18.78v.02Zm-1.86 115.86c.92-.88 1.92-1.66 2.86-2.48 2.46-1.98 5.02-3.8 7.64-5.54-4.64-1.94-9.24-4.04-13.64-6.5 6.1 1.54 12 3.76 17.84 6.08-4.7 3.14-9.54 6.18-14.72 8.46l.02-.02Zm16.66-53.68c1.06-4.06 2.58-7.96 4.22-11.8-1.38-.18-2.74-.38-4.12-.66-11.96-2.42 2.84-1.66 6.98-.96-2.1 4.62-4.28 9.18-7.1 13.42h.02Zm30.04-64.8c-11.4 4.34 1.52-2.92 5.4-4.54.7 5.02 1.28 10.04 1.18 15.14-1.28-4-2.08-8.1-2.74-12.22-1.26.58-2.54 1.14-3.84 1.64v-.02Zm10.7 62.46c.92-.88 1.92-1.66 2.86-2.48 2.46-1.98 5.02-3.8 7.64-5.54-4.64-1.94-9.24-4.04-13.64-6.5 6.1 1.56 12 3.76 17.84 6.08-4.7 3.14-9.54 6.18-14.72 8.46l.02-.02Z"/>
</svg>
