<svg xmlns="http://www.w3.org/2000/svg" width="512" height="512" fill="none" viewBox="0 0 512 512">
  <path fill="#fff" d="M368.4 86.58c-7.08 35.26-46.26 96.92-93.24 150.06-49.18 55.64-104.9 103.32-120.22 116.14 15.6 7.8 19.92 21.08 21.04 29.22 71.62-57.78 143.92-114.62 191.5-167.66 68.92-76.82 97.6-140.26 97.6-140.26-43.02 30.3-96.68 12.52-96.68 12.52v-.02Zm-95.56 201.04c-27.98 25.78-57.96 51.18-89.82 71.24 60.42-46.46 120.04-95.44 166.78-156.12l.2.14c-22.8 30.74-49.08 58.76-77.16 84.74Zm91.56-136.88c-4.86 7.6-10.4 17.06-15.44 24.46-3.94 5.56-12.6 18.5-16.68 23.64-12.76 17.16-28.4 36.26-42.78 52.2-34.26 37.88-72.4 74.94-114.26 103.22 44.26-36.82 86.54-76.54 125.02-119.42 7.32-8.66 17.78-20.68 24.52-29.62 3.3-4.28 8.68-10.84 11.72-15.24 3.78-5.32 13.3-18.1 16.62-23.56 2.6-4 7.9-12.12 10.5-16.12 3.62-5.84 10.92-18.98 14.44-24.98l.32.16c-3.46 6.18-10.56 19.46-13.98 25.3v-.04Z"/>
  <path fill="#878787" d="M111.48 339.68c1.8.28 6.28.68 9.84-1.76 1.4-.96 2.5-2.26 3.34-3.88l-.24-.16c1.4-3.5.88-7.62-1.78-10.64-3.76-4.26-10.26-4.66-14.5-.9-4.26 3.76-4.66 10.26-.9 14.5 1.2 1.36 2.68 2.3 4.26 2.86l-.02-.02Zm-29.4 82.54c3.06 3.38 4.66 7.42 5.52 11.02.94-.64 1.9-1.32 2.94-2.04-1.86-4.1-5.18-8.92-10.98-11.52-.06.04-.1.08-.16.12.96.74 1.86 1.52 2.68 2.44v-.02ZM62.4 441.1c-1.34-2.34-3.86-3.88-7.44-4.58v.06c-1.92 1.16-9.82 6.48-4.76 12.2 2.48 2.82 7.94 1.56 13.32-.78.26-2.32.08-4.82-1.12-6.9Z"/>
  <path fill="#878787" d="M80.56 423.58c-1.38-1.52-3-2.78-4.82-3.76a.626.626 0 0 0-.2-.1c-5.44-2.46-11.78-1.86-16.24 2.06-3.62 3.2-5.18 7.9-4.7 12.6 4.6.76 7.82 2.66 9.56 5.72 1.54 2.7 1.68 5.84 1.32 8.62 5.3 2.14 11.3 1.46 15.58-2.3 3.36-2.96 4.94-7.24 4.78-11.6-.72-3.62-2.2-7.84-5.28-11.24ZM126.44 335c-.98 1.92-2.32 3.46-4 4.6-1.6 1.1-3.34 1.7-4.98 2.02-1.7 3.38-1.24 7.22 1.58 10.4 3.5 3.98 9.38 4.52 13.6 1.54 2.16-1.64 3.62-4.14 4.32-7.5.22-2.7-.6-5.46-2.52-7.64-2.1-2.38-5.06-3.5-8-3.42Zm25.06 20.64-.04.04c-3.28-1.36-6.44-1.82-9.14-1.32-2 .54-3.66 1.48-4.96 2.84-.24.24-.44.5-.64.76-1.6 2.44-2 5.76-1.34 9.46 13.26 6.02 15.8 16.4 16.12 22.24 3.08 1.9 6.2 3.1 9.06 3.48 2.12.2 5.12.08 7.5-1.56 1.72-1.2 2.9-3.06 3.54-5.56a16.529 16.529 0 0 0 .48-3.04c-.84-7.38-4.7-20.22-20.6-27.34h.02Zm22.1 36.86-1.68-2.04a9.67 9.67 0 0 1-2.7 2.78c-1.56 1.08-3.3 1.6-4.98 1.82l2.98 3.8c.56-1.26 1.34-2.54 2.42-3.66 1.1-1.16 2.44-2.06 3.96-2.72v.02Zm-39.48-37.52 1.24 1.42c.18-.2.34-.42.54-.62 1.32-1.4 2.96-2.42 4.86-3.1l-2.66-3.22c-.9 2.3-2.24 4.14-3.98 5.52Z"/>
  <path fill="#878787" d="M136 369.94c-1.4 1.4-3 2.98-4.8 4.74 8.6 4.62 12.02 11.2 13.32 16.52l4.46-3.3c.16.12.32.22.48.34-.58-5.22-3.26-13.12-13.44-18.3H136Zm53.9 39.34c-1 2-2.36 3.62-4.08 4.82-1.7 1.16-3.54 1.78-5.28 2.08l.08.1c-1.1 3.36-.48 7.18 2.02 10.02 3.76 4.26 10.26 4.66 14.5.9 4.26-3.76 4.66-10.26.9-14.5-2.14-2.42-5.14-3.54-8.12-3.42h-.02Zm-77.56 5.88c-.12-2.54-.68-5.3-2.1-7.86-1.56-2.82-3.98-5.06-7.2-6.7-5.58-2.72-12.34-2.08-17.14 2.14-4.48 3.96-6 10.02-4.54 15.58 5.5 2.86 8.84 7.62 10.8 11.74.08-.06.16-.1.24-.16 5.04 1.56 10.66.62 14.8-3.04 3.44-3.04 5.1-7.3 5.08-11.64.02 0 .04-.04.06-.04v-.02Zm66.74-1.18.2.32c1.74-.18 3.68-.7 5.38-1.88 1.1-.76 2.04-1.76 2.78-2.94l-.24-.46c2.24-3.74 1.96-8.62-1.08-12.06-2.86-3.24-7.28-4.22-11.1-2.86-1.54.56-2.84 1.4-3.9 2.5-1.28 1.36-2.08 2.96-2.56 4.5-.86 3.22-.2 6.78 2.16 9.46 2.18 2.46 5.28 3.6 8.34 3.42h.02Z"/>
  <path fill="#878787" d="m129.66 376.18-.2.2c-4.5-.8-9.24.28-12.86 3.48-3.74 3.3-5.38 8.06-5.02 12.76 3.38.74 6.1 2.26 8.04 4.6 2.32 2.8 3.28 6.34 3.54 9.82 5.02 1.52 10.6.58 14.74-3.06 3.18-2.82 4.84-6.68 5.04-10.7-.84-5.18-3.84-12.3-13.28-17.1Z"/>
  <path fill="#878787" d="M118.06 398.5c-1.82-2.2-4.48-3.56-7.9-4.1-1.78 1.58-3.58 3.2-5.42 4.8 3.2 1.8 5.66 4.16 7.3 7.12 1.34 2.4 1.98 4.94 2.24 7.32.56-.44 1.12-.88 1.7-1.32l5.24-3.88c-.08-3.54-.86-7.22-3.14-9.96l-.02.02Z"/>
</svg>
