<svg xmlns="http://www.w3.org/2000/svg" width="512" height="512" fill="none" viewBox="0 0 512 512">
  <path fill="#fff" d="M257.64 316.7c-2.84-1.16-5.24-2.64-7.26-4.34-1 1.52-3.8 5.28-7.56 6.6.74 4.74-.4 9.76-3.7 13.48-.139.208-.185.285-.38.48-1.52 1.94-2.98 3.66-3.7 6.02-1.9 4.92 4.48 9.18 8.46 6.6 1.86-1.38 2.12-4.48.7-6.46-1.62-2.3-5.04-2.46-5.36.98-.22-3.88 4.06-4.04 6.14-1.58 1.88 2.26 1.94 6.06-.46 8.22-2.5 2.12-6.06 1.46-8.62-.12-2.68-1.68-3.76-5.28-2.78-8.2.32-1.1.8-2.1 1.38-3.02-1.6.5-3.3.54-4.96-.26-4.28-2.46-6.2-9.6-1.78-12.76 5.58-4.24 10.58 1.6 4.62 5.8 1.18-.96 2.3-2.24 2.42-3.76.1-1.48-1.06-2.98-2.54-2.98-2.94-.06-5.86 2.38-6.02 5.24-.12 2.64 1.54 5.94 3.92 7.12 2.44 1.12 5.52-.58 7.4-2.44l.04-.04c5.58-6.04 5.16-15.06.62-21.78 2 2.12 3.38 4.74 4.12 7.52 3.28-1.26 5.8-4.92 6.46-5.96-3.84-3.76-6.1-8.16-7.34-11.78-1.66.22-4.2 1.14-6.44 4.4-3.64 5.3-7.28 3.68-7.28 3.68s-2.78 3.2-.4 5.9c0 0-10.24 5.16-6.86 32.54s-34.52 64.36-55.2 74.54c-10.56 5.2-21.4 15.12-73.96 23.64l-12.08 2.68s-1.9-1.64-3.46 2.42c-.14.36-.34.7-.56 1-.56 1.1-1.7 3.58-1.76 6-.04 1.9.96 3.9 2.48 4.96v.04l1.92 1.34s3.28-.94 4.04-3.66c.76-2.72 17.14-3.6 17.14-3.6s69.6-9.8 99.08-32.86c29.48-23.06 56.56-69.6 56.56-69.6s3.8-8.66.02-13.56c-3.84-1.28-6.96-3.76-10-6.32 2.52 1.54 5.12 2.9 7.9 3.82.26.08.54.16.8.24 1.08-.56 2.56-1.78 1.34-4.04 0 0 1.72-.16 1.12-1.42 0 0-1.32-.64-1.64-.88 0 0 1.6.96 2.22.46.62-.5.7-.94.7-.94s-.62-.62-.34-1.2c.28-.58.36-1.22.36-1.22l2.54-.36c.6 0 .68-1.12.5-1.7l-2.62-8.78.06-.1Zm-61 95.74-1.4-1.44c30.1-29.18 39.64-57.04 39.72-57.32l1.9.64c-.1.28-9.74 28.56-40.22 58.12Zm58.46-92.68c-2.34 1.26-4.96-.44-5.86-2.66 1.36.24 2.9.98 4.12 1.06.02-.74-.14-1.46-.42-2.28 1.44.36 2.32 1.88 2.2 3.36l-.04.5v.02ZM65.72 451.28c-1.02-.12-2.6.18-5.1 1.34-7.66 3.54-12.04 11.52-12.04 11.52s0 8.08 6.42 6.04c4.42-1.4 8.84-5.02 11.16-7.12-2.12-5.1-1.02-9.94-.44-11.8v.02Zm385.24-381.1c-.68-.42-1.82-.42-3.3 0-2 .58-3.46 1.2-5.38 2.3l-.18.72-2.58 5.4c5-4.54 8.88-5.82 10.86-6.14l1.14-1.54c-.06-.18-.22-.5-.58-.74h.02Zm9.22-20.62s-13.04 7.12-17.22 20.28c1.34-.66 2.6-1.14 4.14-1.58 2.12-.6 3.78-.52 4.98.28.3.2.54.42.72.66l10.64-14.38s3.52-5.5-3.28-5.26h.02ZM451.7 74.3v.04s-6.16-.22-14.92 9.98l-8.28 17.3s-41.74 102.42-54.14 114.52c-13.86 13.52-23.68 30.7-59.78 28.1-27.62-2-26.86 4.1-24.98 7.08-1.58-1.6-4.3-3.24-6 2.02-1.18 3.62-1.64 5.38-1.8 6.26 2.16 1.08 4.44 2.54 6.62 4.46.18-.38.38-.48.58-.66 3.48-1.46 7.26-.5 10.86-.56 2.84 0 5.88.48 8.54-.58 2.42-1.18 4.22-4.08 3.82-6.8-.38-3.02-3.7-4.34-6.44-4.34-3.36.18-3.34 4.52-3.04 7.06-.44-2.6-.54-7.16 3.02-7.44 2.04-.04 4.18.4 5.7 1.82 3.26 3.18 1.08 8.8-2.58 10.68-.52.2-1.04.32-1.56.46 1.28 2.42 2.48 4.9 3.24 7.52 3.6 1.42 14.48 5.06 23.86 1.76 11.42-4.04 51.66-22.78 75.56-87.84 23.9-65.08 33.94-90.04 33.94-90.04s1.44-6.3 7.28-12.26c4.74-4.86 1.8-7.7.56-8.58l-.06.04ZM325.94 261.02l-.36-1.96c.32-.06 32.36-6.1 59.48-38l1.52 1.3c-27.62 32.46-60.34 38.6-60.66 38.66h.02Z"/>
  <path fill="#fff" d="M307.24 263.76c-5.54 1.44-11.7-.4-17.14 1.22.06-.02.12-.2.12-.32l-.44.68c2.2 2.22 4.16 5 5.6 8.4.08-.04.14-.08.22-.12l4.38 2.98c.26.18.6-.02.58-.34l-.18-2.48s1.8.54 2.4 1.44c.46.7 1.18-1.24 1.48-2.16-.18.6-.4 1.58-.02 1.58.54 0 3.28-.54 4.14-.06.5.28.72-1.08.82-2.26-.2-2.9-1.06-5.82-1.96-8.56Zm-8.74 6.54c-.04.68-.66 1.58-1.46 1.34.36-.64 0-.88-.1-1.24-.66-1.38-1.24-2.5-1.18-4.32 1.82.7 2.88 2.32 2.74 4.22Z"/>
  <path fill="#878787" d="M268.54 287.8c2.88.2 5.68-.42 8.28-1.58.7-.32 1.4-.68 2.02-1.06 1.04-.92 2.12-1.84 3.24-2.76 1.12-.92.66-2.64-.7-2.84-.8-.12-1.6-.32-2.38-.56 2.86.4 5.7 0 8.38-.96.8-.28 1.6-.64 2.3-1.02.72-.46 1.44-.9 2.2-1.32-2.86-7.04-8.22-10.8-12.54-12.78l-5.56 5.6c-1.36 1.36-.84 3.74 1 4.32 1.46.46 3 .74 4.54.78-2.1.3-4.24.18-6.32-.28s-4.2.2-5.68 1.68l-1.5 1.5c-.96.96-.66 2.64.6 3.14 1.82.72 3.74 1.14 5.7 1.2-2.36.34-4.78.14-7.1-.48-1.46-.38-3 0-4.06 1.06l-2.48 2.5c-1.36 1.38-.92 3.76.88 4.44 1.8.68 3.62 1.06 5.52 1.12-2.32.34-4.68.16-6.96-.42a6.56 6.56 0 0 0-6.3 1.76l-1.92 1.92c-.86.88-.58 2.4.58 2.82 1.72.64 3.56 1.04 5.4 1.08-2.96.42-6.02 0-8.86-1.02l-.42.42c-.8.8-1.06 1.98-.66 3.02 1.76 4.56 5.36 10.38 12.66 13.62.44-.98 1.04-2.22 1.78-3.62.34-.64-.14-1.44-.88-1.38-1.26.08-1.9-.4-3.96-.8 2.88.06 2.82.26 5.36-1 .66-.34 1.32-.72 1.92-1.12.94-1.54 2-3.2 3.2-4.92.46-.66-.12-1.52-.9-1.36-1.72.32-3.46.4-5.18.2 2.88-.16 5.6-1.1 8.04-2.56.62-.38 1.22-.8 1.78-1.22a84.17 84.17 0 0 1 4.86-5.5c.46-.48.1-1.26-.56-1.22-1.78.12-3.58 0-5.3-.42l-.02.02ZM81.4 443.92l21.5-20.76L420.72 94.9s8.66-12.22 16.04-18.82c5.16-4.62 11.28-6.14 12.3-6.3 3.66-.56 2.56 3.88 2.56 3.88s-.62-1.44-2.34-.92c-2.8.84-6.46 3.02-8.32 4.46-3 2.34-13.64 15.3-13.64 15.3l4.04-1.28-2.26 4.48-4.94 1.76s-.58 3.72-3.7 3.92l-246.8 254.5-76.26 78.36s-.08 4.74-4.08 4.46l-4.08 3.42-7.86 1.8h.02Zm-6.32 17.48s-7.16 7.5-8.12-3.28c-.96-10.76 7.2-8.48 7.2-8.48s-6.46 8.16.94 11.74l-.02.02Z"/>
</svg>
