<svg xmlns="http://www.w3.org/2000/svg" width="512" height="512" fill="none" viewBox="0 0 512 512">
  <g clip-path="url(#a)">
    <path fill="#878787" d="m172.036 317.371-4.299-3.309a51.618 51.618 0 0 1-10.403-10.718l-3.179-4.396 146.632-142.327s2.349 4.554 7.954 10.169c5.605 5.614 9.927 8.253 9.927 8.253L172.036 317.371Zm154.504-142.46-.925-.552c-4.727-2.79-9.118-6.114-12.962-10.02l-1.332-1.373c-3.764-3.958-6.969-8.433-9.63-13.255l-.524-.941 79.381-77.05s9.693 1.905 16.732 9.156c7.039 7.252 8.654 16.998 8.654 16.998l-79.381 77.05-.013-.013ZM68.148 378.029l-11.543 11.205c2.286 4.356 5.305 8.933 9.239 12.986 3.933 4.052 8.457 7.246 12.77 9.636l11.544-11.205c-4.286-2.416-8.772-5.57-12.744-9.662-3.972-4.093-6.966-8.591-9.266-12.96Z"/>
    <path fill="#878787" d="m81.052 365.504-11.544 11.205c2.287 4.356 5.306 8.933 9.24 12.986 3.933 4.052 8.457 7.246 12.77 9.636l11.544-11.205c-4.286-2.416-8.772-5.57-12.744-9.662-3.972-4.093-6.966-8.591-9.266-12.96Zm-38.884 37.742-11.704 11.361c2.175 3.921 4.953 7.93 8.46 11.542 4.438 4.572 9.498 7.945 14.23 10.42l11.37-11.037c-4.522-2.472-9.28-5.748-13.486-10.08-3.713-3.826-6.606-8.086-8.87-12.206Z"/>
    <path fill="#878787" d="m55.245 390.553-11.718 11.373c2.238 4.146 5.13 8.406 8.844 12.232 4.205 4.332 8.99 7.609 13.513 10.054l11.37-11.037c-4.286-2.415-8.771-5.569-12.744-9.662-3.972-4.092-6.966-8.59-9.265-12.96ZM37.603 427.43c-3.506-3.613-6.284-7.595-8.486-11.517l-8.158 7.919c-1.972 1.915-2.695 4.558-1.682 6.241l.615 1.034A48.937 48.937 0 0 0 35.64 447.33l1.015.646c1.652 1.062 4.316.419 6.289-1.496l8.864-8.605c-4.732-2.5-9.778-5.913-14.19-10.458l-.014.013Zm56.367-74.464-11.545 11.205c2.287 4.356 5.306 8.933 9.24 12.986 3.933 4.052 8.457 7.246 12.77 9.636l11.544-11.205c-4.286-2.416-8.772-5.57-12.744-9.662-3.972-4.092-6.966-8.591-9.266-12.96Zm13.302-12.913-11.544 11.205c2.287 4.356 5.306 8.934 9.24 12.986 3.933 4.052 8.457 7.247 12.77 9.636l11.544-11.205c-4.286-2.415-8.771-5.57-12.744-9.662-3.972-4.092-6.966-8.59-9.266-12.96Zm13.304-12.913-11.544 11.205c2.287 4.356 5.306 8.934 9.239 12.986 3.934 4.053 8.458 7.247 12.771 9.636l11.544-11.205c-4.286-2.415-8.772-5.569-12.744-9.662-3.972-4.092-6.966-8.59-9.266-12.96Z"/>
    <path fill="#878787" d="m133.866 314.24-11.544 11.205c2.287 4.356 5.306 8.934 9.239 12.986 3.934 4.052 8.458 7.247 12.771 9.636l11.544-11.205c-4.286-2.415-8.772-5.57-12.744-9.662-3.972-4.092-6.966-8.59-9.266-12.96Zm11.012 11.291c3.972 4.093 8.458 7.247 12.771 9.636l9.011-8.746c2.359-2.29 2.854-5.515 1.037-6.987l-4.894-3.975a44.872 44.872 0 0 1-7.297-7.518l-3.828-5.01c-1.404-1.847-4.655-1.462-7.014.828l-9.025 8.76c2.287 4.356 5.306 8.934 9.239 12.986v.026Z"/>
    <path fill="#fff" d="m402.048 80.782 18.68-2.547 27.052-46.037-46.836 25.655-3.129 18.675 4.219 4.266.014-.012Zm2.281-20.829.133-.13c2.66 2.208 5.147 4.584 7.607 7.011 3.738-3.99 9.251-8.98 13.051-12.693 4.621-4.2 9.322-9.36 13.975-13.021-8.635 9.054-17.425 18.855-26.384 27.603l-.706.66c-2.648-3.075-5.295-6.123-7.69-9.417l.014-.013Zm-58.615 40.452 8.703-8.344-.801-14.16-43.132-22.78 21.484 43.792 13.746 1.492ZM335.561 82.61c-4.444-5.084-13.97-14.633-17.409-19.243 5.996 5.778 12.6 12.235 18.582 18.105 1.852 1.8 3.704 3.602 5.463 5.468a197.783 197.783 0 0 1 3.729-3.387c1.503-1.304 3.02-2.596 4.628-3.82l.13.134c-2.586 3.39-5.59 6.59-8.461 9.713-2.318-2.228-4.49-4.599-6.649-6.956l-.013-.014Zm166.809 60.605c-22.794-.786-60.043 2.154-101.224-34.378l-44.016 42.725s27.761 58.1 4.907 105.395c58.033-8.305 119.179-59.707 140.333-113.742Zm-31.218 3.766c-13.147 39.479-55.094 74.653-96.836 78.485 40.947-9.506 78.293-41.018 96.836-78.485Z"/>
  </g>
  <defs>
    <clipPath id="a">
      <path fill="#fff" d="M0 0h512v512H0z"/>
    </clipPath>
  </defs>
</svg>
