<svg xmlns="http://www.w3.org/2000/svg" width="512" height="512" fill="none" viewBox="0 0 512 512">
  <path fill="#fff" d="M227.379 167.34c-65.3 71.38-89.02 111.32-95.7 123.96 13.38 9.62 24.84 21.88 33.02 36.16.22.38.44.78.66 1.16.1.18.2.36.3.52-.04-.04-.06-.08-.1-.14.06.1.08.18.1.28.04.06.1.12.14.2.06.06.08.12.12.18 0 0 18.3 16.92 19.68 17.86.7.48 2.54-1.4 3.78-2.64 1.4-1.42 1.62-3.62.6-5.32l-21.1-34.66 7-8.02c2.34-6.62 2.92-12.4 6.62-17.96 17.16-25.76 40.06-44.46 53.66-54.18 6.56-4.7 13.7-8.48 21.24-11.34l45.24-17.24s58.2-19.24 99.9-55.14c41.7-35.9 75.56-93.02 75.56-93.02s-170.04 31.18-250.7 119.36l-.02-.02Zm-52.1 102.1c-5.46 8.12-13.36 16.48-13.7 26.7 2.48-1.22 4.7-3.14 6.08-5.56 1.52-2.52 1.94-5.52 1.7-8.42l.26-.02c2.3 7.24-2.62 14.68-9.52 17.2l-.64-2.22c-2.4-13.18 20.64-36.96 29.56-46.48 1.82-1.84 3.68-3.66 5.62-5.4l.2.18c-6.86 7.72-13.36 15.76-19.52 24.04l-.04-.02Zm172.16-107.72c-24.04 13.66-50.14 23.16-75.96 32.7l-.16-.4c25.46-10.34 51.08-20.64 74.7-34.72 39.14-24.02 70.96-57.64 103.78-89.36l.32.3c-30.38 34.38-62.28 68.76-102.68 91.48Z"/>
  <path fill="#878787" d="M85.659 453.96c-2.72.2-5.58.34-8.22.14-1.1 0-2.56-.12-3.64-.32l-3.62-.54-3.56-.94c-2.34-.62-4.74-1.58-6.9-2.62-8.88-4.32-15.98-11.56-20.2-20.62a36.31 36.31 0 0 1-4.86 2.66c-2.38 1.04-3.36 3.92-2.12 6.18 15.54 28.06 45.64 26.6 53.08 25.78.92-.1 1.52-1 1.34-1.9-.58-2.82-1.02-5.4-1.32-7.8l.02-.02Z"/>
  <path fill="#878787" d="M165.659 330.36c-4.62-6.92-10.02-13.28-16.14-18.9-5.94-5.54-19.82-14.16-19.82-14.16-1.8-.92-6.38.42-6.38.42 0 10.8-9.7 20.9-9.7 20.9-41.02 47.08-39.54 54.42-52.54 83.14-6.16 13.6-17.8 25.26-17.8 25.26 4.6 13.12 17.02 23.28 30.74 25.7 1.02.26 2.48.5 3.54.58 2.6.38 5.4.46 8.12.46-2.64-20.62 3.82-26.32 3.82-26.32s30.6-33.2 38.88-60.88c8.26-27.66 21.7-30.46 21.7-30.46 8.28-1.4 15.42-5.92 15.58-5.76v.02Zm-88.36 95.2a5.438 5.438 0 0 1-7.68.36 5.438 5.438 0 0 1-.36-7.68 5.438 5.438 0 0 1 7.68-.36 5.438 5.438 0 0 1 .36 7.68Z"/>
</svg>
