<svg xmlns="http://www.w3.org/2000/svg" width="512" height="512" fill="none" viewBox="0 0 512 512">
  <path fill="#878787" d="M138.82 357.42c-1.84 1.96-9.98 10.68-10.1 11.2-.12.6-71.58 72.58-83.96 85.1-6.18 6.26-11.16 9.48-14.58 11.14-2.98 1.44-4.66 4.7-3.94 7.94l.16.76c.6 2.74 2.14 5.2 4.34 6.96l7.06 5.62c2.18 1.74 4.8 2.82 7.56 3.12l.86.1c6.62.72 13.12-2.2 16.98-7.64l1.4-5.42c1-1.42 8.24-7.88 9.52-9.06 7.26-6.74 33.4-31.3 42.92-43.96C140.7 391.8 144 393.82 144 393.82l8.84 3.32a8.5 8.5 0 0 0 8.92-1.88l7.84-7.64-30.8-30.2h.02Zm-84.94 115.9c-1.86 1.82-4.86 1.78-6.68-.08-1.82-1.86-1.78-4.86.08-6.68 1.86-1.82 4.86-1.78 6.68.08 1.82 1.86 1.78 4.86-.08 6.68Zm26.74-26.08c-1.86 1.82-4.86 1.78-6.68-.08-1.82-1.86-1.78-4.86.08-6.68 1.86-1.82 4.86-1.78 6.68.08 1.82 1.86 1.78 4.86-.08 6.68Zm25.6-27.14c-1.84 1.8-4.8 1.76-6.58-.08-1.8-1.84-1.76-4.8.08-6.58 1.84-1.8 4.8-1.76 6.58.08 1.8 1.84 1.76 4.8-.08 6.58Zm23.14-26.46a4.84 4.84 0 0 1-6.86-.08 4.84 4.84 0 0 1 .08-6.86 4.84 4.84 0 0 1 6.86.08 4.84 4.84 0 0 1-.08 6.86Z"/>
  <path fill="#fff" d="M465.4 22.66c-5.52 27.64-71.14 93.5-71.14 93.5L142.98 355.9l22.86 22.42-.48-.9s72.44-68.32 147.5-135.02c61.04-54.26 125.48-105.94 140.64-131.12 33.8-56.16 11.92-88.6 11.92-88.6l-.02-.02Zm-4.52 48.2c-5.1 19.14-16.98 35.72-30.74 49.64-24.5 25.28-50.96 48.54-77.44 71.64-35.12 30.98-71.1 61.06-105.16 93.18-9.56 9.64-19.44 19.32-26.38 31.08-.86 1.68-1.84 3.54-1.88 5.34l-.4.08c3.28-17.88 47.24-55.66 61.9-69.56 23.12-20.84 82.06-73.98 104.28-94.24 11.56-10.48 23.58-23.36 34.94-34.02 17-17 32.96-30.88 39.72-53.48 2.16-7.4 3.56-15.24 2.76-22.94l.4-.08c1.12 7.82 0 15.76-1.98 23.36h-.02Z"/>
</svg>
