<svg xmlns="http://www.w3.org/2000/svg" width="512" height="512" fill="none" viewBox="0 0 512 512">
  <path fill="#878787" d="m90.32 463.5.04-.04-30.56-28.92-.06.06-4.16-3.94c-1.84-1.76-4.76-1.68-6.52.18l-.26.28a4.885 4.885 0 0 0 .18 6.88l38.18 36.14a4.703 4.703 0 0 0 6.64-.18l.52-.54a4.438 4.438 0 0 0-.18-6.3l-3.82-3.6v-.02Zm98.08-104.74-31.04-29.08c-2.22-1.8-5.5-1.62-7.48.5l-.56.6c-1.92 2.04-1.94 5.16-.18 7.26l29.42 27.56.04-.04 2.34 2.14c2.14 1.94 5.44 1.82 7.42-.28l.62-.66c2-2.12 1.88-5.68-.24-7.68l-.32-.3-.02-.02ZM91.7 461.98l85.5-94.9-26.58-24.9-89.42 90.94 30.5 28.86Zm169.32-231.541-99.86 100.08 26.64 24.94 92.62-106.1-19.4-18.92Zm29.38 8.161 54.9-58c-3.5-2.22-9.68-7-17.86-16.72l-55.14 57.06 18.1 17.66Zm1.2 3.98-2.62-2.48.04-.04-21.58-21.04c-2.08-1.2-4.78-.9-6.5.92l-.18.2c-1.96 2.06-1.9 5.26.04 7.3l1.28 1.239.36.341 19.3 18.82.06-.06 3.34 3.16c1.96 1.86 5.44 1.66 7.3-.3l.12-.12c1.92-2.02 1.86-5.18-.08-7.14l-.84-.82-.04.02Zm153.6-159.9-29.34-27.76c-.28-.28-.3-.72-.02-1l1.44-1.54c7.36-7.78 19.64-8.12 27.42-.76l2.24 2.12c7.76 7.34 8.08 19.58.76 27.32l-1.5 1.58c-.28.28-.72.3-1 .02v.02Z"/>
  <path fill="#fff" d="m394.26 40.76-32.78 4.06c2.66 9.88-16.38 37.26-16.38 37.26 13.4 15.38.82 48.12.82 48.12s-12.16-20.58-21.3-4.46c-9.14 16.12 5.66 35.22 5.66 35.22l-.06.06c8.68 10.38 14.96 14.9 17.88 16.66 15.84 8.12 23.86 10.46 35.12 3.82 16.28-9.6-4.3-18.78-4.3-18.78 19.14-19.18 48.08-3.62 48.08-3.62 7.06-10.06 34.46-19.82 34.46-19.82l2.9-32.1-70.14-66.38.04-.04Zm-32.54 59.38c2.32-2.72 4.6-5.5 6.78-8.34 6.7-8.08 10.98-17.6 15.22-27.12 8.16-1.64 16.38-3.1 24.66-3.84l.1.38c-7.14 2.76-14.48 4.92-21.88 6.9-4.84 12.5-13.18 23.16-22.32 32.82 1.06 11.88-1.84 23.72-6.78 34.44l-.36-.16c4.32-11.04 6.42-23.36 4.58-35.1v.02Zm-25.46 50.26c-.84 3-1.42 6.06-2.06 9.14l-.4-.04c.3-7.76.2-20.86 7.58-25.54 4.74-2.26 9.66 1.86 11.06 6.1l-.32.24c-2.34-1.34-5.08-3.18-7.6-2.98-5.42 1.32-6.78 8.28-8.28 13.06l.02.02Zm3.18 14.08c-.24 0-.48-.08-.68-.26-.4-.38-.42-1-.06-1.42l82.7-89.44c.38-.4 1-.42 1.42-.06.4.38.42 1 .06 1.42l-82.7 89.44a.97.97 0 0 1-.74.32Zm4.48 4.24c-.24 0-.5-.08-.68-.28-.4-.38-.42-1.02-.04-1.42l83.74-88.46c.38-.4 1.02-.42 1.42-.04.4.38.42 1.02.04 1.42l-83.74 88.46c-.2.2-.46.32-.72.32h-.02Zm30.34-4.36c-4.2 7.58-17.4 8.26-25.08 8.98l-.06-.4c3.04-.8 6.08-1.56 9.02-2.56 4.68-1.76 11.58-3.5 12.58-8.98.06-2.52-1.92-5.16-3.4-7.42l.22-.34c4.32 1.18 8.7 5.86 6.7 10.72h.02ZM439 117.84c-9.26 4.74-18.54 9.54-26.24 16.68-2.7 2.34-5.38 4.76-7.96 7.22l-.58-.06c-11.66-1-23.62 1.72-34.22 6.56l-.18-.36c7.92-4.26 16.58-7.22 25.54-8.32 2.82-.32 5.58-.5 8.5-.36 4.68-4.84 9.42-9.46 14.66-13.74 5.24-4.12 10.86-7.5 16.86-10.32 1.58-7.44 3.36-14.84 5.72-22.08l.4.08c-.3 8.28-1.32 16.5-2.52 24.7h.02Z"/>
</svg>
