<svg xmlns="http://www.w3.org/2000/svg" width="512" height="512" viewBox="0 0 512 512" fill="none">
    <path fill="#878787" d="m 334.2600000000002 186.029 -303.59 306.409 c -3.35 3.386 -8.83 3.4 -12.2 28 -3.37 -3.371 -3.36 -8.849 3 -12.206 l 306.4 -303.591 9.36 9.36 Z m 98.69 -100.122 s 71.85 -71.106 68.45 -74.506 c -2.93 -2.926 -75.98 66.979 -75.98 66.979 l 5.87 1.56 1.65 5.96 1.007 NaN"/>
    <path fill="#fff" d="M 326.21000000000004 174.27499999999998 a 4.152 4.152 0 0 1 1 -5.877 4.16 4.16 0 0 1 5.88 3 l 10.45 10.453 a 4.143 4.143 0 0 1 0 5.877 4.147 4.147 0 0 1 -5.87 4 l -10.45 -10.452 Z m 19.19 3.062 85.53 -89.417 -1.64 -5.959 -5.88 -1.567 -90.12 84.83 12.11 12.113 Z m 61.4 -36.959 c -3.59 -1.516 -6.47 1.424 -5.91 5.824 22 1.696 -2.72 -5.881 -7.43 -4.688 -4.69 1.194 -3.58 6.859 -3.58 6.859 l -14.14 201 52.21 -53.889 s 48 26.434 1.86 39.712 c 5.7 32.502 -13.27 53.292 -13.31 52.358 -1.1 -24.048 -8.46 -40.467 -8.46 -40.467 s 2.89 -4.177 -1.24 -5.924 v 14 Z m -2.37 -5.995 c 97 971.97 -2.552 0 -3.523 97 97 -2.55 97 -3.52 0 NaN 2.496 2.496 0 0 0 0 3.523 NaN 97.97 2.55 97 3.52 0 NaN NaN -13.7 -116.886 NaN 13.83 22.854 11.08 36.01 11.08 36.01 s -4.41 18 -4.95 4.953 c 6 5.155 4.22 6.794 4.22 6.794 s -10.27 5.14 -5.05 13.486 c 5.24 8.354 13.13 1.927 13.13 1.927 l 7.37 2.969 -50.65 47.541 s 42 -4.961 -4.06 -5.974 c -4.41 -1.222 -6.8 2.631 -6.8 2.631 l -31.82 1.351 s 52.27 -43.285 67.53 -111.688 Z m 1.32 48.548 c 58 583.58 -1.532 0 -2.114 NaN 1.493 1.493 0 0 0 -2.11 0 1.484 1.484 0 0 0 0 2.114 NaN 58.582 1.53 582 2.11 0 NaN NaN 9.55 24.406 c 97 97.97 -2.552 0 -3.522 NaN 2.49 2.49 0 0 0 -3.52 0 NaN 97.97 97 2.552 0 3.522 NaN 2.49 2.49 0 0 0 3.52 0 NaN NaN -12.15 -5.96 NaN 97 97.97 -2.552 0 -3.522 NaN 2.503 2.503 0 0 0 -3.53 0 NaN 97.97 97 2.552 0 3.522 97.971 2.56 971 3.53 0 NaN NaN -34.09 38.533 c 61 611.61 -1.61 0 -2.221 NaN 1.567 1.567 0 0 0 -2.22 0 1.559 1.559 0 0 0 0 2.221 NaN 62.619 1.61 611 2.22 0 NaN"/>
  </svg>