<svg width="440" height="416" viewBox="0 0 440 416" fill="none" xmlns="http://www.w3.org/2000/svg">
<path d="M115.187 263.974C114.847 264.334 114.507 264.714 114.167 265.094C114.167 265.094 46.387 348.214 2.34695 380.894C0.0269508 382.614 -0.65305 385.734 0.66695 388.294C4.58695 395.794 13.8269 410.294 28.8269 415.634C30.6069 416.274 32.5869 415.694 33.7269 414.194C40.9269 404.694 71.407 366.734 147.267 297.454C139.827 277.014 123.487 267.594 115.207 263.994L115.187 263.974ZM37.567 387.214C36.447 388.294 34.987 388.874 33.427 388.874C33.387 388.874 33.3469 388.874 33.3069 388.874C31.7069 388.834 30.227 388.194 29.107 387.034C28.007 385.874 27.4069 384.374 27.4469 382.774C27.4869 381.174 28.127 379.694 29.287 378.574C30.447 377.474 32.0469 376.894 33.5469 376.914C35.1469 376.954 36.627 377.594 37.747 378.754C38.847 379.914 39.4469 381.414 39.4069 383.014C39.3669 384.614 38.727 386.094 37.567 387.214ZM80.987 342.174C79.867 343.254 78.407 343.834 76.847 343.834C76.807 343.834 76.767 343.834 76.727 343.834C75.127 343.794 73.647 343.154 72.527 341.994C71.427 340.834 70.827 339.334 70.867 337.734C70.907 336.134 71.547 334.654 72.707 333.534C75.087 331.254 78.887 331.314 81.167 333.694C83.447 336.074 83.367 339.874 81.007 342.154L80.987 342.174ZM122.587 298.594C121.467 299.674 120.007 300.254 118.447 300.254C118.407 300.254 118.367 300.254 118.327 300.254C116.727 300.214 115.247 299.574 114.127 298.414C113.027 297.254 112.427 295.754 112.467 294.154C112.507 292.554 113.147 291.074 114.307 289.954C115.427 288.874 116.887 288.294 118.447 288.294C118.487 288.294 118.527 288.294 118.567 288.294C120.167 288.334 121.647 288.974 122.767 290.134C123.867 291.294 124.467 292.794 124.427 294.394C124.387 295.994 123.747 297.474 122.587 298.594Z" fill="#878787"/>
<path d="M433.787 59.314L433.827 59.274L412.187 39.974L412.087 40.094L371.287 3.85401C365.147 -1.58599 355.807 -1.22599 350.127 4.67401L338.407 16.854C336.007 19.354 338.247 24.334 341.687 24.694L352.307 23.634C354.967 23.914 358.007 25.714 358.507 27.854C359.007 30.054 356.887 32.634 354.427 33.834L334.387 45.074C334.387 45.074 295.647 73.034 250.027 116.694C208.327 156.594 162.167 213.014 117.907 261.014C126.787 265.114 142.047 274.614 149.927 293.754C159.487 287.114 211.707 251.614 276.587 221.954C348.467 189.074 439.987 64.874 439.987 64.874L433.787 59.314ZM282.227 192.114C258.147 205.254 235.727 218.854 211.567 231.854C199.567 238.374 187.127 244.374 176.187 252.594C187.047 244.274 199.447 238.134 211.387 231.514C235.347 218.314 255.107 204.634 278.947 191.334C290.707 184.394 306.747 171.914 317.407 163.374C353.307 134.134 381.147 101.414 407.827 64.774L409.927 66.554C373.947 114.774 333.907 160.874 282.227 192.114Z" fill="white"/>
</svg>
