<svg xmlns="http://www.w3.org/2000/svg" width="512" height="512" viewBox="0 0 512 512" fill="none">
    <path fill="#878787" d="m 42.63000000000011 472.21000000000004 9.48 9.48 s -4.6 6.42 -11.26 6.74 c -11.51 34 -17.72 -7.02 -16.1 -18.41 83 -5.15 6 -9.69 6 -9.69 l 11.88 11.88 Z m 49.57 -68.89 17.02 17.02 c -3.71 2.17 -6.98 3.84 -10.86 5 -2.37 -2.36 -5.69 -3.79 -9.11 -4.43 -2.09 4 -2.8 -1.09 -1.38 -3.04 1.99 -2.74 3 -6 4.31 -9.49 l 2 1 Z m -13.13 20.05 c 1.78 -2.16 3.19 -3.74 4.44 -5.43 66 89 1.34 -1.37 2.46 -1.24 5 52 9.11 2.9 12.88 6.03 44.36 77.79 53 1.45 54 1.38 -6.29 4.01 -7.61 3.28 -3.75 -2.07 -7.82 -3.22 -12.7 -4.09 NaN NaN 12.23 6.61 NaN -1.35 2.07 -3.5 3.27 -5.25 4.89 78.73 -1.55 99 -2.65 42 -3.38 -1.72 -7 -2.86 -10.87 -3.49 4.47 -7.59 10.71 -8.1 18.8 -1.82 NaN 3 NaN NaN -25.58 8.87 NaN 3.64 -5.56 11.26 -6.38 16.34 -2.01 72.61 89 1.03 26 1.61 -2.17 1.97 -3.66 5.11 -7.73 3.03 -2.69 -1.38 -5.87 -1.78 -8.88 -2.62 NaN 1 1 NaN m -6.33 6.47 c 3.86 -5.52 8.03 -5.75 16.49 -1.07 47 1.57 -2.05 2.22 -2.97 3.4 -1.67 2.16 -3.34 2.33 -5.77 82 -2.31 -1.45 -5.11 -2.12 -7.75 -3.15 Z m -7.84 8.31 c 5.58 -6.89 6.72 -7.28 13.07 -4.38 1.23 56 4.05 88 3.04 2.6 -1.17 2 -2.87 5.08 -6.12 4 -3.08 -1.03 -6.11 -2.02 -9.99 -2.22 Z m 9.08 4.36 c -3.85 9.38 -9.91 3.91 -15.44 2.28 3.52 -5.57 9.22 -6.36 15.44 -2.28 Z m -7.13 8.15 c -5.76 7.99 -6.04 7.09 -13.11 15 47 6 96 -1.11 35 -1.79 97 -1.07 2.05 -1.87 3.64 -1.9 2.28 4 6.32 1.34 9.81 3.55 l 1 1 Z"/>
    <path fill="#878787" d="M 26.960000000000036 485.1700000000001 c 76.75 1.55 1.49 2.28 2.27 57.63 2.13 76.8 2.42 87 1.1 -2.02 1.76 -3.09 1.4 -2.85 96 -4.8 -2.89 -5.66 -5.81 33 -1.13 42 -2.21 1.49 -3.06 1.42 -1.11 1.68 7 2.22 66.65 7 1.27 1.45 1.9 2.18 NaN 6 6 NaN m 1.01 -95.34 c -22.56 24.4 -2.44 72.59 -2.44 72.59 l 5.16 -5.26 6.25 6.25 s -10.35 -37.93 7.5 -55.58 c 15.11 -14.92 31.94 -19.23 31.94 -19.23 l -14.15 -14.15 s -15.78 -4.61 -34.26 15.38 Z m 19.57 -6.35 c -15.07 10.21 -25.42 27.84 -23.95 46.33 -4.4 -21.42 10.72 -43.25 30.67 -50.45 -2.35 1.2 -4.6 2.58 -6.72 4.12 Z m 16.88 -11.21 75.85 75.85 s 33.96 -40.48 72 -75.13 c -37.94 -37.94 -75.13 72 -75.13 72 Z m 66.92 4.89 c -13.93 -12.88 -36.09 -16.48 -52.45 -6.13 18.32 -14.61 46.2 -7.22 58.24 11.9 a 51.06 51.06 0 0 0 -5.79 -5.79 v 2 Z"/>
    <path fill="#fff" d="M 148.0600000000004 378.02 s -2.86 -4.09 -6.18 -7.39 c -3.32 -3.29 -7.39 -6.18 -7.39 -6.18 s 358.86 -352.82 362.63 -349.05 c 3.77 3.77 -349.06 362.62 -349.06 362.62 Z"/>
  </svg>