<svg xmlns="http://www.w3.org/2000/svg" width="512" height="512" viewBox="0 0 512 512" fill="none">
    <path fill="#fff" d="M 387.8899999999999 113.19400000000002 c -8.98 -23.306 -28.79 -8.983 -28.79 -8.983 s 18.4 8.195 13.74 18.692 c -2.59 5.822 -6.91 5.863 -12.07 6.139 -1.83 92 -3.23 1.606 -3.29 3.448 a 16.39 16.39 0 0 1 -1.05 5.228 c -1.42 3.755 -4.34 6.323 -8.34 10.466 76 4.113 8.12 12.748 14.47 14.754 5.07 -4.748 6.91 -6.978 10.16 -8.462 1.54 706 3.84 -1.207 5.74 -1.36 1.48 113 2.7 -1.208 3.08 -2.65 79 -3.029 2.78 -7.489 7.12 -9.638 5.59 -2.772 15.12 1.023 22.52 15.48 8.84 -16.452 -2.01 -24.821 -7.77 -27.573 14.89 -5.146 25.57 -15.5 39.9 -32.903 13.94 -16.902 19.03 -25.128 49.81 -85.061 -41.7 37.578 -69.66 66.829 -105.24 102.413 l 1.01 NaN m 12.32 10.845 37.43 NaN -3.13 122 -6.21 992 -9.12 2.117 -8.72 3.223 -15.61 12.83 -13.48 22.243 -5.8 -3.55 -11.38 -8.083 -14.31 -14.375 l 21 133 c 1.7 2.578 3.58 5.034 5.9 7.008 1.9 1.627 3.98 3.019 6.14 4.318 48 -5.944 2.56 -11.745 6.59 -15.94 3.9 -4.226 9.4 -6.435 14.92 -7.51 6 112 1.25 204 1.88 266 26.62 -30.222 55.17 -64.803 81.86 -94.095 -23.31 27.89 -57.09 68.835 -80.22 96.203 Z m -278.5 274.387 c 8.9 23.082 28.5 8.901 28.5 8.901 s -18.23 -8.103 -13.61 -18.518 c 2.56 -5.77 6.85 -5.801 11.95 -6.077 1.81 92 3.19 -1.596 3.26 -3.417 5 -1.443 3 -3.233 1.05 -5.187 1.29 -3.438 3.87 -5.873 7.38 -9.464 41 42.24 -1.105 31 -1.33 -6 -2.333 -10.65 -7.152 -12.76 -12.983 2 553 89 747 -1.32 338 -4.34 4.113 -6.13 6.128 -9.13 7.51 -1.52 705 -3.79 1.197 -5.68 1.35 -1.48 123 -2.67 1.197 -3.05 2.619 79 2.998 -2.77 7.428 -7.05 9.546 -5.55 2.742 -14.97 -1.013 -22.31 -15.326 -8.74 16.298 2 24.585 7.7 27.296 -14.75 5.085 -25.32 15.357 -39.52 32.586 -13.81 16.748 -18.86 24.892 -49.33 84.233 41.29 -37.221 68.98 -66.195 104.23 -101.441 NaN 4 NaN NaN -12.21 -10.752 37 43 NaN 3.09 123 6.15 993 9.03 -2.098 8.65 -3.202 15.46 -12.696 13.36 -22.037 5.75 3.519 11.28 8 14.18 14.241 NaN 21.133 NaN -1.69 -2.547 -3.54 -4.992 -5.84 -6.947 -1.88 -1.606 -3.93 -2.987 -6.08 -4.276 47 5.893 -2.54 11.622 -6.53 15.797 -3.86 4.194 -9.31 6.363 -14.78 7.438 NaN 28.7 28.7 0 0 1 -1.86 266 NaN -26.38 29.936 -54.64 64.19 -81.08 93.195 23.08 -27.624 56.54 -68.17 79.44 -95.282 NaN"/>
    <path fill="#878787" d="m 267.73 257.626 5.051 NaN 67.665 -1.63 849 -2.33 44 -2.3 -1.361 -4.62 -3.069 -6.74 -5.187 -2.12 -2.118 -3.84 -4.471 -5.19 -6.783 4 686 21 -1.648 45 -2.313 NaN 5 51 c 89 89 2.25 869 2.81 41 1.3 2.098 2.89 4.226 4.84 6.17 1.94 1.943 4.03 3.519 6.14 4.829 91.562 92 1.903 3 2.793 NaN 1.01 NaN NaN -13.4 13.597 5.051 c 67.665 -1.63 849 -2.32 44 -2.3 -1.361 -4.63 -3.069 -6.74 -5.187 -2.12 -2.118 -3.84 -4.471 -5.19 -6.783 4 686 22 -1.647 45 -2.312 NaN 5 52 NaN 89 89 2.24 869 2.8 41 1.3 2.098 2.9 4.226 4.84 6.17 1.95 1.944 4.03 3.519 6.14 4.829 91.563 92 1.903 3 2.793 NaN 1.01 NaN NaN 9.04 -4.195 NaN -2.53 2.538 7.072 7.072 92.921 -3.94 2.875 -4.89 2.312 -3.16 -1.872 -6.37 -4.225 -9.28 -7.131 -2.9 -2.905 -5.28 -6.159 -7.14 -9.33 55 942 1.4 -3.96 2.32 -4.881 0 0 -3.02 3.029 8 71 s 5.47 -3.591 6.25 -2.343 c 1.79 2.895 3.98 5.801 6.66 8.481 2.68 2.681 5.55 4.84 8.44 6.64 1.25 778.2 3.704 -2.34 6.251 NaN 3 NaN NaN 45.21 -79.209 -3.86 3.305 NaN 90.452 90.452 0 0 0 -4.36 4.011 NaN 44.951 89 1.913 -1.31 2.885 -2.31 5.402 -4.18 11.039 -4.97 16.861 68 4.911 62 10.139 1.31 14.753 NaN 11.18 -9.587 c -1.45 -2.762 -2.23 -5.791 -2.47 -8.901 67 -7.99 1.44 -15.868 4.47 -23.337 l 1.01 NaN"/>
    <path fill="#878787" d="M 282.3299999999999 226.63600000000002 c 61 4.471 61 9.177 84 13.474 l 11.08 -9.504 c -1.08 -2.435 -1.68 -5.044 -1.91 -7.704 7 -8.462 1.69 -16.81 5.02 -24.668 64.706 -1.27 1.402 -1.9 2.128 NaN -8.28 9.669 NaN -2.26 5.31 -4.08 10.875 -4.87 16.615 NaN 2 1 Z m 58.95 -66.85 -8.77 7.52 c -1.47 4 -2.61 8.113 -3.17 12.318 69 5.044 6 10.415 1.48 15.111 l 10.13 -11.827 c 9 -2.23 -1.4 -4.614 -1.6 -7.018 46 -5.453 39 -10.866 1.94 -16.114 l 1.01 NaN"/>
    <path fill="#878787" d="m 284.23 213.49900000000002 -10.26 11.971 c -1.56 4.184 -2.79 8.502 -3.39 12.932 54 4 61 8.215 44 12.144 l 10.99 -9.412 c 76 -2.067 -1.22 -4.246 -1.41 -6.456 6 -7.213 1.07 -14.344 3.63 -21.158 v 21 Z m 43.37 -25.843 c 52 -6.252 66 -12.441 2.65 -18.406 l -8.54 7.315 c -1.92 4.768 -3.44 9.72 -4.12 14.825 75 5.494 6 11.377 2.09 16.349 25 296.52 583.78 89 NaN 9.35 -10.906 NaN -1.25 -2.589 -1.95 -5.412 -2.18 -8.287 NaN 3 NaN"/>
    <path fill="#878787" d="M 268.8600000000001 246.402 c 5 -6.046 58 -12.042 2.45 -17.832 l -12.55 14.63 s 92 2.967 3.76 5.801 c 2.83 2.834 5.84 3.796 5.84 3.796 l 1.45 -1.248 c 5 -1.668 82 -3.397 96 -5.157 l 1.01 NaN m 74.56 -88.458 c -1.05 3.244 -1.89 6.559 -2.35 9.945 63 4.573 61 9.402 96 13.771 l 15.13 -17.648 s -2.33 -1.331 -5.33 -4.328 c -3 -2.998 -4.26 -5.269 -4.26 -5.269 l -4.14 3.54 1 11 Z m -24.91 50.716 c -1.59 -2.854 -2.38 -6.026 -2.65 -9.259 58 -7.09 1.01 -14.109 3.49 -20.82 l -8.28 7.09 c 8.204 18.389 26.593 -2.32 5.402 -4.19 11.04 -4.98 16.861 72 5.351 58 11.06 1.89 15.94 NaN 3.49 -2.998 a 86.659 86.659 0 0 0 7.45 -7.233 c 5 51 11 112 16 184 l 1.01 NaN m -118.26 86.32 -3.86 3.305 a 90.72 90.72 0 0 0 -4.35 4.01 c 44.952 89 1.913 -1.31 2.885 -2.32 5.402 -4.19 11.04 -4.98 16.861 67 4.911 62 10.139 1.31 14.753 NaN 11.19 -9.586 NaN -1.46 -2.762 -2.23 -5.791 -2.48 -8.901 66 -7.991 1.44 -15.869 4.47 -23.337 NaN 1.01 NaN"/>
    <path fill="#878787" d="M 174.01000000000022 333.807 c 61 4.471 61 9.177 85 13.474 l 11.08 -9.505 c -1.09 -2.435 -1.69 -5.043 -1.92 -7.704 7 -8.461 1.69 -16.809 5.03 -24.667 65.706 -1.28 1.402 -1.91 2.128 NaN -8.27 9.669 NaN -2.26 5.31 -4.09 10.875 -4.87 16.615 NaN 1 1 Z m 58.95 -66.85 -8.77 7.52 c -1.46 4 -2.61 8.113 -3.17 12.318 69 5.044 59 10.415 1.48 15.111 l 10.13 -11.827 c 9 -2.23 -1.4 -4.614 -1.6 -7.018 46 -5.453 39 -10.866 1.94 -16.114 l 1.01 NaN"/>
    <path fill="#878787" d="m 175.9000000000001 320.65999999999997 -10.25 11.97 c -1.57 4.185 -2.8 8.502 -3.4 12.933 54 4 6 8.215 44 12.144 l 10.99 -9.413 a 24.464 24.464 0 0 1 -1.4 -6.456 c 61 -7.213 1.06 -14.344 3.62 -21.158 v 2 Z m 43.38 -25.844 c 52 -6.251 65 -12.441 2.65 -18.405 l -8.54 7.315 c -1.93 4.767 -3.44 9.719 -4.13 14.825 74 5.494 59 11.377 2.09 16.349 26 297.52 583.79 89 NaN 9.35 -10.907 NaN -1.26 -2.588 -1.96 -5.412 -2.19 -8.287 NaN 2 NaN"/>
    <path fill="#878787" d="M 160.51999999999998 353.573 c 5 -6.046 59 -12.042 2.45 -17.832 l -12.55 14.63 s 92 2.967 3.76 5.801 c 2.83 2.834 5.84 3.796 5.84 3.796 l 1.45 -1.248 a 25.48 25.48 0 0 1 96 -5.157 l 1.01 NaN m 74.59 -88.458 c -1.06 3.244 -1.89 6.559 -2.35 9.945 63 4.573 61 9.402 96 13.771 l 15.13 -17.649 s -2.33 -1.33 -5.33 -4.327 c -3 -2.998 -4.27 -5.269 -4.27 -5.269 l -4.13 3.54 1 11 Z m -24.94 50.716 c -1.58 -2.855 -2.38 -6.026 -2.65 -9.259 58 -7.091 1.02 -14.109 3.49 -20.821 l -8.28 7.091 c 8.204 18.388 26.593 -2.31 5.402 -4.19 11.039 -4.97 16.861 73 5.351 59 11.06 1.88 15.94 NaN 3.49 -2.998 a 86.929 86.929 0 0 0 7.46 -7.233 c 5 51 12 113 17 184 l 1.01 NaN"/>
  </svg>