<svg width="432" height="440" viewBox="0 0 432 440" fill="none" xmlns="http://www.w3.org/2000/svg">
<path d="M408.964 0C408.964 0 359.584 96.36 191.964 224.1L110.944 279.44C118.704 283.7 128.944 291.94 130.864 306.22L132.664 307.48L169.724 282.3L236.604 236.84C236.604 236.84 420.224 109.08 429.524 62.58C438.844 16.1 408.964 0 408.964 0ZM415.424 52.22C400.824 114.4 278.284 190.46 226.444 230.42C207.244 244.54 187.824 258.46 169.644 273.9C165.164 277.8 160.744 281.82 156.984 286.44C155.884 287.92 154.444 289.62 154.264 291.42L153.904 291.56C153.824 290.32 154.424 289.52 154.884 288.62C156.444 286.04 158.444 283.78 160.504 281.6C168.764 272.94 178.164 265.48 187.444 257.98C224.784 228.24 263.864 200.7 301.484 171.38C336.284 143.04 398.024 94.4399 413.644 51.8C415.684 44.26 415.784 36.1 413.104 28.62L413.464 28.48C416.764 35.82 417.064 44.32 415.424 52.22Z" fill="white"/>
<path fill-rule="evenodd" clip-rule="evenodd" d="M87.6328 293.751C80.7636 298.198 72.6871 303.722 64.2777 310.097C72.4614 313.839 77.2975 320.785 80.1197 327.057C81.7167 330.606 82.6756 333.954 83.236 336.414C83.3262 336.81 83.4062 337.184 83.4769 337.531C92.8302 330.931 100.268 325.767 106.182 321.73C106.072 321.077 105.911 320.222 105.681 319.215C105.132 316.802 104.191 313.521 102.628 310.047C99.9027 303.992 95.3077 297.395 87.6328 293.751ZM40.1671 330.374C47.7082 323.255 55.6646 316.67 63.3692 310.788C71.5534 314.338 76.3843 321.193 79.2076 327.468C80.7707 330.941 81.7117 334.222 82.2614 336.635C82.3886 337.194 82.4949 337.706 82.5831 338.162L81.7573 338.746L80.8038 339.42C73.6796 345.559 67.8342 351.179 63.0453 356.3C62.9171 355.787 62.7488 355.167 62.5323 354.461C61.8885 352.36 60.818 349.494 59.1085 346.428C55.7689 340.439 49.9792 333.667 40.1671 330.374ZM39.3417 331.156C32.2263 337.937 25.5056 345.19 19.7469 352.769C27.209 354.422 33.9093 359.022 39.1822 363.81C42.9744 367.254 46.0576 370.82 48.192 373.525C48.4273 373.823 48.6512 374.111 48.8633 374.387C51.8897 369.459 56.1836 363.738 62.2272 357.181C62.0966 356.604 61.8882 355.772 61.5763 354.755C60.9482 352.706 59.9024 349.907 58.2345 346.916C54.9203 340.972 49.1608 334.283 39.3417 331.156ZM4.28384 380.8C7.36031 371.477 12.5766 362.355 19.0819 353.651C26.4661 355.158 33.1676 359.699 38.5104 364.55C42.2505 367.947 45.2957 371.47 47.4069 374.145C47.7291 374.553 48.0296 374.942 48.3074 375.307C44.3573 381.955 42.7521 387.106 42.2327 390.868C41.7863 390.487 41.218 390.034 40.5253 389.542C38.5544 388.144 35.574 386.433 31.5184 385.158C24.8847 383.072 15.4066 382.165 2.80678 385.663C3.2427 384.087 3.73401 382.466 4.28384 380.8ZM2.50322 386.787C-1.55533 402.198 -0.249847 413.293 3.36213 421.251C6.61365 414.305 10.6652 409.568 15.0457 406.426C20.4421 402.557 26.3 401.136 31.6902 400.958C37.076 400.779 42.0051 401.839 45.571 402.936C45.781 403.001 45.9862 403.065 46.1867 403.13C45.2603 401.739 44.1965 400.302 42.9838 398.82C42.9838 398.82 41.7109 396.66 42.0969 392.085L42.0575 392.048C41.5964 391.625 40.8956 391.031 39.9471 390.358C38.0505 389.012 35.1627 387.352 31.2186 386.112C24.6854 384.058 15.2183 383.149 2.50322 386.787ZM17.2638 436.44C12.5576 433.684 7.37066 429.298 3.92302 422.425C7.17052 415.197 11.2538 410.376 15.6287 407.239C20.8316 403.508 26.4861 402.131 31.7234 401.958C36.9646 401.784 41.7788 402.815 45.2771 403.892C45.9138 404.088 46.5064 404.285 47.0495 404.477C54.2978 416.259 51.5415 424.695 46.1786 430.453C47.2055 428.341 47.4254 426.138 46.4961 424.248C45.4159 422.051 43.0537 420.826 40.239 420.533C37.4159 420.24 34.0583 420.869 30.8204 422.461C27.5823 424.053 25.0341 426.327 23.5422 428.742C22.0547 431.15 21.5813 433.768 22.6612 435.966C23.4674 437.605 24.9881 438.704 26.8779 439.277C23.5415 439.128 20.2365 438.185 17.2638 436.44ZM42.1564 434.007C40.856 434.968 39.5154 435.817 38.2038 436.56C37.3323 437.053 36.4339 437.48 35.5158 437.84C33.2152 438.618 30.9636 438.888 29.0229 438.686C26.4065 438.414 24.4327 437.302 23.5586 435.524C22.6849 433.747 23.01 431.505 24.3925 429.267C25.7709 427.036 28.1655 424.88 31.2615 423.358C34.3574 421.836 37.5266 421.257 40.1349 421.528C42.7511 421.8 44.7246 422.911 45.5987 424.689C46.4727 426.467 46.1479 428.709 44.7653 430.947C44.1124 432.003 43.2316 433.043 42.1564 434.007ZM88.6156 293.117C96.2458 296.946 100.825 303.603 103.54 309.637C105.137 313.186 106.096 316.534 106.656 318.994C106.84 319.803 106.982 320.517 107.089 321.112C119.162 312.889 124.619 309.554 127.064 308.26C125.804 293.28 114.584 285.44 107.244 281.9H107.224C105.067 283.094 98.065 287.039 88.6156 293.117ZM83.4638 309.28C85.6288 309.28 87.3838 307.525 87.3838 305.36C87.3838 303.195 85.6288 301.44 83.4638 301.44C81.2989 301.44 79.5438 303.195 79.5438 305.36C79.5438 307.525 81.2989 309.28 83.4638 309.28ZM41.0638 344.32C41.0638 346.485 39.3087 348.24 37.1438 348.24C34.9788 348.24 33.2238 346.485 33.2238 344.32C33.2238 342.155 34.9788 340.4 37.1438 340.4C39.3087 340.4 41.0638 342.155 41.0638 344.32ZM13.6638 399.38C15.8287 399.38 17.5838 397.625 17.5838 395.46C17.5838 393.295 15.8287 391.54 13.6638 391.54C11.4988 391.54 9.74377 393.295 9.74377 395.46C9.74377 397.625 11.4988 399.38 13.6638 399.38Z" fill="#878787"/>
</svg>
