<svg width="512" height="512" viewBox="0 0 512 512" fill="none" xmlns="http://www.w3.org/2000/svg">
<g clip-path="url(#clip0_4003_5215)">
<path d="M162.018 322.29C162.018 322.29 164.796 328.672 173.938 337.813C183.08 346.955 190.988 351.062 190.988 351.062L225.026 312.203C226.659 310.311 228.791 308.92 231.152 308.191L251.62 301.853C256.089 300.462 259.561 296.767 260.648 292.231L268.859 257.875C269.943 253.416 273.319 249.744 277.694 248.298L305.046 239.34C309.266 237.976 312.577 234.517 313.77 230.246L321.908 201.043C323.21 196.366 327.064 192.697 331.792 191.604C337.965 190.215 346.799 188.279 354.105 186.833C358.769 185.914 362.654 182.474 364.163 177.924C366.755 170.103 369.66 160.931 371.627 154.662C373.059 150.115 376.908 146.599 381.556 145.623L403.654 140.955C408.436 139.956 412.387 136.264 413.71 131.529L420.189 108.548C420.667 106.809 421.545 105.152 422.702 103.735C422.702 103.735 460.756 66.7936 467.143 50.6899C438 71.0815 412.288 81.9964 412.288 81.9964C409.442 83.5067 407.196 86.0123 406.044 89.0182L396.17 114.543C394.539 118.733 390.854 121.898 386.497 122.807L363.935 127.567C359.095 128.588 355.123 132.337 353.856 137.128L347.428 160.912C346.098 165.839 341.971 169.631 336.982 170.542L315.117 174.494C310.051 175.407 305.862 179.336 304.607 184.337L297.43 212.875C296.22 217.645 292.381 221.448 287.594 222.6L258.335 229.533C253.916 230.578 250.264 233.895 248.801 238.214L238.103 269.606C236.642 273.848 233.088 277.143 228.762 278.242L206.226 283.978C204.141 284.506 202.191 285.566 200.572 287.036L162.038 322.27L162.018 322.29Z" fill="white"/>
<path d="M106.746 435.059C109.29 433.706 112.067 432.07 114.974 430.205L95.2188 382.773C92.6935 385.497 90.4116 388.225 88.3681 390.914L106.746 435.059Z" fill="#878787"/>
<path d="M86.3144 393.712C75.6289 408.516 71.988 420.741 71.988 420.741L92.6802 441.434C92.6802 441.434 97.3003 439.89 104.117 436.448L86.3144 393.712Z" fill="#878787"/>
<path d="M140.007 352.723C140.007 352.723 118.864 358.979 98.5442 379.299C98.1665 379.677 97.8086 380.034 97.4507 380.392L117.479 428.495C122.86 424.85 128.591 420.36 134.098 414.853C153.384 395.566 160.674 373.39 160.674 373.39C160.674 373.39 154.832 369.06 149.572 363.8C144.312 358.54 139.982 352.698 139.982 352.698L140.007 352.723Z" fill="#878787"/>
<path d="M84.5524 468.219L53.3129 469.189C48.5847 469.352 44.0195 464.787 44.1577 460.034L45.1229 428.949C45.2353 425.363 48.1079 422.986 51.8273 423.485L68.5978 424.628L89.1412 445.171L90.0111 461.668C90.4102 465.289 88.0687 468.077 84.5275 468.194L84.5524 468.219Z" fill="#878787"/>
<path d="M171.051 342.172C122.546 293.667 124.141 233.866 121.363 231.087C105.955 215.679 89.1738 296.72 152.838 360.385C216.503 424.049 298.412 408.136 282.136 391.861C277.447 387.171 219.556 390.677 171.051 342.172Z" fill="#878787"/>
</g>
<defs>
<clipPath id="clip0_4003_5215">
<rect width="592.227" height="238.456" fill="white" transform="translate(-37.3638 382.171) rotate(-45)"/>
</clipPath>
</defs>
</svg>
