<svg width="420" height="451" viewBox="0 0 420 451" fill="none" xmlns="http://www.w3.org/2000/svg">
<path d="M413.742 47.68C413.742 47.68 406.442 29.46 377.102 0C377.102 0 374.402 50.16 269.842 147.08L110.382 306.4L143.302 342.48L363.362 160.9C363.362 160.9 441.642 108.84 413.762 47.68H413.742ZM392.962 106.24C382.662 127.26 365.582 144.14 347.362 158.38C291.722 202.78 224.702 258.32 169.362 303.88C222.202 256.72 289.54 199.7 344 154C379.66 125.96 412.742 85.58 394.662 38.88C406.162 59.46 403.402 85.68 392.942 106.22L392.962 106.24Z" fill="white"/>
<path d="M107.302 309.48L106.742 310.04C106.742 310.04 103.582 308.4 101.762 310.38C89.7219 323.5 42.8419 371.56 5.84188 404.28C5.84188 404.28 -9.61812 425.98 9.76188 444.5C29.1219 463.02 45.8019 435.12 45.8019 435.12C45.8019 435.12 77.9219 370.94 114.622 368.24L140.042 345.34L107.322 309.46L107.302 309.48ZM25.2819 433.78C23.8219 435.1 21.5819 434.98 20.2619 433.52C18.9419 432.06 19.0619 429.82 20.5219 428.5C21.9819 427.18 24.2219 427.3 25.5419 428.76C26.8619 430.22 26.7419 432.46 25.2819 433.78ZM34.2819 413.36C32.8219 414.68 30.5819 414.56 29.2619 413.1C27.9419 411.64 28.0619 409.4 29.5219 408.08C30.9819 406.76 33.2219 406.88 34.5419 408.34C35.8619 409.8 35.7419 412.04 34.2819 413.36ZM46.1019 396.16C45.1819 396.98 43.7619 396.92 42.9419 396C42.1219 395.08 42.1819 393.66 43.1019 392.84C44.0219 392.02 45.4419 392.08 46.2619 393C47.0819 393.92 47.0219 395.34 46.1019 396.16ZM102.862 353.52C99.9019 356.2 95.3219 355.96 92.6619 352.98C89.9819 350.02 90.2219 345.44 93.2019 342.78C96.1619 340.1 100.742 340.34 103.402 343.32C106.062 346.3 105.842 350.86 102.862 353.52Z" fill="#878787"/>
</svg>
