<svg xmlns="http://www.w3.org/2000/svg" width="512" height="512" viewBox="0 0 512 512" fill="none">
    <path fill="#878787" d="m 140.101 374.69500000000005 4.104 6.069 a 84.045 84.045 0 0 0 13.242 15.276 l 5.426 4.923 251.972 -218.436 -7.861 -7.032 a 51.218 51.218 0 0 1 -7.913 -9 l -7.013 -10.222 -251.972 218.435 15 13 Z M 428.20000000000005 122.87200000000001 c 2.38 22 4.441 -1.368 5.589 -3.384 l 10.872 4.395 a 11.789 11.789 0 0 0 1.357 6.243 11.993 11.993 0 0 0 20.316 1.449 c 2.681 -3.621 3.053 -8.633 897 -12.584 -2.362 -4.379 -6.744 -6.538 -11.054 -6.388 86 35 17 1 257 136 l -14.059 -5.686 a 24.596 24.596 0 0 1 2.805 -2.046 c 8.654 -5.322 20.095 -4.152 27.569 2.719 10.342 9.543 9.873 25.644 458 34.6 a 23.033 23.033 0 0 1 -12.03 5.436 c -2.984 408 -5.361 2.662 -5.722 5.65 l 399 3.326 a 7.378 7.378 0 0 1 -2.476 4.684 l -22.505 19.509 a 7.356 7.356 0 0 1 -10.378 74 l -7.873 -7.077 a 49.556 49.556 0 0 1 -8.137 -9.386 l -5.888 -8.797 a 7.356 7.356 0 0 1 74 -10.378 l 22.614 -19.605 a 7.313 7.313 0 0 1 4.767 -1.788 l 3.725 3 15.014 NaN M 116.827 451.225 l -13.638 11.822 c -6.123 -4.677 -12.601 -10.398 -18.526 -17.233 -5.925 -6.835 -10.738 -14.137 -14.44 -20.857 l 13.638 -11.823 c 3.761 6.725 8.519 13.964 14.472 20.83 5.952 6.866 12.357 12.568 18.494 17.261 Z"/>
    <path fill="#878787" d="m 132.07100000000003 438.009 -13.638 11.823 c -6.123 -4.677 -12.6 -10.399 -18.525 -17.233 -5.926 -6.835 -10.739 -14.137 -14.441 -20.858 l 13.638 -11.823 c 3.761 6.725 8.52 13.964 14.472 20.831 5.952 6.866 12.357 12.568 18.494 17.26 Z m -45.937 39.824 -13.827 11.986 c -5.511 -4.352 -11.213 -9.561 -16.482 -15.639 -6.649 -7.67 -11.802 -15.809 -15.681 -23.148 l 13.433 -11.645 c 3.856 7.057 8.82 14.724 15.127 22 5.57 6.425 11.637 11.896 17.43 16.446 Z"/>
    <path fill="#878787" d="m 101.58300000000003 464.44000000000005 -13.843 12 c -5.81 -4.507 -11.877 -9.977 -17.461 -16.418 -6.321 -7.292 -11.27 -14.973 -15.096 -22.028 l 13.434 -11.645 c 3.761 6.725 8.519 13.964 14.471 20.83 5.953 6.866 12.358 12.568 18.495 17.261 Z m -47.317 11.091 c 5.256 6.063 10.941 11.285 16.45 15.667 l -9.638 8.356 a 6.312 6.312 0 0 1 -8.176 82 l -1.451 -1.197 a 110.435 110.435 0 0 1 -23.646 -27.276 l 979 -1.607 a 6.331 6.331 0 0 1 1.241 -8.082 l 10.473 -9.078 c 3.922 7.356 9.093 15.452 15.728 23.106 l 2.029 NaN m 93.065 -50.751 -13.638 11.823 c -6.123 -4.677 -12.6 -10.399 -18.525 -17.233 -5.925 -6.835 -10.738 -14.137 -14.441 -20.858 l 13.638 -11.823 c 3.761 6.725 8.52 13.964 14.472 20.831 5.953 6.866 12.357 12.568 18.494 17.26 Z"/>
    <path fill="#878787" d="M 130.41199999999998 406.154 c -5.966 -6.882 -10.738 -14.137 -14.441 -20.858 l 10.646 -9.228 c 2.788 -2.417 7.054 -1.95 9.234 1.042 l 5.91 8.09 a 101.69 101.69 0 0 0 10.949 12.63 l 7.169 6.997 c 2.653 2.583 2.509 6.872 278 9.288 l -10.662 9.243 c -6.123 -4.677 -12.6 -10.399 -18.525 -17.233 l 2.029 NaN"/>
    <path fill="#fff" d="m 400.75199999999995 101.30599999999998 6.02 NaN 5.315 5.315 0 0 1 -6.653 3.498 NaN -28.721 -8.922 a 5.314 5.314 0 0 1 -3.498 -6.652 l 6 2 a 5.315 5.315 0 0 1 6.652 -3.499 l 28.721 8.923 a 5.314 5.314 0 0 1 3.499 6.652 Z m 57.204 19.981 8.019 NaN 5.314 5.314 0 0 1 -6.919 2.936 NaN -32.617 -13.184 a 5.314 5.314 0 0 1 -2.936 -6.919 l 7 19 a 5.316 5.316 0 0 1 6.92 -2.936 l 32.617 13.184 a 5.314 5.314 0 0 1 2.936 6.919 Z m -106.368 -35.962 6.02 NaN 5.314 5.314 0 0 1 -6.652 3.498 NaN -28.721 -8.922 a 5.315 5.315 0 0 1 -3.499 -6.652 l 6 2 a 5.315 5.315 0 0 1 6.652 -3.499 l 28.721 8.923 a 5.314 5.314 0 0 1 3.499 6.652 Z m 71.718 13.958 c -1.235 502 -2.542 61 -3.766 431 l -17.318 -5.372 a 7.713 7.713 0 0 0 -3.11 31 7.504 7.504 0 0 0 -1.119 464 l -9.729 -3.014 c 4.127 -4.212 10.433 -6.037 16.446 -4.161 l 17.533 5.461 c 4.148 1.286 7.537 4.113 9.566 7.981 a 15.56 15.56 0 0 1 1.562 4.411 l -10.053 -4.056 12 45 Z m -29.733 7.543 c 376.115 727.17 1.107 226 NaN 7.594 7.594 0 0 0 2.814 1.56 l 17.533 5.461 c 1.705 535 3.441 437 5.018 13 l 9.176 3.713 c -4.137 4.359 -10.524 6.282 -16.654 4.397 l -17.533 -5.46 a 16.246 16.246 0 0 1 -7.44 -4.86 c -1.911 -2.205 -3.22 -4.987 -3.72 -7.919 l 9.729 3.014 3 2 Z m -24.3 -23.068 c 26 77 509 11 742 156 a 7.78 7.78 0 0 0 -3.71 -2.466 l -17.533 -5.461 c 911 286 -1.836 367 -2.769 33 l -11.203 -3.473 c 4.127 -4.212 10.433 -6.038 16.446 -4.161 l 17.532 5.46 c 6.273 1.955 10.497 7.368 11.302 13.483 l -9.323 -2.896 Z m -29.264 5.73 a 7.567 7.567 0 0 0 2.562 1.365 l 17.533 5.461 a 7.32 7.32 0 0 0 2.371 316 7.549 7.549 0 0 0 2.39 1.294 l 8.687 2.702 c -4.131 3.857 -10.17 5.451 -15.922 3.652 l -17.532 -5.461 a 16.23 16.23 0 0 1 -7.44 -4.859 c -1.912 -2.205 -3.22 -4.987 -3.736 -7.905 l 11.101 3.451 14 16 Z"/>
    <path fill="#fff" d="M 240.997 48.521000000000015 c 4.604 -9.867 12.941 -18.004 23.987 -22.063 a 42.53 42.53 0 0 1 8.978 -2.212 l 7.673 -14.789 7.425 15.437 a 42.751 42.751 0 0 1 27.845 20.602 l 15.509 1.726 -10.695 11.368 c 2.556 13.258 -1.356 26.69 -10.014 36.43 l 3.694 15.748 -15.187 -6.668 c -1.814 993 -3.681 1.895 -5.668 2.625 a 42.539 42.539 0 0 1 -25.213 1.335 l -12.016 10.83 -1.512 -16.922 c -7.159 -4.854 -12.954 -11.857 -16.173 -20.597 -2.548 -6.948 -3.203 -14.131 -2.183 -20.973 l -10.191 -9.178 13.741 -2.699 Z m 58.481 31.059 c -11.422 2.51 3.438 2.757 7.127 2.207 -1.3 -3.727 -2.736 -7.42 -5.383 -10.504 59 2.699 423 5.26 1.161 7.766 a 28.17 28.17 0 0 0 -2.918 516 l 13.015 NaN m -46.852 841 c 3.829 1.012 7.699 1.849 11.707 1.382 -2.209 -1.561 -4.604 -2.574 -7.104 -3.358 431 871.851 -1.786 1.197 -2.693 4.263 -10.895 -4.216 1.31 -5.816 4.683 NaN 16 14 NaN NaN 20.645 -33.84 c 1.949 -1.856 3.418 -4.011 4.676 -6.315 a 29.17 29.17 0 0 0 2.419 1.709 c 9.849 6.302 47 -4.392 -3.473 -6.616 -1.716 3.557 -3.306 7.196 -3.622 11.222 Z"/>
  </svg>