<svg width="512" height="512" viewBox="0 0 512 512" fill="none" xmlns="http://www.w3.org/2000/svg">
<path d="M96.5525 440.624C95.9911 444.379 94.5067 445.814 93.122 447.348C81.3584 460.584 69.8194 474.044 55.7605 484.984C51.9432 487.953 47.9763 490.772 44.1092 493.691C42.0384 495.263 40.0424 495.313 36.5246 491.496C31.0857 485.608 25.26 480.032 19.4968 474.418C16.8521 471.848 16.5902 470.314 17.638 468.293C31.4724 441.909 61.3741 438.479 96.5525 440.624Z" fill="#878787"/>
<path d="M54.1385 427.376C59.3778 423.01 64.5922 418.619 69.8814 414.303C73.0001 411.758 76.3184 409.438 79.4121 406.893C81.1211 405.483 82.7927 405.134 85.8864 408.327C91.6622 414.278 97.6125 420.054 103.451 425.942C104.698 427.189 106.569 428.636 105.858 430.046C105.297 431.156 104.86 432.715 102.627 431.83C93.5084 428.2 84.8884 426.341 76.6801 426.016C68.8461 425.717 61.9601 427.164 54.1385 427.351L54.1385 427.376Z" fill="#878787"/>
<path d="M38.6822 443.456C51.5186 429.696 70.0309 425.081 95.4666 431.78C97.4626 432.304 100.943 432.142 101.604 435.372C102.066 437.655 100.232 439.414 96.8888 438.766C84.3393 436.321 73.0248 436.632 62.2966 438.154C54.0634 439.327 46.4164 441.485 38.6822 443.456Z" fill="#878787"/>
<path d="M109.881 422.365L318.608 213.638C319.651 212.595 319.715 210.967 318.75 210.003L300.587 191.84C299.623 190.875 297.995 190.939 296.952 191.982L88.2251 400.709C87.182 401.752 87.1184 403.379 88.0829 404.344L106.246 422.507C107.211 423.472 108.838 423.408 109.881 422.365Z" fill="#878787"/>
<path d="M385.154 96.3216L304.992 176.484L301.474 186.089C301.149 186.962 301.361 187.948 302.023 188.609L321.558 208.144C322.194 208.78 323.142 209.005 324.003 208.718L333.945 205.437L414.107 125.275C419.147 120.235 419.147 112.077 414.107 107.037L403.379 96.3091C398.339 91.2694 390.181 91.2694 385.141 96.3091L385.154 96.3216Z" fill="#878787"/>
<path d="M415.679 103.944L438.408 93.939C440.541 93.3028 442.287 91.8807 443.323 89.9471L467.049 45.6871C467.81 44.2525 466.139 42.6059 464.729 43.3668L420.631 67.2807C418.723 68.3161 417.301 70.0625 416.664 72.1707L406.622 94.9619L415.679 103.944ZM423.338 73.3808L423.451 73.2685C425.995 75.3393 428.378 77.5723 430.748 79.8426C433.992 76.2499 444.707 65.8835 448.013 62.5528C452.055 58.7855 456.122 54.1449 460.226 50.8641C452.728 59.01 439.231 73.7301 431.422 81.5891L430.811 82.1754C428.253 79.2938 425.671 76.462 423.326 73.3933L423.338 73.3808Z" fill="white"/>
<path d="M436.537 225.646C436.862 225.322 438.122 224.062 438.446 223.737C502.129 161.302 498.149 116.231 498.149 116.231L473.949 121.321C473.949 121.321 459.129 144.623 438.758 149.501C416.154 154.915 398.789 146.158 398.789 146.158L358.983 185.964C358.983 185.964 370.871 202.468 360.941 223.5C351.074 244.42 331.638 254.5 331.638 254.5L326.536 280.409C326.536 280.409 374.102 289.329 436.537 225.646ZM422.129 206.123C437.323 191.353 451.22 175.261 461.948 156.973C465.79 151.06 469.121 144.835 472.165 138.448C469.782 145.122 466.826 151.597 463.47 157.871C452.692 176.259 438.608 192.588 423.401 207.371C403.492 227.23 380.227 245.805 352.421 252.703C378.954 242.911 402.457 226.32 422.142 206.136L422.129 206.123Z" fill="white"/>
<path d="M230.182 184.055L256.092 178.953C256.092 178.953 266.184 159.53 287.091 149.65C308.124 139.721 324.628 151.609 324.628 151.609L364.434 111.802C364.434 111.802 355.677 94.4377 361.091 71.8337C365.969 51.4627 389.271 36.6428 389.271 36.6428L394.361 12.4421C394.361 12.4421 349.29 8.46265 286.867 72.1581C286.543 72.4824 285.283 73.7423 284.958 74.0667C221.263 136.49 230.182 184.055 230.182 184.055ZM257.926 158.183C264.812 130.39 283.387 107.124 303.259 87.2025C318.041 71.9959 334.37 57.8871 352.758 47.134C359.033 43.7783 365.507 40.8218 372.181 38.4392C365.781 41.4705 359.557 44.8262 353.656 48.6559C335.368 59.3841 319.276 73.2808 304.506 88.4749C284.31 108.147 267.718 131.65 257.938 158.196L257.926 158.183Z" fill="white"/>
</svg>
