<svg width="403" height="425" viewBox="0 0 403 425" fill="none" xmlns="http://www.w3.org/2000/svg">
<path d="M347.027 73.18L348.487 71.62C348.607 71.72 348.727 71.82 348.847 71.9C350.987 73.48 353.987 73.08 355.687 71.04C401.947 15.76 401.647 0 401.647 0C379.447 6.26 335.167 48.08 333.127 51.22C331.087 54.36 333.667 58.02 333.667 58.02L332.327 59.46C322.067 48.78 309.987 41.48 309.987 41.48L318.087 32.78C318.967 31.84 318.927 30.34 317.967 29.46L288.347 1.88L290.547 27.7L270.307 27.54L271.667 46.46L245.987 47.38L275.607 74.96C276.887 76.16 278.907 76.08 280.107 74.8L290.927 63.18C297.527 75.36 305.307 83.76 305.307 83.76L299.707 89.78C306.267 97.28 313.767 104.16 318.487 108L323.807 102.3C340.967 112.26 356.527 122.22 368.627 132.84C387.467 149.38 402.527 175.04 402.527 175.04C405.947 127.44 347.087 73.2 347.087 73.2L347.027 73.18ZM318.627 88.28L318.227 77.24L329.267 76.84L329.667 87.88L318.627 88.28ZM372.487 125.32C363.567 115.88 354.047 106.94 344.187 98.52C344.187 98.52 344.247 98.46 344.307 98.38C341.447 98.58 338.567 98.78 335.707 98.92C332.627 99.1 329.547 99.28 326.447 99.38C332.307 98.56 338.167 97.8 344.047 97.12C342.667 92.64 341.227 88.16 339.927 83.66C338.867 79.68 336.987 74.18 335.527 70.12C326.307 67.92 316.867 65.32 307.807 62.66C307.907 69.12 307.907 75.58 307.827 82.04C307.287 75.5 306.827 68.96 306.467 62.42L306.367 62.52L276.767 33.48L307.847 60.94L307.647 61.16C317.007 63.32 326.607 65.92 335.987 68.02L387.447 14.34L337.567 69.48L339.687 75.94C341.807 82.92 343.567 90 345.387 97.06C345.487 96.94 345.567 96.84 345.567 96.84C355.267 105.62 364.547 114.8 373.247 124.56C381.767 134.34 390.427 144.52 395.447 156.6C390.107 144.68 381.207 134.8 372.447 125.3L372.487 125.32Z" fill="white"/>
<path d="M72.5472 353.56C73.6472 354.6 73.9472 356.16 73.9072 357.56C74.5272 358.58 75.2072 359.64 75.2872 359.9C75.9872 361.86 76.1872 362.02 76.2872 364.02C76.3472 365.52 76.1672 367.44 76.1672 368.74L315.487 111.2C310.607 107.2 303.247 100.44 296.707 92.98L56.0472 351.4C56.0472 351.4 52.4872 359.28 60.0472 366.84C62.7472 369.54 65.3672 370.68 67.6072 371.06C68.0872 369.7 68.4672 367.8 68.6072 367C68.7672 366.16 68.6072 362.86 68.0672 362.22C67.1872 362.04 66.3272 361.64 65.6272 360.98C63.5672 359.08 63.4672 355.86 65.3672 353.82C67.2672 351.78 70.4872 351.66 72.5272 353.56H72.5472ZM291.887 110.24C293.627 108.38 296.527 108.28 298.387 110C300.247 111.74 300.347 114.64 298.627 116.5C296.907 118.36 293.987 118.46 292.127 116.74C290.267 115 290.167 112.1 291.887 110.24ZM273.647 130.14C275.387 128.28 278.287 128.18 280.147 129.9C282.007 131.64 282.107 134.54 280.387 136.4C278.667 138.26 275.747 138.36 273.887 136.64C272.027 134.9 271.927 132 273.647 130.14ZM256.467 148.3C258.207 146.44 261.107 146.34 262.967 148.06C264.827 149.8 264.927 152.7 263.207 154.56C261.487 156.42 258.567 156.52 256.707 154.8C254.847 153.06 254.747 150.16 256.467 148.3ZM238.367 167.74C240.107 165.88 243.007 165.78 244.867 167.5C246.727 169.24 246.827 172.14 245.107 174C243.367 175.86 240.467 175.96 238.607 174.24C236.747 172.52 236.647 169.6 238.367 167.74ZM219.467 188.04C221.207 186.18 224.107 186.08 225.967 187.8C227.827 189.54 227.927 192.44 226.207 194.3C224.487 196.16 221.567 196.26 219.707 194.54C217.847 192.8 217.747 189.9 219.467 188.04ZM200.007 208.94C201.747 207.08 204.647 206.98 206.507 208.7C208.367 210.44 208.467 213.34 206.747 215.2C205.007 217.06 202.107 217.16 200.247 215.44C198.387 213.7 198.287 210.8 200.007 208.94ZM181.687 228.62C183.427 226.76 186.327 226.66 188.187 228.38C190.047 230.12 190.147 233.02 188.427 234.88C186.707 236.74 183.787 236.84 181.927 235.12C180.067 233.38 179.967 230.48 181.687 228.62ZM161.167 250.66C162.907 248.8 165.807 248.7 167.667 250.42C169.527 252.16 169.627 255.06 167.907 256.92C166.167 258.78 163.267 258.88 161.407 257.16C159.547 255.42 159.447 252.52 161.167 250.66Z" fill="#878787"/>
<path d="M71.6671 356.52C73.5871 358.48 81.5871 366.4 62.8871 394.06C44.6271 421.06 26.6071 423.56 26.6071 423.56C26.6071 423.56 10.4871 428.18 2.1271 413.1C-6.2329 398.02 12.7471 385.74 12.7471 385.74C12.7471 385.74 21.0471 380.92 29.7471 379.88C39.8471 378.68 55.2271 362.4 55.2271 362.4C55.2271 362.4 55.5471 364.28 57.4271 366.02C57.4271 366.02 47.0471 380.54 34.4671 383.94C21.8871 387.34 17.3471 388.26 10.1271 395.76C6.62711 399.38 6.2471 403.62 6.7871 407.02C7.5271 411.68 10.5071 415.78 14.9071 417.44C17.5271 418.42 20.9871 418.88 25.3071 417.7C36.1671 414.74 41.4071 410.14 51.6671 399.38C61.9271 388.62 73.8671 367.6 68.1671 360.44C67.0271 359.02 65.6471 360.16 65.3671 357.46C64.9471 353.34 68.9071 353.72 71.6671 356.54V356.52Z" fill="#878787"/>
</svg>
