<svg width="512" height="512" viewBox="0 0 512 512" fill="none" xmlns="http://www.w3.org/2000/svg">
<path d="M381.183 123.829C370.937 97.2537 348.352 113.572 348.352 113.572C348.352 113.572 369.345 122.911 364.028 134.902C361.078 141.546 356.149 141.597 350.26 141.893C348.168 142.005 346.586 143.73 346.515 145.822C346.464 147.486 346.158 149.547 345.3 151.793C343.688 156.079 340.351 159.008 335.789 163.733C336.646 168.428 345.055 178.266 352.291 180.562C358.078 175.143 360.18 172.612 363.875 170.898C365.64 170.091 368.253 169.52 370.427 169.346C372.121 169.204 373.499 167.969 373.937 166.326C374.856 162.876 377.122 157.773 382.051 155.334C388.429 152.181 399.299 156.498 407.739 172.98C417.812 154.211 405.453 144.669 398.88 141.546C415.862 135.688 428.038 123.86 444.387 104.02C460.277 84.7415 466.105 75.3625 501.192 7.00504C453.633 49.8688 421.751 83.2413 381.163 123.829L381.183 123.829ZM395.237 136.209L394.818 136.709C391.256 136.841 387.736 137.852 384.408 139.117C374.458 142.801 366.6 153.742 369.029 164.499C362.405 160.447 356.057 155.283 352.699 148.108L352.944 147.966C354.883 150.905 357.027 153.722 359.67 155.957C361.834 157.814 364.211 159.396 366.671 160.876C366.13 154.089 369.59 147.486 374.182 142.689C378.622 137.862 384.909 135.351 391.195 134.127C391.889 134.004 392.614 133.892 393.349 133.831C423.721 99.356 456.266 59.9112 486.72 26.4979C460.134 58.3089 421.598 105.01 395.216 136.229L395.237 136.209Z" fill="white"/>
<path d="M37.1515 492.233L37.1004 492.284C36.4371 492.947 35.4777 493.131 34.7837 492.723C32.4875 491.366 30.1708 489.661 28.0582 487.549C25.9456 485.436 24.2311 483.089 22.8839 480.782C22.4859 480.099 22.6696 479.139 23.333 478.476L23.384 478.425C24.2719 477.537 25.6191 477.557 26.1804 478.466C27.4765 480.558 29.0686 482.681 31.0076 484.62C32.9467 486.559 35.0287 488.13 37.131 489.437C38.0393 489.998 38.0495 491.335 37.1617 492.223L37.1515 492.233Z" fill="#878787"/>
<path d="M13.4427 483.242C15.8105 481.752 18.8926 480.997 21.2807 481.446C21.3317 481.599 21.393 481.721 21.4746 481.864C23.0157 484.487 24.8016 486.824 26.7917 488.814C28.7819 490.804 31.0781 492.57 33.6908 494.121C33.8337 494.203 33.9765 494.264 34.1296 494.315C34.5991 496.805 33.7622 500.03 32.1497 502.439C31.568 503.306 30.4454 503.674 29.4452 503.347C24.5465 501.714 21.5665 503.592 19.6886 504.551C18.9946 504.898 19.6886 504.551 18.9946 504.898C18.168 503.745 14.9022 504.827 12.8304 502.755C10.7587 500.683 11.8507 497.428 10.6974 496.581L11.0444 495.887C11.9731 494.06 14.0041 490.172 12.4834 486.222C12.0548 485.12 12.4426 483.875 13.4427 483.242Z" fill="#878787"/>
<path d="M345.665 179.532L129.009 396.188C129.009 396.188 126.019 395.238 123.181 392.401C120.344 389.564 119.436 386.615 119.436 386.615L336.092 169.959C336.092 169.959 337.388 172.255 340.378 175.245C343.368 178.235 345.665 179.532 345.665 179.532Z" fill="#878787"/>
<path d="M77.9041 422.579L74.0566 425.876C72.5665 427.162 71.1071 428.499 69.7089 429.877C69.2701 430.826 68.821 431.785 68.4026 432.754C66.0961 438.143 64.2285 443.766 63.4427 449.573C62.7691 454.472 62.8201 459.687 64.749 464.29L75.9038 454.727C74.4546 451.972 73.6789 448.951 73.434 445.848C72.7706 437.878 74.873 430.019 77.8939 422.569L77.9041 422.579Z" fill="#878787"/>
<path d="M51.728 461.31C51.1259 465.77 51.1259 470.464 52.5751 474.751L63.6278 465.27C62.546 462.841 61.9439 460.238 61.7194 457.585C61.0152 449.145 63.4033 440.817 66.7303 432.979C66.0874 433.683 65.4546 434.377 64.8321 435.102L56.5757 444.746C54.3203 450.043 52.5037 455.595 51.7178 461.32L51.728 461.31Z" fill="#878787"/>
<path d="M110.53 394.626L101.784 402.127C100.324 406.118 99.1814 410.22 98.6201 414.415C97.9363 419.446 98.0282 424.804 100.1 429.489L110.204 417.691C109.305 415.466 108.805 413.088 108.611 410.69C108.152 405.25 108.999 399.851 110.54 394.616L110.53 394.626Z" fill="#878787"/>
<path d="M53.611 448.196L43.3849 460.136C41.8235 464.31 40.5988 468.617 39.9966 473.036C39.4557 477.027 39.3945 481.231 40.4355 485.15L51.3964 475.761C50.6411 473.7 50.1819 471.526 49.9982 469.321C49.3961 462.126 51.0596 455.013 53.611 448.216L53.611 448.196Z" fill="#878787"/>
<path d="M96.8883 422.416C96.3678 416.18 97.5414 410.006 99.5315 404.056L91.0098 411.353C89.0912 416.109 87.5807 421.049 86.897 426.141C86.1519 431.622 86.305 437.49 88.9789 442.45C89.2341 442.154 89.4994 441.868 89.7648 441.562L99.0927 430.683C97.8374 428.101 97.1434 425.284 96.9087 422.416L96.8883 422.416Z" fill="#878787"/>
<path d="M38.272 481.027C37.7719 474.996 38.8537 469.015 40.7111 463.239L28.199 477.833C28.199 477.833 29.1175 480.793 31.9445 483.62C34.7714 486.446 37.7719 487.406 37.7719 487.406L39.2211 486.161C38.721 484.497 38.4046 482.772 38.2618 481.017L38.272 481.027Z" fill="#878787"/>
<path d="M112.674 392.789C111.623 396.024 110.786 399.331 110.327 402.709C109.704 407.271 109.725 412.088 111.286 416.446L126.38 398.841C126.38 398.841 123.563 398.065 120.573 395.075C117.583 392.085 116.807 389.268 116.807 389.268L112.684 392.799L112.674 392.789Z" fill="#878787"/>
<path d="M87.815 443.368C86.2332 440.521 85.4371 437.357 85.1718 434.132C84.59 427.06 86.1821 420.059 88.6519 413.364L80.3955 420.436C80.3139 420.64 80.2118 420.824 80.1302 421.028C77.8237 426.417 75.9561 432.04 75.1702 437.847C74.4456 443.185 74.5885 448.879 77.0481 453.748L80.5282 450.757C83.151 448.502 85.6412 446.093 87.9681 443.542C87.9171 443.491 87.8558 443.43 87.8048 443.358L87.815 443.368Z" fill="#878787"/>
</svg>
