<svg width="512" height="512" viewBox="0 0 512 512" fill="none" xmlns="http://www.w3.org/2000/svg">
<path d="M95.5443 413.524C90.3257 429.875 83.9063 444.645 74.2212 457.854C71.2022 461.972 68.2731 462.567 64.1432 458.168C60.1928 453.971 56.2536 449.627 51.9104 445.868C46.8602 441.491 49.4302 438.45 52.8082 435.722C58.7114 430.942 65.2654 427.036 72.0327 423.546C79.2826 419.797 86.5212 415.971 95.5443 413.524Z" fill="#878787"/>
<path d="M89.8429 317.794C88.8104 327.199 90.7968 336.076 95.4542 344.325C100.886 353.954 156.472 409.54 166.101 414.972C174.35 419.629 183.238 421.604 192.632 420.583C204.157 419.315 212.855 410.483 214.134 399.035C214.583 395.108 214.325 391.236 210.004 389.339C205.145 387.218 200.746 388.25 197.132 392.044C193.844 395.489 195.235 398.856 197.345 402.425C198.972 405.174 203.338 407.834 201.767 410.572C199.792 414.029 194.775 413.95 190.757 414.287C178.525 415.297 169.075 410.045 161.163 401.168C157.112 396.174 152.982 391.236 148.986 386.208C152.679 382.112 155.877 376.983 155.305 374.772C153.386 367.286 144.486 359.419 146.753 361.664C149.02 363.908 142.859 356.58 135.643 354.302C132.994 353.471 130.75 354.549 128.842 356.255C127.102 357.814 125.396 359.408 123.713 361.024C118.854 357.152 114.084 353.168 109.258 349.263C100.37 341.34 95.1288 331.901 96.1388 319.669C96.4643 315.662 96.3969 310.634 99.8535 308.659C102.603 307.099 105.274 311.454 108.001 313.081C111.559 315.202 114.937 316.582 118.382 313.294C122.164 309.669 123.208 305.281 121.087 300.422C119.201 296.09 115.33 295.854 111.39 296.292C99.9433 297.571 91.111 306.269 89.8429 317.794Z" fill="#878787"/>
<path d="M20.1506 471.994C17.8949 478.29 16.6604 484.956 14.876 491.432C14.3373 493.385 14.3597 494.642 15.2014 495.147C15.7064 495.988 16.9634 496.011 18.9161 495.472C25.3916 493.688 32.0467 492.464 38.3538 490.197C50.1377 485.978 52.4047 487.886 43.0786 476.27C41.4962 474.284 36.0644 468.852 34.0892 467.281C22.4737 457.955 24.3928 460.21 20.1618 472.005L20.1506 471.994Z" fill="#878787"/>
<path d="M103.703 385.478C103.299 393.289 101.571 400.898 99.6742 409.17C99.6293 409.372 99.5619 409.529 99.9211 409.416C108.203 407.509 115.801 405.791 123.612 405.387C127.327 405.197 129.055 402.144 130.368 399.529C131.58 397.105 130.155 396.51 127.585 393.851C125.89 392.089 123.646 389.889 121.424 387.689C119.224 385.467 117.036 383.234 115.262 381.528C112.603 378.958 111.985 377.533 109.584 378.745C106.958 380.069 103.916 381.786 103.726 385.501L103.703 385.478Z" fill="#878787"/>
<path d="M83.5927 449.964C88.5194 438.685 93.9512 427.665 97.4639 415.847C97.9241 414.287 98.7096 413.008 100.46 412.536C107.553 410.606 114.646 408.721 123.433 408.485C110.987 424.23 97.9353 437.597 83.5702 449.964L83.5927 449.964Z" fill="#878787"/>
<path d="M59.284 425.656C70.5629 420.729 81.5835 415.297 93.4011 411.784C94.961 411.324 96.2404 410.539 96.7117 408.788C98.642 401.695 100.527 394.602 100.763 385.815C85.0177 398.261 71.6515 411.313 59.284 425.678L59.284 425.656Z" fill="#878787"/>
<path d="M40.0142 455.519C37.2983 453.477 36.0189 451.614 38.7797 449.235C41.4507 446.945 43.1117 440.503 47.9935 444.465C54.5251 449.762 60.4732 455.912 65.9274 462.332C69.3503 466.361 64.7602 468.684 62.1229 470.737C59.7437 472.578 57.0503 474.755 54.6486 470.199C53.4253 467.898 51.192 466.136 49.4076 464.127C49.3066 464.228 43.3698 458.044 40.0142 455.519Z" fill="#878787"/>
<path d="M27.9043 460.828C32.0006 463.33 35.9397 466.125 39.43 469.458C39.6881 469.716 39.935 469.963 40.1931 470.221C40.4513 470.479 40.6982 470.726 40.9563 470.984C44.3006 474.486 47.0839 478.414 49.5865 482.51C51.7301 486.023 53.3125 484.687 55.1867 482.633C58.026 479.547 57.117 476.461 55.0857 473.42C51.674 468.347 42.0449 458.718 36.9722 455.306C33.9533 453.275 30.8559 452.377 27.7584 455.205C25.7159 457.091 24.3691 458.662 27.8818 460.805L27.9043 460.828Z" fill="#878787"/>
<path d="M127.079 382.863C129.605 385.389 132.04 388.026 134.7 390.394C136.237 391.774 137.157 392.852 135.676 394.827C133.937 397.15 132.657 395.669 131.389 394.4C125.834 388.89 120.301 383.38 114.802 377.813C113.601 376.612 111.805 375.243 114.14 373.493C115.823 372.236 117.17 372.505 118.674 374.233C121.311 377.252 124.296 379.968 127.136 382.807C127.113 382.83 127.102 382.841 127.079 382.863Z" fill="#878787"/>
<path d="M451.023 41.1664C424.189 67.1694 137.584 349.533 135.261 351.766C142.241 351.003 159.232 365.525 157.044 374.986C159.569 372.393 438.386 89.4016 468.822 58.9656C499.258 28.5297 496.519 16.7234 494.612 14.838C493.096 13.3454 478.081 14.9166 451.011 41.1552L451.023 41.1664ZM308.427 202.773L162.723 348.567L161.039 346.884C245.816 262.938 368.513 137.727 453.379 56.2273C412.63 99.4459 350.894 160.015 308.427 202.773Z" fill="white"/>
</svg>
