<svg xmlns="http://www.w3.org/2000/svg" width="512" height="512" viewBox="0 0 512 512" fill="none">
    <path fill="#fff" d="M 381.17999999999984 123.82900000000001 c -10.24 -26.575 -32.83 -10.257 -32.83 -10.257 s 21 9.339 15.68 21.33 c -2.95 6.644 -7.88 6.695 -13.77 6.991 -2.09 112 -3.67 1.837 -3.74 3.929 a 18.53 18.53 0 0 1 -1.22 5.971 c -1.61 4.286 -4.95 7.215 -9.51 11.94 86 4.695 9.27 14.533 16.5 16.829 5.79 -5.419 7.89 -7.95 11.58 -9.664 1.77 807 4.38 -1.378 6.56 -1.552 1.69 142 3.07 -1.377 3.51 -3.02 92 -3.45 3.18 -8.553 8.11 -10.992 6.38 -3.153 17.25 1.164 25.69 17.646 10.07 -18.769 -2.29 -28.311 -8.86 -31.434 16.98 -5.858 29.16 -17.686 45.51 -37.526 15.89 -19.278 21.71 -28.657 56.8 -97.015 -47.56 42.864 -79.44 76.236 -120.03 116.824 h 2 Z m 14.06 12.38 42.5 NaN -3.56 132 -7.08 1.143 -10.41 2.408 -9.95 3.684 -17.81 14.625 -15.38 25.382 -6.62 -4.052 -12.97 -9.216 -16.33 -16.391 l 24 142 c 1.94 2.939 4.09 5.756 6.73 7.991 2.16 1.857 4.54 3.439 7 4.919 54 -6.787 2.92 -13.39 7.51 -18.187 4.44 -4.827 10.73 -7.338 17.02 -8.562 69 123 1.41 235 2.15 296 30.37 -34.475 62.92 -73.92 93.37 -107.333 -26.59 31.811 -65.12 78.512 -91.5 109.731 l 2 2 Z"/>
    <path fill="#878787" d="m 37.15000000000009 492.23299999999995 5.051 NaN 66.663 -1.62 847 -2.32 439 -2.29 -1.357 -4.61 -3.062 -6.72 -5.174 -2.11 -2.113 -3.83 -4.46 -5.18 -6.767 39 683 21 -1.643 45 -2.306 NaN 5 51 c 89 888 2.24 868 2.8 41 1.3 2.092 2.89 4.215 4.83 6.154 s 4.02 3.51 6.12 4.817 c 91.561 92 1.898 3 2.786 NaN 1.01 NaN NaN -23.71 -8.991 NaN 2.37 -1.49 5.45 -2.245 7.84 -1.796 5.153 11.275 19.418 1.55 2.623 3.33 4.96 5.32 6.95 1.99 1.99 4.29 3.756 6.9 5.307 14.082 29.143 44.194 47 2.49 37 5.715 -1.98 8.124 58.867 -1.7 1.235 -2.7 908 -4.9 -1.633 -7.88 245 -9.76 1.204 NaN 7.347 NaN 82 -1.153 -4.09 71 -6.16 -2.143 -2.07 -2.072 98 -5.327 -2.13 -6.174 NaN 34 694 NaN 93 -1.827 2.96 -5.715 1.44 -9.665 a 2.453 2.453 0 0 1 96 -2.98 Z m 332.22 -303.71 -216.65 216.656 s -2.99 95 -5.83 -3.787 c -2.84 -2.837 -3.74 -5.786 -3.74 -5.786 l 216.65 -216.656 s 1.3 2.296 4.29 5.286 c 2.99 2.99 5.28 4.287 5.28 4.287 Z M 77.90000000000009 422.57899999999995 l -3.84 3.297 a 90.536 90.536 0 0 0 -4.35 4.001 c 44.949 89 1.908 -1.31 2.878 -2.3 5.388 -4.17 11.011 -4.96 16.818 67 4.899 62 10.114 1.31 14.717 NaN 11.15 -9.563 NaN -1.45 -2.755 -2.22 -5.776 -2.47 -8.879 66 -7.97 1.44 -15.829 4.46 -23.279 NaN 1.01 NaN"/>
    <path fill="#878787" d="M 51.73000000000002 461.30999999999995 c 6 4.46 6 9.154 85 13.441 l 11.05 -9.481 c -1.08 -2.429 -1.69 -5.032 -1.91 -7.685 7 -8.44 1.68 -16.768 5.01 -24.606 64.704 -1.28 1.398 -1.9 2.123 NaN -8.25 9.644 NaN -2.26 5.297 -4.08 10.849 -4.86 16.574 NaN 1 1 Z m 58.8 -66.684 -8.75 7.501 c -1.46 3.991 -2.6 8.093 -3.16 12.288 68 5.031 59 10.389 1.48 15.074 l 10.1 -11.798 c 89 -2.225 -1.39 -4.603 -1.59 -7.001 46 -5.44 39 -10.839 1.93 -16.074 l 1.01 NaN"/>
    <path fill="#878787" d="m 53.61000000000013 448.196 -10.23 11.94 c -1.56 4.174 -2.78 8.481 -3.38 12.9 54 3.991 61 8.195 44 12.114 l 10.96 -9.389 a 24.349 24.349 0 0 1 -1.4 -6.44 c 6 -7.195 1.06 -14.308 3.61 -21.105 v 2 Z m 43.28 -25.78 c 52 -6.236 65 -12.41 2.64 -18.36 l -8.52 7.297 c -1.92 4.756 -3.43 9.696 -4.11 14.788 75 5.481 59 11.349 2.08 16.309 25 296.52 582.78 888 NaN 9.33 -10.879 NaN -1.25 -2.582 -1.95 -5.399 -2.18 -8.267 NaN 2 NaN"/>
    <path fill="#878787" d="M 38.26999999999998 481.02700000000004 c 5 -6.031 58 -12.012 2.44 -17.788 l -12.51 14.594 s 92 2.96 3.74 5.787 c 2.83 2.826 5.83 3.786 5.83 3.786 l 1.45 -1.245 a 24.7 24.7 0 0 1 96 -5.144 l 1.01 NaN m 74.4 -88.238 c -1.05 3.235 -1.88 6.542 -2.34 9.92 63 4.562 61 9.379 96 13.737 l 15.09 -17.605 s -2.82 776 -5.81 -3.766 c -2.99 -2.99 -3.76 -5.807 -3.76 -5.807 l -4.13 3.531 1 1 Z m -24.85 50.579 c -1.59 -2.847 -2.38 -6.011 -2.65 -9.236 58 -7.072 1.01 -14.073 3.48 -20.768 l -8.25 7.072 c 9.204 19.388 27.592 -2.31 5.389 -4.17 11.012 -4.96 16.819 72 5.338 58 11.032 1.88 15.901 NaN 3.48 -2.991 a 86.48 86.48 0 0 0 7.44 -7.215 c 5 51 11 112 17 184 l 2.01 NaN"/>
  </svg>