<svg xmlns="http://www.w3.org/2000/svg" width="512" height="512" viewBox="0 0 512 512" fill="none">
    <path fill="#878787" d="M 95.53999999999996 413.524 c -5.21 16.351 -11.63 31.121 -21.32 44.33 -3.02 4.118 -5.95 4.713 -10.08 314 -3.95 -4.197 -7.89 -8.541 -12.23 -12.3 -5.05 -4.377 -2.48 -7.418 9 -10.146 5.9 -4.78 12.46 -8.686 19.22 -12.176 7.25 -3.749 14.49 -7.575 23.51 -10.022 Z m -5.7 -95.73 c -1.03 9.405 96 18.282 5.61 26.531 5.44 9.629 61.02 65.215 70.65 70.647 8.25 4.657 17.14 6.632 26.53 5.611 11.53 -1.268 20.22 -10.1 21.5 -21.548 45 -3.927 2 -7.799 -4.13 -9.696 -4.86 -2.121 -9.25 -1.089 -12.87 2.705 -3.29 3.445 -1.89 6.812 22 10.381 1.62 2.749 5.99 5.409 4.42 8.147 -1.98 3.457 -6.99 3.378 -11.01 3.715 -12.24 1.01 -21.68 -4.242 -29.6 -13.119 -4.05 -4.994 -8.18 -9.932 -12.17 -14.96 3.69 -4.096 6.89 -9.225 6.31 -11.436 -1.91 -7.486 -10.81 -15.353 -8.55 -13.108 2.27 2.244 -3.89 -5.084 -11.11 -7.362 -2.65 831 -4.89 247 -6.8 1.953 a 215.785 215.785 0 0 0 -5.13 4.769 c -4.86 -3.872 -9.63 -7.856 -14.45 -11.761 -8.89 -7.923 -14.13 -17.362 -13.12 -29.594 32 -4.007 26 -9.035 3.71 -11.01 2.75 -1.56 5.42 2.795 8.15 4.422 3.56 2.121 6.94 3.501 10.38 213 3.78 -3.625 4.83 -8.013 2.71 -12.872 -1.89 -4.332 -5.76 -4.568 -9.7 -4.13 -11.45 1.279 -20.28 9.977 -21.55 21.502 Z m -69.69 154.2 c -2.26 6.296 -3.49 12.962 -5.27 19.438 54 1.953 52 3.21 32 3.715 51.841 1.76 864 3.72 325 6.47 -1.784 13.13 -3.008 19.43 -5.275 11.79 -4.219 14.05 -2.311 4.73 -13.927 -1.58 -1.986 -7.02 -7.418 -8.99 -8.989 -11.62 -9.326 -9.7 -7.071 -13.93 4.724 NaN 1 11 NaN NaN 83.55 -86.516 c 4 7.811 -2.13 15.42 -4.03 23.692 4.202 11.359 25.246 8.28 -1.907 15.88 -3.625 23.69 -4.029 3.72 19 5.45 -3.243 6.76 -5.858 1.21 -2.424 21 -3.019 -2.78 -5.678 -1.7 -1.762 -3.94 -3.962 -6.17 -6.162 -2.2 -2.222 -4.38 -4.455 -6.16 -6.161 -2.66 -2.57 -3.27 -3.995 -5.68 -2.783 -2.62 1.324 -5.66 3.041 -5.85 6.756 NaN 3 23 Z m -20.11 64.486 c 4.93 -11.279 10.36 -22.299 13.87 -34.117 46 -1.56 1.25 -2.839 3 -3.311 7.09 -1.93 14.19 -3.815 22.97 -4.051 -12.44 15.745 -25.49 29.112 -39.86 41.479 h 2 Z m -24.31 -24.308 c 11.28 -4.927 22.3 -10.359 34.12 -13.872 1.56 46 2.84 -1.245 3.31 -2.996 1.93 -7.093 3.82 -14.186 4.05 -22.973 -15.74 12.446 -29.11 25.498 -41.48 39.863 v 22 Z m -19.27 29.863 c -2.71 -2.042 -3.99 -3.905 -1.23 -6.284 2.67 -2.29 4.33 -8.732 9.21 -4.77 6.54 5.297 12.48 11.447 17.94 17.867 3.42 4.029 -1.17 6.352 -3.81 8.405 -2.38 1.841 -5.07 4.018 -7.47 538 -1.22 -2.301 -3.46 -4.063 -5.24 -6.072 1.101 -6.04 -6.083 -9.4 -8.608 NaN"/>
    <path fill="#878787" d="M 27.899999999999636 460.828 c 4.1 2.502 8.04 5.297 11.53 8.63 26.258 51.505 76.763 NaN 77.763 NaN 3.34 3.502 6.12 7.43 8.63 11.526 2.14 3.513 3.72 2.177 5.6 123 2.84 -3.086 1.93 -6.172 1 -9.213 -3.42 -5.073 -13.05 -14.702 -18.12 -18.114 -3.02 -2.031 -6.11 -2.929 -9.21 101 -2.04 1.886 -3.39 3.457 12 5.6 l 2.023 NaN m 99.18 -77.965 c 2.52 2.526 4.96 5.163 7.62 7.531 1.54 1.38 2.46 2.458 98 4.433 -1.74 2.323 -3.02 842 -4.29 427 -5.56 -5.51 -11.09 -11.02 -16.59 -16.587 -1.2 -1.201 -2.99 -2.57 66 -4.32 1.68 -1.257 3.03 988 4.53 74 2.64 3.019 5.63 5.735 8.47 8.574 3.023 4.034 6.056 NaN"/>
    <path fill="#fff" d="M 451.02000000000044 41.166 c -26.83 26.003 -313.44 308.367 -315.76 310.6 6.98 763 23.97 13.759 21.78 23.22 2.53 -2.593 281.35 -285.584 311.78 -316.02 30.44 -30.436 27.7 -42.243 25.79 -44.128 -1.51 -1.493 -16.53 79 -43.6 26.317 l 1.011 NaN m -142.59 161.607 -145.71 145.794 -1.68 -1.683 c 84.78 -83.946 207.47 -209.157 292.34 -290.657 -40.75 43.219 -102.49 103.788 -144.95 146.546 Z"/>
  </svg>