<svg width="399" height="454" viewBox="0 0 399 454" fill="none" xmlns="http://www.w3.org/2000/svg">
<path d="M262.873 48.06L254.853 37.78L259.693 31.58C260.753 30.24 260.513 28.28 259.153 27.24L224.253 0L225.033 24.16C197.653 22.12 207.313 46.86 207.313 46.86L184.873 53.18L219.353 80.1C220.313 80.84 221.673 80.68 222.413 79.72L226.773 74.12C233.133 71.58 238.613 72.38 242.673 73.92L262.873 48.04V48.06ZM215.413 51.88C209.933 53.34 204.413 54.68 198.833 55.8C203.693 53.78 208.613 51.94 213.573 50.22C206.133 35.58 215.413 27.32 230.413 28.64C230.433 23.34 230.573 18.06 230.913 12.76C231.713 18.8 232.253 24.86 232.653 30.94C224.993 30.38 212.233 31.8 213.673 42.2C213.933 45.34 215.293 48.54 216.593 51.54L215.413 51.86V51.88Z" fill="white"/>
<path d="M330.933 83.2801L290.413 51.6601C289.113 50.6401 287.513 50.1001 285.873 50.1001L264.773 50.1601L245.293 75.1201C248.293 76.7001 250.013 78.4001 250.013 78.4001C269.153 93.3401 257.953 108.9 257.953 108.9L244.493 125.2L267.073 142.82L279.193 126.84C279.193 126.84 295.453 112.66 305.313 119.76C315.173 126.86 311.153 145.16 311.153 145.16C349.913 150.04 398.453 194.58 398.453 194.58C394.333 162.18 360.953 117.06 346.033 98.2601C341.613 92.6801 336.533 87.6801 330.933 83.3001V83.2801ZM272.853 113.34C268.713 111.46 268.033 106 271.593 103.16C273.273 101.82 275.673 101.54 277.613 102.42C281.753 104.3 282.433 109.76 278.873 112.6C277.193 113.94 274.793 114.22 272.853 113.34ZM317.873 120.76C312.393 117.94 311.493 110.64 316.133 106.58C318.693 104.32 322.553 103.84 325.593 105.42C331.073 108.24 331.973 115.54 327.333 119.6C324.773 121.86 320.913 122.34 317.873 120.76ZM334.193 131.94C330.053 130.06 329.373 124.6 332.933 121.76C334.613 120.42 337.013 120.14 338.953 121.02C343.093 122.9 343.773 128.36 340.213 131.2C338.533 132.54 336.133 132.82 334.193 131.94ZM345.013 140.58C343.413 139.34 343.133 137.02 344.373 135.42C345.613 133.82 347.933 133.54 349.533 134.78C351.133 136.02 351.413 138.34 350.173 139.94C348.933 141.54 346.613 141.82 345.013 140.58ZM382.893 170.26C357.333 130.62 336.473 91.0801 295.793 64.8201C295.133 64.3201 291.213 61.7001 291.213 61.7001C312.213 73.5601 331.813 89.4801 346.673 108.24C357.953 122.32 366.413 138.08 375.093 154C377.973 159.28 381.993 166.9 384.113 172.54L382.913 170.26H382.893Z" fill="white"/>
<path d="M20.2725 397.9C19.3125 397.16 17.9325 397.32 17.1725 398.26C11.2125 405.6 6.89254 410.96 4.95254 413.46C-5.04746 426.42 2.39254 438.2 7.27254 443.72C9.07254 445.76 11.1925 447.54 13.5125 448.98C24.5125 455.8 32.2725 453.4 38.6125 449.18C41.0125 447.6 44.3525 444.38 46.0525 442.06L56.0525 428.58C56.7725 427.62 56.5925 426.26 55.6325 425.52L20.2525 397.92L20.2725 397.9Z" fill="#878787"/>
<path d="M108.393 354.38L76.4126 329.42C75.4726 328.68 74.0926 328.84 73.3326 329.76C70.1526 333.62 66.9926 337.46 63.8526 341.28C63.0526 342.24 63.2326 343.66 64.2126 344.42L96.7726 369.84C97.7526 370.6 99.1726 370.42 99.9126 369.42L108.793 357.44C109.513 356.48 109.333 355.12 108.373 354.38H108.393Z" fill="#878787"/>
<path d="M68.8327 407.72L34.2727 380.74C33.3327 380 31.9527 380.16 31.1927 381.1C27.8127 385.24 24.6527 389.1 21.7527 392.64C20.9727 393.6 21.1327 395 22.1127 395.78L57.2327 423.18C58.2127 423.94 59.6327 423.76 60.3727 422.76L69.2527 410.78C69.9727 409.82 69.7927 408.46 68.8327 407.72Z" fill="#878787"/>
<path d="M82.0126 389.94L48.2927 363.62C47.3527 362.88 45.9727 363.04 45.2127 363.98C41.9327 367.96 38.7727 371.82 35.7527 375.52C34.9727 376.48 35.1327 377.9 36.1127 378.66L70.4127 405.42C71.3927 406.18 72.8127 406 73.5527 405L82.4327 393.02C83.1527 392.06 82.9726 390.7 82.0126 389.96V389.94Z" fill="#878787"/>
<path d="M197.273 239.96C194.493 238.7 188.393 235.64 181.393 230.18C176.613 226.46 171.433 221.62 166.593 215.48L166.753 215.34C149.093 215.24 152.433 232.6 152.633 233.58C164.213 248.56 177.353 255.1 183.213 257.42C199.013 257.02 198.593 245.86 197.253 239.96H197.273ZM159.113 229.04C158.213 228.34 158.353 226.62 159.453 225.22C160.553 223.82 162.173 223.26 163.073 223.96C163.973 224.66 163.833 226.38 162.733 227.78C161.633 229.18 160.013 229.74 159.093 229.04H159.113ZM172.513 241.08C171.133 240 170.893 238 171.973 236.62C173.053 235.24 175.053 235 176.433 236.08C177.813 237.16 178.053 239.16 176.973 240.54C175.893 241.92 173.893 242.16 172.513 241.08ZM186.813 250.66C185.913 249.96 186.073 248.26 187.173 246.86C188.273 245.46 189.893 244.88 190.773 245.58C191.653 246.28 191.513 247.98 190.413 249.38C189.313 250.78 187.693 251.36 186.813 250.66Z" fill="#878787"/>
<path d="M181.333 259.7C177.533 258.14 171.593 255.2 164.993 250.06C160.413 246.48 155.553 241.78 150.873 235.82C145.353 242.5 127.533 264.04 106.133 290.02C105.333 290.98 105.493 292.42 106.473 293.18L136.373 316.52C137.353 317.28 138.773 317.1 139.513 316.1L181.333 259.72V259.7Z" fill="#878787"/>
<path d="M170.072 215.28C179.712 226.92 190.652 233.5 196.212 236.32L263.173 151.68C264.473 150.04 264.212 147.64 262.552 146.32L241.673 129.68C240.013 128.36 237.592 128.64 236.272 130.32L170.052 215.28H170.072Z" fill="#878787"/>
<path d="M121.593 336.6L90.4925 312.34C89.5525 311.6 88.1925 311.74 87.4325 312.68C84.2925 316.5 81.1125 320.34 77.9525 324.2C77.1525 325.16 77.3125 326.58 78.2925 327.36L109.973 352.1C110.953 352.86 112.373 352.68 113.113 351.68L121.993 339.7C122.713 338.74 122.533 337.38 121.573 336.64L121.593 336.6Z" fill="#878787"/>
<path d="M95.2126 372.16L62.3526 346.52C61.4126 345.78 60.0326 345.94 59.2726 346.86C56.0526 350.78 52.8926 354.62 49.7926 358.38C48.9926 359.34 49.1726 360.76 50.1526 361.52L83.5926 387.62C84.5726 388.38 85.9926 388.2 86.7326 387.2L95.6126 375.22C96.3326 374.26 96.1526 372.9 95.1926 372.16H95.2126Z" fill="#878787"/>
<path d="M134.773 318.82L104.573 295.26C103.633 294.52 102.273 294.66 101.513 295.58C98.3926 299.36 95.2326 303.2 92.0326 307.08C91.2326 308.04 91.3926 309.48 92.3726 310.24L123.173 334.28C124.153 335.04 125.573 334.86 126.313 333.86L135.193 321.88C135.913 320.92 135.733 319.56 134.773 318.82Z" fill="#878787"/>
</svg>
