<svg width="414" height="433" viewBox="0 0 414 433" fill="none" xmlns="http://www.w3.org/2000/svg">
<path fill-rule="evenodd" clip-rule="evenodd" d="M99.1489 297.74L103.069 301.8V301.82L138.149 338.02C136.829 345.46 116.809 349.14 116.809 349.14C83.3543 357.727 58.8976 405.141 54.4341 413.794L54.4327 413.797C54.2912 414.071 54.1698 414.306 54.0689 414.5C48.6289 424.92 25.3089 442.44 8.48889 425.08C-10.6111 405.36 8.48889 388.1 8.48889 388.1L99.1489 297.74ZM129.369 341.6L129.529 341.44C129.52 341.436 129.512 341.43 129.504 341.424C129.49 341.412 129.479 341.397 129.466 341.382C129.455 341.369 129.443 341.354 129.429 341.34C120.889 332.34 103.709 314.62 95.0689 305.86C98.0495 311.838 103.129 317.334 107.895 322.492L107.895 322.492L107.896 322.494L107.898 322.495C108.791 323.462 109.674 324.416 110.529 325.36C114.669 329.68 119.609 334.1 124.269 337.92C124.855 338.339 125.438 338.774 126.023 339.212C126.977 339.925 127.937 340.643 128.929 341.3C129.009 341.35 129.078 341.4 129.148 341.45L129.148 341.45L129.149 341.45C129.219 341.5 129.289 341.55 129.369 341.6ZM27.0489 414.98C32.0195 414.98 36.0489 410.951 36.0489 405.98C36.0489 401.01 32.0195 396.98 27.0489 396.98C22.0783 396.98 18.0489 401.01 18.0489 405.98C18.0489 410.951 22.0783 414.98 27.0489 414.98Z" fill="#878787"/>
<path d="M404.469 0.0200005C404.469 0.0200005 361.209 13.58 335.009 41.4C311.629 66.24 325.229 51.34 291.589 99.64C276.429 121.42 248.689 154.34 209.769 195.06C169.089 237.6 119.709 285.68 106.489 298.48L135.669 328.6L137.949 326.34C139.649 324.64 142.409 324.66 144.089 326.4L144.749 327.08L291.149 186.5C291.149 186.5 366.869 117.94 373.409 111.08C379.929 104.22 434.669 65.06 404.489 0L404.469 0.0200005ZM364.249 103.6C355.189 112.42 340.829 125.26 331.469 134C280.729 180.94 217.549 238.46 167.649 285.9C205.789 249.02 258.449 197.74 296.609 162.12C318.369 141.78 338.849 119.44 361.049 99.64C377.049 81.98 398.549 62.98 400.629 36.44C400.529 32.76 400.029 29 398.549 25.62L398.809 25.48C400.369 28.92 400.909 32.7 401.069 36.42C400.949 63.24 381.889 85.24 364.229 103.58L364.249 103.6Z" fill="white"/>
</svg>
