<svg width="512" height="512" viewBox="0 0 512 512" fill="none" xmlns="http://www.w3.org/2000/svg">
<g clip-path="url(#clip0_268_10730)">
<path d="M140.101 374.695L144.205 380.764C147.986 386.368 152.437 391.502 157.447 396.04L162.873 400.963L414.845 182.527L406.984 175.495C403.998 172.815 401.348 169.789 399.071 166.495L392.058 156.273L140.086 374.709L140.101 374.695Z" fill="#878787"/>
<path d="M428.199 122.872C430.58 122.85 432.641 121.504 433.789 119.488L444.661 123.883C444.537 126.031 444.988 128.206 446.018 130.126C450.274 137.994 461.005 138.759 466.334 131.575C469.015 127.954 469.387 122.942 467.231 118.991C464.869 114.612 460.487 112.453 456.177 112.603C456.09 112.568 456.006 112.503 455.92 112.467L441.861 106.781C442.741 106.046 443.662 105.358 444.666 104.735C453.32 99.4126 464.761 100.583 472.235 107.454C482.576 116.997 482.108 133.098 471.777 142.054C468.25 145.112 464.044 146.91 459.747 147.49C456.763 147.898 454.386 150.152 454.025 153.14L453.626 156.466C453.408 158.282 452.52 159.962 451.149 161.15L428.645 180.659C425.574 183.321 420.929 182.99 418.267 179.919L410.394 172.842C407.297 170.065 404.567 166.916 402.257 163.456L396.369 154.659C393.706 151.588 394.038 146.943 397.109 144.281L419.723 124.676C421.046 123.529 422.731 122.896 424.49 122.888L428.215 122.858L428.199 122.872Z" fill="#878787"/>
<path d="M116.827 451.225L103.189 463.047C97.0657 458.37 90.5885 452.649 84.6634 445.814C78.7383 438.979 73.9251 431.677 70.223 424.957L83.8609 413.134C87.6219 419.859 92.3805 427.098 98.3329 433.964C104.285 440.83 110.69 446.532 116.827 451.225Z" fill="#878787"/>
<path d="M132.071 438.009L118.433 449.832C112.31 445.155 105.833 439.433 99.9077 432.599C93.9826 425.764 89.1694 418.462 85.4672 411.741L99.1052 399.918C102.866 406.643 107.625 413.882 113.577 420.749C119.53 427.615 125.934 433.317 132.071 438.009Z" fill="#878787"/>
<path d="M86.1336 477.833L72.3066 489.819C66.7956 485.467 61.0944 480.258 55.8246 474.18C49.176 466.51 44.0235 458.371 40.1438 451.032L53.5771 439.387C57.4326 446.444 62.397 454.111 68.7044 461.387C74.2745 467.812 80.3411 473.283 86.1336 477.833Z" fill="#878787"/>
<path d="M101.583 464.44L87.7399 476.44C81.9296 471.933 75.863 466.463 70.2792 460.022C63.9582 452.73 59.0096 445.049 55.1834 437.994L68.6167 426.349C72.3777 433.074 77.1362 440.313 83.0886 447.179C89.041 454.045 95.4458 459.747 101.583 464.44Z" fill="#878787"/>
<path d="M54.2656 475.531C59.5217 481.594 65.2072 486.816 70.7161 491.198L61.0782 499.554C58.7474 501.574 55.2866 501.623 52.9018 499.636L51.4505 498.439C42.1317 490.712 34.1451 481.499 27.8048 471.163L26.826 469.556C25.2107 466.93 25.7363 463.495 28.0671 461.474L38.5396 452.396C42.4624 459.752 47.6327 467.848 54.2677 475.502L54.2656 475.531Z" fill="#878787"/>
<path d="M147.331 424.78L133.693 436.603C127.57 431.926 121.093 426.204 115.168 419.37C109.243 412.535 104.43 405.233 100.727 398.512L114.365 386.689C118.126 393.414 122.885 400.653 128.837 407.52C134.79 414.386 141.194 420.088 147.331 424.78Z" fill="#878787"/>
<path d="M130.412 406.154C124.446 399.272 119.674 392.017 115.971 385.296L126.617 376.068C129.405 373.651 133.671 374.118 135.851 377.11L141.761 385.2C145.059 389.705 148.718 393.925 152.71 397.83L159.879 404.827C162.532 407.41 162.388 411.699 159.601 414.115L148.939 423.358C142.816 418.681 136.339 412.959 130.414 406.125L130.412 406.154Z" fill="#878787"/>
<path d="M400.752 101.306L400.746 101.326C399.875 104.129 396.897 105.695 394.093 104.824L365.372 95.902C362.569 95.0312 361.003 92.0529 361.874 89.2498L361.88 89.2299C362.751 86.4268 365.729 84.8604 368.532 85.7312L397.253 94.6536C400.056 95.5244 401.623 98.5027 400.752 101.306Z" fill="white"/>
<path d="M457.956 121.287L457.948 121.306C456.849 124.028 453.751 125.342 451.029 124.242L418.412 111.058C415.69 109.958 414.376 106.861 415.476 104.139L415.484 104.12C416.583 101.399 419.681 100.084 422.403 101.184L455.02 114.368C457.742 115.468 459.056 118.566 457.956 121.287Z" fill="white"/>
<path d="M351.588 85.3248L351.582 85.3447C350.711 88.1478 347.733 89.7142 344.93 88.8434L316.209 79.921C313.406 79.0502 311.839 76.0719 312.71 73.2688L312.716 73.2489C313.587 70.4459 316.565 68.8794 319.368 69.7502L348.089 78.6726C350.893 79.5434 352.459 82.5217 351.588 85.3248Z" fill="white"/>
<path d="M423.306 99.2826C422.071 98.7809 420.764 98.6729 419.54 98.8516L402.222 93.48C401.197 93.1557 400.154 93.0666 399.112 93.1696C398.756 92.9817 398.382 92.8369 397.993 92.7057L388.264 89.6925C392.391 85.4803 398.697 83.6545 404.71 85.5311L422.243 90.9919C426.391 92.2776 429.78 95.1048 431.809 98.9728C432.565 100.386 433.08 101.871 433.371 103.384L423.318 99.3278L423.306 99.2826Z" fill="white"/>
<path d="M393.573 106.826C393.949 106.941 394.3 106.996 394.68 107.052C395.473 107.744 396.409 108.284 397.494 108.612L415.027 114.073C416.732 114.608 418.468 114.51 420.045 113.943L429.221 117.656C425.084 122.015 418.697 123.938 412.567 122.053L395.034 116.593C392.042 115.655 389.505 113.938 387.594 111.733C385.683 109.528 384.374 106.746 383.874 103.814L393.603 106.828L393.573 106.826Z" fill="white"/>
<path d="M369.273 83.7583C369.013 83.6806 368.764 83.6481 368.531 83.602C368.503 83.5705 368.476 83.539 368.449 83.5075C367.507 82.4208 366.281 81.58 364.821 81.136L347.288 75.6752C346.377 75.3887 345.452 75.308 344.519 75.3448L333.316 71.8719C337.443 67.6597 343.749 65.834 349.762 67.7106L367.294 73.1714C373.567 75.1256 377.791 80.5389 378.596 86.654L369.273 83.7583Z" fill="white"/>
<path d="M340.009 89.4881C340.763 90.1033 341.631 90.5641 342.571 90.8527L360.104 96.3135C360.899 96.5623 361.69 96.6483 362.475 96.6303C363.188 97.1983 363.984 97.6392 364.865 97.9236L373.552 100.626C369.421 104.483 363.382 106.077 357.63 104.278L340.097 98.8174C337.106 97.8801 334.569 96.1627 332.657 93.9579C330.746 91.7532 329.437 88.9708 328.921 86.0529L340.023 89.5038L340.009 89.4881Z" fill="white"/>
<path d="M240.997 48.5206C245.601 38.6541 253.938 30.5165 264.984 26.4578C267.957 25.3696 270.949 24.652 273.962 24.2463L281.636 9.45694L289.06 24.8942C300.593 27.4746 310.827 34.7938 316.905 45.4957L332.414 47.2219L321.719 58.5897C324.275 71.8478 320.363 85.28 311.705 95.02L315.399 110.768L300.213 104.1C298.398 105.093 296.531 105.995 294.544 106.725C286.138 109.819 277.416 110.099 269.331 108.06L257.315 118.89L255.803 101.968C248.644 97.1139 242.849 90.1112 239.63 81.3713C237.082 74.4227 236.427 67.2397 237.447 60.3978L227.256 51.22L240.997 48.5206ZM299.478 79.5803C288.056 82.0903 302.917 82.3371 306.605 81.7875C305.305 78.0601 303.869 74.3674 301.222 71.2829C301.163 73.9825 301.645 76.5434 302.383 79.0486C301.414 79.1716 300.427 79.3376 299.465 79.5645L299.478 79.5803ZM252.626 80.4214C256.455 81.4331 260.325 82.2705 264.333 81.8027C262.125 80.2416 259.729 79.2287 257.229 78.4447C257.661 77.5742 258.08 76.6585 258.426 75.7523C262.689 64.8568 254.21 77.0622 252.61 80.4351L252.626 80.4214ZM273.271 46.5811C275.221 44.7255 276.689 42.5696 277.947 40.2657C278.717 40.8673 279.518 41.4415 280.366 41.9748C290.215 48.2766 279.896 37.5827 276.893 35.3592C275.177 38.9158 273.588 42.5553 273.271 46.5811Z" fill="white"/>
</g>
<defs>
<clipPath id="clip0_268_10730">
<rect width="512" height="512" fill="white"/>
</clipPath>
</defs>
</svg>
