<svg xmlns="http://www.w3.org/2000/svg" width="512" height="512" fill="none" viewBox="0 0 512 512">
  <path fill="#fff" d="M446.625 100.757c-21.199 24.37-227.833 228.903-255.737 256.524-5.18-12.965-10.598-27.627-11.374-32.819 31.059-30.096 270.671-262.825 279.721-286.104 0 0 10.15 36.253-12.61 62.399Z"/>
  <path fill="#878787" d="M97.588 421.008c3.752-4.46 11.501-5.544 22.965-3.307L97.05 439.815c-.782-1.991-4.597-12.711.538-18.807Zm33.23-25.258c-2.972 4.452-11.201 5.58-23.945 3.397a2865.195 2865.195 0 0 0 21.398-20.811c2.633 4.912 5.756 12.619 2.547 17.394v.02Z"/>
  <path fill="#878787" d="M147.361 371.79c-1.699 1.959-2.252 4.505-2.224 7.105.064 5.879 3.19 12.066 3.374 12.444 0 0 .001.02.021.04l-26.157 24.602c-13.031-2.76-21.938-1.544-26.362 3.704-2.429 2.886-3.17 6.534-3.133 9.994.062 5.74 2.258 10.957 2.422 11.295.041.119.122.199.203.298l-7.01 6.595a233.517 233.517 0 0 0-5.056-7.086c-2.862-3.869-5.965-7.876-9.067-11.803 4.505-3.248 16.664-14.58 30.68-28.051 14.63 2.723 23.876 1.383 27.498-4.016 3.918-5.863.181-14.803-2.716-20.072 15.26-14.965 28.757-28.391 33.249-32.859 3.262 7.565 7.669 17.538 10.477 23.868l-3.187 3.015c-11.639-3.515-19.396-3.232-22.992.947l-.02-.02Z"/>
  <path fill="#878787" d="M148.916 373.133c2.884-3.351 9.682-3.544 19.714-.672l-18.534 17.44c-1.065-2.288-5.23-12.044-1.18-16.768Zm-67.144 68.866a274.219 274.219 0 0 1 5.199 7.284v.02s.02.04.081.1c.265.397.549.794.813 1.191.696 1.493.946 4.21-3.115 7.874 0 0-5.934 6.184-11.04 11.299-4.927 4.933-10.221 5.45-14.975-1.379-7.841-11.236-12.604-18.866-2.606-28.414 9.424-9.001 12.374-13.693 16.09-10.393 3.264 4.105 6.55 8.35 9.553 12.418Zm-15.55-.833-6.41 6.409c-.812.809-1.122 1.732-1.112 2.712.018 1.66.978 3.53 2.098 5.358l4.803 7.669c.808.791 2.04 1.818 3.516 1.462.977-.23 1.71-.978 2.56-1.827l7.24-7.479c2.157-2.163.565-5.126-.966-7.99l-4.042-5.777c-1.303-2.106-2.728-2.61-3.71-2.68-1.42-.085-2.792.65-4.016 2.163l.04-.02Z"/>
  <path fill="#878787" d="m72.2 442.803.04.059 3.982 5.698c1.572 2.943 2.229 4.496 1.26 5.467l-7.122 7.376c-.692.708-1.266 1.274-1.686 1.359-.339.083-.842-.191-1.508-.824l-4.6-7.371c-1.852-2.98-2.21-4.577-1.28-5.527l6.471-6.49c.83-1.029 1.644-1.517 2.345-1.465.9.05 1.63.963 2.098 1.718Zm103.485-128.561s-2.165 8.864.179 12.939c2.408 10.095 11.387 32.26 14.529 39.886 2.521 7.454 4.824 18.929-3.079 22.415-12.004 5.269-8.431-8.43-8.431-8.43s.953-6.191-2.016-10.779c-2.521-5.653-8.342-18.772-12.26-27.87 0 0-13.466-32.077-2.238-35.098 11.229-3.001 13.276 6.938 13.276 6.938l.04-.001Z"/>
</svg>
