<svg xmlns="http://www.w3.org/2000/svg" width="512" height="512" fill="none" viewBox="0 0 512 512">
  <path fill="#878787" d="M333.76 349.58c-13.94-1.6-28.06-8.16-39.02-14.64-4.4 4.72-9.06 9.82-13.92 15.28 11.44 6.62 26.2 13.28 40.28 14.16 4.2-4.74 8.42-9.7 12.66-14.82v.02Zm21.06-27.52c-10.6-6.1-17.46-13.34-20.86-17.56-1.52-1.9-2.7-3.6-3.64-5.12-2.92 2.66-8.98 8.32-17.16 16.52 10.46 6 23.58 11.92 36.4 13.48 1.78-2.42 3.54-4.86 5.28-7.32h-.02Zm-7.3 10.02c-13.06-1.92-26.14-8-36.5-14.06-4.28 4.32-9.06 9.24-14.26 14.76 11.16 6.46 25.46 12.92 39.22 14.06 3.88-4.78 7.74-9.72 11.54-14.76Zm-16.6-36.22c.96 1.64 2.24 3.62 4.06 5.86 3.28 4.08 9.82 11.3 20.14 17.18 2.26 1 10.52 6.8 14.96-1.5 3.18-5.94 1.76-10 1.76-10s-2.72-1.12-2.64-1.14c-1.34-.72-2.8-1.56-4.42-2.62-5.1-3.38-14.44-10.76-22.08-23.14-.04.36-16.66-1.74-11.8 15.36h.02Zm-81.7 92.34c-2.72 3.5-5.44 7.06-8.18 10.7 5 11.28 12.92 16.5 17.72 18.74a29.02 29.02 0 0 0 6.9 2.22c3.54-3.1 11.06-9.8 20.78-19.22-12.98-.92-26.3-6.46-37.22-12.44Z"/>
  <path fill="#878787" d="M263.5 422.24c-1.8-.44-3.8-1.1-5.9-2.1a37.31 37.31 0 0 1-9.16-6.14c-3.6-3.28-7.24-7.9-10.02-14.26-2.24-.6-6.8-.46-12.7 6.82-9.48 11.7 3.76 24.58 3.76 24.58s9.7 9.34 16.36 9.18c5.64-.14 20.58-5.6 17.66-18.08Zm40.58-39.34c-13.94-.64-28.38-6.76-39.92-13.24-4.3 5.18-8.68 10.58-13.08 16.2 11.34 6.12 25.16 11.7 38.26 11.98 4.56-4.46 9.52-9.48 14.76-14.94h-.02Zm56.78-124.8c-5.84 3.82-13.7 10.46-16.28 19.52l.08-.04c7.6 13.5 17.54 21.32 22.78 24.8 2.46 1.62 4.58 2.74 6.32 3.54 4.38-2.18 12.1-7.52 19.34-19.66-.46-.66-.96-1.34-1.48-2.04-4.9-6.54-14.76-17.44-30.76-26.12Z"/>
  <path fill="#878787" d="M318.661 367.16c-14.18-1.42-28.62-8.12-39.78-14.7-4.16 4.72-8.44 9.7-12.82 14.92 11.92 6.58 26.84 12.72 40.76 12.66 3.84-4.06 7.82-8.38 11.84-12.88Z"/>
  <path fill="#fff" d="M122.44 384.5c-.12 0-.22.02-.32.04 0 0 1.84-17.74-17.58-37.66-19.42-19.92-55.58-9.24-55.58-9.24s-6.34 31.78 16.98 53.02c13.02 11.86 25.62 14.8 34.22 15.08 5.84.2 11.56-1.54 16.36-4.88l3.14-2.18c2.7-1.86 3.16-8.94 2.8-14.2l-.02.02Zm-47.8-6.6c7.06 7.64 16.92 12.08 26.6 15.6-2.56-.6-5.14-1.22-7.7-1.9-7.62-2.46-15.02-6.16-20.86-11.76-8.36-7.96-12.76-19.78-10.9-31.4 24.28-3.6 42.66 12.8 48 35.68-7.38-19.48-23.04-34.54-44.72-32.34-.78 9.42 3.14 19.16 9.6 26.1l-.02.02Zm364.381-116.36c-8.84-1.84-22.16 3.54-22.16 3.54s14.52-12.1 36.62-15.2c0 0 7.98-2.6-2.08-4.12s-32.56 11.58-32.56 11.58 18.66-18.04 39.76-22.68c0 0 7.02-4.74-2.5-5.3-9.52-.56-32.94 17.12-32.94 17.12s16.38-16.76 31.24-19.78c0 0 4-5.66-6.6-3.6-5.4 1.04-7.48 2.42-11.68 4.32 14.12-16 48.74-62.56 26.44-113.48-27.6-63.02-94.4-59.24-94.4-59.24s-63.24-5.38-125.88 69.7c-62.64 75.06-52 156.72-52 156.72s4.82 92.86-65.08 103.08c.16 2.3.28 6.02-.32 9.48 5.02-1.16 38.34-9.58 53.02-31.18 15.9-23.4 21.44-51.16 22.18-81.68.74-30.52 7.8-96.6 52.4-142.16 32.92-33.64 100.36-93.72 168.54-43.1 68.18 50.64-24.06 141.42-24.06 141.42s17.04-28.4 18.46-44.3c0 0-2.34-4.86-5.36 1.62-3.04 6.48 2.42 3.96-22.68 44.12 0 0 16.02-41.72 11.3-54.02-5.88-15.38-7.16 10.84-7.16 10.84s-4.42 30.04-13.02 47.52c0 0 7.72-25.6 4.8-41.62-2.92-16.02-7.88.78-7.88.78s.84 36.1-9.4 52.4l6.78 4.54c6.26 4.2 12.02 9.1 17.16 14.62l6.28 6.76s5.82-.1 13.32-5.54 22.48-7.22 22.48-7.22l8.22-.46s7.1-3.7-1.26-5.44l.02-.04Z"/>
</svg>
