<svg xmlns="http://www.w3.org/2000/svg" width="512" height="512" fill="none" viewBox="0 0 512 512">
  <path fill="#fff" d="M459.742 77.68s-7.3-18.22-36.64-47.68c0 0-2.7 50.16-107.26 147.08L156.382 336.4l32.92 36.08 220.06-181.58s78.28-52.06 50.4-113.22h-.02Zm-20.78 58.56c-10.3 21.02-27.38 37.9-45.6 52.14-55.64 44.4-122.66 99.94-178 145.5C268.202 286.72 335.54 229.7 390 184c35.66-28.04 68.742-68.42 50.662-115.12 11.5 20.58 8.74 46.8-1.72 67.34l.02.02Z"/>
  <path fill="#878787" d="m153.302 339.48-.56.56s-3.16-1.64-4.98.34c-12.04 13.12-58.92 61.18-95.92 93.9 0 0-15.46 21.7 3.92 40.22 19.36 18.52 36.04-9.38 36.04-9.38s32.12-64.18 68.82-66.88l25.42-22.9-32.72-35.88-.02.02Zm-82.02 124.3a3.548 3.548 0 0 1-5.02-.26c-1.32-1.46-1.2-3.7.26-5.02 1.46-1.32 3.7-1.2 5.02.26 1.32 1.46 1.2 3.7-.26 5.02Zm9-20.42a3.548 3.548 0 0 1-5.02-.26c-1.32-1.46-1.2-3.7.26-5.02 1.46-1.32 3.7-1.2 5.02.26 1.32 1.46 1.2 3.7-.26 5.02Zm11.82-17.2c-.92.82-2.34.76-3.16-.16-.82-.92-.76-2.34.16-3.16.92-.82 2.34-.76 3.16.16.82.92.76 2.34-.16 3.16Zm56.76-42.64a7.199 7.199 0 0 1-10.2-.54 7.199 7.199 0 0 1 .54-10.2 7.199 7.199 0 0 1 10.2.54c2.66 2.98 2.44 7.54-.54 10.2Z"/>
</svg>
