<svg xmlns="http://www.w3.org/2000/svg" width="512" height="512" fill="none" viewBox="0 0 512 512">
  <path fill="#878787" d="m137.7 374.88-1.86 1.9-2.24 6.2c1.4 2.1 4.56 7.3 5.46 12.7l1.8-2.58 8.72-5.72c-3.5-5.52-8.5-9.92-11.9-12.52l.02.02Zm-21.14 26.58-10.84 6.26-5.16 9.18c1.4 2.18 3.76 6.32 4.8 10.78l.2-.36 9.38-5.2 5.64-9.14c.12-4.24-2-8.92-3.74-12.04l-.26.52h-.02Zm-32.48 32.52-8.38 4.58-3.02 3.12-1.26 1.28c2.84 1.94 7.52 5.66 10.02 10.28l5.2-3.28 2.4-4.18c-.16-4.68-2.76-9.74-4.5-12.58l-.48.76.02.02Zm-14.36 10.24c-6.28.52-9.46.34-14.52 5.84-5.96 6.48-4.5 12.34-3.3 15.46 1.16 3.14 4.64 6.64 7.76 7.9 3.1 1.26 8.64 2.28 14-2.34 6.08-5.24 6.74-7.76 6.9-15.02-1.92-5.38-7.94-9.9-10.82-11.82l-.02-.02Zm21.24-21.32-5.2 8.42c1.48 2.3 4.06 6.82 4.98 11.58l.76-1.32 8.54-4.78 3.78-6.46c-.48-4.46-2.92-9.1-4.52-11.72l-8.34 4.28Zm41.6-37.04-10.7 5.28-3.94 7.66c1.64 2.72 3.92 7.22 4.52 11.76l10.6-6.28 4.26-6.1c-.1-4.76-2.82-9.98-4.56-12.84l-.18.5v.02Z"/>
  <path fill="#878787" d="M155.36 343.46c-1.8.28-4.58.88-8.08 1.36-5.18.7-14.84 9.92-14.84 9.92-17.34-5.44-30.2.92-30.2.92l16.26 5.62c9.46 4.34 14.74 7.8 17.56 9.96 2.68 1.78 10.3 7.3 15.22 15.08l.2-.12s8.72 9.68 11.42 30.64c0 0 3.5 8.12 8.06.22 0 0 2.36-4.2-2.8-21.66l6.18-5.6s7.34-6.88 8.3-15.52c-2.16-26.88-20.92-30.38-27.24-30.78l-.04-.04Z"/>
  <path fill="#fff" d="M459.84 69.62c-13.24-10.92-27.18-5.94-27.18-5.94L160.28 340.22c8.34 1.82 21.5 7.78 25.4 27.08L465.36 96.5s5.22-13.46-5.52-26.88ZM184.4 330.78l52.72-56.16c3.22-3.24 7.94-4.02 11.9-2.38l-1.58 1.58c-.84-.26-1.7-.42-2.58-.42-2.28 0-4.56.86-6.3 2.6l-52.72 56.16c-1.58 1.58-3.56 4.14-3.44 6.9l-1.7 1.7c-.86-3.12.36-6.64 3.7-9.98Zm68.16-40.84-55.88 53.42c-2.54 2.54-5.22 3.84-7.78 3.84-.94 0-1.86-.2-2.74-.54l1.6-1.6c3.24.66 6.18-1.76 7.54-3.1l55.88-53.42c2.46-2.46 3.12-6.04 2.04-9.14l1.54-1.54c1.78 3.98 1.08 8.84-2.18 12.12l-.02-.04Zm14.06-26.44c57.62-62.44 117.32-123 178.86-181.56-57.66 62.42-117.28 123-178.86 181.56Z"/>
</svg>
