<svg xmlns="http://www.w3.org/2000/svg" width="512" height="512" fill="none" viewBox="0 0 512 512">
  <path fill="#fff" d="m457.82 56.4-317.6 300.02c2.06 3.24 4.28 6.56 6.2 8.98 2.84 3.76 6.22 6.74 9.94 9.56l279.56-264.08s22.76-22.66 21.9-54.48Z"/>
  <path fill="#878787" d="M66.38 426.28c-1.6 3.62-3.08 8.04-3.72 12.94 7.84 3.76 16.64 5.36 25.08 2.72 0 0 .34 1.18.54 1.9.2-1.78.58-3.46 1.24-4.96v-.02c-6.68-1.16-13.2-3.52-18.46-7.86-1.72-1.44-3.28-3-4.72-4.72h.04Z"/>
  <path fill="#878787" d="M62.58 439.98c-.48 4.42-.26 9.2 1.16 14.12 8.48.86 17.04-1.94 24.4-6.44-.02-1.1 0-2.2.08-3.26-8.9 2.08-17.84-.08-25.64-4.42Zm27.22-1.58c.6-1.1 1.68-2.6 3.18-4.42-8.76-3.64-14.98-11.06-18.84-19.54l-1.92 1.82s-2.3 2.88-4.68 7.6c5.02 7.76 13.36 12.36 22.26 14.54Z"/>
  <path fill="#878787" d="M64.42 456.18c1.24 3.48 3.12 7 5.8 10.5 7.94-2.58 15.04-7.32 18.98-14.9-.46-.92-.86-1.34-.88-1.36l.04-.04s-.04 0-.06-.02c-.08-.8-.12-1.6-.16-2.4-6.38 4.5-13.76 7.9-21.62 8.2-.7.02-1.4.02-2.1 0v.02Zm61.68-90.82-7.82 7.38c4.34 7.78 10.8 14.36 19.44 17.06 2.22-2.06 3.62-3.32 3.82-3.5-9.8-2.38-14.18-10.14-15.62-20.74 2.64 4.64 4.02 9.86 7.28 13.6 3.16 3.62 7.74 5.84 12.28 7.58-.62-3.56-.08-6.3 1.64-8.2 1.84-2.04 4.58-2.54 6.5-2.62-7.46-2.94-13.12-9.82-15.7-17.54l-6.08-.74s-10.92-8.7-2.68-16.86c0 0 9.3 2.54 8.72-8.24-.58-10.78-12.5-4.7-12.5-4.7s-3.84 3.24-3.1 8.1c0 0-9.16 5.76-3.7 18.66 0 0 1.32 5.86 7.5 10.78l.02-.02Zm-40.44 50.08c-2-2.12-3.72-4.4-5.2-6.98l-5.88 5.56c4.38 8.22 11.06 15.2 20.12 17.96 1.86-2.14 4.12-4.56 6.64-7.16-5.84-1.94-11.38-4.92-15.66-9.38h-.02Z"/>
  <path fill="#878787" d="M145.54 386.94v-.04c-.36-.04-.74-.06-1.08-.12.34.06.72.1 1.1.16h-.02Zm-55.3 67.84c-4.66 6.6-11.76 10.6-19.46 12.62.52.64 1.02 1.28 1.6 1.92 0 0 5.32 7.74 17.94-4.6.66-4.44.44-7.68-.06-9.92l-.02-.02Z"/>
  <path fill="#878787" d="M154.98 378.04c-1.28-.08-4.5-.1-6.32 1.9-1.36 1.5-1.64 3.94-.92 7.18h.36c3.08 2.14 10.5 8.54 12.22 21.74 1.18 9.02-3.98 21.66-15.44 30.08-9.82 7.2-23.96 12.44-34.32 13-10.02.52-15.86-.02-19.26-.74 1.02 2.2 2.04 6.08 1.32 12.32 2.6-.08 6.76-.14 13.36-.16 24-.1 48.32-12.7 55.58-21.52 9.86-11.96 10.74-21.02 9.5-33.56-1.02-10.2-12.02-25.08-16.08-30.26v.02ZM89.2 400.22l-6.86 6.48c3.66 8.46 11.06 14.2 19.44 17.66 1.74-1.8 3.6-3.68 5.52-5.58-8.28-3.56-14.28-10.52-18.1-18.54v-.02Zm39.78-2.3c2.52-2.36 4.8-4.48 6.72-6.26-8.18-3.58-14.12-10.5-17.92-18.46l-4.6 4.36c2.18 8.74 8.32 15.56 15.8 20.34v.02Z"/>
  <path fill="#878787" d="M100.4 399.56c-1.38-2.1-2.56-4.28-3.5-6.64l-7.22 6.82c4.36 7.82 10.86 14.42 19.54 17.1 1.74-1.72 3.5-3.44 5.28-5.16-5.54-2.94-10.6-6.86-14.1-12.1v-.02Zm14.48-13.04c-1.48-2.24-2.7-4.58-3.66-7.1l-7 6.62c4.38 7.74 10.84 14.24 19.46 16.88 1.66-1.58 3.28-3.1 4.82-4.54-5.36-2.92-10.2-6.76-13.62-11.84v-.02Z"/>
  <path fill="#878787" d="M114.94 411.24c2.26-2.18 4.52-4.36 6.72-6.44-8.2-3.52-14.14-10.38-17.98-18.28l-4.86 4.58c2.34 8.68 8.56 15.42 16.1 20.14h.02Z"/>
</svg>
