<svg xmlns="http://www.w3.org/2000/svg" width="512" height="512" fill="none" viewBox="0 0 512 512">
  <path fill="#878787" d="M77.92 419.8c-2.66-.64-5.32.04-7.04.7-4.02 4.3-4.14 11-.08 15.38 4.24 4.6 11.4 4.88 16 .64.82-.76 1.46-1.66 2-2.58.32-7.38-6.64-13.1-10.86-14.12l-.02-.02Zm98.52-114.461-13.62 12.58c19.02 7.14 23.9 21.98 25.12 30.02l15.8-14.6c-2.84-6.94-10.16-19.82-27.3-28.02v.02Z"/>
  <path fill="#878787" d="m161.18 319.439-.18.16c-4.98.22-10.7 3.9-19.94 14.92-13 15.5-24.94 23.04-24.94 23.04s-62.54 32.88-45.28 58.66c.42.64.84 1.22 1.26 1.8 1.8-.46 4.02-.72 6.28-.18 4.96 1.2 12.82 7.62 12.4 16.16 6.88 2.36 11.38.18 11.38.18 28.46-10.9 36.78-38.9 52.46-53.72 15.68-14.84 24.36-17.02 30.52-28.56.42-.78.72-1.58.94-2.4l.06.06.04-.04c-.72-7.24-4.66-23.02-25.02-30.12l.02.04Z"/>
  <path fill="#fff" d="M416.58 139.46C350.966 74.38 289.6 72.92 289.6 72.92c34.8 17.76 51.8 36.72 51.8 36.72 64.66 70.54 51.12 122.98 51.12 122.98s-2.6 38.12-51.86 68.4c-49.26 30.28-131.7-21.22-131.7-21.22-2.76 13.46-16.04 24.32-20.76 27.84 8.02 5.78 13.08 12.36 16.22 17.88l8.9-8.22c33.92 25.92 53.4 30.68 53.4 30.68 110.16 41.12 166.38-45.86 166.38-45.86s53.64-86-16.52-162.68v.02Zm1.32 149.78c-21.12 35.94-63.64 53.34-103.7 56.38 26.52-3.48 52.98-12.38 74.48-28.48 51-38.86 56.32-116.34 18.4-166.22-11.08-14.84-24.48-27.82-38.36-40.06 21.14 16.76 41.58 35.86 53.68 60.36 18.76 36.7 16.96 82.84-4.48 118.02h-.02Z"/>
</svg>
