<svg xmlns="http://www.w3.org/2000/svg" width="512" height="512" fill="none" viewBox="0 0 512 512">
  <g clip-path="url(#a)">
    <path fill="#fff" d="M381.184 123.829c-10.247-26.575-32.832-10.257-32.832-10.257s20.993 9.339 15.676 21.33c-2.949 6.644-7.879 6.695-13.767 6.991-2.093.112-3.674 1.837-3.746 3.929a18.344 18.344 0 0 1-1.214 5.971c-1.613 4.286-4.95 7.215-9.512 11.94.857 4.695 9.267 14.533 16.503 16.829 5.786-5.419 7.888-7.95 11.583-9.664 1.766-.807 4.378-1.378 6.552-1.552 1.694-.142 3.072-1.377 3.511-3.02.918-3.45 3.184-8.553 8.113-10.992 6.379-3.153 17.248 1.164 25.688 17.646 10.073-18.769-2.286-28.311-8.859-31.434 16.983-5.858 29.158-17.686 45.507-37.526 15.891-19.278 21.718-28.657 56.805-97.015-47.558 42.864-79.441 76.236-120.029 116.824h.021Zm14.053 12.38-.419.5c-3.561.132-7.082 1.143-10.409 2.408-9.951 3.684-17.809 14.625-15.38 25.382-6.624-4.052-12.972-9.216-16.329-16.391l.245-.142c1.939 2.939 4.082 5.756 6.725 7.991 2.164 1.857 4.542 3.439 7.001 4.919-.541-6.787 2.919-13.39 7.512-18.187 4.439-4.827 10.726-7.338 17.012-8.562a23.527 23.527 0 0 1 2.154-.296c30.372-34.475 62.918-73.92 93.371-107.333-26.585 31.81-65.122 78.512-91.504 109.731l.021-.02Z"/>
    <path fill="#878787" d="m37.151 492.233-.05.051c-.664.663-1.623.847-2.317.439-2.297-1.357-4.613-3.062-6.726-5.174-2.112-2.113-3.827-4.46-5.174-6.767-.398-.683-.214-1.643.449-2.306l.051-.051c.888-.888 2.235-.868 2.796.041 1.297 2.092 2.889 4.215 4.828 6.154 1.939 1.939 4.02 3.51 6.123 4.817.908.561.919 1.898.03 2.786l-.01.01Zm-23.708-8.991c2.368-1.49 5.45-2.245 7.838-1.796.051.153.112.275.194.418 1.54 2.623 3.327 4.96 5.317 6.95 1.99 1.99 4.286 3.756 6.899 5.307.143.082.286.143.439.194.47 2.49-.367 5.715-1.98 8.124-.582.867-1.704 1.235-2.704.908-4.9-1.633-7.88.245-9.757 1.204l-.694.347c-.827-1.153-4.093-.071-6.164-2.143-2.072-2.072-.98-5.327-2.133-6.174l.347-.694c.928-1.827 2.96-5.715 1.439-9.665-.429-1.102-.041-2.347.959-2.98Zm332.222-303.71L129.009 396.188s-2.99-.95-5.827-3.787c-2.838-2.837-3.746-5.786-3.746-5.786l216.656-216.656s1.296 2.296 4.286 5.286c2.991 2.99 5.287 4.287 5.287 4.287ZM77.904 422.579l-3.847 3.297a89.633 89.633 0 0 0-4.348 4.001c-.439.949-.888 1.908-1.306 2.878-2.307 5.388-4.174 11.011-4.96 16.818-.674 4.899-.623 10.114 1.306 14.717l11.155-9.563c-1.45-2.755-2.225-5.776-2.47-8.879-.663-7.97 1.44-15.829 4.46-23.279l.01.01Z"/>
    <path fill="#878787" d="M51.728 461.31c-.602 4.46-.602 9.154.847 13.441l11.053-9.481c-1.082-2.429-1.684-5.032-1.908-7.685-.705-8.44 1.684-16.768 5.01-24.606a92.577 92.577 0 0 0-1.898 2.123l-8.256 9.644c-2.255 5.297-4.072 10.849-4.858 16.574l.01-.01Zm58.803-66.684-8.747 7.501c-1.459 3.991-2.602 8.093-3.163 12.288-.684 5.031-.592 10.389 1.479 15.074l10.104-11.798c-.898-2.225-1.398-4.603-1.592-7.001-.459-5.44.388-10.839 1.929-16.074l-.01.01Z"/>
    <path fill="#878787" d="m53.611 448.196-10.226 11.94c-1.561 4.174-2.786 8.481-3.388 12.9-.54 3.991-.602 8.195.439 12.114l10.96-9.389a24.682 24.682 0 0 1-1.397-6.44c-.602-7.195 1.061-14.308 3.612-21.105v-.02Zm43.277-25.78c-.52-6.236.654-12.41 2.644-18.36l-8.522 7.297c-1.919 4.756-3.429 9.696-4.113 14.788-.745 5.481-.592 11.349 2.082 16.309.255-.296.52-.582.786-.888l9.328-10.879c-1.255-2.582-1.95-5.399-2.184-8.267h-.02Z"/>
    <path fill="#878787" d="M38.272 481.027c-.5-6.031.582-12.012 2.44-17.788l-12.513 14.594s.919 2.96 3.746 5.787c2.827 2.826 5.827 3.786 5.827 3.786l1.45-1.245a24.888 24.888 0 0 1-.96-5.144l.01.01Zm74.402-88.238c-1.051 3.235-1.888 6.542-2.347 9.92-.623 4.562-.602 9.379.959 13.737l15.094-17.605s-2.816-.776-5.807-3.766c-2.99-2.99-3.766-5.807-3.766-5.807l-4.123 3.531-.01-.01Zm-24.859 50.579c-1.582-2.847-2.378-6.011-2.643-9.236-.582-7.072 1.01-14.073 3.48-20.768l-8.256 7.072c-.082.204-.184.388-.266.592-2.306 5.389-4.174 11.012-4.96 16.819-.724 5.338-.581 11.032 1.878 15.901l3.48-2.991a85.618 85.618 0 0 0 7.44-7.215c-.05-.051-.112-.112-.163-.184l.01.01Z"/>
  </g>
  <defs>
    <clipPath id="a">
      <path fill="#fff" d="M0 0h512v512H0z"/>
    </clipPath>
  </defs>
</svg>
