<svg xmlns="http://www.w3.org/2000/svg" width="512" height="512" fill="none" viewBox="0 0 512 512">
  <path fill="#fff" d="m333.9 66.12-8.02-10.28 4.84-6.2c1.06-1.34.82-3.3-.54-4.34l-34.9-27.24.78 24.16c-27.38-2.04-17.72 22.7-17.72 22.7l-22.44 6.32 34.48 26.92c.96.74 2.32.58 3.06-.38l4.36-5.6c6.36-2.54 11.84-1.74 15.9-.2l20.2-25.88v.02Zm-47.46 3.82c-5.48 1.46-11 2.8-16.58 3.92 4.86-2.02 9.78-3.86 14.74-5.58-7.44-14.64 1.84-22.9 16.84-21.58.02-5.3.16-10.58.5-15.88.8 6.04 1.34 12.1 1.74 18.18-7.66-.56-20.42.86-18.98 11.26.26 3.14 1.62 6.34 2.92 9.34l-1.18.32v.02Zm115.52 31.4-40.52-31.62a7.347 7.347 0 0 0-4.54-1.56l-21.1.06-19.48 24.96c3 1.58 4.72 3.28 4.72 3.28 19.14 14.94 7.94 30.5 7.94 30.5l-13.46 16.3 22.58 17.62 12.12-15.98s16.26-14.18 26.12-7.08 5.84 25.4 5.84 25.4c38.76 4.88 87.3 49.42 87.3 49.42-4.12-32.4-37.5-77.52-52.42-96.32-4.42-5.58-9.5-10.58-15.1-14.96v-.02Zm-58.08 30.06a5.975 5.975 0 0 1-1.26-10.18c1.68-1.34 4.08-1.62 6.02-.74a5.975 5.975 0 0 1 1.26 10.18c-1.68 1.34-4.08 1.62-6.02.74Zm45.02 7.42a8.584 8.584 0 0 1-1.74-14.18c2.56-2.26 6.42-2.74 9.46-1.16a8.584 8.584 0 0 1 1.74 14.18c-2.56 2.26-6.42 2.74-9.46 1.16ZM405.22 150a5.975 5.975 0 0 1-1.26-10.18c1.68-1.34 4.08-1.62 6.02-.74a5.975 5.975 0 0 1 1.26 10.18c-1.68 1.34-4.08 1.62-6.02.74Zm10.82 8.64c-1.6-1.24-1.88-3.56-.64-5.16 1.24-1.6 3.56-1.88 5.16-.64 1.6 1.24 1.88 3.56.64 5.16-1.24 1.6-3.56 1.88-5.16.64Zm37.88 29.68c-25.56-39.64-46.42-79.18-87.1-105.44-.66-.5-4.58-3.12-4.58-3.12 21 11.86 40.6 27.78 55.46 46.54 11.28 14.08 19.74 29.84 28.42 45.76 2.88 5.28 6.9 12.9 9.02 18.54l-1.2-2.28h-.02Z"/>
  <path fill="#878787" d="M91.3 415.96c-.96-.74-2.34-.58-3.1.36-5.96 7.34-10.28 12.7-12.22 15.2-10 12.96-2.56 24.74 2.32 30.26 1.8 2.04 3.92 3.82 6.24 5.26 11 6.82 18.76 4.42 25.1.2 2.4-1.58 5.74-4.8 7.44-7.12l10-13.48c.72-.96.54-2.32-.42-3.06l-35.38-27.6.02-.02Zm88.12-43.52-31.98-24.96c-.94-.74-2.32-.58-3.08.34-3.18 3.86-6.34 7.7-9.48 11.52-.8.96-.62 2.38.36 3.14l32.56 25.42c.98.76 2.4.58 3.14-.42l8.88-11.98c.72-.96.54-2.32-.42-3.06h.02Zm-39.56 53.34L105.3 398.8c-.94-.74-2.32-.58-3.08.36-3.38 4.14-6.54 8-9.44 11.54-.78.96-.62 2.36.36 3.14l35.12 27.4c.98.76 2.4.58 3.14-.42l8.88-11.98c.72-.96.54-2.32-.42-3.06ZM153.04 408l-33.72-26.32c-.94-.74-2.32-.58-3.08.36-3.28 3.98-6.44 7.84-9.46 11.54-.78.96-.62 2.38.36 3.14l34.3 26.76c.98.76 2.4.58 3.14-.42l8.88-11.98c.72-.96.54-2.32-.42-3.06V408ZM268.3 258.02c-2.78-1.26-8.88-4.32-15.88-9.78a86.583 86.583 0 0 1-14.8-14.7l.16-.14c-17.66-.1-14.32 17.26-14.12 18.24 11.58 14.98 24.72 21.52 30.58 23.84 15.8-.4 15.38-11.56 14.04-17.46h.02Zm-38.16-10.92c-.9-.7-.76-2.42.34-3.82s2.72-1.96 3.62-1.26c.9.7.76 2.42-.34 3.82s-2.72 1.96-3.64 1.26h.02Zm13.4 12.04a3.18 3.18 0 0 1-.54-4.46 3.18 3.18 0 0 1 4.46-.54 3.18 3.18 0 0 1 .54 4.46 3.18 3.18 0 0 1-4.46.54Zm14.3 9.58c-.9-.7-.74-2.4.36-3.8s2.72-1.98 3.6-1.28c.88.7.74 2.4-.36 3.8s-2.72 1.98-3.6 1.28Z"/>
  <path fill="#878787" d="M252.36 277.76c-3.8-1.56-9.74-4.5-16.34-9.64-4.58-3.58-9.44-8.28-14.12-14.24-5.52 6.68-23.34 28.22-44.74 54.2-.8.96-.64 2.4.34 3.16l29.9 23.34c.98.76 2.4.58 3.14-.42l41.82-56.38v-.02Zm-11.26-44.42c9.64 11.64 20.58 18.22 26.14 21.04l66.96-84.64a3.818 3.818 0 0 0-.62-5.36l-20.88-16.64a3.83 3.83 0 0 0-5.4.64l-66.22 84.96h.02Zm-48.48 121.32-31.1-24.26c-.94-.74-2.3-.6-3.06.34-3.14 3.82-6.32 7.66-9.48 11.52-.8.96-.64 2.38.34 3.16L181 370.16c.98.76 2.4.58 3.14-.42l8.88-11.98c.72-.96.54-2.32-.42-3.06l.02-.04Zm-26.38 35.56-32.86-25.64c-.94-.74-2.32-.58-3.08.34-3.22 3.92-6.38 7.76-9.48 11.52-.8.96-.62 2.38.36 3.14l33.44 26.1c.98.76 2.4.58 3.14-.42l8.88-11.98c.72-.96.54-2.32-.42-3.06h.02Zm39.56-53.34-30.2-23.56c-.94-.74-2.3-.6-3.06.32-3.12 3.78-6.28 7.62-9.48 11.5-.8.96-.64 2.4.34 3.16l30.8 24.04c.98.76 2.4.58 3.14-.42l8.88-11.98c.72-.96.54-2.32-.42-3.06Z"/>
</svg>
