<svg xmlns="http://www.w3.org/2000/svg" width="512" height="512" fill="none" viewBox="0 0 512 512">
  <path fill="#fff" d="m406.7 119.06 1.46-1.56c.12.1.24.2.36.28 2.14 1.58 5.14 1.18 6.84-.86 46.26-55.28 45.96-71.04 45.96-71.04-22.2 6.26-66.48 48.08-68.52 51.22-2.04 3.14.54 6.8.54 6.8l-1.34 1.44c-10.26-10.68-22.34-17.98-22.34-17.98l8.1-8.7c.88-.94.84-2.44-.12-3.32l-29.62-27.58 2.2 25.82-20.24-.16 1.36 18.92-25.68.92 29.62 27.58c1.28 1.2 3.3 1.12 4.5-.16l10.82-11.62c6.6 12.18 14.38 20.58 14.38 20.58l-5.6 6.02c6.56 7.5 14.06 14.38 18.78 18.22l5.32-5.7c17.16 9.96 32.72 19.92 44.82 30.54 18.84 16.54 33.9 42.2 33.9 42.2 3.42-47.6-55.44-101.84-55.44-101.84l-.06-.02Zm-28.4 15.1-.4-11.04 11.04-.4.4 11.04-11.04.4Zm53.86 37.04c-8.92-9.44-18.44-18.38-28.3-26.8 0 0 .06-.06.12-.14-2.86.2-5.74.4-8.6.54-3.08.18-6.16.36-9.26.46 5.86-.82 11.72-1.58 17.6-2.26-1.38-4.48-2.82-8.96-4.12-13.46-1.06-3.98-2.94-9.48-4.4-13.54-9.22-2.2-18.66-4.8-27.72-7.46.1 6.46.1 12.92.02 19.38-.54-6.54-1-13.08-1.36-19.62l-.1.1-29.6-29.04 31.08 27.46-.2.22c9.36 2.16 18.96 4.76 28.34 6.86l51.46-53.68-49.88 55.14 2.12 6.46c2.12 6.98 3.88 14.06 5.7 21.12.1-.12.18-.22.18-.22 9.7 8.78 18.98 17.96 27.68 27.72 8.52 9.78 17.18 19.96 22.2 32.04-5.34-11.92-14.24-21.8-23-31.3l.04.02Z"/>
  <path fill="#878787" d="M132.22 399.44c1.1 1.04 1.4 2.6 1.36 4 .62 1.02 1.3 2.08 1.38 2.34.7 1.96.9 2.12 1 4.12.06 1.5-.12 3.42-.12 4.72l239.32-257.54c-4.88-4-12.24-10.76-18.78-18.22L115.72 397.28s-3.56 7.88 4 15.44c2.7 2.7 5.32 3.84 7.56 4.22.48-1.36.86-3.26 1-4.06.16-.84 0-4.14-.54-4.78-.88-.18-1.74-.58-2.44-1.24-2.06-1.9-2.16-5.12-.26-7.16 1.9-2.04 5.12-2.16 7.16-.26h.02Zm219.34-243.32a4.609 4.609 0 0 1 6.5-.24 4.609 4.609 0 0 1 .24 6.5c-1.72 1.86-4.64 1.96-6.5.24a4.609 4.609 0 0 1-.24-6.5Zm-18.24 19.9a4.609 4.609 0 0 1 6.5-.24 4.609 4.609 0 0 1 .24 6.5c-1.72 1.86-4.64 1.96-6.5.24a4.609 4.609 0 0 1-.24-6.5Zm-17.18 18.16a4.609 4.609 0 0 1 6.5-.24 4.609 4.609 0 0 1 .24 6.5c-1.72 1.86-4.64 1.96-6.5.24a4.609 4.609 0 0 1-.24-6.5Zm-18.1 19.44a4.609 4.609 0 0 1 6.5-.24 4.609 4.609 0 0 1 .24 6.5 4.609 4.609 0 0 1-6.5.24c-1.86-1.72-1.96-4.64-.24-6.5Zm-18.9 20.3a4.609 4.609 0 0 1 6.5-.24 4.609 4.609 0 0 1 .24 6.5c-1.72 1.86-4.64 1.96-6.5.24a4.609 4.609 0 0 1-.24-6.5Zm-19.46 20.9a4.609 4.609 0 0 1 6.5-.24 4.609 4.609 0 0 1 .24 6.5 4.609 4.609 0 0 1-6.5.24 4.609 4.609 0 0 1-.24-6.5Zm-18.32 19.68a4.609 4.609 0 0 1 6.5-.24 4.609 4.609 0 0 1 .24 6.5c-1.72 1.86-4.64 1.96-6.5.24a4.609 4.609 0 0 1-.24-6.5Zm-20.52 22.04a4.609 4.609 0 0 1 6.5-.24 4.609 4.609 0 0 1 .24 6.5 4.609 4.609 0 0 1-6.5.24 4.609 4.609 0 0 1-.24-6.5Z"/>
  <path fill="#878787" d="M131.34 402.4c1.92 1.96 9.92 9.88-8.78 37.54-18.26 27-36.28 29.5-36.28 29.5s-16.12 4.62-24.48-10.46c-8.36-15.08 10.62-27.36 10.62-27.36s8.3-4.82 17-5.86c10.1-1.2 25.48-17.48 25.48-17.48s.32 1.88 2.2 3.62c0 0-10.38 14.52-22.96 17.92-12.58 3.4-17.12 4.32-24.34 11.82-3.5 3.62-3.88 7.86-3.34 11.26.74 4.66 3.72 8.76 8.12 10.42 2.62.98 6.08 1.44 10.4.26 10.86-2.96 16.1-7.56 26.36-18.32 10.26-10.76 22.2-31.78 16.5-38.94-1.14-1.42-2.52-.28-2.8-2.98-.42-4.12 3.54-3.74 6.3-.92v-.02Z"/>
</svg>
