<svg xmlns="http://www.w3.org/2000/svg" width="512" height="512" fill="none" viewBox="0 0 512 512">
  <path fill="#fff" d="m357.46 124.34.52.58-.54-.56.02-.02Z"/>
  <path fill="#fff" d="M431.74 135.54c-12.36 9.66-23.4 21.02-32.56 33.82-2.08-.5-10.02-2.94-7.8-11.1l-.21-.341-.563-.703-.607-.776-31.98-31.48-.04-.04-.52-.58-1.02-1.14c-8.12 2.12-10.52-5.8-11-7.86 12.74-9.16 24.24-20.06 33.92-32.46 9.06 1.84 6.48 11.12 6.48 11.12l.08.1-.06.06 1.013 1.246 1.477 1.79 29.29 29.044 2.84 2.84s.08-.06.12-.1l.04.04s9.3-2.56 11.1 6.52Z"/>
  <path fill="#fff" d="M393.539 102.401c4.76-6.04 9.48-7.06 13.26-6.34-.8.8-.72 2.1.24 3.9.74 1.4 1.98 3 3.48 4.5 1.8 1.8 4.88 4.28 7 4.28.46 0 .86-.14 1.22-.42.56 3.72-.6 8.3-6.46 12.88-2.991-2.128-18.531-17.882-18.74-18.8ZM477.04 177.7l9.76-9.72-7.76-7.78 1.82-1.8-26.7-26.78-1.62 1.64-9.02-9.04c-17.056 17.022-28.74 30.107-52.4 53.72l7.94 7.96-1.64 1.62 26.68 26.76 1.44-1.44 7.94 7.96 9.78-9.76.18.18a3.042 3.042 0 0 0 4.32.02l29.62-29.54c1.02-1 1.02-2.64 0-3.66l-.32-.34h-.02Zm-18.06-8.56s-10.32-10.38-14.14-14.2l-12.02 11.98-5.46 5.56-5.26 5.26-4.46.1s21.86-21.8 26.14-26.08l1.08-1.06 1.06 1.06c2.32 2.36 11.72 11.78 11.72 11.78l5.56 5.54-4.22.06Z"/>
  <path fill="#fff" d="M418.28 105.9c0-.32-.88-2.58-3.8-5.52-2.72-2.72-4.86-3.68-5.52-3.7 0 .66.96 2.82 3.68 5.54 2.92 2.94 5.2 3.8 5.66 3.68h-.02Zm-30.66-31.92-9.02-9.06 1.62-1.62-26.68-26.76-1.8 1.82-7.76-7.78-9.76 9.72a3.078 3.078 0 0 0-4.32 0l-29.3 29.2c-1.2 1.2-1.2 3.14 0 4.34l.18.18-9.76 9.74 7.92 7.94-1.46 1.44 26.7 26.78 1.62-1.62 7.92 7.94c17.737-17.667 36.166-34.596 53.9-52.26Zm-29.9-.5s-10.32-10.38-14.14-14.2l-12.02 12-5.46 5.54-5.26 5.26-4.48.1s21.88-21.8 26.16-26.08l1.06-1.06 1.06 1.08c2.34 2.34 11.74 11.76 11.74 11.76l5.54 5.56-4.2.04Zm19.82 84.9h.02l-20.78-20.86h-.02l-4.16-4.14s-5.28-.38-5.54 5.52l4.2 4.22 20.68 20.74 4.2 4.2c5.9-.24 5.54-5.52 5.54-5.52l-4.16-4.16h.02Z"/>
  <path fill="#fff" d="M357.96 127.94s-5.7-.68-5.48 5.46l29.18 29.28c6.16.24 5.48-5.46 5.48-5.46l-29.18-29.28Zm12.54 37.32-20.68-20.74-.04.04-2.94-2.94-1.28 1.32a3.58 3.58 0 0 0 .04 5.02l.34.34-6.62 6.6 20.78 20.84 6.62-6.6.6.62a3.18 3.18 0 0 0 4.48.04l1.6-1.54-2.96-2.96.04-.04h.02Z"/>
  <path fill="#878787" d="m138.916 357.607-56.747 56.589 17.851 17.9 56.747-56.588-17.851-17.901ZM250.88 245.94l-3.04 3.02c6.06 6.22 13.42 12 21.38 14.5l9.34-9.3h-.42c-9.32 0-19.04-3.78-27.26-8.22ZM59.44 428.36l-7.2 7.18s-7.5 10.18 3.4 23.02c12.82 10.96 23 3.48 23 3.48l7.2-7.18-26.4-26.5ZM262.98 269.7l4.56-4.56c-7.96-2.74-15.22-8.5-21.22-14.66l-3.34 3.32c5.52 6.18 12.4 12.36 19.98 15.88l.02.02ZM68.94 420.98l-1.06-1.08s-6.54-.6-7.04 7.02l4.2 4.22 18 18.08 4.2 4.2c7.38-.46 7.08-6.58 7.04-6.98L68.9 421l.04-.02ZM241.5 255.3l-85.7 85.46 17.9 17.96 87.68-87.42c-7.6-3.68-14.4-9.86-19.88-16Z"/>
  <path fill="#878787" d="M334.58 155.82c-.5-.4-1.22-.4-1.68.06l-1.76 1.76c-1.34 1.32-1.34 3.48 0 4.82l1.74 1.74-80.42 80.18c8.66 4.58 18.88 8.34 28.32 7.58l70-69.8 2 2c1.2 1.2 3.12 1.2 4.32 0l1.72-1.7c.62-.62.64-1.62.08-2.28l-24.28-24.36h-.04ZM76.46 411.36s-7.08-1.18-7.1 7.08l26.42 26.48c8.26 0 7.1-7.08 7.1-7.08l-26.42-26.48Zm95.82-51.24-17.9-17.94-.04.04-5.66-5.68-2.98.28-10.74 10.72-.46 2.8 5.86 5.86-.02.02 17.84 17.9h.02l5.86 5.86 2.8-.44 10.76-10.72.26-2.98-5.64-5.66.04-.06Z"/>
</svg>
