<svg xmlns="http://www.w3.org/2000/svg" width="512" height="512" fill="none" viewBox="0 0 512 512">
  <path fill="#878787" d="M86.18 417.66c-.3.04-.58.12-.86.22-1.78.74-8.46 3.72-4.68 5.8 0 0 10.88-.92 19.64 2.44.92.36 1.92.36 2.8-.12.98-.52 2.28-1.52 3.56-3.36 1.28-1.84.32-4.58-1.9-5.16-2.98-.78-8.46-1.14-18.54.16l-.02.02Zm10.44-9.08c-.28.06-.54.14-.8.26-1.7.78-8.22 4-4.76 5.74 0 0 10.181-1.5 18.181 1.08.92.3 1.9.26 2.74-.22.84-.48 1.96-1.34 3.12-2.8 1.66-2.08.38-5.2-2.26-5.5-2.96-.34-7.92-.14-16.22 1.46v-.02Zm9.7-9.96c-.28.06-.54.14-.8.26-1.7.78-8.22 4-4.76 5.74 0 0 10.18-1.5 18.18 1.08.92.3 1.92.26 2.74-.22.82-.48 1.96-1.34 3.12-2.8 1.66-2.08.38-5.2-2.26-5.5-2.96-.34-7.92-.14-16.22 1.46v-.02Zm9.4-9.86c-.28.06-.54.14-.8.26-1.7.78-8.22 4-4.76 5.74 0 0 10.18-1.5 18.18 1.08.92.3 1.9.26 2.74-.22.84-.48 1.96-1.34 3.12-2.8 1.66-2.08.38-5.2-2.26-5.5-2.96-.34-7.92-.14-16.22 1.46v-.02Zm9.72-10.68c-.28.06-.54.14-.8.26-1.7.78-8.22 4-4.76 5.74 0 0 10.18-1.5 18.18 1.08.92.3 1.92.26 2.74-.22.82-.48 1.96-1.34 3.12-2.8 1.66-2.08.38-5.2-2.26-5.5-2.96-.34-7.92-.14-16.22 1.46v-.02Zm16.16-10.96c-1.44.22-3 .48-4.7.82-.28.06-.54.14-.8.26-1.7.78-8.22 4-4.76 5.74 0 0 11.22-1.66 19.36 1.5 0 0 .38-.08 1-.36l-7.22-7a3.41 3.41 0 0 0-2.88-.92v-.04Zm-47.74 68.82c1.38-.82 3.26-2.52 4.88-6.04 0 0-.36-3.6-14.08-2.88l9.18 8.92h.02Z"/>
  <path fill="#878787" d="M189.145 391.203c-6.84-4.58-11.26-4.74-11.26-4.74l-12.8-13.02 1.38-1.42c-3.28-6.24.42-19.62 2.32-25.54-11.58 6.62-23.1 4.66-26.4 3.9l-.76.76-12.64-12.76s-.6-2.18-.98-3.36c-.64-2.02-1.18-4.14-4.14-8.4-4.72-6.7-10.38-6.22-12.82-4.82-3.18 1.82-3.38 4.72-3.42 7.02-.04 2.32 1.6 5.98 4.62 8.62 6 5.26 11.04 5.54 11.04 5.54l11.3 11.68h.02l28.62 27.78 9.84 9.1s1.64 6 7.2 11.74c5.54 5.7 9.98 4.86 12 3.9 2.1-.92 3.28-3 3.46-5.14.18-2.14.26-6.28-6.56-10.88l-.02.04Zm-67.12-54.72c-1.56 1.26-5.3.2-7.6-2.66-2.3-2.86-2.28-6.44-.72-7.68 1.56-1.26 4.68.04 6.98 2.9 2.3 2.86 2.9 6.18 1.34 7.44Zm37.38 24.98c-2.24 2.24-5.08 3-6.36 1.72-1.28-1.28-.52-4.14 1.72-6.36 2.24-2.24 5.08-3 6.36-1.72 1.28 1.28.52 4.14-1.72 6.36Zm31.56 41.2c-1.32 1.5-4.62.72-7.36-1.72s-3.88-5.62-2.56-7.12c1.32-1.5 4.62-.72 7.36 1.72s3.88 5.62 2.56 7.12ZM74.84 421.7l19.7 19.7 12.02 2.04c.48 0 .6.68.14.84l-15.68 5.28-23.1-23.1 3.1-17.2c.22-.56 1.04-.46 1.1.14l2.7 12.32.02-.02Zm-8.08 6.94 21.62 21.6s-11.26 2.2-13.46 8.86c-2.28 6.9-19.54-12.42-17.82-15.28 1.72-2.86 6.94 0 9.66-15.18Z"/>
  <path fill="#fff" d="M434.32 64.96 146.24 346.2c4.5.78 15.56 1.7 25.94-5.36l2.56-1.74-1.06 2.92c-2.02 5.56-6.12 19.88-3.62 26l279-289.06c17.24-19.1 18.9-33.34 18.9-33.34-8.94-1.56-33.64 19.32-33.64 19.32v.02Zm-246.3 275.82c-1.92-3.88-3.62-7.1-2.04-12.86-5.82 1.36-7.22 1.94-12.9-.54 5.54.68 6.22.98 12.24-1.76l248.6-245.96-245.46 248.7c-1.02 1.9-2.34 4.98-.42 12.42h-.02Z"/>
</svg>
