<svg xmlns="http://www.w3.org/2000/svg" width="512" height="512" fill="none" viewBox="0 0 512 512">
  <g clip-path="url(#a)">
    <path fill="#fff" d="M387.89 113.194c-8.983-23.306-28.791-8.983-28.791-8.983s18.406 8.195 13.741 18.692c-2.589 5.822-6.906 5.863-12.073 6.139-1.831.092-3.223 1.606-3.284 3.448a16.519 16.519 0 0 1-1.054 5.228c-1.422 3.755-4.338 6.323-8.338 10.466.757 4.113 8.123 12.748 14.466 14.754 5.075-4.748 6.917-6.978 10.16-8.462 1.545-.706 3.847-1.207 5.739-1.36 1.484-.113 2.701-1.208 3.08-2.65.798-3.029 2.783-7.489 7.121-9.638 5.596-2.772 15.121 1.023 22.518 15.48 8.84-16.452-2.005-24.821-7.765-27.573 14.886-5.146 25.568-15.5 39.901-32.903 13.935-16.902 19.03-25.128 49.805-85.061-41.691 37.578-69.653 66.829-105.237 102.413l.011.01Zm12.318 10.845-.369.43c-3.13.122-6.21.992-9.115 2.117-8.728 3.223-15.613 12.83-13.485 22.243-5.801-3.55-11.377-8.083-14.313-14.375l.215-.133c1.698 2.578 3.58 5.034 5.903 7.008 1.893 1.627 3.98 3.019 6.139 4.318-.481-5.944 2.557-11.745 6.588-15.94 3.898-4.226 9.403-6.435 14.917-7.51a22.396 22.396 0 0 1 1.883-.266c26.621-30.222 55.166-64.803 81.859-94.095-23.307 27.89-57.09 68.835-80.222 96.203ZM121.705 398.426c8.901 23.082 28.504 8.901 28.504 8.901s-18.232-8.103-13.607-18.518c2.557-5.77 6.844-5.801 11.95-6.077 1.81-.092 3.192-1.596 3.253-3.417a16.071 16.071 0 0 1 1.054-5.187c1.289-3.438 3.867-5.873 7.376-9.464.42-.42.246-1.105-.307-1.33-5.995-2.333-10.65-7.152-12.758-12.983-.204-.553-.89-.747-1.319-.338-4.338 4.113-6.129 6.128-9.127 7.51-1.524.705-3.795 1.197-5.688 1.35-1.473.123-2.67 1.197-3.049 2.619-.788 2.998-2.762 7.428-7.049 9.546-5.545 2.742-14.968-1.013-22.304-15.326-8.748 16.298 1.995 24.585 7.694 27.296-14.743 5.085-25.322 15.357-39.523 32.586-13.802 16.748-18.856 24.892-49.324 84.233 41.293-37.221 68.978-66.195 104.224-101.441v.04Zm-12.206-10.752.369-.43c3.09-.123 6.149-.993 9.034-2.098 8.645-3.202 15.459-12.696 13.362-22.037 5.75 3.519 11.274 8 14.18 14.241l-.215.133c-1.688-2.547-3.54-4.992-5.842-6.947-1.872-1.606-3.929-2.987-6.077-4.276.47 5.893-2.537 11.622-6.528 15.797-3.867 4.194-9.31 6.363-14.783 7.438a27.74 27.74 0 0 1-1.863.266c-26.375 29.936-54.634 64.19-81.08 93.195 23.08-27.624 56.546-68.17 79.443-95.282Z"/>
    <path fill="#878787" d="m267.726 257.626-.051.051c-.665.665-1.626.849-2.322.44-2.302-1.361-4.625-3.069-6.742-5.187-2.118-2.118-3.837-4.471-5.188-6.783-.399-.686-.214-1.648.451-2.313l.051-.051c.89-.89 2.24-.869 2.803.041 1.299 2.098 2.895 4.226 4.839 6.17 1.944 1.943 4.031 3.519 6.139 4.829.911.562.921 1.903.031 2.793l-.011.01Zm-13.395 13.597-.051.051c-.665.665-1.627.849-2.323.44-2.302-1.361-4.624-3.069-6.742-5.187-2.118-2.118-3.837-4.471-5.187-6.783-.399-.686-.215-1.647.45-2.312l.051-.052c.89-.89 2.241-.869 2.804.041 1.299 2.098 2.895 4.226 4.839 6.17 1.944 1.944 4.031 3.519 6.138 4.829.911.563.921 1.903.031 2.793l-.01.01Zm9.044-4.195-.072.072c-.921.921-3.939 2.875-4.89 2.312-3.162-1.872-6.374-4.225-9.28-7.131-2.906-2.905-5.279-6.159-7.141-9.33-.553-.942 1.401-3.96 2.322-4.881 0 0-3.028 3.029.072-.071s5.473-3.591 6.251-2.343c1.79 2.895 3.98 5.801 6.66 8.481 2.681 2.681 5.556 4.84 8.441 6.64 1.248.778.205 3.704-2.343 6.251h-.02Zm45.202-79.209-3.857 3.305a89.493 89.493 0 0 0-4.359 4.011c-.44.951-.89 1.913-1.309 2.885-2.313 5.402-4.185 11.039-4.973 16.861-.675 4.911-.624 10.139 1.31 14.753l11.183-9.587c-1.453-2.762-2.231-5.791-2.476-8.901-.665-7.99 1.442-15.868 4.471-23.337l.01.01Z"/>
    <path fill="#878787" d="M282.325 226.636c-.604 4.471-.604 9.177.849 13.474l11.08-9.504c-1.084-2.435-1.688-5.044-1.913-7.704-.706-8.462 1.688-16.81 5.024-24.668a93.727 93.727 0 0 0-1.903 2.128l-8.277 9.669c-2.261 5.31-4.082 10.875-4.87 16.615l.01-.01Zm58.95-66.85-8.768 7.52c-1.463 4-2.609 8.113-3.172 12.318-.685 5.044-.593 10.415 1.484 15.111l10.129-11.827c-.901-2.23-1.402-4.614-1.596-7.018-.461-5.453.388-10.866 1.933-16.114l-.01.01Z"/>
    <path fill="#878787" d="m284.226 213.499-10.252 11.971c-1.565 4.184-2.793 8.502-3.397 12.932-.542 4-.603 8.215.44 12.144l10.989-9.412a24.716 24.716 0 0 1-1.402-6.456c-.604-7.213 1.064-14.344 3.622-21.158v-.021Zm43.379-25.843c-.522-6.252.654-12.441 2.649-18.406l-8.543 7.315c-1.923 4.768-3.437 9.72-4.123 14.825-.746 5.494-.593 11.377 2.088 16.349.255-.296.521-.583.787-.89l9.352-10.906c-1.259-2.589-1.955-5.412-2.19-8.287h-.02Z"/>
    <path fill="#878787" d="M268.86 246.402c-.501-6.046.583-12.042 2.445-17.832l-12.543 14.63s.921 2.967 3.755 5.801c2.834 2.834 5.842 3.796 5.842 3.796l1.453-1.248a24.876 24.876 0 0 1-.962-5.157l.01.01Zm74.562-88.458c-1.054 3.244-1.893 6.559-2.353 9.945-.625 4.573-.604 9.402.961 13.771l15.132-17.648s-2.333-1.331-5.33-4.328c-2.998-2.998-4.267-5.269-4.267-5.269l-4.133 3.54-.01-.011ZM318.51 208.66c-1.586-2.854-2.384-6.026-2.65-9.259-.583-7.09 1.013-14.109 3.489-20.82l-8.277 7.09c-.082.204-.184.389-.266.593-2.312 5.402-4.184 11.04-4.972 16.861-.726 5.351-.583 11.06 1.883 15.94l3.488-2.998a85.761 85.761 0 0 0 7.459-7.233c-.051-.051-.113-.112-.164-.184l.01.01Zm-118.258 86.32-3.857 3.305a89.49 89.49 0 0 0-4.358 4.01c-.44.952-.891 1.913-1.31 2.885-2.312 5.402-4.185 11.04-4.972 16.861-.676 4.911-.624 10.139 1.309 14.753l11.183-9.586c-1.453-2.762-2.231-5.791-2.476-8.901-.665-7.991 1.442-15.869 4.471-23.337l.01.01Z"/>
    <path fill="#878787" d="M174.007 333.807c-.603 4.471-.603 9.177.849 13.474l11.081-9.505c-1.085-2.435-1.689-5.043-1.914-7.704-.706-8.461 1.689-16.809 5.024-24.667a93.727 93.727 0 0 0-1.903 2.128l-8.277 9.669c-2.261 5.31-4.082 10.875-4.87 16.615l.01-.01Zm58.951-66.85-8.768 7.52c-1.463 4-2.609 8.113-3.171 12.318-.686 5.044-.594 10.415 1.483 15.111l10.129-11.827c-.901-2.23-1.402-4.614-1.596-7.018-.461-5.453.389-10.866 1.933-16.114l-.01.01Z"/>
    <path fill="#878787" d="m175.898 320.66-10.251 11.97c-1.566 4.185-2.794 8.502-3.397 12.933-.542 4-.604 8.215.44 12.144l10.988-9.413a24.748 24.748 0 0 1-1.402-6.456c-.603-7.213 1.064-14.344 3.622-21.158v-.02Zm43.381-25.844c-.522-6.251.655-12.441 2.65-18.405l-8.543 7.315c-1.924 4.767-3.438 9.719-4.123 14.825-.747 5.494-.594 11.377 2.087 16.349.256-.297.522-.583.788-.89l9.351-10.907c-1.259-2.588-1.954-5.412-2.19-8.287h-.02Z"/>
    <path fill="#878787" d="M160.522 353.573c-.501-6.046.583-12.042 2.445-17.832l-12.543 14.63s.921 2.967 3.755 5.801c2.834 2.834 5.842 3.796 5.842 3.796l1.453-1.248a24.876 24.876 0 0 1-.962-5.157l.01.01Zm74.587-88.458c-1.054 3.244-1.893 6.559-2.353 9.945-.625 4.573-.604 9.402.961 13.771l15.132-17.649s-2.333-1.33-5.33-4.327c-2.998-2.998-4.267-5.269-4.267-5.269l-4.133 3.54-.01-.011Zm-24.936 50.716c-1.586-2.855-2.384-6.026-2.65-9.259-.583-7.091 1.013-14.109 3.489-20.821l-8.277 7.091c-.082.204-.184.388-.266.593-2.312 5.402-4.185 11.039-4.972 16.861-.727 5.351-.584 11.06 1.882 15.94l3.489-2.998a85.896 85.896 0 0 0 7.458-7.233 1.518 1.518 0 0 1-.163-.184l.01.01Z"/>
  </g>
  <defs>
    <clipPath id="a">
      <path fill="#fff" d="M0 0h512v512H0z"/>
    </clipPath>
  </defs>
</svg>
