<svg xmlns="http://www.w3.org/2000/svg" width="512" height="512" fill="none" viewBox="0 0 512 512">
  <path fill="#A1A1A1" d="m377.666 142.3-14.6 10.78 16.9 9.76 2.08-18.02-4.38-2.52Zm-35.657 30.88c-1.36 1.3-2.66 2.66-4 3.98a447.668 447.668 0 0 1-40.74 93.94l-14.82 25.66c0 .02-.6 1.019-1.64 2.84l35.16 20.299c3.08-5.32 4.94-8.559 4.96-8.579l12.46-21.601c17.66-30.58 30.92-63.44 39.36-97.44l6.44-25.98-18.74-10.82-18.44 17.701ZM276.57 306.92c1.34-2.32 2.48-4.3 3.4-5.9l33.8 19.52c-2.92.24-5.66 1.84-7.24 4.58a9.213 9.213 0 0 0-.94 6.96c.62 2.42.44 4.98-.8 7.14l-2.08 3.6c-1.26 2.18-3.38 3.6-5.8 4.28-2.26.62-4.28 2.1-5.54 4.28a9.255 9.255 0 0 0-.94 6.94c.62 2.42.44 4.98-.8 7.16l-2.08 3.6c-1.26 2.16-3.38 3.6-5.78 4.26-2.26.62-4.28 2.1-5.54 4.28-1.58 2.72-1.58 5.9-.34 8.56l-33.96-19.62c.32-.4.64-.78.9-1.22l2.48-4.28c1.48-2.58 1.7-5.62.96-8.5-.7-2.7-.38-5.64 1.12-8.24 1.5-2.6 3.9-4.36 6.58-5.1 2.86-.8 5.4-2.5 6.88-5.08l2.46-4.26c1.48-2.56 1.7-5.6.96-8.48-.7-2.7-.38-5.66 1.12-8.26 1.86-3.24 5.14-5.14 8.6-5.42l2.58-.8Zm-47.022 81.4c-3.32 5.74-6.48 11.22-9.38 16.24l29.32 16.94c3.22 1.86 7.34.76 9.2-2.46 3.74-6.48 10.26-17.74 17.7-30.62l-35.66-20.58c-1.36 1.2-2.98 2.1-4.78 2.6-2.68.74-5.08 2.5-6.58 5.1-1.86 3.24-1.88 7.02-.4 10.16l.58 2.62Z"/>
  <path fill="#fff" d="m345.048 93-5.2-3-17.34 12.82 20.06 11.58 2.48-21.4Zm-57.777 172.08c17.16-29.74 30.84-61.3 40.74-93.94 2.18-7.22 4.2-14.5 6.02-21.82l7.66-30.84-22.26-12.84-21.92 21.02c-30.26 29.02-56.42 62.42-77.54 99.02l-15.04 26.04c-.02.02-2.24 3.86-5.88 10.18l50.48 29.14 17.08 9.86c1.34-2.32 2.48-4.3 3.4-5.9.3-.54.58-1.02.84-1.46 1.04-1.82 1.64-2.82 1.64-2.84l14.78-25.62Zm-51.983 90c1.48-2.58 1.7-5.62.96-8.5-.7-2.7-.38-5.64 1.12-8.24 1.5-2.6 3.9-4.36 6.58-5.1 2.86-.8 5.4-2.5 6.88-5.08l2.46-4.26c1.48-2.56 1.7-5.6.96-8.48-.7-2.7-.38-5.66 1.12-8.26 1.86-3.24 5.14-5.14 8.6-5.42l-15.52-8.96-48.96-28.26c1.48 3.14 1.46 6.92-.4 10.16-1.48 2.56-3.84 4.3-6.48 5.06-2.82.8-5.28 2.5-6.74 5.04l-2.64 4.58c-1.46 2.54-1.7 5.54-1 8.4.66 2.66.32 5.56-1.14 8.12-1.48 2.56-3.84 4.3-6.46 5.06-2.82.82-5.28 2.5-6.76 5.04l-2.64 4.6c-1.46 2.54-1.7 5.52-.98 8.36.66 2.66.34 5.56-1.14 8.12-1.86 3.24-5.14 5.14-8.6 5.44l44.4 25.64 20.08 11.58c-1.48-3.14-1.46-6.92.4-10.16 1.5-2.6 3.9-4.34 6.58-5.1 1.8-.5 3.42-1.4 4.78-2.6.44-.38.84-.8 1.2-1.26.32-.4.64-.78.9-1.22l2.44-4.3Zm-37.399 14.74-45.84-26.46c-8.82 15.3-16.54 28.68-20.98 36.38-2.2 3.82-.9 8.72 2.94 10.92l53.62 30.96c3.82 2.2 8.72.9 10.92-2.92 2.78-4.8 6.84-11.82 11.64-20.14 2.9-5 6.06-10.48 9.38-16.24l-21.68-12.5Z"/>
</svg>
