<svg xmlns="http://www.w3.org/2000/svg" width="512" height="512" fill="none" viewBox="0 0 512 512">
  <path fill="#A1A1A1" d="m325.601 186.585 1.42-4.38c.52-.2 1.02-.4 1.54-.58l.26-.081c3.04-1.02 6.38-.7 9.16.92l.3.181c2.84 1.64 4.8 4.42 5.4 7.64l.12.619c1.02 5.42.66 11.021-1.04 16.261l-3.62 11.2-23.5-13.56 8.36-14.5 1.6-3.72Zm-68.48 174.619 2.38-4.12a3.834 3.834 0 0 1-.92-3.92l-21.44-12.38-3.84 6.66 23.82 13.76Zm2.22-9.38a3.879 3.879 0 0 1 3.86-1.16l74.76-129.46-23.82-13.76-76.2 132 21.4 12.38Z"/>
  <path fill="#fff" d="m317.02 182.204 3.28-10.16c2.2-6.82 2.66-14.08 1.34-21.14l-.16-.82c-.78-4.18-3.34-7.8-7.02-9.92l-.4-.22a14.56 14.56 0 0 0-11.92-1.18l-.34.12a43.146 43.146 0 0 0-18.18 11.92l-10.3 11.4 38.8 22.4 3.44 1.98 1.46-4.38Zm-106.1 179.5-36.56-21.12a4.997 4.997 0 0 1-5.3 1.44l-3.06 5.28 43.04 24.84 3.1-5.36a4.927 4.927 0 0 1-1.22-5.08Zm97.601-174.6-37.52-21.66-97.06 168.1a5.047 5.047 0 0 1 1.42 5.32l36.56 21.12a4.99 4.99 0 0 1 5.02-1.5l6.36-11.02 3.84-6.66.76-1.34 76.2-132 1.54-2.66 8.36-14.5-5.48-3.2Z"/>
</svg>
