<svg xmlns="http://www.w3.org/2000/svg" width="512" height="512" fill="none" viewBox="0 0 512 512">
  <path fill="#A1A1A1" d="M329.362 208.9c4.2-7.28 8.28-17.98 10.38-28.52 2.32.58 4.6 1.46 6.74 2.7 6.46 3.74 10.96 9.94 12.02 16.66l.34 2.1c1.82 11.38-3.4 28.22-8.86 37.68l-28.72-16.58 6.12-10.58 1.98-3.46Zm-57.38 165.559 2.5-4.32a4.705 4.705 0 0 1-.78-4.6l-26.16-15.1-4.28 7.42 28.72 16.6Zm2.498-10.259c1.08-1.3 2.76-1.9 4.38-1.62l69.56-120.36-28.72-16.58-71.36 123.46 26.14 15.1Z"/>
  <path fill="#fff" d="M331.738 178.38c1.4-7.04 1.92-14 1-19.84l-.44-2.7c-1.38-8.6-7.14-16.58-15.42-21.38-8.2-4.74-17.88-5.76-25.98-2.78l-1.82.68c-14.12 5.24-29.88 22.18-37 34.52l45.82 26.46 23.46 13.54c4.2-7.26 8.28-17.96 10.38-28.5ZM223.48 368.62l-62.52-36.08c-1.42 1.72-3.66 2.46-5.8 2.04l-3.16 5.5 69.26 39.98 3.2-5.54c-1.32-1.62-1.74-3.88-.98-5.9Zm95.88-158.26-24.2-13.96-45.4-26.22-88.94 154.58c1.44 1.64 1.92 3.96 1.14 6.04l62.5 36.08c1.38-1.66 3.54-2.42 5.62-2.08l5.18-8.94 4.28-7.42.78-1.34 71.36-123.46 1.56-2.7 6.12-10.58Z"/>
</svg>
