<svg xmlns="http://www.w3.org/2000/svg" width="512" height="512" fill="none" viewBox="0 0 512 512">
  <path fill="#A1A1A1" d="m217.699 406.899 14.94 8.62c1.26-2.22 4.06-3 6.26-1.74l87.98-155.32.16-.26-18.92-10.92-90.42 159.62ZM314.76 223.74l-1.24 4.38 19.2 11.1 16.08-27.84-20.18-11.64-12.32 21.34-1.54 2.66Zm-6.123 22.019 18 10 4.92-14.52-18.7-10.8-3.44 12.16m25.221-60.839 2.82 2.66-6.56 11.38 17.54 10.12 7.52-13.02c16.56-31.12 31.08-74.8 35.54-88.88l-1.32-.76s-17.48 18.46-35.98 42.3c-2.38 5-4.82 9.86-7.3 14.5l-9.9 17.14m-106.46 251.039 2.68-4.64a4.547 4.547 0 0 1-1.66-6.22l-14.92-8.6-4.88 8.62 18.78 10.84Z"/>
  <path fill="#fff" d="m302.578 246.46.2-.34-50.22-29-.2.34-119.28 202.64c2.9 1.68 3.84 5.38 2.14 8.28l43.22 24.94c1.66-2.92 5.36-3.96 8.24-2.28l19.06-33.66 4.88-8.62 1.06-1.86 90.4-159.62.5-.82Zm21.443-66.34-32.4-18.7-21.16 36.66 29.78 17.18 10.06 5.82 12.32-21.34 2.28-3.94 6.56-11.38-7.44-4.3Zm-25.319 37.8-29.78-17.18-13.66 14.06 31.26 18.04 16.9 9.76 3.44-12.16.66-2.32 1.24-4.38-10.06-5.82Zm42.2-57.84c2.48-4.64 4.9-9.52 7.3-14.5 18.68-39.04 34.32-86.12 39.52-102.58l-1.74-1s-47.26 49.86-77.98 99.08l-9.9 17.14 29.08 16.8 3.82 2.2 9.9-17.14ZM177.04 455.78l-43.3-25a5.992 5.992 0 0 1-8.2 2.2L122 439.1l53.7 31 3.54-6.12a5.992 5.992 0 0 1-2.2-8.2Z"/>
</svg>
