<svg xmlns="http://www.w3.org/2000/svg" width="512" height="512" fill="none" viewBox="0 0 512 512">
  <path fill="#A1A1A1" d="m303.695 267.84 7.36-17.42 22.4-38.8-23.26-13.42-21.22 36.76-8.12 19.5 22.84 13.38Zm66.061-160.92s-4.92 3.52-13.76 12.86l11.02 6.36c3.68-12.34 4.26-18.34 4.26-18.34l-1.52-.88ZM315.996 188l-3.98 7.04 19.82 11.44c19.78-36.48 29.7-62.44 34.64-78.58l-11.76-6.78c-6.66 7.16-15.38 17.46-25.76 31.74-4.22 8.96-10.32 20.24-11.12 21.7l-5.84 11.44 4 2Zm-36.207 68.131-82.141 142.386 23.059 13.302 82.14-142.386-23.058-13.302ZM213.697 422.48c2.04 1.18 4.8.18 6.2-2.24l1.88-3.26c.44-.76.5-1.6.22-2.28l-25.28-14.58-5.44 9.44 22.42 12.92Z"/>
  <path fill="#fff" d="m305.639 188.239-7.92-4.58-30.3-17.5-24.68 42.72-12.54 16.62 27.04 15.62 15.62 9.02 8.12-19.18 21.22-36.76 1.82-3.16 1.62-2.8ZM347.277 73.9l-1.68-.96s-5.42 3.88-15.14 14.16l12.14 7c4.04-13.58 4.68-20.2 4.68-20.2Zm-26.298 74.98c10.84-22.96 17.24-40.5 21.02-52.8l-12.94-7.48c-12.66 13.6-31.96 37.36-55.86 76.3l26.62 15.38 4.02 2.32c6.7-12.34 12.34-23.56 17.14-33.72Zm-49.181 103.259.14-.24-42.82-24.7-90.54 156.72 42.9 24.76 1.82-3.14 5.44-9.44.92-1.58 82.14-142.38ZM134.499 383.88c-.8.12-1.58.64-2.06 1.48l-2.08 3.6c-1.54 2.66-.96 5.84 1.28 7.14l42.12 24.32c2.24 1.3 5.3.2 6.82-2.46l2.08-3.6c.48-.84.54-1.78.24-2.52l-48.4-27.96Z"/>
</svg>
