<svg xmlns="http://www.w3.org/2000/svg" width="512" height="512" fill="none" viewBox="0 0 512 512">
  <path fill="#A1A1A1" d="M281.661 364.64c.68.38 1.54.16 1.92-.52l1.58-2.72c-.3-.1-.6-.24-.88-.4a5.394 5.394 0 0 1-2.3-6.7l-21.08-12.16-4.6 7.98 25.36 14.52Zm79.499-136.9c15.52-26.88 17.98-54.94 5.46-62.18-3.34-1.92-7.44-2.18-11.94-1.02-2.6 12.12-7.78 25.6-15.44 38.86l-4.9 8.94 26.82 15.4Zm-44.699 17.62 26.58 15.34 5.82-12.74 9.38-16.28-26.98-15.44-7.3 12.66-7.5 16.46ZM290.48 352.18c-.24-.2-.5-.4-.78-.56a5.406 5.406 0 0 0-6.96 1.36l-21.08-12.16 54.2-93.78 26.48 15.08-51.86 90.06Z"/>
  <path fill="#fff" d="m233.639 358.139-48.68-28.1c-2.12 2.68-5.92 3.5-8.98 1.74-.3-.18-.56-.38-.82-.58l-2.14 3.7c-.5.88-.2 1.98.68 2.5l59.52 34.08c.88.5 1.98.2 2.48-.66l2.02-3.52c-.38-.14-.76-.3-1.14-.5-3-1.78-4.2-5.48-2.94-8.66ZM350.678 156.56c4.18-19.58 1.6-35.6-8.38-41.36-16.16-9.32-45.92 11.54-65.94 46.22-.08.16-.18.3-.26.46l29.72 16.54 11.14 6.44 18.3 10.56c7.66-13.28 12.84-26.76 15.42-38.86Zm-18.599 43.36-18.72-10.72-40.5-23.18-12 20.76-10.48 14.74 62.08 35.84 7.5-16.46 7.3-12.66 1.1-1.9 3.72-6.42Zm-20.521 39.24-21.74-12.56-40.56-23.42c-.66.98-1.32 1.98-1.9 3l-65.28 113.06c.3.12.62.24.92.42 3.06 1.76 4.24 5.46 2.98 8.64l48.68 28.1c2.12-2.68 5.92-3.5 8.98-1.74.36.22.7.46 1 .72l7.66-13.26 4.6-7.98.78-1.34 52.26-90.5c.58-1.02 1.1-2.08 1.62-3.14Z"/>
</svg>
