<svg xmlns="http://www.w3.org/2000/svg" width="512" height="512" fill="none" viewBox="0 0 512 512">
  <path fill="#A1A1A1" d="M310.263 337.779c-24.1-10.28-47.86-10.28-55.64-.54-.6.76-1.14 1.58-1.54 2.46-5.58 12.16 10.96 31 36.96 42.08 26 11.08 51.6 10.22 57.18-1.92.4-.88.68-1.8.86-2.76 2.26-12.1-13.7-29.04-37.82-39.32Zm3.74-119.899c18.1 5.34 26.52 35.66 22.54 61.74-3.06 20-10.52 39.38-24.1 45.94 2.36.8 1.06.36 3.38 1.34 22.28 9.5 43.16 26.44 40.7 38.44l44.6-106.08c-4.74-13.66-18.92-28.56-37.4-37.56-19.66-9.58-38.96-11.82-51.6-6-.64.3-1.28.64-1.92 1l3.8 1.18Z"/>
  <path fill="#A1A1A1" d="M427.16 144.94c-5.8-6.14-13.8-12.32-24.54-16.44-8.7-3.34-17-4.48-24.24-4.5-13.66-.06-26.06 7.72-31.62 19.78L312 211.72c13.18-5.86 32.94-3.58 52.96 6.18 18.04 8.78 32.04 23.16 37.6 36.8L436 182c5.52-12.04.32-27.36-8.84-37.06Z"/>
  <path fill="#fff" d="M255.488 313.64c-8.14-9.82-11.3-27.68-8.84-47.26 3.38-26.76 18.6-48.16 32.8-47.76L188.828 208c-9.82 8.32-18.5 26-21.5 46.18-3.06 20.72-.76 39.2 6.14 50l80.04 14.46 2.06.38 9.42 1.68c-2.06-.72-4.04-1.92-5.9-3.46a26.61 26.61 0 0 1-3.6-3.6Z"/>
  <path fill="#fff" d="M320.68 277.6c3.32-26.08-5.96-49.52-21.04-54.86-.74-.26-1.48-.48-2.24-.64-.24-.06-.52-.1-.78-.16-.14-.02-.24-.06-.38-.08-.76-.12-1.5-.18-2.24-.22-16.26-.74-31.68 19.08-35.08 45.84-1.78 14.08.12 27.36 4.6 37.46 1.84 4.14 4.08 7.76 6.7 10.66 3 3.3 6.46 5.7 10.3 6.92.94.3 1.88.54 2.86.7.72.12 1.44.18 2.16.22.54.02 1.06.04 1.62.02 3.58-.12 7.1-1.26 10.44-3.2 11.26-6.58 20.54-22.66 23.08-42.66Zm-158.039-23.98c2.92-19.66 11.14-37 20.76-46.12L113 198c-11.22-1.82-22.459 7.92-28.479 19.1-3.82 7.08-7.18 16.2-8.2 27.32-.84 8.98.06 17.02 1.64 23.76 2.98 12.7 12.22 22.08 23.48 23.92l66.66 11.46c-6.38-11.42-8.46-29.7-5.46-49.94Z"/>
</svg>
