<svg xmlns="http://www.w3.org/2000/svg" width="512" height="512" fill="none" viewBox="0 0 512 512">
  <path fill="#A1A1A1" d="M346.681 192.53c.02-.48-.02-.98-.1-1.46l-1.22-7.12c-.18-1.1-.22-2.22-.14-3.32l-12.26-7.08c-.74.52-1.56.94-2.4 1.3l-3.62 6.26 19.74 11.42Zm-20.6-9.9 20.3 11.72c-.16.6-.38 1.18-.7 1.72l-14.28 24.76-20.44-11.8 15.12-26.4Zm30.62-34.92-.96-.56a.889.889 0 0 0-1.12.2l-18.9 23.64c-.02.04-.06.06-.1.1l10.38 6c.02-.04.02-.08.04-.12l11.02-28.2c.18-.4.02-.86-.36-1.06Zm-64.522 104.4-71.82 128.36 16.52 9.54c1.1-1.12 2.82-1.42 4.22-.6.16.08.28.2.42.3l69.6-124.4 4.18-15.64 15.22-27.34-20.42-11.78-13.12 23.56-4.8 18Zm-56.178 147.42 2.16-3.84a3.19 3.19 0 0 1-.54-.24c-1.4-.8-2.02-2.44-1.6-3.94l-16.5-9.52-3.4 6.06 19.88 11.48Z"/>
  <path fill="#fff" d="m326.982 160.67-1.42-8.18a15.26 15.26 0 0 1-.16-3.82l-14.12-8.14c-1.04.72-2.18 1.34-3.38 1.78l-7.8 2.86c-.54.2-1.02.46-1.5.74l28.46 16.44c.06-.56.02-1.12-.08-1.68Zm-2.423 8.2 1.4-2.42c.36-.62.6-1.3.8-1.98l-29.8-17.2c-.5.52-.96 1.06-1.32 1.68l-16.44 28.48 24.5 14.14 5.8 3.36 10.56-18.28.86-1.5 3.64-6.28Zm1.82-24.42 12.68-32.44c.18-.46 0-.98-.44-1.24l-1.1-.64c-.42-.24-.98-.14-1.28.24l-21.76 27.2c-.04.04-.08.08-.1.12l11.96 6.9c.02-.04.02-.1.04-.14Zm-23.659 48.86-24.5-14.14-18.48 30.9-13.18 13.18-83.9 140.9c.06.02.12.04.18.08 1.62.94 2.3 2.82 1.82 4.56l36.1 20.84c1.26-1.28 3.24-1.64 4.86-.7.18.1.32.22.48.34l4.04-7.2 3.4-6.06.84-1.52 71.82-128.36 4.82-18 13.12-23.56.84-1.52 3.56-6.38-5.82-3.36ZM199.74 391.35l-36.1-20.84a3.983 3.983 0 0 1-4.84.66c-.08-.04-.16-.12-.24-.16l-2.56 4.32 43.72 25.24 2.48-4.42a3.46 3.46 0 0 1-.62-.28 3.98 3.98 0 0 1-1.84-4.52Z"/>
</svg>
