<svg xmlns="http://www.w3.org/2000/svg" width="512" height="512" fill="none" viewBox="0 0 512 512">
  <path fill="#A1A1A1" d="m268.137 84.46-8.56-19.76h-6l-8.6 19.76h23.16Z"/>
  <path fill="#fff" d="M295.578 283.999v-41.38c0-41.94-5.86-83.62-17.38-123.62l-8.8-30.54h-25.7l-8.48 29.18c-11.7 40.26-17.64 82.26-17.64 124.52v41.84h78Zm-76.301 92h74.46c-2.84-1.98-4.72-5.26-4.72-9 0-3 1.2-5.72 3.16-7.7 2.08-2.12 3.42-4.86 3.42-7.82v-4.94c0-2.98-1.34-5.72-3.42-7.84-1.94-1.98-3.14-4.7-3.14-7.7s1.2-5.72 3.16-7.7c2.08-2.12 3.42-4.86 3.42-7.84v-4.92c0-2.96-1.34-5.7-3.42-7.82-1.96-1.98-3.16-4.7-3.16-7.72 0-3.74 1.88-7.02 4.72-9h-74.46c2.84 1.98 4.72 5.26 4.72 9 0 2.96-1.18 5.64-3.08 7.62-2.04 2.1-3.32 4.8-3.32 7.72v5.28c0 2.94 1.3 5.64 3.34 7.76 1.9 1.98 3.06 4.66 3.06 7.6 0 2.96-1.16 5.64-3.06 7.6-2.04 2.1-3.32 4.82-3.32 7.74v5.3c0 2.92 1.3 5.64 3.32 7.74 1.9 1.98 3.06 4.66 3.06 7.6a11.04 11.04 0 0 1-4.74 9.04Zm-1.66 2c0 17.66.02 33.12.02 42 0 4.42 3.58 8 8 8h61.92c4.42 0 8-3.58 8-8 0-8.88.02-24.34.02-42h-77.96Z"/>
</svg>
