<svg xmlns="http://www.w3.org/2000/svg" width="512" height="512" fill="none" viewBox="0 0 512 512">
  <path fill="#A1A1A1" d="M271.681 84c-.1-.7-.16-1.4-.16-2.1v-3.56c0-1.28-1.04-2.34-2.34-2.34h-26.38c-1.28 0-2.34 1.04-2.34 2.34v3.56c0 .7-.06 1.42-.16 2.1h31.38Zm2.239 5.74c-.78-1.16-1.38-2.42-1.8-3.74h-32.28c-.4 1.32-1 2.58-1.8 3.74-3.98 5.82-11.36 19.62-10 40.26h55.84c1.4-20.64-5.98-34.44-9.96-40.26Z"/>
  <path fill="#fff" d="M284 134h-56v292h56V134Zm-62 296v4c0 2.2 2.18 4 4.86 4h58.28c2.68 0 4.86-1.8 4.86-4v-4c0-1.1-1.08-2-2.42-2h-63.14c-1.36 0-2.44.9-2.44 2Z"/>
</svg>
