<svg xmlns="http://www.w3.org/2000/svg" width="512" height="512" fill="none" viewBox="0 0 512 512">
  <path fill="#fff" d="M284.819 144.02h-56.94v60h56.94v-60Z"/>
  <path fill="#A1A1A1" d="M282 140.02v-57.9c0-8.7-4.84-16.74-12.66-20.96l-.1-.06c-3.76-2.04-7.98-3.1-12.28-3.1-4.26 0-8.44 1.06-12.18 3.08l-.12.06c-7.82 4.24-12.68 12.26-12.68 20.98v57.9H282Z"/>
  <path fill="#fff" d="M284.82 206.02h-56.94l-1.88 18V439.9c2.42 0 4.44 1.74 4.9 4.04h50.8c.46-2.3 2.48-4.04 4.9-4.04.04 0 .06.02.1.02v-215.9l-1.88-18Zm-3.12 239.92h-50.8c-.46 2.3-2.48 4.04-4.9 4.04v4.84l60.7-.02v-4.82c-.04 0-.06.02-.1.02-2.42-.02-4.44-1.76-4.9-4.06Z"/>
</svg>
