<svg xmlns="http://www.w3.org/2000/svg" width="512" height="512" fill="none" viewBox="0 0 512 512">
  <path fill="#A1A1A1" d="M283.599 131.42c-1.56-4.04-3.4-7.96-5.6-11.72a3.45 3.45 0 0 0-2.98-1.7h-39.8c-.76 0-1.46.4-1.86 1.06-2.38 3.96-4.34 8.1-5.98 12.36h56.22Zm.781 2H226.6a79.955 79.955 0 0 0-4.6 26.68v12.32h67v-12.3c0-9.14-1.6-18.16-4.62-26.7Z"/>
  <path fill="#fff" d="M226.96 380.02h55.88c.2-3.12 2.78-5.6 5.96-5.6.06 0 .14.02.2.02V176.42h-67v198.1a5.98 5.98 0 0 1 4.96 5.5Zm56.08 2h-56.28c-.62 2.22-2.46 3.92-4.76 4.3v8.1l67 .36v-8.38c-.06 0-.14.02-.2.02-2.76 0-5.06-1.86-5.76-4.4Z"/>
</svg>
