<svg xmlns="http://www.w3.org/2000/svg" width="512" height="512" fill="none" viewBox="0 0 512 512">
  <path fill="#A1A1A1" d="m281.178 169.62-3.2-14.94c-1.5-7-4.74-13.54-9.4-18.98l-.54-.62c-2.76-3.22-6.8-5.08-11.04-5.08h-.46c-4.18 0-8.16 1.8-10.92 4.94l-.24.26a42.983 42.983 0 0 0-9.78 19.4l-3.2 15.02h48.78Z"/>
  <path fill="#fff" d="M278.1 373.62h-42.22c-.4 1.96-1.92 3.5-3.88 3.9v6.1h49.7v-6.2a4.953 4.953 0 0 1-3.6-3.8Zm-46.1-200v194.1c1.96.4 3.48 1.94 3.88 3.9h42.22a4.953 4.953 0 0 1 3.6-3.8v-194.2H232Z"/>
</svg>
