<svg xmlns="http://www.w3.org/2000/svg" width="512" height="512" fill="none" viewBox="0 0 512 512">
  <path fill="#fff" d="M309.539 324h-92v48.98h92V324Zm6 52v4.8c0 3.98-3.04 7.2-6.78 7.2h-90.44c-3.74 0-6.78-3.22-6.78-7.2V376h104Zm-98.262-273.699v215.7h92v-215.7h-92Zm83 157.7a4 4 0 0 1-4 4h-68a2 2 0 0 1-2-2v-144a4 4 0 0 1 4-4h66a4 4 0 0 1 4 4v142Z"/>
  <path fill="#A1A1A1" d="M242 138a8 8 0 1 0 0-16 8 8 0 0 0 0 16Zm0 24a8 8 0 1 0 0-16 8 8 0 0 0 0 16Zm0 24a8 8 0 1 0 0-16 8 8 0 0 0 0 16Zm0 24a8 8 0 1 0 0-16 8 8 0 0 0 0 16Zm0 24a8 8 0 1 0 0-16 8 8 0 0 0 0 16Zm0 24a8 8 0 1 0 0-16 8 8 0 0 0 0 16Zm21.199-108a8 8 0 0 0 8-8 8 8 0 1 0-16 0 8 8 0 0 0 8 8Zm0 24a8 8 0 0 0 8-8 8 8 0 1 0-16 0 8 8 0 0 0 8 8Zm0 24a8 8 0 0 0 8-8 8 8 0 1 0-16 0 8 8 0 0 0 8 8Zm0 24a8 8 0 0 0 8-8 8 8 0 1 0-16 0 8 8 0 0 0 8 8Zm0 24a8 8 0 0 0 8-8 8 8 0 1 0-16 0 8 8 0 0 0 8 8ZM285 138a8 8 0 1 0 0-16 8 8 0 0 0 0 16Zm0 23.199a8 8 0 1 0 0-16 8 8 0 0 0 0 16Zm0 23.201a8 8 0 1 0 0-16 8 8 0 0 0 0 16Zm0 23.2a8 8 0 1 0 0-16 8 8 0 0 0 0 16Zm0 23.201a8 8 0 1 0 0-16 8 8 0 0 0 0 16ZM285 254a8 8 0 1 0 0-16 8 8 0 0 0 0 16Z"/>
</svg>
