<svg xmlns="http://www.w3.org/2000/svg" width="512" height="512" fill="none" viewBox="0 0 512 512">
  <path fill="#fff" d="M281.998 251.84h-49.26l2.56-20.66v-49.34h44.14v49.34l2.56 20.66Z"/>
  <path fill="#A1A1A1" d="M264.379 81.84c-3.28-13.78-6.04-19.84-6.04-19.84h-1.94s-2.76 6.06-6.04 19.84h14.02Zm-14.479 2c-4.16 18.1-9 48.34-10.22 94h35.38c-1.22-45.66-6.06-75.9-10.22-94H249.9Z"/>
  <path fill="#fff" d="m282.142 434.84-.06-181h-49.42l-.06 181h49.54Zm2.818 2h-55.92c-.62.5-1.04 1.34-1.04 2.3v4.16c0 3.06 2.1 5.54 4.68 5.54h48.64c2.58 0 4.68-2.48 4.68-5.54v-4.16c0-.96-.42-1.8-1.04-2.3Z"/>
</svg>
