<svg xmlns="http://www.w3.org/2000/svg" width="512" height="512" fill="none" viewBox="0 0 512 512">
  <path fill="#fff" d="M284.1 382h-56.2c-.48 3.38-3.38 6-6.9 6-.34 0-.68-.06-1-.1v4.28c0 1 .82 1.82 1.82 1.82l68.6-.24c1 0 1.82-.82 1.82-1.82v-4.06c-.4.08-.82.12-1.24.12-3.52 0-6.42-2.62-6.9-6Z"/>
  <path fill="#A1A1A1" d="m256 191-34 .27V191c0-40.04 15.34-73 34-73s34 33.23 34 73.27l-34-.27Z"/>
  <path fill="#fff" d="M220.281 237.999h71.68l-1.72-18v-24.22l-68.24.24v23.98l-1.72 18ZM220.14 240c-.08 1.18-.14 2.36-.14 3.56v130.56c.32-.04.66-.1 1-.1 3.52 0 6.42 2.62 6.9 6h56.2c.48-3.38 3.38-6 6.9-6 .42 0 .84.06 1.24.12V243.56c0-1.18-.08-2.36-.14-3.56h-71.96Z"/>
</svg>
