<svg xmlns="http://www.w3.org/2000/svg" width="512" height="512" fill="none" viewBox="0 0 512 512">
  <path fill="#A1A1A1" d="M282.24 197.18c-4.08-52.44-18.4-72.2-21.9-76.32-.46-.54-1.2-.86-2.02-.86h-2.46c-.8 0-1.54.3-2 .84-3.58 4.1-18.4 23.98-22.68 76.32h51.06v.02Z"/>
  <path fill="#fff" d="M282.64 226.18v-23h-51.72v23l-2.9 14.1v132.96c.22-.02.44-.06.66-.06 2.98 0 5.42 2.16 5.9 5h44.2c.48-2.84 2.92-5 5.9-5 .26 0 .52.04.78.08V240.28l-2.82-14.1Zm-3.88 154h-44.2c-.48 2.84-2.92 5-5.9 5-.22 0-.44-.04-.66-.06v6.06h57.44v-6.08c-.26.04-.52.08-.78.08-2.98 0-5.42-2.16-5.9-5Z"/>
</svg>
