<svg xmlns="http://www.w3.org/2000/svg" width="512" height="512" fill="none" viewBox="0 0 512 512">
  <path fill="#A1A1A1" d="M271.681 146.44c-.26-.48-.58-.96-.94-1.4l-5.32-6.38c-.82-.98-1.5-2.08-2.04-3.22h-16.3c-.54 1.16-1.22 2.24-2.04 3.22l-5.3 6.38c-.36.44-.66.9-.94 1.4h32.88Zm-33.943 37h35v-32.88c0-.72-.12-1.42-.3-2.12h-34.4c-.18.7-.3 1.4-.3 2.12v32.88Zm24.402-52c0-.06-.02-.1-.04-.16l-5.24-34.44c-.08-.48-.5-.84-.98-.84h-1.28c-.5 0-.92.36-.98.84l-5.24 34.44c0 .06-.02.1-.04.16h13.8Z"/>
  <path fill="#fff" d="M280.32 403.46c-.2-.02-.38-.06-.58-.06-1.86 0-3.42 1.3-3.86 3.04H234.2c-.44-1.74-2-3.04-3.86-3.04-.06 0-.12.02-.18.02l2.2-163.98 4.82-18 .56-36h35l.56 36 4.82 18 2.2 164.02Zm-.58 7.98c-1.86 0-3.42-1.28-3.86-3H234.2c-.44 1.72-2 3-3.86 3-.1 0-.18-.02-.28-.02l-.06 5.02h50.48l-.06-5.06c-.22.02-.44.06-.68.06Z"/>
</svg>
