<svg xmlns="http://www.w3.org/2000/svg" width="512" height="512" fill="none" viewBox="0 0 512 512">
  <path fill="#fff" d="M302 360h-92v32h92v-32Zm6 34v4.8c0 3.98-3.04 7.2-6.78 7.2h-90.44c-3.74 0-6.78-3.22-6.78-7.2V394h104Zm-98-288v250h92V106h-92Zm82 96c0 2.2-1.8 4-4 4h-64c-2.2 0-4-1.8-4-4v-55.5c0-1.08.42-2.1 1.18-2.86 5.26-5.2 14.4-5.02 17.64-4.76.8.06 1.6-.16 2.3-.54 13.28-7.54 26.3-1.78 29.9.12.66.34 1.38.5 2.12.44 3.2-.26 12.4-.48 17.68 4.76.76.76 1.18 1.8 1.18 2.86V202Z"/>
  <path fill="#A1A1A1" d="M241.361 183.5v-28.38c0-3.14-2.52-5.68-5.62-5.68s-5.62 2.54-5.62 5.68v28.38c0 3.14 2.52 5.68 5.62 5.68s5.62-2.54 5.62-5.68Zm43.5 7.06h-62.56v9.46c0 2.1 1.68 3.78 3.74 3.78h59.92c2.06 0 3.74-1.7 3.74-3.78v-9.46h-4.84Zm-56.94-7.06v-28.38c0-3.14-2.52-5.68-5.62-5.68v39.74c3.1 0 5.62-2.54 5.62-5.68Zm44.119-43.2a3.61 3.61 0 0 1-1.98-.4c-3.38-1.8-15.56-7.24-28-.12-.66.38-1.4.58-2.14.52-3.02-.24-11.58-.42-16.52 4.5-.6.6-.96 1.4-1.06 2.24h67.32c-.1-.84-.46-1.64-1.06-2.24-4.96-4.96-13.56-4.74-16.56-4.5Zm13.921 12.94v32.16c0 2.1 1.68 3.78 3.74 3.78v-39.74c-2.06 0-3.74 1.7-3.74 3.8Zm-30.78 30.26v-28.38c0-3.14-2.52-5.68-5.62-5.68s-5.62 2.54-5.62 5.68v28.38c0 3.14 2.52 5.68 5.62 5.68s5.62-2.54 5.62-5.68Zm13.821 0v-28.38c0-3.14-2.52-5.68-5.62-5.68s-5.62 2.54-5.62 5.68v28.38c0 3.14 2.52 5.68 5.62 5.68s5.62-2.54 5.62-5.68Zm13.797 0v-28.38c0-3.14-2.52-5.68-5.62-5.68s-5.62 2.54-5.62 5.68v28.38c0 3.14 2.52 5.68 5.62 5.68s5.62-2.54 5.62-5.68Z"/>
</svg>
