<svg xmlns="http://www.w3.org/2000/svg" width="512" height="512" fill="none" viewBox="0 0 512 512">
  <path fill="#A1A1A1" d="M330.539 200.232c3.9-6.74 7.62-16.36 9.74-26.06 4.32.04 8.78 1.22 12.8 3.54 6.56 3.8 11.14 10.08 12.24 16.86l.34 2.12c1.88 11.5-3.22 28.28-8.74 37.82l-34.56-20.1 6.3-10.94 1.88-3.24Zm-60.34 174.48c1.6-2.28 4.66-3.04 7.14-1.7l78.12-135.94-34.62-19.98-80.64 140.32 30 17.3Zm-1.638 13.579 3.28-5.7a5.547 5.547 0 0 1-2.38-6.48l-30.04-17.34-5.46 9.5c15.58 9.02 34.6 20.02 34.6 20.02Z"/>
  <path fill="#fff" d="M334.279 170.172c1.66-7.62 2.34-15.3 1.28-21.7l-.44-2.68c-1.4-8.56-7.18-16.5-15.48-21.3-8.2-4.74-17.86-5.8-25.92-2.84l-1.82.66c-14.08 5.16-29.46 21.44-36.52 33.68l50.84 29.58 18.3 10.64c3.92-6.74 7.64-16.34 9.76-26.04Zm-11.598 29.28-19.06-11-49.5-28.58-99 171.48c.04.02.1.04.14.06 3.18 1.84 4.34 5.76 2.8 9.02l56.92 32.86c2.02-2.88 5.88-3.84 9.02-2.16l3.96-6.88 5.46-9.5.78-1.38 80.64-140.32 1.54-2.68 6.3-10.92ZM214.06 375.072 157 342.132a6.995 6.995 0 0 1-8.74 1.42c-.04-.02-.08-.06-.14-.1l-4.12 7.12c1 .58 68.9 39.88 68.9 39.88l4.14-7.2c-2.82-1.72-4-5.14-2.98-8.18Z"/>
</svg>
