<svg xmlns="http://www.w3.org/2000/svg" width="512" height="512" fill="none" viewBox="0 0 512 512">
  <path fill="#A1A1A1" d="M245.137 349.22a8.862 8.862 0 0 1 7-4.06c3.22-.18 6.18-1.8 7.78-4.58l.64-1.1c1.6-2.78 1.54-6.16.08-9.04-.02-.04-.04-.1-.06-.14l26.18 15.12c-.72 1.96-.58 4.1.34 5.9 1.2 2.38 1.26 5.16-.06 7.48l-.52.92c-1.34 2.3-3.78 3.66-6.44 3.8a7.36 7.36 0 0 0-5.8 3.36l-29.14-17.52v-.14Zm-16.899 29.499c-1.1 3-.5 6.34 1.48 8.76 1.08 1.32 1.32 3.14.46 4.64l-9.26 16.04 25.36 14.64c1.58.92 3.6.38 4.52-1.22l24.34-42.16c.7-1.22.52-2.74-.38-3.84-1.64-2-2.14-4.76-1.22-7.26l-29.38-16.96c-.74 2.28-.54 4.7.5 6.76 1.46 2.88 1.52 6.24-.08 9.04l-.64 1.1c-1.62 2.8-4.56 4.42-7.78 4.58-2.78.16-5.4 1.6-7.02 4.06m31.3-54.119a8.96 8.96 0 0 0-.6 5.14l27.7 15.98a7.36 7.36 0 0 1 5.8-3.36c2.66-.14 5.1-1.48 6.44-3.8l.52-.92c1.34-2.3 1.28-5.1.06-7.48a7.426 7.426 0 0 1-.18-6.32l-22.6-13.06c-.18.94-.5 1.86-1 2.74l-.64 1.1c-1.6 2.78-4.56 4.42-7.78 4.58-2.6.14-5.08 1.42-6.72 3.62m15-25.92c-1.1 2.5-.96 5.3.22 7.62.72 1.42 1.1 2.96 1.1 4.5l23.26 13.42a7.41 7.41 0 0 1 5.56-3c2.66-.14 5.1-1.48 6.44-3.8l.52-.92c1.34-2.3 1.28-5.1.06-7.48a7.426 7.426 0 0 1-.18-6.32l-22.18-12.8-.26.44c-1.14 1.96-3.28 3.18-5.52 2.98a8.976 8.976 0 0 0-8.02 3.6m99.341-175.48s-6.94 6.34-17.38 16.76c-9.88 31.88-24.42 71.52-40.38 103.38l-10.3 18.04-.08-.06-16.6 28.94 22.2 12.82a7.345 7.345 0 0 1 6.64-2.98c1.86.18 3.64-.84 4.56-2.46l14.62-25.5.08.04 8.52-14.92c21.72-43.32 40.26-104.12 43.68-125.04l-15.56-9.02Z"/>
  <path fill="#fff" d="M227.876 368.86c3.22-.18 6.18-1.8 7.78-4.58l.64-1.1c1.62-2.78 1.54-6.16.08-9.04a8.892 8.892 0 0 1-.5-6.76c.04-.12.04-.24.1-.36l-57.76-33.34c-1.56 1.88-3.78 3-6.12 3.18-3.1.26-5.92 1.88-7.48 4.56l-.8 1.38c-1.7 2.96-1.7 6.22-.36 9.04a8.905 8.905 0 0 1-.12 7.86l33.62 19.42 23.92 13.82c1.6-2.5 4.22-3.94 7-4.08Zm-6.439 14.62a8.983 8.983 0 0 1-1.48-8.76l-24.02-13.86-33.72-19.48c-1.98 2.38-5.02 3.52-8.02 3.14-1.64-.22-3.26.5-4.08 1.94l-29.58 51.06c-1.1 1.92-.46 4.36 1.46 5.46l65.02 37.54c1.92 1.1 4.36.44 5.46-1.46l20.16-34.92 9.26-16.04c.86-1.48.62-3.3-.46-4.62Zm30.718-64.7-19.98-11.54-37.64-21.72a8.966 8.966 0 0 1-6.44 3.6c-3.08.26-5.9 1.88-7.46 4.56l-.82 1.42c-1.7 2.94-1.7 6.2-.38 9.02a8.864 8.864 0 0 1-.14 7.84l39.32 22.7 18.24 10.52a8.862 8.862 0 0 1 7-4.06c3.22-.18 6.18-1.8 7.78-4.58l.64-1.1c1.6-2.78 1.54-6.16.08-9.04-.02-.04-.04-.1-.06-.14-.36-.74-.62-1.54-.76-2.34-.28-1.68-.1-3.46.62-5.14Zm16.002-27.7-23.66-13.66-33.96-19.6a8.926 8.926 0 0 1-6.42 3.6c-3.08.26-5.88 1.88-7.42 4.56l-.84 1.46c-1.7 2.94-1.7 6.2-.4 9a8.907 8.907 0 0 1 .1 7.36l35.64 20.58 21.96 12.68c1.62-2.2 4.1-3.48 6.72-3.62 3.22-.18 6.18-1.8 7.78-4.58l.64-1.1c.5-.86.82-1.78 1-2.74.12-.6.18-1.2.18-1.8 0-1.54-.38-3.08-1.1-4.5a8.954 8.954 0 0 1-.22-7.64ZM300.456 252l10.3-18.04c15.96-31.84 30.5-71.5 40.38-103.38 6.36-20.52 10.78-37.82 12.4-47.72L344.736 72s-65.32 59.48-105.6 120.6l-10.38 17.98-17.94 31c-1.08 1.88-1.14 4.24.04 6.06 1.6 2.46 1.9 5.62.68 8.42l33.76 19.5 23.86 13.78a8.93 8.93 0 0 1 8.02-3.6c2.26.2 4.4-1.02 5.52-2.98l.26-.44.82-1.44 16.6-28.94.08.06Z"/>
</svg>
