<svg xmlns="http://www.w3.org/2000/svg" width="512" height="512" fill="none" viewBox="0 0 512 512">
  <path fill="#A1A1A1" d="m372.531 153.37-13.84-8c-.82 1.94-1.74 3.92-2.82 5.94l15.16 8.76c.22-.54.46-1.06.74-1.56l1.46-2.52c.52-.92.2-2.1-.7-2.62Zm-17.482-.62 15.46 8.92c-.26 1.1-.34 2.24-.26 3.38.44 5.76.02 18.58-9.4 32.68l-23.88-13.8 18.08-31.18Zm-19.728 34.04-119.63 207.199 23.937 13.82 119.63-207.199-23.937-13.82Zm-99.791 230c1.9 1.1 4.18.72 5.08-.84l1.64-2.84c.46-.78.04-1.86-.9-2.42l-26.48-15.28-4.1 7.1 24.76 14.28Z"/>
  <path fill="#fff" d="m357.393 107.77 1.78-3.08c.64-1.12.26-2.54-.86-3.2l-22.84-13.18a2.353 2.353 0 0 0-3.2.86l-1.78 3.08c-.36.62-.76 1.2-1.2 1.74l27.16 15.68c.28-.66.58-1.3.94-1.9Zm-1.842 7.98c-.1-1.4 0-2.78.32-4.12l-27.94-16.14c-1 .94-2.16 1.72-3.42 2.34-6.36 3.06-19.66 11.32-28.8 29.88l38.34 22.14 10.02 5.78c1.1-1.64 2.08-3.26 2.98-4.88.26-.48.56-.96.8-1.42 1.08-2.02 2.02-4 2.82-5.94 5.08-12.1 5.28-22.32 4.88-27.64Zm-25.259 36.541-36.64-21.16-146 252.88 48.48 28 6.66-11.52 4.08-7.08.82-1.42 119.64-207.22 1.64-2.84 13.16-22.8-11.84-6.84ZM198.231 415.53l-54.68-31.58c-1.16-.68-2.56-.44-3.1.52l-2 3.46c-1.1 1.92-.12 4.56 2.2 5.9l50.48 29.14c2.32 1.34 5.1.88 6.2-1.04l2-3.46c.56-.96.06-2.28-1.1-2.94Z"/>
</svg>
