<svg xmlns="http://www.w3.org/2000/svg" width="512" height="512" fill="none" viewBox="0 0 512 512">
  <path fill="#A1A1A1" d="m333.122 183.809 22.54 13-24.96 43.24-21.96-12.68 24.38-43.56Zm9.459-20.84 23.48-41.84c1.84.48 3.64 1.18 5.32 2.14 3.1 1.78 5.7 4.3 7.56 7.34l.06.08c3.86 6.3 4.02 14.1.4 20.38l-24.08 41.7-20.54-11.84 7.56-13.08.24-4.88ZM210 400.809l18.66 10.78c1.3-1.46 3.46-1.88 5.2-.86.02.02.04.04.08.06l89.8-155.54 6.14-13.76-21.82-12.6-4.08 9.16L210 400.809Zm17.741 20.7 2-3.48c-.02-.02-.06-.02-.08-.04-1.74-1-2.48-3.1-1.86-4.94l-18.66-10.78-3.68 6.38 22.28 12.86Z"/>
  <path fill="#fff" d="m334.339 167.829-15.52-8.96-33.78-19.5-30 51.96 30.82 17.8 18.48 10.68 20.78-36 1.66-2.88 7.56-13.1Zm23.723-46.7 4.78-8.3c4.36-7.54 4.18-16.92-.48-24.48l-.06-.1a25.743 25.743 0 0 0-9.08-8.82c-3.7-2.12-7.84-3.3-12.08-3.42h-.14c-8.9-.24-17.1 4.28-21.46 11.84l-28.94 50.12 30.22 17.46 13.08 7.54 24.16-41.84Zm-73.201 89.74-30.82-17.8-10.64 14.64-107.94 186.94c2.1 1.2 2.98 3.72 2.22 5.94l44 25.4c1.56-1.76 4.16-2.26 6.26-1.04.04.02.06.04.08.06l9.44-16.36 3.68-6.38.84-1.46 93.96-162.76 4.08-9.16.68-1.52 2.6-5.84-18.44-10.66ZM180.68 427.749l-44-25.4c-1.56 1.76-4.16 2.26-6.26 1.04l-2.42 4.18 52.58 30.34 2.42-4.18c-.04-.02-.06-.02-.1-.04-2.1-1.2-2.98-3.72-2.22-5.94Z"/>
</svg>
