<svg xmlns="http://www.w3.org/2000/svg" width="512" height="512" fill="none" viewBox="0 0 512 512">
  <path fill="#A1A1A1" d="M359.899 185.78c.52-3.36.82-6.74.78-10.16 0-.96-.52-1.84-1.36-2.32l-20.64-11.92c-1.1 3.36-2.44 6.66-3.98 9.86l25.2 14.54ZM318.82 199.2l28.66 16.54 4.82-8.36a63.03 63.03 0 0 0 7.34-19.96l-25.62-14.8-15.2 26.58Zm-56.98 155.219c1.36-2.04 4.08-2.72 6.24-1.46.04.02.08.06.12.1l77.7-134.58-28.66-16.54-79.9 138.38 24.5 14.1Zm-1.62 12.461 3.28-5.7c-.04-.02-.1-.04-.14-.06-1.88-1.08-2.7-3.26-2.18-5.24l-24.6-14.2-4.92 8.52 28.56 16.68Z"/>
  <path fill="#fff" d="M334.68 131.88c0-1.22-.66-2.36-1.72-2.96l-34.46-19.9c-.66-.38-1.48-.38-2.14-.02a78.838 78.838 0 0 0-11.36 7.72l48.7 28.12c.66-4.28 1.02-8.62.98-12.96Zm-4 25.48c1.12-3.42 2.02-6.9 2.66-10.42l-50.04-28.88a79.983 79.983 0 0 0-17.32 20.8l-6.16 10.68 41.3 23.84 16.72 9.66 6.14-10.64c.7-1.22 1.38-2.48 2.02-3.74.24-.46.46-.94.7-1.42 1.56-3.22 2.88-6.5 3.98-9.88Zm-31.679 19.4L257.841 153l-99.06 171.56a5.948 5.948 0 0 1 1.54 7.24l48.4 27.94c1.74-2.6 5.22-3.46 7.96-1.86.06.04.1.08.16.12l6.82-11.8 4.92-8.52.78-1.36 79.9-138.38 1.56-2.72 5.04-8.72-16.86-9.74ZM207.9 361.56l-48.74-28.14a6 6 0 0 1-6.28 1.34l-4.06 7.02 57.84 33.82 4.2-7.26c-.06-.04-.12-.04-.18-.08-2.38-1.38-3.44-4.16-2.78-6.7Z"/>
</svg>
