<svg xmlns="http://www.w3.org/2000/svg" width="512" height="512" fill="none" viewBox="0 0 512 512">
  <path fill="#A1A1A1" d="M315.978 216.394c6.06-12.68 10.3-23.68 13.28-33.14 6.4-4.7 10.819-6.52 12.599-7.12.52-.18 1.161-.1 1.701.22l1.679.98c.56.32.941.84 1.041 1.38.78 4.2 2.76 23.44-15.22 61.04l-21.12-12.2 3.339-5.78 2.701-5.38Zm-18.779 38.921-56.5 97.86 16.3 9.4c1.46-1.76 4-2.28 6.02-1.1.18.1.34.24.5.36l52.68-91.26 3.66-10.78 9.12-15.78-21.38-12.34-5.78 10.02-4.62 13.62Zm-40.78 118.84 2.4-4.18c-.2-.08-.38-.14-.56-.26a4.731 4.731 0 0 1-2.06-5.76l-16.3-9.4-4.36 7.54 20.88 12.06Z"/>
  <path fill="#fff" d="M323.261 177.254c8.16-25.92 6.64-40.02 5.92-43.9-.12-.7-.62-1.34-1.32-1.74l-2.12-1.22c-.7-.4-1.48-.5-2.16-.28-5.14 1.76-27.92 11.58-57.8 54.76l31.84 18.38 12.38 7.14c6.04-12.68 10.28-23.68 13.26-33.14Zm-15.941 38.52-13.36-7.72-31.44-18.14-11.5 19.92-9.56 10.76-66.48 115.16c.2.08.4.16.6.28 2.58 1.48 3.62 4.58 2.6 7.28l38.28 22.08c1.84-2.22 5.04-2.86 7.6-1.38.24.14.44.3.64.46l4.84-8.38 4.36-7.54.8-1.38 56.5-97.86 4.62-13.62 5.78-10.02 2.38-4.12 3.34-5.78Zm-91.86 151.36-38.28-22.1c-1.84 2.22-5.04 2.86-7.6 1.38-.2-.12-.36-.26-.54-.38l-3.04 5.26 49.74 28.72 3.04-5.26c-.24-.1-.48-.18-.72-.32-2.56-1.5-3.6-4.6-2.6-7.3Z"/>
</svg>
