<svg xmlns="http://www.w3.org/2000/svg" width="512" height="512" fill="none" viewBox="0 0 512 512">
  <path fill="#A1A1A1" d="M310.263 337.779c-24.1-10.28-47.86-10.28-55.64-.54-.6.76-1.14 1.58-1.54 2.46-5.58 12.16 10.96 31 36.96 42.08 26 11.08 51.6 10.22 57.18-1.92.4-.88.68-1.8.86-2.76 2.26-12.1-13.7-29.04-37.82-39.32ZM402.62 128.5c10.74 4.12 18.74 10.3 24.54 16.44 9.16 9.7 14.36 25.02 8.84 37.06l-79.477 183.34c2.46-12-18.42-28.94-40.7-38.44-.826-.349-1.193-.518-1.43-.627-.428-.197-.43-.198-1.95-.713 13.58-6.56 21.04-25.94 24.1-45.94 3.98-26.08-4.44-56.4-22.54-61.74L310 217l36.76-73.22c5.56-12.06 17.96-19.84 31.62-19.78 7.24.02 15.54 1.16 24.24 4.5Z"/>
  <path fill="#fff" d="M320.68 277.6c3.32-26.08-5.96-49.52-21.04-54.86-.74-.26-1.48-.48-2.24-.64-.24-.06-.52-.1-.78-.16-.14-.02-.24-.06-.38-.08-.76-.12-1.5-.18-2.24-.22-16.26-.74-31.68 19.08-35.08 45.84-1.78 14.08.12 27.36 4.6 37.46 1.84 4.14 4.08 7.76 6.7 10.66 3 3.3 6.46 5.7 10.3 6.92.94.3 1.88.54 2.86.7.72.12 1.44.18 2.16.22.54.02 1.06.04 1.62.02 3.58-.12 7.1-1.26 10.44-3.2 11.26-6.58 20.54-22.66 23.08-42.66Z"/>
  <path fill="#fff" d="M113 198c-11.22-1.82-22.459 7.921-28.479 19.101-3.82 7.08-7.18 16.2-8.2 27.32-.84 8.98.06 17.02 1.64 23.76 2.98 12.7 12.22 22.08 23.48 23.92 51.205 8.397 100.73 17.265 152.067 26.539l2.06.38 9.42 1.68c-2.06-.72-4.04-1.92-5.9-3.46a26.61 26.61 0 0 1-3.6-3.6c-8.14-9.82-11.3-27.68-8.84-47.26 3.38-26.76 18.6-48.16 32.8-47.76C223.589 211.913 168.56 205.311 113 198Z"/>
</svg>
