<svg xmlns="http://www.w3.org/2000/svg" width="512" height="512" fill="none" viewBox="0 0 512 512">
  <path fill="#A1A1A1" d="m290.405 247.009-51.081 71.634 13.5 9.626 51.081-71.633-13.5-9.627Zm-52.142 73.06-7.419 10.406 13.499 9.624 7.419-10.405-13.499-9.625ZM163.282 453.86l4.2-5.88c-4.46-4.58-9.28-7.9-13.16-10.14l-4.56 6.38 13.52 9.64Zm-7.962-17.42c3.9 2.26 8.66 5.54 13.16 10.12l74.9-105.02-13.5-9.64-74.56 104.54Zm229.081-311.98 10.68-22.62 8.76 6.24c.22.16.3.44.18.68l-21.76 46.02c-1.66 3.48-3.6 6.8-5.84 9.94l-3.4 4.76c-.08.12-.26.16-.38.06l-7.68-5.48 12.7-18.06c.221-.304.71-1.336.707-2.141-.003-.647-.597-1.089-1.054-1.546L375.001 140c3.461-5.384 6.625-9.669 9.4-15.54Zm18.942-18.84 4.2-5.88-5.92-4.32-4.24 5.94 5.96 4.26ZM300.54 245.66c.3.22.86-1.1.86-1.36l-.1-4.92c-.02-1.04.24-1.98.78-2.72l4.5-6.3c1.06-1.5 1-3.66-.14-5.88l19.62-27.54c2.76-3.88 5.9-7.48 9.38-10.76l6.24-6.04 15.42 11c.14.1.16.3.04.42l-17.34 16.76c-3 2.84-5.72 5.98-8.12 9.34l-17.02 23.88c.98 1.92 1.04 3.8.12 5.1l-3.9 5.48c-.46.66-.7 1.46-.68 2.36l.08 4.26c0 .22-.28.28-.54.1l-18.4-13.14 2.72-3.8 6.48 3.76Zm60.923-53.78c.74.52 1.56.64 1.84.24l11.319-15.88c.28-.4-.099-1.14-.819-1.66l-3-2.14-1.16-.82-6.68-4.76-.44.62c-.32.44-1.661 1.121-2.521.521l-5-3-11.94 13.739 18.401 13.14Z"/>
  <path fill="#fff" d="m281.401 231.14-13.26-9.46-58.84 82.62 16.14 11.5 3.72 2.66 3.14-4.4 1.02-1.44 51.08-71.62.94-1.32 2.7-3.8-6.64-4.74Zm-57.142 86.32-16.14-11.5-8.56 12 16.14 11.5 3.72 2.66 4.44-6.24 1.02-1.4 3.1-4.36-3.72-2.66ZM106 449.06l19.92 14.2 4.84-6.78c-7.16-7.38-15.18-11.92-19.9-14.22l-4.86 6.8ZM214.54 331.1l-16.14-11.5L112 440.66c4.86 2.38 12.7 6.84 19.9 14.2l11.86-16.62 4.56-6.38 1-1.4 68.94-96.68-3.72-2.68ZM392.959 57.26a.61.61 0 0 0-.8.06l-41.96 40.94c-3.16 3.1-6.06 6.48-8.64 10.1l-3.96 5.56c-.1.14-.06.34.08.44l18.18 12.96 11.46 8.16c.14.1.34.08.44-.08l3.9-5.48c2.58-3.62 4.84-7.44 6.74-11.46l10.68-22.62 14.38-30.44c.14-.28.04-.6-.2-.78l-10.3-7.36Zm14.581-2.28L400.72 50l-4.9 6.86 6.88 4.92 4.84-6.8Zm-58.141 105.36-17.46-12.46-12-8.56c-.16-.12-.34-.06-.42.12l-11.74 25.16c-1.98 4.34-4.88 8.34-7.64 12.22l-19.62 27.52c-2.42-.46-3.98-.52-5.24 1.16l-4.76 6.66c-.56.8-1.4 1.38-2.46 1.72l-4.7 1.52c-.24.08-.2.42.1.62l19.38 13.84 11.94 8.52c.3.22.64.16.62-.1l-.1-4.92c-.02-1.04.24-1.98.78-2.72l4.5-6.3c1.06-1.5 1-3.66-.14-5.88l19.62-27.54c2.76-3.88 5.9-7.48 9.38-10.76l6.24-6.04 1.38-1.34 12.36-11.96c.16-.14.14-.36-.02-.48Zm19.22-19.04-3.44-2.46-1.32-.94-10.88-7.76-8.66-6.18-13.02-9.28-.52-.38a1 1 0 0 0-1.4.24l-13.06 18.3a1 1 0 0 0 .24 1.4l2.64 1.88 14.04 10 1.82 1.3 14.62 10.42 1.32.94 3.44 2.46c.84.6 1.8.72 2.12.28l.44-.62 2-2.82 10.6-14.86c.3-.46-.14-1.32-.98-1.92Z"/>
</svg>
