<svg xmlns="http://www.w3.org/2000/svg" width="512" height="512" fill="none" viewBox="0 0 512 512">
  <g clip-path="url(#a)">
    <path fill="#878787" d="M96.552 440.624c-.56 3.755-2.045 5.19-3.43 6.724-11.764 13.236-23.303 26.696-37.361 37.636-3.818 2.969-7.785 5.788-11.652 8.707-2.07 1.572-4.067 1.622-7.584-2.195-5.44-5.888-11.265-11.464-17.028-17.078-2.645-2.57-2.907-4.104-1.859-6.125 13.834-26.384 43.736-29.814 78.915-27.669Zm-42.413-13.248c5.239-4.366 10.453-8.757 15.742-13.073 3.12-2.545 6.437-4.865 9.531-7.41 1.71-1.41 3.38-1.759 6.474 1.434 5.776 5.951 11.727 11.727 17.565 17.615 1.247 1.247 3.118 2.694 2.407 4.104-.561 1.11-.998 2.669-3.231 1.784-9.119-3.63-17.739-5.489-25.947-5.814-7.834-.299-14.72 1.148-22.542 1.335v.025Z"/>
    <path fill="#878787" d="M38.682 443.456c12.837-13.76 31.349-18.375 56.785-11.676 1.996.524 5.476.362 6.137 3.592.462 2.283-1.372 4.042-4.715 3.394-12.55-2.445-23.864-2.134-34.592-.612-8.234 1.173-15.88 3.331-23.615 5.302Zm71.199-21.091 208.727-208.727c1.043-1.043 1.106-2.671.142-3.635l-18.163-18.163c-.965-.965-2.592-.901-3.635.142L88.225 400.709c-1.043 1.043-1.107 2.67-.142 3.635l18.163 18.163c.964.964 2.591.901 3.635-.142ZM385.153 96.322l-80.162 80.162-3.518 9.605a2.39 2.39 0 0 0 .549 2.52l19.535 19.535a2.392 2.392 0 0 0 2.445.574l9.943-3.281 80.162-80.162c5.039-5.04 5.039-13.198 0-18.238l-10.729-10.728c-5.039-5.04-13.198-5.04-18.237 0l.012.013Z"/>
    <path fill="#fff" d="m415.678 103.944 22.729-10.005a8.184 8.184 0 0 0 4.915-3.992l23.727-44.26c.761-1.434-.911-3.081-2.32-2.32L420.631 67.28a8.252 8.252 0 0 0-3.967 4.89l-10.042 22.79 9.056 8.983Zm7.66-30.563.112-.112c2.545 2.07 4.928 4.303 7.298 6.574 3.243-3.593 13.959-13.96 17.265-17.29 4.041-3.767 8.108-8.408 12.212-11.689-7.497 8.146-20.995 22.866-28.804 30.725l-.611.586c-2.557-2.881-5.139-5.713-7.485-8.782l.013-.012Zm13.198 152.265 1.909-1.909c63.683-62.435 59.703-107.506 59.703-107.506l-24.2 5.09s-14.82 23.302-35.191 28.18c-22.604 5.414-39.969-3.343-39.969-3.343l-39.806 39.806s11.888 16.504 1.958 37.536c-9.867 20.92-29.303 31-29.303 31l-5.102 25.909s47.566 8.92 110.001-54.763Zm-14.408-19.523c15.194-14.77 29.091-30.862 39.819-49.15 3.842-5.913 7.173-12.138 10.217-18.525-2.383 6.674-5.339 13.149-8.695 19.423-10.778 18.388-24.862 34.717-40.068 49.5-19.91 19.859-43.175 38.434-70.981 45.332 26.533-9.792 50.036-26.384 69.721-46.567l-.013-.013Zm-191.946-22.068 25.91-5.102s10.092-19.423 30.999-29.303c21.032-9.929 37.536 1.959 37.536 1.959l39.807-39.807s-8.758-17.364-3.344-39.968c4.878-20.371 28.181-35.191 28.181-35.191l5.089-24.2s-45.071-3.98-107.494 59.715l-1.908 1.909c-63.696 62.423-54.776 109.988-54.776 109.988Zm27.743-25.872c6.886-27.793 25.461-51.059 45.333-70.98 14.783-15.207 31.112-29.316 49.499-40.069 6.275-3.356 12.749-6.312 19.423-8.695-6.399 3.032-12.624 6.387-18.524 10.217-18.288 10.728-34.38 24.625-49.15 39.819-20.197 19.672-36.788 43.175-46.568 69.721l-.013-.013Z"/>
  </g>
  <defs>
    <clipPath id="a">
      <path fill="#fff" d="M0 0h512v512H0z"/>
    </clipPath>
  </defs>
</svg>
