<svg xmlns="http://www.w3.org/2000/svg" width="512" height="512" fill="none" viewBox="0 0 512 512">
  <path fill="#fff" d="M472.28 49.76c-30.18.74-62.06 38.34-62.06 38.34L184.14 312.68c-22.24-9.64-15.42 12.84-15.42 12.84s-.58 2.9-8.54 8.72c-7.94 5.82-19.36-7.94-19.36-7.94 1.82 1.02 3.68-.66 5.04-2.46 1.4-1.86 1.78-6.12.88-8.26-1.8-4.2-10.46-15-20.28-7.34-11.92 9.32 1.1 31.24 9.04 42.46.32.36.68.82 1.08 1.32 3.1 3.98 11.62 14.86 26.4 27.9.1-.08.16-.12.16-.12 17.74 17.32 32.46 18.7 39.48 17.22 3.3-.7 6.36-2.34 8.42-5.02 2.38-3.08 3.44-10.6-2.84-15.92-13-11-17.44 2.14-17.44 2.14-7.16-6.64-7.4-7.86-7.16-13.82.24-5.96 10.78-12.88 10.78-12.88 20.66 2.52 11.42-16.4 11.42-16.4s190.16-189.64 230.16-226.36c40-36.72 36.28-59 36.28-59h.04Zm-298.62 301.9c-3.86 3.7-10.58 2.96-10.58 2.96s-.48-6.74 3.36-10.46c3.86-3.7 10.58-2.96 10.58-2.96s.48 6.74-3.36 10.46Zm7.02-23.56c-2.44.16-5.9-2.12-6.8-5.42-1.72-6.26 5.76-8.78 7.42-4.86 3.5 8.3 14.58 3.1 14.58 3.1s-7.24 6.66-15.18 7.18h-.02Zm14.74 16.98c-3.26-1.04-5.4-4.6-5.14-7.02.82-7.92 7.76-14.88 7.76-14.88s-5.62 10.86 2.54 14.68c3.86 1.8 1.04 9.2-5.16 7.22Zm16.94-38.66c-.5.44-.98.9-1.48 1.36-4.74 4.72-9.3 9.7-12.84 15.4 2.66-4.36 5.9-8.32 9.36-12.08-3.66 3.54-7.36 7.08-11.54 9.8 5.98-4.16 10.92-9.78 16.22-14.76 76.24-75.8 156.12-159.46 234.44-232-74.34 77.58-157.32 156.9-234.18 232.28h.02Z"/>
  <path fill="#878787" d="m70.22 436.34 12.44 12.94c2.92-2.64 5.78-5.18 8.52-7.64l-12.96-13.48c-3.66 3.76-6.46 6.62-8 8.2v-.02Zm-1.96.84c-3.6-3.1-7.78-3.94-10.9-4.42-9.76-1.52-15.98 6.26-15.98 6.26s-4.82 5.42 1.5 15.08 13.66 4.62 13.66 4.62l2.44 2.54c-5.14 8.46 4.24 14.04 8.02 15.32 2.22.76 5.1 1.82 8.42.64 2.34-.84 4.92-3.02 7.44-6.2 5.6-7.04-.42-18.28-1.48-20.16L68.24 437.2l.02-.02ZM54.4 453.16c-2.76.22-6.68-2.3-7.64-6.02-1.84-7.08 6.74-10.1 8.54-5.68 3.8 9.36 16.52 3.22 16.52 3.22s-8.38 7.72-17.42 8.48Zm16.42 19c-3.68-1.1-6.06-5.1-5.72-7.86 1.1-9.02 9.14-17.08 9.14-17.08s-6.62 12.46 2.58 16.64c4.34 1.96 1 10.42-6.02 8.32l.02-.02Zm21.86-31.88c38.8-34.64 59.6-51.76 67.16-57.82-9.66-8.58-16.62-16.18-21.16-21.54-10.36 14.92-42.18 48.38-59.06 65.78l13.06 13.58Z"/>
</svg>
