<svg xmlns="http://www.w3.org/2000/svg" width="512" height="512" fill="none" viewBox="0 0 512 512">
  <path fill="#878787" d="m120.28 405.28-7.14 5.42c.42 3.26.64 8.84-1.06 15.7 1.4.46 2.86 1 4.34 1.62l4.86-3.68c1.94-8.9.38-15.5-1-19.08v.02Zm-10.12 20.56c1.38-5.74 1.4-10.54 1.12-13.7l-15.76 12c3.82-.2 8.86.1 14.66 1.7h-.02Zm18.58-7.12 16.14-12.22c-.66-7.82-3.42-13.08-5.38-15.86l-9.78 7.44c.94 2.9 2.58 10.46-.98 20.64Zm-19.1 9.06c-7.32-2.02-13.42-1.84-17.18-1.34l-12.98 9.88c.24 1.42-.16 3.34-2.24 5.32 1 .22 1.46.76 1.68 1.2.42.82.28 1.9-.4 3.28-.36.72-1.02 1.48-1.84 2.22.34.14.64.36.86.68 1.26 1.72 1.04 2.42-.24 3.6-.24.22-.54.5-.88.84-.58.62-.92 1.1-1.12 1.46.74.36 1.7 1.04 2.56 2.28l28.84-21.82c1.26-2.64 2.24-5.18 2.92-7.6h.02Zm1.94.58c-.42 1.46-.98 2.98-1.6 4.54l4.58-3.46c-1.02-.4-2.02-.76-3-1.08h.02Z"/>
  <path fill="#878787" d="M125.7 421.02c4.48-10.26 3.24-18.24 2.32-21.64l-6.06 4.6c1.44 3.44 3.14 9.82 1.7 18.56l2.02-1.54.02.02Zm24.48-38.74s-2.58-6.7-.46-13.86c1.88-6.34-5.24-3.66-8.08.16-2.84 3.8-5.76 11.58-.62 20.7 2.04 2.82 5.34 7.6 6.18 15.52.26 3.74.26 5.68.1 9.98-.18 4.56 2.7 3.94 2.7 3.94s6.72-1.32 8.2-12.24c1.48-10.92-8-24.2-8-24.2h-.02Z"/>
  <path fill="#fff" d="m73.9 456.5-.78-.14-.04-.8c0-.34.1-1.56 1.94-3.48.38-.4.7-.7.96-.94.14-.12.28-.26.38-.36-.06-.1-.18-.28-.4-.58-.2-.1-1.48 0-4.42 1.88l-.8.52-.68-.7-.54-.78.8-.62c.1-.08.34-.24.68-.46 1.22-.78 4.94-3.16 5.78-4.8.56-1.14.4-1.48.4-1.48-.02-.04-.16-.12-.42-.16-.56.02-2.64 1.06-4.82 2.46-1.62 1.18-2.8 1.92-2.9 1.98l-1.12-1.66c.72-.52 1.8-1.28 2.98-2.04 1.48-1.08 3.32-2.5 4.96-4.04 1.76-1.66 1.86-2.98 1.66-3.78-.66-.12-2 .3-4.68 2.34-5.6 4.26-18.28 13.92-18.28 13.92s-3.64 2.46-1 6.76c0 0-1.96 2-4.42 4.62-1.08 1.14-3.36.84-4.18 2.18-.92 1.48-1.1 4.14-.3 5.7.84 1.66 2.7.34 3.96.5.72.1 1.7.76 2.56 1.02.96.3 2.88-.04 2.88-.04s-1.92-1.24-1.96-2.5c-.02-1 1.32-3.44 1.32-3.44l3.58-3.12 4.2-3.04 3.08-1.16 2.46-2.5-2.86 3.82-2.98 2.7s-.88 3.08-2.54 4.1c-1.66 1.02-3.62-.52-3.62-.52s-.16 7.82 5.18 4.4l4.28-3.02 4.04-6.16 1.78-4.76.12 3.16s3.94.72 5.38-.44c.64-.5 1.04-1.2 1.3-1.8-1.16-2.3-2.76-2.66-2.82-2.66l-.1-.08Zm-12.5-1.68c-.82 1-1.94 1.66-3.06 2.24-.3.82-.68 1.62-1.28 2.38-.36-1.2-.34-2.3-.28-3.42.96-.86 2.08-1.6 3.2-2.18.02 0 .04-.02 0 0 .38-.6.86-1.58 1.46-2.2.2 1.14.3 2.1-.06 3.18h.02ZM463.42 56.86c-10.9 19.08-22.14 38.68-35.58 57.08-80.96 110.88-196.36 203.24-196.36 203.24l-41.24 34.24-36.68 28.18c.88 1.74 3.78 7.62 6.88 14.74l23.72-17.7c48.14-36.38 83.9-67.24 126.86-107.16 35.22-32.7 77.9-77.76 104.74-110.22 16.56-20.04 32.68-43.78 40.48-55.54 21.06-31.74 7.16-46.88 7.16-46.88l.02.02Z"/>
</svg>
