<svg xmlns="http://www.w3.org/2000/svg" width="512" height="512" fill="none" viewBox="0 0 512 512">
  <path fill="#fff" d="m332.366 146.44-158.72 152.02 40.5 43.56.4-.34 4.36.42c1.02.1 2.04-.22 2.8-.9 7.12-6.34 45.099-40.24 87.739-81.26C378.005 194.02 463.246 102.08 463.086 40c0 0-112.28 107.42-130.72 106.44Zm-114.04 175.42c61.68-58.58 128.659-117.14 179.219-185.66 6.02-8.2 8.8-12.32 14-21-10.34 8.38-15.719 11.48-26.82 18.8-12.92 8.06-26.959 16.68-41.079 21.34 30.02-13.56 56.52-33.7 81.6-54.78-12.54 23.96-29.581 45.14-46.98 65.66-46.56 54.48-107.241 107.42-159.961 155.64h.021Z"/>
  <path fill="#878787" d="M130.885 333.78c3.8 4.72 18.36 24.26 17.84 45.94 1.28-1.42 2.58-2.84 3.84-4.28 1.78-20.98-12.02-40.62-16.64-46.52l-5.04 4.88v-.02Z"/>
  <path fill="#878787" d="m170.745 301.24-.5.48-.62-.64a3.387 3.387 0 0 0-4.8-.1l-27.46 26.54c4.46 5.68 17.9 24.6 17.34 45.46 6.82-7.92 13.14-16.12 18.22-24.18 0 0 2.52-4.76 9.32-2.32 6.8 2.44 21.74 3.18 26.54.22l2.34-2.04-40.38-43.42Zm-41.3 33.94-78.4 75.76c-3.88 3.66-4.08 9.78-.44 13.68l11.12 11.96a19.96 19.96 0 0 1 5.36 13.68v9.24c0 7.42 6.52 13.14 13.88 12.16l1.62-.22c5.68-.76 9.64-6 8.84-11.66 0 0-1.92-3.32-2.92-9.76-1-6.44-.12-11.76-.12-11.76s1.78-3.34 8.1-9.04c4.82-4.34 28.48-23.84 50.12-47.2 1.7-21.74-13.2-41.9-17.18-46.86l.02.02Zm-50.18 89.04a7.432 7.432 0 0 1-12.34-.44c-1.58-2.5-1.46-5.86.3-8.24a7.432 7.432 0 0 1 12.34.44c1.58 2.5 1.46 5.86-.3 8.24Z"/>
</svg>
