<svg xmlns="http://www.w3.org/2000/svg" width="512" height="512" fill="none" viewBox="0 0 512 512">
  <path fill="#fff" d="M400.357 215.141c-5.962 6.025-19.896 17.684-19.896 17.684s-8.097 6.167-13.024 6.339c0 0-7.422-10.717 11-26.628a51.013 51.013 0 0 0 8.598-5.79c21.717-18.061 24.683-50.417 6.622-72.133-18.061-21.717-50.416-24.683-72.133-6.622-8.897 7.39-14.577 17.198-17.025 27.679-18.579-14.436-45.364-14.608-64.178 1.052-16.193 13.479-21.952 34.913-16.335 53.947-17.699-8.992-39.809-7.234-56.018 6.245-19.504 16.225-23.819 43.951-11.423 65.166-12.082-.377-24.337 3.421-34.333 11.737-21.717 18.061-24.682 50.417-6.622 72.133 18.061 21.717 50.417 24.683 72.134 6.622 2.322-1.93 4.378-4.048 6.276-6.276h.032s18.97-21.435 31.822-8.27c0 0-3.358 11.016-27.303 27.57-12.569 8.693 1.177 9.964 16.946 7.422 14.248-2.291 30.112-8.034 30.112-8.034s36.985-12.679 83.164-50.903c38.837-32.136 41.724-39.73 55.187-58.23 12.757-17.512 19.52-34.616 22.894-47.828 3.263-12.757-.926-18.5-6.497-12.882Zm-20.383-69.152c11.8 14.185 9.87 35.258-4.315 47.074-14.185 11.8-35.258 9.87-47.074-4.315-11.8-14.185-9.87-35.259 4.315-47.074 14.185-11.8 35.259-9.87 47.074 4.315Zm-42.963-19.913c8.584-2.777 17.936-2.73 26.33-.062-8.63-1.679-17.621-.973-25.671 1.993-24.965 9.21-36.655 42.225-19.504 63.769-20.744-20.854-7.908-57.242 18.83-65.684l.015-.016Zm-38.24 48.644c11.8 14.185 9.87 35.258-4.315 47.074-14.185 11.8-35.258 9.87-47.074-4.315-11.8-14.185-9.87-35.259 4.315-47.074 14.185-11.8 35.259-9.87 47.074 4.315Zm-41.55-22.172c8.583-2.778 17.935-2.73 26.33-.063-8.63-1.679-17.622-.973-25.671 1.993-24.965 9.211-36.655 42.225-19.505 63.77-20.744-20.854-7.908-57.243 18.83-65.684l.016-.016Zm-71.49 61.541c8.583-2.777 17.935-2.73 26.33-.062-8.63-1.679-17.621-.973-25.671 1.992-24.965 9.211-36.655 42.226-19.504 63.77-20.744-20.854-7.909-57.242 18.829-65.684l.016-.016Zm-46.337 76.417c8.583-2.777 17.935-2.73 26.33-.062-8.63-1.679-17.621-.973-25.671 1.992-24.965 9.211-36.655 42.226-19.504 63.77-20.744-20.854-7.909-57.242 18.83-65.684l.015-.016Zm36.953 68.383c-14.185 11.8-35.258 9.87-47.074-4.315-11.8-14.185-9.87-35.258 4.315-47.074 14.185-11.8 35.259-9.87 47.075 4.315 11.799 14.185 9.869 35.259-4.316 47.074Zm-1.302-81.234c-11.8-14.185-9.87-35.258 4.315-47.074 14.185-11.8 35.259-9.87 47.074 4.315 11.8 14.185 9.87 35.259-4.315 47.074-14.185 11.8-35.258 9.87-47.074-4.315Zm79.744 92.171c-4.692 2.244-11.722 1.303-13.919-3.405-4.189-8.96 4.221-16.491 7.94-11.345 7.877 10.89 44.862-11.69 44.862-11.69s-23.584 19.097-38.883 26.44Zm48.596-56.897c-47.937 33.972-72.683 32.121-86.789 8.395 0 0-5.696-8.222 9.666-20.697 2.51-1.443 4.942-3.06 7.249-4.974 16.194-13.479 21.952-34.913 16.335-53.947 17.7 8.991 39.809 7.234 56.018-6.245 1.93-1.601 3.64-3.342 5.272-5.162 6.999-5.853 21.545-15.519 28.825-2.04 9.807 18.123 11.361 50.698-36.561 84.67h-.015Zm69.575-41.425c-9.917 13.636-32.795 33.187-32.795 33.187s28.668-32.026 19.395-41.77c-4.378-4.598 4.472-11.439 12.522-5.68 4.221 3.028 3.907 10.089.878 14.263Z"/>
</svg>
