<svg xmlns="http://www.w3.org/2000/svg" width="512" height="512" fill="none" viewBox="0 0 512 512">
  <path fill="#878787" d="M151.2 314.04c-.34.36-.68.74-1.02 1.12 0 0-67.78 83.12-111.82 115.8-2.32 1.72-3 4.84-1.68 7.4 3.92 7.5 13.16 22 28.16 27.34 1.78.64 3.76.06 4.9-1.44 7.2-9.5 37.68-47.46 113.54-116.74-7.44-20.44-23.78-29.86-32.06-33.46l-.02-.02ZM73.58 437.28a5.905 5.905 0 0 1-4.14 1.66h-.12a5.98 5.98 0 0 1-4.2-1.84c-1.1-1.16-1.7-2.66-1.66-4.26.04-1.6.68-3.08 1.84-4.2 1.16-1.1 2.76-1.68 4.26-1.66 1.6.04 3.08.68 4.2 1.84 1.1 1.16 1.7 2.66 1.66 4.26a5.98 5.98 0 0 1-1.84 4.2ZM117 392.24a5.905 5.905 0 0 1-4.14 1.66h-.12a5.98 5.98 0 0 1-4.2-1.84c-1.1-1.16-1.7-2.66-1.66-4.26.04-1.6.68-3.08 1.84-4.2 2.38-2.28 6.18-2.22 8.46.16 2.28 2.38 2.2 6.18-.16 8.46l-.02.02Zm41.6-43.58a5.905 5.905 0 0 1-4.14 1.66h-.12a5.98 5.98 0 0 1-4.2-1.84c-1.1-1.16-1.7-2.66-1.66-4.26.04-1.6.68-3.08 1.84-4.2a5.905 5.905 0 0 1 4.14-1.66h.12c1.6.04 3.08.68 4.2 1.84 1.1 1.16 1.7 2.66 1.66 4.26a5.98 5.98 0 0 1-1.84 4.2Z"/>
  <path fill="#fff" d="m469.8 109.38.04-.04-21.64-19.3-.1.12-40.8-36.24c-6.14-5.44-15.48-5.08-21.16.82l-11.72 12.18c-2.4 2.5-.16 7.48 3.28 7.84l10.62-1.06c2.66.28 5.7 2.08 6.2 4.22.5 2.2-1.62 4.78-4.08 5.98L370.4 95.14s-38.74 27.96-84.36 71.62c-41.7 39.9-87.86 96.32-132.12 144.32 8.88 4.1 24.14 13.6 32.02 32.74 9.56-6.64 61.78-42.14 126.66-71.8C384.48 239.14 476 114.94 476 114.94l-6.2-5.56Zm-151.56 132.8c-24.08 13.14-46.5 26.74-70.66 39.74-12 6.52-24.44 12.52-35.38 20.74 10.86-8.32 23.26-14.46 35.2-21.08 23.96-13.2 43.72-26.88 67.56-40.18 11.76-6.94 27.8-19.42 38.46-27.96 35.9-29.24 63.74-61.96 90.42-98.6l2.1 1.78c-35.98 48.22-76.02 94.32-127.7 125.56Z"/>
</svg>
