<svg xmlns="http://www.w3.org/2000/svg" width="512" height="512" fill="none" viewBox="0 0 512 512">
  <path fill="#878787" d="M149.66 345.7c-1.44 3.32-2.16 6.04-1.9 7.96 2.2 15.82-14.38 18.46-14.38 18.46s-12.06 1.6-10.7 14.58c1.34 12.98-14.98 16.36-14.98 16.36s-6.9 2.16-10.02 5.86c-1.6 1.9-3.18 6.04-1.78 9.82 5.04 13.62-8.06 21.52-8.06 21.52s-11.1 6.36-13.6 20.88-9.38 12.38-9.38 12.38c-30.12-2.72-28.98-19.92-28.98-19.92 17.84-54.8 74.84-125.04 77.18-127.9l36.56 20h.04ZM49.34 446.02c-3 3.04-2.98 7.96.08 10.96 3.04 3 7.96 2.96 10.96-.08 3-3.04 2.96-7.96-.08-10.96-3.04-3-7.96-2.96-10.96.08Z"/>
  <path fill="#fff" d="M459.94 95.88c-18.32-18.04-47.8-17.8-65.84.52-18.04 18.319-17.8 47.799.52 65.839s47.8 17.8 65.84-.52c18.04-18.32 17.8-47.8-.52-65.84Zm-10.72 7.179c11.66 9.18 15.34 23 11.66 35.36l-3.2-1.8c2.8-11.5-.54-23.6-8.46-33.56Zm7.24 37.56 3.02 1.68c-.94 2.14-2.1 4.22-3.5 6.2l-2.68-1.5c1.3-2.08 2.34-4.22 3.16-6.38Zm-15.56 20.62c3.68-3.36 7.2-6.86 10.1-10.84l2.4 1.34a38.995 38.995 0 0 1-5.2 4.86c-2.32 1.76-4.72 3.34-7.3 4.64Z"/>
  <path fill="#fff" d="M475.899 101.54c1.36 3-4.72 4.78-4.72 4.78-.2-.3-.42-.58-.64-.88-11.22-21.96-39.78-32.02-62.74-21.96-25.36 10.12-37.02 42.36-25.16 66.6l.3 1.32c1.46 7.06-2.62 7.46-5.48 6.96-1.52-.26-4.52-3.62-5.48-4.82-7.44-9.22-19.72-8.44-19.72-8.44-19.86-3.68-142.18 120.52-142.18 120.52s-45.16 50.54-58.62 76.32l-35.76-19.56c147.74-188.08 211.9-227.8 211.9-227.8s45.54-37.08 80.58-44.24c35.02-7.16 66.36 48.18 67.72 51.2Z"/>
</svg>
