<svg xmlns="http://www.w3.org/2000/svg" width="512" height="512" fill="none" viewBox="0 0 512 512">
  <path fill="#878787" d="M49.4 439.68c-16.24 18.16-1.28 31.14-1.28 31.14s12.96 14.94 31.14-1.28l26.64-26.64-29.84-29.84-26.64 26.64-.02-.02Zm414.14-338.2S452.5 86.2 441.82 77.14c-9.06-10.7-24.36-21.74-24.36-21.74-28.34-17.62-46.04 5.62-46.04 5.62l-5.34 5.34-5.22-5.22-18.08 18.08 5.22 5.22-16.78 16.78L326 96l-18.08 18.08 5.22 5.22-16.78 16.78-5.22-5.22-18.08 18.08 5.22 5.22c-6.14 6.14-10.38 10.38-11.5 11.52-4.1 4.1-8.12 18.06-10.46 27.56a96.033 96.033 0 0 1-8.42 21.94c-8.76 16.48-19.9 33.28-32.06 49.62l-5.02 6.62c-3.44 4.46-6.94 8.9-10.48 13.28l-36.06 41.32c-16.14 17.22-7.58 7.94-13.94 14.82l27.12 27c6.64-6.48 23.1-20.2 26.92-23.62l10.98-9.72c23.68-20.54 50.08-41.04 76.2-56.54a159.087 159.087 0 0 1 39.46-16.68c8.78-2.38 18.88-5.7 22.26-9.1 1.08-1.08 5.04-5.02 10.78-10.78l2.58 2.58 18.08-18.08-2.58-2.58 16.78-16.78 2.58 2.58 18.08-18.08-2.58-2.58 18.12-18.12 2.58 2.58 18.08-18.08-2.58-2.58 4.74-4.74s23.24-17.66 5.6-46.04Zm-44.36 42.4c1.82.72 3.6 1.52 5.38 2.36-.76-5.4-1.32-10.82-1.3-16.3 2.24 6.78 3.52 13.8 4.7 20.84-5.66-2.42-26.52-13.96-8.78-6.9Zm-29.34 22.38c2.26 6.78 3.54 13.8 4.7 20.82-5.66-2.42-26.5-13.96-8.78-6.88 1.82.72 3.62 1.52 5.4 2.34-.76-5.4-1.34-10.8-1.32-16.28Zm.38-69.9c-4.46 1-8.98 1.4-13.52 1.6.44 1.38.84 2.76 1.16 4.18 3.12 13.46-3.58-2.28-4.78-6.72 5.74-.1 11.46-.06 17.14.94Zm-85.64 73.36c3.12 13.48-3.56-2.26-4.76-6.72 5.72-.08 11.46-.04 17.14.96-4.48 1-9 1.38-13.54 1.6.44 1.38.84 2.76 1.16 4.16Zm31.34-40.34c5.74-.1 11.46-.06 17.14.94-4.48 1-8.98 1.4-13.52 1.62.42 1.36.82 2.76 1.16 4.16 3.1 13.48-3.58-2.26-4.78-6.72Zm13.54 84.22c1.82.72 3.6 1.52 5.38 2.36-.76-5.4-1.32-10.82-1.32-16.3 2.26 6.78 3.54 13.8 4.72 20.84-5.68-2.42-26.52-13.98-8.78-6.9Z"/>
  <path fill="#fff" d="m356.5 61.6-23.42-11.08 10.28 24.22L356.5 61.6Zm-34.92 34.92-23.4-11.1 10.28 24.22 13.12-13.12Zm-34.76 34.78-23.42-11.1 10.28 24.22 13.14-13.12Zm168.24 28.84 11.1 23.4-24.24-10.28 13.14-13.12Zm-34.92 34.9 11.1 23.42-24.22-10.28 13.12-13.14Zm-34.78 34.78 11.1 23.42-24.22-10.3 13.12-13.12ZM118.22 400.08c-6.76-4.94-12.8-10.04-17.36-14.16l-2.88 2.76c5.98 5.32 14.24 12.16 23.24 18.06-1.06-2.22-2.06-4.46-3-6.66Zm4.68 10.12c-10.24-6.38-19.74-14.2-26.38-20.14-.68.66-1.36 1.28-2.02 1.9 6.14 7.64 18.16 21.58 31.54 31.7.9-1 1.82-2 2.76-3.04-2.12-3.32-4.08-6.84-5.9-10.42Zm3.28 1.96c1.28 2.38 2.62 4.7 4.02 6.92.96-1.06 1.94-2.12 2.96-3.2-2.34-1.14-4.66-2.38-6.98-3.72Zm-23.88-27.62c3.9 3.5 8.86 7.74 14.44 11.96-3.02-7.5-5.32-14.44-6.84-19.42-2.6 2.58-5.14 5.08-7.6 7.46Zm19.08 17.8c.96 2.14 1.98 4.3 3.06 6.44 3.32 2.06 6.74 3.94 10.14 5.56.8-.86 1.6-1.7 2.42-2.56-5.34-2.68-10.62-5.98-15.6-9.44h-.02Zm-35.28-2.72c-1.7 1.48-3.02 2.56-3.92 3.2 7.5 8.42 20.82 22.14 34.86 30.98.2-.24.42-.48.62-.72-13-10.02-24.8-24.42-31.58-33.48l.02.02Zm84.64-19.28c.74-.54 1.46-1.04 2.16-1.5 5.42-3.6 4.04-5.62 3.4-6.72l-30.38-30.56s-2.26-1.12-3.84.86c-1 1.26-2.1 2.6-3.28 3.98 6.42 8.58 18.52 23.58 31.92 33.94h.02Zm-29-16.88c5.08 7.84 11.74 17.04 19.2 24.82.98-.86 1.96-1.7 2.92-2.52-8.3-6.74-16.02-15.04-22.1-22.32l-.02.02Zm-53.72 34.46c-.14.12-.28.26-.42.38 6.72 8.96 18.48 23.38 31.4 33.3 1.18-1.34 2.46-2.78 3.84-4.34-14.06-8.62-27.32-21.48-34.82-29.34Zm5.02-4.58c-1.26 1.16-2.44 2.26-3.54 3.26 7.46 7.84 20.72 20.66 34.68 29.16.16-.2.34-.38.52-.58-13.42-10.2-25.44-24.12-31.66-31.84Zm44.44-45.4c-.92 1.06-1.88 2.16-2.86 3.26 6.08 8.18 17.72 22.74 30.78 33.26 1.26-1.02 2.48-2 3.68-2.9-13.22-10.36-25.12-25-31.6-33.62ZM133 353c-.24.28-.5.56-.76.84 4.36 10.6 12.2 27.56 22.3 40.28 1.64-1.56 3.28-3.06 4.88-4.5-11.8-12.34-21.58-28.16-26.42-36.6V353Zm-52.56 50.88c-3.66 2.22-3.44 4.28-3.44 4.28s-.52.34 2.94 3.4c3.44 3.06 29.24 29.2 29.24 29.2s1.14.76 2.16-.34c.2-.22 1.8-2.08 4.38-5.06-14.3-9.08-27.78-23.04-35.28-31.46v-.02Zm50.32-48.42c-1.48 1.62-3.02 3.28-4.6 4.94 2.54 6.38 6.72 16.1 12.18 25.88 4.02 3.98 8.34 7.82 12.76 11.12l1.98-1.92c-10-12.58-17.84-29.24-22.32-40.04v.02Zm-16.9 17.64c-.8.8-1.58 1.58-2.36 2.38 1.68 5.62 4.5 14.2 8.34 23.32 5.84 4.24 12.18 8.32 18.58 11.48.46-.48.92-.96 1.36-1.44-11.4-11.92-20.94-27.12-25.92-35.74Zm29.5 32.06c-11.42-12.04-20.94-27.28-25.82-35.78-.74.74-1.46 1.5-2.2 2.24 4.84 8.42 14.4 23.78 25.86 35.78.72-.74 1.44-1.5 2.18-2.24h-.02Zm-6.62-17.66c-6.92-6.88-13-14.16-17.48-19.9-.1.1-.18.2-.28.28 4.74 8.28 14.28 23.72 25.78 35.84.48-.48.96-.98 1.44-1.46-3.46-4.64-6.62-9.7-9.46-14.76Zm5.22 4.96c1.78 2.88 3.68 5.7 5.66 8.38.68-.68 1.36-1.34 2.04-2.02-2.62-1.96-5.18-4.12-7.68-6.36h-.02Zm-21.3-26.3c3.38 4.34 7.72 9.62 12.64 14.92-3.7-7.24-6.64-14.04-8.66-19.08-1.3 1.38-2.64 2.76-3.98 4.16Z"/>
</svg>
