<svg xmlns="http://www.w3.org/2000/svg" width="512" height="512" fill="none" viewBox="0 0 512 512">
  <path fill="#878787" d="m187.3 356.419-23.54-22.56-85.24 83.46 29.04 27.84 79.74-88.74Zm-10.72-34.979 22.58 21.64L364.14 156.7l-8.38-8.04-179.18 172.78Zm-11.04 10.68-.1.1 23.44 22.46.1-.1c16.58 3.94 8.56-9.64 8.56-9.64l.08-.1-22.72-21.78-.1.1s-13.92-7.42-9.28 8.98l.02-.02ZM64.6 428.979c-7.36 1.92-27.1 9.1-12.2 28.14l-.08.14 16.42 15.74.14-.08c19.68 14.081 26-5.94 27.62-13.38l-31.9-30.56Zm-13.46 30.38-5.02 8.84 11.98 11.46 8.6-5.38-15.56-14.92Zm16-31.179 30.06 28.8c14.24 2.28 9.28-9.14 8.86-10.06L76.8 418.88c-.94-.38-12.54-4.84-9.66 9.28v.02Z"/>
  <path fill="#fff" d="M361.66 148.36a48.318 48.318 0 0 1-7.74-9.62c-13.88-22.6-6.78-52.26 15.8-66.14 22.58-13.88 52.26-6.78 66.14 15.8 6.72 10.94 8.78 23.86 5.8 36.34-2.98 12.48-10.66 23.06-21.6 29.8-10.94 6.72-23.86 8.78-36.34 5.8-8.42-2.02-15.96-6.14-22.04-11.98h-.02Zm64.08-66.98c-14.28-13.68-36.56-16.62-54.18-5.8-20.94 12.86-27.52 40.38-14.66 61.32 6.24 10.14 16.04 17.26 27.62 20.04 11.58 2.76 23.56.86 33.7-5.38 10.14-6.24 17.26-16.04 20.04-27.62 2.76-11.58.86-23.56-5.38-33.7a44.299 44.299 0 0 0-7.14-8.86Z"/>
  <path fill="#fff" d="m374.96 151.52 3.18 31.7 18.66-26.12-21.84-5.58Zm14.4-79.12-23.4-31.72 4.24 40.3 19.16-8.58Zm36.42 13.4 14.18-37-31.92 25.32 17.74 11.68Zm15.58 38.8 29.38-14.56-36.32-9.48 6.94 24.04Zm-87.3-35.82-33.08 4.5 32.24 17.5.84-22Zm1.42 31.14-23.7 26 39.52-8.8-15.82-17.2Zm86.92 57.16-32.58-21.82 18.86-16.74 13.72 38.56Z"/>
  <path fill="#fff" d="M434.38 89.32c-13.4-21.8-41.92-28.62-63.72-15.24-21.8 13.4-28.62 41.92-15.24 63.72 13.4 21.8 41.92 28.62 63.72 15.24 21.8-13.38 28.62-41.92 15.24-63.72Zm-72.46-3.18c6.74 1.46 13.46 3.02 19.94 5.42-5.22-.32-10.36-1.16-15.48-2.14.94 1.72 1.86 3.44 2.72 5.2 1.22 2.5 2.36 5.04 3.28 7.72-4.1-4.98-7.34-10.56-10.46-16.2Zm48.3 11.2c4.38-1.24 8.9-1.5 13.42-1.6-1.4 4.58-2.9 9.14-5.2 13.38.32-3.76 1.12-7.4 2.1-11-3.46.06-6.9-.06-10.32-.78Zm-21.12 34.98c1.18 2.52 2.12 5.1 2.98 7.72.6 1.82 1.12 3.66 1.64 5.52 3.02-4.3 6.16-8.48 9.72-12.38-3.02 6.26-6.8 12.08-10.66 17.82-1.66-6.14-3.18-12.32-3.68-18.68Z"/>
</svg>
