<svg xmlns="http://www.w3.org/2000/svg" width="512" height="512" fill="none" viewBox="0 0 512 512">
  <path fill="#878787" d="M463.62 54.16C458.6 55.2 447 72.08 444.3 76.08c-1.02-.16-1.92 0-2.44.52-3.86-.62-8.78-1.06-10.72.32-.82.58-1.06 1.3-1.12 1.82-.42 3.38 0 5.8 0 5.9l2.96-.5s-.34-2.02 0-4.82c.9-.5 4.24-.38 8.16.24L88.64 430.52s-1.82 2.44-6.18 6.34c.76-1.64 1.3-3.94.96-7.04l-1.98.22c.7 6.2-2.62 8.46-2.76 8.56l.06.1c-1.46.82-2.36 2.06-2.36 3.16-2.32 1.76-4.98 3.66-8.1 5.66-12.3 7.94-8.86 16.4-8.86 16.4 1 3.14 4.72-.82 4.72-.82s-.72.4-1.14-1.22c-1.56-5.82 9.34-12.24 9.34-12.24l.46 1.52 3.64.06.28-2.24 2.8-5.18.02-.02c.62-.06 1.28-.22 1.94-.5 1.84-.8 3.02-2.28 2.96-3.54 13.16-12.42 350.02-347.1 350.02-347.1l11.18-10.78c1.44.36 2.74.12 3.24-.74.36-.6.24-1.4-.2-2.18l1.44-1.4 2.68-6.04c7.42-11.58 10.66-10.7 10.66-10.7l1.5 1.36s4.34-9.22-1.34-8.04v.04ZM328.24 313.74c1.3-1.3 2.64-2.62 4-3.96.9-3.96 1.18-7.78 1.02-11.36-1.9-1.08-3.82-1.98-5.72-2.72 1.26 5.32 1.76 11.44.7 18.04Zm-8.1-35.2c2.04 3.12 4.9 8.26 6.78 14.8 2.04.72 4.12 1.62 6.18 2.7-.98-10.06-5.2-18.1-7.96-22.38-1.6 1.56-3.28 3.18-5 4.88Z"/>
  <path fill="#878787" d="M335.22 297.24c1.88 1.12 3.72 2.44 5.54 3.94 12.4-12.7 26-27.8 38.94-44.54 0 0-38.44 22.84-38.36 1.62 0 0-6.1 5.66-14.72 13.98 3 4.58 7.84 13.62 8.6 25Zm.08 2.42c.04 2.44-.14 4.98-.56 7.6.74-.74 1.46-1.48 2.22-2.22.78-.78 1.58-1.62 2.38-2.42-1.32-1.1-2.68-2.08-4.04-2.96Zm-9.58 16.56c1.84-7.92 1.18-15.22-.44-21.34-7.42-2.44-14.44-2.64-19.32-2.32-7.14 7.04-14.42 14.12-21.88 22.12 0 0 34.1-18.34-3.04 43.18 0 0 17.44-14.88 44.66-41.64h.02Zm-1.1-23.64a53.774 53.774 0 0 0-5.94-12.64c-2.16 2.12-4.36 4.32-6.64 6.58-1.32 1.32-2.64 2.62-3.96 3.94 4.56-.12 10.38.28 16.52 2.12h.02ZM460.34 93.14s-.64-.8.06-1.46c1.58-1.52 4.86-3.84 9.16-1.32.3.18.84.52.86 1 0 0 2.08-1.94.4-3.8-1.68-1.86-7.14-1.94-11.86 1.86-3.42 2.74 1.4 3.72 1.4 3.72h-.02Z"/>
  <path fill="#878787" d="M460.06 88.26s-.64-.8.06-1.46c1.58-1.52 4.86-3.84 9.16-1.32.3.18.84.52.86 1 0 0 2.08-1.94.4-3.8-1.68-1.86-7.14-1.94-11.86 1.86-3.42 2.74 1.4 3.72 1.4 3.72h-.02ZM91.348 453.48s-.88-.5-1.42.28c-1.24 1.8-3 5.42.18 9.26.22.26.66.74 1.12.68 0 0-1.58 2.38-3.68 1s-3.08-6.72-.1-12c2.14-3.8 3.9.78 3.9.78Z"/>
  <path fill="#878787" d="M95.94 453.24s-.88-.5-1.42.28c-1.24 1.8-3 5.42.18 9.26.22.26.66.74 1.12.68 0 0-1.58 2.38-3.68 1s-3.08-6.72-.1-12c2.14-3.8 3.9.78 3.9.78Zm9.5.76s-.88-.5-1.42.28c-1.24 1.8-3 5.42.18 9.26.22.26.66.74 1.12.68 0 0-1.58 2.38-3.68 1s-3.08-6.72-.1-12c2.14-3.8 3.9.78 3.9.78Z"/>
  <path fill="#fff" d="M453.4 44.54c1.64-.42 3.1-.46 4.26-.38-1.5-4.28-3.98-9.48-6.76-7.08-1.24 1.08-1.22 4.48-.54 8.82.66-.46 1.62-1 3.02-1.36h.02ZM100.04 453.78l-3.34-.14c-.86.86-2.7 3.14-2.02 6.22.36 1.66 1.48 2.62 2.42 3.26l.18.12c.42.02.82.04 1.2.08.34.02.72.06 1.14.08-.54-.7-1-1.54-1.24-2.62-.68-3.08.54-5.52 1.66-7ZM455.38 58.54c2.18-2.38 4.1-3.9 5-4.54-.22-.88-.42-1.64-.58-2.28-.7-.56-2.24-1.54-4.26-1.44-1.16.06-1.9.56-2.4.98-.38.32-.92 1.12-1.3 1.76.6 2.48 1.28 5 1.98 7.42.4-.54.92-1.16 1.58-1.9h-.02Zm-1.48-12.06c-1.44.36-2.28.96-2.78 1.36-.12.08-.22.22-.34.36.14.7.28 1.44.44 2.16.2-.26.42-.48.64-.66.68-.56 1.8-1.34 3.56-1.44 1.44-.08 2.68.24 3.68.7-.06-.26-.32-1.32-.74-2.7-1.06-.16-2.62-.24-4.44.22h-.02ZM57.2 459.42c.16-1.02 1.18-3.56 2.22-5.18.42-.66.94-1.3 1.44-1.9-8.86.06-19.24.78-21.94 3.66-4.92 5.26 7.72 6.02 7.72 6.02s4.42.04 10.72.14c-.14-.78-.3-1.9-.16-2.74Zm417.3-408.9c-.76-2.06-4.56-.7-4.56-.7s-.02 10.6-1.14 12.54c-1.14 1.94-5.98 1-6 .7v-.08c-.9.6-1.96 1.38-3.06 2.42-1.3 1.24-1.96 2.2-2.34 2.84-.28.46-.52 1.12-.66 1.62.92 2.84 1.58 4.68 1.58 4.68l.82 7.38c.22-.14.44-.3.64-.42.86-.54 2.26-1.28 4.52-1.56 2.16-.28 3.92-.06 5.24.24-.06-.72-.12-1.38-.18-1.98-.2-1.68 3.26-3.96 3.9-8 .4-2.48 2.54-16.48 1.32-19.7l-.08.02ZM85.885 453.185l-11.405-.465s-1.22-.08-3.18-.16c-.68.46-2.54 1.78-3.82 3.22-1.2 1.36-2.38 3.44-2.58 4.06-.18.56-.18 1.66-.14 2.44h.28c.32 0 .44 3.16-1.86 4.58-2.3 1.42-9.26 2.3-9.26 2.3s-1.34 2.66.78 3.32c3.38 1.04 11.16.2 13.94-.46 4.56-1.08 9.86-9.08 11.7-9.04 3 .08 2.246-.02 4.626 0-.64-.74-.747-1.463-.747-3.532 0-2.068.483-4.619 1.666-6.263Z"/>
  <path fill="#878787" d="M451.3 51.46s-.5-.64.04-1.18c1.28-1.22 3.92-3.08 7.38-1.06.24.14.68.42.7.8 0 0 1.68-1.56.32-3.06-1.36-1.5-5.74-1.56-9.54 1.48-2.74 2.2 1.12 3 1.12 3l-.02.02Z"/>
  <path fill="#fff" d="M294.02 316.74c-3.2-2.64-9.92 1.64-14.4 5.28-8.48 9.64-15.64 18.74-18.24 24.56-7.98 17.88-23.62 41.36-23.62 41.36-47.54 66.84-130.4 66.18-130.4 66.18l-.72-.04c-.82.8-2.8 3.12-2.1 6.3.34 1.52 1.28 2.42 2.14 3.06 6.34-.14 15.32-.58 25.82-1.24 11.18-.7 24.08-2.84 37.5-6.44 12.32-3.3 39.48-15.26 51.08-24.48 19.64-15.6 35.98-34.6 55.64-69.08.12-.22.26-.42.38-.64l-.06-.04c11.02-19.3 20.48-41.9 17-44.76l-.02-.02Zm-104.76 125.7c-.94 0-1.7-.76-1.7-1.7s.76-1.7 1.7-1.7 1.7.76 1.7 1.7-.76 1.7-1.7 1.7Zm20.2-10.44c-1.3 0-2.36-1.06-2.36-2.36 0-1.3 1.06-2.36 2.36-2.36 1.3 0 2.36 1.06 2.36 2.36 0 1.3-1.06 2.36-2.36 2.36Zm18.6-15.4c-1.64 0-2.98-1.34-2.98-2.98s1.34-2.98 2.98-2.98 2.98 1.34 2.98 2.98-1.34 2.98-2.98 2.98ZM470.24 92.58c-.96-.68-3.26-1.96-6.24-1.12-1.68.48-2.58 1.54-3.16 2.4-.1.16-.22.34-.34.52l1.1 9.84s7.52 62.26-49.1 102.56c0 0-22.18 15.78-36.68 24.84-6.7 4.2-19.38 15.12-30.9 25.48-.22 2.1.08 5.2 3.46 6.26 4.96 1.56 22.7-6.04 33-11.34 3.1-2.52 6.2-4.96 9.26-7.26 26.82-20.22 41.62-28.82 54.44-44.88 7.56-9.48 18.88-30.78 21.76-41.54 3.12-11.7 4.64-26.66 4.42-36.86-.2-9.1-.56-19.96-.98-28.92l-.04.02ZM430.5 206.12a2.995 2.995 0 0 1-3.24-2.7 2.995 2.995 0 0 1 2.7-3.24 2.995 2.995 0 0 1 3.24 2.7 2.995 2.995 0 0 1-2.7 3.24Zm16.38-19.66c-1.3.12-2.44-.84-2.56-2.14-.12-1.3.84-2.44 2.14-2.56 1.3-.12 2.44.84 2.56 2.14.12 1.3-.84 2.44-2.14 2.56Zm8.98-19.34c-.94.08-1.76-.6-1.84-1.54-.08-.94.6-1.76 1.54-1.84.94-.08 1.76.6 1.84 1.54.08.94-.6 1.76-1.54 1.84Z"/>
</svg>
