<svg xmlns="http://www.w3.org/2000/svg" width="512" height="512" fill="none" viewBox="0 0 512 512">
  <path fill="#fff" d="M454.5 51.52 172.26 320.96c4.78 4.62 16.84 16.94 29.32 34.9 34.1-32.4 187.4-178.2 221.76-213.96 38.74-40.28 31.16-90.4 31.16-90.4v.02Zm-25.12 48.52c-9.44 21.72-26.28 39.18-41.98 56.5-37.56 39.14-134.78 128.44-175.46 165.92 40.9-39.54 135.16-128.4 173.3-167.98 15.96-16.9 32.84-33.82 43.38-54.76 1.38-3.02 2.56-6.16 3.14-9.46l.3.04c-.42 3.36-1.44 6.6-2.68 9.74Z"/>
  <path fill="#878787" d="M120.68 378.06c-18.48 18.74-38.3 39.18-44.02 46.28 5.34 10.94 13.92 16.38 17.74 18.34 7.6-6.3 36.64-30.48 59.74-51.12-7.26-.34-19.7-2.8-33.46-13.52v.02Z"/>
  <path fill="#878787" d="M130.76 367.86c-2.8 2.82-5.7 5.76-8.64 8.74 14.7 11.28 27.88 12.94 34.26 12.96 2.06-1.84 4.06-3.66 5.98-5.42-8.2-1.46-19.54-5.56-31.6-16.28Z"/>
  <path fill="#878787" d="M132.18 366.42c12.44 10.96 24.18 14.72 32.16 15.9 4.8-4.44 9.04-8.48 12.4-11.88l-22.96-25.64c-3.98 3.98-12.06 12.04-21.58 21.64l-.02-.02Z"/>
  <path fill="#878787" d="m169.38 323.72-.06.06c-6.76-6.44-13.3-11.18-18.32-11.72-16.6-1.8-7.16 16.76-7.16 16.76s4.62 6.28 11.38 14.56L178.16 369c9.7 10.48 13.86 16.54 13.82 25.8-.04 11.08-8.16 41.42-43.14 53.86-26.1 9.28-44.96 2.46-54.86-3.36.96 3.04.82 5.54-.42 7.46-.86 1.3-2.12 2.16-3.46 2.72 29.06 19.3 57.66 10.52 57.66 10.52s16.92.4 46.84-31.22c25.8-27.24 15.88-55.62 10.92-65.68-14.68-23.86-30.7-40.18-36.1-45.38h-.04Z"/>
  <path fill="#878787" d="M86.62 454a5.4 5.4 0 0 0 1.04-.16c.1.08.22.14.32.22 1.5-.4 3-1.1 3.86-2.42 1.26-1.92.9-4.84-1.02-8.66-4.42-2.72-10.92-7.96-15.5-16.84 0 .02-.04.06-.06.08 0 0-5.64-5.92-10.18 1.46s4.78 18.58 6.02 19.88c1.24 1.3 7.74 6.94 15.5 6.42l.02.02Z"/>
</svg>
