<svg xmlns="http://www.w3.org/2000/svg" width="512" height="512" fill="none" viewBox="0 0 512 512">
  <path fill="#fff" d="M128.72 381.24c4.2 8.2 10.28 12.28 14.68 14.24 92.48-98.82 313.92-347.42 313.92-347.42s-235.08 235.12-328.6 333.18Z"/>
  <path fill="#878787" d="M63.82 455.74c-3.02 3.06-8.98 9.8-9.14 15.84-.04 1.7 1.42 3.08 3.12 2.92 6.16-.56 12.64-7.26 15.36-10.4-1.68-2.82-4.54-6.06-9.34-8.38v.02Zm33.56-59.2c12.72 11.82 30.78 29.08 43.8 40.42 1.5 1.3 3 2.62 4.56 3.86 8.64-21.84-3.32-39.16-5.2-41.66-4.76-2.3-10.72-6.58-15.14-14.42 0 0-19.22-13.78-42.34-3.04 4.26 5.38 9.44 10 14.32 14.82v.02Z"/>
  <path fill="#878787" d="M151.68 447.3c-3.7-2.72-5.4-5-5.92-5.74-.12-.08-.26-.16-.38-.26-17.92-12.66-33.82-27.96-49.18-43.56-4.68-5.08-9.74-10.02-13.46-15.86 0 0-2.78-1.4-6.34-5.72-2.04-2.48-1.3-6.8-4.66-7.44-6.68-1.24-8.5 4.76-8.34 6.72.1 1.42 17.82 18.04 27.86 27.34l.04-.06 5.1 4.82c1 .92 1.6 1.46 1.6 1.46v.04l19.68 18.56.48.48 2.82 2.66-.04.04c8.48 8.2 30.6 29.44 32.2 29.46 1.96.04 7.82-2.14 6.22-8.74-.8-3.3-5.08-2.3-7.66-4.2h-.02Zm-77.86-2.18c-.86-.22-9.7-2.2-8.28 8.94 4.6 2.38 7.5 5.58 9.3 8.46 10.26.52 8.52-7.22 8.12-8.64-1.56-2.88-4.34-6.28-9.16-8.76h.02Zm10.72 6.92c17.34-16.9 26.52-22.12 30.52-23.72l-17.7-16.7c-1.38 4.1-6.08 13.54-21.94 31.78 4.54 2.48 7.38 5.72 9.12 8.64Z"/>
</svg>
