<svg xmlns="http://www.w3.org/2000/svg" width="512" height="512" fill="none" viewBox="0 0 512 512">
  <path fill="#878787" d="M88.06 446.88c-.22 0-.44 0-.66-.02-3.56-.24-6.68-2.22-8.34-5.28-1.54-2.82-1.62-6.22-.34-9.76-3.32-1.7-10.82-4.58-17.94-.78-7.94 4.24-12.04 12.8-12.04 12.8s8.86-6.02 22.2 1.98c0 0 6.62 9.28 1.96 26.78 6.96-4 19.14-13.1 16.96-25.9-.58.1-1.2.18-1.82.18h.02Zm78.82-60.64s.02.04.04.06c5.54-2.56 7.62-5.78 8.36-7.76-.12-.12-.24-.24-.36-.4-1.36-1.78-1.38-4.04-1.38-4.24-3-10.16-10.2-15.92-13.54-18.12l-.08.1s-4.64-.28-6.5-2.94c-1.04 2.38-3.48 5.7-9.12 8.3.46 1.16.08 2.86.6 4.5.56 1.74 3.06 5.8 3.78 7.02 0 0-7.76 3.76-16.68 11.14-11.68 9.68-26 24.32-34 32.26-3.98 3.94-6.44 11.28-6.44 11.28l-.54.48c2.04 2.6 3.86 4.48 5.34 5.82l.76-.64s4.46 1.72 12.44-4.72c7.38-5.94 25.56-20.7 37.02-32.52 7.3-7.54 10.66-14.82 10.66-14.82l6.54 3.36s1.92.32 3.08 1.86l.02-.02Zm-61.54 43.02c-1.56-4.3-2.22-8.06-7.06-10.2 6-2.32 10.04 5.4 7.06 10.2Zm7.62-6.54c-1.56-4.58-2.34-8.66-7.46-10.82 6.26-2.3 10.46 5.78 7.46 10.82Zm6.42-5.8c-1.94-4.48-2.82-8.74-7.62-11.34 6.12-1.7 10.14 6.38 7.62 11.34Zm7.34-6.44c-1.94-4.48-2.82-8.74-7.62-11.34 6.12-1.7 10.14 6.38 7.62 11.34Zm7.16-6.92c-1.94-4.48-2.82-8.74-7.62-11.34 6.12-1.7 10.14 6.38 7.62 11.34Zm6.92-6.08c-1.94-4.48-2.82-8.74-7.62-11.34 6.12-1.7 10.14 6.38 7.62 11.34Zm6.86-8.28c-.58 1.98-.66 2.04-1.38.1-1.42-3.48-2.38-6.12-5.98-8.32 2.38-1 5.3.54 6.56 2.8.98 1.68 1.12 3.58.8 5.42Zm23.8 2.34c5.86-2.7 7.84-6.08 8.5-8.04-.4-1.06-.18-2.3-.82-2.94-.8-.78-1.44-.96-2.06-1.12-.98 2.44-3.42 6.02-9.56 8.8.16.76.34 1.54.86 2.06.72.74 2.34.2 2.96 1.02.04.06.08.16.12.22Z"/>
  <path fill="#878787" d="M80.48 432.82c-.96 2.86-.86 5.58.34 7.8 1.34 2.46 3.84 4.04 6.72 4.24.66.04 1.3-.02 1.92-.14 0-.04 0-.08-.02-.12 0 0 2.82.04 5.1-3.2 2.12-3 .16-6.26.16-6.26l.14-.12c-1.52-1.4-3.32-3.26-5.3-5.82l-.36.32s-3.02-1.26-5.62.58c-2.6 1.86-3.06 2.68-3.06 2.68l-.02.04Zm58.16-76.3c.24.86.44 1.78.82 2.34.66.96 1.86.82 2.98 1.04 9.48-3.96 9.76-9.8 9.76-10.06h.3c-.12-.86-.24-1.66-.66-2.06-.66-.62-1.62-.72-2.58-1.28-.74 2.46-3.1 6.84-10.64 10l.02.02Zm-10.1-17.64c.54 1.86-.12 4.9.4 7.3.22 1 .88 2.64 2.92 4.86 1.34 1.46 4.04 1.78 5.88 3.68 8.56-3.54 9.7-8.58 9.84-9.82-1.72-2.34-2.16-5.12-4.82-7.46-2.36-2.08-8.48-2.1-10.28-3.6-.96-.8-1.22-1.58-2.06-2.22-1.06-.82-3.44-1.32-3.44-1.32l-2.26 1.78s-.08 2.54 1.16 4.14c.78 1.02 2.12.88 2.64 2.64l.02.02Zm64.54 62.28c-1-2-.2-4.24-1.14-6.6-1.12-2.86-4.04-5.76-5.98-6.84-1.46-.8-3.24-1.58-4.54-2.56-1.08 2.38-3.54 5.58-9.04 8.14.52 1.28.9 2.64 1.34 3.56 1.46 3.08 4.34 6.64 8.02 7.96 2.88 1.04 3.96.22 6.18 1.4 2.76 1.46.66 4.48 4.4 5.56 3 .88 6.56-2.32 5.8-5.1-.76-2.78-3.04-1.54-5.02-5.54l-.02.02Z"/>
  <path fill="#fff" d="M378.12 98.54s-31.72 5.52-34.98 26.64c0 0 7.08-5.48 9.28-4.72 2.16.74 3.7 1.4 2.64 4.14-2.82 7.3-11.88 9.12-11.88 9.12s-14.36 2.5-21.62 24.12c0 0 11.82-8.6 14.18-5.72 3.62 4.4-1.34 9.28-6.14 12.88-4.8 3.6-21 4.38-28.34 23.76 0 0 11.4-9.18 13.42-2.48 2.02 6.7-12.74 10.56-12.74 10.56s-16.24 4.64-18.64 17.38c0 0 7.86-4.08 7.04.96-.82 5.04-7.46 3.96-12.2 6.58-4.74 2.6-8.96 5.5-10.4 12.64 0 0 7.22-4.8 7.3.2.08 5.02-14.64 7.06-14.64 7.06l-48.68 58.9-48.96 52.28c3.8 2.6 10.58 8.38 14.02 18.2l50.98-44.36s188.12-166.22 235.48-274.1c0 0-32.34 32.32-85.12 45.98v-.02Zm-18.94 31.08c3.08-2.34 7.76-5.96 5.96-10.14-2.54-3.58-7.98-3.48-12.26-4.28 4.72-1.28 11.52-1.94 14.7 2.98 1.88 3.86-.24 7.8-3.24 10.12-3.92 3.08-8.5 5.48-13.38 6.38 2.98-1.38 5.66-3.16 8.22-5.06Zm-13.88 24.02c1.62-2.26 2.14-5.32.58-7.32-3.3-2.84-8.52-1.48-12.86-1.28 4.26-2.46 10.76-4.76 15.06-.68 2.72 3.1 1.7 7.8-.72 10.7-3.08 3.92-6.98 7.34-11.54 9.36 3.72-3.12 6.9-6.74 9.48-10.76v-.02Zm-25.68 38.58c2.64-2.8 6.74-6.52 4.8-10.54-2.76-3.18-8.08-2.2-12.26-2.46 4.36-2.04 11.16-3.84 14.78.9 2.16 3.4.16 8-2.34 10.32-3.46 3.46-7.6 6.4-12.24 7.92 2.68-1.78 5.04-3.9 7.26-6.1v-.04Zm-14.92 14.74c1.92 3.26.12 6.94-2.04 9.02-3 2.94-6.56 5.42-10.58 6.62 3.3-2.38 6.2-5.16 8.7-8.26.76-1 1.56-2.08 1.64-2.96 1.22-5.84-6.56-4.62-10.5-5.08 3.72-1.92 9.62-3.52 12.78.64v.02Zm-25.78 31.14c1.78-2.14 4.28-4.22 4.64-7.02.06-.8.12-1.42-.48-1.88-2.4-1.22-5.34-.56-8.4-.66 8.62-6.18 16.82.02 8.44 8.42-2.8 2.66-6 4.98-9.64 6.3 1.98-1.6 3.72-3.38 5.44-5.16Zm-30.86 56.44c-9.8 8.78-19.42 17.8-28.34 27.48-4.38 4.88-8.82 9.84-11.88 15.64l-.32-.16c3-5.94 7.36-11 11.68-15.98 13.1-14.86 28.02-27.94 42.34-41.56C318.52 225.32 365.8 160.14 415.1 99.62c-48.2 70.76-103.18 137.66-167.02 194.9l-.02.02Z"/>
</svg>
