<svg xmlns="http://www.w3.org/2000/svg" width="512" height="512" fill="none" viewBox="0 0 512 512">
  <path fill="#fff" d="M196.48 333.823c.82-3.6-25.66 20.32-24.02 17-2.84 1.68 21.479-23.904 18.319-22.964-11.8 3.6-24.439.744-35.139-5.136-.02.04-8.06 13.46-1.64 24.52 0 0 0 .02-.04.08 6.9 8.86 18.9 21.08 31.94 27.54 9.52 2.8 16.58-3.38 17.82-4.58-7-10.64-10.22-23.88-7.24-36.44v-.02Z"/>
  <path fill="#fff" d="m406.14 184.96-163.6 169.4c-33.42 2.98-29.52-28.52-29.52-28.52s180.36-188.46 209.36-216.88c29-28.42 31.28-47.38 31.28-47.38s-19.66-.3-47.04 29.68C379.28 121.18 194.7 309.7 194.7 309.7s-28.86 3.32-27.06-30.18l163.64-169.44s10.84-12.54 7.7-22.32c-9.48-3.98-23.12 7.88-23.12 7.88l-172.38 178.5s-7.94 13.52-1.48 28.66c3.66 8.58 11.42 16.02 13.98 18.34 14.98 7.28 33.86 8.2 47.5-2.32l4.24-3.08c-9.8 13.26-12.38 30.8-5.9 46.14 1.12 2.86 2.52 5.6 4.1 8.26 2.72 2.84 12.02 12.06 20.92 14.4 9.8 2.56 21.9-6.14 21.9-6.14l172.44-178.54s10.42-13.98 7.52-22.16c-8.42-3.72-22.52 7.3-22.52 7.3l-.04-.04Zm-25.12-51.28c19.82-20.62 39.98-42.56 61.3-60.88-36.86 41.88-81.36 83.84-120.68 123.66l-.22-.2c14.82-15.66 44.68-47.02 59.58-62.56l.02-.02Z"/>
  <path fill="#878787" d="M133.34 395.923c-3.6-4.08-8.14-6.96-12.7-9.02-2.3 1.8-4.66 3.6-6.92 5.3 5.02 2.16 10.1 5.32 14.14 9.88 2.1 2.38 3.76 5.02 5.02 7.88 1.58-2.36 3.26-4.82 4.92-7.2-1.14-2.48-2.6-4.78-4.44-6.88l-.02.04Z"/>
  <path fill="#878787" d="M126.36 403.423c-4.08-4.62-9.38-7.72-14.54-9.8-3.48 2.6-6.52 4.8-8.4 6.16 6.3 2.42 13.22 6.32 18.22 12.6 1.92 2.4 3.38 5.04 4.5 7.84 1.2-1.88 3.14-4.86 5.4-8.26-1.22-3.14-2.92-6-5.18-8.56v.02Z"/>
  <path fill="#878787" d="M120.08 413.643c-5.06-6.36-12.38-10.18-18.78-12.46-1.92-.16-21.52-1.36-28.1 14.7-6.88 16.84-3.16 41.86-3.16 41.86s22.48 2.84 39.16-4.62c15.74-7.06 15.66-28.46 15.62-30.66-1.06-3.22-2.62-6.18-4.74-8.84v.02Zm-41.98 35.24-.78-.08-.08-.8c-1.22-12.12.76-25.1 7.68-35.3-5.28 10.54-6.8 22.6-5.76 34.26 11.96.94 24.58-1.18 34.78-7.78-9.84 8.18-23.3 10.8-35.84 9.72v-.02Zm73.54-98.06c-4.36 6.58-13.74 20.4-19.08 25.94-2.18 2.26-5.96 5.44-10.12 8.74 4.44 2.12 8.84 5.06 12.4 9.1 1.72 1.94 3.12 4.06 4.26 6.32 2.96-4.16 5.74-7.82 7.64-9.8 4.76-4.92 19.38-15.16 26.08-19.74-8.4-6.22-15.9-13.94-21.18-20.56Z"/>
</svg>
