<svg xmlns="http://www.w3.org/2000/svg" width="512" height="512" fill="none" viewBox="0 0 512 512">
  <path fill="#878787" d="m102.04 367.98-55.86 65.1a9.158 9.158 0 0 0 .98 12.92l16.78 14.4 1.14 16.68c.52 5.06 6.12 11.16 11.12 10.18 7.22-1.42 12.64-8.5 11.62-15.36-1.02-6.86-4.78-8.32-5.2-13.36-.42-5.04 3.16-11.36 3.16-11.36s8.06-8.02 19.46-20.14c7.96-8.46 25.14-28.22 29.42-40.06.98-2.74 2.16-5.18 3.42-7.34-6.82-.98-22.96-3.96-36.06-11.68l.02.02ZM78.76 477.3a3.723 3.723 0 0 1-5.28.4 3.723 3.723 0 0 1-.4-5.28 3.723 3.723 0 0 1 5.28-.4 3.723 3.723 0 0 1 .4 5.28Z"/>
  <path fill="#878787" d="m111.92 356.46-8.56 9.98c13.36 7.76 29.88 10.56 35.88 11.36 3.06-4.7 6.38-7.88 8.58-9.68-6.9-1-22.9-4-35.9-11.66Zm22.14-25.78-20.8 24.24c14.2 8.26 37.08 11.36 37.08 11.36 13.94.94 20-.6 22.5-1.76.88-.4 1.02-1.58.3-2.2l-36.56-31.84c-.74-.64-1.88-.56-2.52.18v.02Z"/>
  <path fill="#fff" d="M481.64 95.02s-51.22 99.5-169.72 167.1L198.3 339.74c-.96-11.54 5.16-22.58 11.74-31.66 22.06-29.24 56-45.06 86.88-63.04 60.56-38.56 110.46-91.84 153.78-148.86l-2.44-2.08c-14 18.86-28.94 37.04-44.5 54.6-37.28 41.6-78.84 79.2-128.46 105.66-24.34 13.64-48.58 30.92-65.54 53.52-6.52 9.16-12.56 20.32-11.48 31.88l-24.92 17.02-33.86-29.04L399.6 24.62l61.02 52.36V77l2.68 2.28.82.7 8.5 7.3 9.04 7.74h-.02Z"/>
</svg>
