<svg xmlns="http://www.w3.org/2000/svg" width="512" height="512" fill="none" viewBox="0 0 512 512">
  <path fill="#fff" d="M68.18 457.54c.04 1.14.82 2.26 2.66 3.3-1.26-.86-2.3-1.96-2.66-3.3ZM458.5 54.64c-1.76-.9-4.94-1.92-9.24 2.54-.1 2.8-.6 5.4-1.12 7.44.22-.38.36-.6.38-.62 0 0 1.3-2.6 4.54-4.82 1.78-1.2 3.84-.9 5.52-.24-.6-1.54-.94-3.26-.1-4.3h.02ZM446.54 70l.04-.28c.02-.16.04-.28.06-.4-.22.9-.42 1.78-.62 2.62.22-.38.38-1 .52-1.94ZM278.78 333.26c-1.12 0-2.14.28-2.66.44-.46.14-.96.22-1.44.22-.68 0-1.34-.16-1.96-.44-93.32 78.48-188.68 114.1-188.68 114.1h-.1c-7.24 3.24-13.96 7.18-13.9 8.98.08 2.38 4.6 4.12 7.1 4.82 2.62-.72 5.92-2.46 7.66-6.56 0 0 99.86-46.12 124.18-59.38 15.96-8.7 45.26-30.06 75.06-55.22-.88-6.96-3.94-6.98-5.24-6.98l-.02.02Z"/>
  <path fill="#fff" d="M464.4 41.38c-4.22-2.16-8.6 2.14-8.6 2.14s-5.06 4.82-6.26 10.72c5.14-4.08 9.12-1.82 10.58-.98 0 0 .02 0 .04.02 1.88-1.64 3.02-3.4 3.02-3.4s5.44-6.36 1.22-8.5Zm-4.18 20.7c-1.06-.74-4.06-2.58-6-1.24-2.8 1.92-3.94 4.16-3.96 4.18-.08.14-.86 1.28-1.42 3.1-.1.32-.1.42-.12.7-.02.26-.04.6-.14 1.2l-.04.26c-.18 1.24-.62 4-3.1 4.18-5.22 22.2-6.28 28.38-18.74 53.94-20.8 42.64-55.76 99.16-88.16 139.44 3.86 1.14 9.32 3.36 11.88 7.26 38.26-47.5 82.96-123.4 93.08-162.64 9.94-38.56 10.08-40.74 10.08-40.74s10.98-7.18 6.66-9.64h-.02ZM63.08 460.74c-.6-1.32-.74-2.64-.7-3.8-2.94 2.08-6.82 5.5-6.92 8.96-.16 5.6 3.62 5.32 3.62 5.32s4.06-1.54 4.94-4.98c.3-1.14.84-1.94 1.44-2.54-1.06-.82-1.86-1.8-2.38-2.96Z"/>
  <path fill="#878787" d="M295.581 307.84a21.96 21.96 0 0 1 2.98 4.34c2.88.24 6.12.88 9.7 2.06-.2-4.08-1.2-7.32-2.5-9.84-5.12.54-8.5 2.3-10.18 3.42v.02Zm9.14-8.34c.68.8 1.36 1.7 1.98 2.72 2.7-.16 5.78 0 9.28.7-.48-2.72-1.34-4.98-2.38-6.86-4.54.74-7.48 2.44-8.88 3.42v.02Zm-16.96 15.82c1.5 1.7 2.98 3.92 4.06 6.78 2.3.32 4.84.86 7.6 1.66-.08-3.88-.86-7.04-1.98-9.56-3.96-.2-7.18.34-9.66 1.12h-.02Zm16.419 12.2c-.96-.38-1.92-.72-2.84-1.04a42.48 42.48 0 0 1-.46 4.26c1.02-.98 2.1-2.04 3.28-3.22h.02Zm20.401-31.2c-3.36-.62-6.32-.72-8.86-.5 1.06 2.1 1.92 4.62 2.38 7.6 2.1.54 4.34 1.28 6.7 2.24.42-3.6.28-6.68-.22-9.32v-.02Zm-1.661-9.16c1.32 1.96 2.5 4.38 3.24 7.38 2.16.48 4.46 1.16 6.92 2.1.18-3.24-.12-6.04-.7-8.42-3.58-.86-6.74-1.16-9.46-1.06Zm1.141 6.96c-.82-2.84-2.04-5.08-3.36-6.8-3.12.34-5.6 1.14-7.42 1.98l-1.26 1.26c.86.9 1.74 1.98 2.56 3.26 2.7-.32 5.86-.3 9.48.32v-.02Zm-33.62 29.86c-2.56-.28-4.8-.28-6.72-.1 1.2 2.54 2.08 5.68 2.32 9.46.12.2.24.42.34.64 1.52-.38 3.24-.66 5.16-.78.14-3.64-.3-6.68-1.1-9.22Zm42.44-25.26c-2.2-.86-4.28-1.5-6.24-1.96.38 2.3.48 4.88.26 7.78 2.2-2.16 4.22-4.12 5.98-5.82Zm-52.24 23.52c-.28-.44-.58-.86-.88-1.24-.58.64-1.16 1.26-1.7 1.88.76-.24 1.64-.46 2.58-.64Zm20.74 2.14c1.38.46 2.82.98 4.32 1.6.52-.54 1.06-1.1 1.62-1.66.64-2.9.94-5.54.98-7.9-3.2-1.08-6.12-1.72-8.74-2.02 1.08 2.72 1.8 6.02 1.82 10v-.02Zm26.62-47.52c3.38-.1 7.42.58 11.9 2.86-1.7-4.54-4.46-7.28-6.5-8.8-.88.24-3.02 1.16-6.86 4.66.46.36.96.8 1.48 1.28h-.02Zm14.999 7.1c.22 1.36.36 2.84.38 4.4.64-.76 1.3-1.64 1.94-2.6-.78-.66-1.56-1.26-2.32-1.82v.02Zm-35.18 20.32c1.34 2.8 2.32 6.32 2.44 10.68 1.42.52 2.88 1.14 4.38 1.84.3-.32.6-.62.9-.92.86-4.14 1.02-7.7.74-10.76-3.16-.68-6-.9-8.46-.82v-.02Zm-18.159 17.58c-1.08-2.5-2.48-4.42-3.84-5.84-.9.38-1.64.76-2.28 1.12-.8.78-1.62 1.6-2.44 2.46.54.7 1.08 1.48 1.6 2.34 2-.24 4.32-.3 6.96-.06v-.02Zm51.179-30.74c-2.24-.98-4.34-1.74-6.34-2.32.48 2.28.7 4.88.58 7.8 3.1-2.98 5.16-4.9 5.76-5.46v-.02Zm-22.52 14.48c.18 2.34.1 4.92-.32 7.78 2.06-2.08 4.061-4.06 5.921-5.92-1.96-.78-3.841-1.4-5.601-1.86Zm-22.459 29.74c-.86-.06-1.68-.1-2.48-.08-.06.74-.16 1.52-.26 2.32.8-.6 1.7-1.32 2.74-2.22v-.02Zm-4.48-.02c-1.54.1-2.94.34-4.2.62.36 1.12.66 2.42.84 3.94 0 0 .34.72 2.82-.76.26-1.34.44-2.6.56-3.8h-.02Zm6.6-1.86c.14-.12.28-.26.42-.38.58-2.64.88-5.04.98-7.22a51.67 51.67 0 0 0-6.84-1.6c.7 2.52 1.08 5.48.98 8.88 1.4 0 2.88.12 4.48.32h-.02Zm44.4-52.32c1.3.82 2.64 1.78 3.98 2.9 1.26-2.32 1.92-4.8.74-6.66-1.9-2.98-6.8-4.82-10.06-5.76 2.04 2.14 4.12 5.22 5.34 9.52Zm-58.58 49.68c-.4-2.64-1.16-4.84-2.08-6.7-3 .48-5.06 1.36-6.22 1.98-1.28 1.82-1.96 3.34-1.52 4.12 0 0 5.62-2.52 9.82.58v.02Zm26.039-9.1c1.12-1.16 2.24-2.3 3.32-3.42a56 56 0 0 0-2.9-1.2 39.22 39.22 0 0 1-.42 4.62Zm11.541-36.58c2.94-.22 6.38-.04 10.32.82-1.14-3.14-2.78-5.44-4.38-7.08-2.06.12-3.8.56-5.14 1.02-.38.4-.76.8-1.16 1.24-.56.62-1.14 1.26-1.74 1.88.68.6 1.38 1.28 2.08 2.1l.02.02Zm3.939-8.04s-.16-.12-.22-.18c-.08.08-.18.16-.26.26.16-.02.32-.06.48-.08Zm-28.999 34.96c-.94-1.6-2.02-2.88-3.04-3.88-2.38 2.14-3.84 3.42-3.84 3.42s-.64.58-1.66 1.52c2.32-.68 5.16-1.12 8.54-1.06Zm37.599-25.56c2.34.64 4.84 1.5 7.5 2.66.02-2.52-.24-4.74-.7-6.7-4.02-2.4-7.7-3.38-10.84-3.58 1.56 1.92 3.04 4.42 4.04 7.62Zm-29.34 15.92c-.7-1.02-1.42-1.9-2.14-2.64-1.82 1.7-3.54 3.3-5.1 4.72 1.84-.86 4.24-1.68 7.26-2.1l-.02.02Zm7.821-8.28c-.6-.84-1.2-1.56-1.8-2.2-1.5 1.48-3 2.92-4.46 4.32 1.58-.8 3.66-1.62 6.28-2.14l-.02.02Zm6.64-8.72c-.36-.36-.7-.68-1.06-.98-.46.5-.94 1-1.42 1.48.78-.2 1.6-.38 2.48-.52v.02ZM459.1 55c-3.76-2.56-7.48-.18-9.34 1.68-1.86 1.86-2.04 2.66-4.4 6.34-1.34 2.12-3.92 4.8-6 6.82-1.2-.24-2.34.1-2.84.96-.3.52-.32 1.16-.1 1.78-.12.1-.2.18-.2.18L88.08 434.38c.36-1.4.52-3.08.28-5.12l-1.98.22c.58 5.12-1.58 7.54-2.42 8.28-1.66.36-2.86 1.36-2.86 2.52 0 .36.12.7.32 1.02l-.1.1s-4.68 1.92-4.04 4.08c0 0-9.42 2.24-11.76 7.4-2.32 5.16-.3 7.86-.3 7.86s4.32 5.5 7.42 1.1l-2.62-1.88s-2.94-1.76-1.2-5.24c1.74-3.48 9.18-6.44 9.18-6.44l3.74-1.78s1.76-.24 1.8-2.62c0 0 .68-.38 1.5-.94h.3c2.36 0 4.26-1.2 4.26-2.68 0-.56-.28-1.08-.74-1.52l347.78-360.8c-.06 1.34.28 2.64 1.48 3.52l1.18-1.62c-1.18-.88-.62-3.02.1-4.68 1.3.32 2.54 0 3.08-.92.36-.62.32-1.38-.02-2.12.64-.14 2.36-.5 3.6-.42.28-.94 1.84-5.96 2.32-6.94-.12-1.96 3.68-5.86 6.36-6.32 3.06-.52 5.84 1.42 5.84 1.42s2.28-2.34-1.48-4.9V55Z"/>
</svg>
