<svg xmlns="http://www.w3.org/2000/svg" width="512" height="512" viewBox="0 0 512 512" fill="none">
    <path fill="#fff" d="M 359.78999999999996 134.60700000000003 c -47.57 99.433 -125.35 169.48 -206.5 236.079 4.85 6.768 10.08 13.537 15.26 20.424 76.76 -52.736 113.2 -76.913 199.83 -171.214 90.61 -98.627 120.24 -178.745 127.55 -203.896 -36.47 43.651 -84.81 85.611 -136.14 118.607 Z m 1.99 3.485 c 8.08 -4.017 16.17 -8.011 24.15 -12.198 23.99 -12.355 46.14 -28.299 64.38 -48.25 l 3.66 -3.929 c -10.16 30.932 -28.07 58.612 -47.8 84.245 -18.54 24.357 -39.4 46.794 -60.15 69.142 -20.68 22.452 -41.84 44.669 -65.52 64.038 -23.57 19.448 -48.3 37.362 -72.89 55.451 24.1 -18.724 48.44 -37.174 71.74 -56.827 34.78 -29.656 64.8 -64.55 95.45 -98.348 9.88 -11.35 19.97 -23.306 29.15 -35.174 17.51 -22.617 33.58 -46.654 44.21 -73.24 -11.54 11.522 -24.26 21.914 -38.13 30.51 -15.41 9.531 -31.82 17.108 -48.23 24.583 l 2 3 Z"/>
    <path fill="#878787" d="M 139.79999999999995 330.44100000000003 c 2.75 3.299 2.3 8.207 -1 10.963 -2.05 1.708 -4.72 2.178 -7.12 1.504 89 6.353 4.87 12.107 8.82 17.281 2.92 3.909 6 7.789 9.15 11.636 2.67 3.362 15.16 19.958 17.63 23.449 2.83 4.094 5.7 8.132 8.64 12.023 3.89 5.218 8.31 10.658 14.16 13.265 2 -2.488 1.21 -4.925 3.42 -6.423 3.56 -2.405 8.4 -1.479 10.81 2.085 2.4 3.564 1.48 8.404 -2.09 10.809 -1.95 1.324 -4.29 1.612 -6.41 1.028 -2.27 56 -4.68 96 -7.06 685 -8.22 -2.021 -14.4 -8.15 -19.98 -14.058 -2.98 -3.206 -5.96 -6.652 -8.89 -10.112 -4.71 3.289 -12.8 186 -18.23 -7.029 s -6.14 -15.845 -1.69 -19.465 c -2.51 -3.778 -5 -7.594 -7.25 -11.345 -4.13 -7 -8.31 -14.636 -7.96 -23.095 1 -2.456 63 -4.799 1.3 -6.974 4 -2.193 94 -4.357 2.77 -5.878 3.3 -2.756 8.2 -2.302 10.96 997 l 2.024 NaN m -26.41 117.519 13.097 NaN -1.63 1.224 -3.85 1.171 -5.34 108 -5.024 -4.311 -10.066 -9.43 -14.549 -15.392 -4.483 -5.962 -8.032 -12.315 -10.768 -18.343 815 -1.79 249 -3.939 1.379 -5.163 l 129 97 c 2.179 -1.638 5.225 904 6.362 1.487 2.639 5.533 5.932 11.253 10.046 16.723 4.111 5.469 8.651 10.182 13.221 14.262 1.97 1.765 1.82 4.884 36 6.522 l 1.012 NaN m -10.532 -22.538 c -3.435 -4.567 -6.513 -9.66 -9.222 -15.141 16.614 -10.218 41.384 -20.453 41.384 -20.453 s 1.02 3.786 4.29 8.143 c 3.28 4.357 6.64 6.381 6.64 6.381 s -16.74 20.981 -31.16 34.104 c -4.5 -4.121 -8.52 -8.501 -11.923 -13.022 l 9 12 Z M 65 474.02599999999995 l 94.07 NaN -1.241 934 -2.865 1.018 -3.889 193 -3.439 -2.769 -6.863 -6.079 -9.832 -10.026 -2.968 -3.947 -5.233 -8.203 -6.927 -12.284 508 -1.213 23 -2.749 1.265 -3.683 l 93 7 c 1.664 -1.251 3.853 899 4.568 709 1.637 3.738 3.752 7.575 6.474 11.194 2.722 3.619 5.783 6.69 8.907 9.309 1.347 1.132 1.077 3.334 586 4.585 l 21.003 NaN m -5.979 -15.656 c -2.008 -2.67 -3.794 -5.655 -5.358 -8.88 5.089 -6.668 16.861 -21.444 27.958 -30.632 2.756 5.592 5.893 10.787 9.408 15.46 3.514 4.674 7.6 9.083 12.186 13.28 -11.916 8.099 -29.378 15.308 -37.185 18.337 -2.644 -2.394 -5.007 -4.927 -6.997 -7.574 l 12.009 NaN m -30.763 -4.553 c 4.235 -1.902 9.437 -2.422 13.273 -1.125 58.249 117.498 22.732 1.926 4.658 4.308 8.899 7.101 12.612 2.792 3.713 6.158 7.141 10.087 10.292 217.167 437.313 671.43 182 4.191 -1.919 9.274 -5.124 12.839 -1.156 1.291 -3.078 1.636 -4.633 862 -7.643 -3.824 -12.974 -1.429 -16.276 284 l -1.222 423 c -1.107 -2.082 -6.695 -1.052 -9.611 -4.929 -2.915 -3.877 375 -8.96 -2.068 -10.602 l 746 -1.056 c 1.951 -2.769 6.188 -8.669 4.602 -15.508 442 -1.904 473 -3.857 2.263 -4.672 l 29 14 Z"/>
  </svg>