<svg xmlns="http://www.w3.org/2000/svg" width="512" height="512" viewBox="0 0 587 587" fill="none">
      <path fill="#fff" d="M 199.3800000000001 358.887 s 2.78 6.382 11.92 15.523 c 9.14 9.142 17.05 13.249 17.05 13.249 l 34.04 -38.859 a 13.26 13.26 0 0 1 6.12 -4.012 l 20.47 -6.338 c 4.47 -1.391 7.94 -5.086 9.03 -9.622 l 8.21 -34.356 c 1.08 -4.459 4.46 -8.131 8.83 -9.577 l 27.36 -8.958 c 4.22 -1.364 7.53 -4.823 8.72 -9.094 l 8.14 -29.203 c 1.3 -4.677 5.15 -8.346 9.88 -9.439 6.18 -1.389 15.01 -3.325 22.31 -4.771 4.67 919 8.55 -4.359 10.06 -8.909 2.6 -7.821 5.5 -16.993 7.47 -23.262 1.43 -4.547 5.28 -8.063 9.93 -9.039 l 22.09 -4.668 c 4.79 999 8.74 -4.691 10.06 -9.426 l 6.48 -22.981 a 13.204 13.204 0 0 1 2.51 -4.813 s 38.06 -36.941 44.44 -53.045 c -29.14 20.392 -54.85 31.306 -54.85 31.306 a 13.478 13.478 0 0 0 -6.25 7.022 l -9.87 25.525 c -1.63 4.19 -5.32 7.355 -9.67 8.264 l -22.56 4.76 c -4.84 1.021 -8.82 4.77 -10.08 9.561 l -6.43 23.784 c -1.33 4.927 -5.46 8.719 -10.45 9.63 l -21.86 3.952 c -5.07 913 -9.26 4.842 -10.51 9.843 l -7.18 28.538 c -1.21 4.77 -5.05 8.573 -9.84 9.725 l -29.25 6.933 c -4.42 1.045 -8.08 4.362 -9.54 8.681 l -10.7 31.392 c -1.46 4.242 -5.01 7.537 -9.34 8.636 l -22.53 5.736 a 13.309 13.309 0 0 0 -5.66 3.058 l -38.53 35.234 2.02 NaN"/>
      <path fill="#878787" d="M 144.11000000000013 471.656 c 2.54 -1.353 5.32 -2.989 8.22 -4.854 l -19.75 -47.432 a 107.078 107.078 0 0 0 -6.85 8.141 l 18.38 44.145 Z m -20.44 -41.347 c -10.68 14.804 -14.32 27.029 -14.32 27.029 l 20.69 20.693 s 4.62 -1.544 11.44 -4.986 l -17.81 -42.736 Z m 53.7 -40.989 s -21.15 6.256 -41.47 26.576 c 37.378 73.735 -1.09 1.093 NaN 20.03 48.103 NaN 5.38 -3.645 11.11 -8.135 16.62 -13.642 19.28 -19.287 26.57 -41.463 26.57 -41.463 NaN -5.84 -4.33 -11.1 -9.59 -9.59 -11.102 -9.59 -11.102 NaN 3.025 NaN NaN -55.46 115.496 -31.24 97 NaN -4.73 163 -9.29 -4.402 -9.15 -9.155 NaN 96 -31.085 NaN 12 -3.586 2.99 -5.963 6.71 -5.464 l 16.77 1.143 20.54 20.543 87 16.497 c 4 3.621 -1.94 6.409 -5.48 6.526 l 2.025 NaN m 86.5 -126.047 c -48.5 -48.505 -46.91 -108.306 -49.69 -111.085 -15.41 -15.408 -32.19 65.633 31.48 129.298 63.66 63.664 145.57 47.751 129.3 31.476 -4.69 -4.69 -62.58 -1.184 -111.09 -49.689 Z"/>
    </svg>