<svg width="512" height="512" viewBox="0 0 512 512" fill="none" xmlns="http://www.w3.org/2000/svg">
<path d="M334.264 186.029L30.6736 492.438C27.3163 495.824 21.8383 495.838 18.4667 492.466C15.0951 489.095 15.1094 483.617 18.4954 480.26L324.904 176.669L334.264 186.029Z" fill="#878787"/>
<path d="M432.947 85.9073C432.947 85.9073 504.801 14.8011 501.401 11.4007C498.475 8.47478 425.42 78.3804 425.42 78.3804L431.294 79.9404L432.94 85.9001L432.947 85.9073Z" fill="#878787"/>
<path d="M326.205 174.275C324.581 172.651 324.58 170.02 326.201 168.398C327.823 166.776 330.455 166.777 332.078 168.401L342.531 178.854C344.155 180.478 344.157 183.109 342.535 184.731C340.913 186.353 338.282 186.351 336.658 184.727L326.205 174.275Z" fill="white"/>
<path d="M345.4 177.337L430.934 87.9204L429.288 81.9607L423.407 80.3935L333.286 165.224L345.4 177.337Z" fill="white"/>
<path d="M406.801 140.378C403.213 138.862 400.331 141.802 400.891 146.202C401.107 147.898 398.174 140.321 393.458 141.514C388.771 142.708 389.878 148.373 389.878 148.373L375.744 148.574L427.951 94.6853C427.951 94.6853 427.469 121.119 429.805 134.397C435.506 166.899 416.542 187.689 416.499 186.755C415.399 162.707 408.037 146.288 408.037 146.288C408.037 146.288 410.934 142.111 406.801 140.364L406.801 140.378ZM404.428 134.383C405.399 133.412 405.399 131.831 404.428 130.86C403.458 129.89 401.876 129.89 400.906 130.86C399.935 131.831 399.935 133.412 400.906 134.383C401.876 135.353 403.458 135.353 404.428 134.383Z" fill="white"/>
<path d="M390.733 17.4973C404.558 40.3511 401.812 53.5069 401.812 53.5069C401.812 53.5069 397.405 53.6867 396.858 58.4601C396.262 63.6146 401.078 65.2537 401.078 65.2537C401.078 65.2537 390.805 70.3938 396.032 78.7403C401.265 87.0939 409.159 80.6669 409.159 80.6669L416.527 83.6359L365.881 131.177C365.881 131.177 365.464 126.216 361.819 125.203C357.405 123.981 355.019 127.834 355.019 127.834L323.2 129.185C323.2 129.185 375.471 85.9005 390.733 17.4973ZM392.049 66.0445C392.631 65.4622 392.631 64.5133 392.049 63.9309C391.467 63.3486 390.518 63.3486 389.935 63.9309C389.353 64.5133 389.353 65.4622 389.935 66.0445C390.518 66.6268 391.467 66.6268 392.049 66.0445ZM401.603 90.4511C402.574 89.4806 402.574 87.899 401.603 86.9285C400.633 85.958 399.051 85.958 398.081 86.9285C397.11 87.899 397.11 89.4806 398.081 90.4511C399.051 91.4216 400.633 91.4216 401.603 90.4511ZM389.447 84.4914C390.417 83.5209 390.417 81.9393 389.447 80.9688C388.476 79.9983 386.894 79.9983 385.924 80.9688C384.953 81.9393 384.953 83.5209 385.924 84.4914C386.894 85.4619 388.476 85.4619 389.447 84.4914ZM355.356 123.024C355.967 122.413 355.975 121.414 355.364 120.803C354.753 120.192 353.753 120.185 353.135 120.803C352.517 121.421 352.524 122.406 353.142 123.024C353.76 123.643 354.745 123.635 355.356 123.024Z" fill="white"/>
</svg>
