<svg width="444" height="414" viewBox="0 0 444 414" fill="none" xmlns="http://www.w3.org/2000/svg">
<path d="M121.44 287.063C106.18 296.163 65.38 322.183 43 352.783C15.1 390.903 0 403.503 0 403.503C29.34 422.183 53.56 408.743 53.56 408.743C53.68 398.863 51.4 394.203 56.48 384.503C57.76 382.083 63.02 376.583 64.56 374.123C66.14 371.603 67.96 366.223 69.72 363.763C71.2 361.683 75.32 359.063 76.92 357.043C79.06 354.323 79.18 351.483 81.46 348.883C83.4 346.663 86.66 345.363 88.66 343.223C91.02 340.703 92.1 336.963 94.48 334.603C96.64 332.483 100.12 331.723 102.24 329.743C115.62 317.283 128.04 307.863 133.9 303.583L121.44 287.063ZM35.18 400.923C33.7 402.403 31.32 402.423 29.82 400.943C28.34 399.463 28.32 397.083 29.8 395.583C31.28 394.103 33.66 394.083 35.16 395.563C36.64 397.043 36.66 399.423 35.18 400.923ZM54.38 367.623C52.9 369.103 50.52 369.123 49.02 367.643C47.54 366.163 47.52 363.783 49 362.283C50.48 360.783 52.86 360.783 54.36 362.263C55.84 363.743 55.86 366.123 54.38 367.623ZM79.32 338.423C77.84 339.903 75.46 339.923 73.96 338.443C72.48 336.963 72.46 334.583 73.94 333.083C75.42 331.603 77.8 331.583 79.3 333.063C80.78 334.543 80.8 336.923 79.32 338.423ZM104.52 314.823C103.04 313.343 103.02 310.964 104.5 309.464C105.98 307.964 108.36 307.963 109.86 309.443C111.34 310.923 111.36 313.303 109.88 314.803C108.4 316.283 106.02 316.303 104.52 314.823Z" fill="#878787"/>
<path d="M388.82 17.7035C325.68 123.083 219.04 213.683 187.16 239.903C182.14 244.043 165.88 257.003 158.64 261.823L127.46 283.603C127.46 283.603 126.56 284.103 124.94 285.043L137.18 301.263C137.36 301.143 139.58 303.663 139.58 303.663L158.48 288.503L249.54 219.663C393.8 113.383 443.44 4.48349 443.44 4.48349C403.16 -10.7565 388.88 17.7435 388.88 17.7435L388.82 17.7035ZM305.22 164.583C264.58 202.003 215.74 236.363 171.92 270.083L162.24 277.423C160.18 279.403 156.46 280.523 156.44 283.783C156.44 284.783 157.02 285.643 157.4 286.583C157.48 286.703 157.26 286.804 157.2 286.684C154.08 281.684 158.7 279.923 162.02 277.163L171.62 269.743C228.52 225.624 288.18 180.503 337.7 128.043C371.24 93.1835 403.84 56.9635 425.52 13.3835C423.02 20.2635 418.5 28.1835 414.78 35.1835C386.5 84.5635 347.06 126.483 305.2 164.603L305.22 164.583Z" fill="white"/>
</svg>
