<svg width="447" height="417" viewBox="0 0 447 417" fill="none" xmlns="http://www.w3.org/2000/svg">
<path d="M195.379 119.34C130.079 190.72 106.359 230.66 99.679 243.3C113.059 252.92 124.519 265.18 132.699 279.46C132.919 279.84 133.139 280.24 133.359 280.62C133.459 280.8 133.559 280.98 133.659 281.14C133.619 281.1 133.599 281.06 133.559 281C133.619 281.1 133.639 281.18 133.659 281.28C133.699 281.34 133.759 281.4 133.799 281.48C133.859 281.54 133.879 281.6 133.919 281.66C133.919 281.66 152.219 298.58 153.599 299.52C154.299 300 156.139 298.12 157.379 296.88C158.779 295.46 158.999 293.26 157.979 291.56L136.879 256.9L143.879 248.88C146.219 242.26 146.799 236.48 150.499 230.92C167.659 205.16 190.559 186.46 204.159 176.74C210.719 172.04 217.859 168.26 225.399 165.4L270.639 148.16C270.639 148.16 328.839 128.92 370.539 93.02C412.239 57.12 446.099 0 446.099 0C446.099 0 276.059 31.18 195.399 119.36L195.379 119.34ZM143.279 221.44C137.819 229.56 129.919 237.92 129.579 248.14C132.059 246.92 134.279 245 135.659 242.58C137.179 240.06 137.599 237.06 137.359 234.16L137.619 234.14C139.919 241.38 134.999 248.82 128.099 251.34L127.459 249.12C125.059 235.94 148.099 212.16 157.019 202.64C158.839 200.8 160.699 198.98 162.639 197.24L162.839 197.42C155.979 205.14 149.479 213.18 143.319 221.46L143.279 221.44ZM315.439 113.72C291.399 127.38 265.299 136.88 239.479 146.42L239.319 146.02C264.779 135.68 290.399 125.38 314.019 111.3C353.159 87.28 384.979 53.66 417.799 21.94L418.119 22.24C387.739 56.62 355.839 91 315.439 113.72Z" fill="white"/>
<path d="M53.6589 405.96C50.9389 406.16 48.0789 406.3 45.4389 406.1C44.3389 406.1 42.8789 405.98 41.7989 405.78L38.1789 405.24L34.6189 404.3C32.2789 403.68 29.8789 402.72 27.7189 401.68C18.8389 397.36 11.7389 390.12 7.51887 381.06C5.69887 382.24 4.03886 383.1 2.65886 383.72C0.278865 384.76 -0.701134 387.64 0.538866 389.9C16.0789 417.96 46.1789 416.5 53.6189 415.68C54.5389 415.58 55.1389 414.68 54.9589 413.78C54.3789 410.96 53.9389 408.38 53.6389 405.98L53.6589 405.96Z" fill="#878787"/>
<path d="M133.659 282.36C129.039 275.44 123.639 269.08 117.519 263.46C111.579 257.92 97.6989 249.3 97.6989 249.3C95.8989 248.38 91.3189 249.72 91.3189 249.72C91.3189 260.52 81.6189 270.62 81.6189 270.62C40.5989 317.7 42.0789 325.04 29.0789 353.76C22.9189 367.36 11.2789 379.02 11.2789 379.02C15.8789 392.14 28.2989 402.3 42.0189 404.72C43.0389 404.98 44.4989 405.22 45.5589 405.3C48.1589 405.68 50.9589 405.76 53.6789 405.76C51.0389 385.14 57.4989 379.44 57.4989 379.44C57.4989 379.44 88.0989 346.24 96.3789 318.56C104.639 290.9 118.079 288.1 118.079 288.1C126.359 286.7 133.499 282.18 133.659 282.34V282.36ZM45.2989 377.56C43.2789 379.78 39.8389 379.94 37.6189 377.92C35.3989 375.9 35.2389 372.46 37.2589 370.24C39.2789 368.02 42.7189 367.86 44.9389 369.88C47.1589 371.9 47.3189 375.34 45.2989 377.56Z" fill="#878787"/>
</svg>
