<svg width="406" height="415" viewBox="0 0 406 415" fill="none" xmlns="http://www.w3.org/2000/svg">
<path d="M59.8853 335.441C56.7053 331.741 51.1053 331.301 47.4053 334.481C44.6053 336.881 44.0053 341.621 45.0653 344.941C45.4853 344.821 45.9053 344.461 46.2853 344.221C46.7253 343.981 48.3853 342.541 48.8253 341.801C48.5453 340.301 49.0453 338.921 50.2853 337.841C51.2453 337.021 52.4653 336.681 53.6253 336.801C54.7253 336.921 55.7653 337.421 56.5253 338.321C58.1253 340.181 57.9053 342.981 56.0453 344.581C55.2653 345.241 54.4253 345.641 53.4653 345.681C53.4653 345.781 52.7053 346.981 52.1853 347.421C51.3053 348.181 50.5453 348.621 50.2053 348.741C50.0253 348.801 49.4053 349.141 49.2253 349.201C50.1053 349.621 51.2853 349.921 52.2253 350.021C54.5653 350.261 56.9853 349.581 58.9053 347.941C62.6053 344.761 63.0453 339.161 59.8653 335.461L59.8853 335.441Z" fill="#878787"/>
<path d="M93.5452 367.381C89.9452 364.081 84.3452 364.321 81.0452 367.921C79.4452 369.661 78.6252 371.921 78.7252 374.281C78.8252 376.601 79.8252 378.741 81.5252 380.341C81.7852 380.001 82.0452 379.641 82.3052 379.301C82.6652 378.801 84.0252 376.621 84.2252 376.341C83.8052 375.701 83.1652 374.881 83.1252 374.101C83.0652 372.921 83.4852 371.781 84.2852 370.921C85.1452 369.981 86.3052 369.501 87.4852 369.481C88.5852 369.481 89.6852 369.841 90.5452 370.641C91.4252 371.441 91.9252 372.541 91.9852 373.721C92.0452 374.901 91.6252 376.041 90.8252 376.901C90.1852 377.601 89.3652 378.041 88.4652 378.241C88.4652 378.321 87.3052 380.721 87.0852 381.041C86.7452 381.561 86.4452 382.101 86.1852 382.641C86.6852 382.721 87.1852 382.761 87.6852 382.761C87.7652 382.761 87.8452 382.761 87.9252 382.761C90.2852 382.661 92.4652 381.641 94.0652 379.901C95.6652 378.161 96.4852 375.901 96.3852 373.541C96.2852 371.181 95.2652 369.001 93.5252 367.401L93.5452 367.381Z" fill="#878787"/>
<path d="M88.8054 376.821C88.6654 375.341 87.4454 375.441 87.2654 375.381C87.2454 375.381 86.0254 375.121 85.3654 375.881C82.0854 380.461 70.4254 397.461 57.4054 403.961C27.3454 418.941 11.3854 395.721 11.3854 395.721C11.3854 395.721 -2.33462 376.701 12.9054 359.501C15.7654 356.281 25.9854 354.961 30.8454 354.701C33.0654 354.581 35.2254 354.181 37.3454 353.481C43.2854 351.561 54.3454 347.501 53.2454 344.361C51.7454 340.081 49.0054 342.461 49.0054 342.461C49.0054 342.461 46.7054 345.621 41.3454 347.461C35.9854 349.281 16.0454 352.661 16.0454 352.661C16.0454 352.661 1.90538 354.281 0.105376 376.761C-1.67462 399.241 19.6854 409.481 19.6854 409.481C19.6854 409.481 42.6654 423.181 67.6054 403.761C78.2254 395.481 88.9254 377.641 88.8454 376.841L88.8054 376.821Z" fill="#878787"/>
<path d="M147.925 313.061L157.645 302.261C141.545 297.961 126.925 284.901 116.225 272.761L106.145 282.861C116.785 295.201 131.645 308.861 147.925 313.061Z" fill="#878787"/>
<path d="M151.725 237.201L148.745 240.181C154.945 254.961 164.445 271.261 178.025 279.621L190.785 265.441C175.685 260.661 161.965 248.541 151.725 237.201Z" fill="#878787"/>
<path d="M137.565 324.581L146.465 314.701C130.145 310.081 115.365 296.541 104.745 284.281L95.0652 293.981C105.825 306.521 120.965 320.501 137.565 324.601V324.581Z" fill="#878787"/>
<path d="M128.845 334.281L136.085 326.241C119.445 321.701 104.405 307.841 93.6653 295.381L91.2253 297.841C100.045 312.201 112.905 328.241 128.845 334.301V334.281Z" fill="#878787"/>
<path d="M159.145 300.601L164.165 295.021C149.545 287.981 138.465 272.581 130.825 258.141L117.645 271.361C128.365 283.581 143.105 296.741 159.165 300.601H159.145Z" fill="#878787"/>
<path d="M168.805 220.081L160.085 228.821C171.365 240.401 185.965 251.581 201.465 253.561L203.645 251.141C188.925 246.741 177.325 233.741 168.805 220.081Z" fill="#878787"/>
<path d="M140.425 248.521L132.245 256.701C139.825 271.201 150.885 286.781 165.505 293.521L172.765 285.441C158.585 278.001 147.845 262.721 140.405 248.521H140.425Z" fill="#878787"/>
<path d="M89.8052 299.241L60.2652 328.841L64.8252 333.161C42.7852 354.401 61.5652 367.201 61.5652 367.201C61.5652 367.201 75.3452 385.241 95.3852 362.121L99.9252 366.421L127.445 335.841C111.505 329.441 98.6652 313.541 89.8052 299.241Z" fill="#878787"/>
<path d="M147.245 241.681L141.865 247.061C149.225 261.301 159.965 276.741 174.145 283.921L176.705 281.081C163.125 272.541 153.565 256.421 147.245 241.681Z" fill="#878787"/>
<path d="M192.205 263.841L199.865 255.321C184.345 252.801 169.905 241.661 158.685 230.201L153.085 235.821C163.325 247.241 177.145 259.441 192.185 263.861L192.205 263.841Z" fill="#878787"/>
<path d="M249.065 187.541L230.865 170.301L230.745 170.421L224.365 164.381L170.205 218.661C178.685 232.421 190.325 245.541 205.085 249.521L255.285 193.721L248.905 187.681L249.025 187.561L249.065 187.541Z" fill="#878787"/>
<path d="M129.06 53.8412L112.12 42.2012L116.56 64.2812L129.06 53.8412Z" fill="white" stroke="white" stroke-width="1.5" stroke-miterlimit="10"/>
<path d="M162.94 57.9814L163.24 34.4414L147.92 53.0614L162.94 57.9814Z" fill="white" stroke="white" stroke-width="1.5" stroke-miterlimit="10"/>
<path d="M185.12 85.8813L199.04 71.2013L174.4 68.3213L185.12 85.8813Z" fill="white" stroke="white" stroke-width="1.5" stroke-miterlimit="10"/>
<path d="M103.14 77.5815L83.9199 86.7016L106.86 93.9415L103.14 77.5815Z" fill="white" stroke="white" stroke-width="1.5" stroke-miterlimit="10"/>
<path d="M113.26 104.141L105.74 121.901L126.52 112.561L113.26 104.141Z" fill="white" stroke="white" stroke-width="1.5" stroke-miterlimit="10"/>
<path d="M136.4 124.521L145.06 147.381L153.7 124.321L136.4 124.521Z" fill="white" stroke="white" stroke-width="1.5" stroke-miterlimit="10"/>
<path d="M168.62 120.342L187.62 124.882L178.7 105.042L168.62 120.342Z" fill="white" stroke="white" stroke-width="1.5" stroke-miterlimit="10"/>
<path d="M351.4 15.8011C349.9 15.8011 348.62 14.6611 348.48 13.1411C348.32 11.5211 349.5 10.0811 351.12 9.92115L367.98 8.30115C369.6 8.14115 371.04 9.32114 371.2 10.9411C371.36 12.5611 370.18 14.0011 368.56 14.1611L351.7 15.7811C351.7 15.7811 351.52 15.7811 351.42 15.7811L351.4 15.8011Z" fill="white"/>
<path d="M320.92 23.7411C319.7 23.7411 318.56 22.9811 318.14 21.7611C317.6 20.2211 318.42 18.5411 319.96 18.0211L335.96 12.4811C337.5 11.9611 339.18 12.7611 339.7 14.3011C340.24 15.8411 339.42 17.5211 337.88 18.0411L321.88 23.5811C321.56 23.6811 321.24 23.7411 320.92 23.7411Z" fill="white"/>
<path d="M289.02 30.2613C287.64 30.2613 286.42 29.3013 286.14 27.9013C285.82 26.3013 286.86 24.7613 288.44 24.4413L305.04 21.1013C306.64 20.7813 308.18 21.8213 308.5 23.4013C308.82 25.0013 307.78 26.5413 306.2 26.8613L289.6 30.2013C289.4 30.2413 289.2 30.2613 289.02 30.2613Z" fill="white"/>
<path d="M261.38 42.4814C260.38 42.4814 259.42 41.9814 258.86 41.0614C258.02 39.6614 258.46 37.8614 259.86 37.0214L274.34 28.2414C275.74 27.4014 277.54 27.8414 278.38 29.2414C279.22 30.6414 278.78 32.4414 277.38 33.2814L262.9 42.0614C262.42 42.3414 261.9 42.4814 261.38 42.4814Z" fill="white"/>
<path d="M247.32 69.0016C246.86 69.0016 246.4 68.9016 245.98 68.6816C244.54 67.9416 243.96 66.1616 244.72 64.7216L252.48 49.6616C253.22 48.2216 255 47.6416 256.44 48.4016C257.88 49.1416 258.46 50.9216 257.7 52.3616L249.94 67.4216C249.42 68.4416 248.38 69.0216 247.32 69.0216V69.0016Z" fill="white"/>
<path d="M222.36 89.2414C221.42 89.2414 220.48 88.7814 219.92 87.9414C219 86.6014 219.36 84.7614 220.7 83.8414L234.74 74.3614C236.1 73.4414 237.92 73.8014 238.84 75.1414C239.76 76.4814 239.4 78.3214 238.06 79.2414L224.02 88.7214C223.52 89.0614 222.94 89.2214 222.38 89.2214L222.36 89.2414Z" fill="white"/>
<path d="M193.46 99.2815C192.18 99.2815 191 98.4415 190.62 97.1615C190.16 95.6015 191.08 93.9615 192.64 93.5215L208.92 88.8215C210.48 88.3815 212.12 89.2616 212.56 90.8416C213.02 92.4016 212.1 94.0416 210.54 94.4816L194.26 99.1816C193.98 99.2616 193.72 99.3015 193.44 99.3015L193.46 99.2815Z" fill="white"/>
<path d="M352.12 16.5813C352 16.5813 351.88 16.5813 351.76 16.5813C351.44 16.5813 351.12 16.5213 350.82 16.4413C350.08 17.3813 349.04 18.0213 347.84 18.2213L340.56 19.4813C337.9 19.9413 335.36 18.1613 334.9 15.5013C334.44 12.8413 336.22 10.3013 338.88 9.84126L346.16 8.58126C346.44 8.54126 346.72 8.50126 347 8.50126C348 8.50126 348.98 8.80126 349.8 9.40126C349.86 9.44126 349.9 9.50126 349.96 9.54126C350.4 9.30126 350.88 9.16126 351.4 9.10126L356.6 8.60126C355.82 7.02126 354.7 5.64126 353.22 4.60126C350.86 2.94126 348 2.30126 345.18 2.78126L337.9 4.04126C332.04 5.06126 328.1 10.6413 329.12 16.5013C330.02 21.7413 334.6 25.4413 339.74 25.4413C340.34 25.4413 340.96 25.3813 341.58 25.2813L348.86 24.0213C351.7 23.5413 354.18 21.9613 355.84 19.6213C356.62 18.5213 357.14 17.3213 357.46 16.0613L352.14 16.5813H352.12Z" fill="white"/>
<path d="M379.48 2.90132C375.24 -1.11868 368.5 -0.938682 364.48 3.30132C363.18 4.68132 362.36 6.34132 361.94 8.06132L366.8 7.60132C367.04 7.16132 367.34 6.72132 367.7 6.34132C368.92 5.06132 370.56 4.40132 372.2 4.40132C373.74 4.40132 375.26 4.96132 376.46 6.10132C378.94 8.46132 379.04 12.3813 376.7 14.8613C374.36 17.3413 370.42 17.4413 367.94 15.1013C367.92 15.0813 367.9 15.0413 367.88 15.0213L362.84 15.5013C363.36 16.5213 364.02 17.4613 364.9 18.3013C366.94 20.2413 369.58 21.2013 372.2 21.2013C375.02 21.2013 377.82 20.0813 379.9 17.9013C383.92 13.6613 383.74 6.92132 379.5 2.90132H379.48Z" fill="white"/>
<path d="M171.88 58.9413C155.14 43.0813 128.72 43.8013 112.88 60.5213C97.02 77.2613 97.74 103.681 114.46 119.521C131.2 135.381 157.62 134.661 173.46 117.941C189.32 101.201 188.6 74.7813 171.88 58.9413ZM118.92 79.7013C119.7 81.3013 120.42 82.9413 120.96 84.7013C118.12 81.7613 115.98 78.3413 113.96 74.8413C118.16 73.9613 122.38 73.1813 126.7 73.1213C123.56 74.4813 120.32 75.4013 117.02 76.1813C117.68 77.3413 118.32 78.5013 118.92 79.7013ZM150.24 116.181C147.38 113.321 144.6 110.381 142.5 106.901C144.06 107.861 145.46 108.981 146.8 110.141C147.82 111.021 148.76 111.961 149.7 112.901C151.3 109.901 153.04 107.001 155.16 104.301C154 108.461 152.16 112.341 150.24 116.181ZM162.62 79.8813C162.04 76.5213 161.92 73.1413 161.94 69.7613C158.94 70.6413 155.9 71.3413 152.74 71.5613C155.86 69.7413 159.22 68.5413 162.66 67.5013L164 67.1013C163.86 71.4013 163.6 75.6813 162.64 79.8813H162.62Z" fill="white"/>
<path d="M384.54 5.92139L347.1 44.3214L369.1 65.1814L369.64 65.7014L406 26.2614L384.54 5.92139Z" fill="white"/>
<path d="M335.7 11.7213C335.7 11.7213 335.82 11.7013 335.88 11.6813C336.6 10.7613 337.64 10.0813 338.88 9.86128L346.16 8.60128C346.44 8.56128 346.72 8.52128 347 8.52128C348 8.52128 348.98 8.82128 349.8 9.42128C349.86 9.46128 349.9 9.52128 349.96 9.56128C350.4 9.32128 350.88 9.18128 351.4 9.12128L356.6 8.62128C355.82 7.04128 354.7 5.66128 353.22 4.62128C350.86 2.96128 348 2.32128 345.18 2.80128L337.9 4.06128C332.88 4.92128 329.28 9.16128 328.98 14.0413L335.72 11.7213H335.7Z" fill="white"/>
<path d="M304.88 20.3217C305.22 20.2617 305.56 20.2417 305.9 20.2817C306.6 19.5017 307.54 18.9417 308.66 18.7417L315.94 17.4817C316.22 17.4417 316.5 17.4017 316.78 17.4017C317.46 17.4017 318.1 17.5617 318.7 17.8017C319 17.5817 319.32 17.3817 319.7 17.2417L325.06 15.3817C322.66 12.5217 318.86 10.9617 314.96 11.6417L307.66 12.9017C303.12 13.6817 299.76 17.2217 298.92 21.4817L304.88 20.2817V20.3217Z" fill="white"/>
<path d="M322.14 24.3414C321.8 24.4614 321.46 24.5014 321.1 24.5214C320.42 25.8414 319.18 26.8414 317.6 27.1214L310.32 28.3814C308.98 28.6214 307.68 28.3015 306.68 27.5815C306.58 27.6215 306.48 27.6614 306.36 27.6814L300.14 28.9214C302.04 32.2214 305.58 34.3414 309.48 34.3414C310.08 34.3414 310.7 34.2814 311.32 34.1814L318.6 32.9214C321.44 32.4214 323.92 30.8614 325.58 28.5014C326.84 26.7014 327.5 24.6214 327.54 22.4814L322.14 24.3414Z" fill="white"/>
<path d="M290.4 30.8615C289.7 32.0415 288.52 32.9215 287.06 33.1815L279.78 34.4415C278.94 34.6015 278.1 34.5015 277.36 34.2215L271.78 37.6015C273.72 39.3415 276.26 40.3815 278.96 40.3815C279.56 40.3815 280.18 40.3215 280.8 40.2215L288.08 38.9615C292.92 38.1215 296.44 34.1815 296.96 29.5215L290.42 30.8415L290.4 30.8615Z" fill="white"/>
<path d="M273.92 27.5413C274.18 27.3813 274.46 27.2813 274.72 27.1813C275.42 25.9613 276.62 25.0613 278.1 24.8013L285.38 23.5413C285.66 23.5013 285.94 23.4613 286.22 23.4613C286.8 23.4613 287.36 23.5614 287.88 23.7614C288.02 23.7214 288.14 23.6613 288.28 23.6413L295.1 22.2813C292.78 18.9213 288.66 17.0013 284.38 17.7413L277.1 19.0013C271.4 19.9813 267.54 25.3013 268.26 30.9813L273.92 27.5613V27.5413Z" fill="white"/>
<path d="M269.82 39.6214C269.76 39.3814 269.66 39.1614 269.6 38.9214L264.14 42.2214C264.08 43.0414 263.84 43.8214 263.4 44.5214L259.38 50.7414C259.2 51.0214 259 51.2814 258.76 51.5014C258.7 51.9214 258.58 52.3214 258.38 52.7214L255.22 58.8614C255.22 58.8614 255.22 58.8614 255.24 58.8614C258.78 58.8614 262.26 57.1214 264.32 53.9414L268.34 47.7214C269.9 45.3014 270.42 42.4214 269.82 39.6014V39.6214Z" fill="white"/>
<path d="M248.2 56.1613L251.08 50.5613C250.18 49.0213 250.12 47.0413 251.16 45.4413L255.18 39.2213C255.88 38.1213 256.98 37.3813 258.26 37.1013C258.36 37.0813 258.46 37.1013 258.56 37.0613C258.8 36.7813 259.08 36.5213 259.42 36.3213L265.16 32.8413C265.16 32.8413 265.16 32.8413 265.14 32.8213C262.72 31.2613 259.84 30.7413 257.02 31.3413C254.2 31.9413 251.8 33.6013 250.24 36.0213L246.22 42.2413C243.28 46.7813 244.24 52.7013 248.2 56.1613Z" fill="white"/>
<path d="M234.04 73.8815C234.1 72.7215 234.54 71.6415 235.34 70.8015L240.42 65.4415C241.38 64.4215 242.68 63.9216 243.98 63.9216C244.06 63.9216 244.12 63.9216 244.2 63.9216L247 58.4815C243.24 57.3815 239.04 58.3416 236.16 61.3616L231.08 66.7216C229.1 68.8216 228.06 71.5416 228.14 74.4216C228.16 75.4816 228.4 76.4816 228.72 77.4616L234.06 73.8415L234.04 73.8815Z" fill="white"/>
<path d="M253.08 63.0615L250.66 67.7815C250.26 68.5615 249.6 69.1215 248.84 69.4615C248.7 70.4615 248.28 71.4015 247.56 72.1615L242.48 77.5415C241.66 78.4215 240.56 78.9015 239.44 79.0215C239.2 79.3615 238.88 79.6815 238.52 79.9415L233.38 83.4215C235.08 84.4415 237 84.9815 238.92 84.9815C241.78 84.9815 244.62 83.8615 246.74 81.6215L251.82 76.2415C253.8 74.1615 254.84 71.4215 254.78 68.5415C254.72 66.5815 254.12 64.7215 253.1 63.1015L253.08 63.0615Z" fill="white"/>
<path d="M195.32 99.7015C195.32 99.7015 195.18 99.8815 195.1 99.9815C193.42 101.741 190.6 101.841 188.84 100.141C187.06 98.4615 187 95.6415 188.68 93.8615C189.54 92.9415 190.72 92.4815 191.9 92.4815C192.22 92.4815 192.54 92.5215 192.86 92.6015L198.42 91.0015C198.26 90.8415 198.14 90.6415 197.98 90.5015C194.44 87.1415 188.82 87.3015 185.46 90.8415C182.1 94.3815 182.26 100.001 185.8 103.361C187.5 104.981 189.7 105.781 191.88 105.781C194.22 105.781 196.58 104.861 198.3 103.021C199.62 101.641 200.38 99.9415 200.62 98.1815L195.3 99.7215L195.32 99.7015Z" fill="white"/>
<path d="M208.38 88.4016C208.88 87.4816 209.66 86.7416 210.64 86.3016L217.38 83.2816C218.02 82.9816 218.7 82.8616 219.38 82.8616C219.84 82.8616 220.3 82.9216 220.72 83.0616L226.16 79.3816C223.1 76.9216 218.8 76.2016 214.98 77.9216L208.24 80.9416C205.62 82.1216 203.6 84.2416 202.58 86.9416C202.16 88.0216 201.98 89.1616 201.92 90.2816L208.38 88.4216V88.4016Z" fill="white"/>
<path d="M230 85.8218L224.16 89.7618C224.02 89.8618 223.86 89.9018 223.72 89.9818C223.22 90.9218 222.46 91.7218 221.4 92.2018L214.66 95.2218C213.5 95.7418 212.24 95.7818 211.04 95.3618C210.86 95.4418 210.66 95.5418 210.46 95.6018L204.2 97.4018C205.4 98.9218 206.96 100.122 208.82 100.842C210.06 101.322 211.36 101.562 212.66 101.562C214.16 101.562 215.66 101.242 217.06 100.602L223.8 97.5818C228.4 95.5218 230.84 90.6018 229.98 85.8418L230 85.8218Z" fill="white"/>
<path d="M347.945 52.1016L232.285 168.882L250.405 186.062L360.805 64.3016L347.945 52.1016Z" fill="#878787"/>
</svg>
