<svg width="443" height="424" viewBox="0 0 443 424" fill="none" xmlns="http://www.w3.org/2000/svg">
<path d="M99.1121 302.7L98.6321 303.18L96.6121 301.12L5.35206 388.26C-2.44794 400.86 -1.76794 410.4 7.69206 418.5C17.1521 426.58 22.0321 423.36 30.6721 421.4C39.2921 419.46 62.0521 385.12 62.0521 385.12C62.0521 385.12 82.9721 360.92 92.4121 356.64C101.852 352.36 122.992 351.8 122.992 351.8L135.532 339.92L99.1121 302.7ZM23.3121 405.06C21.7721 406.56 19.3121 406.54 17.8121 405C16.3121 403.46 16.3321 401 17.8721 399.5C19.4121 398 21.8721 398.02 23.3721 399.56C24.8721 401.1 24.8521 403.56 23.3121 405.06ZM55.2921 370.66C53.7521 372.16 51.2921 372.14 49.7921 370.6C48.2921 369.06 48.3121 366.6 49.8521 365.1C51.3921 363.6 53.8521 363.62 55.3521 365.16C56.8521 366.7 56.8321 369.16 55.2921 370.66ZM87.4921 342.24C85.9521 343.74 83.4921 343.72 81.9921 342.18C80.4921 340.64 80.5121 338.18 82.0521 336.68C83.5921 335.18 86.0521 335.2 87.5521 336.74C89.0521 338.28 89.0321 340.74 87.4921 342.24Z" fill="#878787"/>
<path d="M442.012 36.04C420.992 26.88 359.052 0 359.052 0C349.152 22.9 325.552 70.66 299.752 100C248.112 158.76 192.912 210.92 192.912 210.92L101.972 299.92L106.052 304.1L274.092 141.04L107.432 305.52L109.892 308.04L277.932 144.98L111.272 309.46L113.732 311.98L281.772 148.92L115.112 313.4L117.572 315.92L285.612 152.86L118.952 317.34L138.432 337.26L192.552 285.98L192.292 280.96L442.012 36.12V36.04ZM184.372 283.82L150.192 316.78L149.912 316.5L183.412 283.24C183.332 282.74 182.532 278.24 182.532 278.24L182.472 277.94L182.692 277.72C248.352 210.98 342.052 112.38 407.872 46.56C404.492 43.98 369.992 16 369.992 16L370.232 15.68L414.712 45.26L416.672 46.56L414.972 48.28C381.872 81.66 333.332 129.96 299.472 163.64C299.532 163.22 182.492 280.24 183.692 278.04L184.532 283.34L184.572 283.62L184.372 283.82Z" fill="white"/>
</svg>
