<svg width="402" height="447" viewBox="0 0 402 447" fill="none" xmlns="http://www.w3.org/2000/svg">
<path d="M154.165 324.457L115.61 353.098L65.2589 400.892C62.24 403.762 59.7576 407.16 57.9847 410.942C53.5778 420.336 43.8488 438.565 34.9912 436.995C7.13196 432.073 2.80617 401.586 2.80617 401.586L116.015 283.754L116.859 284.209L154.167 324.437L154.165 324.457ZM28.9473 401.08C26.2697 403.718 26.2574 408.033 28.8962 410.711C31.535 413.389 35.85 413.401 38.5276 410.762C41.2053 408.123 41.2176 403.808 38.5788 401.131C35.94 398.453 31.625 398.441 28.9473 401.08ZM69.0132 353.599C64.9634 356.32 64.9195 362.158 68.9549 364.937C71.1904 366.475 74.2597 366.5 76.5185 364.989C80.5684 362.269 80.6122 356.431 76.5769 353.652C74.3413 352.113 71.272 352.089 69.0132 353.599ZM108.236 322.347C110.957 326.397 116.795 326.44 119.573 322.405C121.112 320.17 121.137 317.1 119.626 314.841C116.905 310.792 111.067 310.748 108.289 314.783C106.75 317.019 106.725 320.088 108.236 322.347Z" fill="#878787"/>
<path d="M400.738 67.1C394.518 14.08 330.258 0 330.258 0C347.658 22.74 344.898 45.52 339.578 60.52C336.258 69.88 330.498 78.2 323.138 84.88L265.598 137.3L136.258 258.38C134.318 260.18 128.898 266.5 127.338 268.64L123.178 275C121.938 276.7 121.258 278.76 121.258 280.88V281.4L121.238 281.42L157.638 321.54C182.158 301.08 364.618 148.76 374.358 137.74C384.818 125.94 405.498 107.8 400.718 67.06L400.738 67.1ZM365.298 126.22C358.698 134.66 351.038 142.1 342.238 148.38C342.818 147.42 180.338 284.72 180.738 282.88C180.818 282.84 339.898 145.12 340.018 145.1C348.218 139.1 355.678 131.68 362.098 123.68C375.018 107.72 383.058 87.34 380.518 66.6C379.478 56.24 375.298 46.16 371.038 36.82C376.978 45.24 380.978 55.84 382.818 66.28C386.538 87.62 378.578 109.58 365.318 126.2L365.298 126.22Z" fill="white"/>
</svg>
