<svg width="512" height="512" viewBox="0 0 512 512" fill="none" xmlns="http://www.w3.org/2000/svg">
<g clip-path="url(#clip0_4003_5234)">
<path d="M155.188 313.226C164.829 316.696 173.468 317.853 182.171 318.869C186.387 319.357 188.932 317.275 191.568 314.64C238 268.13 284.457 221.647 330.902 175.177C364.325 141.754 395.614 112.419 405.203 103.498C396.269 113.1 366.96 144.389 333.524 177.799C287.054 224.27 240.558 270.714 194.061 317.133C191.426 319.769 189.344 322.314 189.832 326.53C190.835 335.246 191.979 343.872 195.475 353.513C198.792 350.196 201.427 347.767 203.831 345.131C253.425 290.447 302.685 235.479 352.64 181.128C391.744 138.579 447.984 79.6132 484.557 24.5556C484.21 24.7742 483.837 24.9927 483.477 25.2241C483.708 24.8641 483.94 24.5042 484.145 24.1443C429.101 60.7294 370.135 116.97 327.573 156.061C273.222 206.016 218.254 255.276 163.57 304.87C160.921 307.261 158.492 309.922 155.188 313.226Z" fill="white"/>
<path d="M163.351 320.797C169.753 321.594 175.897 322.545 182.08 323.021C185.423 323.278 185.795 325.219 186.117 327.751C186.862 333.665 187.698 339.565 188.521 345.555C177.581 343.126 168.518 334.269 163.364 320.81L163.351 320.797Z" fill="white"/>
<path d="M159.584 351.61C155.098 347.124 150.586 342.663 146.125 338.151C132.589 324.435 130.558 303.533 141.215 287.426C142.873 284.919 144.66 282.309 147.655 281.242C149.956 280.433 152.681 280.021 154.34 282.245C156.088 284.585 153.453 285.883 152.283 287.413C150.265 290.048 147.951 292.49 146.164 295.28C140.251 304.51 142.346 312.236 152.347 316.452C156.024 317.995 158.08 320.103 159.674 323.599C164.456 333.986 171.334 342.74 181.772 347.908C187.274 350.633 191.375 353.654 193.971 359.85C197.134 367.357 204.152 368.926 211.518 365.288C214.179 363.964 216.557 361.997 218.91 360.133C221.391 358.166 222.741 354.297 226.726 355.042C228.294 355.325 228.461 357.369 228.384 358.886C228.178 362.948 227.073 365.982 222.946 368.412C203.87 379.672 185.063 377.654 169.598 362.061C166.192 358.629 162.772 355.235 159.353 351.816C159.417 351.752 159.482 351.687 159.533 351.636L159.584 351.61Z" fill="#878787"/>
<path d="M64.9078 484.774C56.5007 492.359 46.371 495.187 35.2129 490.996C23.4507 486.587 16.6633 477.588 16.1491 464.991C15.6478 452.714 21.8052 443.857 32.3977 437.841C35.5086 436.067 38.1824 437.07 41.0233 438.137C55.3951 443.561 64.9078 453.82 70.911 467.742C74.099 475.146 69.4327 479.607 64.9206 484.787L64.9078 484.774ZM56.8477 451.699C49.9189 444.847 39.5964 444.937 32.7576 451.904C26.2659 458.525 26.2659 469.965 32.7448 476.419C38.9537 482.602 51.243 482.396 57.4134 475.994C63.9051 469.271 63.648 458.422 56.8477 451.699Z" fill="#878787"/>
<path d="M154.982 378.811C151.576 367.435 147.501 358.141 140.546 350.441C138.888 348.602 138.502 346.88 140.392 344.964C142.307 343.049 144.184 342.098 146.639 344.167C153.607 350.004 159.559 356.752 164.996 363.99C166.667 366.201 166.038 367.782 164.341 369.453C161.564 372.204 158.813 374.981 154.969 378.824L154.982 378.811Z" fill="#878787"/>
<path d="M138.245 393.492C136.677 384.725 134.993 376.587 132.64 367.525C140.508 370.327 150.83 368.155 152.63 376.767C154.494 385.727 143.259 387.63 138.258 393.479L138.245 393.492Z" fill="#878787"/>
<path d="M64.522 429.164C64.342 429.241 64.1749 429.331 64.0078 429.421C63.6607 429.614 63.3522 429.845 63.0565 430.115C61.6425 431.427 60.7169 433.458 59.5986 435.116C57.8374 437.751 60.0485 439.165 60.7812 439.718C61.5139 440.271 65.589 443.035 66.1417 443.536C66.6302 444.101 69.304 447.547 69.9596 448.896C70.6152 450.246 71.9264 451.84 74.5617 450.079C76.22 448.961 78.2639 448.048 79.5622 446.621C79.8322 446.351 80.0764 446.03 80.2564 445.67C80.3464 445.503 80.4364 445.336 80.5135 445.156C80.5521 445.04 80.6035 444.911 80.6421 444.796C80.6678 444.718 80.6935 444.641 80.7192 444.564C81.6319 441.492 80.3721 436.89 77.1841 433.316C77.1712 433.303 77.1584 433.265 77.1584 433.239C77.0298 433.111 76.9141 432.995 76.7984 432.879C76.6699 432.751 76.5542 432.635 76.4385 432.519C76.4256 432.506 76.3871 432.493 76.3614 432.493C72.7877 429.305 68.1856 428.046 65.1133 428.958C65.0362 428.984 64.9591 429.01 64.8819 429.036C64.7662 429.074 64.6377 429.1 64.522 429.164Z" fill="#878787"/>
<path d="M122.845 408.686C121.559 402.233 120.325 397.939 119.991 393.569C119.734 390.227 114.887 385.509 119.657 383.85C124.413 382.205 131.265 383.169 134.825 387.141C137.731 390.381 136.458 395.613 132.46 399.122C129.555 401.667 126.945 404.56 122.832 408.673L122.845 408.686Z" fill="#878787"/>
<path d="M134.17 382.783C124.85 381.639 117.022 379.853 107.252 380.752C114.219 373.888 117.523 363.617 127.55 366.471C133.553 368.18 131.034 376.845 134.17 382.783Z" fill="#878787"/>
<path d="M123.359 363.54C128.102 359.002 130.609 349.811 137.114 351.122C143.605 352.42 145.148 361.29 149.339 368.386C139.826 366.895 131.972 364.285 123.359 363.54Z" fill="#878787"/>
<path d="M93.8957 396.911C97.1223 393.093 99.539 390.419 101.737 387.578C104.308 384.262 107.625 382.102 111.738 382.514C116.572 383.002 115.569 387.887 116.906 390.921C118.976 395.664 119.143 398.916 111.995 397.734C106.532 396.821 100.837 397.168 93.9086 396.898L93.8957 396.911Z" fill="#878787"/>
<path d="M108.447 419.433C107.097 413.995 106.712 409.65 104.938 405.974C102.148 400.228 104.372 398.852 109.476 399.79C113.332 400.485 118.847 398.364 120.479 403.673C121.906 408.313 118.243 411.386 114.772 414.034C112.908 415.461 111.185 417.08 108.447 419.433Z" fill="#878787"/>
<path d="M82.4291 411C85.36 407.555 87.314 405.035 89.4736 402.747C92.0703 399.996 95.7468 397.965 99.0505 399.623C102.65 401.423 102.778 406.128 103.627 409.83C104.257 412.594 102.084 412.324 100.233 412.195C94.8984 411.797 89.5636 411.476 82.4291 411Z" fill="#878787"/>
<path d="M94.2172 428.598C92.6746 427.801 90.7206 414.586 91.8519 414.458C96.2868 413.905 101.737 413.031 104.784 415.821C108.975 419.677 98.0865 430.617 94.2172 428.624L94.2172 428.598Z" fill="#878787"/>
<path d="M46.3452 437.777C60.6398 438.008 70.461 447.649 71.4508 462.625C65.2805 452.11 57.8118 442.97 46.3452 437.777Z" fill="#878787"/>
<path d="M71.6568 427.172C71.2454 427.017 71.2968 426.4 71.7468 426.336C75.539 425.886 80.5267 426.04 83.9975 426.04C86.4656 426.04 91.9804 426.13 91.8261 430.475C91.7104 433.83 82.2749 438.921 82.2749 438.921C82.2749 438.921 81.5293 430.797 71.6568 427.172Z" fill="#878787"/>
<path d="M73.3021 422.852C77.5571 418.212 79.691 412.71 85.18 413.648C90.3091 414.535 88.9079 420.281 90.7076 425.217C84.9872 424.433 80.1409 423.778 73.2892 422.839L73.3021 422.852Z" fill="#878787"/>
<path d="M55.3309 453.601C49.5377 447.808 40.1449 447.808 34.3517 453.601C28.5584 459.394 28.5584 468.787 34.3517 474.58C40.1449 480.374 49.5377 480.374 55.3309 474.58C61.1242 468.787 61.1242 459.394 55.3309 453.601Z" fill="#878787"/>
</g>
<defs>
<clipPath id="clip0_4003_5234">
<rect width="116.168" height="650.538" fill="white" transform="translate(66.0005 526) rotate(-135)"/>
</clipPath>
</defs>
</svg>
