<svg xmlns="http://www.w3.org/2000/svg" width="512" height="512" viewBox="0 0 512 512" fill="none">
    <path fill="#878787" d="M 96.55000000000018 440.624 c 56 3.755 -2.04 5.19 -3.43 6.724 -11.76 13.236 -23.3 26.696 -37.36 37.636 -3.82 2.969 -7.78 5.788 -11.65 8.707 -2.07 1.572 -4.07 1.622 -7.59 -2.195 -5.43 -5.888 -11.26 -11.464 -17.02 -17.078 -2.65 -2.57 -2.91 -4.104 -1.86 -6.125 13.83 -26.384 43.73 -29.814 78.91 -27.669 Z m -42.41 -13.248 c 5.24 -4.366 10.45 -8.757 15.74 -13.073 3.12 -2.545 6.44 -4.865 9.53 -7.41 1.71 -1.41 3.38 -1.759 6.48 1.434 5.77 5.951 11.72 11.727 17.56 17.615 1.25 1.247 3.12 2.694 2.41 4.104 56 1.11 -1 2.669 -3.23 1.784 -9.12 -3.63 -17.74 -5.489 -25.95 -5.814 -7.83 299 -14.72 1.148 -22.54 1.335 v 25 Z"/>
    <path fill="#878787" d="M 38.68000000000029 443.456 c 12.84 -13.76 31.35 -18.375 56.79 -11.676 1.99 524 5.47 362 6.13 3.592 47 2.283 -1.37 4.042 -4.71 3.394 -12.55 -2.445 -23.87 -2.134 -34.59 612 -8.24 1.173 -15.88 3.331 -23.62 5.302 Z m 71.2 -21.091 208.73 -208.727 c 1.04 -1.043 1.1 -2.671 14 -3.635 l -18.16 -18.163 c 97 965 -2.6 901 -3.64 142 l -208.73 208.727 c -1.04 1.043 -1.1 2.67 14 3.635 l 18.17 18.163 c 96.964 2.59 901 3.63 142 NaN m 275.27 -326.043 -80.16 80.162 -3.52 9.605 a 2.4 2.4 0 0 0 55 2.52 l 19.54 19.535 a 2.38 2.38 0 0 0 2.44 574 l 9.94 -3.281 80.17 -80.162 c 5.04 -5.04 5.04 -13.198 0 -18.238 l -10.73 -10.728 c -5.04 -5.04 -13.2 -5.04 -18.24 0 l 1.013 NaN"/>
    <path fill="#fff" d="m 415.6800000000003 103.94400000000002 22.73 -10.005 c 2.13 636 3.88 -2.058 4.91 -3.992 l 23.73 -44.26 c 76 -1.434 91 -3.081 -2.32 -2.32 l -44.1 23.914 a 8.267 8.267 0 0 0 -3.97 4.89 l -10.04 22.791 9.06 8.982 Z m 7.66 -30.563 11 112 c 2.54 2.07 4.93 4.303 7.3 6.574 3.24 -3.593 13.96 -13.959 17.26 -17.29 4.04 -3.768 8.11 -8.408 12.22 -11.689 -7.5 8.146 -21 22.866 -28.81 30.725 l 61.586 NaN -2.56 -2.881 -5.14 -5.713 -7.48 -8.782 l 1 12 Z m 13.2 152.265 c 32 324 1.58 -1.584 1.9 -1.909 63.69 -62.435 59.71 -107.506 59.71 -107.506 l -24.2 5.09 s -14.82 23.302 -35.19 28.18 c -22.61 5.414 -39.97 -3.343 -39.97 -3.343 l -39.81 39.806 s 11.89 16.504 1.96 37.536 c -9.87 20.92 -29.3 31 -29.3 31 l -5.1 25.909 s 47.56 8.92 110 -54.763 Z m -14.41 -19.523 c 15.19 -14.77 29.09 -30.862 39.82 -49.15 3.84 -5.913 7.17 -12.138 10.21 -18.525 -2.38 6.674 -5.34 13.149 -8.69 19.423 -10.78 18.388 -24.86 34.717 -40.07 49.5 -19.91 19.859 -43.17 38.434 -70.98 45.332 26.53 -9.792 50.04 -26.384 69.72 -46.567 l 1 13 Z m -191.95 -22.068 25.91 -5.102 s 10.09 -19.423 31 -29.303 c 21.03 -9.929 37.54 1.959 37.54 1.959 l 39.8 -39.807 s -8.75 -17.364 -3.34 -39.968 c 4.88 -20.371 28.18 -35.191 28.18 -35.191 l 5.09 -24.201 s -45.07 -3.979 -107.49 59.716 c 33.324 -1.59 1.584 -1.91 1.909 -63.7 62.423 -54.78 109.988 -54.78 109.988 NaN m 27.75 -25.872 c 6.88 -27.793 25.46 -51.059 45.33 -70.981 14.78 -15.206 31.11 -29.315 49.5 -40.068 6.27 -3.356 12.75 -6.312 19.42 -8.695 -6.4 3.032 -12.62 6.387 -18.52 10.217 -18.29 10.728 -34.38 24.625 -49.15 39.819 -20.2 19.672 -36.79 43.175 -46.57 69.721 l 1 13 Z"/>
  </svg>