<svg width="429" height="423" viewBox="0 0 429 423" fill="none" xmlns="http://www.w3.org/2000/svg">
<path d="M335.809 19.4195C335.289 18.8795 334.909 18.1795 334.789 17.3795C334.469 15.3395 335.869 13.4395 337.889 13.1195L359.089 9.79948C361.129 9.47948 363.029 10.8795 363.349 12.8995C363.669 14.9395 362.269 16.8395 360.249 17.1595L339.049 20.4795C337.809 20.6795 336.629 20.2395 335.809 19.3995V19.4195Z" fill="white"/>
<path d="M305.813 39.618C305.693 39.498 305.573 39.358 305.473 39.218C304.253 37.558 304.593 35.218 306.253 33.998L323.513 21.258C325.173 20.038 327.533 20.378 328.733 22.038C329.953 23.698 329.613 26.038 327.953 27.258L310.693 39.998C309.173 41.118 307.093 40.918 305.813 39.618Z" fill="white"/>
<path d="M384.109 126.8C382.689 125.36 382.689 123.04 384.109 121.58L399.069 106.2C400.509 104.72 402.869 104.7 404.349 106.12L404.409 106.18C405.829 107.62 405.829 109.94 404.409 111.4L389.449 126.78C388.009 128.26 385.649 128.28 384.169 126.86L384.109 126.8Z" fill="white"/>
<path d="M374.069 19.0796C373.029 18.0196 372.689 16.3996 373.309 14.9796C374.129 13.0996 376.329 12.2396 378.229 13.0596L397.889 21.6396C399.749 22.4596 400.649 24.6596 399.809 26.5596C398.969 28.4596 396.789 29.2996 394.889 28.4796L375.229 19.8996C374.769 19.6996 374.389 19.4196 374.049 19.0996L374.069 19.0796Z" fill="white"/>
<path d="M386.269 18.6394C386.409 17.9794 386.529 17.3594 386.549 16.6994L378.569 13.1394C379.129 14.3594 379.249 15.6994 379.009 17.0394C378.709 18.4394 377.929 19.6194 376.829 20.5194L383.969 23.6994C385.069 22.1994 385.849 20.4994 386.269 18.6394ZM374.709 21.5994C373.709 21.8994 372.649 21.9394 371.589 21.7194L362.449 19.6994C361.809 19.5794 361.209 19.3394 360.689 19.0194C360.609 19.0394 360.549 19.0394 360.469 19.0794L351.909 20.3594C352.009 20.5794 352.109 20.7794 352.249 20.9594C352.789 21.7794 353.369 22.5194 354.049 23.2194C355.869 25.0794 358.209 26.3994 360.849 26.9594L369.989 28.9794C373.549 29.7794 377.189 29.1394 380.289 27.1794C381.189 26.5994 382.009 25.8994 382.729 25.1394L374.689 21.5794L374.709 21.5994ZM384.449 8.35938C382.529 5.27938 379.469 3.15938 375.909 2.35938L366.769 0.339382C363.209 -0.460618 359.549 0.159381 356.469 2.13938C353.849 3.81938 351.909 6.27938 350.929 9.23938L358.809 8.05938C358.989 8.03938 359.169 8.01938 359.369 7.97938C359.949 7.93938 360.509 8.01938 361.029 8.17938C362.269 7.47938 363.729 7.31938 365.149 7.63938L374.289 9.65938C375.209 9.85938 376.029 10.2594 376.729 10.8194C377.489 10.8194 378.309 10.9394 379.069 11.2994L386.569 14.6394C386.409 12.4394 385.669 10.2994 384.449 8.35938Z" fill="white"/>
<path d="M337.329 5.13937C333.729 4.49937 330.109 5.27937 327.089 7.37937L319.409 12.6994C316.429 14.7794 314.429 17.8994 313.789 21.4994C313.489 23.1594 313.489 24.8194 313.769 26.4394L322.169 20.2394C322.169 20.2394 322.229 20.1794 322.269 20.1794H322.289C322.669 19.6394 323.109 19.1794 323.669 18.7994L331.349 13.4794C332.429 12.7194 333.689 12.3394 334.969 12.3794C335.689 11.7794 336.609 11.3394 337.609 11.1994L345.509 10.0394C343.449 7.39937 340.549 5.71937 337.309 5.11937L337.329 5.13937ZM348.349 20.9194L339.929 22.1794C339.529 22.7194 339.029 23.2194 338.429 23.6394L330.729 28.9994C329.829 29.6194 328.789 29.9994 327.709 30.0794L320.189 35.6194C321.569 36.4594 323.149 37.0394 324.809 37.3594C328.389 38.0194 332.009 37.1994 335.009 35.1394L342.709 29.7794C345.809 27.6194 347.749 24.3794 348.329 20.9194H348.349Z" fill="white"/>
<path d="M412.149 60.2197C411.729 59.7997 411.409 59.2597 411.229 58.6397L405.289 38.0197C404.709 36.0397 405.869 33.9797 407.849 33.3997C409.829 32.8197 411.889 33.9597 412.469 35.9397L418.409 56.5597C418.989 58.5397 417.829 60.5997 415.849 61.1797C414.489 61.5797 413.069 61.1597 412.149 60.1997V60.2197Z" fill="white"/>
<path d="M405.289 98.1194C404.369 97.1794 403.969 95.7994 404.369 94.4594L410.429 73.8794C411.009 71.8994 413.089 70.7794 415.069 71.3594C417.049 71.9394 418.169 74.0194 417.589 75.9994L411.529 96.5794C410.949 98.5594 408.869 99.6794 406.889 99.0994C406.249 98.9194 405.709 98.5794 405.289 98.1394V98.1194Z" fill="white"/>
<path d="M264.989 106.079C278.969 91.6793 289.209 81.1993 292.409 78.0793C306.689 64.0793 293.129 51.3793 293.129 51.3793C293.129 51.3793 280.689 37.5593 266.409 51.5593C263.209 54.6793 252.529 64.7193 237.849 78.3993L264.989 106.099V106.079Z" fill="white"/>
<path d="M346.95 189.759C360.93 175.359 371.17 164.879 374.37 161.759C388.65 147.759 375.23 135.039 375.23 135.039C375.23 135.039 362.65 121.219 348.37 135.219C345.17 138.339 334.49 148.379 319.81 162.059L346.95 189.759Z" fill="white"/>
<path d="M415.049 84.6598L417.629 76.2798L415.049 84.6598Z" fill="white"/>
<path d="M418.349 56.4997C417.589 55.9997 416.729 55.6997 415.749 55.5997C413.849 55.4197 412.069 56.1197 410.829 57.3397L408.689 49.7797C410.869 48.5797 413.349 47.9797 415.949 48.1397L418.349 56.4997Z" fill="white"/>
<path d="M406.109 81.9598C405.549 81.5598 405.029 81.1398 404.569 80.6598C404.309 80.3998 404.029 80.0998 403.789 79.7998C401.469 76.9998 400.369 73.4398 400.729 69.7998L401.589 60.4998C401.949 56.4998 404.029 53.0398 407.049 50.8198L409.409 59.1598C409.409 59.1598 409.429 59.2998 409.469 59.3798C409.229 59.9398 409.069 60.5598 409.009 61.1998L408.169 70.5198C408.049 71.6198 408.249 72.6798 408.709 73.6398L406.109 81.9798V81.9598Z" fill="white"/>
<path d="M423.029 81.5799C421.269 83.0399 419.229 83.9399 417.069 84.3999L419.469 76.6199C419.749 75.8399 419.729 75.0199 419.629 74.2199C420.089 73.4599 420.389 72.5999 420.469 71.6799L421.349 62.3599C421.469 60.9399 421.109 59.5599 420.329 58.3999C420.449 57.6599 420.389 56.8799 420.169 56.0999L417.969 48.4199C420.969 49.0399 423.689 50.6399 425.649 53.0599C427.989 55.8799 429.089 59.3999 428.729 63.0399L427.869 72.3999C427.549 75.9999 425.789 79.2799 423.009 81.5999L423.029 81.5799Z" fill="white"/>
<path d="M412.449 35.8994C412.449 35.9394 412.489 35.9594 412.489 35.9794L414.929 44.4994L412.489 35.9994C412.489 35.9594 412.449 35.9394 412.449 35.8994Z" fill="white"/>
<path d="M394.489 28.3592L386.909 24.9792C387.229 22.5192 388.229 20.1392 389.889 18.1592L397.289 21.4592C396.949 21.6392 396.589 21.8792 396.309 22.1592C394.529 23.7592 393.889 26.1992 394.509 28.3592H394.489Z" fill="white"/>
<path d="M406.049 47.2995C402.709 47.1395 399.449 45.7795 396.969 43.2595L396.549 42.8395L390.289 35.8595C388.029 33.3395 386.849 30.1595 386.809 26.9795L394.049 30.2195C394.549 30.4595 395.109 30.5995 395.649 30.6395C395.709 30.7395 395.749 30.7995 395.829 30.8795L402.069 37.8195C402.529 38.3595 403.089 38.7595 403.669 39.0795L406.029 47.2995H406.049Z" fill="white"/>
<path d="M416.488 43.1394L414.288 35.4594C414.008 34.5394 413.508 33.7194 412.808 33.0394C412.688 31.7994 412.208 30.5594 411.288 29.5194L405.028 22.5994L404.828 22.3794C403.768 21.2794 402.308 20.6194 400.768 20.5194C400.368 20.4794 399.968 20.5194 399.628 20.5794C399.348 20.3394 399.008 20.1594 398.628 19.9994L391.188 16.6794L391.288 16.5794C396.848 11.5394 405.548 11.9994 410.548 17.5994L416.808 24.5794C421.628 29.9394 421.368 38.0194 416.468 43.1394H416.488Z" fill="white"/>
<path d="M390.569 112.299L390.149 112.779C388.349 109.219 388.069 104.899 389.849 100.959L393.709 92.4195C395.189 89.0795 397.889 86.5595 401.309 85.2395C402.649 84.7595 404.009 84.5195 405.369 84.4395L402.809 92.7995C401.809 93.4195 401.009 94.3595 400.489 95.4995L396.649 103.999C396.289 104.759 396.109 105.579 396.129 106.399L390.589 112.299H390.569Z" fill="white"/>
<path d="M407.109 119.319C404.409 120.339 401.549 120.479 398.909 119.739L404.929 113.359L405.829 112.359C406.369 111.779 406.769 111.119 407.029 110.439C407.369 110.039 407.649 109.579 407.889 109.079L411.749 100.539C411.969 100.059 412.029 99.5395 412.109 99.0395C412.589 98.4595 412.949 97.7995 413.149 97.0795L415.829 88.4595C417.129 89.7995 418.209 91.3595 418.869 93.1595C420.169 96.5795 420.069 100.299 418.549 103.599L414.709 112.159C413.189 115.459 410.509 117.999 407.089 119.299L407.109 119.319Z" fill="white"/>
<path d="M295.669 48.8598C298.709 51.9198 300.829 55.2798 301.849 58.7598C302.009 59.3398 302.149 59.8798 302.249 60.4398L317.449 45.5398C317.449 45.5398 321.011 41.304 318.911 35.584L314.685 38.6417C314.285 38.9217 313.838 39.2144 313.449 39.5398C313.209 40.5198 312.669 41.4598 311.869 42.2398C309.529 44.5398 305.749 44.5198 303.449 42.1798C301.149 39.8398 301.189 36.0398 303.529 33.7398C304.309 32.9798 305.229 32.4998 306.209 32.2598C307.027 31.5977 307.796 31.0359 308.656 30.4159L311.886 27.9197C305.946 25.0197 300.369 27.9198 300.369 27.9198L285.609 42.3798C288.649 43.2998 291.989 45.1398 295.669 48.8398V48.8598Z" fill="white"/>
<path d="M298.269 59.8195C297.409 56.8995 295.769 54.3595 293.009 51.4995C288.949 47.4395 285.549 45.9595 282.429 45.4995L281.649 46.2795L297.989 64.6195L298.889 63.7395C298.829 62.5795 298.669 61.2395 298.249 59.8395L298.269 59.8195Z" fill="white"/>
<path d="M377.589 132.579C380.749 135.679 382.749 138.959 383.789 142.479C383.909 142.879 383.989 143.259 384.069 143.659L396.169 131.799C396.169 131.799 399.869 127.599 397.249 121.659L396.629 122.319L392.969 126.159C392.689 126.479 392.309 126.779 391.949 126.979C391.709 127.359 391.449 127.699 391.129 128.039C388.889 130.219 385.309 130.179 383.129 127.959C380.949 125.739 380.989 122.159 383.209 119.959C383.589 119.599 384.009 119.299 384.449 119.059C384.569 118.879 384.669 118.699 384.829 118.539L387.709 115.499L389.369 113.719C383.749 111.179 379.049 114.219 379.049 114.219L367.089 125.939C370.249 126.799 373.729 128.659 377.609 132.559L377.589 132.579Z" fill="white"/>
<path d="M380.209 143.54C379.349 140.62 377.649 138.08 374.949 135.22C370.669 130.9 367.089 129.54 363.829 129.14L361.249 131.66L377.629 149.98L380.809 146.86C380.729 145.84 380.569 144.72 380.209 143.52V143.54Z" fill="white"/>
<path d="M66.5092 237.64L56.4492 247.12L92.5692 284L102.269 274.12L66.5092 237.64Z" fill="#878787"/>
<path d="M108.049 268.24L72.529 231.959L69.229 235.079L104.889 271.459L108.049 268.24Z" fill="#878787"/>
<path d="M31.8892 270.28L68.9092 308.06L72.0892 304.84L35.1892 267.18L31.8892 270.28Z" fill="#878787"/>
<path d="M50.4492 252.78L86.7892 289.88L89.9492 286.66L53.7292 249.68L50.4492 252.78Z" fill="#878787"/>
<path d="M37.9092 264.62L74.7092 302.18L84.1692 292.54L47.7292 255.34L37.9092 264.62Z" fill="#878787"/>
<path d="M75.229 229.4L110.669 265.58L120.929 255.12L85.889 219.36L75.229 229.4Z" fill="#878787"/>
<path d="M114.509 192.84L148.029 227.06C151.669 223.3 155.589 219.22 159.749 214.92L126.889 181.38C122.509 185.44 118.349 189.28 114.509 192.84Z" fill="#878787"/>
<path d="M129.629 178.84L162.349 212.22C163.409 211.12 164.489 210 165.569 208.88L133.029 175.68C131.889 176.74 130.749 177.8 129.629 178.84Z" fill="#878787"/>
<path d="M66.309 310.72L29.189 272.82L15.189 286.02C15.189 286.02 -13.651 310.36 8.14903 330.58C27.909 352.78 52.829 324.44 52.829 324.44L66.309 310.72Z" fill="#878787"/>
<path d="M94.6689 211.199L129.269 246.499C132.029 243.639 135.569 239.979 139.709 235.679L105.709 200.979C101.329 205.039 97.5889 208.499 94.6689 211.199Z" fill="#878787"/>
<path d="M108.449 198.44L142.289 232.98C143.309 231.92 144.349 230.84 145.429 229.72L111.769 195.36C110.629 196.42 109.529 197.44 108.449 198.44Z" fill="#878787"/>
<path d="M88.6089 216.82L123.529 252.46C124.209 251.74 125.269 250.64 126.669 249.2L91.9289 213.74C90.4489 215.1 89.3289 216.14 88.6089 216.82Z" fill="#878787"/>
<path d="M190.029 351.899L154.489 315.639L151.209 318.739L186.849 355.119L190.029 351.899Z" fill="#878787"/>
<path d="M148.489 321.299L138.429 330.779L174.549 367.659L184.249 357.779L148.489 321.299Z" fill="#878787"/>
<path d="M119.869 348.28L156.669 385.84L166.149 376.2L129.709 339.02L119.869 348.28Z" fill="#878787"/>
<path d="M132.409 336.459L168.749 373.539L171.929 370.319L135.709 333.339L132.409 336.459Z" fill="#878787"/>
<path d="M113.869 353.939L150.889 391.739L154.069 388.499L117.149 350.839L113.869 353.939Z" fill="#878787"/>
<path d="M157.209 313.08L192.629 349.24L202.909 338.8L167.869 303.02L157.209 313.08Z" fill="#878787"/>
<path d="M176.649 294.859L211.249 330.159C214.009 327.299 217.549 323.639 221.689 319.339L187.689 284.639C183.309 288.699 179.569 292.159 176.649 294.859Z" fill="#878787"/>
<path d="M190.429 282.12L224.269 316.66C225.289 315.6 226.329 314.52 227.409 313.4L193.749 279.04C192.609 280.1 191.509 281.12 190.429 282.12Z" fill="#878787"/>
<path d="M148.269 394.4L111.149 356.5L97.149 369.7C97.149 369.7 68.309 394.04 90.109 414.26C109.869 436.46 134.789 408.12 134.789 408.12L148.269 394.4Z" fill="#878787"/>
<path d="M211.589 262.519L244.309 295.899C245.369 294.799 246.449 293.679 247.529 292.559L214.989 259.359C213.849 260.419 212.709 261.479 211.589 262.519Z" fill="#878787"/>
<path d="M170.589 300.479L205.509 336.119C206.189 335.399 207.249 334.299 208.649 332.859L173.909 297.399C172.429 298.759 171.309 299.799 170.589 300.479Z" fill="#878787"/>
<path d="M196.489 276.5L230.009 310.72C233.649 306.96 237.569 302.88 241.729 298.58L208.869 265.04C204.489 269.1 200.329 272.94 196.489 276.5Z" fill="#878787"/>
<path d="M232.389 83.4795C204.849 109.119 166.209 144.959 135.769 173.159L168.149 206.219C196.969 176.359 233.589 138.459 259.789 111.459L232.389 83.4795Z" fill="#878787"/>
<path d="M314.349 167.14C286.809 192.78 248.169 228.62 217.729 256.82L250.109 289.88C278.929 260.02 315.549 222.12 341.749 195.12L314.349 167.14Z" fill="#878787"/>
</svg>
