<svg width="438" height="463" viewBox="0 0 438 463" fill="none" xmlns="http://www.w3.org/2000/svg">
<path d="M58.0739 343.36L2.21393 408.46C-1.08607 412.3 -0.646066 418.08 3.19393 421.38L19.9739 435.78L21.1139 452.46C21.6339 457.52 27.2339 463.62 32.2339 462.64C39.4539 461.22 44.8739 454.14 43.8539 447.28C42.8339 440.42 39.0739 438.96 38.6539 433.92C38.2339 428.88 41.8139 422.56 41.8139 422.56C41.8139 422.56 49.8739 414.54 61.2739 402.42C69.2339 393.96 86.4139 374.2 90.6939 362.36C91.6739 359.62 92.8539 357.18 94.1139 355.02C87.2939 354.04 71.1539 351.06 58.0539 343.34L58.0739 343.36ZM34.7939 452.68C33.4539 454.26 31.0739 454.44 29.5139 453.08C27.9339 451.74 27.7539 449.36 29.1139 447.8C30.4539 446.22 32.8339 446.04 34.3939 447.4C35.9739 448.74 36.1539 451.12 34.7939 452.68Z" fill="#878787"/>
<path d="M67.954 331.84L59.394 341.82C72.754 349.58 89.274 352.38 95.274 353.18C98.334 348.48 101.654 345.3 103.854 343.5C96.954 342.5 80.954 339.5 67.954 331.84Z" fill="#878787"/>
<path d="M90.0939 306.06L69.2939 330.3C83.4939 338.56 106.374 341.66 106.374 341.66C120.314 342.6 126.374 341.06 128.874 339.9C129.754 339.5 129.894 338.32 129.174 337.7L92.6139 305.86C91.8739 305.22 90.7339 305.3 90.0939 306.04V306.06Z" fill="#878787"/>
<path d="M437.674 70.4C437.674 70.4 386.454 169.9 267.954 237.5L154.334 315.12C153.374 303.58 159.494 292.54 166.074 283.46C188.134 254.22 222.074 238.4 252.954 220.42C313.514 181.86 363.414 128.58 406.734 71.56L404.294 69.48C390.294 88.34 375.354 106.52 359.794 124.08C322.514 165.68 280.954 203.28 231.334 229.74C206.994 243.38 182.754 260.66 165.794 283.26C159.274 292.42 153.234 303.58 154.314 315.14L129.394 332.16L95.5342 303.12L355.634 0L416.654 52.36V52.38L419.334 54.66L420.154 55.36L428.654 62.66L437.694 70.4H437.674Z" fill="white"/>
</svg>
