<svg width="416" height="432" viewBox="0 0 416 432" fill="none" xmlns="http://www.w3.org/2000/svg">
<path d="M284.366 106.44L125.646 258.46L166.146 302.02L166.546 301.68L170.906 302.1C171.926 302.2 172.946 301.88 173.706 301.2C180.826 294.86 218.805 260.96 261.445 219.94C330.005 154.02 415.246 62.08 415.086 0C415.086 0 302.806 107.42 284.366 106.44ZM170.326 281.86C232.006 223.28 298.985 164.72 349.545 96.2C355.565 88 358.345 83.88 363.545 75.2C353.205 83.58 347.825 86.68 336.725 94C323.805 102.06 309.766 110.68 295.646 115.34C325.666 101.78 352.166 81.64 377.246 60.56C364.706 84.52 347.666 105.7 330.266 126.22C283.706 180.7 223.025 233.64 170.305 281.86H170.326Z" fill="white"/>
<path d="M82.8853 293.78C86.6853 298.5 101.245 318.04 100.725 339.72C102.005 338.3 103.305 336.88 104.565 335.44C106.345 314.46 92.5453 294.82 87.9253 288.92L82.8853 293.8V293.78Z" fill="#878787"/>
<path d="M122.745 261.24L122.245 261.72L121.625 261.08C120.325 259.72 118.165 259.68 116.825 260.98L89.3652 287.52C93.8252 293.2 107.265 312.12 106.705 332.98C113.525 325.06 119.845 316.86 124.925 308.8C124.925 308.8 127.445 304.04 134.245 306.48C141.045 308.92 155.985 309.66 160.785 306.7L163.125 304.66L122.745 261.24Z" fill="#878787"/>
<path d="M81.4451 295.18L3.0451 370.94C-0.834896 374.6 -1.03489 380.72 2.60511 384.62L13.7251 396.58C17.1851 400.3 19.1051 405.18 19.0851 410.26V419.5C19.0851 426.92 25.6051 432.64 32.9651 431.66L34.5851 431.44C40.2651 430.68 44.2251 425.44 43.4251 419.78C43.4251 419.78 41.5051 416.46 40.5051 410.02C39.5051 403.58 40.3851 398.26 40.3851 398.26C40.3851 398.26 42.1651 394.92 48.4851 389.22C53.3051 384.88 76.9651 365.38 98.6051 342.02C100.305 320.28 85.4051 300.12 81.4251 295.16L81.4451 295.18ZM31.2651 384.22C28.1051 388.5 21.7651 388.28 18.9251 383.78C17.3451 381.28 17.4651 377.92 19.2251 375.54C22.3851 371.26 28.7251 371.48 31.5651 375.98C33.1451 378.48 33.0251 381.84 31.2651 384.22Z" fill="#878787"/>
</svg>
