<svg width="422" height="432" viewBox="0 0 422 432" fill="none" xmlns="http://www.w3.org/2000/svg">
<path d="M420.598 46.9794C424.318 31.8394 406.218 12.9794 406.218 12.9794C406.218 12.9794 386.718 -4.56061 371.738 1.13939C400.718 17.1594 414.298 34.9194 420.598 46.9794Z" fill="white"/>
<path d="M415.578 55.1795L417.578 53.1395C418.298 52.2195 418.898 51.2595 419.398 50.2595C413.638 38.4195 400.078 19.2795 369.078 2.43945C368.338 2.87945 367.618 3.37945 366.918 3.95945L364.398 6.59945C395.958 23.7195 409.718 42.9595 415.598 55.1595L415.578 55.1795Z" fill="#878787"/>
<path d="M50.8386 414.4L47.2985 410.96L20.2386 384.68L20.2186 384.7L16.6786 381.26C13.3386 378.02 8.01855 378.1 4.79855 381.42L2.89855 383.38C-1.04145 387.44 -0.961447 393.96 3.11855 397.9L19.6786 413.98L34.6386 428.48C38.6986 432.42 45.1786 432.34 49.1386 428.26L51.0386 426.3C54.2786 422.96 54.1986 417.64 50.8586 414.4H50.8386Z" fill="white"/>
<path d="M413.678 57.0994C408.078 45.2594 394.498 25.6194 362.638 8.41943L243.298 132.919C243.298 132.919 233.198 142.879 225.878 162.799C218.558 182.699 205.498 197.059 205.498 197.059L186.938 218.239L158.378 249.139C158.378 249.139 157.858 249.779 156.778 251.059L176.818 270.519C178.058 269.399 178.678 268.859 178.678 268.859L211.278 236.799L229.358 220.219C229.358 220.219 243.298 206.719 263.018 198.819C282.698 190.899 292.338 180.539 292.338 180.539L413.698 57.1194L413.678 57.0994Z" fill="white"/>
<path d="M113.179 297.72L131.459 315.46C132.939 313.9 133.539 313.26 134.939 311.8L116.719 294.1C115.299 295.56 114.679 296.18 113.179 297.7V297.72Z" fill="#878787"/>
<path d="M53.6983 355.439C47.9783 360.799 41.9983 366.339 35.7383 372.119L59.3983 395.099C64.9783 388.659 70.3583 382.519 75.5383 376.659L53.6983 355.459V355.439Z" fill="#878787"/>
<path d="M82.078 369.26L60.878 348.68C59.098 350.36 57.298 352.06 55.458 353.78L77.138 374.82C78.798 372.94 80.458 371.08 82.078 369.24V369.26Z" fill="#878787"/>
<path d="M100.758 348.479L81.0983 329.399C79.0183 331.419 76.8782 333.459 74.6982 335.559L94.7982 355.079C96.8182 352.839 98.8182 350.639 100.758 348.499V348.479Z" fill="#878787"/>
<path d="M127.418 283.1C124.878 285.76 121.298 289.44 118.398 292.4L136.618 310.08C139.498 307.1 143.078 303.42 145.658 300.8L127.418 283.1Z" fill="#878787"/>
<path d="M147.158 262.08C144.498 265 137.998 271.86 134.418 275.68L152.858 293.58C156.558 289.88 163.218 283.2 166.058 280.44L147.158 262.08Z" fill="#878787"/>
<path d="M83.6782 367.46C86.9182 363.82 90.0982 360.26 93.1582 356.86L72.9382 337.22C69.6182 340.38 66.1582 343.68 62.6182 347.02L83.6582 367.46H83.6782Z" fill="#878787"/>
<path d="M132.778 277.439C131.098 279.219 130.978 279.399 129.078 281.359L147.338 299.079C149.258 297.139 149.418 297.019 151.158 295.279L132.778 277.439Z" fill="#878787"/>
<path d="M175.018 272.139L155.198 252.899C153.358 255.019 152.378 256.339 148.798 260.299L167.818 278.759C171.678 275.059 172.958 274.039 175.018 272.139Z" fill="#878787"/>
<path d="M111.479 299.439C106.779 304.179 113.019 297.579 107.519 302.999L126.339 321.279C131.599 315.619 125.179 322.059 129.779 317.219L111.459 299.439H111.479Z" fill="#878787"/>
<path d="M33.9584 373.76C33.9584 373.76 32.0784 372.26 29.3384 375.08C27.4984 376.98 23.9784 380.68 21.8984 382.9L49.0184 409.22C51.1584 407.08 54.7784 403.44 56.6384 401.54C59.3784 398.72 57.8384 396.92 57.8384 396.92L33.9784 373.76H33.9584Z" fill="#878787"/>
<path d="M82.8184 327.72L102.378 346.7C106.198 342.52 121.178 326.84 124.718 323.04L105.818 304.68C102.118 308.32 86.9184 323.78 82.8384 327.72H82.8184Z" fill="#878787"/>
</svg>
