<svg width="490" height="490" viewBox="0 0 490 490" fill="none" xmlns="http://www.w3.org/2000/svg">
<path d="M53.2664 461.25C49.3954 458.272 44.9131 454.548 40.3329 450.119C39.9215 449.708 39.5018 449.305 39.1007 448.904C35.0488 444.852 31.6883 440.767 28.9822 437.118C27.584 436.747 25.6464 435.702 17.5349 438.137C11.4012 439.972 10.0541 445.145 14.7907 450.959C18.4298 455.424 34.9972 471.991 39.4721 475.641C45.2869 480.377 50.4596 479.03 52.2946 472.897C54.8465 464.38 53.564 462.66 53.2664 461.25Z" fill="white"/>
<path d="M425.731 96.0675C427.278 98.2219 428.763 100.481 429.794 102.843C431.353 101.387 432.894 99.9287 434.453 98.4723L426.257 95.2122L425.731 96.0675Z" fill="white"/>
<path d="M349.155 107.401L349.302 106.267L350.218 106.729L350.07 107.844L358.255 114.344L360.478 112.861C358.781 109.294 356.874 105.77 355.212 102.187C354.494 100.643 353.753 99.06 353.122 97.4692C350.62 100.156 348.129 102.854 345.629 105.559C346.634 106.261 347.626 107.017 348.591 107.78L349.143 107.372L349.155 107.401Z" fill="white"/>
<path d="M355.385 98.046C357.69 103.536 360.527 108.865 363.137 114.255C364.269 116.6 365.383 118.961 366.496 121.304C368.218 122.975 369.873 124.714 371.634 126.408C375.608 130.23 380.587 133.457 385.533 135.422C388.011 136.4 390.693 136.926 392.849 135.881C394.978 134.842 396.122 132.567 396.487 130.186C397.063 126.381 395.634 122.257 393.889 118.305C390.808 115.729 387.675 113.186 384.554 110.671L384.149 111.075L383.858 113.177L382.942 112.715L383.227 110.558L374.838 103.768L372.449 105.355L371.715 104.588L374.634 102.655C371.023 99.6846 367.392 96.6933 363.919 93.5232C362.921 93.5537 361.934 93.5945 360.937 93.6249C359.738 93.6724 358.528 93.7095 357.327 93.7383C357.115 93.7449 356.867 93.7666 356.584 93.8032C355.905 94.523 355.237 95.253 354.567 95.9642C354.821 96.6563 355.093 97.3503 355.385 98.046Z" fill="white"/>
<path d="M417.511 112.411L417.917 113.98C418.51 113.428 419.112 112.867 419.695 112.304C419.048 112.129 418.399 111.935 417.75 111.741L417.501 112.401L417.511 112.411Z" fill="white"/>
<path d="M442.281 90.6848C441.858 88.3923 440.407 86.1827 438.944 84.2313C438.934 84.221 438.923 84.2107 438.913 84.2004C438.503 83.993 438.084 83.7753 437.674 83.5678C431.782 80.472 426.151 76.6615 420.666 72.6244C418.339 72.6061 416.035 72.627 413.735 72.6853C410.981 72.7449 408.231 72.8418 405.495 72.9865C409.715 77.6107 414.109 82.1226 418.261 86.8143C419.814 87.8115 421.376 88.8003 422.931 89.8162C424.139 90.6032 425.413 91.4893 426.72 92.3416L426.909 92.0085L426.634 90.8235L427.592 90.9558L427.867 92.1408L437.285 95.7632L438.751 93.3714L439.458 93.7751C440.415 92.8794 441.373 91.9836 442.311 91.086C442.298 90.9551 442.296 90.8344 442.272 90.6932L442.281 90.6848Z" fill="white"/>
<path d="M337.04 116.781C338.386 120.907 340.923 124.725 343.727 128.235C346.647 131.897 349.915 135.334 353.037 138.876L354.422 138.56L354.968 137.624L355.725 138.347L355.188 139.276L361.158 147.806L364.05 147.279L364.522 148.205L361.256 148.798L360.782 148.963C361.037 149.387 361.303 149.821 361.549 150.253C362.783 152.413 363.702 154.579 364.402 156.779C365.454 157.291 366.509 157.757 367.585 158.142C368.296 158.398 369.026 158.572 369.743 158.699C372.17 156.477 374.606 154.246 377.034 152.024C376.763 149.766 376.033 147.452 375.268 145.255C374.022 141.667 372.457 138.131 370.832 134.636C368.843 130.372 366.636 126.161 364.593 121.911C363.786 121.154 362.954 120.423 362.09 119.745C360.564 118.556 358.959 117.59 357.351 116.606L356.648 117.268L356.367 119.379L355.451 118.918L355.736 116.761L347.347 109.971L344.958 111.558L344.224 110.79L347.039 108.922C346.898 108.815 346.767 108.7 346.626 108.594C345.886 108.038 345.145 107.483 344.39 106.964C341.797 109.762 339.206 112.579 336.624 115.388C336.745 115.863 336.866 116.338 337.025 116.817L337.04 116.781Z" fill="white"/>
<path d="M350.538 147.278C354.119 150.134 357.949 153.173 361.986 155.492C361.232 153.49 360.258 151.523 359.036 149.577L358.508 149.756L357.486 151.497L356.729 150.774L357.774 148.988L351.698 140.132L348.732 140.671L348.26 139.744L350.971 139.254C350.626 138.859 350.281 138.463 349.928 138.076C344.22 131.711 337.69 124.996 335.133 116.98C332.15 120.231 329.167 123.481 326.194 126.742C325.918 127.039 325.652 127.346 325.368 127.651C328.273 129.208 331.064 131.292 333.677 133.348C339.394 137.853 344.843 142.729 350.527 147.267L350.538 147.278Z" fill="white"/>
<path d="M426.902 101.148C426.208 99.9494 425.463 98.7824 424.681 97.6304L423.838 97.1575L424.077 96.7739C422.018 93.8556 419.731 91.0627 417.322 88.3504C417.055 88.185 416.797 88.0112 416.539 87.8373C409.071 83.0474 401.507 78.4147 393.884 73.943C390.184 74.3529 386.513 74.8769 382.89 75.5169C380.87 75.8716 378.855 76.2824 376.872 76.7428C377.452 78.0137 378.033 79.2847 378.613 80.5556L379.341 79.8686L379.953 80.7167L379.183 81.4458L382.906 89.9196C383.036 90.2011 383.165 90.4826 383.295 90.7641L386.352 90.9569L386.615 91.9277L383.746 91.7535C383.983 92.2772 384.231 92.8112 384.468 93.3349C384.667 93.7529 384.847 94.1691 385.046 94.5871C388.632 95.9995 392.146 97.8122 395.599 99.5633C399.519 101.546 403.426 103.583 407.391 105.459L407.095 104.254L408.051 104.367L408.354 105.546L417.822 108.932L419.218 106.487L420.138 106.986L418.56 109.737L418.457 110.005C419.433 110.324 420.404 110.587 421.381 110.824C423.711 108.638 426.04 106.453 428.378 104.259C427.971 103.144 427.465 102.066 426.951 101.181L426.902 101.148Z" fill="white"/>
<path d="M416.54 112.25L406.791 108.65L405.363 111.148L404.443 110.649L406.328 107.345L406.349 107.365L406.472 107.118C403.106 105.487 399.801 103.732 396.601 102.098C393.156 100.339 389.667 98.5009 386.11 96.9988C388.441 102.093 390.772 107.187 393.103 112.281C393.872 113.959 394.692 115.689 395.477 117.434C398.758 120.159 402.061 122.924 405.154 125.898C409.205 122.115 413.264 118.323 417.304 114.53L417.117 114.511L416.53 112.24L416.54 112.25Z" fill="white"/>
<path d="M374.075 75.0567C373.974 75.158 373.872 75.2594 373.771 75.3607C373.907 75.3278 374.024 75.293 374.15 75.2498C374.115 75.1814 374.089 75.1045 374.065 75.0464L374.075 75.0567Z" fill="white"/>
<path d="M457.662 72.0332L457.61 73.195L456.672 72.7961L456.725 71.653L448.163 65.7356L445.995 67.4926L445.219 66.7672L447.652 64.7864L448.025 64.3513C443.571 60.7224 439.123 57.0665 434.677 53.4292C429.123 48.8852 423.549 44.3393 417.994 39.7953C416.512 38.5829 414.059 36.4497 411.605 35.0572C409.563 37.2435 407.51 39.4195 405.468 41.6058C405.798 42.2221 406.173 42.8336 406.552 43.3807C406.81 43.7397 407.085 44.0819 407.361 44.4428L407.827 44.2854L408.274 43.2833L409.09 43.948L408.642 44.9314L415.264 53.0359L418.056 52.2393L418.599 53.136L415.51 54.0236C419.437 58.591 423.356 63.1667 427.283 67.7341C428.205 68.8074 429.145 69.8827 430.086 70.9579C437.263 71.329 444.91 71.9505 452.037 74.6134C453.672 75.2206 455.56 76.0473 456.958 77.344C458.534 75.8708 460.11 74.3975 461.676 72.914C460.474 72.6556 459.289 72.1951 458.12 71.6158L457.678 72.0164L457.662 72.0332Z" fill="white"/>
<path d="M395.011 60.0424C397.621 63.9323 400.65 67.5675 403.796 71.0848C408.509 70.7941 413.256 70.6549 418.025 70.6569C414.622 68.0957 411.267 65.4653 407.945 62.8845C403.891 59.7399 399.858 56.5328 395.658 53.596C395.369 53.3913 395.071 53.195 394.782 52.9903C393.962 53.872 393.132 54.7433 392.312 55.6249C393.137 57.1239 394.044 58.6033 395.011 60.0424Z" fill="white"/>
<path d="M375.751 74.3063C375.822 74.4616 375.904 74.6271 375.975 74.7823C380.85 73.6094 385.893 72.8237 390.974 72.2268C387.879 70.4466 384.778 68.6934 381.671 66.9674C379.603 69.179 377.517 71.3887 375.449 73.6003C375.557 73.8425 375.654 74.0744 375.76 74.2979L375.751 74.3063Z" fill="white"/>
<path d="M438.726 54.462C442.193 57.2888 445.612 60.2868 449.127 63.1276L449.517 62.6756L449.617 60.5185L450.555 60.9174L450.46 63.1306L459.236 69.3285L461.446 67.5294L462.222 68.2549L459.642 70.3414C460.908 70.8654 462.2 71.1977 463.507 71.2073C463.913 70.8217 464.311 70.4445 464.727 70.0691C466.099 68.7794 467.43 67.4484 468.741 66.097C468.42 62.0365 464.593 57.8217 461.912 54.7026C457.933 50.0838 453.886 45.5138 449.65 41.1103C446.388 37.7296 443.001 34.4107 439.459 31.2893L439.417 32.3595L438.479 31.9606L438.532 30.8174L429.97 24.9L427.801 26.657L427.025 25.9316L429.459 23.9509L429.741 23.6271C428.299 22.6223 426.832 21.6615 425.334 20.7531C423.632 22.3527 421.991 24.014 420.4 25.708C417.905 28.3678 415.401 31.0361 412.906 33.696C416.188 35.5968 419.238 38.5118 422.059 40.8113C427.614 45.3553 433.188 49.9012 438.743 54.4452L438.726 54.462Z" fill="white"/>
<path d="M415.116 66.163C417.11 67.6857 419.122 69.1916 421.15 70.6806C423.301 70.7093 425.446 70.7652 427.613 70.8603C426.997 70.16 426.381 69.4598 425.774 68.751C421.793 64.1136 417.802 59.4658 413.822 54.8283L412.849 55.2872L412.015 57.1492L411.199 56.4845L412.056 54.5786L405.319 46.157L402.473 46.9668L401.93 46.07L405.451 45.0587C404.967 44.3902 404.522 43.7253 404.13 43.0474C401.441 45.901 398.754 48.7733 396.065 51.6269C397.943 52.9158 399.77 54.3385 401.552 55.6826C406.1 59.1356 410.575 62.683 415.124 66.1546L415.116 66.163Z" fill="white"/>
<path d="M431.293 21.8272L431.394 19.6701L432.332 20.069L432.237 22.2822L441.012 28.4801L443.223 26.681L443.999 27.4065L441.068 29.7822L441.047 29.7616L440.707 30.0612C448.521 36.9322 455.578 44.6633 462.37 52.5161C465.478 56.113 469.018 59.9565 470.306 64.4281C471.754 62.8772 473.142 61.2834 474.489 59.6485C479.651 53.3549 479.941 45.7432 474.058 37.9899C471.041 34.0133 456.428 19.3998 452.441 16.3731C444.687 10.4899 437.084 10.771 430.782 15.9418C429.387 17.0903 428.033 18.28 426.69 19.4987C428.112 20.3809 429.52 21.3174 430.903 22.2792L431.293 21.8272Z" fill="white"/>
<path d="M455.486 78.4663C454.561 77.7259 453.481 77.2017 452.429 76.773C449.194 75.4418 445.822 74.7823 442.528 74.251C438.97 73.6749 435.411 73.284 431.858 73.0324C434.646 76.2085 437.429 79.4117 440.008 82.7152C441.437 83.4038 442.88 84.0381 444.35 84.5639C445.56 84.9992 446.856 85.3689 448.138 85.5889C450.619 83.2518 453.11 80.9249 455.6 78.5794C455.558 78.5382 455.517 78.4971 455.476 78.456L455.486 78.4663Z" fill="white"/>
<path d="M443.93 89.57C444.804 88.7585 445.658 87.9451 446.531 87.1336C445.06 86.7743 443.564 86.2551 442.095 85.646C442.869 86.9084 443.53 88.2429 443.941 89.5803L443.93 89.57Z" fill="white"/>
<path d="M361.867 89.1141C362.663 89.9434 363.492 90.739 364.357 91.5196C368.876 91.4226 373.424 91.5229 378.047 92.4735L378.026 92.453L379.516 91.0453L375.41 81.4127L372.27 81.2208L372.006 80.25L376.172 80.5068L376.182 80.5171L376.592 80.5393C376.082 79.4236 375.563 78.2976 375.054 77.182C373.691 77.5373 372.329 77.9112 371.001 78.3348C367.804 81.7584 364.588 85.1801 361.4 88.6139C361.565 88.7785 361.731 88.9617 361.867 89.1141Z" fill="white"/>
<path d="M360.139 89.9797C359.603 90.5563 359.059 91.1412 358.524 91.7177C359.623 91.6881 360.712 91.6482 361.801 91.6083C361.251 91.1091 360.669 90.5603 360.139 89.9797Z" fill="white"/>
<path d="M393.951 71.9024C394.803 71.8111 395.647 71.7284 396.509 71.6474C398.188 71.4903 399.871 71.3705 401.554 71.2508C397.618 66.7751 393.908 62.072 391.024 56.9971C388.335 59.8507 385.664 62.7061 382.975 65.5597C384.476 66.4036 385.972 67.2933 387.454 68.1353C389.623 69.3604 391.787 70.6314 393.94 71.8921L393.951 71.9024Z" fill="white"/>
<path d="M378.851 134.062C375.064 131.843 371.848 129.115 368.755 126.038C369.341 127.282 369.928 128.526 370.542 129.763C373.74 136.314 377.123 143.133 378.631 150.016C378.665 150.167 378.688 150.309 378.722 150.46C383.092 146.44 387.46 142.401 391.809 138.361C387.566 139.004 382.823 136.384 378.851 134.062Z" fill="white"/>
<path d="M436.125 80.6533C433.965 78.0213 431.681 75.4511 429.407 72.8911C427.573 72.7921 425.741 72.7117 423.922 72.679C426.035 74.1858 428.155 75.6654 430.313 77.0654C432.215 78.3103 434.151 79.5216 436.135 80.6636L436.125 80.6533Z" fill="white"/>
<path d="M396.905 120.882C397.868 123.497 398.566 126.132 398.583 128.727C398.584 130.042 398.409 131.349 398.038 132.562C399.989 130.756 401.929 128.939 403.869 127.122C403.684 126.937 403.49 126.761 403.297 126.584C401.214 124.636 399.072 122.746 396.905 120.882Z" fill="white"/>
<path d="M425.831 93.9103L425.852 93.9308L425.877 93.9056C425.65 93.7626 425.422 93.6196 425.204 93.4682C424.243 92.8448 423.273 92.2111 422.312 91.5877C423.262 92.7564 424.187 93.9505 425.076 95.1595L425.841 93.9205L425.831 93.9103Z" fill="white"/>
<path d="M325.411 173.331C325.188 173.226 324.956 173.129 324.732 173.023C328.933 178.942 332.2 186.37 331.848 192.892C335.329 189.802 338.841 186.66 342.387 183.484C340.868 182.453 339.393 181.316 337.928 180.272C334.02 177.475 329.639 175.336 325.403 173.34L325.411 173.331Z" fill="white"/>
<path d="M365.746 162.182C365.746 162.182 365.765 162.286 365.779 162.333C366.526 161.648 367.281 160.955 368.028 160.27C367.054 159.969 366.072 159.593 365.101 159.145C365.358 160.143 365.56 161.154 365.746 162.182Z" fill="white"/>
<path d="M338.72 160.124C338.424 159.946 338.137 159.76 337.842 159.583C338.911 161.023 339.964 162.479 340.997 163.934C343.485 167.432 345.963 170.939 348.028 174.654C348.468 175.448 348.951 176.302 349.39 177.179C352.23 174.628 355.093 172.032 357.998 169.394C356.443 168.666 354.938 168.155 353.266 167.544C348.229 165.691 343.395 162.997 338.701 160.122L338.72 160.124Z" fill="white"/>
<path d="M360.938 113.842L358.748 115.291C359.713 115.869 360.67 116.455 361.596 117.112C362.026 117.423 362.436 117.732 362.848 118.061C362.585 117.46 362.284 116.856 362.029 116.247C361.689 115.435 361.303 114.628 360.928 113.832L360.938 113.842Z" fill="white"/>
<path d="M322.402 148.12C324.466 149.224 326.5 150.398 328.502 151.625L324.72 147.304L322.394 148.128L322.402 148.12Z" fill="white"/>
<path d="M290.35 167.132C290.675 167.979 290.808 168.751 290.902 169.604C291.446 174.14 294.859 178.008 298.546 181.005C300.824 182.861 303.288 184.449 305.797 185.931L306.358 185.246L306.382 183.062L307.327 183.434L307.298 185.663L316.216 191.616L318.355 189.745L319.156 190.445L317.171 192.183C320.436 193.916 323.724 195.585 327.015 197.209C327.815 196.492 328.616 195.794 329.415 195.077C330.173 191.994 329.885 188.539 328.84 185.101C327.309 180.05 324.529 175.652 321.263 171.493C317.441 169.844 313.554 168.383 309.65 167.125C305.058 165.649 300.225 164.085 295.614 163.904C294.898 163.879 293.873 163.814 292.868 163.853C291.976 164.848 291.102 165.845 290.219 166.831C290.265 166.929 290.304 167.034 290.35 167.132Z" fill="white"/>
<path d="M321.542 147.663L321.369 147.405L325.019 146.12C323.094 143.807 321.134 141.51 319.14 139.247C318.483 138.505 317.754 137.692 317.048 136.834C315.045 139.043 313.078 141.237 311.127 143.414C313.498 144.066 315.839 144.975 318.136 146.009C319.281 146.531 320.421 147.098 321.534 147.672L321.542 147.663Z" fill="white"/>
<path d="M382.596 93.6852C382.302 93.0539 382.018 92.433 381.732 91.7933L380.086 91.9168L379.249 92.7133C379.894 92.8701 380.54 93.0268 381.189 93.2211C381.666 93.3611 382.134 93.5096 382.605 93.6768L382.596 93.6852Z" fill="white"/>
<path d="M306.287 149.879C306.683 150.881 307.221 151.824 307.831 152.737L308.311 152.544L308.7 151.517L309.54 152.138L309.16 153.156L316.143 160.981L318.853 160.019L319.44 160.893L316.389 161.969L315.853 162.258C318.104 164.779 320.337 167.298 322.432 169.933C323.73 170.506 325.02 171.088 326.313 171.708C330.417 173.672 334.686 175.717 338.473 178.409C340.177 179.625 341.94 181.051 343.772 182.242C345.175 180.983 346.578 179.724 347.989 178.457C346.605 175.439 344.796 172.518 342.898 169.727C339.956 165.387 336.856 161.124 333.659 156.917C333.304 156.696 332.967 156.477 332.622 156.267L331.962 158.017L331.123 157.396L331.754 155.736C329.195 154.12 326.637 152.523 324.008 151.039C321.504 149.614 318.966 148.306 316.347 147.203C314.307 146.342 311.957 145.34 309.76 144.945C308.509 146.34 307.267 147.726 306.034 149.103C306.116 149.371 306.207 149.63 306.306 149.881L306.287 149.879Z" fill="white"/>
<path d="M323.423 141.442C324.554 142.759 325.668 144.092 326.774 145.434L327.094 145.299L327.483 144.272L328.322 144.893L327.942 145.911L334.925 153.737L337.636 152.775L338.223 153.648L335.172 154.724L334.478 155.109C334.595 155.26 334.712 155.41 334.829 155.561C338.772 158.055 342.732 160.533 346.844 162.674C350.993 164.818 355.357 165.947 359.468 168.087C360.869 166.81 362.279 165.524 363.707 164.24C363.833 164.113 363.962 164.006 364.098 163.889C363.982 163.183 363.857 162.486 363.742 161.798C363.512 160.506 363.202 159.253 362.838 158.013C361.603 157.334 360.42 156.605 359.312 155.903C353.102 151.932 347.374 147.047 341.703 142.269C336.255 137.68 330.64 132.436 324.385 129.147C324.307 129.102 324.22 129.065 324.141 129.02C322.164 131.204 320.201 133.352 318.274 135.485C319.885 137.534 321.744 139.46 323.441 141.444L323.423 141.442Z" fill="white"/>
<path d="M383.663 96.0333C383.076 95.8176 382.5 95.6121 381.907 95.4235C377.22 93.92 372.507 93.4699 367.902 93.4472C367.438 93.4381 366.978 93.4665 366.506 93.4658C369.653 96.2422 372.865 98.9326 376.085 101.596L376.603 101.221L376.749 100.088L377.666 100.549L377.518 101.664L385.703 108.165L388.039 106.61L388.773 107.377L386.149 109.117L385.779 109.487C387.924 111.229 390.089 112.972 392.228 114.741C391.982 114.225 391.747 113.72 391.52 113.207C388.903 107.473 386.276 101.73 383.651 96.0043L383.663 96.0333Z" fill="white"/>
<path d="M407.128 77.3809C405.821 75.9729 404.523 74.5564 403.223 73.1213C401.115 73.2543 399.011 73.4248 396.919 73.6243C402.193 76.7419 407.419 79.9288 412.616 83.2055C410.772 81.244 408.922 79.3097 407.128 77.3809Z" fill="white"/>
<path d="M310.547 165.425C313.304 166.329 316.052 167.325 318.774 168.429C317.265 166.668 315.712 164.93 314.149 163.181L313.85 163.337L313.124 165.256L312.284 164.635L313.033 162.672L305.908 154.536L303.143 155.511L302.556 154.638L306.082 153.396C305.536 152.563 305.016 151.623 304.597 150.664C301.229 154.423 297.922 158.141 294.641 161.834C295.431 161.866 296.169 161.93 296.73 161.986C301.26 162.372 306.049 163.959 310.537 165.415L310.547 165.425Z" fill="white"/>
<path d="M425.352 111.44C424.046 111.348 422.688 111.101 421.331 110.772C420.78 111.282 420.239 111.802 419.688 112.313C421.553 112.813 423.423 113.184 425.287 113.397C429.417 113.854 431.665 111.216 431.076 107.157C430.864 105.682 430.407 104.247 429.795 102.843C429.313 103.305 428.82 103.756 428.338 104.217C429.628 107.781 429.812 111.773 425.362 111.451L425.352 111.44Z" fill="white"/>
<path d="M438.978 96.1063C438.717 96.1822 438.444 96.2291 438.189 96.2779L439.655 93.8862L439.449 93.7637C437.78 95.3296 436.103 96.9039 434.434 98.4698L435.919 99.0621L436.442 101.337L437.4 101.469L436.891 99.2421L437.264 98.3345C440.217 98.3226 442.921 97.2023 443.956 94.4806C444.551 92.919 444.421 91.2391 443.912 89.5677C443.369 90.0694 442.845 90.573 442.302 91.0747C442.587 93.5665 441.21 95.4577 438.959 96.1044L438.978 96.1063Z" fill="white"/>
<path d="M468.728 67.3642C468.429 69.9461 466.175 71.213 463.628 71.2097C463.59 71.206 463.544 71.2107 463.507 71.207C462.888 71.7845 462.278 72.3536 461.659 72.9311C462.928 73.2054 464.215 73.2964 465.499 73.0814C469.567 72.4487 471.529 68.9023 470.383 64.6393C470.367 64.5729 470.333 64.5046 470.307 64.4279C469.788 64.9876 469.259 65.537 468.73 66.0864C468.763 66.5064 468.768 66.9329 468.718 67.3539L468.728 67.3642Z" fill="white"/>
<path d="M364.313 167.995C364.227 168.801 364.062 169.748 363.127 169.757C362.266 169.754 361.134 168.994 360.359 168.555C360.065 168.396 359.763 168.246 359.47 168.087C358.986 168.53 358.51 168.964 358.016 169.397C358.521 169.632 359.028 169.886 359.549 170.188C360.963 170.995 362.755 172.063 364.257 171.712C367.545 170.974 366.283 165.079 365.779 162.334C365.219 162.852 364.659 163.371 364.089 163.879C364.312 165.281 364.46 166.676 364.313 167.995Z" fill="white"/>
<path d="M456.732 80.0816C456.91 80.6643 456.822 81.3687 456.5 82.0405C456.01 83.066 455.222 83.9972 454.324 84.6487C452.649 85.8713 450.419 85.983 448.167 85.6016C447.616 86.1117 447.075 86.6321 446.524 87.1423C451.033 88.2482 455.312 87.8773 457.878 83.9742C458.859 82.4788 459.272 80.4824 458 78.587C457.705 78.141 457.342 77.7436 456.944 77.38C456.513 77.7909 456.063 78.1999 455.631 78.6108C456.107 79.0193 456.571 79.584 456.733 80.1003L456.732 80.0816Z" fill="white"/>
<path d="M377.166 153.908C377.106 158.144 373.519 159.324 369.76 158.682C369.183 159.217 368.596 159.743 368.028 160.269C370.16 160.935 372.277 161.183 374.239 160.702C378.983 159.516 379.663 155.175 378.722 150.46C378.162 150.979 377.611 151.489 377.051 152.007C377.133 152.645 377.178 153.28 377.174 153.9L377.166 153.908Z" fill="white"/>
<path d="M360.054 86.7946C359.91 86.2802 360.09 85.2979 360.422 84.6363C360.88 83.7465 361.598 83.0492 362.395 82.3968C364.701 80.5424 367.674 79.4211 370.542 78.4653C370.695 78.4157 370.839 78.3744 370.991 78.3248C371.921 77.3336 372.85 76.3425 373.78 75.3514C372.264 75.7563 370.769 76.1818 369.29 76.6737C366.332 77.6576 363.404 78.8575 361.005 80.7213C359.415 81.9616 357.922 83.7023 358.023 86.0277C358.09 87.442 359.009 88.7652 360.127 89.9506C360.554 89.5023 360.963 89.0522 361.381 88.5936C360.781 87.9597 360.173 87.251 360.041 86.7656L360.054 86.7946Z" fill="white"/>
<path d="M392.082 138.332C395.202 137.763 397.157 135.438 398.037 132.562C395.961 134.495 393.884 136.428 391.807 138.361C391.899 138.351 391.992 138.36 392.082 138.332Z" fill="white"/>
<path d="M374.08 66.6385C374.848 63.6494 378.3 65.1133 380.593 66.3786C380.955 66.572 381.308 66.7739 381.662 66.9758C382.106 66.5106 382.541 66.0352 382.985 65.57C381.799 64.9056 380.595 64.258 379.374 63.7105C377.386 62.8183 375.208 62.4257 373.613 63.5267C370.348 65.8044 372.453 71.4129 374.083 75.048C374.536 74.5744 374.987 74.0821 375.44 73.6086C374.468 71.3725 373.539 68.7426 374.08 66.6385Z" fill="white"/>
<path d="M289.908 164.716C290.485 164.098 291.67 163.9 292.877 163.845C293.468 163.172 294.069 162.509 294.651 161.845C291.878 161.717 288.268 161.914 287.708 164.201C287.371 165.566 288.446 167.062 288.798 168.458C289.273 167.922 289.756 167.378 290.23 166.841C289.898 166.104 289.406 165.259 289.918 164.726L289.908 164.716Z" fill="white"/>
<path d="M317.726 134.819C316.133 132.669 315.079 129.897 317.271 128.466C319.202 127.214 321.841 127.865 324.123 129.018C324.541 128.56 324.958 128.101 325.376 127.642C325.024 127.459 324.669 127.239 324.309 127.064C320.72 125.346 315.912 125.053 314.347 128.592C313.147 131.335 314.967 134.266 317.045 136.816C317.446 136.374 317.846 135.933 318.255 135.482C318.075 135.251 317.896 135.039 317.716 134.808L317.726 134.819Z" fill="white"/>
<path d="M308.382 144.781C308.819 144.796 309.28 144.87 309.733 144.952C310.191 144.433 310.659 143.924 311.116 143.404C310.907 143.346 310.706 143.28 310.507 143.232C308.397 142.689 306.123 142.454 304.68 143.876C303.046 145.51 303.481 148.202 304.59 150.692C305.056 150.164 305.532 149.647 305.998 149.119C305.321 146.875 305.612 144.672 308.374 144.789L308.382 144.781Z" fill="white"/>
<path d="M328.359 197.861C327.901 197.64 327.453 197.41 327.014 197.19C326.52 197.623 326.036 198.065 325.55 198.489C326.622 199.022 327.685 199.563 328.755 200.077C329.202 200.288 329.63 200.025 329.821 199.711C331.106 197.644 331.718 195.324 331.847 192.892C331.039 193.618 330.221 194.333 329.422 195.05C329.186 196.026 328.835 196.973 328.367 197.853L328.359 197.861Z" fill="white"/>
<path d="M354.137 94.7269C354.053 94.4407 354.018 94.0852 353.925 93.8075C354.597 94.0409 355.703 93.9009 356.583 93.8032C357.236 93.1087 357.871 92.4124 358.524 91.718C357.083 91.7599 355.643 91.8019 354.198 91.8064C353.189 91.8079 352.163 91.6411 351.921 92.7469C351.78 93.3812 352.018 94.192 352.204 94.8495C352.45 95.7352 352.779 96.62 353.134 97.4981C353.611 96.9806 354.089 96.4817 354.566 95.9642C354.414 95.5602 354.261 95.1374 354.137 94.7269Z" fill="white"/>
<path d="M391.147 53.3975C390.915 52.9299 390.711 52.4558 390.506 51.9816C390.338 51.5944 390.141 50.6395 389.832 50.331C389.889 50.3365 389.955 50.3524 390.003 50.3664C390.49 50.5167 390.973 50.7129 391.432 50.9531C392.582 51.5305 393.701 52.2623 394.785 53.0091C395.213 52.5608 395.63 52.1022 396.058 51.6539C394.716 50.7333 393.334 49.8735 391.921 49.168C390.976 48.6943 389.831 48.1729 388.867 48.355C386.429 48.7978 388.517 52.0987 389.289 53.7128C389.817 54.8304 390.407 55.9264 391.034 57.0074C391.47 56.5506 391.896 56.0836 392.332 55.6269C391.924 54.8825 391.527 54.1484 391.166 53.3993L391.147 53.3975Z" fill="white"/>
<path d="M418.084 114.635L417.917 113.98C417.724 114.173 417.519 114.357 417.315 114.54L418.084 114.635Z" fill="white"/>
<path d="M421.448 16.4955C420.238 15.875 419.417 17.4975 420.638 18.1283C422.229 18.944 423.789 19.8308 425.316 20.7514C425.765 20.3236 426.234 19.9165 426.692 19.499C424.984 18.4308 423.235 17.4234 421.439 16.5039L421.448 16.4955Z" fill="white"/>
<path d="M404.937 35.0425C406.422 32.9398 409.026 33.6062 411.608 35.0762C412.036 34.6279 412.462 34.1609 412.89 33.7126C411.72 33.0313 410.517 32.4857 409.279 32.1403C404.898 30.9266 401.841 33.7159 402.298 38.0308C402.48 39.7621 403.174 41.4334 404.112 43.0455C404.565 42.5719 405.008 42.0881 405.452 41.6229C404.267 39.3935 403.627 36.8664 404.91 35.0491L404.937 35.0425Z" fill="white"/>
<path d="M406.55 127.259C406.097 126.807 405.628 126.371 405.157 125.916C404.725 126.327 404.292 126.72 403.86 127.13C404.933 128.135 406.009 129.178 406.928 130.316C407.16 130.598 407.523 131.181 407.652 131.36C407.673 131.381 407.673 131.381 407.693 131.401C407.193 132.148 408.203 133.545 409.073 132.983C411.111 131.686 407.775 128.501 406.55 127.259Z" fill="white"/>
<path d="M348.103 178.775C348.949 180.665 350.883 185.497 347.235 184.106C346.042 183.654 344.884 183.002 343.746 182.268C343.296 182.677 342.835 183.076 342.385 183.485C343.795 184.44 345.252 185.307 346.776 185.922C349.169 186.882 351.334 186.301 351.4 183.705C351.451 181.617 350.509 179.31 349.408 177.182C348.924 177.624 348.438 178.048 347.963 178.483C348.01 178.58 348.056 178.677 348.113 178.785L348.103 178.775Z" fill="white"/>
<path d="M336.003 110.371C336.009 108.473 336.122 104.863 338.135 104.249C339.278 103.908 340.843 104.749 341.943 105.377C342.786 105.85 343.598 106.375 344.395 106.936C344.804 106.486 345.231 106.038 345.641 105.588C344.466 104.767 343.279 104.001 342.029 103.358C339.541 102.082 336.964 101.594 335.488 103.707C333.244 106.939 333.733 112.312 334.982 116.493C335.026 116.655 335.088 116.819 335.151 116.982C335.653 116.439 336.136 115.895 336.637 115.352C336.222 113.69 336.009 112.011 336.003 110.371Z" fill="white"/>
<path d="M149.637 322.016C155.656 327.782 163.583 334.294 171.656 337.718C198.743 311.989 225.314 287.598 247.347 267.766C275.5 242.43 299.888 221.23 325.531 198.488C322.239 196.864 318.96 195.186 315.705 193.463L314.733 194.395L314.719 195.56L313.774 195.188L313.79 194.042L305.094 188.361L303.008 190.2L302.206 189.5L304.566 187.429L304.633 187.361C302.8 186.253 301.01 185.102 299.281 183.828C295.794 181.268 292.351 178.129 290.401 174.258C289.445 172.376 289.185 170.683 288.854 168.751C288.834 168.647 288.806 168.552 288.778 168.457C267.222 192.809 246.816 216.239 222.655 243.074C202.03 265.982 176.486 293.809 149.627 322.005L149.637 322.016Z" fill="white"/>
<path d="M94.1596 414.372C95.3501 413.12 96.5678 411.861 97.7771 410.611C91.7811 403.772 87.308 395.205 84.3241 388.296C80.5158 392.002 76.7375 395.636 72.9891 399.199C78.8212 404.762 86.4003 410.942 94.1596 414.372Z" fill="#878787"/>
<path d="M135.914 372.227C138.876 369.327 141.847 366.418 144.828 363.519C141.746 361.397 138.835 358.858 136.161 356.184C132.624 352.646 129.517 348.883 127.009 345.549C124.355 348.286 121.689 350.994 119.032 353.712C123.21 359.962 129.12 367.421 135.924 372.238L135.914 372.227Z" fill="#878787"/>
<path d="M112.48 395.578C106.578 388.851 102.109 380.506 99.0957 373.77C94.4693 378.376 89.8627 382.901 85.3131 387.347C88.2559 394.215 92.713 402.901 98.6444 409.742C103.161 405.061 107.777 400.343 112.48 395.578Z" fill="#878787"/>
<path d="M145.722 362.645C148.526 359.923 151.338 357.193 154.161 354.473C147.608 347.718 142.407 339.366 139.017 333.129C135.316 336.975 131.595 340.819 127.873 344.644C132.288 350.492 138.608 357.788 145.73 362.636L145.722 362.645Z" fill="#878787"/>
<path d="M118.122 354.622C114.867 357.938 111.611 361.235 108.37 364.497C113.748 369.774 120.872 375.854 128.314 379.724C130.521 377.517 132.766 375.314 135.001 373.119C132.758 371.516 130.61 369.654 128.604 367.649C124.481 363.525 120.929 358.828 118.113 354.631L118.122 354.622Z" fill="#878787"/>
<path d="M100.056 372.81C103.028 379.506 107.482 387.969 113.329 394.709C117.95 390.047 122.642 385.355 127.388 380.65C119.881 376.68 112.824 370.635 107.496 365.391C105.003 367.885 102.526 370.361 100.058 372.829L100.056 372.81Z" fill="#878787"/>
<path d="M62.5183 448.686C65.7373 445.015 69.0882 441.273 72.5795 437.453C65.4064 429.488 60.0237 419.877 57.1225 414.078C52.0817 418.707 47.1617 423.154 42.3756 427.364C46.6386 433.447 53.9849 442.781 62.5183 448.686Z" fill="#878787"/>
<path d="M83.7579 425.349C86.8475 422.053 90.0252 418.711 93.2468 415.346C85.408 411.769 77.8953 405.604 72.1025 400.064C69.92 402.144 67.744 404.197 65.5932 406.224C70.0871 412.857 76.4557 420.742 83.7579 425.349Z" fill="#878787"/>
<path d="M61.6965 449.633C58.6912 447.538 55.8321 445.049 53.22 442.437C48.3248 437.542 44.2568 432.21 41.4491 428.19C40.2736 429.221 39.0981 430.253 37.9479 431.259C34.0182 434.674 32.3113 435.949 31.2016 436.339C34.0516 440.133 37.602 444.357 41.9045 448.508C46.2276 452.679 50.45 456.211 54.1536 459.089C54.6079 457.976 55.9269 456.246 59.1842 452.495C60.007 451.549 60.855 450.578 61.7049 449.625L61.6965 449.633Z" fill="#878787"/>
<path d="M139.922 332.163C143.269 338.34 148.513 346.835 155.048 353.607C160.262 348.578 165.48 343.587 170.693 338.641C162.557 335.053 154.731 328.626 148.782 322.913C145.839 326 142.895 329.088 139.933 332.174L139.922 332.163Z" fill="#878787"/>
<path d="M73.4044 436.526C76.4866 433.156 79.6549 429.72 82.9028 426.246C80.0648 424.435 77.3776 422.186 74.8889 419.698C70.8988 415.707 67.4271 411.157 64.6493 407.066C62.4293 409.142 60.243 411.184 58.053 413.189C60.8506 418.783 66.2547 428.517 73.3941 436.515L73.4044 436.526Z" fill="#878787"/>
</svg>
