<svg xmlns="http://www.w3.org/2000/svg" width="512" height="512" viewBox="0 0 542 542" fill="none">
      <path fill="#fff" d="M 171.33199999999943 329.369 c 9.64 3.47 18.28 4.627 26.98 5.643 4.22 488 6.76 -1.594 9.4 -4.229 46.43 -46.51 92.89 -92.993 139.33 -139.463 33.42 -33.423 64.71 -62.758 74.3 -71.679 -8.93 9.602 -38.24 40.891 -71.68 74.301 -46.47 46.471 -92.96 92.915 -139.46 139.334 -2.63 2.636 -4.72 5.181 -4.23 9.397 1 8.716 2.15 17.342 5.65 26.983 3.31 -3.317 5.95 -5.746 8.35 -8.382 49.6 -54.684 98.86 -109.652 148.81 -164.003 39.1 -42.549 95.34 -101.515 131.92 -156.572 35.218 72.437 -1.08 668.23 36.46 72.67 -1.08 -55.05 36.585 -114.01 92.826 -156.58 131.917 -54.35 49.955 -109.32 99.215 -164 148.809 -2.65 2.391 -5.08 5.052 -8.38 8.356 NaN"/>
      <path fill="#fff" d="M 179.4920000000002 336.94000000000005 c 6.4 797 12.55 1.748 18.73 2.224 3.34 257 3.72 2.198 4.04 4.73 74 5.914 1.58 11.814 2.4 17.804 -10.94 -2.429 -20 -11.286 -25.16 -24.745 l 1 13 Z"/>
      <path fill="#878787" d="M 175.72199999999975 367.75300000000004 c -4.48 -4.486 -8.99 -8.947 -13.45 -13.459 -13.54 -13.716 -15.57 -34.618 -4.92 -50.725 1.66 -2.507 3.45 -5.117 6.45 -6.184 2.3 809 5.02 -1.221 6.68 1.003 1.75 2.34 89 3.638 -2.06 5.168 -2.02 2.635 -4.33 5.077 -6.12 7.867 -5.91 9.23 -3.81 16.956 6.19 21.172 3.67 1.543 5.73 3.651 7.32 7.147 4.79 10.387 11.66 19.141 22.1 24.309 5.5 2.725 9.6 5.746 12.2 11.942 3.16 7.507 10.18 9.076 17.55 5.438 2.66 -1.324 5.04 -3.291 7.39 -5.155 2.48 -1.967 3.83 -5.836 7.82 -5.091 1.56 283 1.73 2.327 1.65 3.844 2 4.062 -1.31 7.096 -5.43 9.526 -19.08 11.26 -37.89 9.242 -53.35 -6.351 -3.41 -3.432 -6.83 -6.826 -10.25 -10.245 7 64.13 129.18 18 NaN 5 26 NaN NaN -94.67 133.164 NaN -8.41 7.585 -18.54 10.413 -29.7 6.222 -11.76 -4.409 -18.55 -13.408 -19.06 -26.005 5 -12.277 5.66 -21.134 16.25 -27.15 3.11 -1.774 5.78 771 8.62 296 14.38 5.424 23.89 15.683 29.89 29.605 3.19 7.404 -1.48 11.865 -5.99 17.045 l 1 13 Z m -8.06 -33.075 c -6.93 -6.852 -17.25 -6.762 -24.09 205 -6.49 6.621 -6.49 18.061 2 24.515 6.21 6.183 18.5 5.977 24.67 425 6.5 -6.723 6.24 -17.572 56 -24.295 Z m 98.13 -72.888 c -3.4 -11.376 -7.48 -20.67 -14.43 -28.37 -1.66 -1.839 -2.05 -3.561 16 -5.477 1.92 -1.915 3.79 -2.866 6.25 797 6.97 5.837 12.92 12.585 18.36 19.823 1.67 2.211 1.04 3.792 66 5.463 -2.78 2.751 -5.53 5.528 -9.37 9.371 l 1 13 Z"/>
      <path fill="#878787" d="M 154.39199999999983 409.635 c -1.57 -8.767 -3.26 -16.905 -5.61 -25.967 7.87 2.802 18.19 63 19.99 9.242 1.86 8.96 -9.37 10.863 -14.37 16.712 l 1.013 NaN m -73.73 35.672 c 18.077 35.167 51.257 35.193 66.424 95.694 -1.42 1.312 -2.34 3.343 -3.46 5.001 -1.76 2.635 45 4.049 1.18 4.602 73.553 4.81 3.316 5.36 3.818 49.565 3.16 4.011 3.82 5.36 66 1.35 1.97 2.944 4.6 1.183 1.66 -1.118 3.7 -2.031 5 -3.458 27 27.52 591.7 951.09 167.18 334.25 514.04 116.09 245.13 36.03 78.05 155.08 232.91 -3.072 35 -7.674 -3.54 -11.248 NaN 164.164 0 0 1 2 77 NaN 13 128 25 244 36 36 13 128 25 244 36 36 1 13 5 26 8 26 -3.57 -3.188 -8.17 -4.447 -11.25 -3.535 7.026 15.052 23.078 11.038 24.064 36.128 Z m 58.32 -20.478 c -1.28 -6.453 -2.51 -10.747 -2.85 -15.117 26 -3.342 -5.1 -8.06 33 -9.719 4.75 -1.645 11.6 681 15.17 3.291 2.9 3.24 1.63 8.472 -2.37 11.981 -2.91 2.545 -5.51 5.438 -9.63 9.551 l 1.013 NaN m 11.33 -25.903 c -9.32 -1.144 -17.15 -2.93 -26.92 -2.031 6.97 -6.864 10.27 -17.135 20.3 -14.281 6 1.709 3.48 10.374 6.62 16.312 Z m -10.81 -19.243 c 4.74 -4.538 7.25 -13.729 13.75 -12.418 6.5 1.298 8.04 10.168 12.23 17.264 -9.51 -1.491 -17.37 -4.101 -25.98 -4.846 Z m -29.46 33.371 c 3.22 -3.818 5.64 -6.492 7.84 -9.333 2.57 -3.316 5.88 -5.476 10 -5.064 4.83 488 3.83 5.373 5.17 8.407 2.07 4.743 2.23 7.995 -4.91 6.813 -5.47 913 -11.16 566 -18.09 836 l 1.013 NaN m 14.55 22.522 c -1.35 -5.438 -1.74 -9.783 -3.51 -13.459 -2.79 -5.746 57 -7.122 4.54 -6.184 3.85 695 9.37 -1.426 11 3.883 1.43 4.64 -2.24 7.713 -5.71 10.361 -1.86 1.427 -3.58 3.046 -6.32 5.399 Z M 98.57200000000012 427.14300000000003 c 2.93 -3.445 4.88 -5.965 7.04 -8.253 2.6 -2.751 6.28 -4.782 9.58 -3.124 3.6 1.8 3.73 6.505 4.58 10.207 63 2.764 -1.55 2.494 -3.4 2.365 -5.33 398 -10.67 719 -17.8 -1.195 Z m 11.79 17.598 c -1.55 797 -3.5 -14.012 -2.37 -14.14 4.44 553 9.89 -1.427 12.93 1.363 4.19 3.856 -6.69 14.796 -10.56 12.803 v 26 Z"/>
      <path fill="#878787" d="M 62.49200000000019 453.9200000000001 c 14.29 231 24.11 9.872 25.1 24.848 -6.17 -10.515 -13.64 -19.655 -25.1 -24.848 Z m 25.31 -10.605 c 41 155 36 772.09 836 3.79 45 8.78 296 12.25 296 2.47 0 7.98 9 7.83 4.435 12 3.355 -9.56 8.446 -9.56 8.446 NaN 74 -8.124 -10.61 -11.749 NaN NaN 1.64 -4.32 NaN 4.26 -4.64 6.39 -10.142 11.88 -9.204 5.13 887 3.73 6.633 5.53 11.569 -5.72 784 -10.57 -1.439 -17.42 -2.378 NaN 1.013 NaN m -17.97 30.749 c -5.79 -5.793 -15.19 -5.793 -20.98 0 -5.79 5.793 -5.79 15.186 0 20.979 5.79 5.794 15.19 5.794 20.98 0 5.79 -5.793 5.79 -15.186 0 -20.979 Z"/>
    </svg>