<svg width="438" height="434" viewBox="0 0 438 434" fill="none" xmlns="http://www.w3.org/2000/svg">
<path d="M307.735 93.7598L308.255 94.3398L307.715 93.7798L307.735 93.7598Z" fill="white"/>
<path d="M382.015 104.96C369.655 114.62 358.615 125.98 349.455 138.78C347.375 138.28 339.435 135.84 341.655 127.68L341.445 127.339L340.883 126.636L340.275 125.86L308.295 94.3798L308.255 94.3398L307.735 93.7598L306.715 92.6198C298.595 94.7398 296.195 86.8198 295.715 84.7598C308.455 75.5998 319.955 64.6998 329.635 52.2998C338.695 54.1398 336.115 63.4198 336.115 63.4198L336.195 63.5198C336.195 63.5198 336.155 63.5598 336.135 63.5798L337.149 64.8256L338.625 66.6152L367.915 95.6598L370.755 98.4998C370.755 98.4998 370.835 98.4398 370.875 98.3998L370.915 98.4398C370.915 98.4398 380.215 95.8798 382.015 104.96Z" fill="white"/>
<path d="M343.814 71.8206C348.574 65.7806 353.294 64.7606 357.074 65.4806C356.274 66.2806 356.354 67.5806 357.314 69.3806C358.054 70.7806 359.294 72.3806 360.794 73.8806C362.594 75.6806 365.674 78.1606 367.794 78.1606C368.254 78.1606 368.654 78.0206 369.014 77.7406C369.574 81.4606 368.414 86.0406 362.554 90.6206C359.563 88.493 344.023 72.7385 343.814 71.8206Z" fill="white"/>
<path d="M427.316 147.12L437.076 137.4L429.316 129.62L431.135 127.82L404.436 101.04L402.816 102.68L393.796 93.6401C376.74 110.662 365.055 123.747 341.396 147.36L349.336 155.32L347.696 156.94L374.376 183.7L375.816 182.26L383.756 190.22L393.536 180.46L393.716 180.64C394.896 181.84 396.836 181.86 398.036 180.66L427.656 151.12C428.676 150.12 428.676 148.48 427.656 147.46L427.336 147.12H427.316ZM409.256 138.56C409.256 138.56 398.936 128.18 395.116 124.36L383.096 136.34L377.635 141.9L372.376 147.16L367.916 147.26C367.916 147.26 389.776 125.46 394.056 121.18L395.135 120.12L396.196 121.18C398.516 123.54 407.916 132.96 407.916 132.96L413.476 138.5L409.256 138.56Z" fill="white"/>
<path d="M368.555 75.3196C368.555 74.9996 367.675 72.7396 364.755 69.7996C362.035 67.0796 359.895 66.1196 359.235 66.0996C359.235 66.7596 360.195 68.9196 362.915 71.6396C365.835 74.5796 368.115 75.4396 368.575 75.3196H368.555Z" fill="white"/>
<path d="M337.895 43.4L328.875 34.34L330.495 32.72L303.815 5.96L302.015 7.78L294.255 0L284.495 9.72C283.295 8.54 281.375 8.54 280.175 9.72L250.875 38.92C249.675 40.12 249.675 42.06 250.875 43.26L251.055 43.44L241.295 53.18L249.215 61.12L247.755 62.56L274.455 89.34L276.075 87.72L283.995 95.66C301.732 77.9929 320.162 61.0637 337.895 43.4ZM307.995 42.9C307.995 42.9 297.675 32.52 293.855 28.7L281.835 40.7L276.375 46.24L271.115 51.5L266.635 51.6C266.635 51.6 288.515 29.8 292.795 25.52L293.855 24.46L294.915 25.54C297.255 27.88 306.655 37.3 306.655 37.3L312.195 42.86L307.995 42.9Z" fill="white"/>
<path d="M327.815 127.8H327.835L307.055 106.94H307.035L302.875 102.8C302.875 102.8 297.595 102.42 297.335 108.32L301.535 112.54L322.215 133.28L326.415 137.48C332.315 137.24 331.955 131.96 331.955 131.96L327.795 127.8H327.815Z" fill="white"/>
<path d="M308.235 97.3598C308.235 97.3598 302.535 96.6798 302.755 102.82L331.935 132.1C338.095 132.34 337.415 126.64 337.415 126.64L308.235 97.3598Z" fill="white"/>
<path d="M320.775 134.68L300.095 113.94L300.055 113.98L297.115 111.04L295.835 112.36C294.475 113.76 294.495 116 295.875 117.38L296.215 117.72L289.595 124.32L310.375 145.16L316.995 138.56L317.595 139.18C318.815 140.42 320.815 140.44 322.075 139.22L323.675 137.68L320.715 134.72L320.755 134.68H320.775Z" fill="white"/>
<path d="M89.1914 327.027L32.4448 383.616L50.2955 401.516L107.042 344.928L89.1914 327.027Z" fill="#878787"/>
<path d="M201.156 215.36L198.116 218.38C204.176 224.6 211.536 230.38 219.496 232.88L228.836 223.58C228.696 223.58 228.556 223.58 228.416 223.58C219.096 223.58 209.376 219.8 201.156 215.36Z" fill="#878787"/>
<path d="M9.71561 397.78L2.51562 404.96C2.51562 404.96 -4.98439 415.14 5.91561 427.98C18.7356 438.94 28.9156 431.46 28.9156 431.46L36.1156 424.28L9.71561 397.78Z" fill="#878787"/>
<path d="M213.255 239.12L217.815 234.56C209.855 231.82 202.595 226.06 196.595 219.9L193.255 223.22C198.775 229.4 205.655 235.58 213.235 239.1L213.255 239.12Z" fill="#878787"/>
<path d="M19.2157 390.4L18.1557 389.32C18.1557 389.32 11.6157 388.72 11.1157 396.34L15.3157 400.56L33.3157 418.64L37.5157 422.84C44.8957 422.38 44.5957 416.26 44.5557 415.86L19.1757 390.42L19.2157 390.4Z" fill="#878787"/>
<path d="M191.776 224.72L106.076 310.18L123.976 328.14L211.656 240.72C204.056 237.04 197.256 230.86 191.776 224.72Z" fill="#878787"/>
<path d="M284.855 125.24C284.355 124.84 283.635 124.84 283.175 125.3L281.415 127.06C280.075 128.38 280.075 130.54 281.415 131.88L283.155 133.62L202.735 213.8C211.395 218.38 221.615 222.14 231.055 221.38L301.055 151.58L303.055 153.58C304.255 154.78 306.175 154.78 307.375 153.58L309.095 151.88C309.715 151.26 309.735 150.26 309.175 149.6L284.895 125.24H284.855Z" fill="#878787"/>
<path d="M26.7357 380.78C26.7357 380.78 19.6557 379.6 19.6357 387.86L46.0557 414.34C54.3157 414.34 53.1557 407.26 53.1557 407.26L26.7357 380.78Z" fill="#878787"/>
<path d="M122.555 329.54L104.655 311.6L104.615 311.64L98.9554 305.96L95.9754 306.24L85.2354 316.96L84.7754 319.76L90.6354 325.62L90.6154 325.64L108.455 343.54H108.475L114.335 349.4L117.135 348.96L127.895 338.24L128.155 335.26L122.515 329.6L122.555 329.54Z" fill="#878787"/>
</svg>
