<svg xmlns="http://www.w3.org/2000/svg" width="512" height="512" viewBox="0 0 512 512" fill="none">
    <path fill="#878787" d="m 172.03999999999996 317.371 -4.3 -3.309 a 51.627 51.627 0 0 1 -10.41 -10.718 l -3.18 -4.396 146.64 -142.327 s 2.35 4.554 7.95 10.169 c 5.61 5.614 9.93 8.253 9.93 8.253 l -146.63 142.328 Z m 154.5 -142.46 92 552 c -4.73 -2.79 -9.12 -6.114 -12.97 -10.02 l -1.33 -1.373 c -3.76 -3.958 -6.97 -8.433 -9.63 -13.255 l 52 941 79.38 -77.05 s 9.69 1.905 16.73 9.156 c 7.04 7.252 8.65 16.998 8.65 16.998 l -79.38 77.05 1 13 Z m -258.39 203.118 -11.55 11.205 c 2.29 4.356 5.31 8.933 9.24 12.986 3.94 4.052 8.46 7.246 12.77 9.636 l 11.55 -11.205 c -4.29 -2.416 -8.77 -5.57 -12.75 -9.662 -3.97 -4.093 -6.96 -8.591 -9.26 -12.96 Z"/>
    <path fill="#878787" d="m 81.04999999999995 365.504 -11.54 11.205 c 2.28 4.356 5.3 8.933 9.24 12.986 3.93 4.052 8.45 7.246 12.77 9.636 l 11.54 -11.205 c -4.28 -2.416 -8.77 -5.57 -12.74 -9.662 -3.97 -4.093 -6.97 -8.591 -9.27 -12.96 Z m -38.88 37.742 -11.71 11.361 c 2.18 3.921 4.96 7.93 8.46 11.542 4.44 4.572 9.5 7.945 14.23 10.42 l 11.37 -11.037 c -4.52 -2.472 -9.28 -5.748 -13.48 -10.08 -3.72 -3.826 -6.61 -8.086 -8.87 -12.206 Z"/>
    <path fill="#878787" d="m 55.24000000000001 390.553 -11.71 11.373 c 2.23 4.146 5.13 8.406 8.84 12.232 4.21 4.332 8.99 7.609 13.51 10.054 l 11.37 -11.037 c -4.28 -2.415 -8.77 -5.569 -12.74 -9.662 -3.97 -4.092 -6.97 -8.59 -9.27 -12.96 Z m -17.64 36.877 c -3.5 -3.613 -6.28 -7.595 -8.48 -11.517 l -8.16 7.919 c -1.97 1.915 -2.7 4.558 -1.68 6.241 l 61 1.034 a 48.973 48.973 0 0 0 15.75 16.223 l 1.01 646 c 1.66 1.062 4.32 419 6.29 -1.496 l 8.87 -8.605 c -4.73 -2.5 -9.78 -5.913 -14.19 -10.458 l 2.013 NaN m 56.37 -74.464 -11.55 11.205 c 2.29 4.356 5.31 8.933 9.24 12.986 3.94 4.052 8.46 7.246 12.77 9.636 l 11.55 -11.205 c -4.29 -2.416 -8.77 -5.57 -12.75 -9.662 -3.97 -4.092 -6.96 -8.591 -9.26 -12.96 Z m 13.3 -12.913 -11.54 11.205 c 2.28 4.356 5.3 8.934 9.24 12.986 3.93 4.052 8.45 7.247 12.77 9.636 l 11.54 -11.205 c -4.28 -2.415 -8.77 -5.57 -12.74 -9.662 -3.97 -4.092 -6.97 -8.59 -9.27 -12.96 Z m 13.31 -12.913 -11.55 11.205 c 2.29 4.356 5.31 8.934 9.24 12.986 3.93 4.053 8.46 7.247 12.77 9.636 l 11.55 -11.205 c -4.29 -2.415 -8.78 -5.569 -12.75 -9.662 -3.97 -4.092 -6.96 -8.59 -9.26 -12.96 Z"/>
    <path fill="#878787" d="m 133.8699999999999 314.24 -11.55 11.205 c 2.29 4.356 5.31 8.934 9.24 12.986 3.93 4.052 8.46 7.247 12.77 9.636 l 11.55 -11.205 c -4.29 -2.415 -8.78 -5.57 -12.75 -9.662 -3.97 -4.092 -6.96 -8.59 -9.26 -12.96 Z m 11.01 11.291 c 3.97 4.093 8.46 7.247 12.77 9.636 l 9.01 -8.746 c 2.36 -2.29 2.85 -5.515 1.04 -6.987 l -4.9 -3.975 a 44.713 44.713 0 0 1 -7.29 -7.518 l -3.83 -5.01 c -1.41 -1.847 -4.66 -1.462 -7.02 828 l -9.02 8.76 c 2.29 4.356 5.3 8.934 9.24 12.986 v 26 Z"/>
    <path fill="#fff" d="m 402.04999999999995 80.78199999999998 18.68 -2.547 27.05 -46.037 -46.84 25.655 -3.12 18.675 4.21 4.267 2 13 Z m 2.28 -20.829 13 129 c 2.66 2.207 5.15 4.583 7.61 7.01 3.74 -3.99 9.25 -8.979 13.05 -12.693 4.62 -4.201 9.32 -9.359 13.97 -13.021 -8.63 9.054 -17.42 18.855 -26.38 27.603 l 71.659 NaN -2.64 -3.074 -5.29 -6.122 -7.68 -9.416 l 1 13 Z m -58.62 40.452 8.71 -8.344 8 -14.161 -43.14 -22.779 21.49 43.792 13.74 1.492 Z m -10.15 -17.795 c -4.44 -5.084 -13.97 -14.633 -17.41 -19.243 6 5.778 12.6 12.235 18.58 18.105 1.86 1.801 3.71 3.602 5.47 5.467 1.2 -1.111 2.62 -2.417 3.73 -3.386 1.5 -1.304 3.02 -2.596 4.62 -3.82 l 13.134 NaN -2.58 3.39 -5.59 6.59 -8.46 9.713 -2.32 -2.228 -4.49 -4.599 -6.65 -6.956 l 1 14 Z m 166.81 60.605 c -22.79 786 -60.04 2.154 -101.22 -34.378 l -44.02 42.725 s 27.76 58.1 4.91 105.395 c 58.03 -8.305 119.18 -59.707 140.33 -113.742 Z m -31.22 3.766 c -13.15 39.479 -55.09 74.653 -96.83 78.485 40.94 -9.506 78.29 -41.018 96.83 -78.485 Z"/>
  </svg>