<svg width="512" height="512" viewBox="0 0 512 512" fill="none" xmlns="http://www.w3.org/2000/svg">
<path d="M387.889 113.194C378.906 89.8875 359.099 104.211 359.099 104.211C359.099 104.211 377.505 112.406 372.839 122.903C370.251 128.725 365.933 128.766 360.767 129.042C358.935 129.134 357.544 130.648 357.483 132.49C357.431 133.953 357.165 135.753 356.429 137.718C355.007 141.473 352.091 144.041 348.09 148.184C348.847 152.297 356.214 160.932 362.557 162.938C367.632 158.19 369.473 155.96 372.717 154.476C374.261 153.77 376.563 153.269 378.456 153.116C379.94 153.003 381.157 151.908 381.536 150.466C382.334 147.437 384.319 142.977 388.657 140.828C394.253 138.056 403.778 141.851 411.175 156.308C420.015 139.856 409.17 131.487 403.41 128.735C418.296 123.589 428.977 113.235 443.311 95.8318C457.246 78.93 462.341 70.7042 493.116 10.7705C451.424 48.3493 423.463 77.6 387.879 113.184L387.889 113.194ZM400.208 124.039L399.839 124.469C396.708 124.591 393.629 125.461 390.723 126.586C381.996 129.809 375.111 139.416 377.239 148.829C371.438 145.279 365.862 140.746 362.925 134.454L363.14 134.321C364.839 136.899 366.721 139.355 369.044 141.329C370.936 142.956 373.024 144.348 375.182 145.647C374.701 139.703 377.74 133.902 381.771 129.707C385.669 125.481 391.173 123.272 396.688 122.197C397.292 122.085 397.936 121.993 398.571 121.931C425.192 91.7087 453.737 57.1276 480.429 27.836C457.123 55.7259 423.34 96.6707 400.208 124.039Z" fill="white"/>
<path d="M121.705 398.426C130.606 421.508 150.209 407.327 150.209 407.327C150.209 407.327 131.977 399.224 136.602 388.809C139.159 383.039 143.446 383.008 148.552 382.732C150.362 382.64 151.744 381.136 151.805 379.315C151.856 377.872 152.112 376.082 152.859 374.128C154.148 370.69 156.726 368.255 160.235 364.664C160.655 364.244 160.481 363.559 159.928 363.334C153.933 361.001 149.278 356.182 147.17 350.351C146.966 349.798 146.28 349.604 145.851 350.013C141.513 354.126 139.722 356.141 136.724 357.523C135.2 358.228 132.929 358.72 131.036 358.873C129.563 358.996 128.366 360.07 127.987 361.492C127.199 364.49 125.225 368.92 120.938 371.038C115.393 373.78 105.97 370.025 98.6341 355.712C89.8865 372.01 100.629 380.297 106.328 383.008C91.5848 388.093 81.0059 398.365 66.8051 415.594C53.0034 432.342 47.9492 440.486 17.4811 499.827C58.7737 462.606 86.4591 433.632 121.705 398.386L121.705 398.426ZM109.499 387.674L109.868 387.244C112.958 387.121 116.017 386.251 118.902 385.146C127.547 381.944 134.361 372.45 132.264 363.109C138.014 366.628 143.538 371.109 146.444 377.35L146.229 377.483C144.541 374.936 142.689 372.491 140.387 370.536C138.515 368.93 136.458 367.549 134.31 366.26C134.78 372.153 131.773 377.882 127.782 382.057C123.915 386.251 118.472 388.42 112.999 389.495C112.395 389.607 111.761 389.689 111.136 389.761C84.7607 419.697 56.5024 453.951 30.0551 482.956C53.1364 455.332 86.6023 414.786 109.499 387.674Z" fill="white"/>
<path d="M267.727 257.626L267.676 257.677C267.011 258.342 266.049 258.526 265.353 258.117C263.051 256.756 260.729 255.048 258.611 252.93C256.493 250.812 254.774 248.459 253.424 246.147C253.025 245.461 253.209 244.499 253.874 243.834L253.925 243.783C254.815 242.893 256.166 242.914 256.728 243.824C258.028 245.922 259.624 248.05 261.568 249.994C263.511 251.937 265.599 253.513 267.706 254.823C268.617 255.385 268.627 256.726 267.737 257.616L267.727 257.626Z" fill="#878787"/>
<path d="M254.331 271.223L254.28 271.274C253.615 271.939 252.654 272.123 251.958 271.714C249.656 270.353 247.333 268.645 245.216 266.527C243.098 264.409 241.379 262.056 240.028 259.744C239.629 259.058 239.814 258.097 240.479 257.432L240.53 257.38C241.42 256.49 242.77 256.511 243.333 257.421C244.632 259.519 246.228 261.647 248.172 263.591C250.116 265.535 252.203 267.11 254.311 268.42C255.222 268.983 255.232 270.323 254.342 271.213L254.331 271.223Z" fill="#878787"/>
<path d="M263.375 267.028C260.838 269.566 263.303 267.1 263.303 267.1C262.383 268.021 259.364 269.975 258.413 269.412C255.252 267.54 252.039 265.187 249.133 262.281C246.228 259.376 243.854 256.122 241.992 252.951C241.44 252.009 243.394 248.991 244.314 248.07C244.314 248.07 241.286 251.099 244.386 247.999C247.486 244.899 249.86 244.408 250.637 245.656C252.428 248.551 254.617 251.457 257.298 254.137C259.978 256.818 262.853 258.977 265.738 260.777C266.987 261.555 265.943 264.481 263.395 267.028L263.375 267.028Z" fill="#878787"/>
<path d="M308.578 187.819L304.72 191.124C303.227 192.413 301.764 193.753 300.362 195.135C299.922 196.086 299.472 197.048 299.052 198.02C296.74 203.422 294.868 209.059 294.08 214.881C293.405 219.792 293.456 225.02 295.39 229.634L306.572 220.047C305.119 217.285 304.342 214.256 304.096 211.146C303.431 203.156 305.539 195.278 308.567 187.809L308.578 187.819Z" fill="#878787"/>
<path d="M282.326 226.636C281.722 231.107 281.722 235.813 283.175 240.11L294.255 230.606C293.171 228.171 292.567 225.562 292.342 222.902C291.636 214.44 294.03 206.092 297.365 198.234C296.721 198.94 296.087 199.636 295.462 200.362L287.186 210.031C284.924 215.341 283.103 220.906 282.316 226.646L282.326 226.636Z" fill="#878787"/>
<path d="M341.275 159.786L332.507 167.306C331.044 171.306 329.898 175.419 329.336 179.624C328.65 184.668 328.742 190.039 330.819 194.735L340.948 182.908C340.048 180.678 339.546 178.294 339.352 175.89C338.892 170.437 339.741 165.024 341.286 159.776L341.275 159.786Z" fill="#878787"/>
<path d="M284.226 213.499L273.975 225.47C272.409 229.654 271.182 233.972 270.578 238.402C270.036 242.402 269.974 246.617 271.018 250.546L282.006 241.134C281.249 239.067 280.789 236.888 280.604 234.678C280.001 227.465 281.668 220.334 284.226 213.52L284.226 213.499Z" fill="#878787"/>
<path d="M327.605 187.656C327.083 181.404 328.26 175.215 330.255 169.25L321.712 176.565C319.788 181.333 318.274 186.285 317.589 191.39C316.842 196.884 316.995 202.767 319.676 207.739C319.932 207.443 320.198 207.156 320.464 206.849L329.815 195.943C328.556 193.354 327.861 190.531 327.625 187.656L327.605 187.656Z" fill="#878787"/>
<path d="M268.861 246.402C268.359 240.356 269.444 234.36 271.306 228.57L258.762 243.2C258.762 243.2 259.683 246.167 262.517 249.001C265.351 251.835 268.359 252.797 268.359 252.797L269.812 251.549C269.311 249.881 268.994 248.152 268.85 246.392L268.861 246.402Z" fill="#878787"/>
<path d="M343.422 157.944C342.368 161.188 341.529 164.503 341.069 167.889C340.445 172.462 340.465 177.291 342.031 181.66L357.162 164.012C357.162 164.012 354.83 162.681 351.832 159.684C348.834 156.686 347.566 154.415 347.566 154.415L343.432 157.955L343.422 157.944Z" fill="#878787"/>
<path d="M318.511 208.66C316.925 205.806 316.127 202.634 315.861 199.401C315.278 192.311 316.874 185.292 319.35 178.581L311.073 185.671C310.991 185.875 310.889 186.06 310.807 186.264C308.495 191.666 306.622 197.304 305.834 203.125C305.108 208.476 305.251 214.185 307.717 219.065L311.206 216.067C313.835 213.806 316.332 211.392 318.664 208.834C318.613 208.783 318.552 208.722 318.501 208.65L318.511 208.66Z" fill="#878787"/>
<path d="M200.253 294.98L196.396 298.285C194.902 299.574 193.439 300.914 192.037 302.295C191.597 303.247 191.147 304.208 190.728 305.18C188.415 310.582 186.543 316.22 185.755 322.041C185.08 326.952 185.131 332.18 187.065 336.794L198.248 327.208C196.795 324.446 196.017 321.417 195.772 318.307C195.107 310.316 197.214 302.438 200.243 294.97L200.253 294.98Z" fill="#878787"/>
<path d="M174.008 333.807C173.404 338.278 173.404 342.984 174.857 347.281L185.937 337.776C184.853 335.341 184.249 332.733 184.024 330.072C183.318 321.611 185.712 313.263 189.047 305.405C188.403 306.111 187.768 306.807 187.144 307.533L178.867 317.202C176.606 322.512 174.785 328.077 173.997 333.817L174.008 333.807Z" fill="#878787"/>
<path d="M232.959 266.957L224.191 274.477C222.728 278.477 221.582 282.59 221.019 286.795C220.334 291.839 220.426 297.21 222.503 301.906L232.631 290.079C231.731 287.849 231.23 285.465 231.035 283.061C230.575 277.608 231.424 272.195 232.969 266.947L232.959 266.957Z" fill="#878787"/>
<path d="M175.899 320.66L165.647 332.63C164.082 336.815 162.854 341.132 162.25 345.563C161.708 349.563 161.647 353.778 162.69 357.707L173.678 348.294C172.921 346.228 172.461 344.048 172.277 341.838C171.673 334.625 173.341 327.494 175.899 320.68L175.899 320.66Z" fill="#878787"/>
<path d="M219.279 294.816C218.758 288.565 219.934 282.375 221.929 276.411L213.386 283.726C211.463 288.493 209.949 293.445 209.263 298.551C208.516 304.045 208.67 309.928 211.35 314.9C211.606 314.603 211.872 314.317 212.138 314.01L221.489 303.103C220.231 300.515 219.535 297.691 219.3 294.816L219.279 294.816Z" fill="#878787"/>
<path d="M160.523 353.573C160.021 347.527 161.106 341.531 162.968 335.741L150.425 350.371C150.425 350.371 151.345 353.338 154.179 356.172C157.013 359.006 160.021 359.968 160.021 359.968L161.474 358.72C160.973 357.052 160.656 355.323 160.512 353.563L160.523 353.573Z" fill="#878787"/>
<path d="M235.109 265.115C234.056 268.359 233.217 271.674 232.756 275.06C232.132 279.633 232.153 284.462 233.718 288.831L248.85 271.182C248.85 271.182 246.517 269.852 243.519 266.855C240.522 263.857 239.253 261.586 239.253 261.586L235.12 265.126L235.109 265.115Z" fill="#878787"/>
<path d="M210.173 315.831C208.588 312.976 207.79 309.805 207.524 306.572C206.94 299.481 208.536 292.463 211.012 285.751L202.735 292.842C202.654 293.046 202.551 293.23 202.469 293.435C200.157 298.837 198.285 304.474 197.497 310.296C196.771 315.647 196.914 321.356 199.38 326.236L202.868 323.238C205.498 320.977 207.994 318.562 210.327 316.005C210.276 315.954 210.214 315.892 210.163 315.821L210.173 315.831Z" fill="#878787"/>
</svg>
