<svg width="429" height="429" viewBox="0 0 429 429" fill="none" xmlns="http://www.w3.org/2000/svg">
<path d="M7.56526 390.879C-8.67474 409.039 6.28526 422.019 6.28526 422.019C6.28526 422.019 19.2453 436.959 37.4253 420.739L64.0653 394.099L34.2253 364.259L7.58526 390.899L7.56526 390.879Z" fill="#878787"/>
<path d="M421.705 52.6795C421.705 52.6795 410.665 37.3995 399.985 28.3395C390.925 17.6395 375.625 6.59947 375.625 6.59947C347.285 -11.0205 329.585 12.2195 329.585 12.2195C329.585 12.2195 327.625 14.1795 324.245 17.5595L319.025 12.3395L300.945 30.4195L306.165 35.6395C301.005 40.7995 295.305 46.4995 289.385 52.4195L284.165 47.1995L266.085 65.2795L271.305 70.4995C265.525 76.2795 259.825 81.9795 254.525 87.2795L249.305 82.0595L231.225 100.139L236.445 105.359C230.305 111.499 226.065 115.739 224.945 116.879C220.845 120.979 216.825 134.939 214.485 144.439C212.585 152.079 209.765 159.419 206.065 166.379C197.305 182.859 186.165 199.659 174.005 215.999L168.985 222.619C165.545 227.079 162.045 231.519 158.505 235.899L122.445 277.219C106.305 294.439 114.865 285.159 108.505 292.039L135.625 319.039C142.265 312.559 158.725 298.839 162.545 295.419L173.525 285.699C197.205 265.159 223.605 244.659 249.725 229.159C262.065 221.839 275.345 216.239 289.185 212.479C297.965 210.099 308.065 206.779 311.445 203.379C312.525 202.299 316.485 198.359 322.225 192.599L324.805 195.179L342.885 177.099L340.305 174.519C345.605 169.219 351.285 163.539 357.085 157.739L359.665 160.319L377.745 142.239L375.165 139.659C381.585 133.239 387.765 127.059 393.285 121.539L395.865 124.119L413.945 106.039L411.365 103.459C414.365 100.459 416.105 98.7195 416.105 98.7195C416.105 98.7195 439.345 81.0595 421.705 52.6795ZM377.345 95.0795C379.165 95.7995 380.945 96.5995 382.725 97.4395C381.965 92.0395 381.405 86.6195 381.425 81.1395C383.665 87.9195 384.945 94.9395 386.125 101.979C380.465 99.5595 359.605 88.0195 377.345 95.0795ZM348.005 117.459C350.265 124.239 351.545 131.259 352.705 138.279C347.045 135.859 326.205 124.319 343.925 131.399C345.745 132.119 347.545 132.919 349.325 133.739C348.565 128.339 347.985 122.939 348.005 117.459ZM348.385 47.5595C343.925 48.5595 339.405 48.9595 334.865 49.1595C335.305 50.5395 335.705 51.9195 336.025 53.3395C339.145 66.7995 332.445 51.0595 331.245 46.6195C336.985 46.5195 342.705 46.5595 348.385 47.5595ZM262.745 120.919C265.865 134.399 259.185 118.659 257.985 114.199C263.705 114.119 269.445 114.159 275.125 115.159C270.645 116.159 266.125 116.539 261.585 116.759C262.025 118.139 262.425 119.519 262.745 120.919ZM294.085 80.5795C299.825 80.4795 305.545 80.5195 311.225 81.5195C306.745 82.5195 302.245 82.9195 297.705 83.1395C298.125 84.4995 298.525 85.8995 298.865 87.2995C301.965 100.779 295.285 85.0395 294.085 80.5795ZM307.625 164.799C309.445 165.519 311.225 166.319 313.005 167.159C312.245 161.759 311.685 156.339 311.685 150.859C313.945 157.639 315.225 164.659 316.405 171.699C310.725 169.279 289.885 157.719 307.625 164.799Z" fill="#878787"/>
<path d="M314.665 12.7997L291.245 1.71973L301.525 25.9397L314.665 12.7997Z" fill="white"/>
<path d="M279.745 47.7196L256.345 36.6196L266.625 60.8396L279.745 47.7196Z" fill="white"/>
<path d="M244.985 82.4999L221.565 71.3999L231.845 95.6199L244.985 82.4999Z" fill="white"/>
<path d="M413.225 111.34L424.325 134.74L400.085 124.46L413.225 111.34Z" fill="white"/>
<path d="M378.305 146.24L389.405 169.66L365.185 159.38L378.305 146.24Z" fill="white"/>
<path d="M343.525 181.02L354.625 204.44L330.405 194.14L343.525 181.02Z" fill="white"/>
</svg>
