<svg xmlns="http://www.w3.org/2000/svg" width="468" height="505" fill="none" viewBox="0 0 468 505">
  <path fill="#878787" d="m118.101 374.695 4.104 6.069a84.045 84.045 0 0 0 13.242 15.276l5.426 4.923 251.972-218.436-7.861-7.032a51.218 51.218 0 0 1-7.913-9l-7.013-10.222-251.972 218.436.015-.014ZM406.2 122.872c2.38-.022 4.441-1.368 5.589-3.384l10.872 4.395a11.789 11.789 0 0 0 1.357 6.243 11.993 11.993 0 0 0 20.316 1.449c2.681-3.621 3.053-8.633.897-12.584-2.362-4.379-6.744-6.538-11.054-6.388-.086-.035-.171-.1-.257-.136l-14.059-5.686a24.596 24.596 0 0 1 2.805-2.046c8.654-5.322 20.095-4.152 27.569 2.719 10.341 9.543 9.873 25.644-.458 34.6a23.033 23.033 0 0 1-12.03 5.436c-2.984.408-5.361 2.662-5.722 5.65l-.399 3.326a7.375 7.375 0 0 1-2.477 4.684l-22.504 19.509a7.356 7.356 0 0 1-10.378-.74l-7.873-7.077a49.556 49.556 0 0 1-8.137-9.386l-5.888-8.797a7.356 7.356 0 0 1 .74-10.378l22.614-19.605a7.313 7.313 0 0 1 4.767-1.788l3.725-.03-.015.014ZM94.827 451.225l-13.638 11.822c-6.123-4.677-12.6-10.398-18.526-17.233-5.925-6.835-10.738-14.137-14.44-20.857l13.638-11.823c3.76 6.725 8.52 13.964 14.472 20.83 5.952 6.866 12.357 12.568 18.494 17.261Z"/>
  <path fill="#878787" d="m110.071 438.009-13.638 11.823c-6.123-4.677-12.6-10.399-18.526-17.233-5.925-6.835-10.738-14.137-14.44-20.858l13.638-11.823c3.761 6.725 8.52 13.964 14.472 20.831 5.952 6.866 12.357 12.568 18.494 17.26Zm-45.938 39.824-13.826 11.986c-5.512-4.352-11.213-9.561-16.483-15.639-6.648-7.67-11.8-15.809-15.68-23.148l13.433-11.645c3.855 7.057 8.82 14.724 15.127 22 5.57 6.425 11.637 11.896 17.43 16.446Z"/>
  <path fill="#878787" d="m79.582 464.44-13.842 12c-5.81-4.507-11.877-9.977-17.46-16.418-6.322-7.292-11.27-14.973-15.097-22.028l13.434-11.645c3.76 6.725 8.52 13.964 14.472 20.83 5.952 6.866 12.357 12.568 18.493 17.261Zm-47.316 11.091c5.256 6.063 10.941 11.285 16.45 15.667l-9.638 8.356a6.313 6.313 0 0 1-8.176.082l-1.451-1.197a110.443 110.443 0 0 1-23.646-27.276l-.979-1.607a6.331 6.331 0 0 1 1.241-8.082l10.473-9.078c3.922 7.356 9.093 15.452 15.728 23.106l-.002.029Zm93.065-50.751-13.638 11.823c-6.123-4.677-12.6-10.399-18.525-17.233-5.925-6.835-10.739-14.137-14.44-20.858l13.637-11.823c3.761 6.725 8.52 13.964 14.472 20.831 5.953 6.866 12.357 12.568 18.494 17.26Z"/>
  <path fill="#878787" d="M108.412 406.154c-5.966-6.882-10.739-14.137-14.44-20.858l10.645-9.228c2.788-2.417 7.054-1.95 9.234 1.042l5.91 8.09a101.69 101.69 0 0 0 10.949 12.63l7.169 6.997c2.653 2.583 2.509 6.872-.278 9.288l-10.662 9.243c-6.123-4.677-12.6-10.399-18.525-17.233l-.002.029Z"/>
  <path fill="#fff" d="m378.752 101.306-.006.02a5.315 5.315 0 0 1-6.653 3.498l-28.721-8.922a5.314 5.314 0 0 1-3.498-6.652l.006-.02a5.315 5.315 0 0 1 6.652-3.499l28.721 8.923a5.315 5.315 0 0 1 3.499 6.652Zm57.204 19.981-.008.019a5.314 5.314 0 0 1-6.919 2.936l-32.617-13.184a5.314 5.314 0 0 1-2.936-6.919l.007-.019a5.316 5.316 0 0 1 6.92-2.936l32.617 13.184a5.314 5.314 0 0 1 2.936 6.919ZM329.588 85.325l-.006.02a5.315 5.315 0 0 1-6.652 3.498l-28.721-8.922a5.314 5.314 0 0 1-3.499-6.652l.006-.02a5.315 5.315 0 0 1 6.652-3.499l28.721 8.923a5.315 5.315 0 0 1 3.499 6.652Zm71.718 13.958c-1.235-.502-2.542-.61-3.766-.431l-17.318-5.372a7.708 7.708 0 0 0-3.11-.31 7.535 7.535 0 0 0-1.119-.464l-9.729-3.014c4.127-4.212 10.433-6.037 16.446-4.16l17.533 5.46c4.148 1.286 7.537 4.113 9.566 7.98a15.564 15.564 0 0 1 1.562 4.412l-10.053-4.056-.012-.045Zm-29.733 7.543c.376.115.727.17 1.107.226a7.594 7.594 0 0 0 2.814 1.56l17.533 5.461c1.705.535 3.441.437 5.018-.13l9.176 3.713c-4.137 4.359-10.524 6.282-16.654 4.397l-17.533-5.46a16.246 16.246 0 0 1-7.44-4.86c-1.911-2.205-3.22-4.987-3.72-7.919l9.729 3.014-.03-.002Zm-24.3-23.068c-.261-.077-.509-.11-.742-.156a7.776 7.776 0 0 0-3.71-2.466l-17.533-5.46c-.911-.287-1.836-.368-2.769-.331l-11.203-3.473c4.127-4.212 10.433-6.038 16.446-4.161l17.532 5.46c6.273 1.955 10.497 7.368 11.302 13.483l-9.323-2.896Zm-29.264 5.73a7.555 7.555 0 0 0 2.562 1.365l17.533 5.46a7.3 7.3 0 0 0 2.371.317 7.535 7.535 0 0 0 2.39 1.294l8.687 2.702c-4.131 3.857-10.17 5.451-15.922 3.652l-17.532-5.46a16.236 16.236 0 0 1-7.44-4.86c-1.912-2.205-3.22-4.987-3.736-7.905l11.101 3.45-.014-.015Z"/>
  <path fill="#fff" d="M218.997 48.52c4.604-9.866 12.941-18.004 23.987-22.062a42.499 42.499 0 0 1 8.978-2.212l7.673-14.79 7.425 15.438a42.749 42.749 0 0 1 27.845 20.602l15.509 1.726-10.695 11.368c2.556 13.258-1.356 26.69-10.014 36.43l3.694 15.748-15.187-6.668c-1.814.993-3.681 1.895-5.668 2.625a42.54 42.54 0 0 1-25.213 1.335l-12.016 10.83-1.512-16.922c-7.159-4.854-12.954-11.857-16.173-20.597-2.548-6.948-3.203-14.131-2.184-20.973l-10.19-9.178 13.741-2.7Zm58.481 31.06c-11.422 2.51 3.438 2.757 7.127 2.207-1.3-3.727-2.736-7.42-5.383-10.504-.059 2.7.423 5.26 1.161 7.766-.97.123-1.957.289-2.918.515l.013.016Zm-46.852.841c3.828 1.012 7.699 1.85 11.707 1.382-2.209-1.561-4.604-2.574-7.104-3.358.431-.87.851-1.786 1.197-2.693 4.263-10.895-4.216 1.31-5.816 4.683l.016-.014Zm20.645-33.84c1.949-1.856 3.418-4.011 4.676-6.315a28.865 28.865 0 0 0 2.419 1.709c9.849 6.302-.47-4.392-3.473-6.616-1.716 3.557-3.306 7.196-3.622 11.222Z"/>
</svg>
