<svg xmlns="http://www.w3.org/2000/svg" width="512" height="512" fill="none" viewBox="0 0 512 512">
  <path fill="#fff" d="M377.4 70.32c-.52-.54-.9-1.24-1.02-2.04a3.73 3.73 0 0 1 3.1-4.26l21.2-3.32a3.73 3.73 0 0 1 4.26 3.1 3.73 3.73 0 0 1-3.1 4.26l-21.2 3.32c-1.24.2-2.42-.24-3.24-1.08v.02Zm-29.996 20.198c-.12-.12-.24-.26-.34-.4-1.22-1.66-.88-4 .78-5.22l17.26-12.74c1.66-1.22 4.02-.88 5.22.78 1.22 1.66.88 4-.78 5.22l-17.26 12.74a3.74 3.74 0 0 1-4.88-.38ZM425.7 177.7c-1.42-1.44-1.42-3.76 0-5.22l14.96-15.38c1.44-1.48 3.8-1.5 5.28-.08l.06.06c1.42 1.44 1.42 3.76 0 5.22l-14.96 15.38c-1.44 1.48-3.8 1.5-5.28.08l-.06-.06ZM415.66 69.98a3.732 3.732 0 0 1-.76-4.1c.82-1.88 3.02-2.74 4.92-1.92l19.66 8.58c1.86.82 2.76 3.02 1.92 4.92a3.732 3.732 0 0 1-4.92 1.92l-19.66-8.58c-.46-.2-.84-.48-1.18-.8l.02-.02Z"/>
  <path fill="#fff" d="M427.86 69.54c.14-.66.26-1.28.28-1.94l-7.98-3.56c.56 1.22.68 2.56.44 3.9-.3 1.4-1.08 2.58-2.18 3.48l7.14 3.18c1.1-1.5 1.88-3.2 2.3-5.06ZM416.3 72.5c-1 .3-2.06.34-3.12.12l-9.14-2.02c-.64-.12-1.24-.36-1.76-.68-.08.02-.14.02-.22.06l-8.56 1.28c.1.22.2.42.34.6.54.82 1.12 1.56 1.8 2.26 1.82 1.86 4.16 3.18 6.8 3.74l9.14 2.02c3.56.8 7.2.16 10.3-1.8.9-.58 1.72-1.28 2.44-2.04l-8.04-3.56.02.02Zm9.74-13.24c-1.92-3.08-4.98-5.2-8.54-6l-9.14-2.02c-3.56-.8-7.22-.18-10.3 1.8-2.62 1.68-4.56 4.14-5.54 7.1l7.88-1.18c.18-.02.36-.04.56-.08.58-.04 1.14.04 1.66.2 1.24-.7 2.7-.86 4.12-.54l9.14 2.02c.92.2 1.74.6 2.44 1.16.76 0 1.58.12 2.34.48l7.5 3.34c-.16-2.2-.9-4.34-2.12-6.28Zm-47.12-3.22c-3.6-.64-7.22.14-10.24 2.24L361 63.6c-2.98 2.08-4.98 5.2-5.62 8.8-.3 1.66-.3 3.32-.02 4.94l8.4-6.2s.06-.06.1-.06h.02c.38-.54.82-1 1.38-1.38l7.68-5.32a5.948 5.948 0 0 1 3.62-1.1c.72-.6 1.64-1.04 2.64-1.18l7.9-1.16c-2.06-2.64-4.96-4.32-8.2-4.92l.02.02Zm11.02 15.78-8.42 1.26c-.4.54-.9 1.04-1.5 1.46l-7.7 5.36c-.9.62-1.94 1-3.02 1.08l-7.52 5.54c1.38.84 2.96 1.42 4.62 1.74 3.58.66 7.2-.16 10.2-2.22l7.7-5.36c3.1-2.16 5.04-5.4 5.62-8.86h.02Zm63.8 39.3c-.42-.42-.74-.96-.92-1.58l-5.94-20.62c-.58-1.98.58-4.04 2.56-4.62 1.98-.58 4.04.56 4.62 2.54l5.94 20.62c.58 1.98-.58 4.04-2.56 4.62-1.36.4-2.78-.02-3.7-.98v.02Zm-6.861 37.9c-.92-.94-1.32-2.32-.92-3.66l6.06-20.58c.58-1.98 2.66-3.1 4.64-2.52 1.98.58 3.1 2.66 2.52 4.64l-6.06 20.58c-.58 1.98-2.66 3.1-4.64 2.52-.64-.18-1.18-.52-1.6-.96v-.02Zm-140.3 7.96c13.98-14.4 24.22-24.88 27.42-28 14.28-14 .72-26.7.72-26.7s-12.44-13.82-26.72.18c-3.2 3.12-13.88 13.16-28.56 26.84l27.14 27.7v-.02Zm81.961 83.68c13.98-14.4 24.22-24.88 27.42-28 14.28-14 .86-26.72.86-26.72s-12.58-13.82-26.86.18c-3.2 3.12-13.88 13.16-28.56 26.84l27.14 27.7Zm68.1-105.1 2.58-8.38-2.58 8.38Z"/>
  <path fill="#fff" d="M459.94 107.4c-.76-.5-1.62-.8-2.6-.9-1.9-.18-3.68.52-4.92 1.74l-2.14-7.56c2.18-1.2 4.66-1.8 7.26-1.64l2.4 8.36Zm-12.24 25.46c-.56-.4-1.08-.82-1.54-1.3-.26-.26-.54-.56-.78-.86-2.32-2.8-3.42-6.36-3.06-10l.86-9.3c.36-4 2.44-7.46 5.46-9.68l2.36 8.34s.02.14.06.22c-.24.56-.4 1.18-.46 1.82l-.84 9.32c-.12 1.1.08 2.16.54 3.12l-2.6 8.34v-.02Z"/>
  <path fill="#fff" d="M464.62 132.48c-1.76 1.46-3.8 2.36-5.96 2.82l2.4-7.78c.28-.78.26-1.6.16-2.4.46-.76.76-1.62.84-2.54l.88-9.32c.12-1.42-.24-2.8-1.02-3.96.12-.74.06-1.52-.16-2.3l-2.2-7.68c3 .62 5.72 2.22 7.68 4.64 2.34 2.82 3.44 6.34 3.08 9.98l-.86 9.36c-.32 3.6-2.08 6.88-4.86 9.2l.02-.02ZM454.04 86.8c0 .04.04.06.04.08l2.44 8.52-2.44-8.5c0-.04-.04-.06-.04-.1Zm-17.961-7.54-7.579-3.38c.32-2.46 1.32-4.84 2.98-6.82l7.4 3.3c-.34.18-.7.42-.98.7a6.106 6.106 0 0 0-1.8 6.2h-.021Zm11.56 18.94c-3.34-.16-6.6-1.52-9.08-4.04l-.42-.42-6.26-6.98c-2.26-2.52-3.44-5.7-3.48-8.88l7.24 3.24c.5.24 1.06.38 1.6.42.06.1.1.16.18.24l6.24 6.94c.46.54 1.02.94 1.6 1.26l2.36 8.22h.02Z"/>
  <path fill="#fff" d="m458.079 94.04-2.2-7.68c-.28-.92-.78-1.74-1.48-2.42a6.17 6.17 0 0 0-1.52-3.52l-6.26-6.92-.2-.22a6.202 6.202 0 0 0-4.06-1.86c-.4-.04-.8 0-1.14.06-.28-.24-.62-.42-1-.58l-7.44-3.32.1-.1c5.56-5.04 14.26-4.58 19.26 1.02l6.26 6.98c4.82 5.36 4.56 13.44-.34 18.56h.02ZM432.16 163.2l-.42.48c-1.8-3.56-2.08-7.88-.3-11.82l3.86-8.54c1.48-3.34 4.18-5.86 7.6-7.18 1.34-.48 2.7-.72 4.06-.8l-2.56 8.36c-1 .62-1.8 1.56-2.32 2.7l-3.84 8.5c-.36.76-.54 1.58-.52 2.4l-5.54 5.9h-.02Zm16.54 7.02c-2.7 1.02-5.56 1.16-8.2.42l6.02-6.38.9-1c.54-.58.94-1.24 1.2-1.92.34-.4.62-.86.86-1.36l3.86-8.54c.22-.48.28-1 .36-1.5.48-.58.84-1.24 1.04-1.96l2.68-8.62c1.3 1.34 2.38 2.9 3.04 4.7 1.3 3.42 1.2 7.14-.32 10.44l-3.84 8.56c-1.52 3.3-4.2 5.84-7.62 7.14l.02.02ZM337.26 99.76c3.04 3.06 5.16 6.42 6.18 9.9.16.58.3 1.12.4 1.68l15.2-14.9s3.562-4.236 1.462-9.956l-4.226 3.058c-.4.28-.847.573-1.236.898-.24.98-.78 1.92-1.58 2.7-2.34 2.3-6.12 2.28-8.42-.06s-2.26-6.14.08-8.44c.78-.76 1.7-1.24 2.68-1.48a53.14 53.14 0 0 1 2.447-1.844l3.23-2.496c-5.94-2.9-11.517 0-11.517 0L327.2 93.28c3.04.92 6.38 2.76 10.06 6.46v.02Zm2.6 10.96c-.86-2.92-2.5-5.46-5.26-8.32-4.06-4.06-7.46-5.54-10.58-6l-.78.78 16.34 18.34.9-.88c-.06-1.16-.22-2.5-.64-3.9l.02-.02Zm79.32 72.76c3.16 3.1 5.16 6.38 6.2 9.9.12.4.2.78.28 1.18l12.1-11.86s3.7-4.2 1.08-10.14l-.62.66-3.66 3.84c-.28.32-.66.62-1.02.82-.24.38-.5.72-.82 1.06-2.24 2.18-5.82 2.14-8-.08-2.18-2.22-2.14-5.8.08-8 .38-.36.8-.66 1.24-.9.12-.18.22-.36.38-.52l2.88-3.04 1.66-1.78c-5.62-2.54-10.32.5-10.32.5l-11.96 11.72c3.16.86 6.64 2.72 10.52 6.62l-.02.02Zm2.62 10.96c-.86-2.92-2.56-5.46-5.26-8.32-4.28-4.32-7.86-5.68-11.12-6.08l-2.58 2.52 16.38 18.32 3.18-3.12c-.08-1.02-.24-2.14-.6-3.34v.02Z"/>
  <path fill="#878787" d="m108.1 288.54-10.06 9.48 36.12 36.88 9.7-9.88-35.76-36.48Zm41.54 30.6-35.52-36.28-3.3 3.12 35.66 36.38 3.16-3.22Zm-76.16 2.04 37.02 37.78 3.18-3.22-36.9-37.66-3.3 3.1Zm18.56-17.5 36.34 37.1 3.16-3.22-36.22-36.98-3.28 3.1ZM79.5 315.52l36.8 37.56 9.46-9.64-36.44-37.2-9.82 9.28Zm37.32-35.22 35.44 36.18 10.26-10.46-35.04-35.76-10.66 10.04Zm39.28-36.56 33.52 34.22c3.64-3.76 7.56-7.84 11.72-12.14l-32.86-33.54c-4.38 4.06-8.54 7.9-12.38 11.46Zm15.12-14 32.72 33.38 3.22-3.34-32.54-33.2-3.4 3.16ZM107.9 361.62l-37.12-37.9-14 13.2s-28.84 24.34-7.04 44.56c19.76 22.2 44.68-6.14 44.68-6.14l13.48-13.72Zm28.36-99.52 34.6 35.3c2.76-2.86 6.3-6.52 10.44-10.82l-34-34.7c-4.38 4.06-8.12 7.52-11.04 10.22Zm13.78-12.76 33.84 34.54 3.14-3.26-33.66-34.36c-1.14 1.06-2.24 2.08-3.32 3.08Zm-19.84 18.38 34.92 35.64c.68-.72 1.74-1.82 3.14-3.26l-34.74-35.46c-1.48 1.36-2.6 2.4-3.32 3.08ZM231.62 402.8l-35.54-36.26-3.28 3.1 35.64 36.38 3.18-3.22Zm-41.54-30.6-10.06 9.48 36.12 36.88 9.7-9.88-35.76-36.48Zm-28.62 26.98 36.8 37.56 9.48-9.64-36.44-37.18-9.84 9.26ZM174 387.36l36.34 37.08 3.18-3.22-36.22-36.98-3.3 3.12Zm-18.54 17.48 37.02 37.8 3.18-3.24-36.92-37.66-3.28 3.1Zm43.34-40.86 35.42 36.16 10.28-10.44-35.04-35.78-10.66 10.06Zm19.44-18.22 34.6 35.3c2.76-2.86 6.3-6.52 10.44-10.82l-34-34.7c-4.38 4.06-8.12 7.52-11.04 10.22Zm13.78-12.74 33.84 34.54 3.14-3.26-33.66-34.36c-1.14 1.06-2.24 2.08-3.32 3.08ZM189.86 445.3l-37.12-37.9-14 13.2s-28.84 24.34-7.04 44.56c19.76 22.2 44.68-6.14 44.68-6.14l13.48-13.72Zm63.32-131.88 32.72 33.38 3.22-3.34-32.54-33.2-3.4 3.16Zm-41 37.96 34.92 35.64c.68-.72 1.74-1.82 3.14-3.26L215.5 348.3c-1.48 1.36-2.6 2.4-3.32 3.08Zm25.9-23.98 33.52 34.22c3.64-3.76 7.56-7.84 11.72-12.14l-32.86-33.54c-4.38 4.06-8.54 7.9-12.38 11.46Zm35.899-193.02c-27.54 25.64-66.18 61.48-96.62 89.68l32.38 33.06c28.82-29.86 65.44-67.76 91.64-94.76l-27.4-27.98Zm81.961 83.66c-27.54 25.64-66.18 61.48-96.62 89.68l32.38 33.06c28.82-29.86 65.44-67.76 91.64-94.76l-27.4-27.98Z"/>
</svg>
