<svg xmlns="http://www.w3.org/2000/svg" width="512" height="512" fill="none" viewBox="0 0 512 512">
  <path fill="#878787" d="M155.44 337.063c-15.26 9.1-56.06 35.12-78.44 65.72-27.9 38.12-43 50.72-43 50.72 29.34 18.68 53.56 5.24 53.56 5.24.12-9.879-2.16-14.54 2.92-24.24 1.28-2.42 6.54-7.92 8.08-10.38 1.58-2.52 3.4-7.9 5.16-10.36 1.48-2.08 5.6-4.7 7.2-6.72 2.14-2.72 2.26-5.56 4.54-8.16 1.94-2.22 5.2-3.52 7.2-5.66 2.36-2.52 3.44-6.26 5.82-8.62 2.16-2.12 5.64-2.88 7.76-4.86 13.38-12.459 25.8-21.88 31.66-26.16l-12.46-16.52Zm-86.26 113.86a3.79 3.79 0 1 1-5.38-5.34 3.79 3.79 0 0 1 5.38 5.34Zm19.2-33.3a3.79 3.79 0 0 1-5.38-5.34c1.48-1.5 3.86-1.5 5.36-.02a3.79 3.79 0 0 1 .02 5.36Zm24.94-29.2a3.79 3.79 0 1 1-5.38-5.34 3.79 3.79 0 0 1 5.38 5.34Zm25.2-23.6a3.79 3.79 0 0 1-.02-5.359 3.772 3.772 0 0 1 5.36-.021 3.79 3.79 0 0 1-5.34 5.38Z"/>
  <path fill="#fff" d="M422.82 67.704c-63.14 105.379-169.78 195.979-201.66 222.199-5.02 4.14-21.28 17.1-28.52 21.92l-31.18 21.78s-.9.5-2.52 1.44l12.24 16.22c.18-.12 2.4 2.4 2.4 2.4l18.9-15.16 91.06-68.84c144.26-106.28 193.9-215.18 193.9-215.18-40.28-15.24-54.56 13.26-54.56 13.26l-.06-.04Zm-83.6 146.879c-40.64 37.42-89.48 71.78-133.3 105.5l-9.68 7.34c-2.06 1.981-5.78 3.1-5.8 6.36 0 1 .58 1.86.96 2.8.08.12-.14.22-.2.101-3.12-5 1.5-6.761 4.82-9.521l9.6-7.42c56.9-44.119 116.56-89.24 166.08-141.7 33.54-34.86 66.14-71.08 87.82-114.66-2.5 6.88-7.02 14.8-10.74 21.8-28.28 49.38-67.72 91.3-109.58 129.42l.02-.02Z"/>
</svg>
