<svg xmlns="http://www.w3.org/2000/svg" width="512" height="512" fill="none" viewBox="0 0 512 512">
  <path fill="#878787" d="M181.287 341.799c-1.36 4.52-2.08 9.18-1.6 13.8.5 3.36 1.3 7.1 1.22 10.64 4.2-2.42 7.92-7.7 7.92-7.7s1.52-2.28 2.46-6.64l-10-10.12v.02Z"/>
  <path fill="#878787" d="m181.36 341.84-10.56-10.68c-10.66-1.54-15.94 1.56-15.94 1.56s-6.74 4.24-8.24 9.22c0 0 5.88-.3 7.98-.34 3.88-.28 8.04.76 11.74 1.34 4.48.52 9-.12 13.4-1.34-1.54.9-10.76 4.42-13.76 4.08-6.86-1.66-12.72-1.84-19.5-1.96-1.88.16-3.18.74-3.18.74s-6.74 4.24-8.24 9.22c0 0 4.88.02 6.28 0 3.88-.28 8.04.76 11.74 1.34 4.04.48 8.12 0 12.12-.98-1.26.62-2.5 1.16-3.02 1.38-3.42.96-5.9 2.74-9.48 2.36-6.22-1.5-11.96-2.06-18.02-2.24-1.5.46-2.28.9-2.28.9s-6.46 4.06-7.88 8.82c0 0 5.22-.26 7.14-.3 3.88-.28 8.04.76 11.74 1.34 3.72.44 7.5.08 11.2-.74-1.24.86-8.9 3.78-11.56 3.5-6.52-1.58-12.54-2.1-18.96-2.24-.86.32-1.3.58-1.3.58s-6.46 4.06-7.88 8.82c0 0 4.28.26 5.14.24 3.88-.28 8.04.76 11.74 1.34 3.02.36 6.06.18 9.06-.34-.68.6-7.08 3.34-9.42 3.08-5.58-1.34-10.78-1.92-16.16-2.16-1.44.44-2.18.86-2.18.86s-6.32 3.96-7.7 8.62c0 0 2.44.36 5.5.88.06 0 8.22.28 11.96.64 1.9.12 3.78-.04 5.66-.28-.46.94-4.32 3.12-5.86 3.04-5.94-1.08-11.4-1.34-17.08-1.22-.1.06-.16.08-.16.08s-5.52 3.84-6.58 8.1c0 0 1.54.16 3.66.4 3.48-.62 7.3-.4 10.68-.44 1.94-.1 3.84-.42 5.72-.88-.84.82-4.62 3.6-5.62 3.64-4.8-.34-9.22-.2-13.68.24-1.34.6-2.02 1.14-2.02 1.14s-4.38 3.88-4.86 7.66h.94c4.4-1.52 9.16-2.1 13.74-1.82.38 0 .76-.08 1.14-.12-.24.2-.48.4-.72.62-.6.6-3.4 2.14-4.3 2.14-3.54-.04-6.86.22-10.36.6-.68.64-1.78 1.78-2.6 3.1l13.62 14.14s.04-.1.08-.16c-.28-2.96-.7-5.9-1.44-9.06-.06-.58 0-1.14-.02-1.7a13.8 13.8 0 0 0 2.72-.66c0 .68-.02 1.36.04 2.04.62 2.8.92 5.74.86 8.66 2.96-.9 5.66-3.92 5.66-3.92s.54-.66 1.06-2c-.12-3.44-.52-7.04-.38-10.2.14-3.16 1.28-4.72 2.18-5.04-.16 1.44-.24 2.88-.14 4.32.2 1.08.32 2.2.42 3.32.68 3.38 1.28 7.68 1.28 7.68 2.44-1.2 4.62-4.14 5.64-5.66.3-4.66-.36-10.42-.22-14 .14-3.58 3-6.96 3.96-7.4-.26.86-.62 2.6-.62 2.6l-.26 1.18s-.3 2.38-.3 3.58c.38 3.64.24 7.4-.5 11.06.06 1.28.08 2.12.08 2.12 3.92-1.5 7.76-6.96 7.76-6.96s.6-.96 1.24-2.76c-.02-3.84-.22-7.52-.92-11.64-.08-2.3 2.74-7.24 3.62-7.54-.62 2.42-.98 4.88-.84 7.38.62 3.9.58 8.02-.22 11.96.04 1.16.06 1.94.06 1.94 4.36-1.66 8.62-7.7 8.62-7.7s.42-.66.96-1.92c-.36-2.44-.78-4.92-1.42-7.46-.6-5.22 3.92-15.6 4.58-15.82-1.6 5.02-2.46 10.28-1.82 15.44.1.56.2 1.14.3 1.72l.06-.4c.02.36.04.74.06 1.08.32 1.7.62 3.46.8 5.2 4.24-1.98 8.22-7.62 8.22-7.62s.4-.62.9-1.8c-.32-3.06-.76-6.14-1.5-9.36-.52-5.26 4.96-17.2 5.74-18.26-2.24 5.74-3.64 11.88-3 17.92.42 2.88 1.1 6.04 1.22 9.12 3.96-2.24 7.5-7.24 7.5-7.24s.9-1.4 1.72-4.04c-.52-2.16-1.1-4.34-1.84-6.56-.98-4.9 1.62-12.44 3.66-17.7-1.48 5.62-2.12 11.5-.96 17.1.6 2.42 1.4 5.04 1.88 7.66 4.1-2.48 7.68-7.56 7.68-7.56s.74-1.12 1.52-3.3c-.32-3.2-.78-6.42-1.54-9.78-.54-5.36.68-10.7 3.02-15.48l.04-.06Zm-74.42 100.9c-2.52-7.2-3.74-10.56-4.3-12l-14.92-15.08c-1.42-.58-4.76-1.82-11.94-4.44-18.14-6.6-21.4 10.56-21.4 10.56 5.8 5.52 3.08 12.84 3.08 12.84 9.48 5.54 6.74 19.2 6.74 19.2s13.68-2.58 19.12 6.96c0 0 7.36-2.64 12.84 3.24 0 0 17.18-3.08 10.78-21.3v.02ZM66.66 429.7c1.78-5-1.76-8.32-1.76-8.32 8.94-1.26 17.04 4.42 17.04 4.42-8.5-2.04-15.28 3.92-15.28 3.92v-.02Zm10.24 16.9s-3.28-.64-6.1.86c0 0 1.12-3.06.22-5.98 0 0 6.8-6.7 13.14-7.18 0 0 .38 4.58-7.24 12.3h-.02Zm19.32 6.46s-3.3-3.58-8.3-1.86c0 0 6.04-6.72 4.08-15.24 0 0 5.58 8.16 4.22 17.08v.02ZM262.4 337.64s-12.72-13.52-23.9-.38c-11.18 13.16 5.48 15.28 5.48 15.28l2.98 4.34s-11.74 10.94-21.48-3.96c-9.74-14.9-7.4-12.02-7.4-12.02-3.34-3.82-7.48-7.5-7.54-7.56l-1.56-1.36 1.42-1.5s4.16-4.5 3.92-10.16c-.14-3.46-1.88-6.72-5.18-9.72-10.66-9.7-18.2-2.52-18.52-2.22l-1.32 1.3-1.4-1.2c-3.58-3.1-7.48-5.82-9.86-7.42-1.44-.88-4.54-2.86-10.94-7.16-14.78-9.9-3.7-21.5-3.7-21.5l4.32 3.02s1.9 16.66 15.18 5.64c13.28-11.04-.08-23.88-.08-23.88s-9.92-16.06-33.02 1.48-4.68 43.74-4.68 43.74L167 324.52l27.86 28.16 21.9 22.14s25.98 18.72 43.78-4.18 1.86-33 1.86-33Zm-59.98-11.42c-2.42 2.4-6.32 2.36-8.72-.04-2.4-2.4-2.36-6.32.04-8.7 2.42-2.4 6.32-2.36 8.72.04 2.4 2.42 2.36 6.32-.04 8.7Z"/>
  <path fill="#fff" d="M270.28 214.46c-42.36 41.16-78.32 74.9-88.4 84.32 2.1 1.44 4.76 3.38 7.42 5.58 3.32-2.3 11.98-6.38 22.56 3.26 4.14 3.76 6.32 7.98 6.48 12.58.2 5.1-2.2 9.28-3.74 11.44 1.52 1.42 4 3.82 6.26 6.36 9.7-10.14 43.76-45.58 85.22-87.32 93.08-93.64 150.7-157.66 161.32-195.3C429.68 65.6 365 122.5 270.28 214.46Zm55.32-16.96c-18.8 17.8-56.72 55.84-75.6 72.58 48.06-48.04 98.64-102.1 149.04-147.36l.24.24c-23.56 25.84-48.42 50.36-73.68 74.52v.02Z"/>
</svg>
