<svg xmlns="http://www.w3.org/2000/svg" width="512" height="512" fill="none" viewBox="0 0 512 512">
  <g clip-path="url(#a)">
    <g clip-path="url(#b)">
      <path fill="#fff" d="M155.188 313.226c9.641 3.47 18.28 4.627 26.983 5.643 4.216.488 6.761-1.594 9.397-4.229a345753.51 345753.51 0 0 1 139.334-139.463c33.423-33.423 64.712-62.758 74.301-71.679-8.934 9.602-38.243 40.891-71.679 74.301-46.47 46.471-92.966 92.915-139.463 139.334-2.635 2.636-4.717 5.181-4.229 9.397 1.003 8.716 2.147 17.342 5.643 26.983 3.317-3.317 5.952-5.746 8.356-8.382 49.594-54.684 98.854-109.652 148.809-164.003 39.104-42.549 95.344-101.515 131.917-156.572-.347.218-.72.437-1.08.668.231-.36.463-.72.668-1.08-55.044 36.585-114.01 92.826-156.573 131.917-54.35 49.955-109.318 99.215-164.002 148.809-2.649 2.391-5.078 5.052-8.382 8.356Z"/>
      <path fill="#fff" d="M163.351 320.797c6.402.797 12.546 1.748 18.729 2.224 3.343.257 3.715 2.198 4.037 4.73.745 5.914 1.581 11.814 2.404 17.804-10.94-2.429-20.003-11.286-25.157-24.745l-.013-.013Z"/>
      <path fill="#878787" d="M159.584 351.61c-4.486-4.486-8.998-8.947-13.459-13.459-13.536-13.716-15.567-34.618-4.91-50.725 1.658-2.507 3.445-5.117 6.44-6.184 2.301-.809 5.026-1.221 6.685 1.003 1.748 2.34-.887 3.638-2.057 5.168-2.018 2.635-4.332 5.077-6.119 7.867-5.913 9.23-3.818 16.956 6.183 21.172 3.677 1.543 5.733 3.651 7.327 7.147 4.782 10.387 11.66 19.141 22.098 24.309 5.502 2.725 9.603 5.746 12.199 11.942 3.163 7.507 10.181 9.076 17.547 5.438 2.661-1.324 5.039-3.291 7.392-5.155 2.481-1.967 3.831-5.836 7.816-5.091 1.568.283 1.735 2.327 1.658 3.844-.206 4.062-1.311 7.096-5.438 9.526-19.076 11.26-37.883 9.242-53.348-6.351-3.406-3.432-6.826-6.826-10.245-10.245l.18-.18.051-.026ZM64.908 484.774c-8.407 7.585-18.537 10.413-29.695 6.222-11.762-4.409-18.55-13.408-19.064-26.005-.501-12.277 5.656-21.134 16.249-27.15 3.11-1.774 5.784-.771 8.625.296 14.372 5.424 23.885 15.683 29.888 29.605 3.188 7.404-1.478 11.865-5.99 17.045l-.013-.013Zm-8.06-33.075c-6.93-6.852-17.252-6.762-24.09.205-6.492 6.621-6.492 18.061-.013 24.515 6.209 6.183 18.498 5.977 24.668-.425 6.492-6.723 6.235-17.572-.565-24.295Zm98.134-72.888c-3.406-11.376-7.481-20.67-14.436-28.37-1.658-1.839-2.044-3.561-.154-5.477 1.915-1.915 3.792-2.866 6.247-.797 6.968 5.837 12.92 12.585 18.357 19.823 1.671 2.211 1.042 3.792-.655 5.463-2.777 2.751-5.528 5.528-9.372 9.371l.013-.013Z"/>
      <path fill="#878787" d="M138.245 393.492c-1.568-8.767-3.252-16.905-5.605-25.967 7.868 2.802 18.19.63 19.99 9.242 1.864 8.96-9.371 10.863-14.372 16.712l-.013.013Zm-73.723 35.672c-.18.077-.347.167-.514.257a5.014 5.014 0 0 0-.951.694c-1.415 1.312-2.34 3.343-3.458 5.001-1.762 2.635.45 4.049 1.182 4.602.733.553 4.808 3.316 5.36 3.818.49.565 3.163 4.011 3.819 5.36.655 1.35 1.966 2.944 4.602 1.183 1.658-1.118 3.702-2.031 5-3.458.27-.27.514-.591.694-.951.09-.167.18-.334.257-.514.04-.116.09-.245.129-.36l.077-.232c.913-3.072-.347-7.674-3.535-11.248a.137.137 0 0 1-.026-.077l-.36-.36-.36-.36a.137.137 0 0 0-.077-.026c-3.573-3.188-8.175-4.447-11.248-3.535l-.231.078c-.116.038-.244.064-.36.128Zm58.323-20.478c-1.286-6.453-2.52-10.747-2.854-15.117-.257-3.342-5.104-8.06-.334-9.719 4.756-1.645 11.608-.681 15.168 3.291 2.906 3.24 1.633 8.472-2.365 11.981-2.905 2.545-5.515 5.438-9.628 9.551l.013.013Zm11.325-25.903c-9.32-1.144-17.148-2.93-26.918-2.031 6.967-6.864 10.271-17.135 20.298-14.281 6.003 1.709 3.484 10.374 6.62 16.312Zm-10.811-19.243c4.743-4.538 7.25-13.729 13.755-12.418 6.491 1.298 8.034 10.168 12.225 17.264-9.513-1.491-17.367-4.101-25.98-4.846Zm-29.463 33.371c3.226-3.818 5.643-6.492 7.841-9.333 2.571-3.316 5.888-5.476 10.001-5.064 4.834.488 3.831 5.373 5.168 8.407 2.07 4.743 2.237 7.995-4.911 6.813-5.463-.913-11.158-.566-18.086-.836l-.013.013Zm14.551 22.522c-1.35-5.438-1.735-9.783-3.509-13.459-2.79-5.746-.566-7.122 4.538-6.184 3.856.695 9.371-1.426 11.003 3.883 1.427 4.64-2.236 7.713-5.707 10.361-1.864 1.427-3.587 3.046-6.325 5.399ZM82.43 411c2.93-3.445 4.884-5.965 7.044-8.253 2.596-2.751 6.273-4.782 9.576-3.124 3.6 1.8 3.728 6.505 4.577 10.207.63 2.764-1.543 2.494-3.394 2.365-5.335-.398-10.67-.719-17.804-1.195Zm11.787 17.598c-1.542-.797-3.496-14.012-2.365-14.14 4.435-.553 9.885-1.427 12.932 1.363 4.191 3.856-6.698 14.796-10.567 12.803v-.026Zm-47.872 9.179c14.295.231 24.116 9.872 25.106 24.848-6.17-10.515-13.64-19.655-25.106-24.848Z"/>
      <path fill="#878787" d="M71.657 427.172c-.412-.155-.36-.772.09-.836 3.792-.45 8.78-.296 12.25-.296 2.469 0 7.983.09 7.83 4.435-.117 3.355-9.552 8.446-9.552 8.446s-.746-8.124-10.618-11.749Zm1.645-4.32c4.255-4.64 6.389-10.142 11.878-9.204 5.13.887 3.728 6.633 5.528 11.569-5.72-.784-10.567-1.439-17.419-2.378l.013.013ZM55.33 453.601c-5.792-5.793-15.185-5.793-20.978 0-5.794 5.793-5.794 15.186 0 20.979 5.793 5.794 15.186 5.794 20.979 0 5.793-5.793 5.793-15.186 0-20.979Z"/>
    </g>
  </g>
  <defs>
    <clipPath id="a">
      <path fill="#fff" d="M0 0h512v512H0z"/>
    </clipPath>
    <clipPath id="b">
      <path fill="#fff" d="m66 525.998-82.143-82.143 460-460L526 65.998z"/>
    </clipPath>
  </defs>
</svg>
