<svg xmlns="http://www.w3.org/2000/svg" width="512" height="512" fill="none" viewBox="0 0 512 512">
  <path fill="#878787" d="m133.112 346.7-.48.48-2.02-2.06-91.26 87.14c-7.8 12.6-7.12 22.14 2.34 30.24 9.46 8.08 14.34 4.86 22.98 2.9 8.62-1.94 31.38-36.28 31.38-36.28s20.92-24.2 30.36-28.48c9.44-4.28 30.58-4.84 30.58-4.84l12.54-11.88-36.42-37.22Zm-75.8 102.36c-1.54 1.5-4 1.48-5.5-.06s-1.48-4 .06-5.5 4-1.48 5.5.06 1.48 4-.06 5.5Zm31.98-34.4c-1.54 1.5-4 1.48-5.5-.06s-1.48-4 .06-5.5 4-1.48 5.5.06 1.48 4-.06 5.5Zm32.2-28.42c-1.54 1.5-4 1.48-5.5-.06s-1.48-4 .06-5.5 4-1.48 5.5.06 1.48 4-.06 5.5Z"/>
  <path fill="#fff" d="M476.012 80.04c-21.02-9.16-82.96-36.04-82.96-36.04-9.9 22.9-33.5 70.66-59.3 100-51.64 58.76-106.84 110.92-106.84 110.92l-90.94 89 4.08 4.18 168.04-163.06-166.66 164.48 2.46 2.52 168.04-163.06-166.66 164.48 2.46 2.52 168.04-163.06-166.66 164.48 2.46 2.52 168.04-163.06-166.66 164.48 19.48 19.92 54.12-51.28-.26-5.02 249.72-244.84v-.08Zm-257.64 247.78-34.18 32.96-.28-.28 33.5-33.26c-.08-.5-.88-5-.88-5l-.06-.3.22-.22c65.66-66.74 159.36-165.34 225.18-231.16-3.38-2.58-37.88-30.56-37.88-30.56l.24-.32 44.48 29.58 1.96 1.3-1.7 1.72c-33.1 33.38-81.64 81.68-115.5 115.36.06-.42-116.98 116.6-115.78 114.4l.84 5.3.04.28-.2.2Z"/>
</svg>
