<svg xmlns="http://www.w3.org/2000/svg" width="512" height="512" fill="none" viewBox="0 0 512 512">
  <path fill="#fff" d="M392.34 110.34c-47.54 44.64-120.12 123.8-243.82 247.68.98 1.54 6.28 9.4 13.94 14.88.38.28.78.52 1.16.76C193.8 344.04 454.18 87.76 466.9 52.14c0 0-20.24 7.22-74.56 58.2Z"/>
  <path fill="#878787" d="M80.48 430.5c-1.64 2.9-6.58-1.12-9.7-1.24-2.86-.1-14.06 3.52-8.58 17.14 5.48 13.62 16.44 13.56 16.44 13.56s8-2.82 9.68-11.42c.48-2.52.86-4.04 1.26-4.92-4.72-3.14-7.56-7.86-9.08-13.12h-.02Zm16.76-19.92c-1.48 1.18-4.44 1.64-6.66 1.96-2.78.4-10.14-.48-10.04 8.82.54 4 1.36 8.06 2.96 11.78 1.48 3.46 4.06 6.98 7.26 9.42.88-.02 2.16.82 4.4 1.26 1.9.38 11.72-1.68 12.1-14.78.02-.88.16-1.58.36-2.14-5-4.16-8.56-10.02-10.38-16.32Zm21.2-54.68c-.2 11.54 6.32 21.96 13.36 30.58 9.08 10.42 21.28 17.88 34.72 21.14.7-1.18 7.52-13.86-5.7-31.02-.22-.16-.46-.28-.68-.44-7.46-5.32-12.68-12.52-14.5-15.24l-.12.12s-13.92-10.6-25.12-8.76h-1.8c-.1 1.2-.18 2.42-.16 3.62Zm-5.34 36.74c-4 1.06-9.44 1.3-13.12 5.4-3.36 3.74-2.14 7.4-1.88 9.96.1.3.16.6.26.88 2.14 6.16 5.5 12.06 10.12 16.7 1.2-1 3.06-.64 4.7-.48 2.6.28 11.56-4.6 10.66-13.8-4.7-5.8-8.26-12.76-10.74-18.66Z"/>
  <path fill="#878787" d="M177.86 412.02c-2.46-1.86-5.66-2.98-8.04-3.6-19-1.86-36.88-13.56-46.14-30.26-5.1-7.5-7.14-17-5.8-25.92h-.04s-9.82-16.9-20.92-5.96c-11.1 10.94 3.98 22.96 6.6 20.08 3.86-4.24 7.68-1.86 7.68-1.86s1.14 6.74 3.8 13.84c3.9 6.48 12.64 19.96 21.9 27.6 5.38 2.88 18.34 9.66 23.08 10.94 0 0 7.38 4.2 3.94 7.78-2.56 2.66 5.86 6.46 10.08 5.36 11.78-3.1 8.98-14.08 3.82-18h.04Z"/>
  <path fill="#878787" d="M124.92 409.38c1.92-1.7 5.92-3.38 8.1-4.2-6.72-6.28-12.82-14.88-16.88-21.2.2 2.64.08 5.84-1.28 7.54 2.36 5.62 5.72 12.28 10.06 17.86Z"/>
</svg>
