<svg xmlns="http://www.w3.org/2000/svg" width="512" height="512" fill="none" viewBox="0 0 512 512">
  <path fill="#A1A1A1" d="m277.221 154.184-3.677-2.122c-4.524-2.612-10.323-1.059-12.935 3.466l-.898 1.555 71.12 41.061.735-1.272c2.694-4.666.999-10.546-3.526-13.159l-50.901-29.387.082-.142Z"/>
  <path fill="#fff" d="m328.465 202.244-71.12-41.061-1.979-1.143c-3.818-2.204-8.724-.889-10.928 2.928l-7.756 13.432c-1.061 1.839-.403 4.292 1.435 5.353l1.131.653 76.21 44 2.969 1.714c1.838 1.062 4.292.404 5.353-1.434l7.755-13.432c2.063-3.899.748-8.806-3.07-11.01Zm.154-70.796c-2.204 3.817-3.396 7.842-3.496 11.932l-7.069-4.082c-1.838-1.061-2.964-3.03-2.832-5.217l.077-3.726c.071-2.409-1.396-4.765-3.517-5.989l-10.746-6.204c-2.121-1.225-4.694-1.013-6.544.558-4.755 3.664-7.921 5.23-9.786 5.849-.484-.468-.887-1.077-1.207-1.828l-3.006-7.202c.898-1.555 2.481-2.338 4.162-2.31l11.237.455c1.316.006 2.692.234 3.823.887l29.149 16.452-.245.425Zm15.454 8.168-9.586 6.154c-.168-3.301.535-6.478 2.331-9.588l.327-.566 5.655 3.266 1.273.734ZM132.242 350.437l-4.816 8.342c-4.082 7.069-1.632 16.213 5.438 20.295l66.313 38.286c7.069 4.081 16.213 1.631 20.295-5.438l4.816-8.343-92.046-53.142Zm218.879-188.089c-2.551-.153-5.362-.834-7.766-2.222-4.242-2.449-7.08-6.35-8.134-10.729l11.496-7.502c3.566 3.945 5.767 9.928 5.037 14.785l-.633 5.668Z"/>
  <path fill="#fff" d="m342.616 226.06-85.551 148.179-5.939-3.428 84.49-146.341c1.959-3.393 2.847-7.217 2.642-11.106l-2.135-43.65-5.714 9.898-50.901-29.388 12.245-21.209-3.959-2.286c2.252-.962 4.994-2.772 8.672-5.55.772-.685 1.947-.761 2.937-.19l10.746 6.204c1.131.653 1.854 2.013 1.848 3.33l-.077 3.726c-.056 3.361 1.591 6.386 4.56 8.1l8.767 5.061c.731 8.529 5.515 16.57 13.433 21.141a25.982 25.982 0 0 0 11.568 3.474l-4.883 46.008c-.457 2.752-1.28 5.482-2.749 8.027Z"/>
  <path fill="#fff" d="M364.008 124.356c-11.311-6.531-25.503-2.848-32.235 8.159l-.326.566c-2.204 3.817-3.255 7.924-3.213 12.095-.006 1.317.13 2.715.347 3.971 1.205 6.729 5.228 12.822 11.591 16.495 3.252 1.878 6.771 2.967 10.273 3.104 8.746.525 17.635-3.769 22.288-11.829 6.531-11.311 2.587-26.031-8.725-32.561Zm-13.306 41.333c-3.057-.256-6.151-1.1-8.979-2.733-4.666-2.694-7.847-6.981-9.466-11.686-.359-1.339-.717-2.677-.853-4.075-.406-4.193.362-8.463 2.648-12.422l.326-.565c5.916-9.593 18.242-12.657 27.998-7.024 9.897 5.714 13.303 18.426 7.589 28.324-4.141 6.846-11.61 10.641-19.263 10.181Z"/>
  <path fill="#A1A1A1" d="M225.868 380.926c-4.383-2.531-6.019-8.188-3.406-12.713 2.53-4.383 8.188-6.018 12.712-3.406l.141.082 4.572-7.918-.142-.082c-4.383-2.531-6.018-8.188-3.406-12.712 2.531-4.383 8.188-6.019 12.713-3.407l.141.082 4.571-7.918-.141-.082c-4.383-2.53-6.018-8.187-3.406-12.712 2.53-4.383 8.188-6.018 12.712-3.406l.142.081 4.571-7.917-.141-.082c-4.384-2.531-6.019-8.188-3.407-12.713 2.531-4.383 8.188-6.018 12.713-3.406l.141.082 4.572-7.918-.142-.082c-4.383-2.53-6.018-8.188-3.406-12.712 2.53-4.383 8.188-6.019 12.712-3.406l.142.081 4.571-7.918-.141-.081c-4.383-2.531-6.019-8.188-3.407-12.713 2.531-4.383 8.188-6.018 12.713-3.406l.141.082 8.163-14.14-76.21-44-8.163 14.14.141.081c4.384 2.531 6.019 8.188 3.407 12.713-2.531 4.383-8.188 6.018-12.713 3.406l-.141-.082-4.572 7.918.142.082c4.383 2.53 6.018 8.188 3.406 12.712-2.531 4.383-8.188 6.019-12.712 3.407l-.142-.082-4.571 7.918.141.081c4.383 2.531 6.019 8.188 3.407 12.713-2.531 4.383-8.188 6.018-12.713 3.406l-.141-.081-4.572 7.917.142.082c4.383 2.531 6.018 8.188 3.406 12.712-2.531 4.384-8.188 6.019-12.712 3.407l-.142-.082-4.571 7.918.141.082c4.383 2.53 6.019 8.188 3.406 12.712-2.53 4.383-8.187 6.019-12.712 3.406l-.141-.081-4.572 7.918.142.081c4.383 2.531 6.018 8.188 3.406 12.713-2.531 4.383-8.188 6.018-12.712 3.406l-.142-.082-7.673 13.291 76.21 44 7.532-13.372c.141.081.141.081 0 0Zm-50.618-29.225c-4.383-2.53-6.019-8.188-3.407-12.712 2.531-4.383 8.188-6.019 12.713-3.406 4.383 2.53 6.018 8.187 3.406 12.712-2.612 4.525-8.188 6.018-12.712 3.406Zm13.877-24.036c-4.383-2.531-6.018-8.188-3.406-12.713 2.531-4.383 8.188-6.018 12.712-3.406 4.383 2.531 6.019 8.188 3.407 12.712-2.613 4.525-8.188 6.019-12.713 3.407Zm13.878-24.037c-4.383-2.531-6.019-8.188-3.407-12.712 2.531-4.384 8.188-6.019 12.713-3.407 4.383 2.531 6.018 8.188 3.406 12.713-2.612 4.524-8.188 6.018-12.712 3.406Zm13.877-24.037c-4.383-2.53-6.018-8.187-3.406-12.712 2.531-4.383 8.188-6.019 12.712-3.406 4.384 2.53 6.019 8.188 3.407 12.712-2.613 4.525-8.188 6.019-12.713 3.406Zm13.878-24.036c-4.383-2.531-6.019-8.188-3.406-12.713 2.53-4.383 8.187-6.018 12.712-3.406 4.383 2.531 6.018 8.188 3.406 12.712-2.612 4.525-8.188 6.019-12.712 3.407Zm13.877-24.037c-4.383-2.53-6.018-8.188-3.406-12.712 2.531-4.383 8.188-6.019 12.713-3.407 4.383 2.531 6.018 8.188 3.406 12.713-2.612 4.524-8.188 6.018-12.713 3.406Zm-44.078 134.795c-4.383-2.53-6.019-8.187-3.406-12.712 2.53-4.383 8.187-6.018 12.712-3.406 4.383 2.53 6.018 8.188 3.406 12.712-2.612 4.525-8.188 6.019-12.712 3.406Zm13.877-24.036c-4.383-2.531-6.018-8.188-3.406-12.713 2.531-4.383 8.188-6.018 12.712-3.406 4.384 2.531 6.019 8.188 3.407 12.713-2.613 4.524-8.188 6.018-12.713 3.406Zm13.878-24.037c-4.383-2.53-6.019-8.188-3.406-12.712 2.53-4.383 8.187-6.019 12.712-3.406 4.383 2.53 6.019 8.187 3.406 12.712-2.612 4.525-8.188 6.018-12.712 3.406Zm13.877-24.036c-4.383-2.531-6.018-8.188-3.406-12.713 2.531-4.383 8.188-6.018 12.713-3.406 4.383 2.531 6.018 8.188 3.406 12.712-2.612 4.525-8.188 6.019-12.713 3.407Zm13.878-24.037c-4.383-2.531-6.019-8.188-3.406-12.712 2.53-4.384 8.188-6.019 12.712-3.407 4.383 2.531 6.019 8.188 3.406 12.713-2.612 4.524-8.187 6.018-12.712 3.406Zm13.878-24.037c-4.384-2.53-6.019-8.187-3.407-12.712 2.531-4.383 8.188-6.019 12.713-3.406 4.383 2.53 6.018 8.188 3.406 12.712-2.612 4.525-8.188 6.019-12.712 3.406Z"/>
</svg>
