<svg xmlns="http://www.w3.org/2000/svg" width="512" height="512" fill="none" viewBox="0 0 512 512">
  <path fill="#A1A1A1" d="m274.384 323.724-104.749-60.477-21.407 37.078 104.749 60.477 21.407-37.078ZM355.2 158.35l7.652-31.486c.081-.141-.06-.222-.282-.163-2.127 1.404-13.795 9.894-21.351 15.494 6.241 4.167 11.082 9.781 13.981 16.155Z"/>
  <path fill="#fff" d="M298.753 210.536c-13.393-7.732-20.639-21.879-19.989-36.353l-43.282-24.989-64.383 111.516 104.749 60.477 64.383-111.516c-12.129 7.659-28.085 8.598-41.478.865Zm14.186-97.827-12.198-13.058c-.201-.303-.705-.407-1.15-.288l-15.816 5.907 6.331 11.174-17.907 31.016 12.406 7.163c11.167-18.366 34.88-24.6 53.652-14.138 6.808-5.28 14.506-10.799 19.529-14.29l-22.625-2.16c-8.558-.806-16.556-4.859-22.222-11.326Zm-197.92 245.137c-2.605 4.511-.974 10.152 3.396 12.675l88.536 51.116c4.512 2.605 10.152.974 12.676-3.396l31.663-54.842-104.608-60.395-31.663 54.842Z"/>
  <path fill="#A1A1A1" d="M279.71 97.66c1.664 2.652 4.728 3.857 7.782 2.8l13.326-4.524c.445-.12.808-.097 1.009.206l13.505 14.377c5.264 5.859 12.335 9.565 20.166 10.327l25.532 2.335c.364.021.386-.342.245-.423L296 85.072c-.282-.163-.504-.104-.726-.044l-12.757 3.537c-3.379 1.62-4.65 5.775-2.807 9.094Zm3.269 59.781-12.265-7.081-32.144-18.558c-.423-.245-.868-.126-1.112.297l-5.046 8.741c-.244.423-.125.868.298 1.112l46.523 26.861a46.938 46.938 0 0 1 3.746-11.372Zm64.472 13.353c-1.477-8.185-6.351-15.698-14.105-20.174l-1.409-.814c-1.541 1.366-2.778 2.532-3.489 3.437-.385.342-.488.846-.309 1.513.627 4.122 10.431 10.91 19.312 16.038Z"/>
  <path fill="#fff" d="M345.823 173.613c-8.035-4.639-19.894-12.425-20.998-18.326-.195-1.617.115-3.13 1.129-4.236a20.061 20.061 0 0 1 2.637-2.613c-12.5-4.397-26.857.284-34.117 11.883l50.048 28.895c2.464-4.593 3.415-9.495 3.275-14.463l-1.974-1.14Z"/>
  <path fill="#A1A1A1" d="m355.648 198.27-2.537-1.465a41.812 41.812 0 0 1-8.464 9.775l4.653 2.687c.423.244.867.125 1.111-.298l5.454-9.446c.385-.342.206-1.009-.217-1.253Z"/>
  <path fill="#fff" d="M304.451 200.667c7.613 4.395 16.333 4.918 24.079 2.247l-38.065-21.976c1.559 8.043 6.373 15.333 13.986 19.729Z"/>
  <path fill="#A1A1A1" d="m290.087 175.081 43.846 25.314c3.482-2.125 6.563-4.857 9.043-8.501l-50.048-28.895c-1.916 3.969-2.883 7.923-2.841 12.082Zm74.538 38.898-5.311-13.592-6.348 10.996c.552 2.951 4.71 7.795 3.163 10.474L275.385 361.71l7.331 4.232 81.233-140.699a12.567 12.567 0 0 0 .676-11.264Z"/>
  <path fill="#fff" d="M353.842 163.956c-2.59-7.886-7.929-14.916-15.379-19.594l-3.102-1.79c-17.065-8.537-37.908-2.713-47.936 13.678l-1.628 2.82c-1.894 3.606-3.083 7.619-3.686 11.594a34.157 34.157 0 0 0-.327 5.45c.186 12.702 6.755 24.765 18.456 31.521 11.702 6.756 25.515 6.272 36.526.223a34.147 34.147 0 0 0 4.557-3.008c3.141-2.51 5.94-5.405 8.198-8.989l1.627-2.82c5.291-9.164 5.924-19.701 2.694-29.085Zm-8.269 29.625c-2.398 3.503-5.198 6.398-8.62 8.746a24.352 24.352 0 0 1-4.98 2.764c-9.145 4.119-19.927 3.909-29.231-1.463-9.305-5.372-14.877-14.604-15.883-24.584a24.319 24.319 0 0 1-.096-5.694c.24-3.997 1.288-8.091 3.264-11.838l1.627-2.82c8.4-13.572 25.404-18.605 39.774-12.564 1.068.429 3.546 1.672 3.687 1.753 9.446 5.453 15.078 14.908 16.002 25.028.097.809.086 3.433.064 3.797-.143 4.805-1.375 9.544-3.617 14.078-.141-.082-1.443 2.174-1.991 2.797Z"/>
</svg>
