<svg xmlns="http://www.w3.org/2000/svg" width="512" height="512" fill="none" viewBox="0 0 512 512">
  <path fill="#A1A1A1" d="M296 173.68c0-13.9-5-35.48-14.32-46.88l-1.72-2.1c-5.48-6.72-14.46-10.7-24.04-10.7-9.48 0-18.36 3.92-23.88 10.5l-1.24 1.48c-9.64 11.52-14.8 33.3-14.8 47.44l80 .26Z"/>
  <path fill="#fff" d="M223.94 381.82h65.72c.3-3.5 3.18-6.28 6.74-6.38l-.4-198.02h-79.16v198.02c.06 0 .1-.02.16-.02 3.66 0 6.64 2.82 6.94 6.4Zm65.8 2h-65.88c-.64 3.2-3.48 5.6-6.86 5.6-.06 0-.1-.02-.16-.02v8.22c1.16 0 79.6.08 79.6.08l-.02-8.32a6.95 6.95 0 0 1-6.68-5.56Z"/>
</svg>
