<svg xmlns="http://www.w3.org/2000/svg" width="512" height="512" fill="none" viewBox="0 0 512 512">
  <path fill="#fff" d="M218.302 356.34c-2.56 1.76-4.18 4.58-4.2 7.7v1.6c0 3.4 1.64 6.24 4.2 8a8.878 8.878 0 0 1 3.82 6.88h66.46a8.926 8.926 0 0 1 4.04-7.02c2.7-1.76 4.44-4.64 4.44-7.86v-1.28c0-3.22-1.76-6.1-4.44-7.86-2.04-1.34-3.5-3.48-3.92-5.96h-66.7c-.4 2.4-1.76 4.48-3.7 5.8Zm76.058 33.04a8.968 8.968 0 0 1-5.66-6.86h-66.68a8.88 8.88 0 0 1-5.38 6.72c-1.52.64-2.56 2.06-2.58 3.72L214 452c0 2.22 1.78 4 4 4h75.08c2.2 0 4-1.8 4-4v-58.84c0-1.72-1.12-3.18-2.72-3.78Zm-1.739-47.88c2.7-1.76 4.44-4.64 4.44-7.86v-1.28c0-3.22-1.74-6.1-4.44-7.86a8.934 8.934 0 0 1-4-6.5h-66.52c-.3 2.62-1.72 4.9-3.78 6.34-2.54 1.78-4.16 4.58-4.18 7.68v1.64c0 3.4 1.62 6.22 4.18 8a8.884 8.884 0 0 1 3.8 6.86h66.46c.16-2.94 1.72-5.5 4.04-7.02Zm-74.281-31.82a8.915 8.915 0 0 1 3.76 6.32h66.52c.3-2.72 1.82-5.06 4-6.5 2.7-1.76 4.44-4.64 4.44-7.86v-1.28c0-3.22-1.74-6.1-4.44-7.86a8.934 8.934 0 0 1-4-6.5H222.1c-.3 2.62-1.7 4.9-3.76 6.32-2.54 1.78-4.14 4.58-4.16 7.66v1.68c0 3.42 1.62 6.24 4.16 8.02Zm-4.081-94.44c4.32-73.08 31.14-157.24 31.14-157.24h21.72c9.06 23.94 26.38 98.78 29.84 157.24l.1 20.76h-.1l.1 35.52c0 2.26-1.24 4.4-3.3 5.34a8.968 8.968 0 0 0-5.14 7.14h-66.54a8.962 8.962 0 0 0-4.8-6.96c-1.94-1-3.08-3.06-3.08-5.24l.04-35.8v-20.76h.02Z"/>
</svg>
