<svg xmlns="http://www.w3.org/2000/svg" width="512" height="512" fill="none" viewBox="0 0 512 512">
  <path fill="#A1A1A1" d="M296.379 186.5c0-14.02-5-36.08-14.32-47.58l-1.72-2.12c-5.48-6.76-14.46-10.8-24.04-10.8-9.48 0-18.36 3.94-23.88 10.58l-1.24 1.5c-9.64 11.62-14.8 34.16-14.8 48.42h80Z"/>
  <path fill="#fff" d="M292.461 375.5h-72.18a6.035 6.035 0 0 1-4 4.66v6.34h79.98v-6.4c-1.94-.74-3.44-2.48-3.8-4.6Zm-72.161-2h72.18a6 6 0 0 1 3.82-4.6l.08-178.4H216l.28 178.34c2.06.68 3.64 2.46 4.02 4.66Z"/>
</svg>
