<svg xmlns="http://www.w3.org/2000/svg" width="512" height="512" fill="none" viewBox="0 0 512 512">
  <path fill="#fff" d="m228.003 237.34-1.96 235.14c3.34 0 6.02 2.74 6 6.1h49.9c-.02-3.36 2.66-6.1 6-6.1l-1.94-235.14v-.4h-58v.4ZM280 169.18h-46v42.32h46v-42.32Zm.003 45.4h-46l-4.8 19h55.6l-4.8-19Z"/>
  <path fill="#A1A1A1" d="M276 163.18v-19.8c-1.6-46.4-13.8-105.8-18-124.8h-2s-16 66.8-18 124.8v19.8h38Z"/>
  <path fill="#fff" d="M281.941 481.4h-50c0 3.32-2.68 6-6 6v7.06h62v-7.06c-3.32 0-6-2.68-6-6Z"/>
</svg>
