<svg xmlns="http://www.w3.org/2000/svg" width="512" height="512" fill="none" viewBox="0 0 512 512">
  <path fill="#fff" d="M244.419 326.18h24.4V224.76h-24.46l.06 101.42Zm24.403 2.04h-24.4v14.74h24.4v-14.74Zm-24.463 167.46v8.36h24.46v-8.34c-10.1-1.86-19.28-.9-24.46-.02Zm24.46-1.98c-10.12-1.8-19.12-.88-24.44 0l.06-148.72h24.4l-.02 148.72Z"/>
  <path fill="#A1A1A1" d="M250.519 18.42c-.3 0-.56.22-.62.52l-10.38 57.68a75.25 75.25 0 0 0-1.16 13.24v6.82c0 .18.14.32.32.32h36.4c.18 0 .32-.14.32-.32v-6.74c0-4.44-.4-8.86-1.16-13.24l-10.4-57.76a.64.64 0 0 0-.62-.52h-12.7ZM261.101 8.1v8.34h-8.46V8l8.46.1Zm14.659 214.8c.36 0 .6-.24.46-.44l-2.94-3.96c-.62-.84-.94-1.76-.94-2.68v-7.74c0-1.84-1.32-3.56-3.52-4.7l-.02-33.82c0-4.76.46-9.52 1.38-14.2l5.06-27.34c.04-.2-.12-.38-.32-.38h-36.18c-.2 0-.32.16-.28.34l5.04 27.3c.92 4.68.88 9.62.88 14.38v33.8c-2.24 1.04-3.56 1.88-3.6 3.98v8.18c0 .98-.34 1.94-1 2.84l-2.96 3.96c-.16.22.08.44.46.44l38.48.04Zm3.74-121.92H233c-.56 0-1 .44-1 1v22.48c0 .56.44 1 1 1h46.52c1.04 0 1.88-.44 1.88-1v-22.48c-.02-.56-.86-1-1.9-1Z"/>
</svg>
