<svg xmlns="http://www.w3.org/2000/svg" width="512" height="512" fill="none" viewBox="0 0 512 512">
  <path fill="#fff" d="M78.63 227.16h-3.067v21.473h3.067V227.16Zm-4.057 2.276h-6.926v16.92h6.926v-16.92Z"/>
  <path fill="#A1A1A1" d="M12.432 222.015v31.763h7.322c.89-13.853.297-26.123 0-31.763h-7.322Z"/>
  <path fill="#fff" d="M6 261.793h5.343a.213.213 0 0 0 .198-.198v-47.397a.213.213 0 0 0-.198-.198H6.297c-.198 0-.198.099-.198.198L6 261.793Zm60.657-32.357h-.494l-45.419-5.739c.297 5.838.693 16.426 0 28.3l45.32-5.64h.594v-16.921Zm16.229-2.276h-2.474v21.473h2.474V227.16Zm44.231 4.85H83.578v10.785h43.539V232.01Z"/>
  <path fill="#A1A1A1" d="M127.117 227.16H83.578v3.958h43.539v-3.958Zm0 16.526H83.578v4.947h43.539v-4.947Z"/>
  <path fill="#fff" d="M134.042 242.795c.99 0 1.682-.89 1.682-1.88v-7.025c0-.99-.791-1.88-1.682-1.88h-2.474v10.785h2.474Z"/>
  <path fill="#A1A1A1" d="m154.129 224.193-11.874 2.968h-10.687v3.958h2.771a2.45 2.45 0 0 1 2.474 2.474v7.619a2.45 2.45 0 0 1-2.474 2.474h-2.771v4.948h10.588l12.864 3.166c.593.198 1.286.198 1.979.198h61.448v-28.201h-60.36c-1.385 0-2.671.099-3.958.396Zm61.152 23.946H165.41c-5.74 0-10.291-4.651-10.291-10.291 0-5.64 4.65-10.291 10.291-10.291h49.871v20.582Z"/>
  <path fill="#fff" d="M157.098 237.847c0 5.244 4.057 9.4 9.4 9.4h47.991v-18.801h-47.991c-5.244 0-9.4 4.156-9.4 9.401Zm66.792 14.151h-3.562v-28.201h3.661l-.099 28.201Zm69.364-21.769h-1.979v15.337h1.979v-15.337Zm-2.868 0h-14.15v15.337h14.15v-15.337Zm-20.187 19.196 5.245-3.76v-15.634l-5.245-3.76v23.154Zm53.336-19.196h-29.389v15.337h29.389v-15.337Zm-54.226-4.157-.099-.099h-44.231v23.847h44.231l.099-.099v-23.649Zm60.162 4.157h-4.948v15.337h4.948v-15.337Zm37.405 0h-36.315v15.337h36.315v-15.337Z"/>
  <path fill="#A1A1A1" d="M381.42 229.239c.198 0 .297-.198.198-.396-.594-.99-1.682-1.583-2.869-1.583h-5.245c-.594 0-1.286-.099-1.781-.396l-2.573-1.187c-.099-.099-.296 0-.296.197v3.167c0 .099.098.198.197.198h12.369Zm-12.566 17.515v3.067c0 .099.197.198.296.198l2.573-1.187c.495-.297 1.089-.396 1.682-.396h4.948c1.385 0 2.672-.693 3.364-1.88h-12.666c-.099 0-.197.099-.197.198Z"/>
  <path fill="#fff" d="M499.567 233.79c0-.198-.099-.396-.297-.396l-36.612-6.63c-2.77-.494-5.541-.791-8.311-.791h-5.542a.213.213 0 0 0-.198.198v23.451c0 .099.099.198.198.198h5.542c2.77 0 5.541-.297 8.311-.792l36.612-6.728c.198 0 .297-.198.297-.396v-8.114Zm6.335 6.828h-5.343v-5.442h5.442l-.099 5.442Z"/>
  <path fill="#A1A1A1" d="M379.441 238.144c.495-.099.792-.198.792-.396 0-.197-.297-.395-.792-.395l-4.848-.594a8.417 8.417 0 0 1-3.068-.891l-2.671-1.286v6.531l2.473-1.287a9.279 9.279 0 0 1 3.661-1.088l4.453-.594Z"/>
  <path fill="#A1A1A1" fill-rule="evenodd" d="M302.754 259.22c.989 1.781 3.166 3.365 7.916 4.255 1.187-1.286.396-1.583-.792-1.979-1.583-.593-3.859-1.385-3.166-5.145 0-.099 0-.396.099-.594 0-.297.099-.693.099-.989-1.88.791-3.364 2.473-4.156 4.452Z" clip-rule="evenodd"/>
  <path fill="#fff" fill-rule="evenodd" d="M314.53 264.861v-10.786h2.078v10.687c0 3.364-2.77 6.135-6.135 6.135h-8.114v-2.078h8.114c2.276.099 4.057-1.781 4.057-3.958Z" clip-rule="evenodd"/>
  <path fill="#fff" d="M285.932 248.534v13.259c0 1.089-.891 2.078-2.078 2.078h-2.573v2.078h2.573c1.088 0 2.078.891 2.078 2.078v3.067h15.238v-9.697c0-4.453 3.662-8.114 8.114-8.114h1.485v-5.64H287.02c-.593-.099-1.088.297-1.088.891Zm11.478 16.821c1.089 0 1.979.891 1.979 1.979 0 1.089-.89 1.979-1.979 1.979a1.985 1.985 0 0 1-1.979-1.979c0-1.088.891-1.979 1.979-1.979Zm-4.551-15.832c.593 0 .989.495.989.99a.992.992 0 0 1-.989.989.992.992 0 0 1-.99-.989c-.099-.495.396-.99.99-.99Zm-4.057 0c.593 0 .989.495.989.99a.992.992 0 0 1-.989.989.992.992 0 0 1-.99-.989c-.099-.495.396-.99.99-.99Z"/>
  <path fill="#fff" d="M297.411 268.423c.594 0 .99-.494.99-.989a.992.992 0 0 0-.99-.99.992.992 0 0 0-.989.99c0 .495.396.989.989.989Zm19.098-20.878h-4.552v5.64h5.64v-4.552c-.099-.692-.495-1.088-1.088-1.088Zm-1.682 4.057a.992.992 0 0 1-.99-.99c0-.593.495-.989.99-.989.593 0 .989.495.989.989 0 .495-.396.99-.989.99Z"/>
  <path fill="#fff" fill-rule="evenodd" d="M285.932 271.985v24.639c0 .99.989 1.88 2.078 1.88h11.379c.99 0 1.88-.89 1.88-1.88v-24.639h-15.337Zm12.863 21.572c0 1.088-.89 1.979-1.979 1.979h-6.432a1.985 1.985 0 0 1-1.979-1.979v-18.702h10.489v18.702h-.099Z" clip-rule="evenodd"/>
  <path fill="#fff" fill-rule="evenodd" d="M293.551 283.266a.78.78 0 0 0-.791.791.78.78 0 0 0 .791.792.78.78 0 0 0 .792-.792c0-.396-.396-.791-.792-.791Z" clip-rule="evenodd"/>
  <path fill="#A1A1A1" fill-rule="evenodd" d="M289.297 275.845v17.019c0 .99.792 1.781 1.781 1.781h4.948c.989 0 1.781-.791 1.781-1.781v-17.019h-8.51Zm4.255 9.994c-.99 0-1.781-.792-1.781-1.781 0-.99.791-1.781 1.781-1.781.989 0 1.781.791 1.781 1.781 0 .989-.792 1.781-1.781 1.781Z" clip-rule="evenodd"/>
  <path fill="#A1A1A1" d="M236.755 271.59a.78.78 0 0 0-.792.791c0 .396.396.792.792.792.395 0 .791-.396.791-.792a.78.78 0 0 0-.791-.791Z"/>
  <path fill="#A1A1A1" d="M239.722 262.09a.991.991 0 0 0-.989-.989h-3.958a.991.991 0 0 0-.99.989l.099 22.561c0 .594.297.693.891.693h4.255c.494 0 .791-.099.791-.693l-.099-22.561Zm-2.968 12.171c-.99 0-1.781-.792-1.781-1.781 0-.99.791-1.781 1.781-1.781.989 0 1.781.791 1.781 1.781 0 .989-.693 1.781-1.781 1.781Z"/>
  <path fill="#fff" d="M246.451 252.789v-1.187h-19.493v1.187h-1.683v2.771c0 1.088.396 2.078.99 2.77l3.463 3.859c.396.396.594 1.089.594 1.683v22.066c0 1.088.792 1.979 1.781 1.979h9.4c.99 0 1.781-.891 1.781-1.979V263.97c0-.593.198-1.187.594-1.682l3.463-3.958c.693-.692.99-1.781.99-2.77v-2.771h-1.88Zm-5.64 31.862c0 1.188-.693 1.682-1.584 1.682h-4.848c-.891 0-1.583-.494-1.583-1.682v-23.55c0-.495.395-.99.989-.99h6.036c.495 0 .99.396.99.99v23.55Z"/>
  <path fill="#A1A1A1" d="m245.462 220.629-.594-.594h-14.843l-.593.594c-.198.198-.297.396-.297.594v3.562h16.624v-3.562c-.099-.297-.198-.495-.297-.594Zm-3.167 2.968h-9.697c-.693 0-1.187-.593-1.187-1.187 0-.693.593-1.187 1.187-1.187h9.697c.693 0 1.188.593 1.188 1.187 0 .693-.594 1.187-1.188 1.187Zm121.611-1.483-.89-.891c-.198-.198-.396-.198-.594-.198h-11.478c-.198 0-.396.099-.594.198l-.89.891a1.639 1.639 0 0 0-.495 1.187v5.838h1.979v-1.385c0-.891.693-1.583 1.583-1.583h8.114c.891 0 1.583.692 1.583 1.583v1.385h1.979v-5.937c.198-.395 0-.791-.297-1.088Zm-2.374 2.276h-9.698a.78.78 0 0 1-.791-.792.78.78 0 0 1 .791-.791h9.698c.395 0 .791.395.791.791.099.396-.297.792-.791.792Z"/>
  <path fill="#fff" d="M412.095 229.338c-2.968.593-6.036.89-9.103.89h-21.077l-13.061-.099v3.464l2.77 1.385c.99.495 1.979.791 2.969.989l5.244.792c.792.099 1.187.594 1.187.989 0 .396-.494.891-1.286.99l-4.75.594c-1.286.198-2.572.593-3.76 1.286-1.088.594-2.374 1.385-2.374 1.385v3.662l12.962-.099h21.176c3.067 0 6.135.296 9.103.89l17.119 3.266a.213.213 0 0 0 .198-.198V226.27a.213.213 0 0 0-.198-.198l-17.119 3.266Zm-11.973 3.562-2.276-.396c13.062 1.88 26.42-4.156 26.42-4.156-7.223 4.255-15.931 5.937-24.144 4.552Zm46.606-6.927H430.5v11.28h16.228v-11.28Zm0 12.27H430.5v11.478h16.228v-11.478Zm0 12.468H430.5v2.968h16.228v-2.968Zm0-28.3H430.5v2.573h16.228v-2.573Zm-316.049 4.749h-2.474v21.473h2.474V227.16Z"/>
</svg>
