<svg xmlns="http://www.w3.org/2000/svg" width="512" height="512" fill="none" viewBox="0 0 512 512">
  <path fill="#fff" d="M169.094 227.794h-10.912v6.548h10.912v-6.548Zm-30.555 8.333-1.389 2.38 211.905.199v-.199c-.992-2.777-3.571-2.579-6.547-2.38h-4.167l-.992-1.786-.992 1.786h-1.786l-.992-1.786-.992 1.786h-1.786l-.992-1.786-.992 1.786h-1.786l-.992-1.786-.992 1.786h-1.785l-.993-1.786-.992 1.786h-1.785l-.992-1.786-.992 1.786h-1.786l-.992-1.786-.992 1.786h-1.786l-.992-1.786-.992 1.786h-1.786l-.992-1.786-.992 1.786h-1.786l-.992-1.786-.992 1.786h-1.786l-.992-1.786-.992 1.786h-1.785l-.992-1.786-.992 1.786h-1.786l-.992-1.786-.992 1.786h-1.786l-.992-1.786-.992 1.786h-1.786l-.992-1.786-.992 1.786h-1.786l-.992-1.786-.992 1.786h-1.786l-.992-1.786-.992 1.786h-1.785l-.992-1.786-.993 1.786h-1.785l-.992-1.786-.992 1.786h-1.786l-.992-1.786-.992 1.786h-1.786l-.992-1.786-.992 1.786h-1.786l-.992-1.786-.992 1.786h-1.786l-.992-1.786-.992 1.786h-1.785l-.993-1.786-.992 1.786h-1.785l-.992-1.786-.992 1.786h-1.786l-.992-1.786-.992 1.786h-1.786l-.992-1.786-.992 1.786h-1.786l-.992-1.786-.992 1.786h-1.786l-.992-1.786-.992 1.786h-1.786l-.992-1.786-.992 1.786h-1.785l-.992-1.786-.992 1.786h-1.786l-.992-1.786-.992 1.786h-1.786l-.992-1.786-.992 1.786h-1.786l-.992-1.786-.992 1.786h-1.786l-.992-1.786-.992 1.786h-69.643Zm47.025-1.785h10.715v-6.548h-10.715v6.548Zm-16.666 23.214c-.397 0-3.968-.199-5.754 3.968v20.039h4.365l50.794-11.507 8.531-3.969 4.564-8.73-62.5.199Zm180.754-16.667-327.58-.199c-2.777 0-3.373 2.977-3.373 2.977-1.389 4.563-2.182 8.531-1.587 9.127.794 1.388 2.778 1.19 3.572 1.19 1.19 0 112.499-1.389 112.499-1.389l6.151-6.944h84.127l-6.746 9.92 131.746-.595c1.984 0 3.572-1.786 3.572-3.77.198 0-2.381-10.317-2.381-10.317Zm-81.548 12.5h-3.968c-.794 0-1.587-.595-1.587-1.587 0-.794.595-1.588 1.587-1.588h3.968c.794 0 1.587.595 1.587 1.588-.198.793-.793 1.587-1.587 1.587Zm0-6.945h-3.968c-.794 0-1.587-.595-1.587-1.587 0-.794.595-1.587 1.587-1.587h3.968c.794 0 1.587.595 1.587 1.587-.198.992-.793 1.587-1.587 1.587Zm9.921 6.945h-3.968c-.794 0-1.588-.595-1.588-1.587 0-.794.595-1.588 1.588-1.588h3.968c.793 0 1.587.595 1.587 1.588-.198.793-.794 1.587-1.587 1.587Zm0-6.945h-3.968c-.794 0-1.588-.595-1.588-1.587 0-.794.595-1.587 1.588-1.587h3.968c.793 0 1.587.595 1.587 1.587-.198.992-.794 1.587-1.587 1.587Zm9.92 6.945h-3.968c-.793 0-1.587-.595-1.587-1.587 0-.794.595-1.588 1.587-1.588h3.968c.794 0 1.588.595 1.588 1.588-.199.793-.794 1.587-1.588 1.587Zm0-6.945h-3.968c-.793 0-1.587-.595-1.587-1.587 0-.794.595-1.587 1.587-1.587h3.968c.794 0 1.588.595 1.588 1.587-.199.992-.794 1.587-1.588 1.587Zm9.921 6.945h-3.968c-.794 0-1.588-.595-1.588-1.587 0-.794.596-1.588 1.588-1.588h3.968c.794 0 1.587.595 1.587 1.588-.198.793-.793 1.587-1.587 1.587Zm0-6.945h-3.968c-.794 0-1.588-.595-1.588-1.587 0-.794.596-1.587 1.588-1.587h3.968c.794 0 1.587.595 1.587 1.587-.198.992-.793 1.587-1.587 1.587Zm9.921 6.945h-3.969c-.793 0-1.587-.595-1.587-1.587 0-.794.595-1.588 1.587-1.588h3.969c.793 0 1.587.595 1.587 1.588-.198.793-.794 1.587-1.587 1.587Zm0-6.945h-3.969c-.793 0-1.587-.595-1.587-1.587 0-.794.595-1.587 1.587-1.587h3.969c.793 0 1.587.595 1.587 1.587-.198.992-.794 1.587-1.587 1.587Zm9.92 6.945h-3.968c-.794 0-1.587-.595-1.587-1.587 0-.794.595-1.588 1.587-1.588h3.968c.794 0 1.588.595 1.588 1.588-.199.793-.794 1.587-1.588 1.587Zm0-6.945h-3.968c-.794 0-1.587-.595-1.587-1.587 0-.794.595-1.587 1.587-1.587h3.968c.794 0 1.588.595 1.588 1.587-.199.992-.794 1.587-1.588 1.587Zm9.921 6.945h-3.968c-.794 0-1.588-.595-1.588-1.587 0-.794.596-1.588 1.588-1.588h3.968c.794 0 1.587.595 1.587 1.588-.198.793-.793 1.587-1.587 1.587Zm0-6.945h-3.968c-.794 0-1.588-.595-1.588-1.587 0-.794.596-1.587 1.588-1.587h3.968c.794 0 1.587.595 1.587 1.587-.198.992-.793 1.587-1.587 1.587Zm9.921 6.945h-3.969c-.793 0-1.587-.595-1.587-1.587 0-.794.595-1.588 1.587-1.588h3.969c.793 0 1.587.595 1.587 1.588-.199.793-.794 1.587-1.587 1.587Zm0-6.945h-3.969c-.793 0-1.587-.595-1.587-1.587 0-.794.595-1.587 1.587-1.587h3.969c.793 0 1.587.595 1.587 1.587-.199.992-.794 1.587-1.587 1.587Z"/>
  <path fill="#A1A1A1" d="M355.801 248.825h116.27v-7.936H354.016l1.785 7.936Z"/>
  <path fill="#fff" d="M478.817 240.889h-4.762v7.936h4.762v-7.936Z"/>
  <path fill="#fff" d="M502.428 238.31h-28.571c0 .198-.198.396-.397.595h7.341v11.706h-7.539c.198.397.198.794.198.794h28.77s3.571-1.587 3.571-6.349c.199-4.762-3.373-6.746-3.373-6.746Zm-12.896 10.119c0 .793-.596 1.587-1.588 1.587h-2.778c-.793 0-1.587-.595-1.587-1.587v-6.548c0-.794.794-1.587 1.587-1.587h2.778c.794 0 1.588.595 1.588 1.587v6.548Zm9.523 0c0 .793-.595 1.587-1.587 1.587h-2.778c-.793 0-1.587-.595-1.587-1.587v-6.548c0-.794.595-1.587 1.587-1.587h2.778c.794 0 1.587.595 1.587 1.587v6.548Z"/>
  <path fill="#A1A1A1" d="M15.524 254.183c-1.19-1.389-.199-6.151 1.19-10.318-4.166 0-10.714.595-10.714 4.762 0 5.159 3.968 12.699 5.159 18.056 1.389 5.357-1.19 14.087-2.183 18.65-.992 4.564 10.913 4.564 10.913 4.564V255.77c-1.389 0-3.175-.198-4.365-1.587Z"/>
  <path fill="#fff" d="M143.301 269.46v11.309c6.746 4.366 12.698 2.183 15.873.397v-11.508h-15.873v-.198Zm14.087 10.714s-7.738 3.969-12.5-.992v-7.738h12.5v8.73Z"/>
  <path fill="#A1A1A1" d="M129.81 269.262c.794.595 1.191 1.587 1.191 2.579v.992c0 .794-.199 1.389-.595 1.984l-17.262 25.199c-.397.595-.199 1.587.595 1.587l15.675 4.167c.793.198.595-.596.595-.992-.199-.794-.595-1.389-.199-2.381 1.191-2.58 4.564-9.723 7.54-11.905.992-.595.992-.595.992-1.587 0-.794 0-1.786.397-3.175.397-1.786 1.587-4.167 2.579-4.96v-13.294h17.857v-3.968h-35.912l6.547 5.754Zm5.953 15.278c.595.793.793 1.785.198 2.579l-7.738 13.294c-.397.595-1.19 1.19-1.984 1.19h-.198l-6.746-.595c-.794 0-1.389-.595-1.786-1.191-.397-.793-.397-1.587.198-2.182l10.913-16.667c.397-.595.992-.992 1.587-.992s1.389.198 1.786.595l3.77 3.969Z"/>
  <path fill="#fff" d="M119.492 298.825c0 .199 0 .199.199.397l6.746.595s.198 0 .198-.198l7.738-13.492v-.199L131 282.159c-.198-.199-.397-.199-.595 0l-10.913 16.666Z"/>
  <path fill="#A1A1A1" d="M149.253 272.437h2.58s-1.786 3.968 1.785 7.142c0 0-2.777.199-3.968-2.182-1.19-2.58-.397-4.96-.397-4.96Z"/>
  <path fill="#fff" d="m138.34 225.809-18.452 1.786c-.794 0-1.587-.595-1.587-1.389v-10.318c0-.793.793-1.587 1.587-1.388l18.452 1.785v9.524Zm9.129-9.722h-7.143v9.325h7.143v-9.325Zm21.627 0h-19.643v9.325h19.643v-9.325Zm14.682 0H171.08v9.325h12.698v-9.325Zm12.698 0h-10.714v9.325h10.714v-9.325Zm37.302 15.079-35.317-5.555v-9.524l35.317-5.556c1.191-.198 2.183.794 2.183 1.984v16.667c0 1.389-.992 2.183-2.183 1.984Zm-92.857 16.271-6.151 6.944-112.897 1.389v5.754l139.087-1.984c3.175-4.365 6.945-3.969 7.738-3.969h46.032l5.357-7.936h-79.166v-.198Z"/>
  <path fill="#A1A1A1" d="M71.278 281.96c-.595-2.579-.397-5.357.397-7.738l4.563-11.905h-6.547l-2.58 6.35c-.992 2.381-3.175 6.944-5.754 7.341l-39.484 4.762v8.928l31.945-3.77c2.38-.396 4.761-.396 6.944.397l7.341 2.58c.397.198.595.198.992.198.794 0 1.786-.397 2.381-.992.596-.794.794-1.587.596-2.579l-.794-3.572Zm-38.294 4.365a2.202 2.202 0 0 1-2.182-2.182c0-1.191.992-2.183 2.182-2.183s2.183.992 2.183 2.183c0 1.19-.992 2.182-2.183 2.182Zm9.326-1.389a2.202 2.202 0 0 1-2.183-2.182c0-1.191.992-2.183 2.183-2.183 1.19 0 2.182.992 2.182 2.183 0 1.19-.992 2.182-2.182 2.182Zm8.928-1.19a2.202 2.202 0 0 1-2.182-2.183c0-1.19.992-2.182 2.182-2.182s2.183.992 2.183 2.182a2.202 2.202 0 0 1-2.183 2.183Z"/>
  <path fill="#fff" d="M182.587 202h-10.516c.199.794.596 1.587.794 2.579 0 .199 0 .596-.198.794l-1.588 2.381c-.198.198-.198.397-.198.595v5.953h12.5v-5.953c0-.198 0-.397-.199-.595l-1.587-2.381c-.198-.198-.198-.595-.198-.794l1.19-2.579Z"/>
  <path fill="#A1A1A1" d="M167.508 285.929v23.413c0 .793.793 1.389 1.587 1.389l48.016-9.921c.595-.198 1.19-.595 1.19-1.389v-25.198l-50.793 11.706Zm17.46 15.675c0 1.19-.794 1.984-1.984 1.984s-1.984-.794-1.984-1.984v-12.699c0-1.19.794-1.984 1.984-1.984s1.984.794 1.984 1.984v12.699Zm9.921-1.985c0 1.191-.794 1.985-1.984 1.985-1.191 0-1.984-.794-1.984-1.985v-12.698c0-1.19.793-1.984 1.984-1.984 1.19 0 1.984.794 1.984 1.984v12.698Zm9.92-1.984c0 1.191-.793 1.984-1.984 1.984-1.19 0-1.984-.793-1.984-1.984v-12.698c0-1.191.794-1.984 1.984-1.984 1.191 0 1.984.793 1.984 1.984v12.698Z"/>
</svg>
