<svg width="512" height="512" viewBox="0 0 512 512" fill="none" xmlns="http://www.w3.org/2000/svg">
<path d="M158.591 399.055C159.641 400.588 159.707 402.18 159.609 403.149C159.578 403.511 159.959 403.755 160.284 403.567L202.537 379.172C202.627 379.12 203.082 378.873 203.176 378.803C207.474 375.963 212.572 373.991 205.773 371.8L158.585 399.044L158.591 399.055Z" fill="white"/>
<path d="M220.183 204.295L188.619 222.518C189.724 225.26 191.687 229.152 197.361 229.525L221.847 215.388C222.004 215.297 226.136 212.612 223.177 207.486L221.046 203.796L220.194 204.288L220.183 204.295Z" fill="white"/>
<path d="M185.998 216.269C185.998 216.269 187.606 218.691 188.268 220.926L220.246 202.463C220.246 202.463 217.643 200.362 217.091 198.318L185.998 216.269Z" fill="white"/>
<path d="M195.489 289.799C197.496 288.64 198.184 286.074 197.025 284.067C195.866 282.06 193.3 281.372 191.293 282.531C189.286 283.69 188.599 286.256 189.757 288.263C190.916 290.27 193.482 290.958 195.489 289.799Z" fill="white"/>
<path d="M255.594 226.982C247.654 231.491 211.155 252.279 201.721 258.085C191.134 264.616 193.383 276.748 193.383 276.748C201.581 278.281 202.525 286.754 202.614 289.215C204.703 288.637 206.62 288.952 206.62 288.952C221.721 294.695 232.865 285.374 232.865 285.374C250.067 272.557 237.974 255.55 237.974 255.55C235.718 253.143 234.46 250.55 235.77 248.597C238.896 243.935 245.587 240.656 248.318 239.453C249.07 239.124 249.584 238.408 249.651 237.592L249.885 235.019C252.656 233.419 254.649 230.758 255.407 227.643L255.51 227.225L255.581 226.959L255.594 226.982ZM233.438 280.617C222.157 292.394 207.108 284.228 207.108 284.228C200.48 279.276 199.913 273.501 200.398 269.886C200.563 268.669 202.216 268.373 202.775 269.471C211.247 285.906 224.876 281.717 224.876 281.717C221.065 281.748 216.362 277.539 216.362 277.539C207.133 271.397 210.673 260.873 210.673 260.873C219.308 244.641 230.31 254.605 230.31 254.605C246.01 265.686 233.432 280.605 233.432 280.605L233.438 280.617Z" fill="#A1A1A1"/>
<path d="M349.543 139.838L303.891 166.195C303.33 166.519 302.513 166.138 302.059 165.353C301.606 164.568 301.685 163.67 302.246 163.346L347.898 136.989C348.459 136.665 349.276 137.045 349.73 137.831C350.183 138.616 350.104 139.514 349.543 139.838Z" fill="white"/>
<path d="M346.1 127.424L348.426 125.961L349.94 125.087C352.487 126.443 355.484 129.588 357.893 133.76C360.302 137.932 361.527 142.1 361.427 144.984L360.799 145.347L358.051 145.663L357.931 145.507L357.953 145.494C357.537 142.908 356.404 139.779 354.597 136.65C352.525 133.061 350.03 130.269 347.736 128.677L346.1 127.424Z" fill="#A1A1A1"/>
<path d="M360.97 118.705L351.414 124.222C354.116 125.922 356.975 129.087 359.222 132.979C361.469 136.871 362.769 140.936 362.902 144.119L371.437 139.191C371.437 139.191 372.677 127.663 360.959 118.711L360.97 118.705Z" fill="#A1A1A1"/>
<path d="M350.315 123.614L359.254 118.453L352.246 112.375L346.29 115.814L347.966 124.208L350.315 123.614Z" fill="#A1A1A1"/>
<path d="M113.206 252.164L111.801 249.73C111.399 249.035 111.521 248.157 112.085 247.607L114.299 245.432C114.644 245.098 115.121 244.912 115.598 244.936L126.207 245.361L113.201 252.182L113.206 252.164Z" fill="white"/>
<path d="M221.474 195.444L218.871 196.947L224.512 206.716C227.465 211.831 224.598 215.491 222.669 216.709L222.646 216.722L197.723 231.111L197.257 231.081C190.127 230.621 188.02 225.288 186.902 222.419L186.661 221.795C186.008 220.198 185.023 218.673 184.501 217.897L183.943 217.113L172.816 223.537L167.167 224.735L130.051 246.163L113.806 254.914L107.164 266.93C106.575 268.421 104.226 269.793 102.893 270.412L97.8928 272.656C97.2034 272.965 96.5804 273.414 96.1656 274.042C94.5788 276.319 94.7359 279.13 96.4767 279.71C97.4421 280.035 99.4845 278.004 100.465 277.707C112.163 274.034 115.408 280.251 118.498 284.255L236.698 216.012L226.376 198.133C224.178 195.543 221.491 195.449 221.491 195.449L221.474 195.444Z" fill="white"/>
<path d="M347.632 130.546L346.283 129.53L341.412 132.387L228.482 198.724L237.817 214.841L356.533 146.3L356.241 144.808C355.731 142.501 354.688 139.917 353.244 137.416C351.606 134.578 349.59 132.123 347.626 130.535L347.632 130.546ZM349.97 140.578L304.318 166.934C303.118 167.627 301.59 167.208 300.903 166.02C300.217 164.831 300.629 163.291 301.818 162.605L347.47 136.248C348.67 135.555 350.198 135.974 350.885 137.163C351.571 138.352 351.159 139.891 349.97 140.578Z" fill="#A1A1A1"/>
<path d="M130.714 285.935C130.073 285.886 129.438 286.029 128.857 286.319C127.312 287.061 124.968 288.699 126.44 291.483C128.58 295.526 132.063 294.383 133.705 293.42C135.347 292.457 141.539 289.764 142.055 288.3C142.531 286.949 142.972 284.346 139.655 283.599C139.119 283.475 137.972 283.793 137.54 284.132C136.416 285.035 133.565 286.158 130.726 285.928L130.714 285.935Z" fill="#A1A1A1"/>
<path d="M174.631 264.602C173.753 264.87 172.797 264.509 172.315 263.726C171.627 262.613 170.849 260.953 171.47 259.802C172.466 257.926 179.841 256.868 179.841 256.868L181.255 260.897C181.255 260.897 177.616 263.686 174.631 264.602Z" fill="#A1A1A1"/>
<path d="M185.674 253.398L207.345 240.886C207.861 240.588 208.51 240.961 208.511 241.559L208.518 245.742C208.519 246.235 208.251 246.704 207.825 246.95L187.781 258.522C187.164 258.879 186.374 258.572 186.159 257.889L185.166 254.693C185.014 254.197 185.226 253.657 185.674 253.398Z" fill="#A1A1A1"/>
<path d="M212.5 238.029L213.138 241.414C213.25 242.022 213.859 242.403 214.464 242.234L219.755 240.779C220.686 240.526 221.407 239.78 221.629 238.844C221.943 237.497 222.145 235.541 221.194 234.101C220.938 233.71 220.511 233.463 220.047 233.462C219.012 233.431 216.812 233.79 213.22 236.297C212.662 236.679 212.384 237.363 212.511 238.022L212.5 238.029Z" fill="#A1A1A1"/>
<path d="M238.811 216.587L118.849 285.847C118.905 286.099 118.985 286.367 119.023 286.614C119.566 290.144 120.373 293.253 118.278 296.152C116.822 298.189 114.407 299.808 115.033 301.151C115.425 301.987 116.258 303.091 117.942 302.822C119.895 302.502 123.897 301.298 123.897 301.298C135.694 297.434 136.618 305.2 136.178 309.956C135.835 313.713 135.905 317.486 136.166 321.254C137.06 333.734 138.847 357.215 140.15 364.628C141.944 374.884 146.548 390.007 146.548 390.007C151.063 401.04 159.086 397.036 159.086 397.036L205.27 370.566C208.113 369.299 205.235 365.636 205.235 365.636C196.956 350.57 195.818 302.413 195.818 302.413C195.536 295.397 197.967 290.748 201.13 289.804L201.133 289.757C201.149 289.344 201.307 279.697 193.162 278.178L192.106 277.98L191.915 276.924C191.883 276.792 189.598 263.665 200.98 256.645C204.113 254.716 210.548 250.941 220.093 245.43C235.393 236.597 253.714 226.184 256.154 224.79L256.569 223.1L256.616 223.103C256.527 222.975 256.464 222.891 256.464 222.891L261.838 223.004L266.985 220.107C265.974 218.926 265.201 217.847 265.201 217.847L270.773 217.965L276.672 214.634C275.624 213.414 274.808 212.285 274.808 212.285L280.606 212.407L286.348 209.167C285.258 207.927 284.414 206.724 284.414 206.724L290.323 206.857L290.322 206.933L295.693 203.906C294.566 202.628 293.685 201.387 293.685 201.387L299.594 201.519L299.593 201.699C302.741 199.717 304.375 196.486 302.491 193.222L296.468 182.79L238.851 216.579L238.811 216.587Z" fill="white"/>
<path d="M148.404 293.519L171.174 278.922C172.932 277.772 184.205 271.16 183.341 272.72C181.854 275.403 180.672 281.619 180.227 283.775C177.712 295.816 179.694 334.737 187.369 357.226C188.425 360.325 189.612 366.37 186.38 368.206L160.978 382.363C156.984 384.64 151.933 386.823 150.77 381.183C146.895 362.348 143.597 319.101 144.99 300.351C145.108 298.742 146.695 294.626 148.398 293.508L148.404 293.519Z" fill="#A1A1A1"/>
</svg>
