<svg width="512" height="752" viewBox="0 0 512 752" fill="none" xmlns="http://www.w3.org/2000/svg">
<path d="M100.099 155.241C100.241 157.094 99.503 158.505 98.9331 159.295C98.7259 159.593 98.9331 159.995 99.3087 159.995H148.098C148.202 159.995 148.72 160.008 148.836 159.995C153.978 159.684 159.379 160.526 154.587 155.229H100.099V155.241Z" fill="white"/>
<path d="M250.819 17.3691H214.373C213.958 20.2962 213.712 24.648 218.44 27.8083H246.713C246.895 27.8083 251.816 27.5493 251.816 21.6303V17.3691H250.832H250.819Z" fill="white"/>
<path d="M215.227 10.6465C215.227 10.6465 215.409 13.5477 214.865 15.8143H251.79C251.79 15.8143 250.586 12.6929 251.13 10.6465H215.227Z" fill="white"/>
<path d="M186.682 79.071C188.999 79.071 190.878 77.1923 190.878 74.8749C190.878 72.5574 188.999 70.6787 186.682 70.6787C184.364 70.6787 182.485 72.5574 182.485 74.8749C182.485 77.1923 184.364 79.071 186.682 79.071Z" fill="white"/>
<path d="M270.143 54.7221C261.012 54.6573 219.009 54.4112 207.935 54.7221C195.501 55.0847 191.383 66.7154 191.383 66.7154C197.716 72.1422 194.297 79.9522 193.144 82.1281C195.242 82.6721 196.745 83.9025 196.745 83.9025C206.951 96.4269 221.263 93.9272 221.263 93.9272C242.568 91.4275 240.6 70.6528 240.6 70.6528C239.848 67.4407 240.056 64.5654 242.167 63.5293C247.205 61.0555 254.639 61.5606 257.605 61.8844C258.421 61.9751 259.224 61.6124 259.691 60.9389L261.18 58.8278C264.379 58.8278 267.436 57.5197 269.651 55.2013L269.948 54.8904L270.143 54.6962V54.7221ZM224.138 90.0935C208.479 94.6525 199.529 80.0558 199.529 80.0558C196.266 72.4531 198.662 67.1688 200.889 64.2805C201.641 63.3091 203.221 63.879 203.156 65.1094C202.275 83.5787 216.173 86.7648 216.173 86.7648C212.857 84.8868 210.888 78.8901 210.888 78.8901C205.967 68.9561 214.295 61.6124 214.295 61.6124C229.889 51.8727 234.435 66.0031 234.435 66.0031C242.491 83.4492 224.138 90.0805 224.138 90.0805V90.0935Z" fill="#A1A1A1"/>
<path d="M395.076 26.2282H342.362C341.715 26.2282 341.197 25.49 341.197 24.5834C341.197 23.6767 341.715 22.9385 342.362 22.9385H395.076C395.724 22.9385 396.242 23.6767 396.242 24.5834C396.242 25.49 395.724 26.2282 395.076 26.2282Z" fill="white"/>
<path d="M398.301 13.756L401.047 13.6523H402.795C404.324 16.1001 405.347 20.3222 405.347 25.14C405.347 29.9578 404.324 34.1799 402.795 36.6276H402.07L399.532 35.5268L399.506 35.3325H399.532C400.464 32.8848 401.047 29.6081 401.047 25.9948C401.047 21.8504 400.283 18.1852 399.091 15.6598L398.301 13.756Z" fill="#A1A1A1"/>
<path d="M415.54 13.6387H404.505C405.995 16.462 406.888 20.6323 406.888 25.1263C406.888 29.6203 405.982 33.7906 404.505 36.614H414.361C414.361 36.614 421.199 27.2503 415.527 13.6387H415.54Z" fill="#A1A1A1"/>
<path d="M403.858 12.5638H414.18L411.149 3.7959H404.272L401.526 11.9033L403.858 12.5638Z" fill="#A1A1A1"/>
<path d="M134.24 5.33687V2.52647C134.24 1.7235 134.784 1.02414 135.548 0.829875L138.553 0.0528071C139.019 -0.0637531 139.524 0.0139537 139.926 0.272976L148.901 5.94557L134.227 5.34982L134.24 5.33687Z" fill="white"/>
<path d="M256.362 10.3499H253.357V21.6309C253.357 27.5369 249.045 29.2725 246.765 29.3631H246.739H217.96L217.572 29.1041C211.627 25.1408 212.469 19.468 212.935 16.4243L213.039 15.7637C213.272 14.0541 213.181 12.2408 213.116 11.3083L213.026 10.3499H200.177L194.686 8.56253H151.828L133.385 8.01855L121.625 15.1032C120.368 16.1005 117.648 16.1134 116.185 15.9839L110.732 15.427C109.981 15.3493 109.217 15.427 108.543 15.7637C106.031 16.9424 104.761 19.455 105.979 20.8279C106.652 21.592 109.437 20.8538 110.434 21.0869C122.402 23.755 122.104 30.7619 122.777 35.7743H259.264V15.1291C258.655 11.7875 256.375 10.3628 256.375 10.3628L256.362 10.3499Z" fill="white"/>
<path d="M398.068 17.2261L397.408 15.6719L391.761 15.7107L260.792 16.6951L260.818 35.3198H397.9L398.392 33.8821C399.104 31.6285 399.493 28.8698 399.493 25.9815C399.493 22.7047 398.975 19.5704 398.068 17.2131V17.2261ZM395.076 27.0824H342.362C340.977 27.0824 339.863 25.9556 339.863 24.5827C339.863 23.2098 340.99 22.083 342.362 22.083H395.076C396.462 22.083 397.576 23.2098 397.576 24.5827C397.576 25.9556 396.449 27.0824 395.076 27.0824Z" fill="#A1A1A1"/>
<path d="M260.805 37.329H122.285C122.208 37.5751 122.143 37.8471 122.052 38.0802C120.757 41.4089 119.902 44.5043 116.638 45.9679C114.359 47.004 111.458 47.1983 111.328 48.6748C111.25 49.5944 111.419 50.9673 113.012 51.576C114.864 52.2754 118.931 53.2339 118.931 53.2339C131.08 55.7854 127.997 62.9736 125.238 66.8721C123.062 69.9546 121.236 73.2573 119.578 76.6507C114.113 87.9058 103.92 109.134 101.342 116.206C97.7676 125.984 94.1929 141.384 94.1929 141.384C92.5869 153.196 101.537 153.74 101.537 153.74L154.768 153.908C157.864 154.232 157.203 149.621 157.203 149.621C157.566 132.434 180.659 90.1595 180.659 90.1595C183.923 83.9426 188.353 81.132 191.565 81.8962L191.59 81.8573C191.811 81.5076 196.771 73.2314 190.477 67.8435L189.661 67.1441L190.023 66.1338C190.062 66.0043 194.647 53.4929 208.013 53.1043C211.692 53.0007 219.152 52.9489 230.174 52.9489C247.84 52.9489 268.913 53.0914 271.723 53.1043L272.928 51.848L272.967 51.8739C272.954 51.7185 272.941 51.6149 272.941 51.6149L277.539 54.3995L283.445 54.4643C283.16 52.936 283.03 51.6149 283.03 51.6149L287.796 54.5031L294.57 54.5679C294.272 52.9878 294.13 51.6019 294.13 51.6019L299.09 54.6067L305.683 54.6715C305.359 53.0525 305.23 51.589 305.23 51.589L310.281 54.6585L310.242 54.7233L316.407 54.7881C316.07 53.1173 315.928 51.6019 315.928 51.6019L320.979 54.6715L320.888 54.8269C324.605 54.6845 327.636 52.7028 327.636 48.9339V36.8887L260.844 37.342L260.805 37.329Z" fill="white"/>
<path d="M144.044 58.7509L171.062 57.4945C173.16 57.378 186.228 57.2873 184.7 58.2069C182.071 59.787 177.939 64.5792 176.476 66.2241C168.277 75.3939 150.533 110.092 145.935 133.405C145.301 136.617 143.306 142.445 139.589 142.42L110.512 141.979C105.914 141.953 100.448 141.319 102.262 135.853C108.323 117.604 127.09 78.5024 137.672 62.9602C138.579 61.6262 142.011 58.8545 144.044 58.7379V58.7509Z" fill="#A1A1A1"/>
<path d="M158.591 639.055C159.641 640.588 159.707 642.18 159.609 643.149C159.578 643.511 159.959 643.755 160.284 643.567L202.537 619.172C202.627 619.12 203.082 618.873 203.176 618.803C207.474 615.963 212.572 613.991 205.773 611.8L158.585 639.044L158.591 639.055Z" fill="white"/>
<path d="M220.183 444.295L188.619 462.518C189.724 465.26 191.687 469.152 197.361 469.525L221.847 455.388C222.004 455.297 226.136 452.612 223.177 447.486L221.046 443.796L220.194 444.288L220.183 444.295Z" fill="white"/>
<path d="M185.998 456.269C185.998 456.269 187.606 458.691 188.268 460.926L220.246 442.463C220.246 442.463 217.643 440.362 217.091 438.318L185.998 456.269Z" fill="white"/>
<path d="M195.489 529.799C197.496 528.64 198.184 526.074 197.025 524.067C195.866 522.06 193.3 521.372 191.293 522.531C189.286 523.69 188.599 526.256 189.757 528.263C190.916 530.27 193.482 530.958 195.489 529.799Z" fill="white"/>
<path d="M255.594 466.982C247.654 471.491 211.155 492.279 201.721 498.085C191.134 504.616 193.383 516.748 193.383 516.748C201.581 518.281 202.525 526.754 202.614 529.215C204.703 528.637 206.62 528.952 206.62 528.952C221.721 534.695 232.865 525.374 232.865 525.374C250.067 512.557 237.974 495.55 237.974 495.55C235.718 493.143 234.46 490.55 235.77 488.597C238.896 483.935 245.587 480.656 248.318 479.453C249.07 479.124 249.584 478.408 249.651 477.592L249.885 475.019C252.656 473.419 254.649 470.758 255.407 467.643L255.51 467.225L255.581 466.959L255.594 466.982ZM233.438 520.617C222.157 532.394 207.108 524.228 207.108 524.228C200.48 519.276 199.913 513.501 200.398 509.886C200.563 508.669 202.216 508.373 202.775 509.471C211.247 525.906 224.876 521.717 224.876 521.717C221.065 521.748 216.362 517.539 216.362 517.539C207.133 511.397 210.673 500.873 210.673 500.873C219.308 484.641 230.31 494.605 230.31 494.605C246.01 505.686 233.432 520.605 233.432 520.605L233.438 520.617Z" fill="#A1A1A1"/>
<path d="M349.543 379.838L303.891 406.195C303.33 406.519 302.513 406.138 302.059 405.353C301.606 404.568 301.685 403.67 302.246 403.346L347.898 376.989C348.459 376.665 349.276 377.045 349.73 377.831C350.183 378.616 350.104 379.514 349.543 379.838Z" fill="white"/>
<path d="M346.1 367.424L348.426 365.961L349.94 365.087C352.487 366.443 355.484 369.588 357.893 373.76C360.302 377.932 361.527 382.1 361.427 384.984L360.799 385.347L358.051 385.663L357.931 385.507L357.953 385.494C357.537 382.908 356.404 379.779 354.597 376.65C352.525 373.061 350.03 370.269 347.736 368.677L346.1 367.424Z" fill="#A1A1A1"/>
<path d="M360.97 358.705L351.414 364.222C354.116 365.922 356.975 369.087 359.222 372.979C361.469 376.871 362.769 380.936 362.902 384.119L371.437 379.191C371.437 379.191 372.677 367.663 360.959 358.711L360.97 358.705Z" fill="#A1A1A1"/>
<path d="M350.315 363.614L359.254 358.453L352.246 352.375L346.29 355.814L347.966 364.208L350.315 363.614Z" fill="#A1A1A1"/>
<path d="M113.206 492.164L111.801 489.73C111.399 489.035 111.521 488.157 112.085 487.607L114.299 485.432C114.644 485.098 115.121 484.912 115.598 484.936L126.207 485.361L113.201 492.182L113.206 492.164Z" fill="white"/>
<path d="M221.474 435.444L218.871 436.947L224.512 446.716C227.465 451.831 224.598 455.491 222.669 456.709L222.646 456.722L197.723 471.111L197.257 471.081C190.127 470.621 188.02 465.288 186.902 462.419L186.661 461.795C186.008 460.198 185.023 458.673 184.501 457.897L183.943 457.113L172.816 463.537L167.167 464.735L130.051 486.163L113.806 494.914L107.164 506.93C106.575 508.421 104.226 509.793 102.893 510.412L97.8928 512.656C97.2034 512.965 96.5804 513.414 96.1656 514.042C94.5788 516.319 94.7359 519.13 96.4767 519.71C97.4421 520.035 99.4845 518.004 100.465 517.707C112.163 514.034 115.408 520.251 118.498 524.255L236.698 456.012L226.376 438.133C224.178 435.543 221.491 435.449 221.491 435.449L221.474 435.444Z" fill="white"/>
<path d="M347.632 370.546L346.283 369.53L341.412 372.387L228.482 438.724L237.817 454.841L356.533 386.3L356.241 384.808C355.731 382.501 354.688 379.917 353.244 377.416C351.606 374.578 349.59 372.123 347.626 370.535L347.632 370.546ZM349.97 380.578L304.318 406.934C303.118 407.627 301.59 407.208 300.903 406.02C300.217 404.831 300.629 403.291 301.818 402.605L347.47 376.248C348.67 375.555 350.198 375.974 350.885 377.163C351.571 378.352 351.159 379.891 349.97 380.578Z" fill="#A1A1A1"/>
<path d="M238.811 456.587L118.849 525.847C118.905 526.099 118.985 526.367 119.023 526.614C119.566 530.144 120.373 533.253 118.278 536.152C116.822 538.189 114.407 539.808 115.033 541.151C115.425 541.987 116.258 543.091 117.942 542.822C119.895 542.502 123.897 541.298 123.897 541.298C135.694 537.434 136.618 545.2 136.178 549.956C135.835 553.713 135.905 557.486 136.166 561.254C137.06 573.734 138.847 597.215 140.15 604.628C141.944 614.884 146.548 630.007 146.548 630.007C151.063 641.04 159.086 637.036 159.086 637.036L205.27 610.566C208.113 609.299 205.235 605.636 205.235 605.636C196.956 590.57 195.818 542.413 195.818 542.413C195.536 535.397 197.967 530.748 201.13 529.804L201.133 529.757C201.149 529.344 201.307 519.697 193.162 518.178L192.106 517.98L191.915 516.924C191.883 516.792 189.598 503.665 200.98 496.645C204.113 494.716 210.548 490.941 220.093 485.43C235.393 476.597 253.714 466.184 256.154 464.79L256.569 463.1L256.616 463.103C256.527 462.975 256.464 462.891 256.464 462.891L261.838 463.004L266.985 460.107C265.974 458.926 265.201 457.847 265.201 457.847L270.773 457.965L276.672 454.634C275.624 453.414 274.808 452.285 274.808 452.285L280.606 452.407L286.348 449.167C285.258 447.927 284.414 446.724 284.414 446.724L290.323 446.857L290.322 446.933L295.693 443.906C294.566 442.628 293.685 441.387 293.685 441.387L299.594 441.519L299.593 441.699C302.741 439.717 304.375 436.486 302.491 433.222L296.468 422.79L238.851 456.579L238.811 456.587Z" fill="white"/>
<path d="M148.404 533.519L171.174 518.922C172.932 517.772 184.205 511.16 183.341 512.72C181.854 515.403 180.672 521.619 180.227 523.775C177.712 535.816 179.694 574.737 187.369 597.226C188.425 600.325 189.612 606.37 186.38 608.206L160.978 622.363C156.984 624.64 151.933 626.823 150.77 621.183C146.895 602.348 143.597 559.101 144.99 540.351C145.108 538.742 146.695 534.626 148.398 533.508L148.404 533.519Z" fill="#A1A1A1"/>
</svg>
